<svg xmlns="http://www.w3.org/2000/svg" width="197" height="55" viewBox="0 0 197 55"><g transform="translate(-271 -4103)"><path d="M18,0H179a18,18,0,0,1,18,18V37a18,18,0,0,1-18,18H18A18,18,0,0,1,0,37V18A18,18,0,0,1,18,0Z" transform="translate(271 4103)" fill="#f8af63"/><path d="M33.289,21h-3.3V10.492l-3.242.947v-2.5l6.24-2.158h.3Zm6.377-3.193a1.874,1.874,0,0,1,1.3.464,1.619,1.619,0,0,1,0,2.373,2.049,2.049,0,0,1-2.6,0,1.618,1.618,0,0,1,0-2.363A1.858,1.858,0,0,1,39.666,17.807Zm17.959-2.842H52.234v3.4H58.6V21H48.807V6.781h9.814V9.428H52.234v3h5.391Zm5.332-4.531.107,1.24a3.633,3.633,0,0,1,3.018-1.436,2.675,2.675,0,0,1,2.705,1.592,3.517,3.517,0,0,1,3.105-1.592q3.213,0,3.3,3.887V21h-3.3V14.33a2.014,2.014,0,0,0-.273-1.182,1.164,1.164,0,0,0-1-.371,1.559,1.559,0,0,0-1.455.869l.01.137V21h-3.3V14.35a2.117,2.117,0,0,0-.264-1.2,1.161,1.161,0,0,0-1.006-.371,1.578,1.578,0,0,0-1.445.869V21H59.871V10.434Zm23.926,5.361a6.372,6.372,0,0,1-1.108,3.931,3.554,3.554,0,0,1-2.993,1.47,3.046,3.046,0,0,1-2.393-1.064v4.932H77.1V10.434h3.076l.1.977a3.046,3.046,0,0,1,2.49-1.172,3.582,3.582,0,0,1,3.037,1.44,6.45,6.45,0,0,1,1.084,3.96Zm-3.291-.205q0-2.812-1.641-2.812a1.549,1.549,0,0,0-1.562.84v4.16a1.6,1.6,0,0,0,1.582.879q1.572,0,1.621-2.715ZM94.285,21a3.716,3.716,0,0,1-.312-.947A3.06,3.06,0,0,1,91.434,21.2a3.749,3.749,0,0,1-2.539-.9,2.875,2.875,0,0,1-1.045-2.271,2.955,2.955,0,0,1,1.27-2.6,6.468,6.468,0,0,1,3.691-.879h1.016v-.559q0-1.462-1.26-1.462a1.03,1.03,0,0,0-1.172,1.158H88.1a2.95,2.95,0,0,1,1.3-2.487,5.479,5.479,0,0,1,3.325-.956,4.8,4.8,0,0,1,3.193.986,3.429,3.429,0,0,1,1.2,2.705v4.678a4.79,4.79,0,0,0,.449,2.227V21Zm-2.061-2.148a1.836,1.836,0,0,0,1.021-.264,1.653,1.653,0,0,0,.581-.6V16.3h-.957q-1.719,0-1.719,1.543a.942.942,0,0,0,.3.728A1.1,1.1,0,0,0,92.225,18.852ZM102.781,7.807v2.627h1.738v2.285h-1.738v4.834a1.234,1.234,0,0,0,.215.83,1.152,1.152,0,0,0,.85.234,4.828,4.828,0,0,0,.82-.059v2.354a6.074,6.074,0,0,1-1.855.283,3.448,3.448,0,0,1-2.51-.8,3.282,3.282,0,0,1-.811-2.432V12.719H98.143V10.434H99.49V7.807ZM109.285,21h-3.3V10.434h3.3Zm-3.5-13.291a1.469,1.469,0,0,1,.508-1.152,2.159,2.159,0,0,1,2.637,0,1.469,1.469,0,0,1,.508,1.152,1.469,1.469,0,0,1-.508,1.152,2.159,2.159,0,0,1-2.637,0A1.469,1.469,0,0,1,105.789,7.709Zm9.4,10.752h4.814V21h-8.975V19.164l4.688-6.191h-4.482V10.434H119.9v1.777ZM127.557,21a3.716,3.716,0,0,1-.312-.947,3.06,3.06,0,0,1-2.539,1.143,3.749,3.749,0,0,1-2.539-.9,2.875,2.875,0,0,1-1.045-2.271,2.955,2.955,0,0,1,1.27-2.6,6.468,6.468,0,0,1,3.691-.879H127.1v-.559q0-1.462-1.26-1.462a1.03,1.03,0,0,0-1.172,1.158h-3.291a2.95,2.95,0,0,1,1.3-2.487A5.479,5.479,0,0,1,126,10.238a4.8,4.8,0,0,1,3.193.986,3.429,3.429,0,0,1,1.2,2.705v4.678a4.79,4.79,0,0,0,.449,2.227V21ZM125.5,18.852a1.836,1.836,0,0,0,1.021-.264,1.653,1.653,0,0,0,.581-.6V16.3h-.957q-1.719,0-1.719,1.543a.942.942,0,0,0,.3.728A1.1,1.1,0,0,0,125.5,18.852Zm13.115-5.439-1.084-.078a1.947,1.947,0,0,0-1.992.977V21h-3.291V10.434h3.086l.107,1.357a2.548,2.548,0,0,1,2.314-1.553,3.209,3.209,0,0,1,.918.117Z" transform="translate(287 4118)" fill="#fff"/></g></svg>