<svg xmlns="http://www.w3.org/2000/svg" width="325.917" height="312.269" viewBox="0 0 325.917 312.269"><g transform="translate(-19.8 -20.683)"><g transform="translate(19.8 22.734)"><path d="M0,0,1.36.052,2.425,28.207l-1.36-.052Z" transform="matrix(0.68, -0.733, 0.733, 0.68, 183.892, 158.955)" fill="#b6b5b3"/><path d="M0,0,1.353.051,2.04,18.626.687,18.575Z" transform="translate(194.89 71.435) rotate(-50.83)" fill="#b6b5b3"/><path d="M410,86.316c6.255,0,11.326-4.7,11.326-10.5H410Z" transform="translate(-133.778 -24.9)" fill="#ef5666"/><path d="M401.509,53.62c-7.577,0-13.719,5.692-13.719,12.714s6.142,12.714,13.719,12.714h.4V66.7h13.323v-.367C415.22,59.315,409.083,53.627,401.509,53.62Zm0,.735c6.965.041,12.658,5.161,12.912,11.612H401.106V78.3c-7.135-.1-12.829-5.547-12.717-12.159s5.986-11.889,13.121-11.785Z" transform="translate(-127.29 -17.264)" fill="#ef5666"/><path d="M0,0,28.179,1.041l.05,1.378L.05,1.378Z" transform="matrix(0.602, -0.799, 0.799, 0.602, 243.733, 86.454)" fill="#b6b5b3"/><path d="M397.661,82.806c-12.687,0-22.971-9.531-22.971-21.288S384.975,40.23,397.661,40.23s22.971,9.531,22.971,21.288C420.617,73.269,410.342,82.791,397.661,82.806Zm0-40.608c-11.514,0-20.848,8.65-20.848,19.32s9.334,19.32,20.848,19.32,20.848-8.65,20.848-19.32S409.17,42.209,397.661,42.2Z" transform="translate(-123.464 -12.658)" fill="#ef5666"/><rect width="21.244" height="1.312" transform="translate(258.971 101.394)" fill="#b6b5b3"/><path d="M438.271,160.156c-12.684,0-22.967-9.527-22.971-21.281s10.273-21.287,22.957-21.294,22.974,9.514,22.985,21.268S450.961,160.145,438.271,160.156Zm0-40.6c-11.518,0-20.853,8.655-20.848,19.328s9.349,19.321,20.867,19.311,20.844-8.673,20.829-19.346c-.027-10.655-9.35-19.283-20.848-19.294Z" transform="translate(-135.326 -39.265)" fill="#ef5666"/><path d="M434.216,139.11v2.624H429.77v11.7H442.3l2.4,3.851,2.4-3.851h4.566v-2.132H455.2v-12.2Zm16.367,3.6v9.7h-3.794a.493.493,0,0,0-.191.033l-.1-.059-1.8,2.873-1.628-2.624-.191-.262-.085.052a.575.575,0,0,0-.184,0H430.853v-9.716Z" transform="translate(-139.553 -46.671)" fill="#ef5666"/><path d="M0,0,1.377.05,2.07,18.7l-1.377-.05Z" transform="translate(64.485 65.373) rotate(-37.71)" fill="#b6b5b3"/><path d="M83.381,82.806c-12.687,0-22.971-9.531-22.971-21.288S70.695,40.23,83.381,40.23s22.971,9.531,22.971,21.288c-.016,11.751-10.291,21.273-22.971,21.288Zm0-40.608c-11.514,0-20.848,8.65-20.848,19.32s9.334,19.32,20.848,19.32,20.848-8.65,20.848-19.32S94.89,42.209,83.381,42.2Z" transform="translate(-31.662 -12.658)" fill="#5182bc"/><path d="M86.724,74.7a2.053,2.053,0,0,0,1.917-1.192,1.8,1.8,0,0,0-.5-2.088l2.01-2.939A2.136,2.136,0,0,0,92.416,68l1.855,1.069a1.688,1.688,0,0,0-.135.656,1.917,1.917,0,0,0,1.43,1.81,2.135,2.135,0,0,0,2.292-.722,1.785,1.785,0,0,0-.056-2.243l1.416-1.45a2.235,2.235,0,0,0,2.815-.5,1.867,1.867,0,0,0-.279-2.642,2.249,2.249,0,0,0-2.865.02,1.866,1.866,0,0,0-.237,2.646L97.236,68.1a2.156,2.156,0,0,0-2.563.354L92.812,67.4a1.841,1.841,0,0,0,.135-.656,2.068,2.068,0,0,0-4.1,0,1.81,1.81,0,0,0,.651,1.378l-2.017,2.919a2.177,2.177,0,0,0-1.928.171,1.855,1.855,0,0,0-.9,1.587,1.835,1.835,0,0,0,.606,1.356A2.14,2.14,0,0,0,86.724,74.7Z" transform="translate(-38.743 -20.654)" fill="#5182bc"/><path d="M98.872,76.989H78.209v-3.4h1.614a.488.488,0,0,0,.459-.2.412.412,0,0,0,0-.47.488.488,0,0,0-.459-.2H78.209V69.891h1.614a.487.487,0,0,0,.335-.124.418.418,0,0,0,.139-.309.458.458,0,0,0-.474-.44H78.209V66.237h1.614a.488.488,0,0,0,.459-.2.413.413,0,0,0,0-.47.488.488,0,0,0-.459-.2H78.209V62.458h1.614a.488.488,0,0,0,.459-.2.413.413,0,0,0,0-.47.488.488,0,0,0-.459-.2H78.209V57.84a.476.476,0,0,0-.949,0V77.428a.458.458,0,0,0,.474.44H98.872a.441.441,0,1,0,0-.879Z" transform="translate(-36.584 -18.564)" fill="#5182bc"/><line x2="1.734" y2="1.141" transform="translate(87.992 214.19)" fill="#b6b5b3"/><path d="M0,0,28.157,1.065l.052,1.36L.052,1.36Z" transform="matrix(0.733, -0.68, 0.68, 0.733, 120.879, 176.369)" fill="#b6b5b3"/><path d="M0,0,30.508.851l.039,1.33L.039,1.33Z" transform="matrix(0.911, -0.412, 0.412, 0.911, 45.633, 210.752)" fill="#b6b5b3"/><path d="M46.3,341.565c-12.153-.006-22.2-8.784-22.918-20.027s8.135-21.06,20.2-22.4,23.171,6.266,25.334,17.349S63.549,338.3,51.74,340.961a25.025,25.025,0,0,1-5.444.6Zm0-40.614a22.84,22.84,0,0,0-4.955.551c-10.7,2.422-17.511,12.146-15.544,22.187S37.828,340.616,48.762,339.4s18.955-10.113,18.3-20.3S57.309,300.958,46.3,300.951Z" transform="translate(-20.833 -101.666)" fill="#ffaf26"/><path d="M59.087,334.224c.106-4.684-2.067-6-3.667-6.96-1-.6-1.508-.945-1.416-1.712s.658-1.063,1.458-1.489c1.564-.84,3.7-1.968,3.632-7.216a1.3,1.3,0,0,0,0-2.578H45.517a1.466,1.466,0,0,0-1.443.563,1.233,1.233,0,0,0,0,1.451,1.466,1.466,0,0,0,1.443.563h.12c-.064,5.248,2.067,6.4,3.632,7.216.8.426,1.416.741,1.458,1.489s-.425,1.115-1.416,1.712c-1.6.964-3.773,2.276-3.667,6.96h-.12a1.464,1.464,0,0,0-1.427.572,1.232,1.232,0,0,0,0,1.441,1.465,1.465,0,0,0,1.427.572H59.087a1.3,1.3,0,0,0,0-2.585ZM44.66,315.534a.827.827,0,0,1,.857-.794h13.57a.791.791,0,0,1,0,1.581H45.517a.828.828,0,0,1-.857-.787Zm13.889,1.312a15.547,15.547,0,0,1-.113,2.106H46.289a15.546,15.546,0,0,1-.113-2.106Zm-8.934,10.837c.949-.571,1.763-1.063,1.671-2.139a2.846,2.846,0,0,0,2.187-.072v.033c-.12,1.1.708,1.6,1.664,2.178,1.48.892,3.483,2.1,3.433,6.4a13.024,13.024,0,0,0-6.088-1.968,10,10,0,0,0-6.293,2.066C46.076,329.829,48.108,328.582,49.616,327.684ZM59.1,336.3H45.517a.879.879,0,0,1-.806-.373.745.745,0,0,1,0-.835.879.879,0,0,1,.806-.373h13.57a.791.791,0,0,1,0,1.581Z" transform="translate(-26.821 -106.914)" fill="#ffaf26"/><rect width="1.416" height="27.179" transform="translate(162.427 86.857)" fill="#b6b5b3"/><path d="M238.128,224.99c-16.225,0-29.378-12.189-29.378-27.225S221.9,170.54,238.128,170.54s29.378,12.189,29.378,27.225c-.02,15.028-13.161,27.207-29.378,27.225Zm0-52.482c-15.052,0-27.254,11.308-27.254,25.257s12.2,25.257,27.254,25.257,27.254-11.308,27.254-25.257C265.366,183.822,253.173,172.523,238.128,172.508Z" transform="translate(-74.992 -57.482)" fill="#33ccbd"/><g transform="translate(179.049 128.914)" opacity="0.5"><path d="M272.73,194.71a.225.225,0,0,1,0,.072A.225.225,0,0,0,272.73,194.71Z" transform="translate(-272.73 -194.71)" fill="#4d4a84"/></g><g transform="translate(178.695 128.717)" opacity="0.5"><path d="M272.584,194.607a.394.394,0,0,0-.354-.2A.394.394,0,0,1,272.584,194.607Z" transform="translate(-272.23 -194.41)" fill="#4d4a84"/></g><path d="M259.3,193.541l-.071-.157a.919.919,0,0,0-.793-.44H256.02v-.394a.454.454,0,0,0-.411-.492h-.269a.453.453,0,0,0-.4.492v.394h-2.209v-.394a.453.453,0,0,0-.4-.492h-.269a.454.454,0,0,0-.411.492v.394h-2.2v-.394a.453.453,0,0,0-.4-.492h-.269a.454.454,0,0,0-.411.492v.394h-2.286a.54.54,0,0,0-.149,0h-1.933a1.958,1.958,0,0,0-3.787,0h-2.039a.6.6,0,0,0-.156,0h-2.173v-.394a.46.46,0,0,0-.4-.492h-.276a.46.46,0,0,0-.4.492v.394h-2.088v-.394a.46.46,0,0,0-.4-.492h-.276a.46.46,0,0,0-.4.492v.394H229.46v-.394a.453.453,0,0,0-.4-.492h-.269a.454.454,0,0,0-.411.492v.394h-2.513a.87.87,0,0,0-.864.846v6.626h34.333V193.79A.88.88,0,0,0,259.3,193.541Zm-19.078.131h.588v-.407a1.029,1.029,0,0,1,0-.151,1.255,1.255,0,0,1,1.22-1.036,1.276,1.276,0,0,1,1.315.931,1.421,1.421,0,0,1,0,.256v.407h1.508a3.422,3.422,0,0,1-5.366,0Zm18.122,5.832H225.991v-5.642h2.421V195.4a.454.454,0,0,0,.411.492h.269a.453.453,0,0,0,.4-.492v-1.542h2.124V195.4a.46.46,0,0,0,.4.492h.276a.46.46,0,0,0,.4-.492v-1.542h2.088V195.4a.46.46,0,0,0,.4.492h.276a.46.46,0,0,0,.4-.492v-1.542h2.669a4.417,4.417,0,0,0,7.419,0h2.4V195.4a.454.454,0,0,0,.411.492h.3a.453.453,0,0,0,.4-.492v-1.542h2.2V195.4a.454.454,0,0,0,.411.492h.269a.453.453,0,0,0,.4-.492v-1.542h2.209V195.4a.453.453,0,0,0,.4.492h.269a.454.454,0,0,0,.411-.492v-1.542h2.322Z" transform="translate(-79.739 -64.686)" fill="#33ccbd"/><rect width="34.333" height="18.493" transform="translate(145.261 135.277)" fill="#33ccbd"/><path d="M0,0,1.412.02l.431,28.524-1.412-.02Z" transform="translate(103.698 215.453) rotate(-11.27)" fill="#b6b5b3"/><path d="M170.749,409.647h0c-11.882.07-21.865-8.258-23.035-19.216s6.86-20.937,18.526-23.025,23.128,4.4,26.447,14.975-2.6,21.748-13.655,25.783A24.414,24.414,0,0,1,170.749,409.647Zm0-40.614c-11.518,0-20.855,8.649-20.855,19.323s9.337,19.326,20.855,19.326v0c11.518,0,20.855-8.649,20.855-19.323s-9.337-19.326-20.855-19.326Z" transform="translate(-57.131 -125.066)" fill="#ffaf26"/><path d="M187.107,393.694a10.734,10.734,0,0,0-3.355-7.734l.042-.039-.191-.177a12.822,12.822,0,0,0-17.159,0,10.671,10.671,0,0,0,0,15.9,12.822,12.822,0,0,0,17.159,0l.191-.171-.042-.039A10.734,10.734,0,0,0,187.107,393.694Zm-7.575-4.52a7.028,7.028,0,0,0-9.274.225,5.842,5.842,0,0,0,0,8.6,7.028,7.028,0,0,0,9.274.225l3.5,3.247a12.258,12.258,0,0,1-16.268-.235,10.193,10.193,0,0,1,0-15.078,12.258,12.258,0,0,1,16.268-.235Zm0,8.377h0l-.184.177a6.463,6.463,0,0,1-8.652,0,5.379,5.379,0,0,1,0-8.018,6.463,6.463,0,0,1,8.652,0l.184.177h0a5.407,5.407,0,0,1,.028,7.656Z" transform="translate(-61.597 -130.375)" fill="#ffaf26"/><path d="M0,0,1.33.039,2.18,30.547l-1.33-.039Z" transform="matrix(0.412, -0.911, 0.911, 0.412, 251.948, 200.161)" fill="#b6b5b3"/><path d="M436.516,341.564h0a23.679,23.679,0,0,1-18.071-8.129,20.094,20.094,0,0,1-4.264-18.191c2.831-10.785,14.129-17.744,25.955-15.988s20.212,11.638,19.265,22.7S448.493,341.558,436.516,341.564Zm-.042-40.6c-11.044,0-20.174,7.979-20.831,18.2s7.386,19.139,18.352,20.359,21.058-5.687,23.028-15.757-4.865-19.82-15.594-22.246A22.908,22.908,0,0,0,436.473,300.963Z" transform="translate(-134.809 -101.665)" fill="#ff8353"/><path d="M442.32,316.49c-4.961-.029-9.009,3.675-9.04,8.272,0,4.592,8.891,12.648,8.891,12.648s9.04-7.944,9.075-12.543S447.28,316.522,442.32,316.49Zm-.092,12.9a5.027,5.027,0,1,1,5.444-4.979,4.831,4.831,0,0,1-1.607,3.536,5.631,5.631,0,0,1-3.837,1.443Z" transform="translate(-140.578 -107.686)" fill="#ff8353"/><path d="M0,0,28.524.431l.02,1.412L.02,1.412Z" transform="translate(215.242 243.107) rotate(-78.73)" fill="#b6b5b3"/><path d="M310.8,408.866c-10.07,0-18.966-6.079-21.943-15s.661-18.59,8.972-23.861a24.441,24.441,0,0,1,27.248.89c7.89,5.8,10.784,15.686,7.137,24.386C328.817,403.5,320.291,408.9,310.8,408.866Zm0-40.621c-10.779,0-19.788,7.6-20.788,17.544s6.337,18.961,16.931,20.8,20.958-4.1,23.916-13.7-2.465-19.718-12.512-23.334a22.172,22.172,0,0,0-7.539-1.312Z" transform="translate(-98.092 -124.816)" fill="#ff8353"/><path d="M319.781,382.578a.546.546,0,0,0,.378-.142.468.468,0,0,0,.153-.35v-3.444a.532.532,0,0,0-1.062,0v3.444A.513.513,0,0,0,319.781,382.578Z" transform="translate(-107.27 -128.896)" fill="#ff8353"/><path d="M312.112,384.322a.547.547,0,0,0,.46.249.555.555,0,0,0,.262-.066.479.479,0,0,0,.2-.656l-1.862-2.978a.555.555,0,0,0-.726-.18.473.473,0,0,0-.195.672Z" transform="translate(-104.62 -129.747)" fill="#ff8353"/><path d="M303.78,388.168,307,389.894a.555.555,0,0,0,.262.066.526.526,0,0,0,.517-.363.478.478,0,0,0-.247-.555l-3.221-1.725a.555.555,0,0,0-.726.18A.473.473,0,0,0,303.78,388.168Z" transform="translate(-102.673 -132.026)" fill="#ff8353"/><path d="M305.855,396.852a.513.513,0,0,0-.531-.492H301.6a.493.493,0,1,0,0,.984h3.724A.519.519,0,0,0,305.855,396.852Z" transform="translate(-101.959 -135.16)" fill="#ff8353"/><path d="M307,402.889l-3.221,1.725a.473.473,0,0,0-.2.656.554.554,0,0,0,.708.184l3.221-1.725a.473.473,0,0,0,.195-.672.555.555,0,0,0-.726-.18Z" transform="translate(-102.675 -137.378)" fill="#ff8353"/><path d="M334.512,404.621l-3.221-1.725a.555.555,0,0,0-.726.18.473.473,0,0,0,.195.672l3.221,1.725a.564.564,0,0,0,.269.066.532.532,0,0,0,.46-.249A.473.473,0,0,0,334.512,404.621Z" transform="translate(-110.554 -137.385)" fill="#ff8353"/><path d="M336.49,396.36h-3.709a.493.493,0,1,0,0,.984H336.5a.493.493,0,1,0,0-.984Z" transform="translate(-111.067 -135.16)" fill="#ff8353"/><path d="M331.033,389.97a.518.518,0,0,0,.262-.066l3.221-1.725a.467.467,0,0,0,.2-.656.554.554,0,0,0-.708-.184l-3.242,1.725a.472.472,0,0,0-.191.656A.532.532,0,0,0,331.033,389.97Z" transform="translate(-110.558 -132.037)" fill="#ff8353"/><path d="M326.028,384.5a.563.563,0,0,0,.269.066.547.547,0,0,0,.46-.249l1.862-2.985a.473.473,0,0,0-.2-.656.547.547,0,0,0-.708.177l-1.862,2.985A.472.472,0,0,0,326.028,384.5Z" transform="translate(-109.177 -129.744)" fill="#ff8353"/><path d="M324.476,393.96a6.912,6.912,0,0,0-3.714-6.252,8.086,8.086,0,0,0-7.7,0,6.912,6.912,0,0,0-3.714,6.252,8.24,8.24,0,0,0,1.494,4.231,46.4,46.4,0,0,1,2.032,4.822v3.831h7.985v-3.831a48.814,48.814,0,0,1,2.124-4.8A8.2,8.2,0,0,0,324.476,393.96Zm-8.176,5.156h1.133a18.842,18.842,0,0,0,0,3.319h-1.055a18.94,18.94,0,0,0-.078-3.319Zm3.653,3.319h-1.848a18.978,18.978,0,0,1,0-3.28,1.776,1.776,0,0,0,1.727-.61,1.471,1.471,0,0,0,.283-1.371,1.12,1.12,0,0,0-.773-.646,1.217,1.217,0,0,0-1.018.2,2.865,2.865,0,0,0-.821,1.745H316.18a2.864,2.864,0,0,0-.821-1.745,1.218,1.218,0,0,0-1.018-.2,1.12,1.12,0,0,0-.773.646,1.519,1.519,0,0,0,.419,1.5,1.814,1.814,0,0,0,1.592.469,18.978,18.978,0,0,1,0,3.28h-1.841a42.735,42.735,0,0,0-2.018-4.723,7.382,7.382,0,0,1-1.359-3.752,5.94,5.94,0,0,1,3.187-5.387,6.951,6.951,0,0,1,6.629,0,5.94,5.94,0,0,1,3.187,5.387,7.34,7.34,0,0,1-1.373,3.766,43.061,43.061,0,0,0-2.039,4.723ZM318.24,398.5a2.116,2.116,0,0,1,.566-1.273.437.437,0,0,1,.418-.059.386.386,0,0,1,.255.223.907.907,0,0,1-.212.787,1.1,1.1,0,0,1-1.026.315Zm-2.74,0a1.1,1.1,0,0,1-1.033-.321.906.906,0,0,1-.212-.787.385.385,0,0,1,.255-.223.572.572,0,0,1,.17,0,.408.408,0,0,1,.255.085,2.2,2.2,0,0,1,.538,1.24Z" transform="translate(-104.376 -131.848)" fill="#ff8353"/><rect width="21.244" height="1.312" transform="translate(45.504 101.394)" fill="#b6b5b3"/><path d="M42.771,160.156c-12.684,0-22.967-9.527-22.971-21.281s10.273-21.287,22.957-21.294,22.974,9.514,22.985,21.268S55.461,160.145,42.771,160.156Zm0-40.6c-11.517,0-20.853,8.655-20.848,19.328S31.273,158.2,42.79,158.194s20.844-8.673,20.829-19.346c-.027-10.655-9.35-19.283-20.848-19.294Z" transform="translate(-19.8 -39.265)" fill="#5182bc"/><path d="M57.853,144.223V137.21h-20.6v7.013H36.17v10.785H58.936V144.223Zm.326,9.6-9.55-4.29,9.55-4.369ZM36.942,145.01l9.967,4.527-9.981,4.592ZM47.787,149.9l9.734,4.4H38.173Z" transform="translate(-24.582 -46.017)" fill="#5182bc"/><path d="M55.6,141.17H42.737a.211.211,0,1,1,0-.42H55.6a.211.211,0,1,1,0,.42Z" transform="translate(-26.434 -47.235)" fill="#f0f0f0"/><path d="M55.491,143.25H42.657a.226.226,0,0,1-.227-.21.219.219,0,0,1,.227-.21H55.491a.211.211,0,1,1,0,.42Z" transform="translate(-26.41 -47.95)" fill="#f0f0f0"/><path d="M55.411,145.32H42.577a.219.219,0,0,1-.227-.21.226.226,0,0,1,.227-.21H55.411a.211.211,0,1,1,0,.42Z" transform="translate(-26.387 -48.662)" fill="#f0f0f0"/><path d="M55.331,147.4H42.5a.211.211,0,1,1,0-.42H55.331a.211.211,0,1,1,0,.42Z" transform="translate(-26.364 -49.378)" fill="#f0f0f0"/><path d="M0,0,17.4.662l.052,1.365L.052,1.365Z" transform="matrix(0.698, -0.716, 0.716, 0.698, 64.626, 130.755)" fill="#b6b5b3"/><path d="M83.381,232.806c-12.687,0-22.971-9.531-22.971-21.288S70.695,190.23,83.381,190.23s22.971,9.531,22.971,21.288C106.337,223.269,96.062,232.791,83.381,232.806Zm0-40.608c-11.514,0-20.848,8.65-20.848,19.32s9.334,19.32,20.848,19.32,20.848-8.65,20.848-19.32S94.89,192.209,83.381,192.2Z" transform="translate(-31.662 -64.255)" fill="#5182bc"/><ellipse cx="5.139" cy="4.763" rx="5.139" ry="4.763" transform="translate(42.92 140.184)" fill="#5182bc"/><path d="M98.62,226.359,93.063,221.5a1.661,1.661,0,0,0-1.777-.23l-1.31-1.214a6.222,6.222,0,0,0-.367-9.121,7.487,7.487,0,0,0-9.849.047,6.221,6.221,0,0,0-.267,9.124,7.482,7.482,0,0,0,9.831.541l1.31,1.194a1.373,1.373,0,0,0,.283,1.752l5.564,4.861a1.638,1.638,0,0,0,1.563.42,1.5,1.5,0,0,0,1.113-1.1,1.388,1.388,0,0,0-.553-1.419ZM78.395,215.7a6.39,6.39,0,1,1,6.371,5.9,6.151,6.151,0,0,1-6.371-5.9Z" transform="translate(-36.693 -70.752)" fill="#5182bc"/><path d="M0,0,72.9,2.571l.047,1.385L.047,1.385Z" transform="translate(44.035 270.747) rotate(-57.04)" fill="#b6b5b3"/><path d="M61.609,448.748h0c-12.042,0-22.042-8.617-22.916-19.749s7.676-21,19.593-22.616,23.157,5.571,25.76,16.468-4.315,21.808-15.854,25A24.822,24.822,0,0,1,61.609,448.748Zm0-40.614c-11.518,0-20.855,8.649-20.855,19.323s9.337,19.326,20.855,19.326v0c11.518,0,20.855-8.649,20.855-19.323S73.127,408.13,61.609,408.13Z" transform="translate(-25.301 -138.53)" fill="#ffaf26"/><path d="M69.377,431.752,58.532,431.7a4.7,4.7,0,0,0-4.892,4.481v3.582a4.691,4.691,0,0,0,4.835,4.527h1.911l1.416,2.342,1.465-2.329,6.031.033a4.7,4.7,0,0,0,4.884-4.487v-3.582A4.69,4.69,0,0,0,69.377,431.752Z" transform="translate(-29.685 -147.316)" fill="#fff"/><path d="M78.075,431.261a4.7,4.7,0,0,0-4.892-4.481l-10.845.052a4.9,4.9,0,0,0-4.332,2.526,5.378,5.378,0,0,0-5.366,5.124v3.582a5.374,5.374,0,0,0,5.543,5.189h1.5l1.848,3,1.883-2.985,5.663.033a5.5,5.5,0,0,0,5.451-4.094,4.577,4.577,0,0,0,3.61-4.376Zm-9.033,11.408-6.06-.033-1.465,2.329L60.1,442.623H58.19a5.054,5.054,0,0,1-3.43-1.334,4.336,4.336,0,0,1-1.4-3.192v-3.582a4.667,4.667,0,0,1,4.368-4.461h.5l10.873.052a4.7,4.7,0,0,1,4.835,4.527v3.582a4.054,4.054,0,0,1-.184,1.181,4.827,4.827,0,0,1-4.7,3.274Z" transform="translate(-29.393 -145.624)" fill="#ffaf26"/><path d="M71.51,438.826h-12.3a.329.329,0,1,1,0-.656h12.3a.329.329,0,1,1,0,.656Z" transform="translate(-31.209 -149.542)" fill="#ffaf26"/><path d="M71.51,438.826h-12.3a.329.329,0,1,1,0-.656h12.3a.329.329,0,1,1,0,.656Z" transform="translate(-31.209 -149.542)" fill="#ffaf26"/><path d="M71.51,441.726h-12.3a.329.329,0,1,1,0-.656h12.3a.329.329,0,1,1,0,.656Z" transform="translate(-31.209 -150.539)" fill="#ffaf26"/><path d="M71.51,444.656h-12.3a.329.329,0,1,1,0-.656h12.3a.329.329,0,1,1,0,.656Z" transform="translate(-31.209 -151.547)" fill="#ffaf26"/><path d="M0,0,1.385.047l2.572,72.9L2.572,72.9Z" transform="translate(239.255 211.741) rotate(-32.97)" fill="#b6b5b3"/><path d="M424.589,446.944a24.856,24.856,0,0,1-6.583-.892c-12.138-3.384-19.029-15.234-15.4-26.49,3.385-10.5,14.819-16.9,26.424-14.8s19.588,12.032,18.45,22.94-11.027,19.232-22.852,19.239Zm0-40.614c-9.194.04-17.287,5.625-19.963,13.776a18.2,18.2,0,0,0,3.267,17.07,21.452,21.452,0,0,0,16.717,7.78c11.518,0,20.855-8.649,20.855-19.323s-9.337-19.326-20.855-19.326Z" transform="translate(-131.334 -137.914)" fill="#ff8353"/><path d="M439.288,441.117H418.61v-3.4h1.621a.437.437,0,0,0,0-.872H418.61v-2.821h1.621a.441.441,0,1,0,0-.879H418.61v-2.808h1.621a.437.437,0,0,0,0-.872H418.61V426.56h1.621a.437.437,0,0,0,0-.872H418.61v-3.746a.429.429,0,0,0-.217-.425.506.506,0,0,0-.507,0,.429.429,0,0,0-.217.425v19.615a.458.458,0,0,0,.474.44h21.138a.441.441,0,1,0,0-.879Z" transform="translate(-136.017 -143.79)" fill="#ff8353"/><path d="M440.765,432.63l-.517-1.968V430.6a.39.39,0,0,0-.05-.092l-.057-.066-.085-.066-.078-.039h-.29l-2.3.269a.507.507,0,0,0-.5.525.52.52,0,0,0,.566.459h.071l1.189-.138-3.221,3.359-4.573-3.129-5.663,6.659a.461.461,0,0,0-.114.361.478.478,0,0,0,.2.328.545.545,0,0,0,.39.108.527.527,0,0,0,.353-.187l5.04-5.9,4.531,3.1,3.893-4.061.219.833a.524.524,0,0,0,.517.38h.127a.517.517,0,0,0,.341-.26A.454.454,0,0,0,440.765,432.63Z" transform="translate(-138.202 -146.848)" fill="#ff8353"/><path d="M37.4,1.423c20.655.786,38.036,18.167,38.821,38.821S60.9,77.005,40.244,76.22,2.208,58.053,1.423,37.4,16.744.637,37.4,1.423Z" transform="translate(108.237 50.878) rotate(-45)" fill="#33ccbd"/><path d="M25.829.728c14.265.4,26.155,12.918,26.557,27.955s-10.836,26.9-25.1,26.5S1.129,42.265.728,27.227,11.564.326,25.829.728Z" transform="matrix(0.392, -0.92, 0.92, 0.392, 63.192, 204.614)" fill="#ffaf26"/><text transform="translate(90.753 199.371)" fill="#fff" font-size="26" font-family="SegoeUIBlack, Segoe UI"><tspan x="0" y="0">3</tspan></text><path d="M26.528,1.009A29.1,29.1,0,0,1,54.065,28.546,24.218,24.218,0,0,1,28.546,54.065,29.1,29.1,0,0,1,1.009,26.528,24.218,24.218,0,0,1,26.528,1.009Z" transform="translate(188.275 191.152) rotate(-45)" fill="#ff8353"/><text transform="translate(218.09 199.371)" fill="#fff" font-size="26" font-family="SegoeUIBlack, Segoe UI"><tspan x="0" y="0">4</tspan></text><path d="M180.377,118.863l-1.1-1.214,18.193-13.37,1.1,1.214Z" transform="translate(-66.384 -34.69)" fill="#b6b5b3"/><ellipse cx="28.316" cy="26.241" rx="28.316" ry="26.241" transform="translate(65.905 73.369)" fill="#5182bc"/><text transform="translate(85.097 105.873)" fill="#fff" font-size="25" font-family="SegoeUIBlack, Segoe UI"><tspan x="0" y="0">1</tspan></text><path d="M0,0,1.365.052l.663,17.408L.663,17.408Z" transform="matrix(0.716, -0.698, 0.698, 0.716, 248.869, 119.671)" fill="#b6b5b3"/><path d="M397.661,232.806c-12.687,0-22.971-9.531-22.971-21.288s10.285-21.288,22.971-21.288,22.971,9.531,22.971,21.288C420.617,223.269,410.342,232.791,397.661,232.806Zm0-40.608c-11.514,0-20.848,8.65-20.848,19.32s9.334,19.32,20.848,19.32,20.848-8.65,20.848-19.32-9.339-19.309-20.848-19.32Z" transform="translate(-123.464 -64.255)" fill="#ef5666"/><rect width="1.671" height="1.548" transform="translate(266.602 140.296)" fill="#ef5666"/><rect width="1.671" height="1.548" transform="translate(266.602 143.74)" fill="#ef5666"/><rect width="1.671" height="1.548" transform="translate(266.602 147.191)" fill="#ef5666"/><rect width="1.671" height="1.548" transform="translate(266.602 150.641)" fill="#ef5666"/><path d="M400.816,213.33H410.4a.2.2,0,0,0,0-.4h-9.585a.2.2,0,0,0,0,.4Z" transform="translate(-131.042 -72.063)" fill="#ef5666"/><path d="M400.8,218.587h9.585a.2.2,0,1,0,0-.407H400.8a.2.2,0,1,0,0,.407Z" transform="translate(-131.026 -73.869)" fill="#ef5666"/><path d="M400.805,223.84h9.585a.213.213,0,0,0,.148-.058.183.183,0,0,0,.058-.139.189.189,0,0,0-.057-.141.22.22,0,0,0-.148-.062h-9.585a.22.22,0,0,0-.148.062.189.189,0,0,0-.057.141.183.183,0,0,0,.058.139A.213.213,0,0,0,400.805,223.84Z" transform="translate(-131.032 -75.679)" fill="#ef5666"/><path d="M400.805,229.1h9.585a.22.22,0,0,0,.148-.062.189.189,0,0,0,.057-.141.183.183,0,0,0-.058-.139.213.213,0,0,0-.148-.058h-9.585a.213.213,0,0,0-.148.058.183.183,0,0,0-.058.139.189.189,0,0,0,.057.141A.22.22,0,0,0,400.805,229.1Z" transform="translate(-131.032 -77.488)" fill="#ef5666"/><path d="M400.8,234.357h9.585a.2.2,0,1,0,0-.407H400.8a.2.2,0,1,0,0,.407Z" transform="translate(-131.026 -79.294)" fill="#ef5666"/><rect width="1.671" height="1.548" transform="translate(266.602 154.085)" fill="#ef5666"/><path d="M413.84,204.17H397.679v1.679H392.66v22.088h18.179V226.58h3Zm-3.794,23.039h-1.359l1.359-1.515Zm0-2.624-2.379,2.624H393.453V206.578h16.593Z" transform="translate(-128.713 -69.05)" fill="#ef5666"/><ellipse cx="28.316" cy="26.241" rx="28.316" ry="26.241" transform="translate(202.948 73.369)" fill="#ef5666"/><text transform="translate(222.139 107.529)" fill="#fff" font-size="26" font-family="SegoeUIBlack, Segoe UI"><tspan x="0" y="0">2</tspan></text></g></g></svg>