<svg xmlns="http://www.w3.org/2000/svg" xmlns:xlink="http://www.w3.org/1999/xlink" width="333.6" height="334.979" viewBox="0 0 333.6 334.979"><defs><linearGradient id="a" x1="0.121" y1="0.309" x2="0.877" y2="0.688" gradientUnits="objectBoundingBox"><stop offset="0" stop-color="#423fb0"/><stop offset="1" stop-color="#362e95"/></linearGradient><linearGradient id="b" x1="0.277" y1="0.496" x2="2.032" y2="0.528" gradientUnits="objectBoundingBox"><stop offset="0" stop-color="#f5f6f9"/><stop offset="1" stop-color="#bec1ec"/></linearGradient><linearGradient id="c" x1="-1.045" y1="0.283" x2="1.672" y2="0.671" xlink:href="#b"/><linearGradient id="d" x1="-0.752" y1="0.326" x2="1.965" y2="0.714" xlink:href="#b"/><linearGradient id="e" x1="-0.46" y1="0.367" x2="2.257" y2="0.757" xlink:href="#b"/><linearGradient id="f" x1="-0.167" y1="0.409" x2="2.55" y2="0.797" xlink:href="#b"/><linearGradient id="g" x1="0.004" y1="0.5" x2="1.003" y2="0.5" gradientUnits="objectBoundingBox"><stop offset="0" stop-color="#df3d0f"/><stop offset="1" stop-color="#f77307"/></linearGradient><linearGradient id="h" x1="-2.291" y1="-0.026" x2="4.121" y2="1.073" xlink:href="#b"/><linearGradient id="i" x1="0.125" y1="0.451" x2="2.842" y2="0.839" xlink:href="#b"/><linearGradient id="j" x1="-0.486" y1="0.319" x2="6.058" y2="1.315" xlink:href="#b"/><linearGradient id="k" x1="0.418" y1="0.492" x2="3.135" y2="0.88" xlink:href="#b"/><linearGradient id="l" x1="-0.331" y1="0.485" x2="1.423" y2="0.517" xlink:href="#b"/><linearGradient id="m" x1="0" y1="0.502" x2="1" y2="0.502" xlink:href="#g"/><linearGradient id="n" x1="0" y1="0.502" x2="0.995" y2="0.502" xlink:href="#g"/><linearGradient id="o" x1="0" y1="0.5" x2="1" y2="0.5" xlink:href="#g"/><linearGradient id="q" x1="0" y1="0.501" x2="1.004" y2="0.501" xlink:href="#g"/><linearGradient id="s" x1="-0.014" y1="0.502" x2="0.973" y2="0.502" xlink:href="#g"/><linearGradient id="t" x1="0" y1="0.499" x2="0.999" y2="0.499" xlink:href="#b"/><linearGradient id="u" y1="0.5" x2="1" y2="0.5" gradientUnits="objectBoundingBox"><stop offset="0" stop-color="#f5f6f9"/><stop offset="1" stop-color="#cfd4fa"/></linearGradient><clipPath id="w"><path d="M104.053,31.285a1.025,1.025,0,0,0-1.432.537L48.66,176.266s173.694,95.1,173.905,94.534l15.08-40.41,38.848-104.034-40.8-22.482Z" transform="translate(-48.66 -31.168)" fill="url(#a)"/></clipPath><linearGradient id="x" x1="0.001" y1="0.5" x2="1" y2="0.5" xlink:href="#g"/><linearGradient id="y" y1="0.5" x2="1" y2="0.5" gradientUnits="objectBoundingBox"><stop offset="0" stop-color="#bec1ec"/><stop offset="1" stop-color="#f5f6f9"/></linearGradient><linearGradient id="z" x1="0" y1="0.5" x2="0.999" y2="0.5" xlink:href="#g"/><linearGradient id="aa" x1="0" y1="0.5" x2="1" y2="0.5" xlink:href="#y"/><linearGradient id="ab" x1="0.469" y1="0.495" x2="1.106" y2="0.59" xlink:href="#b"/><linearGradient id="ac" x1="-0.422" y1="-0.139" x2="1.584" y2="1.353" xlink:href="#b"/><linearGradient id="ad" x1="-0.197" y1="0.028" x2="1.809" y2="1.521" xlink:href="#b"/><linearGradient id="ae" x1="0.028" y1="0.195" x2="2.034" y2="1.689" xlink:href="#b"/><linearGradient id="af" x1="0.252" y1="0.363" x2="2.258" y2="1.854" xlink:href="#b"/><linearGradient id="ag" x1="0.477" y1="0.53" x2="2.483" y2="2.022" xlink:href="#b"/><linearGradient id="ah" x1="-0.875" y1="-0.476" x2="1.13" y2="1.015" xlink:href="#b"/><linearGradient id="ai" x1="-0.65" y1="-0.31" x2="1.355" y2="1.183" xlink:href="#b"/><linearGradient id="aj" x1="0.701" y1="0.696" x2="2.708" y2="2.189" xlink:href="#b"/><linearGradient id="ak" x1="0.179" y1="0.452" x2="0.816" y2="0.546" xlink:href="#b"/><linearGradient id="al" x1="0" y1="0.499" x2="0.996" y2="0.499" xlink:href="#y"/><linearGradient id="am" x1="0" y1="0.508" x2="0.999" y2="0.508" xlink:href="#y"/><linearGradient id="an" x1="0.017" y1="0.5" x2="1" y2="0.5" xlink:href="#y"/><linearGradient id="ao" x1="0.027" y1="0.502" x2="1" y2="0.502" xlink:href="#y"/><linearGradient id="ap" x1="0" y1="0.503" x2="1" y2="0.503" xlink:href="#y"/><linearGradient id="aq" x1="0.023" y1="0.507" x2="0.982" y2="0.507" xlink:href="#y"/><linearGradient id="ar" x1="-0.006" y1="0.498" x2="0.994" y2="0.498" xlink:href="#y"/><linearGradient id="as" x1="0.001" y1="0.499" x2="1.001" y2="0.499" xlink:href="#g"/><linearGradient id="at" x1="-0.008" y1="0.504" x2="0.986" y2="0.504" xlink:href="#y"/><linearGradient id="au" x1="0" y1="0.502" x2="1.003" y2="0.502" xlink:href="#y"/><linearGradient id="av" x1="0" y1="0.5" x2="1.003" y2="0.5" xlink:href="#y"/><linearGradient id="aw" x1="-0.001" y1="0.5" x2="0.992" y2="0.5" xlink:href="#y"/></defs><g transform="translate(-4.31 -3.755)"><g transform="translate(4.31 3.755)"><path d="M166.6,57.2l32.764,146.136,1.692,1.3L168.292,59.364Z" transform="translate(97.414 29.745)" fill="url(#b)"/><path d="M167.64,59.147,200.4,204.437l3.579-.8L171.219,57.52Z" transform="translate(98.066 29.945)" fill="#c2c8ec"/><path d="M184.6,133.828l20.5,10.656,1.366-2.6L184.21,132.12Z" transform="translate(108.452 76.705)" fill="url(#c)"/><path d="M184.21,132.734,205.1,143.618l2.57-1.594-20.9-10.883Z" transform="translate(108.452 76.09)" fill="#c2c8ec"/><path d="M181.61,120.768l20.5,10.672,1.367-2.6L181.22,119.06Z" transform="translate(106.578 68.519)" fill="url(#d)"/><path d="M181.22,119.674l20.888,10.9,2.57-1.594-20.9-10.9Z" transform="translate(106.578 67.904)" fill="#c2c8ec"/><path d="M178.62,107.718l20.5,10.656,1.366-2.587L178.23,106.01Z" transform="translate(104.704 60.339)" fill="url(#e)"/><path d="M178.23,106.624l20.888,10.9,2.57-1.594-20.9-10.9Z" transform="translate(104.704 59.725)" fill="#c2c8ec"/><path d="M175.647,94.668l20.481,10.656,1.367-2.587L175.24,92.96Z" transform="translate(102.829 52.159)" fill="url(#f)"/><path d="M175.24,93.574l20.888,10.9,2.57-1.594-20.9-10.9Z" transform="translate(102.829 51.545)" fill="#c2c8ec"/><path d="M190.5,58.266a100.164,100.164,0,0,0-10.021,1.415c-3.01.732-3.888,2.945-.179,4.718,2.131,1.025,6.507,0,9.761-.114s7.353-1.122,6.279-4.311C195.985,58.608,195.171,57.632,190.5,58.266Z" transform="translate(104.47 30.289)" fill="#facfc8"/><path d="M197.151,51.448c-2.717-3.986-6.621-.992-6.621-.992a4.034,4.034,0,0,1,1.253,2.993c.244,2.635-.309,7.012.114,9.761.8,5.238,3.254,6.166,5.287,6.881s2.245,3.9,2.245,3.9c3.058-4.474-1.041-6.507-1.334-9.419S199.852,55.434,197.151,51.448Z" transform="translate(112.413 24.841)" fill="#383097"/><path d="M197.844,71.35c-3.384,0-15.455,3.921-19.522,6.507-1.822,1.188-1.627,5.97,3.042,5.97,9.761,0,19.164-.39,20.254-6.963a4.409,4.409,0,0,0-3.774-5.515Z" transform="translate(104.091 38.614)" fill="#26aab7"/><path d="M188.775,87.1c-.26,2.522.878,21,.813,21.6s2.814,1.838,3.058-.553,2.18-12.169,2.359-13.974.634-4.441.862-6.735C196.047,85.636,189.328,81.439,188.775,87.1Z" transform="translate(111.289 46.696)" fill="#facfc8"/><path d="M197.871,72.853c-2.359-2.278-7.337-2.05-8.362.309-.895,2.066-.651,13.828-.7,20.3a4.194,4.194,0,0,0,0,.472c-.114,1.968-.244,5.417-.146,8.459a9.289,9.289,0,0,0,6.865.342c.179-1.855.6-6.946.911-8.8.651-2.245,1.4-4.88,1.9-6.41a33.007,33.007,0,0,0,2.164-8.264A6.686,6.686,0,0,0,197.871,72.853Z" transform="translate(111.222 38.559)" fill="#26aab7"/><path d="M199.3,70.475c.358-1.773,2.115-5.238.895-8.362s-6.231-4.978-8.459-4.539c-.667.13-2.57.83-2.57.83-.813,1.545-2.082,3.091-3.254,5.5s.8,4.278,1.025,6.377c.293,2.928-.7,6.93-.7,11.079,0,0,5.482,6.8,15.634,2.033C201.92,79.1,197.8,77.828,199.3,70.475Z" transform="translate(109.287 29.939)" fill="url(#g)"/><path d="M194.565,101.282a5.58,5.58,0,0,1-4.8,2.261q-1.728-.271-3.465-.472l-.293.228s-.748.862,1.415,1.318c3.677.748,4.6,0,5.3-.586a5.988,5.988,0,0,0,.813-.683s.228.163.293.13c.651-.211,1.383-.309,1.464-1.2a2.717,2.717,0,0,0-.39-1.724A4.88,4.88,0,0,1,194.565,101.282Z" transform="translate(109.501 56.916)" fill="url(#h)"/><path d="M194.852,97.64a4.881,4.881,0,0,1-3.742,0c-.358,3.563-.5,4.425-1.936,5.726s-5.368,1.627-1.724,2.505,5.173-.325,5.857-.846,1.806-.277,1.92-1.448-.488-1.383-.537-2.977a19.523,19.523,0,0,1,.163-2.961Z" transform="translate(109.539 55.092)" fill="#c2c8ec"/><path d="M177.31,78.867c0,2.522,2.831,20.254,2.831,20.856s2.977,1.545,2.977-.862,1.155-13.193,1.155-20.921C184.273,76.247,177.31,73.238,177.31,78.867Z" transform="translate(104.127 41.281)" fill="#facfc8"/><path d="M172.657,81.618l20.481,10.656,1.366-2.6L172.25,79.91Z" transform="translate(100.955 43.979)" fill="url(#i)"/><path d="M172.25,80.524l20.888,10.9,2.57-1.594-20.9-10.9Z" transform="translate(100.955 43.365)" fill="#c2c8ec"/><path d="M184.393,92.2a5.6,5.6,0,0,1-4.539,2.749,6.313,6.313,0,0,1-2.164-.114,5.254,5.254,0,0,1-1.334,0l-.26.26s-.667.944,1.545,1.171c3.742.374,4.571-.521,5.206-1.106a5.471,5.471,0,0,0,.748-.765s.244.13.309.114c.618-.293,1.334-.472,1.334-1.367a2.8,2.8,0,0,0-.569-1.627,3.254,3.254,0,0,1-.277.683Z" transform="translate(103.307 51.256)" fill="url(#j)"/><path d="M184.134,88.62a4.88,4.88,0,0,1-3.725.342c0,3.579,0,4.441-1.367,5.905s-5.173,2.131-1.464,2.652,5.124-.846,5.759-1.432,1.757-.456,1.757-1.627-.634-1.318-.83-2.912A17,17,0,0,1,184.134,88.62Z" transform="translate(103.305 49.439)" fill="#c2c8ec"/><path d="M189.173,61.779,190.6,60.12l-2.245.813Z" transform="translate(111.053 31.575)" fill="#b6dbf7"/><path d="M194.2,54.872s-3.254-.2-3.254,2.082c0,1.724-.309,2.034-1.041,2.652-.228.211-.683.439-.992.716a7.873,7.873,0,0,0-1.155,1.936l.732,1.627s1.09-.407,1.627-.586a10.021,10.021,0,0,0,1.627-.748h0a10.135,10.135,0,0,1,3.742-1.92C193.665,59.541,194.2,54.872,194.2,54.872Z" transform="translate(110.677 28.282)" fill="#facfc8"/><path d="M188.323,58.74c-.309.537-.553,1.09-.553,1.09l.732,1.627s1.09-.407,1.627-.586a10.022,10.022,0,0,0,1.627-.748h0a4.654,4.654,0,0,1,.5-.439A6.214,6.214,0,0,1,188.323,58.74Z" transform="translate(110.683 30.71)" fill="#facfc8"/><path d="M187.51,61.131l.667-.26-.439-1.041S187.559,60.692,187.51,61.131Z" transform="translate(110.52 31.393)" fill="#b6dbf7"/><path d="M187.489,61.13l-.049,2.993,1.968-2.343-.992-1.041Z" transform="translate(110.476 31.963)" fill="#b6dbf7"/><path d="M191.549,49.95a3.969,3.969,0,0,0-4.409,3.774c0,2.18,1.871,2.863,3.79,3.9a6.654,6.654,0,0,0,3.579.114,8.6,8.6,0,0,1,0,1.627c-.13,1.724,2.245-3.563,2.245-4.978C196.754,50.991,193.745,49.95,191.549,49.95Z" transform="translate(110.288 25.184)" fill="#383097"/><path d="M193.873,55.029a3.693,3.693,0,0,0-1.334-2.766c-1.22-1.025-5.271-1.2-5.271.927,0,.439.1.976.1,1.708s-.26.7-.081,1.545,1.5,3.14,1.627,3.677,2.326.407,3.612-.634,1.627-1.708,1.513-2.229.96.407.96-1.545S193.873,55.029,193.873,55.029Z" transform="translate(110.339 26.189)" fill="#facfc8"/><path d="M193.015,54.658a3.709,3.709,0,0,0-1.09-2.538,6.067,6.067,0,0,1,.423.862,5.645,5.645,0,0,1,.2,3.693,4.6,4.6,0,0,1-2.961,3.254,3.465,3.465,0,0,1-.992.13,4.6,4.6,0,0,0,3.123-.927c1.269-1.057,1.627-1.708,1.513-2.229s.96.407.96-1.545S193.015,54.658,193.015,54.658Z" transform="translate(111.197 26.56)" fill="#dbb5b0"/><path d="M169.65,68.568l20.5,10.656,1.367-2.6L169.26,66.86Z" transform="translate(99.081 35.799)" fill="url(#k)"/><path d="M169.26,67.474l20.888,10.883,2.57-1.594-20.9-10.883Z" transform="translate(99.081 35.185)" fill="#c2c8ec"/><path d="M179.22,61.66,211.984,207.8l1.692,1.3L180.912,63.807Z" transform="translate(105.324 32.54)" fill="url(#l)"/><path d="M180.26,63.607,213.024,208.9l3.286-2.1L183.839,61.98Z" transform="translate(105.976 32.741)" fill="#c2c8ec"/><path d="M201.009,60.385c-.374-2.993-4.457-2.066-7.4-.911s-5.694,2.261-7,2.912c-3.254,1.627-3.123,4.555,0,4.148a81.7,81.7,0,0,0,9.419-1.9C200.537,63.508,201.188,61.816,201.009,60.385Z" transform="translate(108.458 30.48)" fill="#facfc8"/><path d="M178.887,56.542c-1.269-2.115-.228-2.375-1.009-4.083-.423-.927-.163-1.741-.439-1.627-.992.374-.163,2.326-.537,1.627s-.976-2.017-.651-2.782.163-1.741-.179-1.269-1.139.992-1.318,1.367,0,.944-.228,1.106-.277.537.456,2.05,4.49,13.812,5.059,15.5c.927,2.733,4.555,1.334,3.872-1.887S180.156,58.657,178.887,56.542Z" transform="translate(102.289 24.156)" fill="#facfc8"/><path d="M195.266,49.3l1.708-1.025-3.986-1.952-1.627.976a20.27,20.27,0,0,0-5.97-1.09V44.73H180.25v1.48a22.547,22.547,0,0,0-5.808,1.5l-2.066-1.074-3.758,2.131,2.18,1.057c-1.22.96-2.05.96-2.261,1.627l-2.017,1.334v2.782h2.408a5.791,5.791,0,0,0,2.31,2.831L169.725,59.5l4,1.936,1.627-.976a18.611,18.611,0,0,0,5.954,1.155v1.269h5.157v-1.4a22.548,22.548,0,0,0,5.791-1.432l1.741.895,3.742-2.131-1.952-.781a6.328,6.328,0,0,0,2.229-3.254h2.343V52.2l-2.1-1.627C197.673,48.976,195.9,49.562,195.266,49.3Zm-6.6,6.833-.325.13a15.536,15.536,0,0,1-9.875,0l-.342-.13c-2.912-1.269-2.912-3.254,0-4.555a15.064,15.064,0,0,1,10.542,0C191.573,52.831,191.573,54.93,188.661,56.134Z" transform="translate(97.364 21.928)" fill="#d32d05"/><path d="M167.82,44.68v3.058l.748.569,2.863-1.806-.586-1.676-3.026-.146Z" transform="translate(98.179 21.897)" fill="url(#m)"/><path d="M186.632,44.38v3.058l-.748.569L183.02,46.2l.586-1.676,3.026-.146Z" transform="translate(107.706 21.709)" fill="url(#n)"/><path d="M195.266,46.761l1.708-1.041-3.986-1.936-1.627.96a20.6,20.6,0,0,0-5.97-1.074V42.19H180.25v1.48a21.9,21.9,0,0,0-5.808,1.5l-2.066-1.09-3.758,2.131,2.18,1.074a6.182,6.182,0,0,0-2.1,3.026h-2.18v2.766h2.408a5.743,5.743,0,0,0,2.31,2.847l-1.513,1.09,4,1.952,1.627-.976a19.082,19.082,0,0,0,5.954,1.155V60.41h5.157v-1.4a22.548,22.548,0,0,0,5.791-1.432l1.741.895,3.742-2.131-1.952-.781a6.507,6.507,0,0,0,2.229-3.254h2.343V49.69h-2.505a4.734,4.734,0,0,0-2.587-2.928Zm-6.6,6.816-.325.13a15.422,15.422,0,0,1-9.875,0l-.342-.146c-2.912-1.253-2.912-3.254,0-4.539a15.064,15.064,0,0,1,10.542,0c2.912,1.3,2.912,3.335,0,4.588Z" transform="translate(97.364 20.336)" fill="#ffad03"/><path d="M175.58,53.42v4.1h5.157v-4.1Z" transform="translate(103.043 27.375)" fill="url(#o)"/><path d="M188.163,48.48v4.1H185.82v-4.1Z" transform="translate(109.461 24.279)" fill="url(#o)"/><path d="M183.35,53.051v4.1a36.962,36.962,0,0,0,3.742-2.131,28.728,28.728,0,0,1,0-4.1Z" transform="translate(107.913 25.808)" fill="url(#q)"/><path d="M172.452,53.282v4.1l-4-1.936V51.33l4,1.952Z" transform="translate(98.573 26.065)" fill="url(#o)"/><path d="M166.53,48.91v4.116h2.391V48.91Z" transform="translate(97.37 24.548)" fill="url(#s)"/><path d="M190.123,67.8c-.895-3.156-4.49-7.19-5.84-9.37s0-1.627-.944-3.172c-.537-.862-.358-1.627-.618-1.627-.96.472.1,2.326-.342,1.627a2.863,2.863,0,0,1-.7-2.278c.244-.8,0-1.757-.325-1.253s-1.285.716-1.432,1.09.179.944-.1,1.139-.211.553.683,1.985,3.465,10.412,6.166,13.746C188.09,71.555,191,70.969,190.123,67.8Z" transform="translate(105.613 26.224)" fill="#facfc8"/><g transform="translate(99.082 288.211)"><path d="M104.738,181.181a1.952,1.952,0,0,1,1.952,0L145.066,202.2a2.082,2.082,0,0,1,0,3.6l-38.523,21.636a1.92,1.92,0,0,1-1.92,0L66.247,206.8a2.082,2.082,0,0,1,0-3.6Z" transform="translate(-65.216 -180.919)" fill="#c1c2c7"/></g><path d="M146.511,198.792H140l-31.4-17.1a7.418,7.418,0,0,0-7.158,0L70.865,198.76H64.52v5.255h0a2.7,2.7,0,0,0,1.383,2.278l35.529,19.814a7.451,7.451,0,0,0,7.158,0l36.424-19.766a2.7,2.7,0,0,0,1.415-2.294h0Z" transform="translate(33.43 107.201)" fill="#c2c8ec"/><path d="M145.046,198.25l-36.408-19.9a7.418,7.418,0,0,0-7.158,0l-35.529,19.9a2.749,2.749,0,0,0,0,4.88l35.529,19.815a7.418,7.418,0,0,0,7.158,0l36.408-19.88a2.733,2.733,0,0,0,0-4.815Z" transform="translate(33.398 105.108)" fill="#fff"/><path d="M65.93,202.614l13.112,7.321,22.417,12.575a7.418,7.418,0,0,0,7.158,0l23.507-12.787,10.233-5.564,2.733-1.5a2.733,2.733,0,0,0,0-4.88l-36.473-19.8a7.418,7.418,0,0,0-7.158,0L78.326,190.9,65.9,197.832a2.733,2.733,0,0,0,.033,4.783Z" transform="translate(33.419 104.876)" fill="url(#t)"/><path d="M295.292,204.359l-58.565,31.8a3.253,3.253,0,0,1-3.156,0L66.71,140.458l65.69-30.7,162.908,89.279a3.026,3.026,0,0,1-.016,5.32Z" transform="translate(34.803 62.689)" fill="#020064"/><path d="M290.279,254.627h0l-2.814,1.627-.716-2.164L94.786,148.348,81.771,36.327l-.439-3.9-1.415-.211L78.29,27.883l2.668-1.838h0a.569.569,0,0,1,.618,0L275.882,133.821a5.515,5.515,0,0,1,2.8,4.132l1.432,11.55,11.388,102.6a2.359,2.359,0,0,1-1.22,2.522Z" transform="translate(42.061 10.159)" fill="#020064"/><path d="M285.094,255.665,92.025,149.207,79.45,40.5,78.864,35.4,78,27.946a.83.83,0,0,1,1.236-.813l1.627.992,194.68,108.052,1.806,14.495,11.388,102.407a2.456,2.456,0,0,1-3.644,2.587Z" transform="translate(41.877 10.829)" fill="#b8bfe7"/><path d="M303.667,140.822,247.136,289.593a7.223,7.223,0,0,1-9.338,2.245L48.341,187.381c-3.156-1.741-6.621-4.75-4.685-10.021L100.2,28.573a7.239,7.239,0,0,1,9.338-2.245c12.136,6.735,36.636,20.237,64.535,35.627l32.861,18.058,42.606,23.524,40.833,22.5,11.225,6.214a5.873,5.873,0,0,1,2.066,8.573Z" transform="translate(20.001 9.861)" fill="url(#u)"/><path d="M104.053,31.285a1.025,1.025,0,0,0-1.432.537L48.66,176.266s173.694,95.1,173.905,94.534l15.08-40.41,38.848-104.034-40.8-22.482Z" transform="translate(23.489 13.428)" fill="url(#a)"/><g transform="translate(72.149 44.595)" clip-path="url(#w)"><path d="M100.868,50.934l13.242-7.581L107.489,30.42,99.03,32.356l.683,12.038Z" transform="translate(-17.088 -31.637)" fill="#d32d05"/><path d="M126.366,29.648c0,7.679,6.214,17.472,13.877,21.9a12.364,12.364,0,0,0,8.687,1.968V72.238L126.854,59.5a19.522,19.522,0,0,1,1.822,9.012c-.488,6.507-6.052,8.882-12.868,5.4-8.134-4.132-14.869-14.446-14.869-22.417a8.785,8.785,0,0,1,1.871-5.873L80.75,32.853V-9.639c0-9.159,7.418-12.3,16.593-7.012l51.586,29.787V31.844a29.185,29.185,0,0,0-8.687-8.134C132.58,19.35,126.366,21.986,126.366,29.648Z" transform="translate(-28.546 -62.75)" fill="#d32d05"/><path d="M114.94,7.877V26.585L127.5,19.378V.67Z" transform="translate(-7.115 -50.284)" fill="#d32d05"/><path d="M114.94,32.7,127.5,25.49V44.2L114.94,51.4Z" transform="translate(-7.115 -34.727)" fill="#d32d05"/><path d="M118.664,34.078c0,7.679,6.214,17.472,13.877,21.9a12.4,12.4,0,0,0,8.687,1.968V76.652L119.152,63.914a19.522,19.522,0,0,1,1.822,9.012c-.472,6.507-6.035,8.882-12.868,5.4C99.972,74.2,93.254,63.881,93.254,55.91a8.7,8.7,0,0,1,1.871-5.873L73,37.283V-5.209c0-9.159,7.434-12.3,16.593-7.012l51.635,29.787V36.274a28.794,28.794,0,0,0-8.687-8.134C124.879,23.78,118.664,26.416,118.664,34.078Z" transform="translate(-33.404 -59.973)" fill="url(#x)"/><path d="M177.986,82.905,190.528,75.7,183.793,62.57h-9.517l-2.587,3.367Z" transform="translate(28.456 -11.485)" fill="#bcc1e7"/><path d="M218.227,66.072V108.58L197.453,96.575a10.492,10.492,0,0,0,.569-3.6c0-7.63-6.149-17.374-13.763-21.832-6.507-3.856-12.4-2.473-13.714,3.254a14.755,14.755,0,0,0,.277,6.849l-20.774-11.99V50.5a12.348,12.348,0,0,1-8.72-1.968c-7.613-4.441-13.828-14.2-13.828-21.9s6.214-10.3,13.877-5.873a29.087,29.087,0,0,1,8.671,8.053V10.11L201.633,39.9C210.809,45.184,218.227,56.913,218.227,66.072Z" transform="translate(0.757 -44.367)" fill="#bcc1e7"/><path d="M133.65,17.317l12.543-7.207L160.834,26.3l-6.475,13.1Z" transform="translate(4.612 -44.367)" fill="#bcc1e7"/><path d="M122.08,22.97l12.543-7.19,10.607,13.291-12.9,9.435Z" transform="translate(-2.64 -40.813)" fill="#bcc1e7"/><path d="M148.754,64.333l12.559-7.207-5.4-8.606L142.67,49.708Z" transform="translate(10.266 -20.292)" fill="#bcc1e7"/><path d="M210.523,70.5V113.01L189.749,101a10.917,10.917,0,0,0,.553-3.6c0-7.63-6.149-17.374-13.763-21.832-6.507-3.856-12.38-2.473-13.714,3.254a14.755,14.755,0,0,0,.277,6.849l-20.758-11.99V54.934a12.38,12.38,0,0,1-8.687-1.968c-7.662-4.425-13.877-14.218-13.877-21.9s6.214-10.3,13.877-5.873a29.136,29.136,0,0,1,8.687,7.988V14.54l51.57,29.787C203.1,49.614,210.523,61.343,210.523,70.5Z" transform="translate(-4.082 -41.59)" fill="#f5f5f7"/><path d="M179.856,127.844c0,7.679-6.214,10.3-13.877,5.873a27.443,27.443,0,0,1-6.41-5.255V143.38L108,113.594c-9.11-5.287-16.61-17.016-16.61-26.24V44.91l22.141,12.754a8.7,8.7,0,0,0-1.871,5.873c0,7.971,6.751,18.285,14.853,22.417,6.833,3.481,12.4,1.155,12.884-5.4a19.522,19.522,0,0,0-1.838-9.012l22.076,12.738V103.8a14.788,14.788,0,0,1,6.41,2.131C173.722,110.373,179.856,120.182,179.856,127.844Z" transform="translate(-21.877 -22.554)" fill="#bcc1e7"/><path d="M83.68,52.117,96.223,44.91,118.3,57.664l-12.559,7.207Z" transform="translate(-26.709 -22.554)" fill="#bcc1e7"/><path d="M112.02,68.487l12.543-7.207,22.076,12.738L134.1,81.225Z" transform="translate(-8.946 -12.294)" fill="#bcc1e7"/><path d="M138.133,109.734l-12.543,7.19V98.59l12.884,1.448Z" transform="translate(-0.44 11.092)" fill="#bcc1e7"/><path d="M137.466,110.29l12.071-6.914-3.546-6.1L134.538,95.34l-.228,8.785Z" transform="translate(5.026 9.055)" fill="#bcc1e7"/><path d="M172.129,132.274c0,7.679-6.214,10.3-13.877,5.873a27.038,27.038,0,0,1-6.393-5.255V147.81l-51.586-29.787C91.1,112.737,83.68,101.007,83.68,91.832V49.34l22.059,12.754a8.785,8.785,0,0,0-1.871,5.873c0,7.971,6.751,18.285,14.869,22.417,6.833,3.481,12.38,1.155,12.868-5.4a19.521,19.521,0,0,0-1.855-9.012l22.076,12.738V108.23a14.8,14.8,0,0,1,6.393,2.131C165.915,114.8,172.129,124.612,172.129,132.274Z" transform="translate(-26.709 -19.778)" fill="url(#y)"/><path d="M215.979,110.9v42.492c0,9.175-7.435,12.315-16.593,7.012L147.8,130.629V115.711a27.445,27.445,0,0,0,6.41,5.255c7.662,4.425,13.877,1.806,13.877-5.873s-6.214-17.456-13.877-21.88a14.836,14.836,0,0,0-6.41-2.147V71.543l20.774,11.99a14.918,14.918,0,0,1-.293-6.833c1.334-5.694,7.142-7.06,13.73-3.254,7.613,4.457,13.763,14.2,13.763,21.832a10.623,10.623,0,0,1-.569,3.6Z" transform="translate(13.481 -6.012)" fill="#d32d05"/><path d="M140.08,78.647l12.559-7.207,16.74,12.429-7.142,11.924Z" transform="translate(8.642 -5.925)" fill="#d32d05"/><path d="M140.08,105.807,152.639,98.6l10.753,15.845-8.655,7.207-9.94-4.018Z" transform="translate(8.642 11.099)" fill="#d32d05"/><path d="M155.24,78.6l11.567-6.767,9.94,12.949-9.972,9.6Z" transform="translate(18.145 -5.681)" fill="#d32d05"/><path d="M181.307,140.092l13.844-7.906-2.863-10.2-15.7-3.725-1.269,9.679Z" transform="translate(30.731 23.422)" fill="#d32d05"/><path d="M208.288,115.325v42.492c0,9.175-7.418,12.315-16.593,7.012l-51.586-29.77V120.092a27.444,27.444,0,0,0,6.41,5.255c7.662,4.425,13.877,1.806,13.877-5.873s-6.231-17.407-13.925-21.832a14.836,14.836,0,0,0-6.41-2.147V75.973l20.774,11.99a14.641,14.641,0,0,1-.277-6.833c1.334-5.694,7.125-7.06,13.714-3.254,7.613,4.457,13.763,14.2,13.763,21.832a10.624,10.624,0,0,1-.569,3.6Z" transform="translate(8.63 -3.235)" fill="#ffad03"/></g><path d="M104.053,31.285a1.025,1.025,0,0,0-1.432.537L48.66,176.266s173.694,95.1,173.905,94.534l15.08-40.41,38.848-104.034-40.8-22.482Z" transform="translate(23.489 13.428)" fill="#1565c0" opacity="0.75"/><g transform="translate(122.973 35.347)"><path d="M275.864,131.387C241.6,112.4,83.9,25.726,83.8,25.645c-.992-.358-5.124.146-3.546,1.009C116.291,46.614,272.382,132.77,272.382,132.77c1.887,1.041,3.172,3.758,1.968,5.564l-57.979,150.3c-.878,1.3-2.277,3.254-.651,3.611a5.3,5.3,0,0,0,4.295-3.254L278.19,138.382C279.735,136.089,278.288,132.721,275.864,131.387Z" transform="translate(-79.902 -25.454)" fill="#fff"/><path d="M275.886,131.393C241.56,112.375,84.541,25.976,83.809,25.651s-5.092.13-3.53.992C116.329,46.6,271.852,132.385,272.437,132.776c1.9,1.041,3.254,3.79,1.968,5.6L216.426,288.688c-.878,1.3-2.31,3.254-.651,3.563A5.32,5.32,0,0,0,220.07,289l58.142-150.561C279.758,136.111,278.326,132.743,275.886,131.393Z" transform="translate(-79.875 -25.444)" fill="#fefeff"/><path d="M275.933,131.416C241.543,112.383,85.142,26.292,83.84,25.674c-.944-.407-5.092.114-3.514.976,36.05,19.961,191,105.482,192.191,106.133,1.887,1.057,3.254,3.839,1.968,5.645L216.506,288.761c-.878,1.3-2.359,3.156-.667,3.514a5.352,5.352,0,0,0,4.295-3.254l58.109-150.479C279.805,136.15,278.374,132.767,275.933,131.416Z" transform="translate(-79.857 -25.451)" fill="#fdfdff"/><path d="M275.957,131.428C241.518,112.362,85.735,26.516,83.848,25.686c-.911-.407-5.059.081-3.481.944C116.417,46.59,270.8,131.8,272.573,132.778s3.254,3.872,1.985,5.678L216.644,288.805c-.878,1.3-2.408,3.14-.683,3.465a5.368,5.368,0,0,0,4.295-3.254l58.012-150.479C279.829,136.179,278.462,132.795,275.957,131.428Z" transform="translate(-79.832 -25.447)" fill="#fcfdff"/><path d="M275.981,131.449C241.477,112.35,86.329,26.781,83.872,25.691c-.911-.407-5.043,0-3.465.927,36.05,19.961,189.9,104.864,192.239,106.165,1.887,1.057,3.254,3.921,1.968,5.71l-58,150.365c-.862,1.3-2.44,3.107-.667,3.416a5.385,5.385,0,0,0,4.262-3.254l58.061-150.479C279.853,136.216,278.438,132.816,275.981,131.449Z" transform="translate(-79.808 -25.451)" fill="#fbfcff"/><path d="M276.005,131.453C241.452,112.322,86.922,27.045,83.88,25.711c-.895-.407-5.011,0-3.433.895C116.481,46.566,269.742,131.16,272.7,132.787c1.9,1.057,3.254,3.953,1.985,5.759L216.708,288.911c-.878,1.3-2.489,3.075-.683,3.367a5.385,5.385,0,0,0,4.262-3.254L278.3,138.53C279.893,136.236,278.494,132.836,276.005,131.453Z" transform="translate(-79.783 -25.439)" fill="#fafbff"/><path d="M276.029,131.461C241.427,112.3,87.515,27.345,83.9,25.718c-.878-.39-4.994,0-3.416.878,36.034,19.961,188.709,104.246,192.288,106.2,1.887,1.057,3.254,3.986,1.985,5.791L216.781,288.951c-.878,1.3-2.538,3.058-.7,3.335a5.368,5.368,0,0,0,4.262-3.254l58.044-150.414C279.917,136.243,278.534,132.843,276.029,131.461Z" transform="translate(-79.758 -25.43)" fill="#f9fafe"/><path d="M276.043,131.471C241.376,112.274,88.1,27.567,83.9,25.728c-.862-.39-4.88,0-3.384.862C116.551,46.5,268.69,130.462,272.822,132.756c1.9,1.057,3.254,4.018,1.985,5.824L216.827,288.961c-.862,1.3-2.57,3.026-.7,3.254a5.45,5.45,0,0,0,4.246-3.254l57.979-150.3C279.98,136.27,278.564,132.853,276.043,131.471Z" transform="translate(-79.723 -25.424)" fill="#f8f9fe"/><path d="M276.069,131.5C241.353,112.271,88.678,27.9,83.927,25.709c-.862-.39-4.88,0-3.367.83C116.594,46.5,268.163,130.149,272.9,132.769c1.887,1.057,3.254,4.051,1.985,5.856L216.9,289.023c-.878,1.3-2.635,2.993-.716,3.254a5.466,5.466,0,0,0,4.246-3.254l57.9-150.3C279.957,136.315,278.607,132.9,276.069,131.5Z" transform="translate(-79.7 -25.437)" fill="#f7f8fe"/><path d="M276.079,131.513C241.314,112.252,89.257,28.114,83.921,25.706c-.83-.374-4.88,0-3.254.813C116.7,46.464,267.749,129.821,273.02,132.766c1.9,1.057,3.254,4.1,2,5.889L216.961,289.069c-.878,1.3-2.684,2.961-.732,3.254a5.5,5.5,0,0,0,4.246-3.254l57.817-150.3a5.287,5.287,0,0,0-2.212-7.256Z" transform="translate(-79.661 -25.434)" fill="#f6f8fe"/><path d="M276.131,131.53C241.285,112.236,89.862,28.374,83.94,25.706c-.813-.374-4.88,0-3.254.8C116.655,46.448,267.1,129.5,273.023,132.766c1.887,1.057,3.254,4.132,1.985,5.922l-57.979,150.43c-.862,1.3-2.717,2.928-.732,3.156a5.482,5.482,0,0,0,4.23-3.254l57.865-150.235a5.3,5.3,0,0,0-2.261-7.256Z" transform="translate(-79.648 -25.434)" fill="#f5f7fe"/><path d="M276.161,131.515C241.266,112.189,90.461,28.62,83.97,25.773c-.813-.374-4.88-.1-3.254.765,36.017,19.945,185.895,102.684,192.4,106.279,1.9,1.057,3.254,4.165,2,5.97L217.108,289.136c-.862,1.3-2.766,2.912-.748,3.107a5.482,5.482,0,0,0,4.23-3.254l57.833-150.17a5.32,5.32,0,0,0-2.261-7.3Z" transform="translate(-79.629 -25.403)" fill="#f4f6fe"/><path d="M276.2,131.561C241.252,112.2,91.05,28.926,83.989,25.721c-.781-.358-4.88-.114-3.254.748,36.017,19.945,185.325,102.293,192.435,106.3,1.887,1.057,3.254,4.2,2,6L217.192,289.215c-.878,1.285-2.814,2.879-.765,3.058a5.515,5.515,0,0,0,4.23-3.254l57.8-150.186a5.336,5.336,0,0,0-2.261-7.272Z" transform="translate(-79.616 -25.433)" fill="#f3f5fe"/><path d="M276.226,131.579C241.217,112.187,91.649,29.188,84.019,25.723c-.781-.358-4.88-.13-3.254.732C116.783,46.4,265.522,128.5,273.217,132.766c1.9,1.057,3.254,4.23,2,6.035L217.255,289.265c-.878,1.285-2.879,2.847-.781,3.01a5.515,5.515,0,0,0,4.213-3.254l57.768-150.138a5.32,5.32,0,0,0-2.229-7.3Z" transform="translate(-79.597 -25.435)" fill="#f2f4fe"/><path d="M276.249,131.592C241.192,112.168,92.242,29.526,84.026,25.736c-.765-.358-4.783-.163-3.254.7,36.066,19.945,184.252,101.74,192.548,106.328,1.887,1.057,3.254,4.262,2,6.068L217.343,289.294c-.862,1.3-2.912,2.831-.781,2.993a5.58,5.58,0,0,0,4.213-3.254L278.51,138.928a5.336,5.336,0,0,0-2.261-7.337Z" transform="translate(-79.571 -25.431)" fill="#f1f3fe"/><path d="M276.277,131.59C241.17,112.15,92.822,29.736,84.054,25.734c-.748-.342-4.767-.179-3.254.683,36.066,19.945,183.7,101.431,192.5,106.344,1.9,1.057,3.254,4.311,2.017,6.1L217.338,289.341c-.878,1.3-2.961,2.814-.8,2.945a5.613,5.613,0,0,0,4.213-3.254l57.7-150.089a5.368,5.368,0,0,0-2.18-7.353Z" transform="translate(-79.55 -25.43)" fill="#f0f3fe"/><path d="M276.286,131.605C241.115,112.132,93.4,30.011,84.047,25.733c-.732-.325-4.734-.2-3.156.683,36,19.928,183.064,101.106,192.532,106.344,1.887,1.057,3.254,4.344,2,6.149L217.461,289.389c-.878,1.3-2.993,2.554-.813,2.9a5.466,5.466,0,0,0,4.213-3.254l57.67-150.04a5.385,5.385,0,0,0-2.245-7.386Z" transform="translate(-79.511 -25.428)" fill="#eff2fd"/><path d="M276.326,131.621C241.09,112.1,93.994,30.288,84.071,25.749c-.732-.342-4.718-.228-3.14.651,36,19.928,182.544,100.732,192.548,106.36,1.9,1.057,3.254,4.376,2.017,6.182l-57.979,150.5c-.862,1.3-3.026,2.522-.813,2.847a5.45,5.45,0,0,0,4.2-3.156l57.654-150.008a5.417,5.417,0,0,0-2.229-7.5Z" transform="translate(-79.486 -25.428)" fill="#eef1fd"/><path d="M276.351,131.636C241.065,112.115,94.572,30.563,84.079,25.748c-.716-.325-4.685-.244-3.107.634C117.038,46.31,262.9,126.853,273.553,132.759c1.887,1.057,3.254,4.409,2.017,6.214L217.591,289.485c-.878,1.3-3.075,2.489-.813,2.8a5.466,5.466,0,0,0,4.181-3.14l57.605-149.975a5.417,5.417,0,0,0-2.212-7.532Z" transform="translate(-79.461 -25.427)" fill="#edf0fd"/><path d="M276.414,131.651C241.064,112.13,95.2,30.79,84.126,25.747c-.683-.309-4.653-.26-3.075.618,35.936,19.928,181.291,100.162,192.532,106.393,1.9,1.057,3.254,4.441,2.017,6.247L217.638,289.533c-.878,1.285-3.14,2.456-.83,2.749a5.5,5.5,0,0,0,4.181-3.14l57.573-149.926a5.434,5.434,0,0,0-2.147-7.565Z" transform="translate(-79.411 -25.426)" fill="#eceffd"/><path d="M276.415,131.668C241,112.065,95.742,31.148,84.111,25.763c-.683-.325-4.636-.293-3.058.586,35.936,19.928,180.722,99.853,192.63,106.409,1.887,1.057,3.254,4.49,2.017,6.279L217.72,289.582c-.862,1.285-3.172,2.424-.83,2.7a5.45,5.45,0,0,0,4.213-3.123l57.556-149.91a5.434,5.434,0,0,0-2.245-7.581Z" transform="translate(-79.412 -25.426)" fill="#ebeefd"/><path d="M276.368,131.685C240.952,112.049,96.313,31.392,84.1,25.764c-.667-.309-4.571-.309-2.945.5C117.136,46.2,261.369,125.812,273.8,132.693c1.9,1.057,3.254,4.523,2.034,6.328L217.8,289.631c-.862,1.285-3.254,2.391-.846,2.652a5.482,5.482,0,0,0,4.165-3.107L278.645,139.3a5.466,5.466,0,0,0-2.278-7.613Z" transform="translate(-79.365 -25.427)" fill="#eaeefd"/><path d="M276.447,131.7C240.934,112.031,96.913,31.667,84.142,25.761c-.651-.293-4.588-.325-3.01.553C117.118,46.227,260.8,125.55,273.811,132.756c1.887,1.057,3.254,4.555,2.017,6.361L217.8,289.661c-.878,1.3-3.254,2.375-.862,2.635a5.58,5.58,0,0,0,4.165-3.123l57.491-149.829a5.466,5.466,0,0,0-2.147-7.646Z" transform="translate(-79.362 -25.424)" fill="#e9edfd"/><path d="M276.471,131.716C240.909,112.015,97.506,31.96,84.15,25.778c-.634-.309-4.555-.358-2.977.521,35.985,19.912,179.095,98.926,192.695,106.458,1.9,1.057,3.254,4.588,2.034,6.393L217.922,289.711c-.862,1.3-3.254,2.343-.862,2.587a5.547,5.547,0,0,0,4.148-3.107l57.459-149.8a5.466,5.466,0,0,0-2.2-7.678Z" transform="translate(-79.338 -25.425)" fill="#e8ecfd"/><path d="M276.5,131.732C240.888,112,98.087,32.236,84.178,25.778c-.634-.293-4.539-.374-2.977.5,36,19.912,178.542,98.6,192.744,106.474,1.887,1.057,3.254,4.62,2.033,6.507L218,289.808c-.862,1.3-3.384,2.31-.878,2.538a5.547,5.547,0,0,0,4.148-3.091l57.426-149.78a5.482,5.482,0,0,0-2.2-7.744Z" transform="translate(-79.317 -25.425)" fill="#e7ebfd"/><path d="M276.541,131.747C240.849,111.982,98.666,32.529,84.188,25.777c-.6-.277-4.523-.39-2.945.488C117.228,46.178,259.215,124.557,274,132.756c1.9,1.057,3.254,4.653,2.034,6.507L218.074,289.808c-.878,1.3-3.433,2.294-.895,2.489a5.613,5.613,0,0,0,4.148-3.091L278.721,139.54a5.5,5.5,0,0,0-2.18-7.792Z" transform="translate(-79.294 -25.424)" fill="#e6eafd"/><path d="M276.565,131.765c-35.79-19.8-177.322-98.958-192.353-105.97-.6-.293-4.506-.423-2.928.456,35.985,19.912,177.4,97.982,192.792,106.507,1.887,1.041,3.254,4.7,2.033,6.507L218.147,289.809c-.878,1.285-3.481,2.261-.911,2.44a5.564,5.564,0,0,0,4.132-3.075l57.377-149.666a5.515,5.515,0,0,0-2.18-7.744Z" transform="translate(-79.269 -25.425)" fill="#e5e9fd"/><path d="M276.564,131.781C240.775,111.966,99.812,33.1,84.26,25.795c-.586-.277-4.474-.439-2.9.439,35.92,19.912,176.768,97.641,192.744,106.523,1.9,1.041,3.254,4.734,2.05,6.507L218.178,289.874c-.862,1.285-3.53,2.245-.911,2.391a5.547,5.547,0,0,0,4.132-3.058l57.345-149.666a5.531,5.531,0,0,0-2.18-7.76Z" transform="translate(-79.219 -25.425)" fill="#e5e9fc"/><path d="M276.607,131.8c-35.855-19.847-176.2-98.405-192.353-106-.569-.26-4.457-.456-2.879.423,35.985,19.912,176.264,97.364,192.841,106.539,1.887,1.041,3.254,4.767,2.034,6.507L218.286,289.89c-.862,1.285-3.579,2.505-.927,2.343a5.84,5.84,0,0,0,4.132-3.058l57.3-149.666a5.531,5.531,0,0,0-2.18-7.711Z" transform="translate(-79.213 -25.425)" fill="#e4e8fc"/><path d="M276.644,131.813c-35.9-19.88-175.646-98.129-192.4-106-.553-.26-4.425-.488-2.847.39,35.985,19.912,175.695,97.055,192.858,106.556,1.9,1.041,3.254,4.88,2.05,6.6L218.339,290c-.878,1.285-3.628,2.473-.944,2.294a5.824,5.824,0,0,0,4.132-3.042l57.263-149.666a5.531,5.531,0,0,0-2.147-7.776Z" transform="translate(-79.201 -25.424)" fill="#e3e7fc"/><path d="M276.68,131.832C240.712,111.92,101.588,33.98,84.23,25.813c-.537-.26-4.392-.5-2.814.374,36.017,19.912,175.256,96.73,192.939,106.572,1.887,1.041,3.254,4.88,2.05,6.637L218.424,290.038c-.862,1.3-3.677,2.473-.944,2.278a5.905,5.905,0,0,0,4.116-3.042l57.247-149.568a5.547,5.547,0,0,0-2.164-7.874Z" transform="translate(-79.189 -25.427)" fill="#e2e6fc"/><path d="M276.685,131.848c-36.017-19.945-174.6-97.576-192.4-106.035-.521-.244-4.376-.521-2.8.358,35.969,19.912,174.572,96.421,192.906,106.588,1.9,1.041,3.254,4.88,2.066,6.686L218.478,290.088c-.862,1.3-3.725,2.456-.96,2.229a5.938,5.938,0,0,0,4.116-3.042l57.215-149.519a5.564,5.564,0,0,0-2.164-7.906Z" transform="translate(-79.145 -25.428)" fill="#e1e5fc"/><path d="M276.71,131.865C240.643,111.887,102.642,34.582,84.291,25.83c-.5-.244-4.344-.553-2.766.325,35.969,19.912,174,96.1,192.971,106.6,1.887,1.041,3.254,4.88,2.05,6.719l-58,150.658c-.878,1.285-3.774,2.424-.96,2.18a5.97,5.97,0,0,0,4.1-3.026L278.873,139.8a5.58,5.58,0,0,0-2.164-7.939Z" transform="translate(-79.121 -25.427)" fill="#e0e4fc"/><path d="M276.75,131.884C240.6,111.874,103.3,34.878,84.315,25.833c-.5-.244-4.327-.569-2.749.309,35.969,19.912,173.385,95.8,192.906,106.621,1.9,1.041,3.254,4.88,2.066,6.751L218.559,290.188c-.862,1.285-3.807,2.408-.96,2.131a6,6,0,0,0,4.083-3.01l57.15-149.471a5.58,5.58,0,0,0-2.082-7.955Z" transform="translate(-79.096 -25.431)" fill="#dfe4fc"/><path d="M276.774,131.9c-36.2-20.042-172.913-96.713-192.451-106.068-.488-.228-4.295-.586-2.717.293,35.969,19.9,172.864,95.493,192.988,106.637,1.9,1.041,3.254,4.978,2.066,6.784L218.681,290.238c-.862,1.285-3.856,2.391-.976,2.082a6,6,0,0,0,4.083-2.993l57.117-149.438a5.6,5.6,0,0,0-2.131-7.988Z" transform="translate(-79.072 -25.432)" fill="#dee3fc"/><path d="M276.8,131.918C240.553,111.843,104.438,35.5,84.347,25.85c-.472-.228-4.278-.618-2.7.26,35.952,19.9,172.295,95.184,193,106.653,1.9,1.041,3.254,5.011,2.066,6.816L218.754,290.287c-.878,1.285-3.921,2.375-.992,2.034a5.971,5.971,0,0,0,4.083-2.993l57.084-149.389a5.612,5.612,0,0,0-2.131-8.02Z" transform="translate(-79.046 -25.432)" fill="#dde2fc"/><path d="M276.822,132.019C240.512,111.83,105.016,35.81,84.355,25.854c-.456-.228-4.246-.634-2.668.244,35.952,19.9,171.725,94.859,193.036,106.669,1.9,1.041,3.254,5.059,2.066,6.865L218.81,290.339c-.862,1.285-3.953,2.343-.992,1.985a6.019,6.019,0,0,0,4.067-2.977L278.953,139.99a5.629,5.629,0,0,0-2.131-7.971Z" transform="translate(-79.022 -25.435)" fill="#dce1fc"/><path d="M276.846,132.02c-36.359-20.2-171.27-95.9-192.467-106.165-.455-.211-4.23-.651-2.652.228,35.952,19.9,171.156,94.55,193.053,106.686,1.9,1.041,3.254,5.092,2.082,6.9L218.883,290.389c-.862,1.285-4,2.326-1.009,1.936a6.051,6.051,0,0,0,4.067-2.961L278.978,140.04a5.645,5.645,0,0,0-2.131-8.02Z" transform="translate(-78.997 -25.437)" fill="#dbe0fc"/><path d="M276.87,132C240.462,111.83,106.056,36.476,84.387,25.9c-.423-.211-4.2-.683-2.619.2,35.952,19.847,170.6,94.192,193.085,106.653,1.9,1.041,3.254,5.124,2.066,6.93L219.037,290.4c-.862,1.3-4.051,2.326-1.025,1.92a6.117,6.117,0,0,0,4.067-2.977l56.938-149.292A5.629,5.629,0,0,0,276.87,132Z" transform="translate(-78.972 -25.419)" fill="#dadffb"/><path d="M276.895,132.023c-36.473-20.237-170.131-95.249-192.5-106.149-.407-.2-4.165-.7-2.587.179,35.952,19.9,170.033,93.932,193.1,106.718,1.9,1.041,3.254,5.157,2.082,6.963l-57.979,150.74c-.878,1.285-4.1,2.31-1.041,1.871a6.117,6.117,0,0,0,4.051-2.961l56.938-149.259a5.661,5.661,0,0,0-2.066-8.1Z" transform="translate(-78.948 -25.439)" fill="#d9dffb"/><path d="M276.919,132.027C240.4,111.773,107.259,37.1,84.419,25.878c-.407-.2-4.148-.716-2.57.163,35.936,19.9,169.464,93.623,193.134,106.735,1.9,1.041,3.254,5.19,2.082,7L219.086,290.526c-.862,1.285-4.132,2.294-1.041,1.822A6.117,6.117,0,0,0,222.1,289.4l56.938-149.227a5.661,5.661,0,0,0-2.115-8.15Z" transform="translate(-78.923 -25.443)" fill="#d8defb"/><path d="M276.959,132.028C240.372,111.758,107.82,37.446,84.427,25.9c-.374-.2-4.116-.748-2.538.13,35.936,19.9,168.895,93.313,193.15,106.751,1.9,1.041,3.254,5.222,2.082,7.044L219.158,290.576c-.862,1.285-4.2,2.278-1.057,1.773a6.149,6.149,0,0,0,4.051-2.944L279.09,140.227a5.71,5.71,0,0,0-2.131-8.2Z" transform="translate(-78.898 -25.445)" fill="#d7ddfb"/><path d="M276.983,132.03C240.331,111.744,108.316,37.79,84.451,25.9c-.374-.179-4.1-.765-2.522.114,35.936,19.9,168.325,93,193.183,106.767,1.9,1.041,3.254,5.271,2.082,7.077L219.232,290.627c-.878,1.285-4.246,2.261-1.074,1.724a6.231,6.231,0,0,0,4.051-2.928l56.938-149.145a5.743,5.743,0,0,0-2.164-8.248Z" transform="translate(-78.874 -25.447)" fill="#d6dcfb"/><path d="M277.007,132.034c-36.7-20.3-168.081-93.9-192.548-106.133-.358-.179-4.067-.781-2.489.1,35.936,19.9,167.756,92.728,193.2,106.783,1.9,1.041,3.254,5.3,2.1,7.109L219.288,290.68c-.862,1.285-4.279,2.245-1.074,1.627a6.166,6.166,0,0,0,4.034-2.912l56.857-149.08a5.726,5.726,0,0,0-2.1-8.28Z" transform="translate(-78.849 -25.451)" fill="#d5dbfb"/><path d="M277.031,132.042C240.282,111.724,109.47,38.5,84.483,25.926c-.342-.179-4.051-.813-2.473,0,36.017,19.9,167.187,92.435,193.232,106.865,1.9,1.041,3.254,5.336,2.082,7.142l-57.963,150.8c-.862,1.285-4.327,2.229-1.09,1.627a6.149,6.149,0,0,0,4.034-2.912l56.775-149.08a5.743,5.743,0,0,0-2.05-8.329Z" transform="translate(-78.824 -25.459)" fill="#d4dafb"/><path d="M277.055,132.043C240.241,111.708,110.015,38.86,84.491,25.927c-.325-.163-4.018-.83-2.44,0C118,45.823,248.668,118.037,275.3,132.792c1.9,1.041,3.254,5.368,2.1,7.174L219.434,290.787c-.862,1.269-4.376,2.212-1.106,1.627a6.312,6.312,0,0,0,4.034-2.912l56.775-149.048a5.775,5.775,0,0,0-2.082-8.411Z" transform="translate(-78.799 -25.46)" fill="#d3dafb"/><path d="M277.08,132.046C240.216,111.695,110.56,39.318,84.515,25.93c-.325-.163-4-.846-2.424,0,35.887,19.9,166.032,91.784,193.28,106.848,1.9,1.057,3.254,5.417,2.1,7.223L219.491,290.822c-.862,1.285-4.409,2.212-1.09,1.627a6.263,6.263,0,0,0,4-2.9l56.759-149.015a5.775,5.775,0,0,0-2.082-8.492Z" transform="translate(-78.775 -25.463)" fill="#d2d9fb"/><path d="M277.107,132.127c-36.912-20.449-166.015-92.5-192.581-106.181-.293-.163-3.969-.878-2.408,0,35.936,19.88,165.511,91.459,193.313,106.832,1.9,1.057,3.254,5.466,2.1,7.272L219.567,290.87c-.862,1.285-4.457,2.2-1.106,1.513a6.263,6.263,0,0,0,4-2.9L279.189,140.5a5.791,5.791,0,0,0-2.082-8.378Z" transform="translate(-78.753 -25.462)" fill="#d1d8fb"/><path d="M277.133,132.144c-36.977-20.481-165.511-92.126-192.6-106.2-.277-.146-3.953-.895-2.375,0,35.936,19.88,164.942,91.1,193.346,106.832,1.9,1.057,3.254,5.5,2.1,7.3L219.642,290.92c-.862,1.285-4.506,2.18-1.122,1.464a6.393,6.393,0,0,0,4-2.879L279.2,140.555a5.791,5.791,0,0,0-2.066-8.411Z" transform="translate(-78.731 -25.463)" fill="#d0d7fa"/><path d="M277.174,132.163C240.132,111.649,112.135,40.428,84.56,25.949c-.277-.146-3.937-.911-2.359,0,35.936,19.88,164.307,90.808,193.362,106.865,1.9,1.057,3.254,5.531,2.115,7.337L219.7,291c-.862,1.285-4.539,2.164-1.122,1.415a6.328,6.328,0,0,0,3.986-2.863l56.662-148.918a5.808,5.808,0,0,0-2.05-8.476Z" transform="translate(-78.707 -25.466)" fill="#cfd6fa"/><path d="M277.2,132.179C240.107,111.632,112.647,40.948,84.568,25.965c-.26-.146-3.9-.944-2.326,0,35.936,19.863,163.8,90.434,193.443,106.816,1.9,1.057,3.254,5.564,2.1,7.369L219.821,291.02c-.862,1.285-4.588,2.164-1.139,1.366a6.3,6.3,0,0,0,3.986-2.863L279.3,140.654a5.824,5.824,0,0,0-2.1-8.476Z" transform="translate(-78.682 -25.465)" fill="#ced5fa"/><path d="M277.287,132.205C240.066,111.642,113.143,41.316,84.592,25.975c-.244-.13-3.888-.96-2.31-.081,35.92,19.945,163.233,90.19,193.378,106.9,1.9,1.057,3.254,5.6,2.115,7.4L219.812,291.079c-.862,1.285-4.636,2.147-1.155,1.318a6.344,6.344,0,0,0,3.986-2.847l56.6-148.836a5.856,5.856,0,0,0-1.952-8.508Z" transform="translate(-78.657 -25.475)" fill="#cdd5fa"/><path d="M277.263,132.225C240.041,111.629,113.622,41.791,84.6,25.978c-.228-.114-3.856-.976-2.278-.1,35.92,19.961,162.664,89.913,193.443,106.913,1.9,1.057,3.254,5.629,2.115,7.451L219.918,291.131c-.878,1.269-4.7,2.131-1.171,1.269a6.328,6.328,0,0,0,3.969-2.831l56.58-148.82a5.84,5.84,0,0,0-2.033-8.524Z" transform="translate(-78.633 -25.478)" fill="#ccd4fa"/><path d="M277.238,132.245C240.017,111.617,114.086,42.3,84.624,26c-.228-.13-3.839-1.009-2.261-.13,35.92,19.88,162.095,89.556,193.476,106.93,1.887,1.057,3.254,5.678,2.1,7.483l-57.963,150.9c-.862,1.269-4.734,2.115-1.171,1.236a6.41,6.41,0,0,0,3.969-2.847L279.3,140.8a5.856,5.856,0,0,0-2.066-8.557Z" transform="translate(-78.608 -25.483)" fill="#cbd3fa"/></g><path d="M72.2,73.92l13.258-7.6L78.823,53.39,70.38,55.326l.667,12.055Z" transform="translate(37.103 27.356)" fill="#d32d05"/><path d="M47.12,11.527,59.955,4.19l7.662,11.794L52.635,24.623Z" transform="translate(22.523 -3.482)" fill="#d32d05"/><path d="M97.722,52.632c0,7.662,6.214,17.472,13.877,21.9a12.51,12.51,0,0,0,8.671,1.968V95.255l-22.076-12.8a19.668,19.668,0,0,1,1.838,9.029c-.488,6.507-6.052,8.882-12.884,5.4-8.134-4.132-14.853-14.446-14.853-22.434a8.72,8.72,0,0,1,1.871-5.873L52.09,55.837V13.345c0-9.175,7.434-12.315,16.61-7.012l51.57,29.77V54.812A29.087,29.087,0,0,0,111.6,46.76C104,42.335,97.722,44.97,97.722,52.632Z" transform="translate(25.639 -3.755)" fill="#d32d05"/><path d="M86.28,30.847V49.555l12.559-7.207V23.64Z" transform="translate(47.069 8.709)" fill="#d32d05"/><path d="M86.28,55.677,98.839,48.47V67.178L86.28,74.385Z" transform="translate(47.069 24.273)" fill="#d32d05"/><path d="M90,57.062c0,7.76,6.214,17.521,13.958,21.9a12.347,12.347,0,0,0,8.671,1.968V99.636L90.49,86.882a19.635,19.635,0,0,1,1.822,9.029c-.488,6.507-6.052,8.882-12.868,5.4C71.31,97.179,64.575,86.865,64.575,78.878a8.736,8.736,0,0,1,1.871-5.922L44.37,60.267V17.775C44.37,8.6,51.8,5.46,60.98,10.763l51.57,29.77V59.242a29.087,29.087,0,0,0-8.671-8.134C96.216,46.765,90,49.4,90,57.062Z" transform="translate(20.8 -0.978)" fill="url(#z)"/><path d="M149.319,105.875l12.559-7.207L155.143,85.54H145.61l-2.57,3.384Z" transform="translate(82.646 47.508)" fill="#bcc1e7"/><path d="M189.583,89.052v42.492l-20.774-11.99a10.558,10.558,0,0,0,.569-3.644c0-7.63-6.149-17.374-13.763-21.832-6.589-3.856-12.4-2.473-13.73,3.254a14.772,14.772,0,0,0,.293,6.849L121.4,92.175V73.467a12.412,12.412,0,0,1-8.671-1.952c-7.662-4.409-13.893-14.169-13.893-21.9s6.231-10.3,13.893-5.873A28.876,28.876,0,0,1,121.4,51.88V33.09L172.99,62.877C182.149,68.164,189.583,79.893,189.583,89.052Z" transform="translate(54.942 14.632)" fill="#bcc1e7"/><path d="M104.99,40.3l12.559-7.207,14.625,16.187-6.475,13.1Z" transform="translate(58.797 14.632)" fill="#bcc1e7"/><path d="M93.43,45.957l12.543-7.207,10.607,13.307-12.9,9.419Z" transform="translate(51.551 18.18)" fill="#bcc1e7"/><path d="M120.1,87.313l12.559-7.207-5.4-8.606L114.02,72.688Z" transform="translate(64.457 38.708)" fill="#bcc1e7"/><path d="M181.851,93.482v42.427l-20.774-11.99a10.493,10.493,0,0,0,.569-3.6c0-7.63-6.149-17.374-13.763-21.832-6.507-3.856-12.4-2.473-13.714,3.254a14.755,14.755,0,0,0,.277,6.849L113.687,96.622V77.9a12.412,12.412,0,0,1-8.671-1.952C97.354,71.52,91.14,61.711,91.14,54.048s6.214-10.3,13.877-5.873a28.876,28.876,0,0,1,8.671,8.02V37.52l51.57,29.787C174.432,72.594,181.851,84.323,181.851,93.482Z" transform="translate(50.115 17.409)" fill="#f5f5f7"/><path d="M151.206,150.824c0,7.662-6.214,10.281-13.893,5.856a27.379,27.379,0,0,1-6.393-5.255v14.918l-51.586-29.77c-9.159-5.3-16.593-17.016-16.593-26.192V67.89L84.816,80.628A8.72,8.72,0,0,0,82.945,86.5c0,7.988,6.751,18.3,14.853,22.434,6.833,3.465,12.4,1.139,12.868-5.4a19.424,19.424,0,0,0-1.822-9.029l22.076,12.754V126.78a14.739,14.739,0,0,1,6.393,2.131C144.991,133.353,151.206,143.146,151.206,150.824Z" transform="translate(32.314 36.445)" fill="#bcc1e7"/><path d="M55.02,75.1,67.579,67.89,89.655,80.628,77.1,87.835Z" transform="translate(27.475 36.445)" fill="#bcc1e7"/><path d="M83.36,91.457,95.919,84.25,117.995,97l-12.559,7.207Z" transform="translate(45.239 46.7)" fill="#bcc1e7"/><path d="M109.489,132.7,96.93,139.9V121.57l12.9,1.432Z" transform="translate(53.745 70.092)" fill="#bcc1e7"/><path d="M108.8,133.254l12.087-6.9-3.546-6.1-11.453-1.936-.228,8.785Z" transform="translate(59.217 68.055)" fill="#bcc1e7"/><path d="M143.5,155.254c0,7.662-6.214,10.281-13.877,5.856a27.444,27.444,0,0,1-6.41-5.255v14.918L71.642,141C62.467,135.7,55,123.987,55,114.812V72.32L77.076,85.058A8.72,8.72,0,0,0,75.2,90.931c0,7.988,6.751,18.3,14.853,22.434,6.833,3.481,12.4,1.139,12.884-5.4a19.668,19.668,0,0,0-1.838-9.029l22.076,12.754V131.21a14.787,14.787,0,0,1,6.41,2.131C137.284,137.783,143.5,147.576,143.5,155.254Z" transform="translate(27.463 39.222)" fill="url(#aa)"/><path d="M187.329,133.877v42.492c0,9.159-7.435,12.3-16.61,7.012l-51.57-29.787v-14.9a27.379,27.379,0,0,0,6.393,5.255c7.662,4.425,13.877,1.789,13.877-5.873s-6.214-17.472-13.877-21.9a14.739,14.739,0,0,0-6.393-2.131V94.525l20.758,11.99a14.755,14.755,0,0,1-.277-6.849c1.334-5.678,7.142-7.044,13.73-3.254,7.6,4.457,13.763,14.2,13.763,21.832a10.867,10.867,0,0,1-.569,3.579Z" transform="translate(67.672 52.985)" fill="#d32d05"/><path d="M111.43,101.627l12.559-7.207,16.74,12.429-7.158,11.908Z" transform="translate(62.833 53.074)" fill="#d32d05"/><path d="M111.43,128.787l12.559-7.207,10.753,15.829-8.671,7.223-9.94-4.018Z" transform="translate(62.833 70.098)" fill="#d32d05"/><path d="M126.58,101.567,138.163,94.8l9.94,12.949-9.972,9.6Z" transform="translate(72.329 53.312)" fill="#d32d05"/><path d="M152.64,163.072l13.844-7.906-2.847-10.2-15.7-3.725-1.269,9.679Z" transform="translate(84.922 82.421)" fill="#d32d05"/><path d="M179.609,138.32v42.492c0,9.159-7.435,12.3-16.593,7.012L111.43,158.037V143.119a27.119,27.119,0,0,0,6.41,5.255c7.662,4.425,13.877,1.789,13.877-5.873s-6.214-17.472-13.877-21.9a14.853,14.853,0,0,0-6.41-2.131V98.951l20.774,11.99a14.983,14.983,0,0,1-.325-6.865c1.334-5.678,7.142-7.044,13.73-3.254,7.613,4.457,13.763,14.2,13.763,21.832a10.46,10.46,0,0,1-.569,3.579Z" transform="translate(62.833 55.75)" fill="#fb8c00"/><path d="M76.638,18.79,4.31,271.921l1.334,1.708L77.419,21.6Z" transform="translate(-4.31 5.669)" fill="url(#ab)"/><path d="M76.9,21.347,5.13,273.372l5.222-1.041L82.68,19.2Z" transform="translate(-3.796 5.926)" fill="#c2c8ec"/><path d="M21.49,119.029l19.7,13.958,3.514-3.4L22.092,116.8Z" transform="translate(6.458 67.102)" fill="url(#ac)"/><path d="M21.86,117.6l20.091,14.251,4.409-2.082L26.285,115.52Z" transform="translate(6.69 66.3)" fill="#c2c8ec"/><path d="M26.28,101.965l19.7,13.942,3.514-3.4L26.882,99.72Z" transform="translate(9.461 56.396)" fill="url(#ad)"/><path d="M26.65,100.539l20.091,14.235,4.409-2.082L31.075,98.44Z" transform="translate(9.693 55.594)" fill="#c2c8ec"/><path d="M31.07,84.879l19.7,13.942,3.514-3.4L31.672,82.65Z" transform="translate(12.463 45.697)" fill="url(#ae)"/><path d="M31.44,83.459,51.531,97.709l4.409-2.082L35.865,81.36Z" transform="translate(12.695 44.888)" fill="#c2c8ec"/><path d="M35.86,67.815l19.7,13.942,3.514-3.4L36.462,65.57Z" transform="translate(15.466 34.991)" fill="url(#af)"/><path d="M36.23,66.372,56.321,80.623l4.409-2.082L40.655,64.29Z" transform="translate(15.698 34.189)" fill="#c2c8ec"/><path d="M40.65,50.735l19.7,13.942,3.514-3.4L41.252,48.49Z" transform="translate(18.468 24.285)" fill="url(#ag)"/><path d="M41.02,49.309,61.111,63.559l4.409-2.082L45.445,47.21Z" transform="translate(18.7 23.483)" fill="#c2c8ec"/><path d="M11.59,153.949l19.717,13.958,3.5-3.4L12.192,151.72Z" transform="translate(0.253 88.99)" fill="url(#ah)"/><path d="M11.96,152.522l20.091,14.251,4.409-2.082L16.385,150.44Z" transform="translate(0.485 88.188)" fill="#c2c8ec"/><path d="M16.38,136.879l19.7,13.942,3.514-3.4L16.982,134.65Z" transform="translate(3.256 78.29)" fill="url(#ai)"/><path d="M16.75,135.452,36.841,149.7l4.425-2.082L21.175,133.37Z" transform="translate(3.487 77.488)" fill="#c2c8ec"/><path d="M45.44,33.649l19.7,13.958,3.514-3.416L46.042,31.42Z" transform="translate(21.47 13.586)" fill="url(#aj)"/><path d="M45.81,32.222,65.9,46.473l4.409-2.082L50.235,30.14Z" transform="translate(21.702 12.783)" fill="#c2c8ec"/><path d="M90.178,24.62,17.85,277.751l1.35,1.724L90.959,27.434Z" transform="translate(4.177 9.323)" fill="url(#ak)"/><path d="M90.438,27.177,18.68,279.218l5.694-2.749L96.213,25.03Z" transform="translate(4.697 9.58)" fill="#c2c8ec"/><path d="M50,39.008c-.618,1.22-1.464,2.2-.878,2.424s2.424-.732,2.6-.553c.895.895-2.278,2.115-3.644,2.115-1.757,0-5.58,11.274-5.58,11.274L38.19,52.494S43.7,43.677,44.258,41.22a5.531,5.531,0,0,1,2.391-3.351c.374-.26,2.375.96,2.814-.813s1.025-2.619,1.269-2.554S50.635,37.787,50,39.008Z" transform="translate(16.926 15.515)" fill="#facfc8"/><path d="M27.551,51.574c.13,3.254,3.465,3.677,8.134,3.172a23.7,23.7,0,0,0,13.746-5.434c1.741-1.627-3.01-5.287-4.36-4.88a52.514,52.514,0,0,1-9.094,2.082C30.349,47.214,27.453,48.629,27.551,51.574Z" transform="translate(10.256 21.722)" fill="url(#al)"/><path d="M29.239,99.178c-.569.553-1.3,3.644-.781,4.213a2.831,2.831,0,0,0,1.122.683c3.416,1.3,8.671-3.254,9.549-4s1.627-2.229,1.171-3.254S29.988,98.446,29.239,99.178Z" transform="translate(10.715 54.432)" fill="url(#am)"/><path d="M34.219,96.779a29.282,29.282,0,0,0-5.173,2.9c-.618.586-1.09,2.57-.569,3.14a4.083,4.083,0,0,0,1.5.765c1.627.553,6.247-1.627,8.524-3.579.8-.683,2.131-2.31,1.627-3.254S36.643,95.835,34.219,96.779Z" transform="translate(10.697 54.099)" fill="#383097"/><ellipse cx="0.488" cy="0.618" rx="0.488" ry="0.618" transform="translate(43.306 155.124)" fill="url(#an)"/><path d="M29.131,98.742a3.611,3.611,0,0,0-.618,3.058,1.887,1.887,0,0,0,1.5.716A7.435,7.435,0,0,1,30.4,99.6l.244-.455-.96-1.269Z" transform="translate(10.791 55.243)" fill="url(#ao)"/><path d="M29.192,97.715a15.115,15.115,0,0,1-.342,1.627.911.911,0,0,1,.927,0,.8.8,0,0,1,.342.911,4.653,4.653,0,0,0,2.473-.423c2.115-.895,2.489-2.115,2.294-2.554C34.267,95.942,29.794,97.812,29.192,97.715Z" transform="translate(11.072 54.562)" fill="#facfc8"/><path d="M28.149,81.951a23.41,23.41,0,0,0-.667,8.59c.39,4.2,1.529,17.895,1.529,17.895,4.213,1.627,6.426-.439,6.426-.439s1.5-19.213,1.627-25.15S29.093,79.82,28.149,81.951Z" transform="translate(10.13 43.614)" fill="#26aab7"/><path d="M37.494,63.807c-3.123-2.717-6.231-2.278-7.239-1.513C26.074,65.45,26.107,73,26.318,75.471s1.724,14.836,2.343,18.448c.944,5.4,9.045,5.775,9.045,1.757S43.107,68.687,37.494,63.807Z" transform="translate(9.439 32.573)" fill="#26aab7"/><path d="M37.791,87.02c-.683.407-2.164,3.254-1.822,3.888a2.961,2.961,0,0,0,.911.944c2.977,2.131,9.224-.944,10.265-1.464s2.131-1.741,1.92-2.782S38.7,86.516,37.791,87.02Z" transform="translate(15.503 48.241)" fill="url(#ap)"/><path d="M43.2,86.077a30.439,30.439,0,0,0-5.743,1.5c-.732.407-1.627,2.212-1.334,2.9a4.311,4.311,0,0,0,1.236,1.122c1.464.944,6.507,0,9.159-1.3.944-.472,2.652-1.627,2.456-2.749S45.72,85.785,43.2,86.077Z" transform="translate(15.594 47.8)" fill="#383097"/><path d="M39.39,88.39a.663.663,0,0,0-.634.488.569.569,0,0,0,.309.732.644.644,0,0,0,.634-.488.586.586,0,0,0-.309-.732Z" transform="translate(17.256 49.295)" fill="url(#aq)"/><path d="M37.52,87.383A3.628,3.628,0,0,0,36.17,90.2a1.855,1.855,0,0,0,1.253,1.074,7.4,7.4,0,0,1,1.122-2.733l.358-.374L38.285,86.7Z" transform="translate(15.66 48.235)" fill="url(#ar)"/><path d="M37.771,86.16a13.973,13.973,0,0,1-.781,1.627.911.911,0,0,1,.927.2.813.813,0,0,1,.1.96,4.669,4.669,0,0,0,2.505.228c2.278-.342,2.945-1.432,2.863-1.9C43.123,85.721,38.324,86.4,37.771,86.16Z" transform="translate(16.174 47.897)" fill="#facfc8"/><path d="M45.658,70.27a32.927,32.927,0,0,0-3.644,8.508c-1.2,4.034-5.434,17.895-5.434,17.895a5.32,5.32,0,0,0,6.507.96S51.449,80.616,53.775,75.15,47.317,68.643,45.658,70.27Z" transform="translate(15.917 37.498)" fill="#26aab7"/><path d="M32.18,63.379c-3.79,1.627-3.563,6.084-3.351,7.337.944,5.157,4.962,6.507,7.272,7.386s12.624,3.254,16.138,4.392c5.238,1.627,9-5.173,5.775-7.565C55.345,72.961,37.3,61.134,32.18,63.379Z" transform="translate(10.996 33.44)" fill="#26aab7"/><path d="M47.783,55.723c0-6.946-10.769-9.663-14.039-9.663-6.621,0-6.914,8.427-6,14.641S26,80.841,26,80.841c4.88,5.629,22.4,1.822,22.4,1.822C46.742,75.342,47.783,61.759,47.783,55.723Z" transform="translate(9.285 22.762)" fill="url(#as)"/><path d="M40.819,40.658c0-.8-1.025-.211-1.627-.765a4.148,4.148,0,0,0-2.391-.862,2.814,2.814,0,0,0-3.254,1.627c-1.92,3.433-1.009,6.182-1.627,9.761a26.924,26.924,0,0,0,5.45,1.855c.2,0-1.3-1.855-.911-3.481,1.627.455,2.522-1.627,3.953-3.921a3.075,3.075,0,0,0,0-2.375C40.184,41.748,40.884,41.406,40.819,40.658Z" transform="translate(12.996 18.306)" fill="#facfc8"/><path d="M38.462,37.941c0-2.115-4.344-2.2-3.888.244-2.034-.293-4.88,1.448-3.725,4.2-1.09,2.164,1.025,4.311,1.627,5.612.13.277.569,1.383.569,1.383s2.782.748,3.872,0A5.58,5.58,0,0,0,38.934,45.6c.472-2.326,1.855-1.171,1.855-3.254.878-.407,1.285.83,1.285.83C44.058,39.34,40.69,36.656,38.462,37.941Z" transform="translate(12.132 16.679)" fill="#1b1370"/><path d="M37.725,46.628A11.16,11.16,0,0,0,32.844,45a1.074,1.074,0,0,0-.976.488l-.748,1.139,8.134,2.57A3.107,3.107,0,0,0,37.725,46.628Z" transform="translate(12.495 22.097)" fill="url(#at)"/><path d="M56.7,45.127c-.878,1.041-.911,1.627-1.35,1.122s-1.106-1.838-1.383-1.871-.211,1.432.374,2.538a3.254,3.254,0,0,1-.26,2.1c-1.448,2.57-8.557,8.931-8.557,8.931L48.774,61.2s7.158-9.566,9.191-11.03c.8-.569,2.879-1.627,2.733-2.034a15.781,15.781,0,0,0-.862-2.831c-.342-.374-2.9.39-1.171-.488,1.4-.716,2.44-2.2,1.92-2a11.127,11.127,0,0,0-3.888,2.31Z" transform="translate(21.521 20.718)" fill="#facfc8"/><path d="M34.818,51.417c-1.285,3.058,1.627,4.8,6.019,6.279a23.507,23.507,0,0,0,14.641.83c2.229-.683-.521-6.052-1.9-6.279a54.97,54.97,0,0,1-9.126-1.936C39.194,48.635,35.94,48.717,34.818,51.417Z" transform="translate(14.621 24.725)" fill="url(#au)"/><path d="M86.69,147.083l3.579.586c-1.041-2.9.456-3.254.456-3.254l-1.5-2.505Z" transform="translate(47.326 82.841)" fill="#facfc8"/><path d="M106.348,137.94c-.211-.277-1.627.634-2.554,1.155s-1.057-.244-1.5-.293a5.84,5.84,0,0,0-2.408,1.171c-.293.358.163,2.229-.813,3.937a38.881,38.881,0,0,1-8.72,6.247,2.212,2.212,0,0,0,1.627,3.986c2.229-.358,8.134-7.272,9.208-8.476a26.944,26.944,0,0,0,2.9-2.717c.456-.683,1.757-1.009,1.35-1.22s-1.464.163-2.034.407-.439-.765.244-1.757S106.625,138.379,106.348,137.94Z" transform="translate(49.044 80.32)" fill="#facfc8"/><path d="M84.012,166.91s2.359,5.938.472,10.151c-3.058,6.849-2.017,21.588-2.278,23.312s2.863,3.6,3.628.13,4.392-18.676,6-22.32.976-10.477.976-10.477Z" transform="translate(44.506 98.511)" fill="#facfc8"/><path d="M87.356,170.56A41.288,41.288,0,0,1,89.6,188.114c-.765,5.6.992,16.528,1.025,18.285s3.14,3.254,3.254-.26a212.091,212.091,0,0,1,2.814-21.6c.96-3.921-.683-15.829-.683-15.829S85.892,167.535,87.356,170.56Z" transform="translate(47.653 99.497)" fill="#facfc8"/><path d="M95.527,196.594c-2.1-1.269-1.855-5.011-1.855-5.011a10.347,10.347,0,0,1-3.953-.423c0,1.139-1.3,3.091-1.464,4.88s1.139,2.424,1.139,3.774H90.5l-.553-3.123c1.822,0,4.148,3.156,6.41,3.123s3.058-.748,3.254-1.5S97.61,197.862,95.527,196.594Z" transform="translate(48.298 113.711)" fill="#1b1370"/><path d="M88.546,192.844c-2.1-1.285-1.855-5.027-1.855-5.027a10.1,10.1,0,0,1-3.953-.407c0,1.139-1.318,3.091-1.464,4.88s1.122,2.44,1.122,3.774H83.52l-.569-3.123c1.822,0,4.148,3.254,6.507,3.14s3.058-.748,3.254-1.5S90.6,194.112,88.546,192.844Z" transform="translate(43.924 111.361)" fill="#1b1370"/><path d="M87.211,155a26.63,26.63,0,0,1-2.57,5.84c-1.871,3.254-3.628,7.971-2.993,11.648s-.716,17.895-2.017,25.313c0,0,6.41,1.269,8.834,3.01,8.476,6.084,17.667.39,17.667.39,0-15.634-6.41-35.887-7.711-44.835Z" transform="translate(42.901 91.046)" fill="#26aab7"/><path d="M97.8,163.584c.26,3.123.846,6.735,1.139,8.768-4.067,2.164-13.014.293-16.9-3.254a71.173,71.173,0,0,0,2.684-15.471c0-3.351,1.155-7.89,4.88-8.508,3.4-.569,6.979.8,7.565,2.977.211.748.342,1.415.488,2a13.014,13.014,0,0,0,.911,2.928,5.011,5.011,0,0,1-.683,5.466,16.545,16.545,0,0,0-.081,5.092Z" transform="translate(44.411 84.772)" fill="url(#av)"/><path d="M93.353,140.551a5.792,5.792,0,0,0,0-1.627c-.407-3.367-5.173-.244-6.833,2.489s5.124,7.581,6.507,5.19a5.97,5.97,0,0,0,.781-5.076C93.45,141.1,93.271,140.942,93.353,140.551Z" transform="translate(47.057 80.051)" fill="#facfc8"/><path d="M93.76,136.294c-3.644.944-4.88-1.2-6.751,3.058-1.627,3.53-4.376.179-6.019,4.262s.2,2.879-2.2,6.719c-2.034,3.254.163,6.3,1.009,8.411s2.375,3.254.521,6.247c0,0,7.6-.1,7-5.157s4.213-2.619,3.774-6.182c-.342-2.863,3.254-1.627,3.254-3.481s3.254-2.6,1.025-5.857c-1.35-1.92,3.856-3.14,3.612-5.238C98.787,137.693,97.4,135.35,93.76,136.294Z" transform="translate(41.851 79.184)" fill="#1b1370"/><path d="M88.357,140.192a2.326,2.326,0,0,0,.342,2.017c.374.537.7.358.634.081a6.692,6.692,0,0,0,.13-1.92C89.463,140.062,88.617,139.59,88.357,140.192Z" transform="translate(48.311 81.582)" fill="#facfc8"/><path d="M114.819,153.629a8.02,8.02,0,0,0-3.514-.895c-1.171.2-2.847,1.041-2.57.488s.6-1.285.423-1.724-.277.716-.992,1.122a10.784,10.784,0,0,0-1.855,1.952c-1.968.716-7.939.456-10.07.781-.992.163-3.514,3.742-1.22,4.6s12.38-2.863,12.429-2.879l1.838-.212c.846-.114,2.814.586,2.961.2a12.692,12.692,0,0,0,1.041-2.359c0-.439-1.757-1.464-.488-.992S115.258,153.792,114.819,153.629Z" transform="translate(51.961 88.789)" fill="#facfc8"/><path d="M93.818,156.951a16.545,16.545,0,0,0,0,5.059,37.417,37.417,0,0,1-4.36-7.109c-1.724-3.546-.976-6.507,1.627-7.288a2.115,2.115,0,0,1,2.505.944,13.014,13.014,0,0,0,.911,2.928,5.011,5.011,0,0,1-.683,5.466Z" transform="translate(48.478 86.346)" fill="#c2c8ec"/><path d="M95.345,151.283c-1.627-4.457-2.847-6.019-4.653-5.45-2.668.83-3.416,3.742-1.627,7.3a29.527,29.527,0,0,0,8.443,11.079,10,10,0,0,0,2.359-2.847,4.051,4.051,0,0,0,.228-2.879C99.461,157.432,96.712,155.074,95.345,151.283Z" transform="translate(48.204 85.23)" fill="url(#aw)"/></g></g></svg>