<svg xmlns="http://www.w3.org/2000/svg" width="314.112" height="297" viewBox="0 0 314.112 297"><g transform="translate(-15.667 -32.362)"><g transform="translate(15.668 148.011)"><path d="M61.667,359.707c-61.332-35.435-61.332-92.82,0-128.235s160.781-35.408,222.113,0,61.332,92.826,0,128.235S123.006,395.122,61.667,359.707Z" transform="translate(-15.668 -204.914)" fill="#f5f5f5"/></g><g transform="translate(44.549 217.267)"><path d="M112.311,424.4,58.76,393.49l34.812-20.1,53.544,30.918Z" transform="translate(-58.76 -329.729)" fill="#e6e6e6"/><path d="M365.253,385.8,336.191,402.64a.4.4,0,0,0,0,.744l30.435,17.526a1.447,1.447,0,0,0,1.287,0l29.054-16.843a.4.4,0,0,0,0-.744L366.533,385.8A1.461,1.461,0,0,0,365.253,385.8Z" transform="translate(-150.163 -333.772)" fill="#e6e6e6"/><path d="M215.121,369.648a13.6,13.6,0,0,0,7.607-6.32c.717-1.18,1.836-2.822,3.277-3.19s2.728.315,4.062.4c1.213.08,2.42.369,3.653.442a84.629,84.629,0,0,1,9.383,1.34c3.123.536,6.548,1.247,8.458,3.773.59.777.992,1.689,1.575,2.466a3.311,3.311,0,0,0,2.4,1.5,4.323,4.323,0,0,0,2.681-1.26,14.67,14.67,0,0,0,3.217-3.157,4.973,4.973,0,0,0,.777-4.289c-.617-1.756-2.426-2.755-4.1-3.579-3.921-1.917-7.909-3.7-11.9-5.449-3.1-1.34-5.234-3.592-8.311-5.054a48.026,48.026,0,0,0-10.844-3.418c-8.009-1.682-16.293-2.393-24.168-4.417-8.371-2.151-16.561-4.464-25.08-5.878a125.42,125.42,0,0,1-25.556-7.486l-.985-.4c-12.694-5.127-24.906-13.351-38.364-16.2a57.036,57.036,0,0,0-23.331-.06c-1.709.355-3.639.985-4.276,2.614-.878,2.218,1.213,4.363,2.761,6.186,2.011,2.366,4.511,6.119,4.752,9.256.281,3.753-1.34,7.413,1.474,10.623,5.7,6.575,14.953,11.253,22.835,14.611,10.616,4.524,18.21,7.125,29.115,10.884,5.476,1.89,13.224,3.351,18.291,6.173,3.827,2.118,7.661,5.141,11.856,6.347a36.526,36.526,0,0,0,13.324,1.34,20.3,20.3,0,0,0,7.312-2.218,22.812,22.812,0,0,0,5-3.726c2.426-2.071,6.7-1.133,9.691-1.26a13.646,13.646,0,0,0,3.411-.6Z" transform="translate(-67.443 -308.246)" fill="#e6e6e6"/></g><g transform="translate(26.634 32.363)"><g transform="translate(87.203 126.058)"><path d="M171.885,239.925a9.685,9.685,0,0,1-1.6-.134.59.59,0,0,1-.5-.583v-1.273a8.043,8.043,0,0,1-1.9-.784l-.9.891a.59.59,0,0,1-.764.067,9.819,9.819,0,0,1-2.265-2.265.59.59,0,0,1,.067-.764l.9-.9a7.774,7.774,0,0,1-.791-1.9h-1.267a.59.59,0,0,1-.59-.489,9.679,9.679,0,0,1,0-3.21.6.6,0,0,1,.59-.489h1.267a7.928,7.928,0,0,1,.791-1.91l-.865-.891a.59.59,0,0,1-.067-.764,9.819,9.819,0,0,1,2.265-2.265.59.59,0,0,1,.764.067l.9.891a7.975,7.975,0,0,1,1.9-.784v-1.273a.59.59,0,0,1,.5-.583,9.878,9.878,0,0,1,3.2,0,.59.59,0,0,1,.489.583v1.273a7.908,7.908,0,0,1,1.91.784l.891-.891a.59.59,0,0,1,.764-.067,9.564,9.564,0,0,1,2.265,2.265.6.6,0,0,1-.06.764l-.932.891a8.21,8.21,0,0,1,.791,1.91h1.267a.59.59,0,0,1,.583.489,9.748,9.748,0,0,1,.134,1.6,9.93,9.93,0,0,1-.134,1.6.59.59,0,0,1-.583.5H179.64a8.044,8.044,0,0,1-.791,1.9l.891.9a.59.59,0,0,1,.067.764,9.691,9.691,0,0,1-2.265,2.265.59.59,0,0,1-.764-.067l-.891-.891a7.954,7.954,0,0,1-1.91.784v1.273a.59.59,0,0,1-.489.583A9.742,9.742,0,0,1,171.885,239.925Zm-1.448-.764a9.49,9.49,0,0,0,2.889,0v-1.736l.255-.06a7.438,7.438,0,0,0,2.185-.9l.214-.141,1.227,1.227a8.994,8.994,0,0,0,2.011-2.051l-1.227-1.22.141-.221a7.372,7.372,0,0,0,.9-2.178l.06-.255h1.729a9.646,9.646,0,0,0,.114-1.448,9.293,9.293,0,0,0-.114-1.441H179.1l-.06-.255a7.428,7.428,0,0,0-.9-2.185l-.141-.221,1.227-1.22a9.1,9.1,0,0,0-2.011-2.044l-1.227,1.227-.214-.141a7.071,7.071,0,0,0-2.185-.9l-.255-.06v-1.736a9.49,9.49,0,0,0-2.889,0v1.736l-.248.06a7.071,7.071,0,0,0-2.185.9l-.221.141-1.22-1.213a9,9,0,0,0-2.051,2.044l1.227,1.22-.134.221a7.426,7.426,0,0,0-.9,2.185l-.06.255h-1.729a8.713,8.713,0,0,0,0,2.889h1.729l.06.255a7.372,7.372,0,0,0,.9,2.178l.134.221-1.227,1.227a8.995,8.995,0,0,0,2.051,2.044l1.22-1.227.221.141a7.373,7.373,0,0,0,2.185.9l.248.06ZM173.38,221.212ZM170.39,221.212Zm1.5,13.679a4.692,4.692,0,0,1-3.351-1.381,4.819,4.819,0,0,1-1.066-5.121,4.524,4.524,0,0,1,2.641-2.641,4.772,4.772,0,0,1,6.186,6.186,4.477,4.477,0,0,1-2.641,2.634,5.114,5.114,0,0,1-1.769.322Zm0-8.813a4.437,4.437,0,0,0-1.542.281,3.84,3.84,0,0,0-2.259,2.252,4.129,4.129,0,0,0,5.362,5.362h0a3.84,3.84,0,0,0,2.252-2.259,4.169,4.169,0,0,0-.912-4.437,4.088,4.088,0,0,0-2.915-1.18Z" transform="translate(-162.14 -220.445)" fill="#e0e0e0"/></g><g transform="translate(148.368)"><path d="M263.145,51.838a9.773,9.773,0,0,1-1.609-.127.59.59,0,0,1-.489-.59V49.854a7.928,7.928,0,0,1-1.883-.791l-.9.9a.59.59,0,0,1-.764.067,9.691,9.691,0,0,1-2.265-2.265A.6.6,0,0,1,255.3,47l.9-.9a8,8,0,0,1-.811-1.917h-1.273a.59.59,0,0,1-.583-.5,9.638,9.638,0,0,1,0-3.2.59.59,0,0,1,.583-.5h1.273a7.994,7.994,0,0,1,.791-1.9l-.9-.9a.59.59,0,0,1-.067-.764,9.818,9.818,0,0,1,2.265-2.265.6.6,0,0,1,.764.067l.918.912a7.881,7.881,0,0,1,1.9-.791V33.078a.59.59,0,0,1,.5-.59,10.274,10.274,0,0,1,3.2,0,.59.59,0,0,1,.489.59v1.267a7.882,7.882,0,0,1,1.9.791l.9-.9a.6.6,0,0,1,.764-.067,9.819,9.819,0,0,1,2.265,2.265.59.59,0,0,1-.067.764l-.9.9a8,8,0,0,1,.791,1.9h1.273a.59.59,0,0,1,.583.5,9.692,9.692,0,0,1,.127,1.6,9.993,9.993,0,0,1-.127,1.6.59.59,0,0,1-.59.5h-1.287a8,8,0,0,1-.791,1.9l.9.891a.59.59,0,0,1,.067.764,9.717,9.717,0,0,1-2.265,2.272.59.59,0,0,1-.764-.067l-.9-.9a7.929,7.929,0,0,1-1.9.791V51.12a.59.59,0,0,1-.489.59A9.745,9.745,0,0,1,263.145,51.838Zm-1.448-.764a9.081,9.081,0,0,0,2.889,0V49.344l.248-.06a7.42,7.42,0,0,0,2.192-.9l.214-.134,1.227,1.227a9.128,9.128,0,0,0,2.044-2.051l-1.227-1.227.134-.214a7.374,7.374,0,0,0,.911-2.185l.054-.248h1.729a8.84,8.84,0,0,0,.114-1.448,9.323,9.323,0,0,0-.107-1.448h-1.736l-.054-.248a7.44,7.44,0,0,0-.911-2.185L269.284,38l1.227-1.186a8.967,8.967,0,0,0-2.044-2.044l-1.227,1.22-.214-.134a7.373,7.373,0,0,0-2.185-.9l-.255-.054V33.125a9.081,9.081,0,0,0-2.889,0v1.736l-.255.054a7.373,7.373,0,0,0-2.185.9l-.214.134-1.22-1.22a8.968,8.968,0,0,0-2.051,2.078L257,38.031l-.134.221a7.438,7.438,0,0,0-.911,2.185l-.054.248h-1.736a9.256,9.256,0,0,0,0,2.9H255.9l.054.248a7.373,7.373,0,0,0,.911,2.185l.134.214-1.227,1.227a9.128,9.128,0,0,0,2.051,2.017l1.227-1.227.214.134a7.419,7.419,0,0,0,2.192.9l.248.06ZM264.64,33.132ZM261.644,33.132Zm1.5,13.733a4.692,4.692,0,0,1-3.351-1.387,4.819,4.819,0,0,1-1.066-5.121,4.544,4.544,0,0,1,2.641-2.641,4.772,4.772,0,0,1,6.186,6.186,4.524,4.524,0,0,1-2.641,2.641h0a5.12,5.12,0,0,1-1.769.322Zm0-8.813a4.39,4.39,0,0,0-1.535.275,3.854,3.854,0,0,0-2.259,2.259,4.115,4.115,0,0,0,5.362,5.362,3.84,3.84,0,0,0,2.259-2.252,4.169,4.169,0,0,0-.911-4.437,4.062,4.062,0,0,0-2.929-1.24Z" transform="translate(-253.4 -32.363)" fill="#e0e0e0"/></g><g transform="translate(178.803 73.093)"><path d="M317.248,152.586a.268.268,0,0,0,.261-.221,9.188,9.188,0,0,0,.127-1.555,9.843,9.843,0,0,0-.121-1.548.281.281,0,0,0-.268-.221h-1.521a7.842,7.842,0,0,0-.945-2.279l1.079-1.072a.268.268,0,0,0,0-.349,9.29,9.29,0,0,0-2.178-2.192.255.255,0,0,0-.342,0l-1.072,1.072a7.613,7.613,0,0,0-2.285-.938v-1.475a.268.268,0,0,0-.221-.261,9.477,9.477,0,0,0-3.1,0,.268.268,0,0,0-.221.261v1.528a7.613,7.613,0,0,0-2.285.938l-1.072-1.072a.255.255,0,0,0-.342,0,9.29,9.29,0,0,0-2.192,2.185.268.268,0,0,0,0,.349l1.079,1.072a7.843,7.843,0,0,0-.945,2.279h-1.481a.281.281,0,0,0-.268.221,9.516,9.516,0,0,0,0,3.1.282.282,0,0,0,.268.221h1.521a7.767,7.767,0,0,0,.945,2.279l-1.079,1.079a.255.255,0,0,0,0,.342,9.45,9.45,0,0,0,2.192,2.192.268.268,0,0,0,.342-.034l1.072-1.072a7.8,7.8,0,0,0,2.285.945v1.521a.281.281,0,0,0,.221.268,9.993,9.993,0,0,0,3.1,0,.282.282,0,0,0,.221-.268v-1.521a7.8,7.8,0,0,0,2.285-.945l1.072,1.072a.268.268,0,0,0,.342.034,9.45,9.45,0,0,0,2.192-2.192.275.275,0,0,0-.034-.349l-1.072-1.072a7.769,7.769,0,0,0,.945-2.279Zm-7.372,2.332a4.444,4.444,0,0,1-5.771-5.764,4.142,4.142,0,0,1,2.446-2.446,4.444,4.444,0,0,1,5.771,5.764,4.162,4.162,0,0,1-2.433,2.446Z" transform="translate(-298.81 -141.42)" fill="#e0e0e0"/><path d="M339.254,159.153a.161.161,0,0,0,.08-.188,6.943,6.943,0,0,0-1.039-2.111.154.154,0,0,0-.194-.047l-1.039.509a5.81,5.81,0,0,0-1.34-1.2l.375-1.092a.174.174,0,0,0-.074-.194,6.937,6.937,0,0,0-2.225-.751.161.161,0,0,0-.174.107l-.375,1.086a5.7,5.7,0,0,0-1.81.121l-.516-1.039a.154.154,0,0,0-.181-.08,6.7,6.7,0,0,0-1.1.429,7.649,7.649,0,0,0-1.012.61.154.154,0,0,0-.047.194l.509,1.039a5.664,5.664,0,0,0-1.2,1.34l-1.092-.369a.147.147,0,0,0-.188.067,6.958,6.958,0,0,0-.764,2.225.161.161,0,0,0,.107.174l1.092.375a5.744,5.744,0,0,0,.121,1.816l-1.039.509a.154.154,0,0,0-.08.181,6.945,6.945,0,0,0,1.039,2.111.161.161,0,0,0,.2.047l1.032-.509a5.663,5.663,0,0,0,1.34,1.2l-.375,1.1a.161.161,0,0,0,.074.188,7.111,7.111,0,0,0,2.225.757.161.161,0,0,0,.174-.107l.375-1.092a5.57,5.57,0,0,0,1.816-.121l.509,1.039a.154.154,0,0,0,.188.08,6.838,6.838,0,0,0,1.092-.429,7.2,7.2,0,0,0,1.012-.6.168.168,0,0,0,.047-.2l-.509-1.039a5.664,5.664,0,0,0,1.2-1.34l1.092.375a.161.161,0,0,0,.194-.074,6.876,6.876,0,0,0,.751-2.225.161.161,0,0,0-.107-.174l-1.093-.369a5.535,5.535,0,0,0-.114-1.816Zm-4.316,4.129a3.271,3.271,0,0,1-5.5-2.011,3.13,3.13,0,0,1,.985-2.681,3.271,3.271,0,0,1,5.5,2.011,3.15,3.15,0,0,1-.985,2.681Z" transform="translate(-307.726 -145.594)" fill="#e0e0e0"/></g><path d="M171.034,149.13a6.414,6.414,0,0,0-6.414,6.421c0,5.831,6.414,11.669,6.414,11.669s6.421-5.838,6.421-11.669a6.414,6.414,0,0,0-6.421-6.421Zm0,9.611a3.19,3.19,0,1,1,2.26-.932A3.2,3.2,0,0,1,171.034,158.741Z" transform="translate(-75.755 -70.869)" fill="#e0e0e0"/><g transform="translate(59.295 16.119)"><path d="M138.085,56.806l2.245,4.625,5.087.737a.71.71,0,0,1,.4,1.213l-3.68,3.592L143,72.041a.717.717,0,0,1-1.039.751L137.415,70.4l-4.551,2.393a.71.71,0,0,1-1.032-.751l.871-5.067-3.68-3.592a.71.71,0,0,1,.389-1.213l5.094-.737,2.3-4.625a.717.717,0,0,1,1.28,0Z" transform="translate(-123.239 -56.413)" fill="#e0e0e0"/><path d="M125.942,80.3l1.34,2.681,2.983.436a.416.416,0,0,1,.235.71l-2.158,2.1.509,2.969a.422.422,0,0,1-.61.442l-2.681-1.407-2.681,1.407a.416.416,0,0,1-.6-.442l.509-2.969-2.158-2.1a.416.416,0,0,1,.228-.71l2.982-.436,1.34-2.681a.422.422,0,0,1,.764,0Z" transform="translate(-120.5 -64.21)" fill="#e0e0e0"/></g><g transform="translate(226.57 10.615)"><path d="M376.192,75.237a.322.322,0,0,1-.322-.322V48.535a.335.335,0,1,1,.67,0v26.38a.322.322,0,0,1-.348.322Z" transform="translate(-371.989 -48.2)" fill="#e0e0e0"/><path d="M416.614,88.22H370.4a.315.315,0,0,1-.322-.322.322.322,0,0,1,.322-.328h46.212a.322.322,0,0,1,.322.328.315.315,0,0,1-.322.322Z" transform="translate(-370.08 -61.183)" fill="#e0e0e0"/><rect width="5.67" height="18.518" transform="translate(6.508 5.382)" fill="#f5f5f5"/><rect width="5.67" height="5.67" transform="translate(14.564 18.23)" fill="#ebebeb"/><rect width="5.67" height="22.922" transform="translate(22.627 0.979)" fill="#f5f5f5"/><rect width="5.67" height="13.766" transform="translate(30.683 10.141)" fill="#e0e0e0"/><rect width="5.67" height="8.431" transform="translate(38.746 15.476)" fill="#f5f5f5"/></g><g transform="translate(267.997 52.102)"><rect width="4.665" height="17.513" transform="translate(0.02 6.354)" fill="#e0e0e0"/><rect width="4.665" height="1.689" transform="translate(0.02 4.665)" fill="#f0f0f0"/><path d="M433.13,110.1h2.232a1.22,1.22,0,0,1,1.22,1.22v3.452H431.89V111.32a1.22,1.22,0,0,1,1.24-1.22Z" transform="translate(-431.89 -110.1)" fill="#e0e0e0"/><path d="M436.582,145.71H431.89l2.011,5.121a.369.369,0,0,0,.67,0Z" transform="translate(-431.89 -121.843)" fill="#f5f5f5"/><path d="M434.2,151.58l.462,1.186a.369.369,0,0,0,.67,0l.462-1.186Z" transform="translate(-432.652 -123.779)" fill="#e0e0e0"/></g><g transform="translate(0 71.706)"><path d="M62.894,162.73,41.467,149.01l-9.437,3.029Z" transform="translate(-32.03 -142.536)" fill="#f0f0f0"/><path d="M68.968,159.544,50.45,144.1l4.115-4.752Z" transform="translate(-38.104 -139.35)" fill="#f0f0f0"/><path d="M50.45,146.44v3.586l18.518,11.856Z" transform="translate(-38.104 -141.688)" fill="#e0e0e0"/></g><path d="M71.2,55.1l-.2-.2h0a15.415,15.415,0,0,0-21.447-.322l-.241.235-.121.121a15.415,15.415,0,1,0,22.037.2Zm-6.226.67a16.342,16.342,0,0,1,.912,2.232,14.075,14.075,0,0,1-3.1.918l-.295.047a13.646,13.646,0,0,1-1.89.147V52.042h.127a7.775,7.775,0,0,1,1.025.094,7.882,7.882,0,0,1,3.251,3.639Zm-1.113-3.21a13.7,13.7,0,0,1,5.65,3.21A14.457,14.457,0,0,1,67.331,57.3l-.268.147-.4.194a18.051,18.051,0,0,0-.992-2.42,11.394,11.394,0,0,0-1.816-2.661ZM59.537,65.3H53.109a25.469,25.469,0,0,1,.945-6.582,15.027,15.027,0,0,0,3.163,1.066l.315.06a14.216,14.216,0,0,0,2.011.228Zm0,1.066v5.214a16.513,16.513,0,0,0-2.011.228l-.315.067a14.631,14.631,0,0,0-3.157,1.046,25.308,25.308,0,0,1-.945-6.528Zm1.066,0H67.05a25.791,25.791,0,0,1-.871,6.287,15.06,15.06,0,0,0-3.237-.938l-.322-.054a16.709,16.709,0,0,0-2.011-.154Zm0-1.066V60.118a15.449,15.449,0,0,0,2.011-.154l.315-.054a15.006,15.006,0,0,0,3.244-.938,25.59,25.59,0,0,1,.871,6.34Zm-1.173-13.27h.107v7.057a13.974,13.974,0,0,1-1.843-.241h-.3A14.028,14.028,0,0,1,54.356,57.8a17.426,17.426,0,0,1,.831-2.011A7.882,7.882,0,0,1,58.4,52.142a8.849,8.849,0,0,1,1.025-.1Zm-4.946,3.2a17.641,17.641,0,0,0-.871,2.138c-.121-.06-.241-.121-.362-.194l-.308-.154a14.228,14.228,0,0,1-2.011-1.521,13.706,13.706,0,0,1,5.362-2.936,11.394,11.394,0,0,0-1.81,2.668Zm-2.011,2.681.275.168.523.281a26.863,26.863,0,0,0-1,6.957H46.306a13.713,13.713,0,0,1,3.954-9.149,14.939,14.939,0,0,0,2.218,1.729Zm-.2,8.472a26.139,26.139,0,0,0,1.005,6.917c-.174.094-.349.181-.523.281l-.275.168a15.134,15.134,0,0,0-2.265,1.716,13.726,13.726,0,0,1-3.9-9.082Zm.67,8.25.261-.161c.121-.074.241-.127.362-.194a17.2,17.2,0,0,0,.9,2.138,11.139,11.139,0,0,0,1.816,2.681,13.6,13.6,0,0,1-5.362-2.922,13.954,13.954,0,0,1,2.024-1.542Zm2.225,1.233a17.426,17.426,0,0,1-.831-2.011,14.007,14.007,0,0,1,3.036-1.039l.3-.067a15.207,15.207,0,0,1,1.843-.214v7.091h-.107a9.073,9.073,0,0,1-1.025-.087,7.868,7.868,0,0,1-3.2-3.673Zm5.563,3.76H60.6v-7.1a14.673,14.673,0,0,1,1.89.147l.3.047a14.135,14.135,0,0,1,3.09.918,15.671,15.671,0,0,1-.878,2.232,7.868,7.868,0,0,1-3.217,3.646C61.413,79.548,61.071,79.581,60.73,79.622Zm4.946-3.21A18.323,18.323,0,0,0,66.668,74c.134.067.268.121.4.194l.268.147a14.143,14.143,0,0,1,2.192,1.535,13.713,13.713,0,0,1-5.663,3.2A11.139,11.139,0,0,0,65.676,76.411Zm2.111-2.969-.281-.154c-.181-.1-.362-.174-.543-.268a26.354,26.354,0,0,0,.925-6.642h5.958a13.733,13.733,0,0,1-3.619,8.78A14.959,14.959,0,0,0,67.787,73.442Zm.107-8.13a26.809,26.809,0,0,0-.932-6.7c.181-.087.369-.168.543-.261l.281-.154a15.67,15.67,0,0,0,2.426-1.709,13.706,13.706,0,0,1,3.639,8.827Z" transform="translate(-36.206 -38.311)" fill="#e0e0e0"/><g transform="translate(242.16 183.098)"><path d="M402.214,309.551a12.644,12.644,0,0,1,0,2.138,5.255,5.255,0,0,1-.322,1.562,3.519,3.519,0,0,1-.818,1.273,3.928,3.928,0,0,1-1.34.858,6.092,6.092,0,0,1-3.827,0,3.606,3.606,0,0,1-2.172-2.131,5.261,5.261,0,0,1-.342-1.562c-.034-.375-.054-.724-.054-1.052a7.976,7.976,0,0,1,.054-1.086,5.36,5.36,0,0,1,.342-1.568,3.739,3.739,0,0,1,.818-1.267,3.692,3.692,0,0,1,1.34-.858,6.092,6.092,0,0,1,3.827,0,3.752,3.752,0,0,1,1.34.858,3.847,3.847,0,0,1,.818,1.267A5.147,5.147,0,0,1,402.214,309.551Zm7.044-3.351a1.728,1.728,0,0,1,.409-.4,1.092,1.092,0,0,1,.61-.141h2.306a.771.771,0,0,1,.5.154.509.509,0,0,1,.181.409.456.456,0,0,1,0,.141.67.67,0,0,1-.087.168l-13.914,18.311a1.731,1.731,0,0,1-.409.4,1.093,1.093,0,0,1-.61.141h-2.306a.724.724,0,0,1-.5-.154.509.509,0,0,1-.181-.409.422.422,0,0,1,0-.141.67.67,0,0,1,.087-.168Zm-12.62,5.322a2.379,2.379,0,0,0,.295,1.1.945.945,0,0,0,.858.369.932.932,0,0,0,.858-.369,2.373,2.373,0,0,0,.3-1.1,10.728,10.728,0,0,0,0-1.857,2.373,2.373,0,0,0-.3-1.1.932.932,0,0,0-.858-.369.945.945,0,0,0-.858.369,2.38,2.38,0,0,0-.295,1.1,10.723,10.723,0,0,0,0,1.883Zm18.652,7.862a14.224,14.224,0,0,1,0,2.138,5.576,5.576,0,0,1-.328,1.568,3.532,3.532,0,0,1-.811,1.267,3.928,3.928,0,0,1-1.34.858,6.113,6.113,0,0,1-3.834,0,3.753,3.753,0,0,1-1.34-.858,3.847,3.847,0,0,1-.818-1.267,5.146,5.146,0,0,1-.335-1.568,9.88,9.88,0,0,1-.06-1.052,10.807,10.807,0,0,1,.06-1.086,5.061,5.061,0,0,1,.335-1.562,3.806,3.806,0,0,1,.818-1.273,3.752,3.752,0,0,1,1.34-.858,6.112,6.112,0,0,1,3.834,0,3.72,3.72,0,0,1,1.34.858,3.807,3.807,0,0,1,.818,1.273,5.261,5.261,0,0,1,.322,1.588Zm-5.583,2.011a2.372,2.372,0,0,0,.3,1.1.932.932,0,0,0,.858.369.945.945,0,0,0,.858-.369,2.38,2.38,0,0,0,.295-1.1,9.544,9.544,0,0,0,0-1.857,2.379,2.379,0,0,0-.295-1.1.958.958,0,0,0-.858-.369.945.945,0,0,0-.858.369,2.372,2.372,0,0,0-.3,1.1,10.724,10.724,0,0,0,0,1.87Z" transform="translate(-393.34 -305.55)" fill="#e0e0e0"/></g><g transform="translate(8.82 157.669)"><path d="M74.606,269.688a6.81,6.81,0,0,1,1.662.67,5.918,5.918,0,0,1,1.273.938,4.45,4.45,0,0,1,.838,1.092,2.547,2.547,0,0,1,.328,1.1.436.436,0,0,1-.134.315.416.416,0,0,1-.295.134H75.6a1.092,1.092,0,0,1-.456-.08,1.561,1.561,0,0,1-.355-.248l-.194-.2a1.875,1.875,0,0,0-.375-.295,2.4,2.4,0,0,0-.617-.268,3.1,3.1,0,0,0-.891-.114,5.25,5.25,0,0,0-.744.054,2.758,2.758,0,0,0-.67.161,1.207,1.207,0,0,0-.436.288.777.777,0,0,0-.168.509.711.711,0,0,0,.194.516,1.723,1.723,0,0,0,.67.375,8.715,8.715,0,0,0,1.213.335l1.877.389a10.1,10.1,0,0,1,1.95.57,4.518,4.518,0,0,1,1.4.865,3.351,3.351,0,0,1,.831,1.227,4.437,4.437,0,0,1,.275,1.655,3.807,3.807,0,0,1-.322,1.575,4.021,4.021,0,0,1-.918,1.26,5.127,5.127,0,0,1-1.428.918,7.615,7.615,0,0,1-1.836.53V285.4a.55.55,0,0,1-.161.389.523.523,0,0,1-.389.161H71.369a.536.536,0,0,1-.389-.161.55.55,0,0,1-.161-.389V283.9a6.943,6.943,0,0,1-1.763-.67,6.241,6.241,0,0,1-1.34-.945,3.974,3.974,0,0,1-.878-1.126,2.982,2.982,0,0,1-.328-1.253.436.436,0,0,1,.134-.315.416.416,0,0,1,.295-.134H69.62a1.131,1.131,0,0,1,.449.074,1.173,1.173,0,0,1,.328.208l.248.268a2.594,2.594,0,0,0,1.126.71,3.082,3.082,0,0,0,1.032.147,6.033,6.033,0,0,0,1.8-.235q.724-.241.724-.844a.6.6,0,0,0-.268-.509,2.68,2.68,0,0,0-.791-.382,12.058,12.058,0,0,0-1.34-.335c-.556-.107-1.2-.241-1.95-.409a5.7,5.7,0,0,1-3.07-1.495,4.021,4.021,0,0,1-.965-2.8,3.619,3.619,0,0,1,.268-1.381,4.021,4.021,0,0,1,.764-1.213,4.752,4.752,0,0,1,1.22-.952,6.547,6.547,0,0,1,1.642-.637v-1.508a.55.55,0,0,1,.161-.389.536.536,0,0,1,.389-.161H74.07a.523.523,0,0,1,.389.161.55.55,0,0,1,.161.389Z" transform="translate(-52.221 -267.61)" fill="#e0e0e0"/><path d="M53.253,280.974a6.641,6.641,0,0,1,1.662.637,6.333,6.333,0,0,1,1.273.938,4.8,4.8,0,0,1,.838,1.092,2.56,2.56,0,0,1,.322,1.1.436.436,0,0,1-.134.315.389.389,0,0,1-.295.134H54.238a1.092,1.092,0,0,1-.456-.08,1.4,1.4,0,0,1-.362-.248l-.194-.2a1.7,1.7,0,0,0-.375-.295,2.907,2.907,0,0,0-.61-.268,3.169,3.169,0,0,0-.9-.107,5.4,5.4,0,0,0-.744.047,2.4,2.4,0,0,0-.63.168,1.113,1.113,0,0,0-.449.315.757.757,0,0,0-.174.509.717.717,0,0,0,.194.509,1.783,1.783,0,0,0,.67.375,8.976,8.976,0,0,0,1.213.335c.5.107,1.126.241,1.877.389a10.672,10.672,0,0,1,1.957.57,4.832,4.832,0,0,1,1.394.865,3.257,3.257,0,0,1,.838,1.226,4.591,4.591,0,0,1,.275,1.662,3.673,3.673,0,0,1-.328,1.568,3.84,3.84,0,0,1-.918,1.26,4.852,4.852,0,0,1-1.4.885,7.492,7.492,0,0,1-1.836.53v1.448a.536.536,0,0,1-.174.409.55.55,0,0,1-.389.161H50.036a.563.563,0,0,1-.55-.55v-1.508a6.943,6.943,0,0,1-1.763-.67,5.823,5.823,0,0,1-1.34-.945,4.122,4.122,0,0,1-.871-1.153,3.076,3.076,0,0,1-.322-1.253.449.449,0,0,1,.429-.449H48.3a1.16,1.16,0,0,1,.449.074,1.441,1.441,0,0,1,.328.214l.241.261a2.56,2.56,0,0,0,.436.382,2.812,2.812,0,0,0,.67.335,3.209,3.209,0,0,0,1.025.141,5.971,5.971,0,0,0,1.8-.235.871.871,0,0,0,.731-.838.617.617,0,0,0-.261-.509,2.775,2.775,0,0,0-.8-.375,11.545,11.545,0,0,0-1.34-.342c-.55-.107-1.2-.241-1.944-.4a5.67,5.67,0,0,1-3.07-1.5,3.974,3.974,0,0,1-.965-2.8,3.706,3.706,0,0,1,.261-1.34,3.86,3.86,0,0,1,.764-1.213,4.779,4.779,0,0,1,1.227-.958,6.154,6.154,0,0,1,1.635-.63v-1.508a.509.509,0,0,1,.168-.389.53.53,0,0,1,.382-.168h2.681a.556.556,0,0,1,.389.168.523.523,0,0,1,.161.389Z" transform="translate(-45.19 -271.33)" fill="#e0e0e0"/></g><path d="M349.569,49.182h-.543V47.406a3.224,3.224,0,0,0-6.307-.958,2.862,2.862,0,0,0-1.588-.476h0a2.875,2.875,0,0,0-2.875,2.882v.315h-.536a1.769,1.769,0,1,0,0,3.539h11.85a1.769,1.769,0,1,0,0-3.539Z" transform="translate(-132.255 -36.255)" fill="#e0e0e0"/></g><g transform="translate(47.699 258.542)"><g transform="translate(0)"><path d="M113.9,422.32,63.47,393.206,95.695,374.6l50.435,29.121Z" transform="translate(-63.463 -371.403)" fill="#1565c0"/><path d="M113.9,422.32,63.47,393.206,95.695,374.6l50.435,29.121Z" transform="translate(-63.463 -371.403)" opacity="0.15"/><path d="M90.053,414.557v-.9c0-1.113-2.011-4.283-4.457-5.71L65.57,396.38V400.4Z" transform="translate(-64.156 -378.585)" fill="#f5f5f5"/><path d="M65.57,387.628,85.6,399.2c2.48,1.428,4.464,4.6,4.457,5.71v.9l30.83-17.795h0v-.9c0-1.113-2.011-4.283-4.457-5.71L96.407,369.84h0Z" transform="translate(-64.156 -369.833)" fill="#fafafa"/><path d="M65.57,387.625,85.6,399.193c2.48,1.428,4.464,4.6,4.457,5.71v.9l30.83-17.795h0v-.9c0-1.113-2.011-4.283-4.457-5.71L96.4,369.83Z" transform="translate(-64.156 -369.83)" fill="#fafafa"/><path d="M102.11,420.947l1.937-1.106,2.527-1.468a5.047,5.047,0,0,0-3.11.449A2.607,2.607,0,0,0,102.11,420.947Z" transform="translate(-76.206 -385.813)" fill="#f0f0f0"/><path d="M102.11,420.947l1.937-1.106,2.527-1.468a5.047,5.047,0,0,0-3.11.449A2.607,2.607,0,0,0,102.11,420.947Z" transform="translate(-76.206 -385.813)" fill="#e0e0e0"/><path d="M138.71,437.493l.007-.845,32.225-18.6v.831Z" transform="translate(-88.275 -385.732)" fill="#1565c0"/><path d="M138.71,437.493l.007-.845,32.225-18.6v.831Z" transform="translate(-88.275 -385.732)" opacity="0.3"/><path d="M113.895,432.319,63.46,403.2l.007-.838L113.9,431.475Z" transform="translate(-63.46 -380.558)" fill="#1565c0"/><path d="M102.106,421.6c0-1.106,2.011-2.011,4.517-.61l20.026,11.474v4.149L102.1,422.436S102.092,422.711,102.106,421.6Z" transform="translate(-76.202 -386.465)" fill="#f5f5f5"/><path d="M138.73,433.853V429.7l30.824-17.794v4.149Z" transform="translate(-88.282 -383.707)" fill="#ebebeb"/><path d="M106.888,412.173l.9.509,19.135,10.965,27.225-15.724,3.6-2.071-20.033-11.474c-1.816-1.046-2.835-.958-3.545-.556h0L102.92,411.858C104.046,411.222,105.366,411.356,106.888,412.173Z" transform="translate(-76.473 -377.65)" fill="#fafafa"/><path d="M131.662,428.7,114.6,418.856l-.9-.516-.657.382.9.509,17.057,9.846Z" transform="translate(-79.813 -385.827)" fill="#e0e0e0"/><path d="M134.012,427.338,116.955,417.5l-.9-.509-.657.375.9.516,17.057,9.839Z" transform="translate(-80.588 -385.382)" fill="#e0e0e0"/><path d="M136.362,425.985,119.3,416.139l-.9-.509-.657.375.9.516,17.057,9.839Z" transform="translate(-81.363 -384.934)" fill="#e0e0e0"/><path d="M138.712,424.625l-17.057-9.839-.9-.516-.657.382.9.509,17.057,9.846Z" transform="translate(-82.138 -384.485)" fill="#e0e0e0"/><path d="M141.062,423.265,124,413.426l-.9-.516-.657.382.9.516,17.057,9.839Z" transform="translate(-82.913 -384.037)" fill="#e0e0e0"/><path d="M143.412,421.915l-17.057-9.846-.9-.509-.657.375.9.516,17.057,9.839Z" transform="translate(-83.688 -383.591)" fill="#e0e0e0"/><path d="M145.762,420.555,128.7,410.716l-.9-.516-.657.382.9.509,17.057,9.846Z" transform="translate(-84.463 -383.143)" fill="#e0e0e0"/><path d="M148.112,419.2l-17.057-9.839-.9-.516-.657.382.9.516,17.057,9.839Z" transform="translate(-85.238 -382.694)" fill="#e0e0e0"/><path d="M150.462,417.845,133.4,408l-.9-.509-.657.375.9.516,17.057,9.839Z" transform="translate(-86.013 -382.249)" fill="#e0e0e0"/><path d="M152.812,416.485l-17.057-9.839-.9-.516-.657.375.9.516,17.057,9.839Z" transform="translate(-86.788 -381.801)" fill="#e0e0e0"/><path d="M155.162,415.125,138.1,405.286l-.9-.516-.657.382.9.509,17.057,9.846Z" transform="translate(-87.563 -381.352)" fill="#e0e0e0"/><path d="M157.512,413.775l-17.057-9.846-.9-.509-.657.375.9.516,17.057,9.839Z" transform="translate(-88.338 -380.907)" fill="#e0e0e0"/><path d="M159.862,412.415,142.8,402.569l-.9-.509-.657.382.9.509,17.057,9.839Z" transform="translate(-89.113 -380.459)" fill="#e0e0e0"/><path d="M162.212,411.055l-17.057-9.839-.9-.516-.657.382.9.509,17.057,9.846Z" transform="translate(-89.888 -380.01)" fill="#e0e0e0"/><path d="M164.562,409.705,147.5,399.859l-.9-.509-.657.375.9.516,17.057,9.839Z" transform="translate(-90.663 -379.565)" fill="#e0e0e0"/><path d="M166.912,408.345,149.855,398.5l-.9-.509-.657.375.9.516,17.057,9.839Z" transform="translate(-91.438 -379.116)" fill="#e0e0e0"/><path d="M169.262,406.985,152.2,397.146l-.9-.516-.657.382.9.509,17.057,9.846Z" transform="translate(-92.213 -378.668)" fill="#e0e0e0"/><path d="M106.7,411.13c.369.04,1.153.288,1.588.389a45.811,45.811,0,0,1,8.11,3.418c4.108,2.058,7.982,4.256,7.982,4.256l28.19-16.266L137.7,394.414a6.427,6.427,0,0,0-1.836-.764,4.061,4.061,0,0,0-1.287.442l-.194-.349a2.413,2.413,0,0,0-.228.114L102.91,411.894a5.067,5.067,0,0,1,3.787-.764Z" transform="translate(-76.47 -377.685)" opacity="0.1"/><path d="M137.256,439.045,134.2,437.49l3.036,1.857,3.05-1.763Z" transform="translate(-86.788 -392.142)" fill="#e6e6e6"/><path d="M135.963,441.119l-5.6-3.237,5.6,3.016,6.307-3.418Z" transform="translate(-85.522 -392.139)" fill="#e6e6e6"/><path d="M182.4,413.27l-4.718,2.848,4.718-2.406Z" transform="translate(-101.127 -384.155)" fill="#e6e6e6"/><path d="M181.264,415.69l-7,4.283,7.011-3.894Z" transform="translate(-99.999 -384.953)" fill="#e6e6e6"/><path d="M107.21,409.676a10.369,10.369,0,0,1,1.206.208,45.811,45.811,0,0,1,8.11,3.418c4.108,2.058,7.982,4.256,7.982,4.256l30.83-17.788s-11.729-6.756-16.333-7.641a6.21,6.21,0,0,0-4.3.328h0L104.1,410.125A5.046,5.046,0,0,1,107.21,409.676Z" transform="translate(-76.862 -377.117)" fill="#f5f5f5"/><path d="M108.977,415.81a4.96,4.96,0,0,1,3.117-.449,11.476,11.476,0,0,1,1.2.2,29.707,29.707,0,0,1,5.033,1.937c1.005.462,2.011.965,3.076,1.481,2.473,1.24,4.859,2.527,6.374,3.351l-.7.409c-1.508-.831-3.894-2.118-6.367-3.351-1.032-.516-2.078-1.025-3.076-1.488a29.254,29.254,0,0,0-5.04-1.93,10.044,10.044,0,0,0-1.2-.208,5.047,5.047,0,0,0-3.11.449Z" transform="translate(-78.24 -384.818)" fill="#e0e0e0"/><path d="M111.334,414.45a4.947,4.947,0,0,1,3.11-.449,11.492,11.492,0,0,1,1.2.2,29.7,29.7,0,0,1,5.033,1.937c1.005.463,2.051.965,3.076,1.481,2.48,1.24,4.866,2.527,6.374,3.351l-.7.409c-1.508-.831-3.894-2.118-6.367-3.351-1.032-.516-2.071-1.025-3.076-1.488a29.012,29.012,0,0,0-5.033-1.93,9.906,9.906,0,0,0-1.206-.208,5.047,5.047,0,0,0-3.11.449Z" transform="translate(-79.015 -384.37)" fill="#e0e0e0"/><path d="M113.67,413.091a4.993,4.993,0,0,1,3.11-.449,10.142,10.142,0,0,1,1.206.208,29.219,29.219,0,0,1,5.033,1.93c1.005.462,2.011.972,3.076,1.481,2.473,1.24,4.859,2.533,6.367,3.351l-.67.409c-1.508-.831-3.894-2.118-6.374-3.351-1.025-.516-2.071-1.025-3.076-1.488a29.576,29.576,0,0,0-5.033-1.93,10.056,10.056,0,0,0-1.2-.208,5.074,5.074,0,0,0-3.11.483Z" transform="translate(-79.797 -383.923)" fill="#e0e0e0"/><path d="M116.037,411.741a5.027,5.027,0,0,1,3.117-.449,10.057,10.057,0,0,1,1.2.208,29.007,29.007,0,0,1,5.033,1.93c1.005.462,2.051.972,3.076,1.488,2.473,1.233,4.866,2.527,6.374,3.351l-.7.409c-1.508-.831-3.894-2.118-6.367-3.351-1.032-.516-2.078-1.025-3.076-1.488a30.015,30.015,0,0,0-5.033-1.93,10.154,10.154,0,0,0-1.206-.208,5.047,5.047,0,0,0-3.11.449Z" transform="translate(-80.569 -383.478)" fill="#e0e0e0"/><path d="M118.407,410.372a5.047,5.047,0,0,1,3.11-.449,10.37,10.37,0,0,1,1.206.208,29.429,29.429,0,0,1,5.033,1.93c1,.462,2.044.972,3.076,1.488,2.473,1.24,4.859,2.527,6.367,3.351l-.67.4c-1.508-.831-3.9-2.118-6.374-3.351-1.025-.516-2.071-1.025-3.076-1.488a29.578,29.578,0,0,0-5.033-1.93,10.049,10.049,0,0,0-1.2-.208,5.013,5.013,0,0,0-3.117.456Z" transform="translate(-81.357 -383.027)" fill="#e0e0e0"/><path d="M120.764,409.012a5.067,5.067,0,0,1,3.117-.449,10.05,10.05,0,0,1,1.2.208,29.012,29.012,0,0,1,5.033,1.93c1.005.462,2.044.972,3.076,1.488,2.473,1.24,4.859,2.527,6.374,3.351l-.67.4c-1.508-.831-3.894-2.118-6.367-3.351-1.032-.516-2.078-1.019-3.076-1.481a29.376,29.376,0,0,0-5.04-1.937,11.6,11.6,0,0,0-1.2-.208,4.993,4.993,0,0,0-3.11.456Z" transform="translate(-82.138 -382.578)" fill="#e0e0e0"/><path d="M123.117,407.652a5.047,5.047,0,0,1,3.11-.449,10.063,10.063,0,0,1,1.2.208,29.82,29.82,0,0,1,5.04,1.93c1,.462,2.011.972,3.07,1.488,2.48,1.24,4.866,2.527,6.374,3.351l-.67.4c-1.515-.831-3.9-2.118-6.374-3.351-1.032-.516-2.071-1.019-3.076-1.481a29.7,29.7,0,0,0-5.033-1.937c-.429-.094-.831-.161-1.2-.208a5,5,0,0,0-3.117.456Z" transform="translate(-82.91 -382.13)" fill="#e0e0e0"/><path d="M125.47,406.292a5.047,5.047,0,0,1,3.11-.449,9.924,9.924,0,0,1,1.206.208,29.578,29.578,0,0,1,5.033,1.93c1.005.462,2.044.972,3.076,1.488,2.473,1.24,4.859,2.527,6.367,3.351l-.67.4c-1.508-.831-3.894-2.118-6.374-3.351-1.025-.516-2.071-1.019-3.07-1.481a29.95,29.95,0,0,0-5.04-1.937,11.492,11.492,0,0,0-1.2-.2,4.947,4.947,0,0,0-3.11.449Z" transform="translate(-83.688 -381.681)" fill="#e0e0e0"/><path d="M130.217,404.892a11.586,11.586,0,0,1,1.206.2,45.6,45.6,0,0,1,8.11,3.418c2.473,1.24,4.859,2.527,6.367,3.351l.67-.4c-1.508-.831-3.894-2.118-6.374-3.351a45.607,45.607,0,0,0-8.11-3.418,10.056,10.056,0,0,0-1.2-.208,5.02,5.02,0,0,0-3.117.456l-.67.4A4.946,4.946,0,0,1,130.217,404.892Z" transform="translate(-84.447 -381.233)" fill="#e0e0e0"/><path d="M132.58,403.531a11.492,11.492,0,0,1,1.2.2,46.118,46.118,0,0,1,8.11,3.418c2.473,1.24,4.866,2.527,6.374,3.351l.67-.4c-1.508-.831-3.894-2.118-6.367-3.351a45.81,45.81,0,0,0-8.11-3.418,11.715,11.715,0,0,0-1.206-.208,4.994,4.994,0,0,0-3.11.456l-.67.4a4.98,4.98,0,0,1,3.11-.449Z" transform="translate(-85.228 -380.784)" fill="#e0e0e0"/><path d="M134.927,402.171a10.376,10.376,0,0,1,1.206.208,45.686,45.686,0,0,1,8.11,3.411c2.473,1.24,4.859,2.534,6.367,3.351l.67-.4c-1.508-.831-3.9-2.118-6.374-3.351a45.6,45.6,0,0,0-8.11-3.418c-.429-.094-.831-.161-1.2-.208a5.013,5.013,0,0,0-3.117.456l-.67.4a4.993,4.993,0,0,1,3.117-.449Z" transform="translate(-86 -380.335)" fill="#e0e0e0"/><path d="M137.273,400.816a10.057,10.057,0,0,1,1.2.208,45.6,45.6,0,0,1,8.11,3.418c2.473,1.233,4.859,2.527,6.374,3.351l.67-.4c-1.508-.831-3.894-2.118-6.367-3.351a45.633,45.633,0,0,0-8.116-3.418,11.483,11.483,0,0,0-1.2-.2,4.946,4.946,0,0,0-3.11.449l-.7.4a5.02,5.02,0,0,1,3.143-.456Z" transform="translate(-86.765 -379.892)" fill="#e0e0e0"/><path d="M139.666,399.453a10.061,10.061,0,0,1,1.227.208,45.631,45.631,0,0,1,8.116,3.418c2.473,1.233,4.859,2.527,6.367,3.351l.7-.409c-1.515-.831-3.9-2.118-6.374-3.351a45.6,45.6,0,0,0-8.11-3.418,11.476,11.476,0,0,0-1.2-.2,4.973,4.973,0,0,0-3.117.449l-.67.4A5.046,5.046,0,0,1,139.666,399.453Z" transform="translate(-87.583 -379.44)" fill="#e0e0e0"/><path d="M141.99,398.093a9.906,9.906,0,0,1,1.206.208,45.6,45.6,0,0,1,8.11,3.418c2.473,1.24,4.859,2.527,6.367,3.351l.7-.409c-1.508-.831-3.894-2.118-6.374-3.351a46.117,46.117,0,0,0-8.11-3.418,11.477,11.477,0,0,0-1.2-.2,4.946,4.946,0,0,0-3.11.449l-.7.4a5.047,5.047,0,0,1,3.11-.449Z" transform="translate(-88.331 -378.991)" fill="#e0e0e0"/><path d="M144.333,396.764a10.057,10.057,0,0,1,1.2.208,45.6,45.6,0,0,1,8.11,3.418c2.48,1.24,4.866,2.527,6.374,3.351l.67-.409c-1.508-.824-3.894-2.118-6.367-3.351a46.117,46.117,0,0,0-8.11-3.418,11.578,11.578,0,0,0-1.206-.2,4.993,4.993,0,0,0-3.11.449l-.7.4A5.073,5.073,0,0,1,144.333,396.764Z" transform="translate(-89.093 -378.554)" fill="#e0e0e0"/><path d="M146.713,395.371a10.149,10.149,0,0,1,1.206.208,45.809,45.809,0,0,1,8.11,3.418c2.473,1.24,4.859,2.527,6.367,3.351l.7-.409c-1.508-.824-3.894-2.118-6.374-3.351a45.607,45.607,0,0,0-8.11-3.418,10.056,10.056,0,0,0-1.2-.208,5.027,5.027,0,0,0-3.117.449l-.67.4a5.047,5.047,0,0,1,3.083-.442Z" transform="translate(-89.898 -378.092)" fill="#e0e0e0"/><path d="M149.043,394.015a10.045,10.045,0,0,1,1.2.208,45.6,45.6,0,0,1,8.11,3.418c2.473,1.24,4.866,2.527,6.374,3.351l.67-.4c-1.508-.831-3.894-2.125-6.367-3.351a45.815,45.815,0,0,0-8.11-3.418,10.363,10.363,0,0,0-1.206-.208,5.047,5.047,0,0,0-3.11.449l-.7.409a5.013,5.013,0,0,1,3.143-.456Z" transform="translate(-90.646 -377.648)" fill="#e0e0e0"/><path d="M90.919,405.887a9.932,9.932,0,0,1,2.493,2.131l.67-.369a9.932,9.932,0,0,0-2.493-2.131L73.6,395.17l-.67.369Z" transform="translate(-66.583 -378.186)" fill="#e0e0e0"/><path d="M90.919,405.887a9.932,9.932,0,0,1,2.493,2.131l.67-.369a9.932,9.932,0,0,0-2.493-2.131L73.6,395.17l-.67.369Z" transform="translate(-66.583 -378.186)" fill="#e0e0e0"/><path d="M94.245,407.552l-.255-.295a10.3,10.3,0,0,0-2.58-2.205l-18.1-10.442L72,395.354l18.438,10.63a9.51,9.51,0,0,1,2.413,2.064l.174.2Z" transform="translate(-66.276 -378.002)" fill="#1565c0" opacity="0.3"/><path d="M93.269,404.527a10.1,10.1,0,0,1,2.493,2.138l.67-.375a10.1,10.1,0,0,0-2.5-2.131L75.95,393.81l-.67.375Z" transform="translate(-67.358 -377.738)" fill="#e0e0e0"/><path d="M95.635,403.17a10.1,10.1,0,0,1,2.493,2.138l.67-.369a10.012,10.012,0,0,0-2.5-2.138L78.317,392.46l-.637.369Z" transform="translate(-68.149 -377.293)" fill="#e0e0e0"/><path d="M97.975,401.817a9.932,9.932,0,0,1,2.493,2.131l.67-.369a10.1,10.1,0,0,0-2.493-2.138L80.67,391.1l-.67.369Z" transform="translate(-68.914 -376.844)" fill="#e0e0e0"/><path d="M100.332,400.457a9.932,9.932,0,0,1,2.493,2.131l.67-.369A9.934,9.934,0,0,0,101,400.088L83.04,389.74l-.67.369Z" transform="translate(-69.696 -376.396)" fill="#e0e0e0"/><path d="M102.672,399.1a10.215,10.215,0,0,1,2.493,2.131l.67-.369a9.934,9.934,0,0,0-2.493-2.131L85.36,388.38l-.67.375Z" transform="translate(-70.461 -375.947)" fill="#e0e0e0"/><path d="M105.009,397.724a10.013,10.013,0,0,1,2.5,2.138l.67-.375a10.215,10.215,0,0,0-2.493-2.131L87.67,387l-.67.369Z" transform="translate(-71.223 -375.492)" fill="#e0e0e0"/><path d="M107.379,396.38a10.1,10.1,0,0,1,2.493,2.138l.67-.369a10.1,10.1,0,0,0-2.493-2.138L90.06,385.67l-.67.369Z" transform="translate(-72.011 -375.054)" fill="#e0e0e0"/><path d="M109.729,395.027a9.932,9.932,0,0,1,2.493,2.131l.67-.369a10.012,10.012,0,0,0-2.5-2.138L92.41,384.31l-.67.369Z" transform="translate(-72.786 -374.605)" fill="#e0e0e0"/><path d="M112.079,393.683a10.214,10.214,0,0,1,2.493,2.131l.67-.369a9.845,9.845,0,0,0-2.5-2.131L94.76,383l-.67.375Z" transform="translate(-73.561 -374.173)" fill="#e0e0e0"/><path d="M114.429,392.31a10.1,10.1,0,0,1,2.493,2.138l.67-.375a10.215,10.215,0,0,0-2.493-2.131L97.11,381.6l-.67.369Z" transform="translate(-74.336 -373.711)" fill="#e0e0e0"/><path d="M116.792,390.95a10.1,10.1,0,0,1,2.493,2.138l.67-.369a10.1,10.1,0,0,0-2.493-2.138L99.5,380.24l-.67.369Z" transform="translate(-75.124 -373.263)" fill="#e0e0e0"/><path d="M119.165,389.6a9.933,9.933,0,0,1,2.493,2.131l.67-.369a10.1,10.1,0,0,0-2.493-2.138L101.88,378.88l-.67.369Z" transform="translate(-75.909 -372.814)" fill="#e0e0e0"/><path d="M121.482,388.237a9.986,9.986,0,0,1,2.5,2.131l.637-.369a9.934,9.934,0,0,0-2.493-2.131L104.17,377.52l-.67.369Z" transform="translate(-76.664 -372.366)" fill="#e0e0e0"/><path d="M123.855,386.88a10.1,10.1,0,0,1,2.493,2.138l.67-.375a10.053,10.053,0,0,0-2.493-2.131L106.57,376.17l-.67.369Z" transform="translate(-77.456 -371.921)" fill="#e0e0e0"/><path d="M126.162,385.52a10.1,10.1,0,0,1,2.493,2.138l.67-.369a10.013,10.013,0,0,0-2.5-2.138L108.87,374.81l-.67.369Z" transform="translate(-78.214 -371.472)" fill="#e0e0e0"/><path d="M128.552,384.167a9.932,9.932,0,0,1,2.493,2.131l.67-.369a10.013,10.013,0,0,0-2.5-2.138L111.26,373.45l-.67.369Z" transform="translate(-79.002 -371.024)" fill="#e0e0e0"/><path d="M96.585,406.165l-.255-.295a10.294,10.294,0,0,0-2.58-2.205l-18.1-10.435-1.294.744L92.8,404.6a9.645,9.645,0,0,1,2.413,2.064l.174.2Z" transform="translate(-67.055 -377.547)" fill="#1565c0" opacity="0.3"/><path d="M98.9,404.775l-.255-.295a10.435,10.435,0,0,0-2.58-2.205l-18.1-10.435-1.314.777L95.1,403.241a9.765,9.765,0,0,1,2.413,2.064l.174.208Z" transform="translate(-67.813 -377.088)" fill="#1565c0" opacity="0.3"/><path d="M101.238,403.379l-.261-.295a10.43,10.43,0,0,0-2.54-2.218L80.34,390.43l-1.34.757L97.445,401.81a9.657,9.657,0,0,1,2.413,2.071l.174.2Z" transform="translate(-68.585 -376.623)" fill="#1565c0" opacity="0.3"/><path d="M115.318,395.2l-.255-.295a10.3,10.3,0,0,0-2.58-2.205L94.367,382.26,93.08,383l18.438,10.63a9.511,9.511,0,0,1,2.413,2.064l.174.2Z" transform="translate(-73.228 -373.929)" fill="#1565c0" opacity="0.3"/><path d="M117.648,393.815l-.255-.295a10.3,10.3,0,0,0-2.58-2.205l-18.1-10.435-1.307.751,18.438,10.623a9.646,9.646,0,0,1,2.413,2.064l.174.2Z" transform="translate(-73.996 -373.474)" fill="#1565c0" opacity="0.3"/><path d="M119.985,392.425l-.255-.295a10.435,10.435,0,0,0-2.58-2.205l-18.1-10.435-1.294.744L116.2,390.857a9.764,9.764,0,0,1,2.413,2.064l.174.208Z" transform="translate(-74.771 -373.016)" fill="#1565c0" opacity="0.3"/><path d="M69.772,400.39l-4.2-2.212v-.349Z" transform="translate(-64.156 -379.064)" fill="#e6e6e6"/><path d="M65.57,400.065l7,3.914-7-4.169Z" transform="translate(-64.156 -379.717)" fill="#e6e6e6"/><path d="M150.54,397.136c-3.787-2.011-8.854-4.491-11.528-5.007a6.21,6.21,0,0,0-4.3.328h0L104.1,410.125a5.047,5.047,0,0,1,3.11-.449s15.154-9.242,24.939-12.4a31.5,31.5,0,0,1,18.391-.141Z" transform="translate(-76.862 -377.117)" opacity="0.02"/></g></g><g transform="translate(232.6 268.08)"><path d="M365.284,387.78l-25.5,13.7-.442.67v.563a.8.8,0,0,0,.442.67l28.237,16.3a1.528,1.528,0,0,0,1.468,0l25.06-14.51v-.489Z" transform="translate(-339.339 -385.287)" fill="#263238"/><path d="M368.722,419.09a1.447,1.447,0,0,1-.737-.181l-28.2-16.3a.764.764,0,0,1,0-1.387L364.345,387l30.16,17.426-25.06,14.51a1.441,1.441,0,0,1-.724.154Z" transform="translate(-339.338 -385.03)" fill="#1565c0"/><path d="M364.564,384.52,340.2,398.635l-.2.281v2.172h0a.362.362,0,0,0,.214.295l28.223,16.3a1.106,1.106,0,0,0,1.005,0l24.363-14.075V401.43Z" transform="translate(-339.556 -384.212)" fill="#ebebeb"/><path d="M393.8,401.4l-.255.147-3.284,1.9-.61.355-20.2,11.709a1.106,1.106,0,0,1-1.005,0l-28.243-16.307a.3.3,0,0,1,0-.576l.275-.154,24.095-13.961,28.987,16.756.06.034Z" transform="translate(-339.554 -384.212)" fill="#f0f0f0"/><path d="M368.93,422.756v2.172a.985.985,0,0,1-.5-.121l-28.243-16.3a.355.355,0,0,1-.2-.295V406a.349.349,0,0,0,.2.288l28.243,16.307a.985.985,0,0,0,.5.161Z" transform="translate(-339.553 -391.295)" fill="#e0e0e0"/><path d="M393.978,400.963l-3.646,2.1-.57.328-20.147,11.682a1.106,1.106,0,0,1-1.005,0l-25.288-14.6c-.228-.121-.442-.248-.637-.362a6.192,6.192,0,0,1-2.044-1.783l-.054-.08a.315.315,0,0,1-.06-.147.449.449,0,0,1,.355-.509,9.384,9.384,0,0,0,1.9-.8h0l21.923-12.734Z" transform="translate(-339.728 -384.06)" fill="#fff"/><path d="M414.554,408.846c-.261.154-.261.4,0,.543a1.012,1.012,0,0,0,.938,0c.261-.147.261-.389,0-.543A1.052,1.052,0,0,0,414.554,408.846Z" transform="translate(-364.077 -392.197)" opacity="0.1"/><path d="M417.745,406.206a1.246,1.246,0,0,0-1.267.094,3.941,3.941,0,0,0-1.589,2.285,1,1,0,0,0,.349.04,3.532,3.532,0,0,1,1.414-2.011,1.173,1.173,0,0,1,.576-.181.717.717,0,0,1,.342.087,1.3,1.3,0,0,1,.476,1.166,2.016,2.016,0,0,1,0,.282l.335.188a3.678,3.678,0,0,0,.034-.469A1.615,1.615,0,0,0,417.745,406.206Z" transform="translate(-364.253 -391.32)" fill="#263238"/><path d="M419.97,409.43a.361.361,0,0,1,0,.08l-.06-.033Z" transform="translate(-365.908 -392.426)" fill="#263238"/><path d="M410.331,406.406a.288.288,0,0,0,0,.55,1.052,1.052,0,0,0,.938,0,.295.295,0,0,0,0-.55A1.052,1.052,0,0,0,410.331,406.406Z" transform="translate(-362.683 -391.393)" opacity="0.1"/><path d="M413.512,403.775a1.247,1.247,0,0,0-1.294.107,3.961,3.961,0,0,0-1.588,2.285,1,1,0,0,0,.348.04,3.532,3.532,0,0,1,1.414-2.011,1.174,1.174,0,0,1,.576-.181.67.67,0,0,1,.342.094,1.287,1.287,0,0,1,.476,1.16,2.011,2.011,0,0,1,0,.281l.335.188a3.68,3.68,0,0,0,0-.469,1.615,1.615,0,0,0-.61-1.495Z" transform="translate(-362.848 -390.518)" fill="#263238"/><path d="M406.106,403.943a.288.288,0,0,0,0,.543,1.052,1.052,0,0,0,.938,0,.288.288,0,0,0,0-.55,1.032,1.032,0,0,0-.938.007Z" transform="translate(-361.293 -390.578)" opacity="0.1"/><path d="M409.3,401.335a1.233,1.233,0,0,0-1.26.087,3.934,3.934,0,0,0-1.588,2.285,1,1,0,0,0,.348.04,3.5,3.5,0,0,1,1.414-2.011,1.207,1.207,0,0,1,.576-.174.67.67,0,0,1,.335.087,1.287,1.287,0,0,1,.476,1.16,2.006,2.006,0,0,1,0,.281l.328.188a2.759,2.759,0,0,0,.034-.469A1.6,1.6,0,0,0,409.3,401.335Z" transform="translate(-361.47 -389.713)" fill="#263238"/><path d="M401.906,401.533a.288.288,0,0,0,0,.543,1.052,1.052,0,0,0,.938,0,.288.288,0,0,0,0-.543A1.012,1.012,0,0,0,401.906,401.533Z" transform="translate(-359.908 -389.784)" opacity="0.1"/><path d="M405.078,398.935a1.233,1.233,0,0,0-1.26.087,3.954,3.954,0,0,0-1.588,2.286.977.977,0,0,0,.342.04,3.559,3.559,0,0,1,1.421-2.011,1.187,1.187,0,0,1,.576-.174.67.67,0,0,1,.335.087,1.3,1.3,0,0,1,.476,1.166,1.89,1.89,0,0,1,0,.275l.328.194a3.77,3.77,0,0,0,.034-.469,1.609,1.609,0,0,0-.664-1.481Z" transform="translate(-360.078 -388.921)" fill="#263238"/><path d="M397.666,399.1a.288.288,0,0,0,0,.543,1.012,1.012,0,0,0,.938,0,.288.288,0,0,0,0-.543,1.052,1.052,0,0,0-.938,0Z" transform="translate(-358.51 -388.982)" opacity="0.1"/><path d="M400.859,396.455a1.233,1.233,0,0,0-1.26.087,3.921,3.921,0,0,0-1.588,2.286.817.817,0,0,0,.342.047,3.532,3.532,0,0,1,1.414-2.011,1.173,1.173,0,0,1,.576-.181.718.718,0,0,1,.342.087,1.3,1.3,0,0,1,.476,1.166q0,.141,0,.281l.328.188a3.769,3.769,0,0,0,.034-.469,1.615,1.615,0,0,0-.663-1.481Z" transform="translate(-358.686 -388.104)" fill="#263238"/><path d="M393.436,396.656a.288.288,0,0,0,0,.543,1.025,1.025,0,0,0,.945,0,.288.288,0,0,0,0-.543,1.066,1.066,0,0,0-.945,0Z" transform="translate(-357.115 -388.177)" opacity="0.1"/><path d="M396.6,394.017a1.26,1.26,0,0,0-1.267.094,3.907,3.907,0,0,0-1.588,2.286,1,1,0,0,0,.348.04,3.532,3.532,0,0,1,1.414-2.011,1.173,1.173,0,0,1,.576-.181.67.67,0,0,1,.342.094,1.287,1.287,0,0,1,.476,1.159,2.006,2.006,0,0,1,0,.281l.328.188a2.779,2.779,0,0,0,.04-.469A1.635,1.635,0,0,0,396.6,394.017Z" transform="translate(-357.278 -387.301)" fill="#263238"/><path d="M389.218,394.216a.295.295,0,0,0,0,.55,1.052,1.052,0,0,0,.938,0,.288.288,0,0,0,0-.55,1.052,1.052,0,0,0-.938,0Z" transform="translate(-355.725 -387.373)" opacity="0.1"/><path d="M392.408,391.585a1.233,1.233,0,0,0-1.26.087,3.935,3.935,0,0,0-1.588,2.285,1,1,0,0,0,.349.04,3.5,3.5,0,0,1,1.414-2.011,1.206,1.206,0,0,1,.576-.174.67.67,0,0,1,.335.087,1.274,1.274,0,0,1,.483,1.16,2.005,2.005,0,0,1,0,.281l.328.188a2.778,2.778,0,0,0,.04-.469A1.6,1.6,0,0,0,392.408,391.585Z" transform="translate(-355.9 -386.498)" fill="#263238"/><path d="M384.994,391.783c-.261.147-.261.389,0,.543a1.052,1.052,0,0,0,.938,0c.261-.154.261-.4,0-.543A1.012,1.012,0,0,0,384.994,391.783Z" transform="translate(-354.329 -386.569)" opacity="0.1"/><path d="M388.188,389.145a1.233,1.233,0,0,0-1.26.087,3.934,3.934,0,0,0-1.588,2.285.977.977,0,0,0,.342.04,3.559,3.559,0,0,1,1.421-2.011,1.187,1.187,0,0,1,.576-.174.67.67,0,0,1,.335.087,1.287,1.287,0,0,1,.476,1.166,1.929,1.929,0,0,1,0,.275l.328.194a3.86,3.86,0,0,0,.034-.469A1.609,1.609,0,0,0,388.188,389.145Z" transform="translate(-354.508 -385.693)" fill="#263238"/><path d="M380.776,389.343a.288.288,0,0,0,0,.543,1.012,1.012,0,0,0,.938,0,.288.288,0,0,0,0-.543,1.012,1.012,0,0,0-.938,0Z" transform="translate(-352.94 -385.764)" opacity="0.1"/><path d="M383.968,386.7a1.233,1.233,0,0,0-1.26.087,3.921,3.921,0,0,0-1.588,2.285.818.818,0,0,0,.342.04,3.579,3.579,0,0,1,1.414-2.011,1.226,1.226,0,0,1,.576-.174.67.67,0,0,1,.342.087,1.3,1.3,0,0,1,.476,1.166c0,.094,0,.181,0,.275l.328.194a3.778,3.778,0,0,0,0-.469,1.609,1.609,0,0,0-.63-1.481Z" transform="translate(-353.117 -384.888)" fill="#263238"/><path d="M376.554,386.946c-.261.154-.261.4,0,.543a1.012,1.012,0,0,0,.938,0,.288.288,0,0,0,0-.543A1.052,1.052,0,0,0,376.554,386.946Z" transform="translate(-351.546 -384.975)" opacity="0.1"/><path d="M379.745,384.266a1.247,1.247,0,0,0-1.267.094,3.947,3.947,0,0,0-1.588,2.279.865.865,0,0,0,.349.047,3.532,3.532,0,0,1,1.414-2.011,1.173,1.173,0,0,1,.576-.181.765.765,0,0,1,.342.087,1.3,1.3,0,0,1,.476,1.166,2.006,2.006,0,0,1,0,.282l.335.188a3.77,3.77,0,0,0,.033-.469A1.635,1.635,0,0,0,379.745,384.266Z" transform="translate(-351.722 -384.085)" fill="#263238"/><path d="M378.844,420.079a.328.328,0,0,1-.275-.161.322.322,0,0,1,.114-.436l19.7-11.394a.317.317,0,1,1,.315.55L379,420.033A.335.335,0,0,1,378.844,420.079Z" transform="translate(-352.261 -391.97)" fill="#ebebeb"/><path d="M375.983,418.459a.308.308,0,0,1-.275-.161.315.315,0,0,1,.114-.436l19.691-11.394a.322.322,0,0,1,.322.55l-19.691,11.394a.369.369,0,0,1-.161.047Z" transform="translate(-351.317 -391.442)" fill="#ebebeb"/><path d="M373.164,416.821a.328.328,0,0,1-.275-.161.322.322,0,0,1,.114-.436l19.7-11.394a.328.328,0,0,1,.436.114.322.322,0,0,1-.121.436l-19.691,11.394A.335.335,0,0,1,373.164,416.821Z" transform="translate(-350.388 -390.896)" fill="#ebebeb"/><path d="M370.355,415.2a.322.322,0,0,1-.161-.6l19.691-11.394a.322.322,0,0,1,.322.556l-19.691,11.394a.368.368,0,0,1-.161.04Z" transform="translate(-349.462 -390.364)" fill="#ebebeb"/><path d="M367.534,413.569a.328.328,0,0,1-.275-.161.322.322,0,0,1,.114-.436l19.7-11.394a.317.317,0,1,1,.315.55l-19.691,11.394A.281.281,0,0,1,367.534,413.569Z" transform="translate(-348.532 -389.823)" fill="#ebebeb"/><path d="M364.723,411.944a.3.3,0,0,1-.275-.154.315.315,0,0,1,.114-.436l19.691-11.394a.321.321,0,0,1,.322.556L364.884,411.91A.356.356,0,0,1,364.723,411.944Z" transform="translate(-347.604 -389.29)" fill="#ebebeb"/><path d="M361.9,410.32a.328.328,0,0,1-.275-.161.322.322,0,0,1,.114-.436l19.7-11.394a.317.317,0,0,1,.315.55l-19.691,11.394A.281.281,0,0,1,361.9,410.32Z" transform="translate(-346.675 -388.752)" fill="#ebebeb"/><path d="M359.091,408.694a.314.314,0,0,1-.161-.59l19.691-11.394a.321.321,0,0,1,.322.556l-19.7,11.394A.308.308,0,0,1,359.091,408.694Z" transform="translate(-345.746 -388.218)" fill="#ebebeb"/><path d="M356.274,407.08a.329.329,0,0,1-.275-.161.322.322,0,0,1,.114-.436l19.7-11.394a.317.317,0,1,1,.315.55l-19.691,11.394A.282.282,0,0,1,356.274,407.08Z" transform="translate(-344.818 -387.683)" fill="#ebebeb"/><path d="M353.461,405.44a.315.315,0,0,1-.281-.161.322.322,0,0,1,.121-.436l19.691-11.394a.321.321,0,0,1,.322.556l-19.7,11.394a.309.309,0,0,1-.154.04Z" transform="translate(-343.889 -387.143)" fill="#ebebeb"/><path d="M350.644,403.82a.328.328,0,0,1-.275-.161.322.322,0,0,1,.114-.436l19.7-11.394a.317.317,0,1,1,.315.55L350.8,403.773A.3.3,0,0,1,350.644,403.82Z" transform="translate(-342.962 -386.608)" fill="#ebebeb"/><path d="M347.841,402.189a.315.315,0,0,1-.282-.161.322.322,0,0,1,.121-.436L367.372,390.2a.322.322,0,0,1,.436.114.335.335,0,0,1-.114.442L348,402.149A.308.308,0,0,1,347.841,402.189Z" transform="translate(-342.036 -386.07)" fill="#ebebeb"/><path d="M345.014,400.568a.328.328,0,0,1-.275-.161.322.322,0,0,1,.114-.436l19.691-11.394a.315.315,0,0,1,.436.114.308.308,0,0,1-.114.436l-19.691,11.394a.3.3,0,0,1-.161.047Z" transform="translate(-341.105 -385.535)" fill="#ebebeb"/><path d="M381.654,421.425a.328.328,0,0,1-.275-.161.322.322,0,0,1,.114-.436l20.6-11.95a.315.315,0,0,1,.436.114.322.322,0,0,1-.121.436l-20.589,11.95a.281.281,0,0,1-.161.047Z" transform="translate(-353.188 -392.229)" fill="#1565c0"/></g><g transform="translate(53.726 144.256)"><path d="M142.39,234.788a38.583,38.583,0,0,1-2.426,6.756c-.6,1.34-1.454,3.445-2.983,3.351.1-.369.188-.724.275-1.066,0,0-.1-1.434-4.785-2.6s-6.32-.04-6.32-.04a6.407,6.407,0,0,1-.04.851,18.767,18.767,0,0,1-2.178-.925c-1.092-.483-2.842-1.294-3.432-2.393a4.317,4.317,0,0,1-.382-1.34c-.161-.891-.315-1.776-.476-2.681a12.178,12.178,0,0,1-.281-3.747,2.828,2.828,0,0,1,1.28-2.225,3.264,3.264,0,0,1,1.434-.281c1.7-.087,3.861-.811,5.556-.972,1.575-.161,3.11-.529,4.692-.67a13.874,13.874,0,0,1,4.765.67C140.4,228.5,143.275,231.531,142.39,234.788Z" transform="translate(-87.908 -208.376)" fill="#455a64"/><path d="M105.231,213.083A9.909,9.909,0,0,1,109.393,216c1.106,1.5,1.092,4.142.838,6.119a35,35,0,0,0-.322,4.651,28.2,28.2,0,0,0,1.434,6.508,165.815,165.815,0,0,0,9.108,23.016c3.117,6.749,6.816,13.766,8.264,21.126,8.271,1.488,16.756,3.653,20.509,4.484a29.322,29.322,0,0,1,8.881,1.247c12.781,4.692,16.528,22.928,20.181,29.309l-11.883,1.6c-12.942-7.305-40.669-20.227-47.512-23.458s-9.229-3.807-10.965-6.742a32.291,32.291,0,0,1-3.123-8.961c-1.97-8.358-2.621-17.62-4.2-26.052-.844-4.517-1.682-9.035-2.554-13.545a44.6,44.6,0,0,0-1.34-5.429,21.884,21.884,0,0,0-2.983-5.744,12.943,12.943,0,0,0-1.468-2.011,16.308,16.308,0,0,0-1.91-1.34c-2.306-1.642-4.946-2.641-7.305-4.189-3.163-2.078-7.949-4.986-7.2-9.5a8.385,8.385,0,0,1,2.011-3.84c1.086-1.019,3.646-.5,4.94-.342,3.934.5,7.212,2.681,10.536,4.692a33.064,33.064,0,0,0,6.032,2.949c1.086.375,2.138.831,3.224,1.193A22.058,22.058,0,0,1,105.231,213.083Z" transform="translate(-73.544 -200.403)" fill="#ffa8a7"/><path d="M121.679,273.668l4.732-21.226c-.536-1.562-1.052-3.13-1.515-4.692-.127-.429-.261-.871-.389-1.34l-7.647,24.014Z" transform="translate(-87.096 -214.844)" fill="#f28f8f"/><path d="M141.142,330.928,162.9,337.59l16.561-26.849c-2.956-3.251-6.8-4.39-11.186-4.886-3.472-.4-4.571.067-7.145-.469s-6.7-1.448-6.7-1.448c-6.36-1.515-9.537-2.011-12.647-2.681-1.34-7.533-4.926-13.854-10.563-25.107a30.522,30.522,0,0,1-16.756,3.619s.9,8.612,1.736,16.407,1.166,20.951,4.692,24.932S134.868,329,141.142,330.928Z" transform="translate(-86.305 -224.651)" fill="#37474f"/><path d="M168.343,313.528c-5.616-4.571-14.8-1.769-14.8-1.769s-4.323-.965-7.372-1.555v-.074c-.054,0-.67-.067-1.6-.208l-.563-.094h0c-3.72-.576-10.925-1.81-10.925-1.81a22.071,22.071,0,0,0,2.111-9.2c.141-3.385.261-9.966.194-14.678-1.186-2.386-2.52-4.993-4.021-7.949a30.22,30.22,0,0,1-15.033,3.68L115,283.8l.844,7.929s1.26,4.906,1.857,7.44a31.245,31.245,0,0,0,3.123,8.961c1.736,2.936,4.129,3.519,10.965,6.742l.375.174.449.214.744.342.57.268.617.295.63.295,2.681,1.273.362.168,1.273.6.335.154,1.582.751.114.054,1.823.865h.06l.858-3.237.188.308,10.174,2.011S173.98,318.093,168.343,313.528Z" transform="translate(-86.483 -224.664)" fill="#263238"/><path d="M149.46,304.621a156.787,156.787,0,0,0-22.613-4.363c2.607-5.154,3.311-16.836,3.894-28.183.362-6.91.67-13.7,1.34-18.807a13.521,13.521,0,0,1,.355-1.562l.275-1.066s.476-1.542-4.692-2.681-6.434.074-6.434.074l-.04.851a.636.636,0,0,1-.08.221h0c-.925,2.681-4.933,14.417-8.713,27.124-4.645,15.75-8.914,32.968-6.448,36.259,4.732,6.32,29.369,19.061,50.709,26.367l7.031-16.394,6.7-15.6S160.948,300.948,149.46,304.621Z" transform="translate(-83.377 -215.194)" fill="#ffa8a7"/><path d="M128.433,343.915c10.8,5.047,22.4,10.134,31.7,11.957,7.9,1.542,11.119-33.706,11.119-33.706-5.087-2.279-9.1-3.351-13.4-3.485s-6.937,1.046-8.626,1.16-3.948-1.294-9.7-2.265a77.363,77.363,0,0,0-12.2-1.689s2.379-5.9,2.587-17.2c0,0-11.863,3.251-18.25-3.351a101.941,101.941,0,0,0-4.571,14.933,85.006,85.006,0,0,0-2.011,14.075,8.19,8.19,0,0,0,2.406,6.508C111.6,335.115,120.793,340.342,128.433,343.915Z" transform="translate(-83.201 -230.976)" fill="#455a64"/><path d="M127.015,231.053a29.335,29.335,0,0,0-.315,4.115,28.189,28.189,0,0,0,1.441,6.5,1.207,1.207,0,0,1,.4.771,25.537,25.537,0,0,0-.4-5.174c-.3-2.366,1.24-6.4,1-9.236-.449.074-1.481.3-1.97.416C127.189,228.881,127.075,230.624,127.015,231.053Z" transform="translate(-90.341 -208.782)" fill="#37474f"/><path d="M122.1,324.729a22.061,22.061,0,0,0,10.844-1.588h0a34.093,34.093,0,0,0,1.508-5.831C131.557,322.29,122.1,324.729,122.1,324.729Z" transform="translate(-88.824 -238.224)" fill="#37474f"/><path d="M72.544,207.78a9.557,9.557,0,0,0,3.13,8.485c3.117,2.929,10.543,6.7,13.559,8.472,3.907,2.259,6.521,7.078,6.521,7.078s1.877,2.205,7.185,1.4c3.733-.563,5.482-2.232,6.032-3.264,0,0,.074-1.562.188-2.547a44.455,44.455,0,0,0,.047-8.713Z" transform="translate(-72.451 -202.104)" fill="#455a64"/><path d="M109.332,215.972c0-3.478-7.044-6.7-10.409-8.043-4.3-1.635-9.028-8.083-17.667-8.572-6.139-.349-8.4,1.34-8.545,3.532,0,.382-.094,1.843-.114,2.192-.114,1.937,1.441,4.229,3.432,5.757,3.143,2.413,11.233,6.032,17.258,9.584s11.24,2.969,14.329.67a3.6,3.6,0,0,0,1.816-2.942C109.426,217.762,109.339,216.3,109.332,215.972Z" transform="translate(-72.497 -199.312)" fill="#263238"/><path d="M107.59,218.875c-3.076,2.292-8.257,2.842-14.249-.67s-14.075-7.131-17.165-9.531c-4.222-3.244-6.481-9.953,5.134-9.3,8.639.489,13.4,6.937,17.667,8.572S113.541,214.445,107.59,218.875Z" transform="translate(-72.551 -199.319)" fill="#37474f"/><path d="M291.178,325.352c-4.444-9.96-7.775-12.54-15.9-10.127l4.96,23.987s6.548,12.138,8.15,15.3l11.876-7.641S296.2,336.572,291.178,325.352Z" transform="translate(-139.339 -237.259)" fill="#ffa8a7"/><path d="M230.807,314.438s-14.075,2.453-17.52,4.216c-3.834,1.964-3.767,3.351-6.36,7.125-3.09.456-4.792-1.548-7.319-3.3-2.5-.228-13.565,4.115-18.317,13.4-5.047,9.879-4.021,19.845-.751,25.355,7.614,2.366,16.655,5.529,31.849,4.4a145.32,145.32,0,0,0,22.459-3.693,17.459,17.459,0,0,0,7.654-3.82c12.453-2.158,13.036-11.582,10.724-19.437-2.922-9.913-5.8-17.841-7.909-21.789C243.816,314.1,238.179,313.5,230.807,314.438Z" transform="translate(-107.191 -237.141)" fill="#1565c0"/><path d="M281.564,315.752c-2.466-1.79-5.4-1.89-9.631-.637v.04a16.75,16.75,0,0,0-6.843-1.106c.623,2.252,2.011,4.444,5.147,4.779C275.807,319.432,279.185,318.279,281.564,315.752Z" transform="translate(-135.978 -237.149)" opacity="0.1"/><path d="M260.588,374.263c-1.609,1.769-7.145,2.781-11.588.771-3.914-1.776-6.24-6.468-6.106-10.094,0,0-1.87,8.043,5.422,11.313C255.032,379.216,260.421,375.262,260.588,374.263Z" transform="translate(-128.588 -253.932)" opacity="0.1"/><path d="M221.954,253.652a3.264,3.264,0,0,0,.221,1.729c.59,1.294,2.2,2.058,1.776,3.793-.288,1.186-1.97,1.374-3.036.938-.2,2.245,2.936,2.245,4.316,1.863.094,1.548.3,2.2,1.91,2.795,2.433.9,3.82.154,5.576-1.407,1.588-1.414,3.673-.275,5.623-.355a4.479,4.479,0,0,0,4.2-3.807c.295-1.24-.811-2.862-.315-3.914,1.046-2.205,4.692,0,6.367-1.052,2.272-1.475,1.736-5.489-.509-6.756-.7-.389-1.642-.268-2.306-.67a3.126,3.126,0,0,1-1.086-1.857,6.8,6.8,0,0,0-5.214-4.692,5.784,5.784,0,0,0-2.949.107c-1.092.382-1.763,1.34-2.8,1.8-1.977.844-4.323-.208-6.119,1.448a3.8,3.8,0,0,0-1.22,2.714c0,.737.476,1.481.228,2.165-.449,1.273-2.46,1.582-3.351,2.433A4.692,4.692,0,0,0,221.954,253.652Z" transform="translate(-121.408 -212.769)" fill="#37474f"/><path d="M242.961,297.782a17.739,17.739,0,0,1,2.051-2.011l11.809-11.588,6.521-6.394c1.193-1.166,2.285-2.728,4.062-2.909a5.857,5.857,0,0,1,3.411.871,4.574,4.574,0,0,0,4.5.148,2.393,2.393,0,0,0,1.273-2.011,8.506,8.506,0,0,0-.047-.985,1.562,1.562,0,0,1-2.3.958c-.811-.436-.885-1.193-1.005-2.064s0-2.051-.529-2.855a1.957,1.957,0,0,0-2.078-.844,27.286,27.286,0,0,0,1.495-2.681,6.032,6.032,0,0,0,.221-2.956c-.295-1.723-1.649-2.775-3.07-3.613-1.7-.992-3.351-.938-5.288-.918-1.34,0-2.681.248-4.021.127-1.139-.107-2.292-.416-3.425-.61a24.41,24.41,0,0,0-8.847.348c-14.98,3.063-17.848,17.084-15.589,24.249C235.22,291.951,240.273,291.394,242.961,297.782Z" transform="translate(-124.874 -218.401)" fill="#37474f"/><path d="M273.838,284.945c.851,11.662-2.681,14.37-4.5,15.382s-4.169,1.24-7.768.992l-1.039,4.3c-.161,5.033-11.783,4.846-15.65-.516l1.039-12.594s-1.28,2.058-4.477.529c-3.07-1.468-3.861-6.246-2.493-8.431a3.474,3.474,0,0,1,5.663-.121,4.886,4.886,0,0,1,.731,2.111c.094.476.087,1.106.469,1.273,1.736.751,3-1.749,2.956-3.633,1.655-1.374,2.527-3.023,2.158-6.186,1.682.824,4.524-.281,5.965-1.461,2.473-2.011,2.513-3.948,3.264-6.226s3.117-2.681,5.221-2.192a9.383,9.383,0,0,1,5.221,4.021,16.192,16.192,0,0,1,1.528,3.934,37.916,37.916,0,0,1,1.709,8.82Z" transform="translate(-127.146 -221.958)" fill="#ffa8a7"/><path d="M253.763,300.2l-3.82,10.63h0c-3.525.8-3.485,5.59-2.044,8.907,2.178,5.02,5.167,8.519,8.244,10.053,2.721,1.34,8.217,2.406,9.068-1.5,1.2-5.523-1.669-12.795-1.669-12.795Z" transform="translate(-130.006 -232.582)" fill="#ffa8a7"/><path d="M247.193,302.293c1.227-.536,2.547.958,2.547.958a2.339,2.339,0,0,1,2.245,0,3.023,3.023,0,0,1,1.066,1.4,1.568,1.568,0,0,1,1.8.342,4.879,4.879,0,0,1,1.294,1.89,2.1,2.1,0,0,1,2.011,1.012,8.652,8.652,0,0,0,3.559,2.761c1.34.469.731,2.192-1.253,2.158-11.89-.194-14.544-9.189-14.544-9.189S245.974,302.836,247.193,302.293Z" transform="translate(-129.657 -233.234)" fill="#f28f8f"/><path d="M266.7,314.32c-3.11-.436-6.515-1.193-8.954-2.681a10.67,10.67,0,0,1-3.84-4.229s.791,4.444,3.277,6.193,8.961,3.023,8.961,3.023Z" transform="translate(-132.292 -234.96)" fill="#f28f8f"/><path d="M269.037,290.766a1.515,1.515,0,1,1-1.783-1.267,1.542,1.542,0,0,1,1.783,1.267Z" transform="translate(-136.286 -229.046)" fill="#263238"/><path d="M284.856,286.479a1.488,1.488,0,0,1-1.159,1.769,1.414,1.414,0,0,1-1.729-1.233,1.469,1.469,0,0,1,2.889-.536Z" transform="translate(-141.536 -227.661)" fill="#263238"/><path d="M275.5,287.49l2.688,9.906,4.638-2.634Z" transform="translate(-139.411 -228.391)" fill="#f28f8f"/><path d="M264.9,284.362l-2.714,2.956a2.1,2.1,0,0,1-.121-2.909,1.957,1.957,0,0,1,2.835-.047Z" transform="translate(-134.806 -227.166)" fill="#263238"/><path d="M284.559,282.039,281,280.149a1.95,1.95,0,0,1,2.681-.891,2.131,2.131,0,0,1,.878,2.781Z" transform="translate(-141.225 -225.6)" fill="#263238"/><path d="M274.769,306.452a1.153,1.153,0,1,1-.368-.806,1.159,1.159,0,0,1,.368.806Z" transform="translate(-138.406 -234.277)" fill="#b16668"/><path d="M225.82,320.93c-6.91,1.783-10.053,7.232-10.02,11.548s4.772,19.336,10.945,31.306c5.087,9.859,9.222,8.572,9.222,8.572l5.315-11.669-9.457-30.951S229.794,321.151,225.82,320.93Z" transform="translate(-119.724 -239.418)" fill="#ffa8a7"/><path d="M241.782,350.43c-2.118,3.311-6.7,12.46-5.844,18.766l6.495-16.608Z" transform="translate(-126.33 -249.146)" fill="#f28f8f"/><path d="M258.022,324.174c.744-2.808,1.34-6.535.878-7.969-.617-1.957-1.609-2.218-1.609-2.218a3.277,3.277,0,0,0,1.025-.483,1.247,1.247,0,0,0,.489-1.005c0-.53-1.133-.764-1.6-1.019a11.461,11.461,0,0,1-3.257-2.761,1.87,1.87,0,0,0-1.34-.7c-.409-.952-.831-1.816-1.521-2.084a1.863,1.863,0,0,0-1.488.047,2.9,2.9,0,0,0-1.34-1.515,2.078,2.078,0,0,0-1.521.141,7.779,7.779,0,0,0-1.227-1.146,2.332,2.332,0,0,0-2.647.328,6.169,6.169,0,0,0-1.622,3.029,19.353,19.353,0,0,0-.757,3.083,25.093,25.093,0,0,0-.322,2.929,3.848,3.848,0,0,0,.208,1.676c.543,1.166,7.507,8.592,7.507,8.592-.214,3.961-9.752,21.628-11.347,26.99-1.662,5.6,1.139,14.584,3.887,15.817s6.2,1.2,9.973-5.549C254.577,352.846,256.179,331.111,258.022,324.174Z" transform="translate(-126.397 -233.567)" fill="#ffa8a7"/><path d="M265.017,317.467a4.832,4.832,0,0,1-1.85.127,3.009,3.009,0,0,1-2.232-1.059s-.308-2.54-.563-2.312,0,2.212,0,2.212a3.525,3.525,0,0,1-1.092-.737c-.509.389.268.918,1.066,1.34a9.718,9.718,0,0,0,1.454.724,7.259,7.259,0,0,0,2.466.255,1.682,1.682,0,0,1,1.448.4C265.406,318.05,265.017,317.467,265.017,317.467Z" transform="translate(-134.009 -237.202)" fill="#b16668"/><path d="M258.763,310.343c-.094,0-.181.114-.268.107a4.187,4.187,0,0,0-2.848,1.153,12.178,12.178,0,0,0-2.406,2.983,5.124,5.124,0,0,1,1.568-2.775C256.283,310.256,257.831,309.854,258.763,310.343Z" transform="translate(-132.071 -235.862)" fill="#b16668"/><path d="M253.933,307.09v.295a10.488,10.488,0,0,0-4.993,4.886s0-1.34,1.924-3.318a6.977,6.977,0,0,1,3.07-1.863Z" transform="translate(-130.653 -234.854)" fill="#b16668"/><path d="M249.517,304.57a5.823,5.823,0,0,0-1.944,1.93,11.065,11.065,0,0,0-1.823,3.586c.483-.945,2.158-4.021,4.417-5.007A1.092,1.092,0,0,1,249.517,304.57Z" transform="translate(-129.601 -234.023)" fill="#b16668"/><path d="M249.77,328.65c2.218,1.723,4.926,2.795,6.334,2.795a8.445,8.445,0,0,1-3.706.047Z" transform="translate(-130.926 -241.964)" fill="#b16668"/><path d="M256.2,346.891c.932-5.59,1.642-11.22,2.54-16.816.228-1.4.462-2.8.744-4.2s.67-2.748.945-4.142a24.044,24.044,0,0,0,.489-4.2,6.7,6.7,0,0,0-.074-1.039,4.837,4.837,0,0,0-.322-.985,2.808,2.808,0,0,0-1.3-1.5h0a.107.107,0,0,1-.06-.134.147.147,0,0,1,.067-.06,2.621,2.621,0,0,0,1.072-.543,1.253,1.253,0,0,0,.315-.483.67.67,0,0,0,0-.516,2.467,2.467,0,0,0-1.039-.57,5.726,5.726,0,0,1-1.133-.6,10,10,0,0,1-1.937-1.662c-.295-.295-.576-.623-.871-.9a1.5,1.5,0,0,0-1.032-.469.114.114,0,0,1-.121-.074,5.362,5.362,0,0,0-1.032-1.743,1.481,1.481,0,0,0-.865-.382,1.97,1.97,0,0,0-.952.161.127.127,0,0,1-.168-.067h0a2.9,2.9,0,0,0-1.066-1.34,1.8,1.8,0,0,0-1.635,0,.141.141,0,0,1-.161,0,5,5,0,0,0-1.441-1.253,2.178,2.178,0,0,0-1.81.154,3.19,3.19,0,0,0-1.3,1.34,12.4,12.4,0,0,0-.71,1.823,19.55,19.55,0,0,0-.891,3.834c-.1.67-.168,1.3-.208,1.957a6.818,6.818,0,0,0,0,.979,2.192,2.192,0,0,0,.181.911h0a19.394,19.394,0,0,0,1.743,2.225c.617.724,1.247,1.434,1.883,2.145q1.9,2.125,3.854,4.209a.087.087,0,0,1,0,.054,7.763,7.763,0,0,1-.483,1.93c-.221.63-.476,1.233-.731,1.843-.523,1.206-1.086,2.4-1.649,3.586-1.133,2.379-2.272,4.752-3.351,7.158,1.046-2.42,2.158-4.806,3.257-7.192.55-1.2,1.1-2.393,1.609-3.606.255-.6.509-1.213.724-1.836a7.787,7.787,0,0,0,.462-1.89v.06c-1.3-1.394-2.594-2.788-3.867-4.2-.67-.71-1.273-1.421-1.9-2.138a18.988,18.988,0,0,1-1.769-2.265h0a2.2,2.2,0,0,1-.221-1.005,8.372,8.372,0,0,1,0-1.005c.04-.67.107-1.34.2-1.977a20.285,20.285,0,0,1,.891-3.874,13.484,13.484,0,0,1,.717-1.863,3.445,3.445,0,0,1,1.394-1.461,2.426,2.426,0,0,1,2.011-.161,2.936,2.936,0,0,1,.844.59,6.7,6.7,0,0,1,.67.717h-.154a2.258,2.258,0,0,1,.932-.241,1.7,1.7,0,0,1,.952.214,2.426,2.426,0,0,1,.71.67,4.02,4.02,0,0,1,.476.824l-.174-.074a2.138,2.138,0,0,1,1.086-.174,1.729,1.729,0,0,1,1.005.449,5.563,5.563,0,0,1,1.086,1.83l-.121-.074a1.756,1.756,0,0,1,1.213.536c.315.308.583.617.878.925a9.31,9.31,0,0,0,1.89,1.629,5.893,5.893,0,0,0,1.086.59,2.5,2.5,0,0,1,1.139.67,1.139,1.139,0,0,1-.342,1.273,2.848,2.848,0,0,1-1.159.59v-.2a2.916,2.916,0,0,1,1.428,1.622,4.772,4.772,0,0,1,.335,1.032,6.412,6.412,0,0,1,.074,1.072,23,23,0,0,1-.509,4.236c-.261,1.4-.67,2.761-.958,4.142s-.523,2.788-.757,4.182l-1.34,8.4C257.14,341.3,256.691,344.1,256.2,346.891Z" transform="translate(-128.357 -233.49)" fill="#b16668"/><g transform="translate(147.027 89.677)"><path d="M337.878,349.2a9.115,9.115,0,0,0-4.021-1.622,21.977,21.977,0,0,0-9.544,3.2c-1.93,1.193-2.728,1.387-5.925,1.823-2.748.375-14.524,1.649-14.691,1.448l-11.876,7.594c2.011,3.854,3.438,7.332,8.968,6.461,3.452-.543,16.333-4.457,20.536-5.637a16.755,16.755,0,0,1,8.532-.248c3.539.67,5.643.094,9.423-.416C345.646,360.911,341.4,351.983,337.878,349.2Z" transform="translate(-291.82 -337.884)" fill="#ffa8a7"/><path d="M352.915,356.209l4.149,8.143-.938.141-4.062-7.547s-1.863-1.407-3.244-1.005C349.892,353.468,352.915,356.209,352.915,356.209Z" transform="translate(-310.617 -340.3)" fill="#f28f8f"/><path d="M352.629,359.37a6.783,6.783,0,0,1-4.819,3.123s2.513.891,5.456-2.1Z" transform="translate(-310.284 -341.772)" fill="#f28f8f"/><g transform="translate(35.299)"><path d="M368.079,372.8l.831,5.71a.174.174,0,0,1-.295.147l-4.155-4.021Z" transform="translate(-351.074 -346.201)" fill="#ffa8a7"/><path d="M370.225,380.917a.174.174,0,0,0,.295-.147l-.161-1.119h0a.972.972,0,0,1-.925.416h-.094Z" transform="translate(-352.683 -348.459)" fill="#263238"/><path d="M348,342.28l.241.469.295.576,10.529,20.616a2.614,2.614,0,0,0,1.883-.067,2.681,2.681,0,0,0,1.736-1.749l-10.529-20.6-.556-1.1C351.887,341.161,348.3,343,348,342.28Z" transform="translate(-345.646 -335.526)" fill="#1565c0"/><path d="M348,342.28l.241.469.295.576,10.529,20.616a2.614,2.614,0,0,0,1.883-.067,2.681,2.681,0,0,0,1.736-1.749l-10.529-20.6-.556-1.1C351.887,341.161,348.3,343,348,342.28Z" transform="translate(-345.646 -335.526)" opacity="0.15"/><path d="M349.32,344.977l.543,1.059c.147.315.9.174,1.7-.141,1.052-.422,2.1-1.307,1.9-1.716l-.4-.784-.147-.275c.194.409-.844,1.294-1.9,1.716-.764.3-1.495.442-1.676.174h0Z" transform="translate(-346.081 -336.413)" fill="#ebebeb"/><path d="M349.263,344.842c.342.731,3.928-1.133,3.592-1.857l-.543-1.066c.342.731-3.251,2.587-3.592,1.863Z" transform="translate(-345.883 -336.017)" fill="#1565c0"/><path d="M348,342.28l.536,1.046c.328.717,3.807-1.046,3.619-1.8a.168.168,0,0,0,0-.047l-.543-1.052C351.887,341.161,348.3,343,348,342.28Z" transform="translate(-345.646 -335.526)" fill="#ebebeb"/><path d="M363.345,368.646l.107-.181-2.044-4.236-11.139-21.8c.067-.034.074-.067,0-.094-.965.556-2.172.952-2.359.55l.241.469.295.576,10.529,20.616h0l4.155,4.021a.168.168,0,0,0,.214.074Z" transform="translate(-345.616 -336.156)" opacity="0.15"/><path d="M344.537,335.427l2.272,4.457c.141.308.891.174,1.682-.134,1.052-.422,2.1-1.294,1.917-1.716h0l-2.272-4.464c-.462-.885-2.373-.181-3.257.737A1.039,1.039,0,0,0,344.537,335.427Z" transform="translate(-344.488 -333.13)" fill="#f28f8f"/><path d="M345.87,335.718a3.123,3.123,0,0,0,2.225-1.662.717.717,0,0,0-.054-.67c-.576-.67-2.332,0-3.17.865a1.052,1.052,0,0,0-.342,1.106C344.7,335.718,345.2,335.872,345.87,335.718Z" transform="translate(-344.488 -333.113)" opacity="0.1"/></g><path d="M357.33,348.239a10.6,10.6,0,0,1,2.044.067,7.1,7.1,0,0,1,2.9.885,2.359,2.359,0,0,1,.858.764,3.485,3.485,0,0,1,.328,1.139c.382,2.044,2.078,3.177,2.466,5.174a40.893,40.893,0,0,1-.335,4.919,15.368,15.368,0,0,0-.08,1.588c-.281.523-.751.308-1.066.1a2.352,2.352,0,0,1-.865-1.662c-.067-.315-.188-1.092-.188-1.092-.174.409-.529.483-1.012.295s-.824-1.2-.938-1.8c-.275-1.475-.168-2.172-.456-3.2,0,0-.67-1.34-.784-1.528Z" transform="translate(-313.423 -338.094)" fill="#ffa8a7"/><path d="M367.784,365.156a2.3,2.3,0,0,1-.844-1.709,12.338,12.338,0,0,1,.322-3.452,6.1,6.1,0,0,0,.047-2.869c-.261-.8-.67-2.547-.67-2.547s.08.6.221,1.635a9.583,9.583,0,0,1,0,3.043c-.174.784-.342,1.95-.489,2.962,0,0,.121.777.188,1.092a2.352,2.352,0,0,0,.865,1.662A1.407,1.407,0,0,0,367.784,365.156Z" transform="translate(-316.405 -340.192)" fill="#f28f8f"/><path d="M362.5,353.94s.509.469.08,1.461a1.615,1.615,0,0,1-.7.885l-.268-.516Z" transform="translate(-314.835 -339.981)" fill="#f28f8f"/><path d="M340.329,350.846c2.755-1.448,4.229-3.4,6.97-2.862,1.783.355,3.07,1.414,5.818,2.9.979.536,2.332.938,2.366,1.066.462,1.682-1.676,2.641-4.517,2.165-1.448-.241-3.7-1.568-4.946-.5a5.837,5.837,0,0,1-2.835,3.184S340.235,355.243,340.329,350.846Z" transform="translate(-307.816 -337.986)" fill="#ffa8a7"/></g></g><g transform="translate(161.682 128.713)"><g transform="translate(9.7 9.51)"><path d="M265.615,235.113a2.353,2.353,0,1,1-2.326-2.373,2.353,2.353,0,0,1,2.326,2.373Z" transform="translate(-252.257 -204.301)" fill="#37474f"/><path d="M259.651,234.513c-1.548-.912-1.535-2.373,0-3.251a6.213,6.213,0,0,1,5.637.06c1.548.912,1.528,2.373-.033,3.251a6.213,6.213,0,0,1-5.6-.06Z" transform="translate(-251.46 -203.601)" fill="#455a64"/><path d="M259.518,233.185c-1.6-.938-1.575-2.44.04-3.351a6.421,6.421,0,0,1,5.8.06c1.6.945,1.582,2.446-.034,3.351a6.434,6.434,0,0,1-5.811-.06Z" transform="translate(-251.407 -203.124)" fill="#37474f"/><path d="M259.4,231.822c-1.642-.972-1.622-2.52.04-3.458a6.608,6.608,0,0,1,5.985.067c1.642.972,1.629,2.52-.033,3.452A6.622,6.622,0,0,1,259.4,231.822Z" transform="translate(-251.357 -202.633)" fill="#455a64"/><path d="M259.24,230.411c-1.7-1-1.676-2.594.04-3.559a6.823,6.823,0,0,1,6.166.06c1.7,1.005,1.682,2.6-.034,3.566a6.816,6.816,0,0,1-6.173-.067Z" transform="translate(-251.291 -202.127)" fill="#37474f"/><path d="M259.148,228.958c-1.729-1.025-1.709-2.647.04-3.633a6.964,6.964,0,0,1,6.293.06c1.729,1.025,1.716,2.681-.034,3.639a6.957,6.957,0,0,1-6.3-.067Z" transform="translate(-251.252 -201.618)" fill="#455a64"/><path d="M259.333,190.31A11.2,11.2,0,0,0,248,201.388c-.094,8.887,7.225,10.435,7.185,14.021A1.924,1.924,0,0,0,256.3,217a6.032,6.032,0,0,0,5.462.06,1.924,1.924,0,0,0,1.153-1.568h0c.034-3.579,7.372-4.98,7.48-13.867A11.2,11.2,0,0,0,259.333,190.31Z" transform="translate(-247.999 -190.309)" fill="#fb8c00"/><g transform="translate(1)" opacity="0.6"><path d="M259.333,190.31A11.2,11.2,0,0,0,248,201.388c-.094,8.887,7.225,10.435,7.185,14.021A1.924,1.924,0,0,0,256.3,217a6.032,6.032,0,0,0,5.462.06,1.924,1.924,0,0,0,1.153-1.568h0c.034-3.579,7.372-4.98,7.48-13.867A11.2,11.2,0,0,0,259.333,190.31Z" transform="translate(-247.999 -190.309)" fill="#fff"/></g><path d="M261.017,228.021a1.258,1.258,0,0,1,0-2.373,4.551,4.551,0,0,1,4.108.04,1.258,1.258,0,0,1,0,2.373A4.551,4.551,0,0,1,261.017,228.021Z" transform="translate(-252.015 -201.808)" fill="#1565c0"/><path d="M263.277,220.5a.375.375,0,0,1-.375-.375,27.277,27.277,0,0,1,.851-6.387,13.494,13.494,0,0,1,.576-1.776,5.188,5.188,0,0,1-.965-.483,6.441,6.441,0,0,1-1.475-1.267,6.616,6.616,0,0,1-1.495,1.233,4.751,4.751,0,0,1-.978.462,13.936,13.936,0,0,1,.536,1.79,26.729,26.729,0,0,1,.717,6.4.382.382,0,1,1-.757,0,26.88,26.88,0,0,0-.67-6.206,12.188,12.188,0,0,0-.543-1.783,2.379,2.379,0,0,1-2.111-.67,1.206,1.206,0,0,1-.147-1.568,1.012,1.012,0,0,1,1.039-.422c.6.127,1.173.744,1.662,1.756a4.334,4.334,0,0,0,.885-.416,5.71,5.71,0,0,0,1.408-1.206,2.808,2.808,0,0,1-.536-2.138,1.072,1.072,0,0,1,2.044,0,2.842,2.842,0,0,1-.576,2.131,5.7,5.7,0,0,0,1.4,1.233,4.209,4.209,0,0,0,.878.429c.516-.992,1.106-1.6,1.7-1.716a1.012,1.012,0,0,1,1.032.442,1.22,1.22,0,0,1-.181,1.568,2.373,2.373,0,0,1-2.125.6,12.437,12.437,0,0,0-.583,1.769,26.756,26.756,0,0,0-.831,6.193.382.382,0,0,1-.375.382Zm-6.032-10.308a.261.261,0,0,0-.214.141.459.459,0,0,0,.094.6,1.508,1.508,0,0,0,1.213.416c-.4-.744-.784-1.1-1.039-1.153Zm8.21,1.24a1.535,1.535,0,0,0,1.22-.4c.067-.08.295-.349.107-.6-.1-.147-.194-.154-.268-.134C266.232,210.344,265.837,210.686,265.455,211.43Zm-3.505-3.968c-.194,0-.261.08-.295.2a1.863,1.863,0,0,0,.275,1.247,1.83,1.83,0,0,0,.308-1.24.261.261,0,0,0-.315-.208Z" transform="translate(-250.709 -195.712)" fill="#fff"/></g><path d="M264.625,181.4a.906.906,0,0,1-.194,0,.744.744,0,0,1-.731-.737v-3.814a.731.731,0,1,1,1.461,0v3.814A.744.744,0,0,1,264.625,181.4Z" transform="translate(-243.476 -176.12)" fill="#e0e0e0"/><path d="M251.544,184.814a.724.724,0,0,1-.824-.342l-1.9-3.311a.732.732,0,1,1,1.273-.724l1.89,3.311a.724.724,0,0,1-.268.992A.67.67,0,0,1,251.544,184.814Z" transform="translate(-238.538 -177.422)" fill="#e0e0e0"/><path d="M241.942,194.349a.764.764,0,0,1-.563-.074l-3.284-1.937a.731.731,0,0,1,.737-1.26l3.291,1.917a.731.731,0,0,1-.174,1.34Z" transform="translate(-234.921 -181.025)" fill="#e0e0e0"/><path d="M238.341,207.4a.67.67,0,0,1-.194,0h-3.814a.737.737,0,1,1,0-1.468h3.807a.731.731,0,0,1,.194,1.434Z" transform="translate(-233.525 -185.949)" fill="#e0e0e0"/><path d="M288.787,221.659a.71.71,0,0,1-.556-.074l-3.291-1.917a.731.731,0,0,1,.731-1.267l3.3,1.924a.724.724,0,0,1,.261,1,.711.711,0,0,1-.442.335Z" transform="translate(-250.36 -190.031)" fill="#e0e0e0"/><path d="M238.453,221.658a.71.71,0,0,0,.556-.074l3.3-1.917a.733.733,0,0,0-.737-1.267l-3.3,1.924a.731.731,0,0,0-.261,1A.71.71,0,0,0,238.453,221.658Z" transform="translate(-234.972 -190.03)" fill="#e0e0e0"/><path d="M292.609,207.631a.907.907,0,0,1-.194,0H288.6a.731.731,0,1,1,0-1.461h3.814a.731.731,0,0,1,.188,1.441Z" transform="translate(-251.447 -186.03)" fill="#e0e0e0"/><path d="M285.61,194.542a.737.737,0,0,1-.556-1.34l3.311-1.89a.731.731,0,0,1,.731,1.267l-3.311,1.9A.8.8,0,0,1,285.61,194.542Z" transform="translate(-250.406 -181.098)" fill="#e0e0e0"/><path d="M276.747,184.922a.71.71,0,0,1-.556-.074.724.724,0,0,1-.261-1l1.917-3.291a.724.724,0,0,1,1-.268.737.737,0,0,1,.268,1l-1.924,3.3a.711.711,0,0,1-.442.335Z" transform="translate(-247.475 -177.462)" fill="#e0e0e0"/></g><g transform="translate(37.116 37.501)"><g transform="translate(0 96.318)"><rect width="56.681" height="34.731" rx="6.6" transform="translate(0.335 10.985)" fill="#fafafa"/><path d="M100.256,235.025H52.429a4.759,4.759,0,0,1-4.759-4.759V204.389a4.759,4.759,0,0,1,4.759-4.759h47.827a4.765,4.765,0,0,1,4.765,4.759v25.877a4.765,4.765,0,0,1-4.765,4.759ZM52.429,200.3a4.088,4.088,0,0,0-4.088,4.088v25.877a4.088,4.088,0,0,0,4.088,4.088h47.827a4.1,4.1,0,0,0,4.1-4.088V204.389a4.1,4.1,0,0,0-4.1-4.088Z" transform="translate(-47.67 -188.98)" fill="#e0e0e0"/><path d="M57.8,207.63h43.766V230.8a2.3,2.3,0,0,1-2.3,2.3H60.1a2.3,2.3,0,0,1-2.3-2.3Z" transform="translate(-51.011 -191.618)" fill="#26aab7"/><path d="M57.8,207.63l20.449,15.522a2.373,2.373,0,0,0,2.869,0l20.449-15.522Z" transform="translate(-51.011 -191.618)" opacity="0.3"/><path d="M101.566,199.752,81.117,184.223a2.373,2.373,0,0,0-2.869,0L57.8,199.752Z" transform="translate(-51.011 -183.74)" fill="#26aab7"/><path d="M101.569,207.63l-5.295,4.021-15.154,11.5a2.366,2.366,0,0,1-2.862,0L63.1,211.651,57.81,207.63Z" transform="translate(-51.014 -191.618)" opacity="0.3"/><path d="M98.876,190.69v15.382L83.722,217.566a2.366,2.366,0,0,1-2.862,0L65.7,206.065V190.69Z" transform="translate(-53.616 -186.032)" fill="#fff"/><path d="M98.025,191.568v14.075L83.206,216.889a1.468,1.468,0,0,1-.918.315,1.5,1.5,0,0,1-.918-.315l-14.8-11.246V191.568h31.5m.851-.851H65.7v15.375l15.161,11.5a2.366,2.366,0,0,0,2.862,0L98.876,206.1V190.69Z" transform="translate(-53.616 -186.032)" fill="#e0e0e0"/><rect width="26.259" height="1.662" transform="translate(15.543 8.338)" fill="#1565c0"/><rect width="26.259" height="0.831" transform="translate(15.543 12.801)" fill="#e0e0e0"/><rect width="26.259" height="0.831" transform="translate(15.543 15.167)" fill="#e0e0e0"/><rect width="26.259" height="0.831" transform="translate(15.543 17.526)" fill="#e0e0e0"/><circle cx="1.434" cy="1.434" r="1.434" transform="translate(109.207 57.03)" fill="#e0e0e0"/><path d="M172.26,264.87H107.985a.342.342,0,0,1-.194-.067L90.1,252.068a.328.328,0,0,1-.074-.456.322.322,0,0,1,.456-.074l17.6,12.681H172.26a.322.322,0,0,1,.328.322.328.328,0,0,1-.328.328Z" transform="translate(-61.619 -206.077)" fill="#e0e0e0"/></g><g transform="translate(28.605 44.745)"><path d="M90.35,106.817v31.7h7.607c2.567,0,3.793-.1,4.377-.543.456-.342.516-.891.516-1.763a2.9,2.9,0,0,0-.469-1.89l-.04-.074a4.41,4.41,0,0,1-.777-2.52,1.784,1.784,0,0,1,0-.2h0v-.241a4.692,4.692,0,0,1,4.658-4.658h0a4.692,4.692,0,0,1,4.651,4.658,3.52,3.52,0,0,1,0,.375.731.731,0,0,1,0,.121,1.932,1.932,0,0,1-.04.489,4.155,4.155,0,0,1-.731,2.011,2.942,2.942,0,0,0-.509,1.964c0,1.119.1,1.709,1.005,2.011a14.4,14.4,0,0,0,3.881.295h7.62v-7.761c0-4.1.188-6.24,3.767-6.24a4.35,4.35,0,0,1,2.755.737,3.023,3.023,0,0,0,1.8.55h.389a3.19,3.19,0,1,0,0-6.381,4.92,4.92,0,0,0-2.192.57,4.35,4.35,0,0,1-2.755.737c-3.579,0-3.753-2.138-3.767-6.233v-7.714h-7.667a14.4,14.4,0,0,0-3.881.295c-.9.3-1.005.891-1.005,2.011a2.942,2.942,0,0,0,.509,1.964,4.249,4.249,0,0,1,.67,1.682c.04.248.074.523.094.838v.027a3.836,3.836,0,0,1,0,.416,4.658,4.658,0,1,1-9.316,0,1,1,0,0,1,0-.141v-.349a4.384,4.384,0,0,1,.778-2.494c.053-.08.1-.16.147-.24a3.083,3.083,0,0,0,.362-1.722c0-.871-.06-1.421-.516-1.763-.583-.442-1.81-.543-4.377-.543Z" transform="translate(-90.35 -106.792)" fill="#455a64"/><path d="M232.859,231.568a1.434,1.434,0,1,1-1.434-1.428A1.434,1.434,0,0,1,232.859,231.568Z" transform="translate(-136.399 -147.469)" fill="#e0e0e0"/><path d="M193.952,209.211h-14.6a.342.342,0,0,1-.235-.1L141.782,170.05H116.688a.322.322,0,0,1-.328-.322v-8.043a.335.335,0,0,1,.67,0v7.721h24.906a.328.328,0,0,1,.235.1l37.338,39.061h14.464a.335.335,0,0,1,0,.67Z" transform="translate(-98.927 -124.784)" fill="#e0e0e0"/></g><g transform="translate(81.734)"><path d="M184.4,99.547A14.779,14.779,0,1,1,199.177,84.8,14.778,14.778,0,0,1,184.4,99.547Zm0-28.257a13.478,13.478,0,1,0,13.478,13.451A13.478,13.478,0,0,0,184.4,71.29Z" transform="translate(-169.62 -49.91)" fill="#1565c0"/><circle cx="4.598" cy="4.598" r="4.598" transform="translate(20.743)" fill="#1565c0"/><path d="M242.624,95.959a7.721,7.721,0,1,1,5.462-2.271,7.714,7.714,0,0,1-5.462,2.271Zm0-14.128a6.414,6.414,0,1,0,6.421,6.387A6.414,6.414,0,0,0,242.624,81.83Z" transform="translate(-191.151 -53.386)" fill="#1565c0"/><path d="M217.707,143.533A10.636,10.636,0,1,1,228.343,132.9,10.636,10.636,0,0,1,217.707,143.533Zm0-19.979a9.336,9.336,0,1,1,0,.013Z" transform="translate(-181.97 -67.147)" fill="#1565c0"/><rect width="13.331" height="1.3" transform="matrix(0.299, -0.954, 0.954, 0.299, 19.008, 21.392)" fill="#1565c0"/><rect width="15.496" height="1.3" transform="translate(28.907 34.208)" fill="#1565c0"/><rect width="1.3" height="13.244" transform="matrix(0.81, -0.587, 0.587, 0.81, 22.278, 46.852)" fill="#1565c0"/><path d="M192.5,94.12h-9.624a2.641,2.641,0,0,0-2.607,2.239l-.67,4.162h16.139l-.67-4.162A2.641,2.641,0,0,0,192.5,94.12Z" transform="translate(-172.911 -57.867)" fill="#455a64"/><path d="M194,82.551A4.578,4.578,0,1,1,189.418,78,4.578,4.578,0,0,1,194,82.551Z" transform="translate(-174.639 -52.551)" fill="#455a64"/><path d="M246.757,93.11h-4.323a1.186,1.186,0,0,0-1.173,1.005L241,95.985h7.252l-.288-1.87A1.193,1.193,0,0,0,246.757,93.11Z" transform="translate(-193.159 -57.534)" fill="#1565c0"/><path d="M247.405,87.908a2.058,2.058,0,1,1-2.058-2.058,2.058,2.058,0,0,1,2.058,2.058Z" transform="translate(-193.914 -55.14)" fill="#1565c0"/><path d="M223.539,139.71h-6.863a1.883,1.883,0,0,0-1.863,1.6l-.462,2.969h11.514l-.462-2.969A1.89,1.89,0,0,0,223.539,139.71Z" transform="translate(-184.371 -72.902)" fill="#1565c0"/><path d="M224.591,131.444a3.271,3.271,0,1,1-3.264-3.264A3.271,3.271,0,0,1,224.591,131.444Z" transform="translate(-185.591 -69.1)" fill="#1565c0"/><g transform="translate(29.979 59.081)" opacity="0.4"><path d="M223.539,139.71h-6.863a1.883,1.883,0,0,0-1.863,1.6l-.462,2.969h11.514l-.462-2.969A1.89,1.89,0,0,0,223.539,139.71Z" transform="translate(-214.35 -131.982)" fill="#fff"/><path d="M224.591,131.444a3.271,3.271,0,1,1-3.264-3.264A3.271,3.271,0,0,1,224.591,131.444Z" transform="translate(-215.57 -128.18)" fill="#fff"/></g><path d="M237.4,178.824a1.428,1.428,0,1,1-.416-1.014A1.434,1.434,0,0,1,237.4,178.824Z" transform="translate(-191.026 -85.328)" fill="#e0e0e0"/><path d="M221.682,159.5a.355.355,0,0,1-.181-.054l-30.16-19.986a.328.328,0,0,1-.141-.268V118.162a.315.315,0,0,1,.322-.322.322.322,0,0,1,.328.322v20.864L221.9,158.911a.328.328,0,0,1-.181.6Z" transform="translate(-176.737 -65.69)" fill="#e0e0e0"/></g><g transform="translate(150.52 20.529)"><rect width="36.588" height="34.731" rx="6.6" transform="translate(6.877 0.335)" fill="#fafafa"/><path d="M314.509,106.055H286.775a4.765,4.765,0,0,1-4.765-4.759V75.419a4.765,4.765,0,0,1,4.765-4.759h27.734a4.759,4.759,0,0,1,4.759,4.759V101.3A4.759,4.759,0,0,1,314.509,106.055ZM286.775,71.33a4.1,4.1,0,0,0-4.1,4.088V101.3a4.1,4.1,0,0,0,4.1,4.088h27.734A4.088,4.088,0,0,0,318.6,101.3V75.419a4.088,4.088,0,0,0-4.088-4.088Z" transform="translate(-275.469 -70.66)" fill="#e0e0e0"/><path d="M312.038,99.755a12.305,12.305,0,1,1-5.623-20.174l-3.7,11.742h0a.288.288,0,0,0,.1.228h0Z" transform="translate(-278.332 -73.442)" fill="#26aab7"/><path d="M322.1,82.693l-10.9,6.7,3.887-12.2A13.6,13.6,0,0,1,322.1,82.693Z" transform="translate(-285.095 -72.813)" fill="#1c939f"/><path d="M324.32,94.153a13.6,13.6,0,0,1-3.2,8.787l-9.926-8.713,11.267-6.957a13.606,13.606,0,0,1,1.863,6.883Z" transform="translate(-285.091 -76.138)" fill="#1565c0"/><g transform="translate(26.099 11.132)" opacity="0.3"><path d="M324.32,94.153a13.6,13.6,0,0,1-3.2,8.787l-9.926-8.713,11.267-6.957a13.606,13.606,0,0,1,1.863,6.883Z" transform="translate(-311.19 -87.27)" fill="#b2ebf2"/></g><path d="M275.119,171a1.434,1.434,0,1,1-1.434-1.434A1.434,1.434,0,0,1,275.119,171Z" transform="translate(-272.25 -103.278)" fill="#e0e0e0"/><path d="M274.231,155.817a.389.389,0,0,1-.121,0,.328.328,0,0,1-.181-.422l10.724-25.911a.322.322,0,0,1,.3-.2h12.674v-6.441a.328.328,0,0,1,.328-.322.322.322,0,0,1,.322.322V129.6a.322.322,0,0,1-.322.328H285.182l-10.65,25.69a.335.335,0,0,1-.3.2Z" transform="translate(-272.796 -87.762)" fill="#e0e0e0"/></g><g transform="translate(161.444 44.771)"><rect width="33.444" height="26.058" rx="5.99" transform="translate(47.579)" fill="#455a64"/><circle cx="8.425" cy="8.425" r="8.425" transform="translate(54.158 19.232) rotate(-76.72)" fill="#fafafa"/><path d="M387.449,123.227l-6.548-3.505a.925.925,0,0,0-1.34.818v7a.925.925,0,0,0,1.34.818l6.548-3.505a.925.925,0,0,0,0-1.629Z" transform="translate(-318.563 -111.049)" fill="#fb8c00"/><circle cx="1.434" cy="1.434" r="1.434" transform="translate(0 89.516)" fill="#e0e0e0"/><path d="M304.271,212.074H290.525a.335.335,0,1,1,0-.67h13.565l31.682-50.441a.335.335,0,0,1,.275-.154h14.336v-11.26a.322.322,0,0,1,.322-.328.328.328,0,0,1,.328.328V161.17a.328.328,0,0,1-.328.322H336.228l-31.682,50.441a.328.328,0,0,1-.275.141Z" transform="translate(-289.091 -120.809)" fill="#e0e0e0"/></g><g transform="translate(170.848 85.132)"><path d="M436.125,167.05h-35.8a4.021,4.021,0,0,0-4.021,4.021v18.036a4.021,4.021,0,0,0,4.021,4.021h4.1v5.851a.63.63,0,0,0,1.072.442l6.3-6.293h24.336a4.021,4.021,0,0,0,4.021-4.021V171.038A4.021,4.021,0,0,0,436.125,167.05Z" transform="translate(-333.486 -167.05)" fill="#fb8c00"/><path d="M436.011,177.985H406.173A1.146,1.146,0,0,1,405,176.833h0a1.146,1.146,0,0,1,1.146-1.153h29.839a1.153,1.153,0,0,1,1.186,1.153h0a1.153,1.153,0,0,1-1.159,1.153Z" transform="translate(-336.355 -169.896)" fill="#fafafa"/><path d="M436.011,187.279H406.173A1.146,1.146,0,0,1,405,186.133h0a1.146,1.146,0,0,1,1.146-1.153h29.839a1.153,1.153,0,0,1,1.186,1.153h0a1.153,1.153,0,0,1-1.159,1.146Z" transform="translate(-336.355 -172.963)" fill="#fafafa"/><path d="M436.011,196.579H406.173A1.146,1.146,0,0,1,405,195.433h0a1.146,1.146,0,0,1,1.146-1.153h29.839a1.153,1.153,0,0,1,1.186,1.153h0A1.153,1.153,0,0,1,436.011,196.579Z" transform="translate(-336.355 -176.029)" fill="#fafafa"/><circle cx="1.434" cy="1.434" r="1.434" transform="translate(0 61.205)" fill="#e0e0e0"/><path d="M319.87,236.894H304.555a.335.335,0,0,1,0-.67h15.134l29.624-48.169a.335.335,0,0,1,.275-.154h13.954a.335.335,0,1,1,0,.67H349.775l-29.617,48.169A.328.328,0,0,1,319.87,236.894Z" transform="translate(-303.121 -173.926)" fill="#e0e0e0"/></g><g transform="translate(170.848 130.071)"><rect width="56.681" height="34.731" rx="6.6" transform="translate(35.609 0.335)" fill="#fafafa"/><path d="M407.8,269.5H359.969a4.759,4.759,0,0,1-4.759-4.759V238.865a4.765,4.765,0,0,1,4.759-4.765H407.8a4.772,4.772,0,0,1,4.765,4.765v25.877A4.765,4.765,0,0,1,407.8,269.5ZM359.969,234.77a4.1,4.1,0,0,0-4.088,4.1v25.877a4.1,4.1,0,0,0,4.088,4.088H407.8a4.1,4.1,0,0,0,4.1-4.088V238.865a4.1,4.1,0,0,0-4.1-4.1Z" transform="translate(-319.936 -234.1)" fill="#e0e0e0"/><path d="M413.115,250.69l-9.685,18.994H422.8Z" transform="translate(-335.838 -239.571)" fill="#f8c788"/><path d="M393.225,240.91l-9.685,25.549h19.37Z" transform="translate(-329.278 -236.346)" fill="#fb8c00"/><path d="M373.5,256.04l-9.685,15.409H383.2Z" transform="translate(-322.775 -241.335)" fill="#d17808"/><rect width="2.158" height="2.158" rx="0.45" transform="translate(41.045 3.492)" fill="#1565c0"/><rect width="2.158" height="2.158" rx="0.45" transform="translate(41.045 3.492)" opacity="0.3"/><rect width="2.158" height="2.158" rx="0.45" transform="translate(41.045 6.602)" fill="#1565c0"/><rect width="2.158" height="2.158" rx="0.45" transform="translate(41.045 9.718)" fill="#1565c0"/><rect width="2.158" height="2.158" rx="0.45" transform="translate(41.045 9.718)" fill="#fff" opacity="0.3"/><path d="M356.219,297.461H304.612a.322.322,0,0,1-.322-.328.315.315,0,0,1,.322-.322h51.507L366.9,286.034a.322.322,0,0,1,.456.456l-10.9,10.884a.3.3,0,0,1-.228.087Z" transform="translate(-303.144 -251.195)" fill="#e0e0e0"/><path d="M305.449,301.934a1.434,1.434,0,1,1-1.434-1.434A1.434,1.434,0,0,1,305.449,301.934Z" transform="translate(-302.58 -255.997)" fill="#e0e0e0"/></g><g transform="translate(249.928 152.121)"><rect width="1.85" height="6.742" transform="translate(14.549 15.866) rotate(-45)" fill="#e0e0e0"/><path d="M456.892,303.352h0a1.629,1.629,0,0,1-2.312,0l-6.89-6.89,2.319-2.312,6.883,6.89a1.629,1.629,0,0,1,0,2.312Z" transform="translate(-429.513 -275.953)" fill="#1565c0"/><circle cx="9.551" cy="9.551" r="9.551" transform="translate(0 0.013)" fill="#fff" opacity="0.4"/><path d="M430.121,267a9.544,9.544,0,1,0,6.755,2.8A9.551,9.551,0,0,0,430.121,267Zm0,16.7a7.158,7.158,0,1,1,0,.013Z" transform="translate(-420.57 -267)" fill="#455a64"/></g></g></g></svg>