<svg xmlns="http://www.w3.org/2000/svg" width="296.639" height="293.416" viewBox="0 0 296.639 293.416"><g transform="translate(-24.33 -35)"><g transform="translate(24.33 156.635)"><path d="M277.15,245.209c-58.107-33.519-152.006-33.519-209.738,0s-57.4,87.939.736,121.491,152.006,33.519,209.738,0S335.283,278.755,277.15,245.209Z" transform="translate(-24.33 -220.07)" fill="#f5f5f5"/></g><g transform="translate(39.415 182.885)"><path d="M265.013,289.149c11.791-6.8,30.844-6.8,42.556,0S319.222,307,307.431,313.8s-30.844,6.809-42.563,0S253.216,295.958,265.013,289.149Z" transform="translate(-118.865 -268.249)" fill="#e0e0e0"/><path d="M55.436,335.211a.848.848,0,0,0,0,1.61l6.25,3.634a3.063,3.063,0,0,0,2.787,0l129.66-74.866a.848.848,0,0,0,0-1.61l-6.25-3.635a3.063,3.063,0,0,0-2.787,0Z" transform="translate(-49.878 -260.01)" fill="#e0e0e0"/><path d="M373.738,388.984c-11.9-6.868-31.127-6.868-42.951,0s-11.758,18.008.138,24.876,31.153,6.888,42.983,0S385.634,395.852,373.738,388.984Z" transform="translate(-141.431 -302.451)" fill="#e0e0e0"/><path d="M144.271,409.947c12.9-7.447,33.743-7.447,46.559,0s12.75,19.527-.151,26.947-33.743,7.447-46.559,0S131.369,417.394,144.271,409.947Z" transform="translate(-77.195 -309.488)" fill="#e0e0e0"/></g><g transform="translate(236.651 35.401)"><path d="M351.69,85.886l2.452-1.426,25.915,14.906V102.2Z" transform="translate(-348.857 -52.354)" fill="#f5f5f5"/><path d="M351.687,86.63h0l28.366,16.313v3.24l-28.373-16.3Z" transform="translate(-348.854 -53.098)" fill="#e0e0e0"/><rect height="32.724" transform="translate(2.841 33.536) rotate(-60.09)" fill="#e0e0e0"/><path d="M417.39,123.676l2.452-1.426,25.915,14.906V140Z" transform="translate(-371.377 -65.307)" fill="#f5f5f5"/><path d="M417.387,124.42h0l28.366,16.319v3.234l-28.373-16.3Z" transform="translate(-371.373 -66.051)" fill="#e0e0e0"/><rect height="32.724" transform="translate(46.026 58.379) rotate(-60.09)" fill="#e0e0e0"/><path d="M351.825,44.446l2.452-1.426-.145,73.374-2.452,1.426Z" transform="translate(-348.854 -38.15)" fill="#f0f0f0"/><path d="M351.68,156.086l2.452-1.426,28.228,16.208-2.452,1.42Z" transform="translate(-348.854 -76.416)" fill="#f5f5f5"/><path d="M347.538,37.77l33.868,19.461-.158,79.861L347.38,117.631Zm30.89,94.452.145-73.374-28.261-16.2-.145,73.374,28.228,16.2" transform="translate(-347.38 -36.35)" fill="#e0e0e0"/><path d="M347.62,37.03l2.452-1.42,33.868,19.461L381.488,56.5Z" transform="translate(-347.462 -35.61)" fill="#f5f5f5"/><path d="M399.068,66.646l2.451-1.426-.158,79.861-2.452,1.42Z" transform="translate(-365.042 -45.759)" fill="#f0f0f0"/><path d="M417.525,82.236l2.451-1.426-.145,73.381-2.451,1.426Z" transform="translate(-371.373 -51.103)" fill="#f0f0f0"/><path d="M417.38,193.886l2.451-1.426,28.228,16.2-2.452,1.426Z" transform="translate(-371.373 -89.372)" fill="#f5f5f5"/><path d="M413.234,75.57,447.1,95.031l-.158,79.861L413.07,155.431Zm30.89,94.452.145-73.374L416.047,80.453l-.145,73.381,28.228,16.2" transform="translate(-369.896 -49.307)" fill="#e0e0e0"/><path d="M413.32,74.826l2.451-1.426,33.868,19.461-2.452,1.426Z" transform="translate(-369.982 -48.563)" fill="#f5f5f5"/><path d="M464.768,104.436l2.452-1.426-.158,79.861L464.61,184.3Z" transform="translate(-387.562 -58.712)" fill="#f0f0f0"/></g><g transform="translate(43.626 35)"><path d="M264.682,260.393a8.176,8.176,0,0,1-7.407,0,2.629,2.629,0,0,1-1.544-2.143h0v3.03a2.629,2.629,0,0,0,1.544,2.143,8.176,8.176,0,0,0,7.407,0,2.583,2.583,0,0,0,1.518-2.143v-3.03a2.583,2.583,0,0,1-1.518,2.143Z" transform="translate(-122.941 -111.521)" fill="#455a64"/><path d="M257.269,258.809a8.176,8.176,0,0,0,7.407,0,2.583,2.583,0,0,0,1.518-2.143,2.634,2.634,0,0,0-1.545-2.149,8.156,8.156,0,0,0-7.4,0,2.267,2.267,0,0,0,0,4.292Z" transform="translate(-122.936 -109.938)" fill="#455a64"/><path d="M257.269,258.809a8.176,8.176,0,0,0,7.407,0,2.583,2.583,0,0,0,1.518-2.143,2.634,2.634,0,0,0-1.545-2.149,8.156,8.156,0,0,0-7.4,0,2.267,2.267,0,0,0,0,4.292Z" transform="translate(-122.936 -109.938)" fill="#fff" opacity="0.3"/><path d="M261.44,46.73V185.407h0a.756.756,0,0,0,.44.6,2.313,2.313,0,0,0,2.1,0,.723.723,0,0,0,.427-.6V46.73Z" transform="translate(-124.899 -39.021)" fill="#455a64"/><path d="M274.509,36.834v-.112a.125.125,0,0,1,0-.053v-.053h0v-.171a.19.19,0,0,1,0-.059v-.046h0v-.118h0V36.13h0l-.053-.118h0v-.046a.271.271,0,0,1-.033-.059h0v-.053a.4.4,0,0,1-.046-.066h0l-.072-.105h0l-.053-.066-.039-.046h0a.3.3,0,0,1-.046-.046l-.046-.053h0a.079.079,0,0,0,0-.033.151.151,0,0,0-.046-.046h0l-.053-.046h0l-.046-.039h-.039L273.445,35h-.736a.2.2,0,0,0-.085.039L261.45,41.526a.25.25,0,0,1,.085-.039H262l.112.039h0l.112.053.112.072h0l.131-.079h0l.1.085h0l.1.1h0l.092.105h0l.092.118h0l.079.112.046.072.039.066h0l.059.105h0l.059.131h0l.046.125h0a.631.631,0,0,0,.046.131h0a.959.959,0,0,1,0,.131h0v.131h0a.989.989,0,0,1,0,.131h0a.883.883,0,0,1,0,.131.716.716,0,0,1,0,.118h0a.513.513,0,0,1,0,.105h0v.092h0v.079h0l-.046.085h0l-.046.059h0l-.039.039h0l-.066.046h0L274.2,37.386l.066-.039h0l.039-.039h0l.039-.059h0a.5.5,0,0,0,.046-.079h0v-.085a.19.19,0,0,0,0-.059v.026h0a.125.125,0,0,1,0-.053v-.059h0Z" transform="translate(-124.902 -35)" fill="#455a64"/><path d="M274.509,36.834v-.112a.125.125,0,0,1,0-.053v-.053h0v-.171a.19.19,0,0,1,0-.059v-.046h0v-.118h0V36.13h0l-.053-.118h0v-.046a.271.271,0,0,1-.033-.059h0v-.053a.4.4,0,0,1-.046-.066h0l-.072-.105h0l-.053-.066-.039-.046h0a.3.3,0,0,1-.046-.046l-.046-.053h0a.079.079,0,0,0,0-.033.151.151,0,0,0-.046-.046h0l-.053-.046h0l-.046-.039h-.039L273.445,35h-.736a.2.2,0,0,0-.085.039L261.45,41.526a.25.25,0,0,1,.085-.039H262l.112.039h0l.112.053.112.072h0l.131-.079h0l.1.085h0l.1.1h0l.092.105h0l.092.118h0l.079.112.046.072.039.066h0l.059.105h0l.059.131h0l.046.125h0a.631.631,0,0,0,.046.131h0a.959.959,0,0,1,0,.131h0v.131h0a.989.989,0,0,1,0,.131h0a.883.883,0,0,1,0,.131.716.716,0,0,1,0,.118h0a.513.513,0,0,1,0,.105h0v.092h0v.079h0l-.046.085h0l-.046.059h0l-.039.039h0l-.066.046h0L274.2,37.386l.066-.039h0l.039-.039h0l.039-.059h0a.5.5,0,0,0,.046-.079h0v-.085a.19.19,0,0,0,0-.059v.026h0a.125.125,0,0,1,0-.053v-.059h0Z" transform="translate(-124.902 -35)" fill="#fff" opacity="0.3"/><path d="M69.08,116.278v112.1L195.618,155.39V42.93Z" transform="translate(-58.965 -37.718)" fill="#1565c0"/><path d="M69.08,116.278v112.1L195.618,155.39V42.93Z" transform="translate(-58.965 -37.718)" fill="#fff" opacity="0.2"/><path d="M71.459,152.3a5.192,5.192,0,0,1,2.359,4.088c0,1.505-1.065,2.11-2.373,1.354a5.2,5.2,0,0,1-2.366-4.088C69.087,152.149,70.151,151.544,71.459,152.3Z" transform="translate(-58.965 -75.094)" fill="#1565c0"/><path d="M201.2,44.787a.712.712,0,0,0,0-.118V44.32h0v-.112a.694.694,0,0,0,0-.125v-.046h0v-.053a.208.208,0,0,0-.033-.125c-.033-.039,0-.059,0-.092h0a.46.46,0,0,0-.039-.125l-.039-.118v-.039l-.033-.079a.572.572,0,0,0-.046-.112.328.328,0,0,0-.033-.085h0c0-.033-.033-.072-.053-.112l-.059-.125h0a.717.717,0,0,1-.053-.1l-.072-.118-.033-.066h0c0-.039-.046-.072-.066-.105s-.059-.105-.092-.151h0a2.436,2.436,0,0,0-.151-.21h0a.763.763,0,0,0-.105-.138.715.715,0,0,0-.085-.112h0l-.085-.105a.7.7,0,0,1-.092-.105h0a.617.617,0,0,1-.066-.066l-.1-.1h-.033a.3.3,0,0,1-.046-.046l-.105-.092-.046-.039h0a.066.066,0,0,1-.033,0l-.105-.079-.079-.053h0l-.1-.066-.1-.066h0l-.072-.039-.1-.053h-.066l-.092-.039h-.8a.467.467,0,0,0-.138,0h-.033a.769.769,0,0,0-.131.039h0l-.184.085L70.13,114.106a.939.939,0,0,1,.184-.085l.145-.046h.421l.2.033h0a1.19,1.19,0,0,1,.2.059h0l.223.092h0l.237.125a2.371,2.371,0,0,1,.237.151h0l.217.164h0a1.716,1.716,0,0,1,.2.177h0l.2.2h0c.072.072.138.151.2.23h0c.066.079.131.164.191.25h0l.164.237.1.151.079.131a.269.269,0,0,1,0,.059,1.452,1.452,0,0,1,.118.223h0c.046.092.092.184.131.276h0c.039.092.079.184.112.276h0a1.285,1.285,0,0,0,.092.283h0a1.426,1.426,0,0,0,.072.276h0a2.041,2.041,0,0,0,.053.276h0a1.97,1.97,0,0,1,0,.276h0v.269a1.714,1.714,0,0,1,0,.263h0v.223h0a1.452,1.452,0,0,1-.046.2h0a1.316,1.316,0,0,1-.066.171h0l-.1.171h0a.874.874,0,0,1-.092.125l-.039.039a.526.526,0,0,1-.085.085l-.039.033-.138.1h0l127.2-73.184a1.006,1.006,0,0,0,.138-.092h.039a1.04,1.04,0,0,0,.085-.085l.039-.046a.566.566,0,0,0,.092-.118h0c.033-.053.059-.105.085-.158h0c0-.039.033-.072.046-.112V45.74h0v-.033a.8.8,0,0,0,0-.118.132.132,0,0,0,0-.046h0a.421.421,0,0,1,0-.046v-.112a.224.224,0,0,0,0-.066v-.276h0Z" transform="translate(-59.325 -37.064)" fill="#1565c0"/><path d="M201.2,44.787a.712.712,0,0,0,0-.118V44.32h0v-.112a.694.694,0,0,0,0-.125v-.046h0v-.053a.208.208,0,0,0-.033-.125c-.033-.039,0-.059,0-.092h0a.46.46,0,0,0-.039-.125l-.039-.118v-.039l-.033-.079a.572.572,0,0,0-.046-.112.328.328,0,0,0-.033-.085h0c0-.033-.033-.072-.053-.112l-.059-.125h0a.717.717,0,0,1-.053-.1l-.072-.118-.033-.066h0c0-.039-.046-.072-.066-.105s-.059-.105-.092-.151h0a2.436,2.436,0,0,0-.151-.21h0a.763.763,0,0,0-.105-.138.715.715,0,0,0-.085-.112h0l-.085-.105a.7.7,0,0,1-.092-.105h0a.617.617,0,0,1-.066-.066l-.1-.1h-.033a.3.3,0,0,1-.046-.046l-.105-.092-.046-.039h0a.066.066,0,0,1-.033,0l-.105-.079-.079-.053h0l-.1-.066-.1-.066h0l-.072-.039-.1-.053h-.066l-.092-.039h-.8a.467.467,0,0,0-.138,0h-.033a.769.769,0,0,0-.131.039h0l-.184.085L70.13,114.106a.939.939,0,0,1,.184-.085l.145-.046h.421l.2.033h0a1.19,1.19,0,0,1,.2.059h0l.223.092h0l.237.125a2.371,2.371,0,0,1,.237.151h0l.217.164h0a1.716,1.716,0,0,1,.2.177h0l.2.2h0c.072.072.138.151.2.23h0c.066.079.131.164.191.25h0l.164.237.1.151.079.131a.269.269,0,0,1,0,.059,1.452,1.452,0,0,1,.118.223h0c.046.092.092.184.131.276h0c.039.092.079.184.112.276h0a1.285,1.285,0,0,0,.092.283h0a1.426,1.426,0,0,0,.072.276h0a2.041,2.041,0,0,0,.053.276h0a1.97,1.97,0,0,1,0,.276h0v.269a1.714,1.714,0,0,1,0,.263h0v.223h0a1.452,1.452,0,0,1-.046.2h0a1.316,1.316,0,0,1-.066.171h0l-.1.171h0a.874.874,0,0,1-.092.125l-.039.039a.526.526,0,0,1-.085.085l-.039.033-.138.1h0l127.2-73.184a1.006,1.006,0,0,0,.138-.092h.039a1.04,1.04,0,0,0,.085-.085l.039-.046a.566.566,0,0,0,.092-.118h0c.033-.053.059-.105.085-.158h0c0-.039.033-.072.046-.112V45.74h0v-.033a.8.8,0,0,0,0-.118.132.132,0,0,0,0-.046h0a.421.421,0,0,1,0-.046v-.112a.224.224,0,0,0,0-.066v-.276h0Z" transform="translate(-59.325 -37.064)" fill="#fff" opacity="0.4"/><path d="M70.065,372.769a8.156,8.156,0,0,1-7.4,0,2.629,2.629,0,0,1-1.545-2.149h0v3.036a2.617,2.617,0,0,0,1.545,2.143,8.156,8.156,0,0,0,7.4,0,2.629,2.629,0,0,0,1.525-2.143V370.62a2.629,2.629,0,0,1-1.525,2.149Z" transform="translate(-56.237 -150.037)" fill="#455a64"/><path d="M62.675,371.189a8.156,8.156,0,0,0,7.4,0,2.268,2.268,0,0,0,0-4.292,8.176,8.176,0,0,0-7.407,0,2.583,2.583,0,0,0-1.518,2.143A2.629,2.629,0,0,0,62.675,371.189Z" transform="translate(-56.247 -148.457)" fill="#455a64"/><path d="M62.675,371.189a8.156,8.156,0,0,0,7.4,0,2.268,2.268,0,0,0,0-4.292,8.176,8.176,0,0,0-7.407,0,2.583,2.583,0,0,0-1.518,2.143A2.629,2.629,0,0,0,62.675,371.189Z" transform="translate(-56.247 -148.457)" fill="#fff" opacity="0.3"/><path d="M66.83,159.11V297.787h0a.743.743,0,0,0,.434.6,2.314,2.314,0,0,0,2.1,0,.743.743,0,0,0,.434-.6V159.11Z" transform="translate(-58.194 -77.54)" fill="#455a64"/><path d="M54.814,164.531a2.471,2.471,0,0,1,1.117,1.972c0,.71-.506,1-1.124.657a2.432,2.432,0,0,1-1.117-1.939C53.69,164.466,54.2,164.177,54.814,164.531Z" transform="translate(-53.69 -79.347)" fill="#455a64"/><path d="M67.263,156.794v-.223h0v-.053a.191.191,0,0,0,0-.059v-.072a.191.191,0,0,0,0-.059v-.046h0v-.059a.211.211,0,0,0,0-.059h0v-.092h0v-.112h0v-.105h0a.23.23,0,0,1,0-.053l-.046-.072h0l-.072-.105h0a.564.564,0,0,1-.046-.066.177.177,0,0,1-.046-.053h0l-.046-.053-.039-.046h0v-.033l-.053-.046h0l-.053-.046h0l-.053-.039h-.046l-.053-.033H65.469a.249.249,0,0,0-.085.039L54.21,161.73l.085-.039h.46l.105.039h0l.112.053.112.072h0l.105.079h0l.1.085h0l.092.1h0a.7.7,0,0,1,.092.105h0l.092.118h0a1.071,1.071,0,0,1,.072.112l.046.072.039.066h0a.782.782,0,0,0,.053.105h0l.059.125h0a.139.139,0,0,0,.053.131h0a.776.776,0,0,1,.046.131h0l.039.131h0a.776.776,0,0,1,0,.131h0v.407a.579.579,0,0,1,0,.105h0v.092h0a.4.4,0,0,1-.033.079h0a.079.079,0,0,1-.046.085h0l-.046.059h0l-.046.039h0l-.059.046h0l11.173-6.487.066-.046h0l.039-.039h0l.039-.059h0l.039-.072h0V157.5h0v-.46a.164.164,0,0,0,0-.053v-.059a.125.125,0,0,0,0-.053v-.053h0Z" transform="translate(-53.868 -76.203)" fill="#455a64"/><path d="M67.263,156.794v-.223h0v-.053a.191.191,0,0,0,0-.059v-.072a.191.191,0,0,0,0-.059v-.046h0v-.059a.211.211,0,0,0,0-.059h0v-.092h0v-.112h0v-.105h0a.23.23,0,0,1,0-.053l-.046-.072h0l-.072-.105h0a.564.564,0,0,1-.046-.066.177.177,0,0,1-.046-.053h0l-.046-.053-.039-.046h0v-.033l-.053-.046h0l-.053-.046h0l-.053-.039h-.046l-.053-.033H65.469a.249.249,0,0,0-.085.039L54.21,161.73l.085-.039h.46l.105.039h0l.112.053.112.072h0l.105.079h0l.1.085h0l.092.1h0a.7.7,0,0,1,.092.105h0l.092.118h0a1.071,1.071,0,0,1,.072.112l.046.072.039.066h0a.782.782,0,0,0,.053.105h0l.059.125h0a.139.139,0,0,0,.053.131h0a.776.776,0,0,1,.046.131h0l.039.131h0a.776.776,0,0,1,0,.131h0v.407a.579.579,0,0,1,0,.105h0v.092h0a.4.4,0,0,1-.033.079h0a.079.079,0,0,1-.046.085h0l-.046.059h0l-.046.039h0l-.059.046h0l11.173-6.487.066-.046h0l.039-.039h0l.039-.059h0l.039-.072h0V157.5h0v-.46a.164.164,0,0,0,0-.053v-.059a.125.125,0,0,0,0-.053v-.053h0Z" transform="translate(-53.868 -76.203)" fill="#fff" opacity="0.3"/><path d="M100.757,152.03l.026,9.1-17.9,10.332-.026-9.1Z" transform="translate(-63.688 -75.113)" fill="#fff"/><g transform="translate(37.923 125.539)" opacity="0.7"><path d="M129.293,226.01l.02,9.1-17.9,10.332-.026-9.1Z" transform="translate(-111.39 -226.01)" fill="#fff"/></g><path d="M129.247,210.96l.026,9.1L111.4,230.388l-.046-9.1Z" transform="translate(-73.454 -95.312)" fill="#1565c0"/><path d="M129.207,195.91l.026,9.1-17.883,10.325-.039-9.09Z" transform="translate(-73.44 -90.154)" fill="#1565c0"/><g transform="translate(37.844 95.858)" opacity="0.5"><path d="M129.167,180.85l.026,9.109-17.883,10.319-.039-9.1Z" transform="translate(-111.27 -180.85)" fill="#fff"/></g><g transform="translate(37.811 85.967)" opacity="0.5"><path d="M129.123,165.8l.02,9.1-17.877,10.325-.046-9.1Z" transform="translate(-111.22 -165.8)" fill="#fff"/></g><g transform="translate(37.785 76.075)" opacity="0.5"><path d="M129.077,150.75l.026,9.1-17.877,10.319-.046-9.09Z" transform="translate(-111.18 -150.75)" fill="#fff"/></g><path d="M129.037,135.7l.026,9.1-17.883,10.325-.039-9.09Z" transform="translate(-73.382 -69.516)" fill="#fff"/><path d="M157.317,119.37l.026,9.1-17.883,10.325-.039-9.09Z" transform="translate(-83.075 -63.919)" fill="#fff"/><path d="M185.6,103.04l.026,9.1-17.877,10.319-.046-9.09Z" transform="translate(-92.768 -58.321)" fill="#fff"/><path d="M213.883,86.71l.02,9.1-17.877,10.319-.046-9.09Z" transform="translate(-102.461 -52.724)" fill="#fff"/><g transform="translate(112.138 33.131)" opacity="0.7"><path d="M242.226,85.41l.026,9.109-17.9,10.332-.039-9.1Z" transform="translate(-224.31 -85.41)" fill="#fff"/></g><path d="M242.183,70.36l.02,9.1L224.306,89.8l-.046-9.09Z" transform="translate(-112.155 -47.12)" fill="#fff"/><path d="M100.8,167.07l.026,9.109-17.9,10.332L82.9,177.4Z" transform="translate(-63.702 -80.268)" fill="#fff"/><g transform="translate(56.431 85.132)" opacity="0.5"><path d="M157.447,164.53l.026,9.1-17.883,10.319-.039-9.09Z" transform="translate(-139.55 -164.53)" fill="#fff"/></g><g transform="translate(56.404 75.234)" opacity="0.5"><path d="M157.407,149.47l.026,9.1L139.549,168.9l-.039-9.1Z" transform="translate(-139.51 -149.47)" fill="#fff"/></g><g transform="translate(56.371 65.343)" opacity="0.5"><path d="M157.357,134.42l.026,9.1-17.877,10.319-.046-9.09Z" transform="translate(-139.46 -134.42)" fill="#fff"/></g><g transform="translate(74.991 64.501)" opacity="0.5"><path d="M185.687,133.14l.026,9.1-17.883,10.325-.039-9.1Z" transform="translate(-167.79 -133.14)" fill="#fff"/></g><g transform="translate(74.965 54.61)" opacity="0.5"><path d="M185.647,118.09l.026,9.1-17.883,10.325-.039-9.1Z" transform="translate(-167.75 -118.09)" fill="#fff"/></g><g transform="translate(93.604 63.667)" opacity="0.7"><path d="M214.007,131.87l.026,9.1L196.156,151.3l-.046-9.1Z" transform="translate(-196.11 -131.87)" fill="#fff"/></g><g transform="translate(93.578 53.769)" opacity="0.7"><path d="M213.967,116.81l.026,9.1-17.883,10.325-.039-9.09Z" transform="translate(-196.07 -116.81)" fill="#fff"/></g><g transform="translate(93.545 43.877)" opacity="0.7"><path d="M213.923,101.76l.026,9.1-17.883,10.325-.046-9.1Z" transform="translate(-196.02 -101.76)" fill="#fff"/></g><path d="M100.837,182.13l.026,9.1-17.9,10.332-.026-9.1Z" transform="translate(-63.716 -85.43)" fill="#fff"/><path d="M101.007,242.34l.026,9.1-17.9,10.332-.026-9.1Z" transform="translate(-63.774 -106.068)" fill="#fff"/><path d="M100.967,227.29l.026,9.1L83.1,246.725l-.026-9.1Z" transform="translate(-63.76 -100.909)" fill="#fff"/><path d="M100.927,212.24l.026,9.1-17.9,10.332-.026-9.1Z" transform="translate(-63.747 -95.751)" fill="#fff"/><path d="M100.883,197.18l.02,9.1-17.9,10.332-.026-9.1Z" transform="translate(-63.729 -90.589)" fill="#fff"/><g transform="translate(75.044 84.291)" opacity="0.7"><path d="M185.767,163.25l.026,9.1-17.877,10.319-.046-9.09Z" transform="translate(-167.87 -163.25)" fill="#fff"/></g><g transform="translate(75.017 74.399)" opacity="0.5"><path d="M185.727,148.2l.026,9.1-17.883,10.319-.039-9.09Z" transform="translate(-167.83 -148.2)" fill="#fff"/></g><path d="M157.487,179.58l.026,9.1L139.636,199l-.046-9.09Z" transform="translate(-83.133 -84.556)" fill="#1565c0"/><g transform="translate(56.483 104.915)" opacity="0.7"><path d="M157.533,194.63l.02,9.1-17.877,10.325-.046-9.1Z" transform="translate(-139.63 -194.63)" fill="#fff"/></g><path d="M92.9,167.02c.177.105.3.342.3.887h0a2.412,2.412,0,0,1-1.032,2.11.881.881,0,0,1-.657.138c-.059,0-.1-.053-.1-.138a.427.427,0,0,1,.2-.342.164.164,0,0,1,.118,0,.591.591,0,0,0,.44-.085,1.42,1.42,0,0,0,.578-1.2,1.492,1.492,0,0,1-.565.618c-.513.3-.854.145-.854-.388h0a1.827,1.827,0,0,1,.894-1.479C92.529,166.941,92.726,166.921,92.9,167.02Zm-.158.743h0c0-.283-.2-.394-.506-.223a.973.973,0,0,0-.467.762h0c0,.289.2.388.493.21a.973.973,0,0,0,.493-.776" transform="translate(-66.588 -80.231)" fill="#1565c0"/><path d="M96.341,165.039c.177.1.289.342.3.887h0a2.4,2.4,0,0,1-1.032,2.1.907.907,0,0,1-.657.145.131.131,0,0,1-.1-.145.44.44,0,0,1,.2-.342.184.184,0,0,1,.112,0,.578.578,0,0,0,.447-.092,1.413,1.413,0,0,0,.578-1.2,1.5,1.5,0,0,1-.565.618c-.513.3-.854.151-.854-.381h0a1.827,1.827,0,0,1,.894-1.472C95.973,164.953,96.17,164.94,96.341,165.039Zm-.158.736h0c0-.289-.2-.4-.506-.223a.96.96,0,0,0-.48.8h0c0,.289.2.381.493.21a.973.973,0,0,0,.493-.782" transform="translate(-67.771 -79.552)" fill="#1565c0"/><path d="M100.945,164.409c.342-.2.572,0,.572.368h0a1.268,1.268,0,0,1-.572,1.038c-.335.2-.565,0-.565-.368h0A1.268,1.268,0,0,1,100.945,164.409Zm.263.565h0c0-.223-.112-.335-.269-.25a.657.657,0,0,0-.256.546h0c0,.23.112.342.269.256a.657.657,0,0,0,.256-.546" transform="translate(-69.693 -79.33)" fill="#1565c0"/><path d="M121.662,150.08c.118-.072.21-.039.21.092a.657.657,0,0,1-.125.335l-.565,1c.368-.158.71-.138.716.368a1.683,1.683,0,0,1-.841,1.374.822.822,0,0,1-.822.112c-.039,0-.066-.059-.066-.131a.454.454,0,0,1,.2-.355.138.138,0,0,1,.138,0,.526.526,0,0,0,.552-.059.815.815,0,0,0,.414-.657h0c0-.269-.223-.3-.559-.105l-.085.053a.112.112,0,0,1-.184-.105.546.546,0,0,1,.092-.256l.559-1.012-.874.506a.113.113,0,0,1-.184-.105.4.4,0,0,1,.184-.322Z" transform="translate(-76.477 -74.432)" fill="#1565c0"/><path d="M123.7,152.634a.148.148,0,0,1,.243.131v.039a.513.513,0,0,1-.243.414.147.147,0,0,1-.243-.131v-.039A.513.513,0,0,1,123.7,152.634Z" transform="translate(-77.604 -75.309)" fill="#1565c0"/><path d="M126.613,148.961a.109.109,0,0,1,.177.1.388.388,0,0,1-.177.3l-.184.105v.407a.44.44,0,0,1-.2.348.125.125,0,0,1-.2-.112V149.7l-1.078.618a.124.124,0,0,1-.2-.105.572.572,0,0,1,.092-.315l1.124-2.2a.657.657,0,0,1,.263-.309.125.125,0,0,1,.2.112V149.1Zm-.592.342v-1.1l-.789,1.551.8-.453" transform="translate(-78.043 -73.516)" fill="#1565c0"/><path d="M128.866,146.1c.125-.066.21,0,.21.125v2.34a.46.46,0,0,1-.2.361.13.13,0,0,1-.21-.118v-2.09l-.25.23-.072.059c-.105.059-.191,0-.191-.1a.414.414,0,0,1,.138-.3l.368-.342a.966.966,0,0,1,.2-.164Z" transform="translate(-79.212 -73.071)" fill="#1565c0"/><path d="M146.726,135.795a.129.129,0,0,1,.21.118v2.34a.454.454,0,0,1-.21.361.131.131,0,0,1-.21-.118v-2.09l-.25.23-.072.059a.113.113,0,0,1-.184-.1.414.414,0,0,1,.138-.3l.361-.342a1.164,1.164,0,0,1,.21-.164Z" transform="translate(-85.334 -69.539)" fill="#1565c0"/><path d="M148.513,138.314a.148.148,0,0,1,.243.131v.039a.513.513,0,0,1-.243.414.148.148,0,0,1-.243-.131v-.013a.513.513,0,0,1,.243-.44Z" transform="translate(-86.108 -70.401)" fill="#1565c0"/><path d="M151.181,133.359c.177.105.289.342.3.887h0a2.4,2.4,0,0,1-1.032,2.1.874.874,0,0,1-.657.145c-.059,0-.092-.053-.1-.145a.421.421,0,0,1,.2-.335.158.158,0,0,1,.118,0,.592.592,0,0,0,.44-.085,1.439,1.439,0,0,0,.578-1.209,1.452,1.452,0,0,1-.565.618c-.513.3-.854.151-.854-.381h0a1.814,1.814,0,0,1,.894-1.472C150.832,133.274,151.03,133.26,151.181,133.359Zm-.164.736h0c0-.289-.2-.4-.5-.223a.966.966,0,0,0-.48.8h0c0,.289.2.381.493.21a.966.966,0,0,0,.486-.782" transform="translate(-86.568 -68.693)" fill="#1565c0"/><path d="M154.647,131.37c.177.105.289.342.3.887h0a2.406,2.406,0,0,1-1.032,2.1.907.907,0,0,1-.657.145.131.131,0,0,1-.1-.145.427.427,0,0,1,.2-.342.171.171,0,0,1,.118,0,.559.559,0,0,0,.44-.085,1.433,1.433,0,0,0,.585-1.2,1.511,1.511,0,0,1-.572.618c-.506.3-.848.151-.854-.381h0a1.827,1.827,0,0,1,.9-1.472C154.279,131.291,154.476,131.271,154.647,131.37Zm-.164.743h0c0-.289-.2-.4-.506-.223a.966.966,0,0,0-.473.789h0c0,.289.191.388.493.217a.986.986,0,0,0,.486-.782" transform="translate(-87.754 -68.012)" fill="#1565c0"/><path d="M159.252,130.741c.342-.191.565,0,.565.375h0a1.315,1.315,0,0,1-.565,1.038c-.342.2-.572,0-.572-.375h0A1.269,1.269,0,0,1,159.252,130.741Zm.263.572h0c0-.223-.118-.342-.269-.25a.657.657,0,0,0-.256.546h0c0,.23.112.342.269.25a.657.657,0,0,0,.256-.539" transform="translate(-89.676 -67.791)" fill="#1565c0"/><path d="M158.877,128.644a.427.427,0,0,1,0,.125l-1.6,3.358a.342.342,0,0,1-.125.145c-.079.046-.138,0-.138-.072a.348.348,0,0,1,0-.125l1.577-3.391a.283.283,0,0,1,.112-.145C158.818,128.525,158.877,128.558,158.877,128.644Z" transform="translate(-89.105 -67.06)" fill="#1565c0"/><path d="M157.6,130.252a1.314,1.314,0,0,1-.565,1.038c-.342.191-.565,0-.572-.381h0a1.268,1.268,0,0,1,.572-1.038C157.374,129.68,157.6,129.871,157.6,130.252Zm-.828.48c0,.223.112.335.263.25a.657.657,0,0,0,.256-.546h0c0-.223-.105-.342-.263-.25a.657.657,0,0,0-.256.546h0" transform="translate(-88.916 -67.492)" fill="#1565c0"/><path d="M175.183,119.365c.118-.072.2,0,.2.118v2.34a.46.46,0,0,1-.2.361.13.13,0,0,1-.21-.118v-2.09l-.25.23-.072.059c-.105.059-.191,0-.191-.1a.388.388,0,0,1,.145-.289l.361-.348a1.235,1.235,0,0,1,.2-.164Z" transform="translate(-95.085 -63.907)" fill="#1565c0"/><path d="M176.963,121.884c.145-.079.243,0,.243.131v.039a.506.506,0,0,1-.237.414c-.145.079-.25,0-.25-.131V122.3A.526.526,0,0,1,176.963,121.884Z" transform="translate(-95.86 -64.77)" fill="#1565c0"/><path d="M179.563,116.668a.118.118,0,0,1,.191.105.421.421,0,0,1-.191.329l-.907.519-.033.657a1.63,1.63,0,0,1,.381-.3c.473-.276.841-.2.841.381a1.768,1.768,0,0,1-.881,1.459.927.927,0,0,1-.769.138c-.053,0-.085-.059-.085-.138a.454.454,0,0,1,.2-.348.138.138,0,0,1,.125,0,.611.611,0,0,0,.526-.066.914.914,0,0,0,.467-.749c0-.3-.21-.348-.5-.177a2.971,2.971,0,0,0-.414.329.256.256,0,0,1-.2,0c-.066,0-.085-.079-.085-.171l.046-1.025a.44.44,0,0,1,.2-.329Z" transform="translate(-96.336 -62.984)" fill="#1565c0"/><path d="M182.822,114.788a.118.118,0,0,1,.191.105.421.421,0,0,1-.184.322l-.907.526-.039.657a1.8,1.8,0,0,1,.381-.3c.473-.269.841-.2.848.388a1.774,1.774,0,0,1-.881,1.452.953.953,0,0,1-.776.145.131.131,0,0,1-.085-.138.454.454,0,0,1,.2-.355.151.151,0,0,1,.125,0,.6.6,0,0,0,.519-.072.887.887,0,0,0,.467-.749c0-.289-.2-.348-.5-.177a3.055,3.055,0,0,0-.407.335.243.243,0,0,1-.2,0c-.059,0-.085-.072-.079-.164l.046-1.032a.44.44,0,0,1,.191-.329Z" transform="translate(-97.453 -62.34)" fill="#1565c0"/><path d="M187.044,112.421a.426.426,0,0,1,0,.125l-1.577,3.391a.309.309,0,0,1-.118.138c-.079.046-.131,0-.131-.072a.381.381,0,0,1,0-.125l1.571-3.391a.309.309,0,0,1,.118-.138A.084.084,0,0,1,187.044,112.421Z" transform="translate(-98.771 -61.505)" fill="#1565c0"/><path d="M187.362,114.511c.335-.191.565,0,.565.375h0a1.315,1.315,0,0,1-.565,1.038c-.342.2-.565,0-.572-.375h0A1.268,1.268,0,0,1,187.362,114.511Zm.256.572h0c0-.223-.105-.342-.263-.25a.657.657,0,0,0-.256.546h0c0,.23.112.342.263.25a.657.657,0,0,0,.256-.539" transform="translate(-99.311 -62.228)" fill="#1565c0"/><path d="M185.707,114.024a1.255,1.255,0,0,1-.572,1.038c-.335.2-.565,0-.565-.375h0a1.268,1.268,0,0,1,.572-1.038C185.484,113.452,185.707,113.649,185.707,114.024Zm-.854.486c0,.223.112.335.263.25a.657.657,0,0,0,.263-.546h0c0-.223-.118-.342-.269-.25a.657.657,0,0,0-.256.546h0" transform="translate(-98.551 -61.931)" fill="#1565c0"/><path d="M203.253,103.156c.118-.066.2,0,.2.125v2.34a.467.467,0,0,1-.2.361.131.131,0,0,1-.21-.125v-2.083l-.25.23-.079.059a.115.115,0,0,1-.184-.105.388.388,0,0,1,.145-.289l.361-.348a1.144,1.144,0,0,1,.2-.158Z" transform="translate(-104.707 -58.352)" fill="#1565c0"/><path d="M205.033,105.682c.145-.085.243,0,.243.131h0a.506.506,0,0,1-.237.414c-.145.085-.25,0-.25-.131v-.039a.513.513,0,0,1,.243-.375Z" transform="translate(-105.481 -59.215)" fill="#1565c0"/><path d="M207.1,100.757c.657-.361,1.052,0,1.052.815h0a2.432,2.432,0,0,1-1.045,2.037c-.657.368-1.052,0-1.052-.822A2.438,2.438,0,0,1,207.1,100.757Zm.618,1.084h0c0-.546-.25-.854-.618-.657a1.584,1.584,0,0,0-.611,1.314h0c0,.546.243.848.618.657a1.6,1.6,0,0,0,.611-1.314" transform="translate(-105.916 -57.491)" fill="#1565c0"/><path d="M211.322,98.326a.118.118,0,0,1,.191.112.407.407,0,0,1-.191.322l-.907.526-.039.657a1.846,1.846,0,0,1,.388-.3c.473-.269.841-.2.841.381a1.761,1.761,0,0,1-.881,1.459.94.94,0,0,1-.769.145.131.131,0,0,1-.085-.138.467.467,0,0,1,.2-.355.131.131,0,0,1,.125,0,.618.618,0,0,0,.526-.072.92.92,0,0,0,.467-.749c0-.289-.2-.348-.5-.177a2.839,2.839,0,0,0-.414.335.243.243,0,0,1-.2,0c-.059,0-.079-.079-.079-.164l.046-1.032a.467.467,0,0,1,.2-.329Z" transform="translate(-107.222 -56.697)" fill="#1565c0"/><path d="M215.855,98.061c.342-.191.565,0,.565.375h0a1.249,1.249,0,0,1-.565,1.038c-.335.2-.565,0-.565-.375h0A1.262,1.262,0,0,1,215.855,98.061Zm.263.572h0c0-.223-.112-.342-.263-.25a.657.657,0,0,0-.263.546h0c0,.23.112.342.269.25a.657.657,0,0,0,.256-.539" transform="translate(-109.08 -56.589)" fill="#1565c0"/><path d="M214.2,97.578a1.275,1.275,0,0,1-.565,1.038c-.342.191-.565,0-.565-.375h0a1.236,1.236,0,0,1,.565-1.032c.342-.2.565,0,.565.375Zm-.828.48c0,.223.112.335.269.25a.657.657,0,0,0,.256-.546h0c0-.223-.112-.342-.269-.25a.657.657,0,0,0-.256.539h0" transform="translate(-108.319 -56.296)" fill="#1565c0"/><path d="M215.477,95.957a.283.283,0,0,1,0,.125l-1.61,3.4a.283.283,0,0,1-.125.138c-.072.046-.131,0-.131-.079a.244.244,0,0,1,.033-.118l1.571-3.391a.289.289,0,0,1,.118-.145C215.417,95.852,215.477,95.885,215.477,95.957Z" transform="translate(-108.504 -55.865)" fill="#1565c0"/><path d="M231.365,86.747c.657-.361,1.052,0,1.052.815h0a2.432,2.432,0,0,1-1.045,2.037c-.657.368-1.052,0-1.052-.815A2.452,2.452,0,0,1,231.365,86.747Zm.618,1.084h0c0-.546-.25-.848-.618-.657a1.591,1.591,0,0,0-.611,1.314h0c0,.546.243.854.618.657a1.6,1.6,0,0,0,.611-1.314" transform="translate(-114.232 -52.689)" fill="#1565c0"/><path d="M234.293,88.792a.147.147,0,0,1,.243.131v.039a.513.513,0,0,1-.243.407.147.147,0,0,1-.243-.131V89.2A.513.513,0,0,1,234.293,88.792Z" transform="translate(-115.51 -53.426)" fill="#1565c0"/><path d="M236.473,84.867c.467-.269.841-.171.848.381a1.821,1.821,0,0,1-.894,1.466c-.3.171-.513.191-.657.092s-.3-.322-.3-.881a2.432,2.432,0,0,1,1.006-2.116.946.946,0,0,1,.6-.151c.066,0,.105.053.105.151a.434.434,0,0,1-.2.342.158.158,0,0,1-.105,0,.591.591,0,0,0-.414.085,1.426,1.426,0,0,0-.572,1.216A1.571,1.571,0,0,1,236.473,84.867Zm.421.657h0c0-.283-.191-.375-.493-.2a.96.96,0,0,0-.486.769h0c0,.283.2.381.5.21a.946.946,0,0,0,.48-.776" transform="translate(-115.995 -51.677)" fill="#1565c0"/><path d="M240.281,81.592c.118-.066.21-.039.21.092a.716.716,0,0,1-.118.335l-.572,1.006c.368-.158.71-.145.71.368a1.669,1.669,0,0,1-.835,1.374.835.835,0,0,1-.822.112.145.145,0,0,1-.066-.138.44.44,0,0,1,.2-.348.125.125,0,0,1,.138,0,.513.513,0,0,0,.546-.053.815.815,0,0,0,.421-.657h0c0-.269-.217-.3-.559-.1l-.085.046a.114.114,0,0,1-.184-.105.532.532,0,0,1,.092-.25l.559-1.019-.874.506a.114.114,0,0,1-.184-.105.421.421,0,0,1,.184-.315Z" transform="translate(-117.135 -50.958)" fill="#1565c0"/><path d="M243.127,80.874a1.314,1.314,0,0,1-.572,1.038c-.335.2-.565,0-.565-.375h0a1.314,1.314,0,0,1,.565-1.038C242.9,80.3,243.12,80.5,243.127,80.874Zm-.828.48c0,.223.105.335.263.25a.657.657,0,0,0,.256-.546h0c0-.223-.112-.342-.263-.25a.657.657,0,0,0-.256.546h0" transform="translate(-118.232 -50.569)" fill="#1565c0"/><path d="M244.423,79.271a.3.3,0,0,1,0,.125l-1.571,3.391a.309.309,0,0,1-.118.138c-.079.046-.138,0-.138-.072a.269.269,0,0,1,0-.125l1.577-3.391a.276.276,0,0,1,.118-.138C244.358,79.153,244.423,79.186,244.423,79.271Z" transform="translate(-118.437 -50.143)" fill="#1565c0"/><path d="M244.782,81.361c.335-.191.565,0,.565.375h0a1.268,1.268,0,0,1-.572,1.038c-.335.2-.565,0-.565-.375h0A1.268,1.268,0,0,1,244.782,81.361Zm.256.572h0c0-.223-.112-.342-.263-.25a.657.657,0,0,0-.263.546h0c0,.23.118.342.269.25a.657.657,0,0,0,.256-.539" transform="translate(-118.993 -50.865)" fill="#1565c0"/><path d="M90.553,183.3a.127.127,0,0,1,.21.112v2.346a.454.454,0,0,1-.21.362.131.131,0,0,1-.21-.118v-2.09l-.243.23-.079.053a.118.118,0,0,1-.191-.092.427.427,0,0,1,.145-.3l.361-.342a1.241,1.241,0,0,1,.21-.164Z" transform="translate(-66.077 -85.823)" fill="#1565c0"/><path d="M93.1,181.65c.657-.361,1.045.033,1.052.822a2.445,2.445,0,0,1-1.045,2.044c-.657.368-1.052,0-1.052-.815h0A2.445,2.445,0,0,1,93.1,181.65Zm.611,1.091h0c0-.539-.243-.848-.611-.657a1.571,1.571,0,0,0-.611,1.314h0c0,.546.243.854.618.657a1.571,1.571,0,0,0,.6-1.314" transform="translate(-66.842 -85.219)" fill="#1565c0"/><path d="M96.895,179.457c.657-.361,1.052,0,1.058.822a2.451,2.451,0,0,1-1.052,2.044c-.657.368-1.045,0-1.052-.815h0a2.458,2.458,0,0,1,1.045-2.051Zm.618,1.091h0c0-.546-.25-.848-.618-.657a1.551,1.551,0,0,0-.6,1.314h0c0,.546.237.854.618.657a1.591,1.591,0,0,0,.6-1.314" transform="translate(-68.141 -84.466)" fill="#1565c0"/><path d="M102.023,176.565a.348.348,0,0,1,0,.118l-1.61,3.424a.322.322,0,0,1-.125.138c-.072.046-.131,0-.131-.079a.27.27,0,0,1,0-.118l1.571-3.391a.263.263,0,0,1,.112-.138C101.951,176.447,102.023,176.48,102.023,176.565Z" transform="translate(-69.615 -83.494)" fill="#1565c0"/><path d="M102.385,178.649c.342-.2.565,0,.565.375h0a1.262,1.262,0,0,1-.565,1.038c-.342.2-.565,0-.565-.375h0A1.249,1.249,0,0,1,102.385,178.649Zm.263.565h0c0-.217-.112-.342-.269-.25a.657.657,0,0,0-.256.546h0c0,.23.112.342.269.256a.657.657,0,0,0,.256-.552" transform="translate(-70.187 -84.211)" fill="#1565c0"/><path d="M100.727,178.164a1.262,1.262,0,0,1-.565,1.032c-.342.2-.565,0-.572-.368h0a1.268,1.268,0,0,1,.572-1.038c.342-.2.565,0,.565.368Zm-.828.48c0,.223.112.335.263.25a.657.657,0,0,0,.263-.546h0c0-.223-.112-.342-.269-.256a.657.657,0,0,0-.256.546h0" transform="translate(-69.423 -83.916)" fill="#1565c0"/><path d="M90.626,198.355a.129.129,0,0,1,.21.118v2.34a.454.454,0,0,1-.21.361.131.131,0,0,1-.21-.118v-2.09l-.243.23-.079.059a.114.114,0,0,1-.184-.1.394.394,0,0,1,.138-.289l.361-.348a2.41,2.41,0,0,1,.21-.164Z" transform="translate(-66.105 -90.982)" fill="#1565c0"/><path d="M93.151,196.7c.657-.361,1.045,0,1.045.822a2.465,2.465,0,0,1-1.045,2.051c-.657.361-1.052,0-1.052-.822A2.465,2.465,0,0,1,93.151,196.7Zm.611,1.091h0c0-.546-.25-.854-.618-.657a1.577,1.577,0,0,0-.611,1.314h0c0,.546.25.854.624.657a1.584,1.584,0,0,0,.6-1.314" transform="translate(-66.855 -90.375)" fill="#1565c0"/><path d="M96.941,194.507c.657-.361,1.045,0,1.052.822a2.471,2.471,0,0,1-1.052,2.051c-.657.361-1.045,0-1.052-.822A2.471,2.471,0,0,1,96.941,194.507Zm.611,1.091h0c0-.546-.243-.854-.618-.657a1.571,1.571,0,0,0-.6,1.314h0c0,.546.243.854.618.657a1.577,1.577,0,0,0,.6-1.314" transform="translate(-68.154 -89.625)" fill="#1565c0"/><path d="M102.037,191.61a.3.3,0,0,1,0,.125l-1.584,3.385a.256.256,0,0,1-.125.138.08.08,0,0,1-.131-.072.3.3,0,0,1,0-.125l1.571-3.391a.309.309,0,0,1,.118-.138C101.991,191.492,102.037,191.525,102.037,191.61Z" transform="translate(-69.628 -88.647)" fill="#1565c0"/><path d="M102.425,193.7c.342-.191.565,0,.572.381h0a1.315,1.315,0,0,1-.572,1.038c-.335.191-.565,0-.565-.381h0a1.262,1.262,0,0,1,.565-1.038Zm.263.572h0c0-.223-.112-.342-.263-.25a.618.618,0,0,0-.256.539h0c0,.23.105.342.263.25a.657.657,0,0,0,.256-.539" transform="translate(-70.201 -89.371)" fill="#1565c0"/><path d="M100.77,193.214a1.275,1.275,0,0,1-.565,1.038c-.342.2-.565,0-.565-.375h0a1.249,1.249,0,0,1,.565-1.038C100.547,192.642,100.77,192.839,100.77,193.214Zm-.828.48c0,.223.112.342.269.25a.657.657,0,0,0,.256-.546h0c0-.223-.112-.342-.269-.25a.657.657,0,0,0-.256.546h0" transform="translate(-69.44 -89.075)" fill="#1565c0"/><path d="M93.177,212.086c.171.105.289.342.289.894a2.4,2.4,0,0,1-1.025,2.11.907.907,0,0,1-.657.145.131.131,0,0,1-.1-.145.4.4,0,0,1,.2-.335.23.23,0,0,1,.118,0,.578.578,0,0,0,.44-.079,1.433,1.433,0,0,0,.578-1.209,1.479,1.479,0,0,1-.559.618c-.519.3-.861.151-.861-.381a1.834,1.834,0,0,1,.92-1.518A.688.688,0,0,1,93.177,212.086Zm-.164.743h0c0-.289-.2-.394-.506-.217a.94.94,0,0,0-.473.789h0c0,.283.191.381.493.21a.979.979,0,0,0,.486-.782" transform="translate(-66.684 -95.683)" fill="#1565c0"/><path d="M96.531,209.8c.118-.072.191,0,.191.1a.881.881,0,0,1-.053.269l-.992,2.754a.513.513,0,0,1-.2.283c-.118.066-.217.046-.217-.092a.434.434,0,0,1,0-.171l.933-2.537-1.045.6a.114.114,0,0,1-.184-.105.4.4,0,0,1,.184-.322Z" transform="translate(-67.836 -94.906)" fill="#1565c0"/><path d="M100.548,207.567a.441.441,0,0,1,0,.125l-1.61,3.418a.25.25,0,0,1-.118.138.08.08,0,0,1-.131-.072.427.427,0,0,1,0-.125l1.571-3.385a.329.329,0,0,1,.118-.145C100.482,207.455,100.548,207.481,100.548,207.567Z" transform="translate(-69.112 -94.121)" fill="#1565c0"/><path d="M100.915,209.659c.335-.2.565,0,.565.375h0a1.275,1.275,0,0,1-.565,1.038c-.342.2-.565,0-.565-.375h0a1.249,1.249,0,0,1,.565-1.038Zm.256.565h0c0-.223-.105-.342-.263-.256a.657.657,0,0,0-.256.552h0c0,.223.112.335.263.25a.657.657,0,0,0,.256-.546" transform="translate(-69.683 -94.84)" fill="#1565c0"/><path d="M99.264,209.171a1.255,1.255,0,0,1-.559,1.052c-.335.2-.565,0-.565-.375h0a1.268,1.268,0,0,1,.572-1.038c.342-.2.565,0,.565.375Zm-.828.48c0,.23.112.342.263.25a.657.657,0,0,0,.263-.546h0c0-.223-.112-.342-.269-.25a.657.657,0,0,0-.256.546h0" transform="translate(-68.926 -94.548)" fill="#1565c0"/><path d="M90.683,228.456a.131.131,0,0,1,.21.125v2.34a.454.454,0,0,1-.21.362.131.131,0,0,1-.21-.118v-2.09l-.25.23-.072.059a.12.12,0,0,1-.191-.105.421.421,0,0,1,.145-.289l.361-.342a.974.974,0,0,1,.21-.164Z" transform="translate(-66.122 -101.3)" fill="#1565c0"/><path d="M93.231,226.807c.657-.361,1.045,0,1.052.822a2.432,2.432,0,0,1-1.052,2.044c-.657.368-1.045,0-1.052-.815a2.471,2.471,0,0,1,1.052-2.051Zm.611,1.091h0c0-.546-.243-.854-.618-.657a1.6,1.6,0,0,0-.6,1.314h0c0,.546.243.854.618.657a1.591,1.591,0,0,0,.6-1.314" transform="translate(-66.883 -100.696)" fill="#1565c0"/><path d="M97.025,224.617c.657-.361,1.052,0,1.052.822a2.458,2.458,0,0,1-1.045,2.051c-.657.361-1.052-.033-1.052-.822A2.465,2.465,0,0,1,97.025,224.617Zm.618,1.091h0c0-.546-.25-.854-.618-.657a1.551,1.551,0,0,0-.6,1.314h0c0,.546.237.854.611.657a1.6,1.6,0,0,0,.611-1.314" transform="translate(-68.185 -99.945)" fill="#1565c0"/><path d="M102.155,221.721a.243.243,0,0,1,0,.118l-1.577,3.4a.276.276,0,0,1-.118.138c-.072.046-.131,0-.131-.079a.381.381,0,0,1,0-.118l1.571-3.391a.276.276,0,0,1,.118-.138C102.082,221.6,102.155,221.629,102.155,221.721Z" transform="translate(-69.674 -98.968)" fill="#1565c0"/><path d="M102.512,223.811c.335-.191.565,0,.565.375h0a1.314,1.314,0,0,1-.565,1.032c-.342.2-.565,0-.572-.375h0a1.268,1.268,0,0,1,.572-1.032Zm.256.572h0c0-.223-.105-.342-.263-.25a.657.657,0,0,0-.256.546h0c0,.223.112.342.263.25a.657.657,0,0,0,.256-.539" transform="translate(-70.228 -99.691)" fill="#1565c0"/><path d="M100.857,223.327a1.262,1.262,0,0,1-.572,1.038c-.335.191-.565,0-.565-.375h0a1.249,1.249,0,0,1,.572-1.032c.342-.2.565,0,.565.375Zm-.828.48c0,.223.112.335.263.25a.657.657,0,0,0,.263-.546h0c0-.217-.118-.335-.269-.243a.657.657,0,0,0-.256.539h0" transform="translate(-69.467 -99.398)" fill="#1565c0"/><path d="M90.726,243.515a.129.129,0,0,1,.21.118v2.34a.447.447,0,0,1-.21.361.131.131,0,0,1-.21-.118v-2.083l-.243.223-.079.053a.112.112,0,0,1-.184-.092.414.414,0,0,1,.138-.3l.361-.342a1.243,1.243,0,0,1,.21-.164Z" transform="translate(-66.139 -106.461)" fill="#1565c0"/><path d="M93.275,241.865c.657-.368,1.052,0,1.052.815h0a2.458,2.458,0,0,1-1.045,2.037c-.657.368-1.052-.033-1.052-.822a2.432,2.432,0,0,1,1.045-2.031Zm.611,1.084h0c0-.546-.243-.854-.611-.657a1.584,1.584,0,0,0-.611,1.314h0c0,.546.243.848.618.657a1.564,1.564,0,0,0,.6-1.314" transform="translate(-66.9 -105.856)" fill="#1565c0"/><path d="M97.071,239.675c.657-.368,1.045,0,1.052.815h0a2.465,2.465,0,0,1-1.052,2.037c-.657.368-1.045-.033-1.052-.822a2.432,2.432,0,0,1,1.052-2.031Zm.611,1.084h0c0-.546-.25-.854-.618-.657a1.571,1.571,0,0,0-.6,1.314h0c0,.539.243.848.618.657a1.59,1.59,0,0,0,.6-1.314" transform="translate(-68.199 -105.106)" fill="#1565c0"/><path d="M102.555,238.869c.342-.2.565,0,.565.368h0a1.262,1.262,0,0,1-.565,1.038c-.342.2-.565,0-.565-.368h0A1.262,1.262,0,0,1,102.555,238.869Zm.263.565h0c0-.217-.112-.335-.269-.25a.657.657,0,0,0-.256.546h0c0,.23.112.342.269.256a.657.657,0,0,0,.256-.546" transform="translate(-70.245 -104.852)" fill="#1565c0"/><path d="M102.2,236.771a.44.44,0,0,1,0,.125l-1.571,3.391a.322.322,0,0,1-.125.138c-.072.046-.131,0-.131-.079a.27.27,0,0,1,0-.118l1.571-3.391a.263.263,0,0,1,.112-.138C102.138,236.653,102.2,236.686,102.2,236.771Z" transform="translate(-69.69 -104.127)" fill="#1565c0"/><path d="M100.9,238.374a1.262,1.262,0,0,1-.565,1.038c-.342.2-.565,0-.572-.375h0a1.269,1.269,0,0,1,.572-1.038C100.674,237.8,100.9,238,100.9,238.374Zm-.828.48c0,.223.112.342.263.25a.657.657,0,0,0,.263-.546h0c0-.223-.112-.342-.269-.25a.657.657,0,0,0-.256.546h0" transform="translate(-69.481 -104.554)" fill="#1565c0"/><path d="M90.766,258.565a.129.129,0,0,1,.21.118v2.34a.467.467,0,0,1-.21.368.132.132,0,0,1-.21-.125v-2.09l-.243.23-.079.059a.113.113,0,0,1-.184-.1.4.4,0,0,1,.138-.289l.368-.348a1.143,1.143,0,0,1,.2-.158Z" transform="translate(-66.153 -111.619)" fill="#1565c0"/><path d="M93.321,256.926c.624-.368,1.045,0,1.045.822a2.445,2.445,0,0,1-1.045,2.044c-.657.368-1.052,0-1.052-.815h0a2.438,2.438,0,0,1,1.052-2.051Zm.611,1.091h0c0-.546-.25-.848-.618-.657a1.584,1.584,0,0,0-.611,1.314h0c0,.546.25.854.624.657a1.591,1.591,0,0,0,.6-1.314" transform="translate(-66.913 -111.018)" fill="#1565c0"/><path d="M97.115,254.725c.657-.368,1.045,0,1.052.815a2.471,2.471,0,0,1-1.052,2.051c-.657.362-1.045,0-1.045-.822h0A2.425,2.425,0,0,1,97.115,254.725Zm.611,1.084h0c0-.546-.243-.848-.618-.657a1.584,1.584,0,0,0-.6,1.314h0c0,.552.243.861.618.657a1.577,1.577,0,0,0,.6-1.314" transform="translate(-68.216 -110.264)" fill="#1565c0"/><path d="M100.94,253.431a1.262,1.262,0,0,1-.565,1.032c-.342.2-.565,0-.565-.375h0a1.262,1.262,0,0,1,.565-1.038c.342-.2.565,0,.565.375Zm-.828.473c0,.223.112.342.269.25a.657.657,0,0,0,.256-.546h0c0-.223-.112-.342-.269-.25a.657.657,0,0,0-.256.546h0" transform="translate(-69.498 -109.712)" fill="#1565c0"/><path d="M102.244,251.821a.27.27,0,0,1,0,.125l-1.571,3.391a.328.328,0,0,1-.118.145c-.079.039-.138,0-.138-.079a.3.3,0,0,1,0-.125l1.571-3.391a.309.309,0,0,1,.118-.138C102.184,251.7,102.244,251.736,102.244,251.821Z" transform="translate(-69.704 -109.286)" fill="#1565c0"/><path d="M102.6,253.959c.342-.2.565,0,.572.375h0a1.315,1.315,0,0,1-.572,1.038c-.335.191-.565,0-.565-.375h0A1.262,1.262,0,0,1,102.6,253.959Zm.263.565h0c0-.223-.112-.342-.263-.25a.657.657,0,0,0-.256.539h0c0,.223.105.335.263.25a.657.657,0,0,0,.256-.546" transform="translate(-70.259 -110.024)" fill="#1565c0"/><path d="M127.425,159.94l.007,1.88-10.075,5.817-.007-1.886Z" transform="translate(-75.51 -77.825)" fill="#fff"/><path d="M155.705,143.61l.007,1.88-10.075,5.817-.007-1.88Z" transform="translate(-85.203 -72.227)" fill="#1565c0"/><path d="M184,127.28v1.88l-10.069,5.817-.007-1.88Z" transform="translate(-94.9 -66.63)" fill="#1565c0"/><path d="M212.275,110.95v1.88l-10.069,5.817-.007-1.88Z" transform="translate(-104.593 -61.033)" fill="#1565c0"/><path d="M240.549,94.62l.007,1.88-10.069,5.817-.007-1.88Z" transform="translate(-114.287 -55.435)" fill="#1565c0"/><path d="M127.469,174.99l.007,1.88L117.4,182.686v-1.88Z" transform="translate(-75.527 -82.983)" fill="#fff"/><path d="M155.749,158.66l.007,1.88-10.069,5.817-.007-1.88Z" transform="translate(-85.221 -77.386)" fill="#1565c0"/><path d="M184.035,142.33v1.88l-10.069,5.817-.007-1.88Z" transform="translate(-94.914 -71.789)" fill="#1565c0"/><path d="M212.315,126l.007,1.886L202.247,133.7l-.007-1.886Z" transform="translate(-104.607 -66.191)" fill="#1565c0"/><path d="M127.515,190.04v1.886l-10.069,5.81-.007-1.88Z" transform="translate(-75.541 -88.142)" fill="#fff"/><path d="M155.8,173.72l.007,1.88-10.075,5.817-.007-1.886Z" transform="translate(-85.234 -82.548)" fill="#1565c0"/><path d="M184.075,157.39l.007,1.88-10.075,5.817-.007-1.88Z" transform="translate(-94.928 -76.951)" fill="#1565c0"/><path d="M212.355,141.06l.007,1.88-10.075,5.817-.007-1.88Z" transform="translate(-104.621 -71.353)" fill="#1565c0"/><path d="M127.555,205.1l.007,1.88-10.075,5.81-.007-1.873Z" transform="translate(-75.555 -93.304)" fill="#fff"/><path d="M155.835,188.77l.007,1.88-10.075,5.81-.007-1.873Z" transform="translate(-85.248 -87.706)" fill="#fff"/><path d="M184.119,172.44l.007,1.88-10.075,5.817v-1.88Z" transform="translate(-94.945 -82.109)" fill="#1565c0"/><path d="M127.6,220.15l.007,1.88-10.075,5.817-.007-1.88Z" transform="translate(-75.568 -98.462)" fill="#fff"/><path d="M155.879,203.82l.007,1.88-10.075,5.817v-1.88Z" transform="translate(-85.265 -92.865)" fill="#1565c0"/><path d="M127.639,235.2l.007,1.88L117.577,242.9l-.007-1.88Z" transform="translate(-75.586 -103.621)" fill="#1565c0"/><path d="M121.626,259.62l.007,3.628L82.527,285.831,82.52,282.2Z" transform="translate(-63.572 -111.991)" fill="#1565c0"/><path d="M103.469,265.32l.013,3.628L82.5,281.061l-.007-3.621Z" transform="translate(-63.562 -113.945)" fill="#1565c0"/><path d="M175.923,221.19l.013,3.628-28.623,16.523-.013-3.621Z" transform="translate(-85.776 -98.819)" fill="#1565c0"/><path d="M221.888,200.06l.007,3.628-44.521,25.737-.013-3.628Z" transform="translate(-96.079 -91.576)" fill="#1565c0"/><path d="M229.138,189.84l.007,3.628-30.568,17.68-.007-3.628Z" transform="translate(-103.349 -88.073)" fill="#1565c0"/><path d="M143.093,260.63l.013,3.621-28.623,16.523-.013-3.621Z" transform="translate(-74.523 -112.337)" fill="#1565c0"/><path d="M133.547,250.58l.013,3.628-12.277,7.085-.013-3.621Z" transform="translate(-76.854 -108.892)" fill="#1565c0"/><path d="M177.654,245.6l.007,3.621-12.277,7.085-.013-3.621Z" transform="translate(-91.97 -107.185)" fill="#1565c0"/><path d="M162.827,243.91l.013,3.628-12.284,7.092L150.55,251Z" transform="translate(-86.89 -106.606)" fill="#1565c0"/><path d="M98.462,290.23l.007,3.621L82.557,303.04l-.007-3.621Z" transform="translate(-63.582 -122.483)" fill="#1565c0"/><path d="M100.593,162.311a.3.3,0,0,1,0,.125l-1.571,3.391a.322.322,0,0,1-.125.138.08.08,0,0,1-.131-.072.269.269,0,0,1,0-.125l1.571-3.391a.276.276,0,0,1,.118-.138C100.528,162.193,100.593,162.226,100.593,162.311Z" transform="translate(-69.138 -78.605)" fill="#1565c0"/><path d="M99.294,163.914a1.314,1.314,0,0,1-.572,1.038c-.335.2-.565,0-.572-.375h0a1.314,1.314,0,0,1,.572-1.038C99.064,163.342,99.287,163.539,99.294,163.914Zm-.835.48c0,.223.112.335.269.25a.657.657,0,0,0,.256-.546h0c0-.223-.112-.342-.269-.25a.657.657,0,0,0-.256.546h0" transform="translate(-68.929 -79.032)" fill="#1565c0"/></g><g transform="translate(218.15 144.158)"><path d="M400.16,242.2c3.753-3,6.862,2.629,9.129,8.9,1.38,3.8,2.793,7.512,3.694,9.859a4.732,4.732,0,0,1-.657,4.548l-6.684,8.886-2.958-6.467,3.7-5.613-3.766-6.888Z" transform="translate(-346.97 -214.893)" fill="#26aab7"/><path d="M405.971,264.174l-2.767-5.061-1.314-6.973,4.3,2.557A12.165,12.165,0,0,1,405.971,264.174Z" transform="translate(-347.563 -218.585)" opacity="0.2"/><path d="M408.732,284.236l-1.755,2.333L404,280.142l2.057-3.122a22.917,22.917,0,0,0,1.6,3.943A13.006,13.006,0,0,1,408.732,284.236Z" transform="translate(-348.286 -227.113)" opacity="0.2"/><path d="M375.646,414.936c-.158-.559-.289-1.124-.4-1.7a8.853,8.853,0,0,1-2.872,2.925,12.6,12.6,0,0,1-3.286,1.367,22.938,22.938,0,0,1-6.191.868,2.714,2.714,0,0,1-1.972-.546,1.446,1.446,0,0,1-.348-1.459,1.413,1.413,0,0,1,.381-.578l-.7.171a6.908,6.908,0,0,0-2.359.762,2.024,2.024,0,0,0-1.006,2.1,2.629,2.629,0,0,0,1.617,1.485,11.909,11.909,0,0,0,8.452.447c1.715-.559,3.365-1.518,5.159-1.466,1.025,0,2.156.368,3.017-.191a2.3,2.3,0,0,0,.914-1.972,8.621,8.621,0,0,0-.407-2.221Z" transform="translate(-332.13 -273.804)" fill="#37474f"/><path d="M400.373,395.2a3.732,3.732,0,0,1-1,1.216,2.957,2.957,0,0,1-2.524.532,5.258,5.258,0,0,1-2.143-1.472l-2.248-2.169a2.918,2.918,0,0,1-1.17-2.07,1.972,1.972,0,0,1,1.729-1.623,4.016,4.016,0,0,1,1.505.085l-.224-.164a10.28,10.28,0,0,0-1.84-1.025,3.286,3.286,0,0,0-2.228-.3,2.412,2.412,0,0,0-1.531,2.208,4.213,4.213,0,0,0,.966,2.629,18.451,18.451,0,0,0,1.972,2.057A24.417,24.417,0,0,1,394.2,398a15.5,15.5,0,0,0,1.814,2.215,3.713,3.713,0,0,0,2.57,1.091,2.182,2.182,0,0,0,1.919-1.222,3.49,3.49,0,0,0,.223-1.525C400.655,397.437,400.53,396.314,400.373,395.2Z" transform="translate(-343.042 -265.198)" fill="#37474f"/><path d="M362.537,375.59a1.413,1.413,0,0,1,.381-.578,26.623,26.623,0,0,0,8.544-3.766c-.4-9.366-3.8-33.69-3.8-33.69a345.661,345.661,0,0,1,.394-40.716l25.718-2.57c.657,2.346,2.32,11.173-2.682,34.354,4.18,11.653,1.249,18.166,0,32.494h-.046a1.474,1.474,0,0,0,.072.329c.092.506.158,1.019.23,1.525a3.733,3.733,0,0,1-1,1.216,2.958,2.958,0,0,1-2.524.532,5.258,5.258,0,0,1-2.143-1.472l-2.221-2.116a2.918,2.918,0,0,1-1.17-2.07,1.972,1.972,0,0,1,1.729-1.623,4.016,4.016,0,0,1,1.505.085c.243.184.467.368.7.532l-4.318-26.119-1.012-18.784-2.544,23.371c3.556,10.141-1.663,15.774-1.663,31.975a22.9,22.9,0,0,0,.473,3.943,8.854,8.854,0,0,1-2.872,2.925A12.6,12.6,0,0,1,371,376.734a22.939,22.939,0,0,1-6.191.868,2.714,2.714,0,0,1-1.972-.546,1.446,1.446,0,0,1-.3-1.466Z" transform="translate(-334.045 -233.025)" fill="#ffa8a7"/><path d="M369.812,324.95c-.105-7.709,0-18,.782-28.071l25.718-2.57c.618,2.2,2.123,10.135-1.86,30.371a19.487,19.487,0,0,1-10.227,3.766l-.822-15.281-1.65,15.485A17.745,17.745,0,0,1,369.812,324.95Z" transform="translate(-336.556 -233.039)" opacity="0.2"/><path d="M370.057,296.081l25.737-1.761c2.5,7.085,1.972,15.55,0,27.729-3.109,3.851-14.63,6.947-21.459,3.168l-.815-8.413-.927,8.636c-2.07-.769-3.943-1.439-4.344-4.482a186.187,186.187,0,0,1,1.807-24.877Z" transform="translate(-336.032 -233.042)" fill="#1565c0"/><path d="M370.057,296.081l25.737-1.761c2.5,7.085,1.972,15.55,0,27.729-3.109,3.851-14.63,6.947-21.459,3.168l-.815-8.413-.927,8.636c-2.07-.769-3.943-1.439-4.344-4.482a186.187,186.187,0,0,1,1.807-24.877Z" transform="translate(-336.032 -233.042)" opacity="0.3"/><path d="M376.314,222.66l-1.794,3.358,1.6,1.084C376.209,225.664,376.222,224.093,376.314,222.66Z" transform="translate(-338.181 -208.48)" fill="#f28f8f"/><path d="M336.463,283.942a19.4,19.4,0,0,1-6.4,1.867,11.883,11.883,0,0,1-6.513-1.124,8.794,8.794,0,0,1-4.318-5h0a2.051,2.051,0,0,1,2.55-.381,8.5,8.5,0,0,0,6.415.769,14.372,14.372,0,0,1-1.814-2.267c-.256-.4-.5-.927-.237-1.314a.914.914,0,0,1,1.025-.276,3.187,3.187,0,0,1,.953.611,12.908,12.908,0,0,0,5.6,2.629C334.57,280.88,335.622,282.549,336.463,283.942Z" transform="translate(-319.23 -226.819)" fill="#ffa8a7"/><path d="M377.408,244.5c3.359-1.038,13.145-3.168,15.6-.94,2.156,1.972,3.562,8.676.657,17.305a10.22,10.22,0,0,0,.342,7.532,44.79,44.79,0,0,1,2.964,8.485c-7.847,7.992-21.689,6.756-26.894,3.352a127.686,127.686,0,0,1,1.643-19.093Z" transform="translate(-336.659 -215.308)" fill="#26aab7"/><path d="M378.292,215.22a12.994,12.994,0,0,0-2.031,5.8,39.1,39.1,0,0,0-.085,6.2,4.056,4.056,0,0,0,.565,2.3,3.181,3.181,0,0,0,2.55,1h2.839l.2,4.285c3.378,1.873,7.184.565,8.169-.769l-.171-4.193c-5.258.986-8.1-.815-8.59-4.075a3.654,3.654,0,0,0,3.036-.789,3.464,3.464,0,0,0,.992-2.879,2.294,2.294,0,0,0-.539-1.275,2.077,2.077,0,0,0-2.149-.453,3.286,3.286,0,0,0-1.7,1.512,8.406,8.406,0,0,0-.789,2.182,1.972,1.972,0,0,1-.657-2.136c.145-.388.421-.756.361-1.163s-.532-.749-.756-1.157a1.564,1.564,0,0,1-.079-1.157,4.7,4.7,0,0,1,.506-1.071A10.442,10.442,0,0,0,378.292,215.22Z" transform="translate(-338.72 -205.93)" fill="#ffa8a7"/><path d="M370.94,272.236c.473-4.752,1.058-8.11,1.058-8.11l4.4-12.836,1.656,2.287C377.052,259.643,374.673,267.162,370.94,272.236Z" transform="translate(-336.954 -218.293)" opacity="0.2"/><path d="M367.292,245.15c-6.185-2.695-6.894,3.194-10.292,9.464-2.077,4.029-4.647,7.887-4.647,7.887a46.924,46.924,0,0,1-11.449,5.258c-1.347,3.549,1.781,7.039,1.781,7.039l13.283-5.757a12.021,12.021,0,0,0,5.442-4.719C366.175,256.567,369.678,251.079,367.292,245.15Z" transform="translate(-326.544 -215.959)" fill="#26aab7"/><path d="M378.447,212.439c-1.393-1.544-2.846-3.22-3.148-5.258a5.3,5.3,0,0,1,9.51-3.943c3.345-1.5,8.137-.539,10.437,2.314s2.5,7.092,2.1,10.851-1.183,7.617-.23,11.285c.861,3.286,3.089,6.27,3.01,9.668a8.544,8.544,0,0,1-2.99,6.047,12.008,12.008,0,0,1-6.283,2.721,11.758,11.758,0,0,1-6.066-.657,8.229,8.229,0,0,1-4.423-4.095c-1.058-2.359-.743-5.1-.158-7.617s1.406-5.041,1.314-7.624C381.332,221.456,378.145,217.138,378.447,212.439Z" transform="translate(-338.428 -201.085)" fill="#263238"/></g><g transform="translate(149.602 64.036)"><path d="M304.681,123.84h0a10.26,10.26,0,0,1,8.616,11.114l-1.275,13.25,8.413,1.676-2.688,6.494-14.637-1.479Z" transform="translate(-245.157 -94.487)" fill="#455a64"/><path d="M304.681,123.84h0a10.26,10.26,0,0,1,8.616,11.114l-1.275,13.25,8.413,1.676-2.688,6.494-14.637-1.479Z" transform="translate(-245.157 -94.487)" fill="#fff" opacity="0.1"/><path d="M312.022,150.072a2.3,2.3,0,0,0-1.755,1.144,70.413,70.413,0,0,0,.73-10.45c-.046-2.557-.283-5.225-1.637-7.394a10.6,10.6,0,0,0-3.687-3.424c-.381-.23-.776-.44-1.176-.657l-1.387,27.453,14.637,1.479,2.688-6.494Z" transform="translate(-245.157 -96.355)" opacity="0.3"/><path d="M314.08,300.86a5.915,5.915,0,0,1-4.443,1.637,13.54,13.54,0,0,1-4.693-1.19c-1.5-.618-3.385-2.34-5.008-2.313a38.209,38.209,0,0,1-4.752-.322,24.641,24.641,0,0,1,.657-6.428l7.578-.2a18.78,18.78,0,0,0,9.037,6.007,2.675,2.675,0,0,1,1.873,1.972.1.1,0,0,0,0,.046,3.386,3.386,0,0,1-.25.8Z" transform="translate(-242.437 -152.139)" fill="#455a64"/><path d="M299.942,302.452c1.623,0,3.51,1.7,5.008,2.313a13.539,13.539,0,0,0,4.693,1.19,5.915,5.915,0,0,0,4.443-1.637,3.383,3.383,0,0,0,.263-.769.1.1,0,0,1,0-.046,2.471,2.471,0,0,1,0,1.006,3.536,3.536,0,0,1-.263.776,5.954,5.954,0,0,1-4.443,1.63,13.381,13.381,0,0,1-4.693-1.183c-1.5-.618-3.385-2.346-5.008-2.313a36.024,36.024,0,0,1-4.673-.269c-.039-.342-.059-.657-.079-1.019A38.209,38.209,0,0,0,299.942,302.452Z" transform="translate(-242.443 -155.598)" fill="#263238"/><path d="M268.631,304.422a11.231,11.231,0,0,0,.223,2.3,5.336,5.336,0,0,0,2.1,3.352,6.658,6.658,0,0,0,3.339.887,7.229,7.229,0,0,0,3.056-.315,3.477,3.477,0,0,0,1.788-1.459.085.085,0,0,0,0,.039,3.194,3.194,0,0,1-2.057,2.143,7.368,7.368,0,0,1-3.056.315,6.8,6.8,0,0,1-3.339-.887,5.311,5.311,0,0,1-2.1-3.352,11.241,11.241,0,0,1-.23-2.3,3.851,3.851,0,0,0-1.229-2.806c-.191-.184-.375-.368-.539-.559a1.387,1.387,0,0,1-.329-1,1.293,1.293,0,0,1,.046-.421c.276.322.933,1.1,1.1,1.255a3.891,3.891,0,0,1,1.229,2.806Z" transform="translate(-232.525 -154.991)" fill="#263238"/><path d="M274.464,294.36a8.36,8.36,0,0,0,.585,4.66,17.68,17.68,0,0,0,2.471,4.055,12.259,12.259,0,0,1,1.314,1.886,3.378,3.378,0,0,1,.368,2.169,3.477,3.477,0,0,1-1.788,1.459,7.229,7.229,0,0,1-3.056.315,6.658,6.658,0,0,1-3.339-.887,5.337,5.337,0,0,1-2.1-3.352,11.232,11.232,0,0,1-.223-2.3,3.891,3.891,0,0,0-1.236-2.806c-.164-.158-.822-.933-1.1-1.255a8.544,8.544,0,0,1,1.13-3.253Z" transform="translate(-232.561 -152.935)" fill="#455a64"/><path d="M296.7,180.47l-.657,43.227L294,253.93c-5.159,3.286-8.9.6-8.9.6-1.972-14.334-2.228-23.155-1.157-29.116l-.979-23.325L280.024,226.3l-4.916,29.707c-5.3,3.437-9.037,0-9.037,0,0-10.989-.979-23.273,2.044-31.2a182.056,182.056,0,0,1,1.426-43.89Z" transform="translate(-232.41 -113.898)" fill="#263238"/><path d="M292.968,198.545l-1.078,8.912.453,10.923,1.972-17.962c4.6-1.8,5.212-4.338,5.212-4.338a14.2,14.2,0,0,1-6.559,2.465Z" transform="translate(-241.311 -119.248)" opacity="0.3"/><path d="M287.225,123l5.054.532c4.141,3.654,6.277,11.311,5.389,19.77a149.318,149.318,0,0,0-.624,17.45c-11.219,8.189-25.376,2.221-27.157.447l.835-10.371a7.177,7.177,0,0,0-.572-3.418c-1.058-2.458-2.944-7.3-3.2-11.055A19.638,19.638,0,0,1,269,126.694l7.341-3.2Z" transform="translate(-232.756 -94.199)" fill="#455a64"/><g transform="translate(34.174 28.801)" opacity="0.1"><path d="M287.225,123l5.054.532c4.141,3.654,6.277,11.311,5.389,19.77a149.318,149.318,0,0,0-.624,17.45c-11.219,8.189-25.376,2.221-27.157.447l.835-10.371a7.177,7.177,0,0,0-.572-3.418c-1.058-2.458-2.944-7.3-3.2-11.055A19.638,19.638,0,0,1,269,126.694l7.341-3.2Z" transform="translate(-266.93 -123)" fill="#fff"/></g><path d="M299.167,134.24a54.754,54.754,0,0,1,4.16,19.717l-2.083,4.476-3.286-4.279a169.34,169.34,0,0,0-.388-19.651Z" transform="translate(-243.258 -98.052)" fill="#fff"/><path d="M297.992,128.65a15.532,15.532,0,0,1-.177,3.674,2.905,2.905,0,0,1-1.571.289,12.737,12.737,0,0,1-2.524-3.05l2.524-.914Z" transform="translate(-241.939 -96.136)" fill="#fff"/><path d="M284.725,102.945a3.372,3.372,0,0,1-2.11-3.9A4.509,4.509,0,0,1,281.3,96.32a4.555,4.555,0,0,1,.756-2.938,5.573,5.573,0,0,1,.407-4.758,5.567,5.567,0,0,1,.164-3.109,3.03,3.03,0,0,1-.4-3.365,2.944,2.944,0,0,1,2.977-1.505,2.977,2.977,0,0,1,2.629-1.466,3.1,3.1,0,0,1,2.629,1.591,3.188,3.188,0,0,1,2.76-.927,3.24,3.24,0,0,1,2.425,1.643,2.3,2.3,0,0,1,2.281-.164,2.406,2.406,0,0,1,1.5,1.8,2.938,2.938,0,0,1,3.122,1.577,2.688,2.688,0,0,1-.762,3.24c1.347,1.972-.618,3.6-2.116,2.629-1.656,5.777-12,1.827-12,1.827Z" transform="translate(-237.676 -79.179)" fill="#263238"/><path d="M286.142,109.43l-.591,7.782a8.61,8.61,0,0,0,6,3.943c.5.072,1.406,1.038,1.893.914.276-.072.171-1.144.4-1.314a1.827,1.827,0,0,0,0-2.9,1,1,0,0,1-.394-.868l.191-2.53c-1.157-.263-2.294-.559-3.286-.854a6.106,6.106,0,0,1-4.213-4.173Z" transform="translate(-239.138 -89.548)" fill="#ffa8a7"/><path d="M286.142,109.43l-.591,7.782a8.61,8.61,0,0,0,6,3.943c.5.072,1.406,1.038,1.893.914.276-.072.171-1.144.4-1.314a1.827,1.827,0,0,0,0-2.9,1,1,0,0,1-.394-.868l.191-2.53c-1.157-.263-2.294-.559-3.286-.854a6.106,6.106,0,0,1-4.213-4.173Z" transform="translate(-239.138 -89.548)" opacity="0.3"/><path d="M293.824,117.157l.191-2.53c-1.157-.263-2.294-.559-3.286-.854a6.112,6.112,0,0,1-4.049-3.812,7.887,7.887,0,0,0,1.347,3.865C288.862,114.87,292.943,116.992,293.824,117.157Z" transform="translate(-239.526 -89.729)" opacity="0.2"/><path d="M298.972,95.714c-.71.407-1.314.953-2.2.808a2.044,2.044,0,0,1-1.314-.8,1.525,1.525,0,0,1-2.747-.966,1.794,1.794,0,0,1-1.551.158c-.131-.046-1.361-.782-1.347-.8a3.608,3.608,0,0,1-1.505,1.591,4.088,4.088,0,0,1-2.359.309,14.118,14.118,0,0,1-1.216,4.187.841.841,0,0,1-.716.493c-.546,0-.73-.6-.848-1.091a3.562,3.562,0,0,0-.736-1.518,1.768,1.768,0,0,0-1.518-.611,1.735,1.735,0,0,0-1.117.776,3,3,0,0,0-.44,1.314,4.193,4.193,0,0,0,.276,2.274,2.846,2.846,0,0,0,1.643,1.551,2.064,2.064,0,0,0,2.116-.388v.145a6.375,6.375,0,0,0,0,.71,5.771,5.771,0,0,0,3.056,4.6c.881.467,1.873.953,2.885,1.42.5.23,1.006.46,1.512.657a3.943,3.943,0,0,0,5.074-1.9C297.769,104.81,299.36,100.163,298.972,95.714Z" transform="translate(-236.997 -84.297)" fill="#ffa8a7"/><path d="M298.972,95.714c-.71.407-1.314.953-2.2.808a2.044,2.044,0,0,1-1.314-.8,1.525,1.525,0,0,1-2.747-.966,1.794,1.794,0,0,1-1.551.158c-.131-.046-1.361-.782-1.347-.8a3.608,3.608,0,0,1-1.505,1.591,4.088,4.088,0,0,1-2.359.309,14.118,14.118,0,0,1-1.216,4.187.841.841,0,0,1-.716.493c-.546,0-.73-.6-.848-1.091a3.562,3.562,0,0,0-.736-1.518,1.768,1.768,0,0,0-1.518-.611,1.735,1.735,0,0,0-1.117.776,3,3,0,0,0-.44,1.314,4.193,4.193,0,0,0,.276,2.274,2.846,2.846,0,0,0,1.643,1.551,2.064,2.064,0,0,0,2.116-.388v.145a6.375,6.375,0,0,0,0,.71,5.771,5.771,0,0,0,3.056,4.6c.881.467,1.873.953,2.885,1.42.5.23,1.006.46,1.512.657a3.943,3.943,0,0,0,5.074-1.9C297.769,104.81,299.36,100.163,298.972,95.714Z" transform="translate(-236.997 -84.297)" opacity="0.3"/><path d="M298.437,101.564l-.44-.125-.473-.138a6.94,6.94,0,0,0-6.112-2.445l-.276.96.21.2a9.9,9.9,0,0,1-.309,1.972,2.629,2.629,0,0,0,.217,1.873A2.991,2.991,0,0,0,293,104.89a3.72,3.72,0,0,0,1.623.223A2.629,2.629,0,0,0,296.242,104c.394-.532.46-.894.946-1.531a.546.546,0,0,1,.592-.191.506.506,0,0,1,.368.467c.059.8-.079,1.13-.039,1.794a2.576,2.576,0,0,0,.7,1.742,3.24,3.24,0,0,0,1.393.657,2.1,2.1,0,0,0,3.03-1.472,10.515,10.515,0,0,1,.756-1.821l.276-.066.276-.96a6.145,6.145,0,0,0-6.106-1.052Zm-1.512.1-.138.335a8.177,8.177,0,0,1-.979,1.683,2.149,2.149,0,0,1-1.268.881,2.806,2.806,0,0,1-1.176-.145l-.2-.059a2.517,2.517,0,0,1-1.439-.815,2.044,2.044,0,0,1-.151-1.492,2.863,2.863,0,0,1,.1-.506c.105-.467.421-1.466.657-2.182a6.119,6.119,0,0,1,1.656.243,6.323,6.323,0,0,1,2.944,1.853c.059.046-.026.2-.026.2Zm6,3.115c-.059.158-.112.322-.177.48a2.123,2.123,0,0,1-.881,1.2,2.208,2.208,0,0,1-1.558-.046l-.191-.053a2.438,2.438,0,0,1-1-.48,2.129,2.129,0,0,1-.552-1.406,8.935,8.935,0,0,1,.092-1.932l.066-.355s.033-.164.092-.184a5.679,5.679,0,0,1,3.286-.072,5.41,5.41,0,0,1,1.433.657c-.184.723-.447,1.735-.611,2.189Z" transform="translate(-240.991 -85.908)" fill="#455a64"/><path d="M288.7,98.87l-5.659.368a2.327,2.327,0,0,1,.868.762c.039.066,4.515-.171,4.515-.171Z" transform="translate(-238.278 -85.928)" fill="#455a64"/><path d="M300.753,104.19l1.683,3.871-2.616.158Z" transform="translate(-244.029 -87.752)" fill="#f28f8f"/><path d="M300.753,104.19l1.683,3.871-2.616.158Z" transform="translate(-244.029 -87.752)" opacity="0.3"/><path d="M295.485,102.911a.743.743,0,1,0,.92-.506A.743.743,0,0,0,295.485,102.911Z" transform="translate(-242.533 -87.13)" fill="#263238"/><path d="M304.663,105.223a.741.741,0,1,0,.914-.5.73.73,0,0,0-.914.5Z" transform="translate(-245.685 -87.924)" fill="#263238"/><path d="M305.47,100.345l1.84.756a1.038,1.038,0,0,0-.559-1.065A1.242,1.242,0,0,0,305.47,100.345Z" transform="translate(-245.966 -86.306)" fill="#263238"/><path d="M297.832,97.923l-1.972.3a1.058,1.058,0,0,1,.8-.9A1.262,1.262,0,0,1,297.832,97.923Z" transform="translate(-242.672 -85.395)" fill="#263238"/><path d="M295.281,111.21l1.9,1.314a1.36,1.36,0,0,1-1.623.2A1.222,1.222,0,0,1,295.281,111.21Z" transform="translate(-242.422 -90.158)" fill="#f28f8f"/><path d="M295.281,111.21l1.9,1.314a1.36,1.36,0,0,1-1.623.2A1.222,1.222,0,0,1,295.281,111.21Z" transform="translate(-242.422 -90.158)" opacity="0.4"/><path d="M296.262,113.091a1.222,1.222,0,0,1-.7-.177,1.117,1.117,0,0,1-.388-1.163,1.255,1.255,0,0,1,1.091,1.314Z" transform="translate(-242.423 -90.343)" fill="#f28f8f"/><path d="M291.97,125.449c-2.182.8-4.114,4.673-4.114,4.673-5.711-4.85-6.605-7.887-6.605-7.887a11.416,11.416,0,0,1,2.767-2.925Z" transform="translate(-237.664 -92.934)" fill="#455a64"/><path d="M297.56,126.144c1.656.046,3.128,2.359,3.128,2.359.263-4.049-3.128-7.164-3.128-7.164Z" transform="translate(-243.255 -93.63)" fill="#455a64"/><path d="M312.117,168.654l5.179-21.091A2.5,2.5,0,0,1,318.472,146l12.875-7.414a.486.486,0,0,1,.243-.066h0a1.222,1.222,0,0,1,1.17.822h0a.506.506,0,0,1,.033.329l-5.159,21.091a2.511,2.511,0,0,1-1.176,1.564l-12.9,7.4a.513.513,0,0,1-.335.053h0a1.492,1.492,0,0,1-1.071-.815.1.1,0,0,1,0-.046h0A.466.466,0,0,1,312.117,168.654Z" transform="translate(-248.242 -99.519)" fill="#1565c0"/><path d="M313.194,169.46l5.159-21.1a2.471,2.471,0,0,1,1.176-1.558l12.875-7.42a.5.5,0,0,1,.736.552l-5.159,21.091a2.511,2.511,0,0,1-1.176,1.564L313.923,170a.513.513,0,0,1-.335.053.493.493,0,0,1-.394-.592Z" transform="translate(-248.61 -99.792)" opacity="0.3"/><path d="M333.307,163.289l-.48.256a1.755,1.755,0,0,1-.946.21l-2.09-.131a.973.973,0,0,0-1.019.8h0a.979.979,0,0,0,.729,1.124l.388.092-.46,2.688a1.7,1.7,0,0,0,1.413,1.972l1.183.177a2.274,2.274,0,0,0,1.42-.256h0a2.215,2.215,0,0,0,1.065-1.393l1.275-4.962a3.345,3.345,0,0,0-.657-2.931h0A3.681,3.681,0,0,1,333.307,163.289Z" transform="translate(-253.948 -107.2)" fill="#ffa8a7"/><path d="M333.307,163.289l-.48.256a1.755,1.755,0,0,1-.946.21l-2.09-.131a.973.973,0,0,0-1.019.8h0a.979.979,0,0,0,.729,1.124l.388.092-.46,2.688a1.7,1.7,0,0,0,1.413,1.972l1.183.177a2.274,2.274,0,0,0,1.42-.256h0a2.215,2.215,0,0,0,1.065-1.393l1.275-4.962a3.345,3.345,0,0,0-.657-2.931h0A3.681,3.681,0,0,1,333.307,163.289Z" transform="translate(-253.948 -107.2)" opacity="0.3"/><path d="M330.48,168.011a5.35,5.35,0,0,0,3.089-.151A2.088,2.088,0,0,1,330.48,168.011Z" transform="translate(-254.539 -109.575)" opacity="0.2"/><path d="M267.06,138.27a16.854,16.854,0,0,0-.118,3.339c.256,3.753,2.143,8.6,3.2,11.055a7.165,7.165,0,0,1,.526,1.972c2.708-4.66,3.667-7.118,3.786-13.237Z" transform="translate(-232.748 -99.433)" opacity="0.3"/><path d="M243.964,155.381l-13.092-2.721-1.032,4.357,12.862,6.441a7.887,7.887,0,0,0,2.083-3.812,5.567,5.567,0,0,0-.822-4.265Z" transform="translate(-220.043 -104.365)" fill="#ffa8a7"/><path d="M243.964,155.381l-13.092-2.721-1.032,4.357,12.862,6.441a7.887,7.887,0,0,0,2.083-3.812,5.567,5.567,0,0,0-.822-4.265Z" transform="translate(-220.043 -104.365)" opacity="0.3"/><path d="M263,128.552c-6.494,3.148-5.4,8.169-11.364,18.7l-.96-.2a5.567,5.567,0,0,1,.822,4.265,7.887,7.887,0,0,1-2.083,3.812l2.839.789a7.171,7.171,0,0,0,8.064-3.194L267,141.658C270.6,135.867,268.5,126.962,263,128.552Z" transform="translate(-226.751 -96.038)" fill="#455a64"/><path d="M263,128.552c-6.494,3.148-5.4,8.169-11.364,18.7l-.96-.2a5.567,5.567,0,0,1,.822,4.265,7.887,7.887,0,0,1-2.083,3.812l2.839.789a7.171,7.171,0,0,0,8.064-3.194L267,141.658C270.6,135.867,268.5,126.962,263,128.552Z" transform="translate(-226.751 -96.038)" fill="#fff" opacity="0.1"/><path d="M258.172,157.725,252.75,156.6l.3-.539C256.858,154.524,258.172,157.725,258.172,157.725Z" transform="translate(-227.896 -105.388)" opacity="0.3"/><path d="M249.2,164.88a5.613,5.613,0,0,0,.92-8.616,2.386,2.386,0,0,0-1.1-.657l-2.037-.5a1.564,1.564,0,0,0-1.262.237l-.151.1,1.742.361c3.4,2.629,1.17,7.644-.828,7.808l-1.972-.986a.907.907,0,0,0,.434,1.124,16.432,16.432,0,0,0,3.155,1.328,1.584,1.584,0,0,0,1.1-.2Z" transform="translate(-225.052 -105.189)" fill="#455a64"/><path d="M226.63,152.024a2.741,2.741,0,0,0-2.373-1.374,8.925,8.925,0,0,0-2.826.506,9.161,9.161,0,0,1-2.044.408.861.861,0,0,0-.822.756h0a.841.841,0,0,0,.808.933c.861,0,1.735.1,2.583.072a26.586,26.586,0,0,1-6.526,5.58.973.973,0,0,0-.21,1.538h0a.966.966,0,0,0,1.124.177,34.585,34.585,0,0,0,4.528-2.9,25.133,25.133,0,0,1-4.338,3.6.979.979,0,0,0,0,1.63h0a.992.992,0,0,0,1.058.046,24.844,24.844,0,0,0,5.6-4.6,21.492,21.492,0,0,1-3.174,3.589.933.933,0,0,0-.059,1.314h0a.92.92,0,0,0,1.229.131,18.113,18.113,0,0,0,4.154-4.1,17.68,17.68,0,0,1-2.918,4.035.611.611,0,0,0,.066.894h0a.6.6,0,0,0,.782,0,24.318,24.318,0,0,0,5.823-7.124,6.83,6.83,0,0,0,.73-2.294,3.03,3.03,0,0,0-.657-2.267A2.629,2.629,0,0,0,226.63,152.024Z" transform="translate(-214.934 -103.676)" fill="#ffa8a7"/><path d="M226.63,152.024a2.741,2.741,0,0,0-2.373-1.374,8.925,8.925,0,0,0-2.826.506,9.161,9.161,0,0,1-2.044.408.861.861,0,0,0-.822.756h0a.841.841,0,0,0,.808.933c.861,0,1.735.1,2.583.072a26.586,26.586,0,0,1-6.526,5.58.973.973,0,0,0-.21,1.538h0a.966.966,0,0,0,1.124.177,34.585,34.585,0,0,0,4.528-2.9,25.133,25.133,0,0,1-4.338,3.6.979.979,0,0,0,0,1.63h0a.992.992,0,0,0,1.058.046,24.844,24.844,0,0,0,5.6-4.6,21.492,21.492,0,0,1-3.174,3.589.933.933,0,0,0-.059,1.314h0a.92.92,0,0,0,1.229.131,18.113,18.113,0,0,0,4.154-4.1,17.68,17.68,0,0,1-2.918,4.035.611.611,0,0,0,.066.894h0a.6.6,0,0,0,.782,0,24.318,24.318,0,0,0,5.823-7.124,6.83,6.83,0,0,0,.73-2.294,3.03,3.03,0,0,0-.657-2.267A2.629,2.629,0,0,0,226.63,152.024Z" transform="translate(-214.934 -103.676)" opacity="0.3"/><path d="M225.581,154.74c.453,1.551,2.892,1.709,3.628,1.2C226.974,157.724,225.18,155.608,225.581,154.74Z" transform="translate(-218.564 -105.078)" opacity="0.2"/></g><g transform="translate(87.201 149.039)"><path d="M120.318,276.792l3.819-7.933h0c4.272-8.906,8.058-18.968,15.583-16.628l-8.038,21.564-1.623,3.418,3.878,4.272-.283,10.187-12.488-10.858A3.385,3.385,0,0,1,120.318,276.792Z" transform="translate(-119.989 -223.38)" fill="#fb8c00"/><path d="M131.91,293.476a7.836,7.836,0,0,0,2.235-3.056l.966,1.065A4.962,4.962,0,0,1,131.91,293.476Z" transform="translate(-124.075 -236.587)" opacity="0.1"/><path d="M137.223,292.54l2.629,2.879-.283,10.187-2.359-2.051a73.371,73.371,0,0,0,.013-11.015Z" transform="translate(-125.891 -237.314)" opacity="0.1"/><path d="M136.54,263.515a14.867,14.867,0,0,1,5.744-.92l-5.541,14.86-1.117,2.346a26.48,26.48,0,0,1,.914-16.286Z" transform="translate(-125.05 -227.046)" opacity="0.1"/><path d="M171.914,239.75h0a3.983,3.983,0,0,1,2.451,1.926l2.695,4.91,8.787,10.043a23.825,23.825,0,0,1,5.317,10.483h0A4.9,4.9,0,0,1,189.9,271.6h0a4.9,4.9,0,0,1-6.934.079l-2.938-2.846.657-4.515-7.617-14.834-4.2-2.458a3.464,3.464,0,0,1-1.663-2.419l-.322-1.939Z" transform="translate(-136.061 -219.219)" fill="#f28f8f"/><path d="M167.662,448.184a4.026,4.026,0,0,0,3.635,2.445,18.325,18.325,0,0,0,4.6-.585c3.411-.618,6.7,0,10.108-.085a14.459,14.459,0,0,0,3.326-.361,5.488,5.488,0,0,0,2.839-1.676,3.7,3.7,0,0,0,.822-1.781,3.51,3.51,0,0,1-.822,2.78,5.488,5.488,0,0,1-2.839,1.676,14.459,14.459,0,0,1-3.326.361c-3.4.079-6.7-.532-10.108.085a17.954,17.954,0,0,1-4.6.585,4.029,4.029,0,0,1-3.635-2.445,3.943,3.943,0,0,1-.118-1.571,3.4,3.4,0,0,0,.118.572Z" transform="translate(-136.278 -289.962)" fill="#455a64"/><path d="M167.766,441.918c.21-1.032.414-2.07.657-3.1a4.705,4.705,0,0,1,.526-1.577,1.558,1.558,0,0,1,1.38-.789c1.873-.25,4.5-.927,6.053.145a13.914,13.914,0,0,0,8.36,2.425,28.482,28.482,0,0,1,4.6-.184,4.171,4.171,0,0,1,3.589,2.517,3.115,3.115,0,0,1,.079,1.347,3.7,3.7,0,0,1-.822,1.781,5.488,5.488,0,0,1-2.839,1.676,14.461,14.461,0,0,1-3.326.361c-3.4.079-6.7-.532-10.108.085a17.954,17.954,0,0,1-4.6.585,4.029,4.029,0,0,1-3.635-2.445,3.4,3.4,0,0,1-.118-.572A7.3,7.3,0,0,1,167.766,441.918Z" transform="translate(-136.289 -286.489)" fill="#455a64"/><g transform="translate(31.235 149.519)" opacity="0.5"><path d="M167.662,448.184a4.026,4.026,0,0,0,3.635,2.445,18.325,18.325,0,0,0,4.6-.585c3.411-.618,6.7,0,10.108-.085a14.459,14.459,0,0,0,3.326-.361,5.488,5.488,0,0,0,2.839-1.676,3.7,3.7,0,0,0,.822-1.781,3.51,3.51,0,0,1-.822,2.78,5.488,5.488,0,0,1-2.839,1.676,14.459,14.459,0,0,1-3.326.361c-3.4.079-6.7-.532-10.108.085a17.954,17.954,0,0,1-4.6.585,4.029,4.029,0,0,1-3.635-2.445,3.943,3.943,0,0,1-.118-1.571,3.4,3.4,0,0,0,.118.572Z" transform="translate(-167.513 -439.481)" fill="#fff" opacity="0.6"/><path d="M167.766,441.918c.21-1.032.414-2.07.657-3.1a4.705,4.705,0,0,1,.526-1.577,1.558,1.558,0,0,1,1.38-.789c1.873-.25,4.5-.927,6.053.145a13.914,13.914,0,0,0,8.36,2.425,28.482,28.482,0,0,1,4.6-.184,4.171,4.171,0,0,1,3.589,2.517,3.115,3.115,0,0,1,.079,1.347,3.7,3.7,0,0,1-.822,1.781,5.488,5.488,0,0,1-2.839,1.676,14.461,14.461,0,0,1-3.326.361c-3.4.079-6.7-.532-10.108.085a17.954,17.954,0,0,1-4.6.585,4.029,4.029,0,0,1-3.635-2.445,3.4,3.4,0,0,1-.118-.572A7.3,7.3,0,0,1,167.766,441.918Z" transform="translate(-167.524 -436.008)" fill="#37474f"/></g><path d="M177.633,431.91l.131,4.035a1.6,1.6,0,0,1-1.485,1.656,25.418,25.418,0,0,1-4.068-.039,2.307,2.307,0,0,1-2.083-2.169l-.158-2.977Z" transform="translate(-137.12 -285.084)" fill="#ffa8a7"/><path d="M141.455,423.348a3.109,3.109,0,0,0,.539,1.669,3.036,3.036,0,0,0,1.906,1.071,4.824,4.824,0,0,0,4.732-1.972c.506-.736.8-1.6,1.275-2.36a10.76,10.76,0,0,1,2.629-2.576,11.173,11.173,0,0,0,2.675-2.563,3.779,3.779,0,0,0,.506-3.418,2.189,2.189,0,0,1,.25.434,3.884,3.884,0,0,1-.473,3.635,11.449,11.449,0,0,1-2.728,2.629,10.858,10.858,0,0,0-2.708,2.662c-.493.776-.789,1.669-1.314,2.425a4.877,4.877,0,0,1-4.824,2,3.07,3.07,0,0,1-1.972-1.1,3.733,3.733,0,0,1-.565-2.32A.29.29,0,0,0,141.455,423.348Z" transform="translate(-127.317 -278.671)" fill="#455a64"/><path d="M142.732,417.267c1.229-2.149,3.759-3.72,5.711-5.258a7.334,7.334,0,0,1,3.792-1.722,3.542,3.542,0,0,1,3.523,1.8,1.157,1.157,0,0,1,.039.112,3.779,3.779,0,0,1-.506,3.418,11.173,11.173,0,0,1-2.675,2.563,10.76,10.76,0,0,0-2.629,2.576c-.48.756-.769,1.623-1.275,2.359a4.824,4.824,0,0,1-4.732,1.972,3.036,3.036,0,0,1-1.906-1.071,3.108,3.108,0,0,1-.539-1.669,5.842,5.842,0,0,1,0-.585,9.471,9.471,0,0,1,1.2-4.5Z" transform="translate(-127.372 -277.664)" fill="#455a64"/><g transform="translate(14.052 132.597)" opacity="0.5"><path d="M141.455,423.348a3.109,3.109,0,0,0,.539,1.669,3.036,3.036,0,0,0,1.906,1.071,4.824,4.824,0,0,0,4.732-1.972c.506-.736.8-1.6,1.275-2.36a10.76,10.76,0,0,1,2.629-2.576,11.173,11.173,0,0,0,2.675-2.563,3.779,3.779,0,0,0,.506-3.418,2.189,2.189,0,0,1,.25.434,3.884,3.884,0,0,1-.473,3.635,11.449,11.449,0,0,1-2.728,2.629,10.858,10.858,0,0,0-2.708,2.662c-.493.776-.789,1.669-1.314,2.425a4.877,4.877,0,0,1-4.824,2,3.07,3.07,0,0,1-1.972-1.1,3.733,3.733,0,0,1-.565-2.32A.29.29,0,0,0,141.455,423.348Z" transform="translate(-141.369 -411.269)" fill="#fff" opacity="0.6"/><path d="M142.732,417.267c1.229-2.149,3.759-3.72,5.711-5.258a7.334,7.334,0,0,1,3.792-1.722,3.542,3.542,0,0,1,3.523,1.8,1.157,1.157,0,0,1,.039.112,3.779,3.779,0,0,1-.506,3.418,11.173,11.173,0,0,1-2.675,2.563,10.76,10.76,0,0,0-2.629,2.576c-.48.756-.769,1.623-1.275,2.359a4.824,4.824,0,0,1-4.732,1.972,3.036,3.036,0,0,1-1.906-1.071,3.108,3.108,0,0,1-.539-1.669,5.842,5.842,0,0,1,0-.585,9.471,9.471,0,0,1,1.2-4.5Z" transform="translate(-141.424 -410.261)" fill="#37474f"/></g><path d="M148.3,418.08v3.674a6.152,6.152,0,0,1-5.711-.256l-.342-3.286Z" transform="translate(-127.619 -280.344)" fill="#ffa8a7"/><path d="M140.414,316.74c-1.1,3.286.25,18.994.894,34.045-2.386,5.692-1.742,21.847-.368,33.322,0,0,2.386,1.466,6.7,0l5.4-31.666.749-17.9s1.36,15.879,2.918,26.066c-1.466,7.8-1.1,9.267,2.524,33.263a9.05,9.05,0,0,0,8.123,0c2.051-33.71,1.314-64.409.907-75.484Z" transform="translate(-126.749 -245.609)" fill="#455a64"/><path d="M140.564,316.74l27.867,1.65c.131,3.753.309,9.786.4,17.437a29.07,29.07,0,0,1-14.459,3.1c-.256-2.662-.4-4.377-.4-4.377l-.184,4.338a28.964,28.964,0,0,1-13.145-4.265C140.156,325.9,139.867,318.83,140.564,316.74Z" transform="translate(-126.899 -245.609)" opacity="0.3"/><path d="M155.6,349.932l.618-14.6c-3.773,0-7.276-2.82-9.937-5.495a16.811,16.811,0,0,0,7.512,6.572Z" transform="translate(-129 -250.099)" opacity="0.3"/><path d="M136.78,307.1c.256-3.838,1.972-20.374,1.7-24.318-.565-7.946-1.755-15.327-1.61-19.2.21-5.777.92-12.3,9.859-10.989l9.537.933,4.837,1.17,6.724,13.966v17.345l.907,24.975a34.892,34.892,0,0,1-19.559,2.425,73.308,73.308,0,0,1-2.1-12.8,61.729,61.729,0,0,0-1.025,12.08C140.9,311.191,137.477,308.667,136.78,307.1Z" transform="translate(-125.744 -223.563)" fill="#fb8c00"/><path d="M180.464,278.765l-6.894-7.585a32.908,32.908,0,0,0,6.894,14.177Z" transform="translate(-138.354 -229.992)" opacity="0.1"/><path d="M163.119,218.862a1.354,1.354,0,0,0,.2-1.492,1.748,1.748,0,0,0,1.42-.2,1.314,1.314,0,0,0,.618-1.216,1.091,1.091,0,0,0-.914-.966,1.9,1.9,0,0,0,1.426-2.011,2.3,2.3,0,0,0-1.591-1.768,5.56,5.56,0,0,0-2.484-.138,1.972,1.972,0,0,0-1.052-2.353,2.432,2.432,0,0,0-2.281.375,7.315,7.315,0,0,0-1.617,1.775,7.1,7.1,0,0,0-10.1,3.943,4.87,4.87,0,0,0-3.161,3.286,7.69,7.69,0,0,0,.269,4.6,21.261,21.261,0,0,0,2.162,4.167l1.19,1.886c.5.789,1.781,2.754,2.281,3.543a7.4,7.4,0,0,0,7.052-.434,12.008,12.008,0,0,0,4.528-5.619,38.252,38.252,0,0,0,2.057-7.381Z" transform="translate(-127.995 -208.538)" fill="#263238"/><path d="M152.479,233.151a6.855,6.855,0,0,1-3.089-.71h0l-1.124-1.742c-.453-.7-.907-1.4-1.157-1.8-.4-.657-.8-1.255-1.2-1.893a21.478,21.478,0,0,1-2.169-4.187,7.926,7.926,0,0,1-.276-4.7,4.989,4.989,0,0,1,3.181-3.358,7.525,7.525,0,0,1,4.2-4.331,7.354,7.354,0,0,1,5.961.335,7.045,7.045,0,0,1,1.584-1.722,2.55,2.55,0,0,1,2.4-.388,2.143,2.143,0,0,1,1.17,2.327,5.455,5.455,0,0,1,2.359.158,2.412,2.412,0,0,1,1.669,1.873,1.86,1.86,0,0,1-.368,1.354,2.143,2.143,0,0,1-.782.657,1.262,1.262,0,0,1,.657.953,1.426,1.426,0,0,1-.657,1.314,1.893,1.893,0,0,1-1.314.269,1.314,1.314,0,0,1-.276,1.38,38.377,38.377,0,0,1-2.064,7.407,12.027,12.027,0,0,1-4.6,5.672A7.841,7.841,0,0,1,152.479,233.151Zm-2.951-.914a7.23,7.23,0,0,0,6.9-.44,12.06,12.06,0,0,0,4.482-5.567,38.532,38.532,0,0,0,2.051-7.394V218.8h0a1.216,1.216,0,0,0,.171-1.354l-.125-.263.276.1a1.558,1.558,0,0,0,1.314-.184,1.183,1.183,0,0,0,.565-1.1.979.979,0,0,0-.808-.861l-.894-.105.887-.138a1.669,1.669,0,0,0,1.006-.657,1.63,1.63,0,0,0,.322-1.183,2.208,2.208,0,0,0-1.518-1.669,5.534,5.534,0,0,0-2.425-.131h-.2l.066-.184a1.88,1.88,0,0,0-.979-2.2,2.333,2.333,0,0,0-2.169.361,7.053,7.053,0,0,0-1.584,1.748l-.059.085-.092-.046a7.151,7.151,0,0,0-5.856-.375,7.23,7.23,0,0,0-4.081,4.252v.053h-.059a4.785,4.785,0,0,0-3.082,3.214,7.657,7.657,0,0,0,.269,4.548,20.893,20.893,0,0,0,2.156,4.141c.388.657.789,1.262,1.19,1.886.25.4.7,1.1,1.157,1.8Z" transform="translate(-127.957 -208.513)" fill="#272525"/><path d="M175.09,231.67,176.6,234.3l-1.492.552A29.954,29.954,0,0,0,175.09,231.67Z" transform="translate(-138.875 -216.45)" fill="#f28f8f"/><path d="M166.177,224.22a21.031,21.031,0,0,1,1.091,4.9,29.954,29.954,0,0,1,0,3.168,30.294,30.294,0,0,1-.513,4.423,4.837,4.837,0,0,1-.861,2.221,3.5,3.5,0,0,1-2.412,1.1,10.128,10.128,0,0,1-2.7-.256v4.292c-3.286.769-5.961,1.111-8.511-.861l.269-5.521a8,8,0,0,0,4.6-.723c2.248-1.216,2.879-3.155,2.563-4.239a1.689,1.689,0,0,1-1.761.618,2.353,2.353,0,0,1-1.459-1.157,4.791,4.791,0,0,1-.546-1.827,3.286,3.286,0,0,1,.335-2.268,2.366,2.366,0,0,1,2.55-.854,3.635,3.635,0,0,1,2.143,1.794,5.476,5.476,0,0,1,.381.822.506.506,0,0,0,.986-.131,6.822,6.822,0,0,0-.657-3.589,2.563,2.563,0,0,0,1.2.276,1.505,1.505,0,0,0,1.15-.532,1.038,1.038,0,0,0,.046-1.222A1.994,1.994,0,0,0,166.177,224.22Z" transform="translate(-131.053 -213.896)" fill="#ffa8a7"/><path d="M177.08,256.522a6.967,6.967,0,0,1,7.282-2.629c3.089,3.878,7.887,8.156,10.1,13.145a14.933,14.933,0,0,1,1.314,4.279,7.23,7.23,0,0,1-.73,4.358,5.777,5.777,0,0,1-4.89,2.918c-1.972,0-4.213-2.064-5.751-3.352.25-6.125,2.057-8.15,2.057-8.15Z" transform="translate(-139.557 -223.997)" fill="#fb8c00"/><path d="M177.08,257.171a6.434,6.434,0,0,1,1.65-1.591,11.659,11.659,0,0,1,4.062,2.32,32.574,32.574,0,0,1,4.042,4.41c1.577,1.972,2.984,3.943,4.561,5.915l-6.73,4.837c.572-3.891,1.788-5.258,1.788-5.258Z" transform="translate(-139.557 -224.645)" opacity="0.1"/><path d="M189.439,268.295,180.4,259.4a12.731,12.731,0,0,0-7.433-3.562H172.8c-3.825,8.386,1.236,12.488,1.236,12.488l8.4,7.723A15.182,15.182,0,0,0,189.439,268.295Z" transform="translate(-137.602 -224.735)" fill="#fb8c00"/><path d="M151.285,249.64l-.815,2.353c3.891,4.929,11.719,1.558,11.719,1.558l-.434-2.78C156.878,251.776,151.285,249.64,151.285,249.64Z" transform="translate(-130.436 -222.609)" fill="#f5f5f5"/></g></g></svg>