<svg xmlns="http://www.w3.org/2000/svg" width="293" height="271.21" viewBox="0 0 293 271.21"><g transform="translate(-15.28 -34.064)"><g transform="translate(15.28 138.974)"><ellipse cx="146.5" cy="83.15" rx="146.5" ry="83.15" fill="#deecee"/></g><g transform="translate(18.93 172.935)"><path d="M344.083,295.68l-20.411-11.753a.791.791,0,0,1,0-1.5l26.023-15.036a2.84,2.84,0,0,1,2.591,0l20.392,11.747a.791.791,0,0,1,0,1.495l-26,15.048a2.877,2.877,0,0,1-2.591,0Z" transform="translate(-135.036 -260.817)" fill="#e0e0e0"/><ellipse cx="31.435" cy="21.37" rx="31.435" ry="21.37" transform="translate(220.731 32.005)" fill="#e0e0e0"/><path d="M71.285,354.6l-49.61-28.651a.785.785,0,0,1,0-1.489l77.738-44.876a2.821,2.821,0,0,1,2.566,0l49.628,28.651a.785.785,0,0,1,0,1.482L73.851,354.6a2.822,2.822,0,0,1-2.566,0Z" transform="translate(-21.139 -265.416)" fill="#e0e0e0"/><path d="M111.77,341.661l11.473,6.621a3.42,3.42,0,0,0,3.114,0l142.738-82.409a.951.951,0,0,0,0-1.8L257.528,257.4a3.457,3.457,0,0,0-3.114,0L111.77,339.848A.959.959,0,0,0,111.77,341.661Z" transform="translate(-55.078 -257.025)" fill="#e0e0e0"/></g><g transform="translate(39.351 41.353)"><path d="M80.414,61.626h0a.517.517,0,0,0-.529.044l-1.09.7L78.552,63a1.246,1.246,0,0,0,.3,1.183,5.207,5.207,0,0,1,.5.592.747.747,0,0,0,1.021.218l2.547-1.632a.511.511,0,0,1,.517-.05Zm-3.924,9.1c-.355-2.006-1.669-3.015-3.376-2.878a5.145,5.145,0,0,1,.355,1.177c.561,3.183-1.514,7.7-4.628,10.09a6.428,6.428,0,0,1-3.27,1.4c1.028,2.136,3.613,2.336,6.3.274C74.989,78.425,77.057,73.909,76.49,70.726Zm.056-13.609h0a.623.623,0,0,0-.2-.081l-1.918-.417a1.034,1.034,0,0,0-1.084.486l-1.812,3.357a1.482,1.482,0,0,1-.4.448h0a1.975,1.975,0,0,1-.305.2l.561,1.825a.66.66,0,0,0,.909.4,9.289,9.289,0,0,1,1.183-.38,1.993,1.993,0,0,0,.654-.343,1.551,1.551,0,0,0,.411-.455l1.8-3.351a1.053,1.053,0,0,1,1.09-.486l1.925.417a.828.828,0,0,1,.187.069ZM71.14,89.5a.536.536,0,0,1-.181-.28l-.623-2.1a.654.654,0,0,0-.934-.38,8.857,8.857,0,0,1-1.177.374,1.588,1.588,0,0,0-.374.156l.087.268a.536.536,0,0,0,.243.324h0ZM67.465,58.786a.5.5,0,0,0-.212-.05.561.561,0,0,0-.355.131l-2.878,2.2a.854.854,0,0,0-.112.1.5.5,0,0,0-.075.087,1.912,1.912,0,0,0-.255.442V61.8h0a1.2,1.2,0,0,0-.081.448l.149,2.7a2.08,2.08,0,0,1-.448,1.289c-.473.548-.916,1.127-1.333,1.719a1.451,1.451,0,0,1-.623.473,1.021,1.021,0,0,1-.249.075.429.429,0,0,1-.125,0,.511.511,0,0,1-.168,0l-1.869-.087h-.044a.66.66,0,0,0-.156,0,.5.5,0,0,0-.131.031h0a.728.728,0,0,0-.149.056,1.457,1.457,0,0,0-.268.162,1.127,1.127,0,0,0-.3.367l-1.713,3.837a.7.7,0,0,0,.287.909l2.03,1.134a.822.822,0,0,1,.044.517,17.438,17.438,0,0,0-.318,1.806,2.23,2.23,0,0,1-.623,1.246h-.031l-2.491,2.255a.623.623,0,0,0-.125.131h0a.542.542,0,0,0-.1.162,1.4,1.4,0,0,0-.193.9l.48,2.7a.517.517,0,0,0,.224.367l2.977,1.744a.529.529,0,0,1-.212-.361l-.48-2.7a1.339,1.339,0,0,1,0-.517,1.5,1.5,0,0,1,.4-.71l2.491-2.248h0a2.273,2.273,0,0,0,.623-1.246,17.51,17.51,0,0,1,.324-1.806.9.9,0,0,0-.424-1l-1.5-.623a.716.716,0,0,1-.386-.959l1.738-3.793a1.053,1.053,0,0,1,.3-.367,1.152,1.152,0,0,1,.766-.268l1.869.087a1.283,1.283,0,0,0,.536-.106,1.451,1.451,0,0,0,.623-.473,18.531,18.531,0,0,1,1.333-1.719,2.08,2.08,0,0,0,.43-1.3l-.174-2.66a1.358,1.358,0,0,1,.069-.461,1.545,1.545,0,0,1,.48-.729l2.89-2.2a.492.492,0,0,1,.567-.081ZM63.149,87.051a1.208,1.208,0,0,0-.305-1.177,5.057,5.057,0,0,1-.492-.623.754.754,0,0,0-1.021-.23l-1.451.934L58.82,88.739a.623.623,0,0,0,.255.76h0l3.039,1.707a.623.623,0,0,1-.262-.766Z" transform="translate(-54.159 -49.852)" fill="#e0e0e0"/><path d="M60.511,93.5l-2.491,2.248a1.5,1.5,0,0,0-.4.71L54.6,94.76a1.663,1.663,0,0,1,.156-.392.542.542,0,0,1,.1-.162h0a.623.623,0,0,1,.125-.131l2.491-2.255Z" transform="translate(-54.18 -63.136)" fill="#fafafa"/><path d="M66.4,77.285a1.283,1.283,0,0,1-.536.106L63.994,77.3a1.152,1.152,0,0,0-.766.268L60.22,75.846a1.458,1.458,0,0,1,.268-.162.729.729,0,0,1,.149-.056h0a.5.5,0,0,1,.131-.031.66.66,0,0,1,.156,0h.044l1.869.087a.511.511,0,0,0,.168,0h.125a.868.868,0,0,0,.237-.075h0Z" transform="translate(-56.3 -57.015)" fill="#fafafa"/><path d="M97.941,66.318a.5.5,0,0,0-.517.062L94.87,68.013a.754.754,0,0,1-1.021-.224,4.7,4.7,0,0,0-.5-.623,1.2,1.2,0,0,1-.3-1.177l.243-.623,1.09-.7a.5.5,0,0,1,.529-.05h0Z" transform="translate(-68.665 -52.856)" fill="#fafafa"/><path d="M89.613,58.815a.829.829,0,0,0-.187-.069L87.5,58.329a1.053,1.053,0,0,0-1.09.486l-1.8,3.351a1.551,1.551,0,0,1-.411.455L81.18,60.914a1.482,1.482,0,0,0,.4-.448l1.812-3.351a1.034,1.034,0,0,1,1.084-.486l1.918.417a.623.623,0,0,1,.2.081h0Z" transform="translate(-64.205 -49.856)" fill="#fafafa"/><path d="M75.945,61.824a.492.492,0,0,0-.567.081L72.5,64.1a1.545,1.545,0,0,0-.48.729L69,63.144v-.106a1.912,1.912,0,0,1,.255-.442.5.5,0,0,1,.075-.087.853.853,0,0,1,.112-.1l2.878-2.2a.561.561,0,0,1,.355-.131.5.5,0,0,1,.212.05Z" transform="translate(-59.611 -51.165)" fill="#fafafa"/><path d="M85.961,67.417l-.48-2.7a.455.455,0,0,0-.754-.318l-2.554,1.626a.754.754,0,0,1-1.021-.224,5.207,5.207,0,0,0-.5-.592,1.246,1.246,0,0,1-.3-1.183l1.3-3.419a.623.623,0,0,0-.473-.872l-1.918-.417a1.046,1.046,0,0,0-1.084.492l-1.806,3.345a1.869,1.869,0,0,1-1.09.8,9.286,9.286,0,0,0-1.183.38.66.66,0,0,1-.909-.4l-.623-2.093a.48.48,0,0,0-.81-.249l-2.878,2.2a1.551,1.551,0,0,0-.548,1.19l.137,2.684a2.08,2.08,0,0,1-.448,1.289,21.086,21.086,0,0,0-1.333,1.719,1.5,1.5,0,0,1-1.171.579L63.65,71.16a1.183,1.183,0,0,0-1.065.623L60.848,75.57a.716.716,0,0,0,.417.984l1.495.623a.9.9,0,0,1,.517,1,15.982,15.982,0,0,0-.324,1.806,2.23,2.23,0,0,1-.623,1.246l-2.547,2.28a1.489,1.489,0,0,0-.43,1.246l.48,2.7a.461.461,0,0,0,.76.324l2.547-1.632a.747.747,0,0,1,1.021.224,5.108,5.108,0,0,0,.5.623,1.2,1.2,0,0,1,.3,1.177l-1.3,3.326a.623.623,0,0,0,.473.847l1.918.417a1.046,1.046,0,0,0,1.09-.486l1.806-3.351a1.869,1.869,0,0,1,1.09-.8,8.658,8.658,0,0,0,1.183-.38.66.66,0,0,1,.9.4l.623,2.1a.486.486,0,0,0,.81.249l2.878-2.2a1.551,1.551,0,0,0,.542-1.183l-.168-2.666a2.08,2.08,0,0,1,.448-1.289c.467-.548.916-1.121,1.333-1.719a1.5,1.5,0,0,1,1.171-.579l1.869.093a1.19,1.19,0,0,0,1.059-.623l1.75-3.781a.7.7,0,0,0-.392-.972l-1.495-.623a.891.891,0,0,1-.511-1,15.7,15.7,0,0,0,.318-1.806,2.255,2.255,0,0,1,.623-1.246l2.554-2.28A1.482,1.482,0,0,0,85.961,67.417ZM73.678,81.83c-3.114,2.386-6.1,1.738-6.664-1.451s1.507-7.7,4.622-10.053,6.1-1.738,6.664,1.451S76.8,79.444,73.678,81.83Z" transform="translate(-55.968 -50.872)" fill="#f0f0f0"/><path d="M83.831,130.365h0a.623.623,0,0,0-.623.05l-1.246.81-.274.735a1.408,1.408,0,0,0,.343,1.37,6.289,6.289,0,0,1,.573.685.878.878,0,0,0,1.183.255l2.946-1.869a.579.579,0,0,1,.623-.062ZM79.3,140.885c-.417-2.317-1.937-3.482-3.905-3.32a5.736,5.736,0,0,1,.4,1.358c.623,3.681-1.744,8.9-5.35,11.66a7.387,7.387,0,0,1-3.774,1.657c1.183,2.491,4.173,2.7,7.281.318,3.6-2.765,5.992-7.991,5.344-11.672Zm.062-15.727h0a.723.723,0,0,0-.237-.093l-2.217-.486a1.2,1.2,0,0,0-1.246.567l-2.093,3.874a1.762,1.762,0,0,1-.461.511h0a1.869,1.869,0,0,1-.355.237l.623,2.111a.754.754,0,0,0,1.046.461,11.938,11.938,0,0,1,1.37-.436,2.311,2.311,0,0,0,.791-.4,1.763,1.763,0,0,0,.473-.523l2.08-3.874a1.246,1.246,0,0,1,1.246-.567l2.224.492a.747.747,0,0,1,.218.075Zm-6.228,37.47a.623.623,0,0,1-.206-.33l-.754-2.423a.754.754,0,0,0-1.046-.467,9.581,9.581,0,0,1-1.364.436,1.962,1.962,0,0,0-.436.181l.1.311a.623.623,0,0,0,.287.374h0Zm-4.254-35.5a.542.542,0,0,0-.243-.062.623.623,0,0,0-.4.156L64.9,129.76a1.124,1.124,0,0,0-.125.118.666.666,0,0,0-.087.1,1.913,1.913,0,0,0-.293.5.157.157,0,0,1-.037.125h0a1.377,1.377,0,0,0-.087.523l.193,3.083a2.367,2.367,0,0,1-.517,1.489,24.875,24.875,0,0,0-1.538,1.987,1.756,1.756,0,0,1-1.028.623.516.516,0,0,1-.137,0,.684.684,0,0,1-.193,0l-2.136-.1h-.05a.79.79,0,0,0-.174,0,.5.5,0,0,0-.162.031h0a1.073,1.073,0,0,0-.181.069,1.545,1.545,0,0,0-.305.187,1.3,1.3,0,0,0-.343.424l-2.006,4.36a.816.816,0,0,0,.336,1.053l2.373,1.333a.984.984,0,0,1,.05.623,19.569,19.569,0,0,0-.367,2.087,2.6,2.6,0,0,1-.716,1.426h-.037l-2.915,2.6a1.7,1.7,0,0,0-.143.156h0a1.034,1.034,0,0,0-.118.187,1.613,1.613,0,0,0-.218,1.053l.554,3.114a.623.623,0,0,0,.255.424l3.488,1.95a.561.561,0,0,1-.243-.411l-.554-3.114a1.321,1.321,0,0,1,.037-.623,1.694,1.694,0,0,1,.455-.816l2.89-2.473h.037a2.616,2.616,0,0,0,.723-1.42,18.261,18.261,0,0,1,.374-2.093,1.04,1.04,0,0,0-.623-1.159l-1.725-.716a.828.828,0,0,1-.448-1.109L61.166,141a1.19,1.19,0,0,1,.343-.43,1.445,1.445,0,0,1,.884-.311l2.143.106a1.451,1.451,0,0,0,.623-.118,1.626,1.626,0,0,0,.735-.554c.486-.685,1-1.352,1.545-1.987a2.385,2.385,0,0,0,.517-1.489l-.2-3.077a1.358,1.358,0,0,1,.081-.529,1.756,1.756,0,0,1,.554-.841l3.314-2.572a.623.623,0,0,1,.66-.087ZM63.9,159.8a1.414,1.414,0,0,0-.349-1.364,5.138,5.138,0,0,1-.573-.685.866.866,0,0,0-1.177-.262l-1.682,1.078-1.246,3.22a.7.7,0,0,0,.3.872h0l3.519,1.968a.71.71,0,0,1-.293-.884Z" transform="translate(-53.926 -75.483)" fill="#e0e0e0"/><path d="M60.851,167.2l-2.909,2.6a1.694,1.694,0,0,0-.455.816L54,168.661a2.36,2.36,0,0,1,.174-.455,1.034,1.034,0,0,1,.118-.187h0a1.7,1.7,0,0,1,.143-.156l2.915-2.6Z" transform="translate(-53.954 -90.834)" fill="#fafafa"/><path d="M67.659,148.48a1.451,1.451,0,0,1-.623.118l-2.143-.106a1.445,1.445,0,0,0-.884.311l-3.519-1.981a1.544,1.544,0,0,1,.305-.187,1.071,1.071,0,0,1,.181-.069h0a.5.5,0,0,1,.162-.031.79.79,0,0,1,.174,0h.05l2.136.1a.684.684,0,0,0,.193,0,1.032,1.032,0,0,0,.137,0,2.5,2.5,0,0,0,.28-.093h0Z" transform="translate(-56.402 -83.77)" fill="#fafafa"/><path d="M104.082,135.768a.579.579,0,0,0-.623.069l-2.946,1.869a.872.872,0,0,1-1.183-.262,6.177,6.177,0,0,0-.573-.685,1.364,1.364,0,0,1-.343-1.364l.274-.729,1.246-.81a.573.573,0,0,1,.623-.056h0Z" transform="translate(-70.683 -78.943)" fill="#fafafa"/><path d="M94.475,127.117a.748.748,0,0,0-.218-.075l-2.224-.492a1.246,1.246,0,0,0-1.246.567l-2.08,3.874a1.763,1.763,0,0,1-.473.523L84.74,129.54a1.762,1.762,0,0,0,.461-.511l2.093-3.874a1.2,1.2,0,0,1,1.246-.567l2.217.486a.722.722,0,0,1,.237.093h0Z" transform="translate(-65.548 -75.487)" fill="#fafafa"/><path d="M78.669,130.59a.623.623,0,0,0-.66.087l-3.32,2.547a1.756,1.756,0,0,0-.554.841L70.64,132.1a.171.171,0,0,1,.037-.125,1.912,1.912,0,0,1,.293-.5.665.665,0,0,1,.087-.1,1.122,1.122,0,0,1,.125-.118l3.332-2.541a.623.623,0,0,1,.4-.156.542.542,0,0,1,.243.062Z" transform="translate(-60.23 -76.992)" fill="#fafafa"/><path d="M90.242,137.081l-.554-3.114a.529.529,0,0,0-.878-.374l-2.94,1.869a.872.872,0,0,1-1.183-.262,6.072,6.072,0,0,0-.573-.685,1.389,1.389,0,0,1-.343-1.364l1.5-3.949a.722.722,0,0,0-.548-.984l-2.224-.48a1.208,1.208,0,0,0-1.246.567l-2.08,3.868a2.192,2.192,0,0,1-1.246.922,11.478,11.478,0,0,0-1.364.436.76.76,0,0,1-1.053-.461l-.766-2.417a.561.561,0,0,0-.94-.293l-3.32,2.547a1.775,1.775,0,0,0-.623,1.37l.2,3.077a2.367,2.367,0,0,1-.517,1.489A24.583,24.583,0,0,0,68,140.837a1.732,1.732,0,0,1-1.352.666l-2.136-.106a1.377,1.377,0,0,0-1.246.735l-2.012,4.36A.828.828,0,0,0,61.7,147.6l1.725.716a1.04,1.04,0,0,1,.623,1.159,19.684,19.684,0,0,0-.367,2.093,2.6,2.6,0,0,1-.772,1.445l-2.946,2.635a1.713,1.713,0,0,0-.492,1.414l.554,3.114a.529.529,0,0,0,.878.367l2.94-1.869a.872.872,0,0,1,1.183.255,5.138,5.138,0,0,0,.573.685,1.4,1.4,0,0,1,.343,1.364l-1.5,3.955a.723.723,0,0,0,.554.978l2.217.486a1.246,1.246,0,0,0,1.246-.567l2.087-3.868a2.136,2.136,0,0,1,1.246-.922,11.211,11.211,0,0,0,1.364-.442.766.766,0,0,1,1.053.467l.747,2.423a.561.561,0,0,0,.94.286l3.32-2.541a1.788,1.788,0,0,0,.623-1.377l-.2-3.077a2.379,2.379,0,0,1,.517-1.489,24.169,24.169,0,0,0,1.545-1.987,1.732,1.732,0,0,1,1.352-.666l2.136.1A1.364,1.364,0,0,0,86.436,152l2.012-4.36A.828.828,0,0,0,88,146.536l-1.725-.716a1.034,1.034,0,0,1-.623-1.158,19.57,19.57,0,0,0,.367-2.087,2.572,2.572,0,0,1,.723-1.42l2.946-2.641A1.7,1.7,0,0,0,90.242,137.081ZM76.047,153.736c-3.606,2.759-7.057,2.012-7.7-1.675s1.738-8.9,5.344-11.66,7.051-2.006,7.7,1.675S79.647,150.983,76.047,153.736Z" transform="translate(-56.014 -76.675)" fill="#f0f0f0"/><path d="M121.182,93.715a1.352,1.352,0,0,0-.075-1.246,10.856,10.856,0,0,1-1.152-2.491.623.623,0,0,0-.86-.386l-1.246.548a6.849,6.849,0,0,0,.411.729,1.37,1.37,0,0,1,.075,1.246L114.9,98.854a.76.76,0,0,0,.305.984l2.822,1.582a.76.76,0,0,1-.274-.972ZM136.442,46.8a.367.367,0,0,0-.181-.044.554.554,0,0,0-.286.081l-5.792,3.251-.087.056-.087.069-.081.075a2.3,2.3,0,0,0-.149.181,1.37,1.37,0,0,0-.28.673l-.585,6.266a2.03,2.03,0,0,1-.623,1.177,35.239,35.239,0,0,0-3.164,3.314,1.134,1.134,0,0,1-1.14.311l-3.737-1.246a.666.666,0,0,0-.293-.037h0a.056.056,0,0,0-.044,0,.169.169,0,0,0-.056,0h-.106a.81.81,0,0,0-.324.168.156.156,0,0,0-.062.05.467.467,0,0,0-.143.168l-4.254,7.169a.828.828,0,0,0-.093.529.81.81,0,0,0,.287.573l2.983,2.491a1.065,1.065,0,0,1,.286,1.115,33.1,33.1,0,0,0-1.339,4.36,1.868,1.868,0,0,1-.33.666.66.66,0,0,1-.1.131l-.093.112a2.712,2.712,0,0,1-.218.187l-5.288,3.625a.38.38,0,0,0-.1.075.417.417,0,0,0-.087.093,1.489,1.489,0,0,0-.4.934v6.509a.461.461,0,0,0,.206.417l2.853,1.6a.467.467,0,0,1-.212-.424v-6.5a1.47,1.47,0,0,1,.23-.723,1.376,1.376,0,0,1,.361-.392l5.288-3.619a1.744,1.744,0,0,0,.411-.417,2.068,2.068,0,0,0,.33-.679,33.983,33.983,0,0,1,1.339-4.36,1.065,1.065,0,0,0-.287-1.115l-2.983-2.491a.828.828,0,0,1-.28-.548.766.766,0,0,1,.093-.523l4.254-7.169a.891.891,0,0,1,.71-.417.76.76,0,0,1,.336.037l3.737,1.246A1.134,1.134,0,0,0,128,63.482a33.748,33.748,0,0,1,3.214-3.314A2.024,2.024,0,0,0,131.839,59l.5-6.235a1.059,1.059,0,0,1,.106-.374,1.489,1.489,0,0,1,.579-.679l5.8-3.307a.536.536,0,0,1,.436-.056Zm-3.918,55.795a.486.486,0,0,1-.193-.374l-.561-5.469a.623.623,0,0,0-.779-.529,11.255,11.255,0,0,1-1.937.255l.43,4.154a.448.448,0,0,0,.224.374h0Zm9.069-39.239a8.493,8.493,0,0,1,1.246,5.051c0,6.067-4.36,13.447-9.785,16.487-2.105,1.183-3.9,1.576-5.307,1.246,1.75,1.987,4.746,2.255,8.153.343,5.406-3.033,9.785-10.414,9.785-16.487C145.71,66.3,144.084,63.974,141.593,63.352Zm5.606-17.49a.791.791,0,0,0-1.021.237l-4.285,6.228a.4.4,0,0,1-.062.081.38.38,0,0,1-.1.1.224.224,0,0,1-.056.05l-.062.044a1.52,1.52,0,0,1-.841.274,7.712,7.712,0,0,0-.847,0l.137,1.327a.623.623,0,0,0,.772.529,12.239,12.239,0,0,1,2.79-.274,1.458,1.458,0,0,0,.835-.268.984.984,0,0,0,.28-.274l4.285-6.266a.785.785,0,0,1,1.009-.237Zm8.29,11.635H155.4a.561.561,0,0,0-.355.044l-3.905,1.713a5.474,5.474,0,0,1,.268.542c.075.156.143.324.206.492a.274.274,0,0,1,.037.1,4.42,4.42,0,0,1,.193.529.583.583,0,0,1,.037.093.673.673,0,0,0,.149.262l.075.062h.05a.318.318,0,0,0,.149.062h.05a.56.56,0,0,0,.249,0h0a.343.343,0,0,0,.112-.037l5.157-2.261a.486.486,0,0,1,.38,0,.118.118,0,0,1,.069,0Z" transform="translate(-75.251 -45.766)" fill="#e0e0e0"/><path d="M168.9,47.489a.785.785,0,0,0-1.009.237l-4.285,6.266a.984.984,0,0,1-.28.274l-2.846-1.6h0a.586.586,0,0,0,.118-.087.38.38,0,0,0,.1-.1.4.4,0,0,0,.062-.081l4.285-6.228a.791.791,0,0,1,1.021-.237Z" transform="translate(-94.113 -45.793)" fill="#fafafa"/><path d="M119.7,99.471a1.744,1.744,0,0,1-.411.417l-5.288,3.619a1.377,1.377,0,0,0-.361.392l-2.834-1.588a1.165,1.165,0,0,1,.162-.218.418.418,0,0,1,.087-.093.38.38,0,0,1,.1-.075l5.288-3.625a2.708,2.708,0,0,0,.218-.187l.093-.112.1-.131h0Z" transform="translate(-75.38 -65.417)" fill="#fafafa"/><path d="M125.4,71.687a.891.891,0,0,0-.71.417l-4.254,7.169a.766.766,0,0,0-.093.523L117.494,78.2a.828.828,0,0,1,.093-.529l4.254-7.169a.467.467,0,0,1,.143-.168.156.156,0,0,1,.062-.05.81.81,0,0,1,.324-.168h.106a.168.168,0,0,1,.056,0,.056.056,0,0,1,.044,0h0Z" transform="translate(-77.897 -54.949)" fill="#fafafa"/><path d="M150.848,49.019a.536.536,0,0,0-.436.056l-5.792,3.257a1.489,1.489,0,0,0-.579.679l-2.84-1.6a1.756,1.756,0,0,1,.168-.3,2.308,2.308,0,0,1,.149-.181l.081-.075.087-.069.087-.056,5.792-3.251a.554.554,0,0,1,.286-.081.367.367,0,0,1,.181.044Z" transform="translate(-86.842 -46.382)" fill="#fafafa"/><path d="M180.154,64.584,183,66.191a.118.118,0,0,0-.069,0,.486.486,0,0,0-.38,0l-5.157,2.261a.623.623,0,0,1-.7-.125.673.673,0,0,1-.149-.262.588.588,0,0,0-.037-.093,4.423,4.423,0,0,0-.193-.529.274.274,0,0,0-.037-.1c-.062-.168-.131-.336-.206-.492a5.473,5.473,0,0,0-.268-.542l3.905-1.713a.561.561,0,0,1,.355-.044l.093.037Z" transform="translate(-99.891 -52.847)" fill="#fafafa"/><rect width="0.006" height="0.006" transform="translate(83.109 13.344)" fill="#fafafa"/><path d="M160.23,67v-6.5a.43.43,0,0,0-.66-.417l-5.157,2.261a.623.623,0,0,1-.847-.386,11.112,11.112,0,0,0-1.146-2.491,1.37,1.37,0,0,1-.081-1.215l3.438-6.739a.754.754,0,0,0-.305-.984l-3.737-2.093a.785.785,0,0,0-1.028.23l-4.285,6.266a1.414,1.414,0,0,1-1.115.542,11.865,11.865,0,0,0-2.79.274.623.623,0,0,1-.772-.529l-.567-5.475a.43.43,0,0,0-.691-.367l-5.792,3.257a1.5,1.5,0,0,0-.685,1.053l-.592,6.278a2.043,2.043,0,0,1-.623,1.171,34.536,34.536,0,0,0-3.22,3.314,1.127,1.127,0,0,1-1.134.318L124.7,63.514a.922.922,0,0,0-1.046.374L119.4,71.063a.866.866,0,0,0,.187,1.071l2.983,2.491a1.059,1.059,0,0,1,.287,1.115,33.186,33.186,0,0,0-1.339,4.36,2.062,2.062,0,0,1-.741,1.09l-5.288,3.625a1.514,1.514,0,0,0-.623,1.109v6.5a.43.43,0,0,0,.66.417l5.151-2.261a.623.623,0,0,1,.86.386,10.856,10.856,0,0,0,1.152,2.491,1.352,1.352,0,0,1,.075,1.246l-3.432,6.745a.741.741,0,0,0,.3.978l3.737,2.093a.791.791,0,0,0,1.028-.23l4.279-6.266a1.439,1.439,0,0,1,1.121-.542,11.9,11.9,0,0,0,2.79-.274.623.623,0,0,1,.772.529l.561,5.475a.436.436,0,0,0,.7.349l5.792-3.257a1.5,1.5,0,0,0,.691-1.053l.629-6.285a2.093,2.093,0,0,1,.623-1.171,34.479,34.479,0,0,0,3.214-3.314,1.121,1.121,0,0,1,1.14-.311l3.737,1.246a.909.909,0,0,0,1.04-.374l4.254-7.175a.866.866,0,0,0-.181-1.071l-2.983-2.491a1.059,1.059,0,0,1-.293-1.115,32.275,32.275,0,0,0,1.339-4.36,2.161,2.161,0,0,1,.741-1.09l5.294-3.625A1.514,1.514,0,0,0,160.23,67ZM137.583,87.456c-5.4,3.039-9.779.579-9.779-5.494s4.36-13.453,9.779-16.487,9.785-.579,9.785,5.494S142.977,84.423,137.583,87.456Z" transform="translate(-76.909 -46.732)" fill="#f0f0f0"/></g><g transform="translate(19.428 142.201)"><g transform="translate(7.555 33.36)"><path d="M34.07,325.387,76.8,349.747,147.4,309.23,104.67,285.45Z" transform="translate(-34.07 -270.371)"/><path d="M78.364,364.906l-41.22-23.668q1.613-4.578-.224-10.688l40.958,23.407S78.663,356.541,78.364,364.906Z" transform="translate(-35.145 -287.38)" fill="#fff"/><path d="M77.878,353.967,36.92,330.56a21.711,21.711,0,0,1,.754,3.513l40.653,23.475A19.42,19.42,0,0,0,77.878,353.967Z" transform="translate(-35.145 -287.384)" fill="#ebebeb"/><path d="M74.7,348.663a8.676,8.676,0,0,1,3.961,6.851v7.966c0,2.491-1.769,3.525-3.961,2.273L34.08,342.4v-1.968l40.086,22.852c1.308.754,2.373.143,2.373-1.364l-.037-7.381a5.213,5.213,0,0,0-2.379-4.092L34.08,327.586V325.35Z" transform="translate(-34.074 -285.419)" fill="#263238"/><path d="M34.08,301.171l70.594-39.931L145.3,283.974a8.683,8.683,0,0,1,3.961,6.814v7.972A2.745,2.745,0,0,1,148.1,301.3L77.5,341.818a2.752,2.752,0,0,0,1.165-2.547V331.3a8.72,8.72,0,0,0-3.961-6.851Z" transform="translate(-34.074 -261.24)" fill="#455a64"/><path d="M103.806,342.96a8.041,8.041,0,0,1,1.158,3.88v7.972a2.759,2.759,0,0,1-1.165,2.547l70.6-40.516a2.745,2.745,0,0,0,1.158-2.541V306.33a8.041,8.041,0,0,0-1.159-3.88Z" transform="translate(-60.369 -276.782)" fill="#37474f"/></g><g transform="translate(7.443 17.209)"><path d="M33.89,294.735l43,24.584,65.449-37.558L99.345,257.75Z" transform="translate(-33.89 -243.773)" fill="#fb8c00"/><path d="M33.89,294.735l43,24.584,65.449-37.558L99.345,257.75Z" transform="translate(-33.89 -243.773)" fill="#fff" opacity="0.45"/><path d="M33.89,294.735l43,24.584,65.449-37.558L99.345,257.75Z" transform="translate(-33.89 -243.773)" opacity="0.35"/><path d="M78.329,333.349,36.736,309.42q1.5-4.248-.206-9.91l41.351,23.7S78.6,325.6,78.329,333.349Z" transform="translate(-34.886 -259.523)" fill="#fff"/><path d="M77.881,323.209,36.53,299.51a21.713,21.713,0,0,1,.754,3.513l41.027,23.668A19.664,19.664,0,0,0,77.881,323.209Z" transform="translate(-34.886 -259.523)" fill="#ebebeb"/><path d="M74.939,318.292a8.047,8.047,0,0,1,3.669,6.322V332c0,2.323-1.638,3.27-3.669,2.105L33.9,310.494v-1.831l40.547,23.189c1.246.7,2.2.131,2.2-1.246l-.037-6.851a4.827,4.827,0,0,0-2.2-3.793L33.9,296.748V294.68Z" transform="translate(-33.894 -257.702)" fill="#fb8c00"/><path d="M74.939,318.292a8.047,8.047,0,0,1,3.669,6.322V332c0,2.323-1.638,3.27-3.669,2.105L33.9,310.494v-1.831l40.547,23.189c1.246.7,2.2.131,2.2-1.246l-.037-6.851a4.827,4.827,0,0,0-2.2-3.793L33.9,296.748V294.68Z" transform="translate(-33.894 -257.702)" fill="#fff" opacity="0.45"/><path d="M74.939,318.292a8.047,8.047,0,0,1,3.669,6.322V332c0,2.323-1.638,3.27-3.669,2.105L33.9,310.494v-1.831l40.547,23.189c1.246.7,2.2.131,2.2-1.246l-.037-6.851a4.827,4.827,0,0,0-2.2-3.793L33.9,296.748V294.68Z" transform="translate(-33.894 -257.702)" opacity="0.15"/><path d="M33.9,272.288,99.361,235.31,140.4,258.355a8.1,8.1,0,0,1,3.669,6.328v7.381a2.549,2.549,0,0,1-1.078,2.361L77.562,311.97a2.556,2.556,0,0,0,1.078-2.361v-7.393a8.1,8.1,0,0,0-3.675-6.322Z" transform="translate(-33.894 -235.31)" fill="#fb8c00"/><path d="M33.9,272.288,99.361,235.31,140.4,258.355a8.1,8.1,0,0,1,3.669,6.328v7.381a2.549,2.549,0,0,1-1.078,2.361L77.562,311.97a2.556,2.556,0,0,0,1.078-2.361v-7.393a8.1,8.1,0,0,0-3.675-6.322Z" transform="translate(-33.894 -235.31)" fill="#fff" opacity="0.65"/><path d="M104,314.243a7.418,7.418,0,0,1,1.078,3.594V325.2A2.556,2.556,0,0,1,104,327.565L169.4,290a2.563,2.563,0,0,0,1.078-2.361V280.26a7.474,7.474,0,0,0-1.071-3.6Z" transform="translate(-60.332 -250.905)" fill="#fb8c00"/><path d="M104,314.243a7.418,7.418,0,0,1,1.078,3.594V325.2A2.556,2.556,0,0,1,104,327.565L169.4,290a2.563,2.563,0,0,0,1.078-2.361V280.26a7.474,7.474,0,0,0-1.071-3.6Z" transform="translate(-60.332 -250.905)" fill="#fff" opacity="0.45"/></g><path d="M73.015,317.183V333l-2.828,1.545-36.175-20.76,2.8-1.607L33.9,310.494v-1.831l1.869-1.065a15.818,15.818,0,0,0-.206-9.91l-1.663-.94V294.68Z" transform="translate(-26.451 -240.492)" opacity="0.1"/><path d="M21.94,267.108l43.388,24.939,65.455-37.564L87.4,230.13Z" transform="translate(-21.94 -216.147)" fill="#fb8c00"/><path d="M21.94,267.108l43.388,24.939,65.455-37.564L87.4,230.13Z" transform="translate(-21.94 -216.147)" opacity="0.5"/><path d="M66.778,306.414,24.786,282.123c1-2.834.928-5.562-.206-9.343l41.731,24.048S67.052,298.666,66.778,306.414Z" transform="translate(-22.936 -232.233)" fill="#fff"/><path d="M66.331,296.868,24.6,272.82a21.713,21.713,0,0,1,.754,3.513l41.413,23.911a17.066,17.066,0,0,0-.436-3.376Z" transform="translate(-22.943 -232.248)" fill="#ebebeb"/><path d="M63.4,291.955a8.053,8.053,0,0,1,3.675,6.322v6.8c0,2.329-1.644,3.27-3.675,2.111L22,283.222v-1.831l40.934,23.544c1.246.7,2.2.131,2.2-1.246v-6.266a4.846,4.846,0,0,0-2.2-3.793L22,270.062V268Z" transform="translate(-21.963 -230.43)" fill="#fb8c00"/><path d="M63.4,291.955a8.053,8.053,0,0,1,3.675,6.322v6.8c0,2.329-1.644,3.27-3.675,2.111L22,283.222v-1.831l40.934,23.544c1.246.7,2.2.131,2.2-1.246v-6.266a4.846,4.846,0,0,0-2.2-3.793L22,270.062V268Z" transform="translate(-21.963 -230.43)" opacity="0.4"/><path d="M22,245.25l65.4-37.57,41.432,23.967a8.041,8.041,0,0,1,3.675,6.322v6.8a2.563,2.563,0,0,1-1.078,2.361L66,284.7a2.577,2.577,0,0,0,1.078-2.361v-6.808A8.06,8.06,0,0,0,63.4,269.2Z" transform="translate(-21.963 -207.68)" fill="#1565c0"/><path d="M22,245.25l65.4-37.57,41.432,23.967a8.041,8.041,0,0,1,3.675,6.322v6.8a2.563,2.563,0,0,1-1.078,2.361L66,284.7a2.577,2.577,0,0,0,1.078-2.361v-6.808A8.06,8.06,0,0,0,63.4,269.2Z" transform="translate(-21.944 -207.68)" opacity="0.2"/><path d="M92.65,288.088a7.474,7.474,0,0,1,1.078,3.6V298.5a2.563,2.563,0,0,1-1.078,2.361l65.443-37.576a2.563,2.563,0,0,0,1.078-2.361V254.13a7.424,7.424,0,0,0-1.078-3.6Z" transform="translate(-48.608 -223.841)" fill="#1565c0"/><path d="M92.65,288.088a7.474,7.474,0,0,1,1.078,3.6V298.5a2.563,2.563,0,0,1-1.078,2.361l65.443-37.576a2.563,2.563,0,0,0,1.078-2.361V254.13a7.424,7.424,0,0,0-1.078-3.6Z" transform="translate(-48.608 -223.841)" fill="#1565c0" opacity="0.35"/><path d="M172.282,287.074h0v-.293a6.539,6.539,0,0,0-.174-1.445h0a8.838,8.838,0,0,0-3.787-5.363l-1.408-.791a3.806,3.806,0,0,0,.243-1.358v-7.393a8.1,8.1,0,0,0-3.669-6.328l-3.544-1.987a3.819,3.819,0,0,0,.168-1.158v-7.244a3.536,3.536,0,0,0-.081-.567,5.485,5.485,0,0,0-.193-.8h0c-.044-.143-.093-.293-.143-.436h0a9.031,9.031,0,0,0-.623-1.314h0l-51.279,29.417v12.768L95.13,299.992l.978.567,6.029-3.507,5.606,3.239v13.335l-4.858,2.809h0l-2.217,1.246-.044.031a2.59,2.59,0,0,1-2.6-.255l-1.918-1.084-.86.467,3.114,1.819a2.753,2.753,0,0,0,2.753,0l2.821-1.626,3.824,2.2v14.45l63.375-36.368a1.95,1.95,0,0,0,.486-.392,3.214,3.214,0,0,0,.673-2.149Z" transform="translate(-49.544 -223.867)" opacity="0.1"/></g><g transform="translate(33.457 142.165)"><g transform="translate(0)"><path d="M52.6,271.373c5.736,4.441,16.736,5.45,24.571,2.242s9.511-9.4,3.737-13.852-16.78-5.456-24.578-2.248S46.868,266.926,52.6,271.373Z" transform="translate(-46.248 -225.733)" opacity="0.1"/><path d="M58.538,222.184c-3.257.187-8.925.623-12.457,7.885-4.024,8.278,0,18.58,6.172,22.921,7.754,5.456,19.931,5.786,27.081-.735,7.916-7.219,8.5-20.89,3.114-26.876s-13.7-4.285-15.889-3.363C63.284,223.392,61.079,222.035,58.538,222.184Z" transform="translate(-44.464 -212.694)" fill="#fb8c00"/><path d="M56.383,227.5c-2.1-.181-5.151,1.682-6.752,4.547-1.981,3.556-2.236,8.577-1.613,12.227,1.246,7.368,8.365,11.211,9.05,10.588s-4.478-5.444-1.632-12.768C58.326,234.659,59.827,227.808,56.383,227.5Z" transform="translate(-45.691 -215.117)" fill="#fff" opacity="0.3"/><path d="M55.585,229.286c-2.136.723-4.615,4.148-5.263,6.571s-.33,4.067,0,4.36c.623.511,4.939-3.737,6.353-5.649C58.7,231.859,59.055,228.115,55.585,229.286Z" transform="translate(-46.532 -215.711)" fill="#fff" opacity="0.2"/><path d="M70.773,231.94c-1.14-.909-2.217-1.37-2.784,0s2.491,3.532,5.849,2.541,4.534-3.183,4.466-4.291c0,0-1.526,2.41-3.787,2.684a5.68,5.68,0,0,1-3.743-.934Z" transform="translate(-53.311 -216.135)" fill="#fb8c00"/><path d="M70.773,231.94c-1.14-.909-2.217-1.37-2.784,0s2.491,3.532,5.849,2.541,4.534-3.183,4.466-4.291c0,0-1.526,2.41-3.787,2.684a5.68,5.68,0,0,1-3.743-.934Z" transform="translate(-53.311 -216.135)" opacity="0.1"/><path d="M69.242,225.092a31.547,31.547,0,0,0-1.507-9.218c-1.526-4.323-4.223-7.35-4.983-7.68a8.981,8.981,0,0,0-3.693-.554c-1.732,0-3.793,1.183-3.226,1.869s3.058,1.165,6.085,3.992,5.917,8.321,5.923,11.61A1.345,1.345,0,0,0,69.242,225.092Z" transform="translate(-48.716 -207.624)" fill="#37474f"/><path d="M62.725,208.152a1.357,1.357,0,0,0-.168-.069h0a9.841,9.841,0,0,0-3.376-.43A4.522,4.522,0,0,0,56,208.9c-.118.249.262.585,1.812.8a9.517,9.517,0,0,0,4.547-.424C63.011,209.036,63.273,208.438,62.725,208.152Z" transform="translate(-48.807 -207.631)" fill="#455a64"/><path d="M68.761,221.723c-1.364-3.9-5.494-7.144-8.321-8.583h0a17.483,17.483,0,0,1,3.264,2.4c3.027,2.828,5.917,8.321,5.923,11.61a1.345,1.345,0,0,0,1.389,0s0-1.183-.181-2.89C70.754,225.871,70.019,225.317,68.761,221.723Z" transform="translate(-50.49 -209.704)" opacity="0.1"/><path d="M75.9,218.535a8.147,8.147,0,0,0,7.543-2.971c2.379-3.114.828-7.213.828-7.213a7.58,7.58,0,0,0-6.646,2.087C75.508,212.587,75.215,216.716,75.9,218.535Z" transform="translate(-56.196 -207.855)" fill="#fb8c00"/><path d="M75.9,218.535a8.147,8.147,0,0,0,7.543-2.971c2.379-3.114.828-7.213.828-7.213a7.58,7.58,0,0,0-6.646,2.087C75.508,212.587,75.215,216.716,75.9,218.535Z" transform="translate(-56.196 -207.855)" opacity="0.3"/><path d="M84.273,208.371a7.58,7.58,0,0,0-6.646,2.087c-2.118,2.136-2.4,6.266-1.725,8.1C77.839,212.507,84.273,208.371,84.273,208.371Z" transform="translate(-56.198 -207.863)" opacity="0.1"/><path d="M81.987,209.35a6.77,6.77,0,0,0-5.537,6.341,13.466,13.466,0,0,1,2.136-3.737A11.528,11.528,0,0,1,81.987,209.35Z" transform="translate(-56.528 -208.275)" fill="#fb8c00"/></g></g><g transform="translate(80.125 34.065)"><path d="M268.649,39.67,122.685,123.947V238.862l.019,20.654-1.289-.741L119.39,257.6V122.047L265.354,37.77l2.51,1.445Z" transform="translate(-119.39 -35.462)" fill="#e6e6e6"/><path d="M270.644,40.82V155.742L129.613,237.16l-3.289,1.906-.816.467-.81.461-.019.019V125.1Z" transform="translate(-121.385 -36.612)" fill="#f0f0f0"/><path d="M265.354,37.77l3.295,1.9L122.685,123.947l-3.295-1.906Z" transform="translate(-119.39 -35.462)" fill="#f0f0f0"/><path d="M271.058,39.477l-1.183.685L123.911,124.434l-.461.262V259.71l-.81-.467V124.234l.48-.274L269.09,39.683l1.165-.673Z" transform="translate(-120.616 -35.93)" fill="#fb8c00"/><path d="M271.058,39.477l-1.183.685L123.911,124.434l-.461.262V259.71l-.81-.467V124.234l.48-.274L269.09,39.683l1.165-.673Z" transform="translate(-120.616 -35.93)" opacity="0.1"/><path d="M270.346,40.456,124.4,124.728h0l-.461.262V260l.48.274,147.123-84.707V39.79Z" transform="translate(-121.106 -36.224)" fill="#fb8c00"/><path d="M270.346,40.456,124.4,124.728h0l-.461.262V260l.48.274,147.123-84.707V39.79Z" transform="translate(-121.106 -36.224)" opacity="0.05"/><path d="M270.249,39.02l.81.461L123.45,124.705l-.81-.467Z" transform="translate(-120.616 -35.934)" fill="#fb8c00"/><path d="M270.249,39.02l.81.461L123.45,124.705l-.81-.467Z" transform="translate(-120.616 -35.934)" fill="#fff" opacity="0.4"/><path d="M273.128,40.671l-1.289.741-1.183.685-40.2,23.214L125.52,125.889V260.9l-.81-.467V125.428L270.656,41.175l1.183-.685.486-.28Z" transform="translate(-121.396 -36.382)" fill="#fb8c00"/><path d="M273.128,40.671l-1.289.741-1.183.685-40.2,23.214L125.52,125.889V260.9l-.81-.467V125.428L270.656,41.175l1.183-.685.486-.28Z" transform="translate(-121.396 -36.382)" opacity="0.1"/><path d="M272.326,41.71l-1.2.691L230.937,65.609,126,126.2v135l.816.473,3.208-1.943,143.591-82.951V41Z" transform="translate(-121.883 -36.68)" fill="#fb8c00"/><path d="M272.325,40.21l.8.461L125.52,125.9l-.81-.461Z" transform="translate(-121.396 -36.382)" fill="#fb8c00"/><path d="M272.325,40.21l.8.461L125.52,125.9l-.81-.461Z" transform="translate(-121.396 -36.382)" fill="#fff" opacity="0.4"/><path d="M276.579,44.26l-2.466,1.426-1.289.747-1.183.673L130.609,128.531V264.087l-3.289-1.9V126.631L271.64,43.307l1.183-.685.461-.262.828.48Z" transform="translate(-122.381 -37.193)" fill="#e6e6e6"/><path d="M273.284,42.35l3.295,1.9L130.615,128.527l-3.295-1.906Z" transform="translate(-122.381 -37.19)" fill="#f0f0f0"/><path d="M132.6,129.677V265.234l145.97-84.271V45.4Z" transform="translate(-124.372 -38.34)" fill="#fafafa"/><g transform="translate(2.803)"><path d="M155.605,173.7c.947-.548,1.719-.106,1.719,1a3.806,3.806,0,0,1-1.719,2.977c-.953.548-1.725.106-1.725-.99A3.806,3.806,0,0,1,155.605,173.7Z" transform="translate(-135.201 -86.639)" fill="#37474f"/><path d="M144.51,151.229c-1.869-1.078-3.669-1.246-5.051-.436s-2.149,2.435-2.149,4.6a10.812,10.812,0,0,0,.3,2.442l1.146-.666a9.212,9.212,0,0,1-.174-1.775c0-1.694.536-2.934,1.514-3.5s2.317-.4,3.781.442A13.1,13.1,0,0,1,149.8,162.6a5.325,5.325,0,0,1-.48,2.373,2.753,2.753,0,0,1-1.034,1.127.5.5,0,0,1-.1.05,3.737,3.737,0,0,0-.542,1.5,3.818,3.818,0,0,0,1.277-.455,4.048,4.048,0,0,0,1.788-2.255,6.951,6.951,0,0,0,.361-2.342A14.518,14.518,0,0,0,144.51,151.229Z" transform="translate(-128.951 -77.897)" fill="#fb8c00"/><path d="M169.025,165.948c.947-.548,1.719-.1,1.719,1a3.831,3.831,0,0,1-1.719,2.983c-.953.548-1.725.1-1.725-1a3.818,3.818,0,0,1,1.725-2.983Z" transform="translate(-140.262 -83.717)" fill="#37474f"/><path d="M157.93,143.479c-1.869-1.078-3.669-1.246-5.051-.436s-2.149,2.435-2.149,4.6a10.813,10.813,0,0,0,.3,2.442l1.146-.666a9.168,9.168,0,0,1-.174-1.775c0-1.694.536-2.934,1.514-3.5s2.317-.4,3.781.442a13.1,13.1,0,0,1,5.93,10.277,5.263,5.263,0,0,1-.48,2.373,2.778,2.778,0,0,1-1.034,1.121l-.1.056a3.681,3.681,0,0,0-.542,1.495,3.806,3.806,0,0,0,1.246-.448,4.086,4.086,0,0,0,1.788-2.261,7.1,7.1,0,0,0,.361-2.336A14.414,14.414,0,0,0,157.93,143.479Z" transform="translate(-134.013 -74.974)" fill="#fb8c00"/><path d="M142.189,181.438c.953-.548,1.719-.106,1.719,1a3.787,3.787,0,0,1-1.719,2.977c-.947.548-1.719.106-1.719-.99a3.818,3.818,0,0,1,1.719-2.983Z" transform="translate(-130.143 -89.558)" fill="#37474f"/><path d="M131.09,158.968c-1.869-1.078-3.669-1.246-5.051-.436s-2.149,2.429-2.149,4.6a10.894,10.894,0,0,0,.3,2.442l1.152-.666a9.28,9.28,0,0,1-.181-1.775c0-1.694.542-2.934,1.514-3.5s2.317-.4,3.781.442a13.087,13.087,0,0,1,5.936,10.271,5.326,5.326,0,0,1-.486,2.373,2.684,2.684,0,0,1-1.028,1.121l-.1.056a3.669,3.669,0,0,0-.548,1.495,3.737,3.737,0,0,0,1.283-.448,4.036,4.036,0,0,0,1.781-2.255,6.976,6.976,0,0,0,.367-2.342A14.524,14.524,0,0,0,131.09,158.968Z" transform="translate(-123.89 -80.817)" fill="#fb8c00"/><path d="M182.445,158.206c.947-.554,1.719-.106,1.719.99a3.818,3.818,0,0,1-1.719,2.983c-.953.548-1.725.1-1.725-1A3.8,3.8,0,0,1,182.445,158.206Z" transform="translate(-145.324 -80.795)" fill="#37474f"/><path d="M171.35,135.737c-1.869-1.084-3.669-1.246-5.058-.442s-2.143,2.435-2.143,4.6a10.814,10.814,0,0,0,.3,2.442l1.146-.666a9.168,9.168,0,0,1-.174-1.775c0-1.694.536-2.934,1.507-3.494s2.323-.411,3.787.436a13.1,13.1,0,0,1,5.93,10.277,5.344,5.344,0,0,1-.48,2.373,2.778,2.778,0,0,1-1.034,1.121l-.1.056a3.737,3.737,0,0,0-.542,1.495,3.806,3.806,0,0,0,1.277-.448,4.086,4.086,0,0,0,1.788-2.261,7.1,7.1,0,0,0,.361-2.336A14.525,14.525,0,0,0,171.35,135.737Z" transform="translate(-139.074 -72.053)" fill="#fb8c00"/><path d="M195.859,150.458c.953-.548,1.725-.106,1.725.99a3.8,3.8,0,0,1-1.725,3c-.947.548-1.719.106-1.719-1A3.806,3.806,0,0,1,195.859,150.458Z" transform="translate(-150.385 -77.874)" fill="#37474f"/><path d="M184.77,127.987c-1.869-1.084-3.669-1.246-5.058-.436s-2.143,2.429-2.143,4.6a10.8,10.8,0,0,0,.3,2.435l1.146-.66a9.261,9.261,0,0,1-.174-1.775c0-1.694.536-2.94,1.507-3.5s2.317-.4,3.787.442a13.087,13.087,0,0,1,5.93,10.271,5.325,5.325,0,0,1-.48,2.373,2.778,2.778,0,0,1-1.034,1.121l-.1.056a3.737,3.737,0,0,0-.542,1.495,3.675,3.675,0,0,0,1.277-.448,4.061,4.061,0,0,0,1.788-2.261,7.1,7.1,0,0,0,.361-2.336A14.534,14.534,0,0,0,184.77,127.987Z" transform="translate(-144.136 -69.131)" fill="#fb8c00"/><path d="M209.279,142.708c.953-.548,1.725-.106,1.725.99a3.8,3.8,0,0,1-1.725,2.983c-.947.548-1.719.106-1.719-.99A3.806,3.806,0,0,1,209.279,142.708Z" transform="translate(-155.446 -74.951)" fill="#37474f"/><path d="M198.194,120.237c-1.869-1.084-3.669-1.246-5.058-.436S191,122.224,191,124.4a10.9,10.9,0,0,0,.3,2.442l1.146-.666a9.26,9.26,0,0,1-.174-1.775c0-1.694.536-2.94,1.507-3.5s2.317-.4,3.787.442a13.087,13.087,0,0,1,5.93,10.271,5.239,5.239,0,0,1-.486,2.373,2.722,2.722,0,0,1-1.028,1.121.805.805,0,0,1-.1.056,3.737,3.737,0,0,0-.542,1.495,3.675,3.675,0,0,0,1.246-.448,4.074,4.074,0,0,0,1.788-2.255,7.138,7.138,0,0,0,.361-2.342A14.442,14.442,0,0,0,198.194,120.237Z" transform="translate(-149.201 -66.208)" fill="#fb8c00"/><path d="M222.7,134.958c.953-.548,1.725-.106,1.725,1a3.8,3.8,0,0,1-1.725,2.977c-.947.548-1.719.106-1.719-.99A3.818,3.818,0,0,1,222.7,134.958Z" transform="translate(-160.508 -72.028)" fill="#37474f"/><path d="M211.636,112.489c-1.869-1.078-3.669-1.246-5.058-.436s-2.149,2.429-2.149,4.6a10.522,10.522,0,0,0,.305,2.442l1.146-.666a9.23,9.23,0,0,1-.181-1.775c0-1.694.542-2.934,1.514-3.5s2.317-.4,3.787.442a13.1,13.1,0,0,1,5.93,10.271,5.22,5.22,0,0,1-.486,2.373,2.784,2.784,0,0,1-1.028,1.127l-.1.05a3.738,3.738,0,0,0-.542,1.495,3.55,3.55,0,0,0,1.277-.448,4.049,4.049,0,0,0,1.788-2.255,7.138,7.138,0,0,0,.361-2.342A14.636,14.636,0,0,0,211.636,112.489Z" transform="translate(-154.266 -63.286)" fill="#fb8c00"/><path d="M236.119,127.208c.953-.548,1.719-.1,1.719,1a3.787,3.787,0,0,1-1.719,2.977c-.947.554-1.719.106-1.719-.99a3.83,3.83,0,0,1,1.719-2.983Z" transform="translate(-165.569 -69.106)" fill="#37474f"/><path d="M225.026,104.738c-1.869-1.078-3.669-1.246-5.058-.436s-2.149,2.435-2.149,4.6a10.482,10.482,0,0,0,.305,2.442l1.146-.666a9.18,9.18,0,0,1-.181-1.775c0-1.694.542-2.934,1.514-3.5s2.317-.4,3.787.442a13.1,13.1,0,0,1,5.93,10.277,5.213,5.213,0,0,1-.486,2.367,2.7,2.7,0,0,1-1.028,1.127l-.1.056a3.681,3.681,0,0,0-.542,1.495,3.856,3.856,0,0,0,1.246-.448,4.073,4.073,0,0,0,1.781-2.261,6.938,6.938,0,0,0,.367-2.336A14.43,14.43,0,0,0,225.026,104.738Z" transform="translate(-159.316 -60.364)" fill="#fb8c00"/><path d="M249.539,119.466c.953-.554,1.719-.106,1.719.99a3.8,3.8,0,0,1-1.719,2.983c-.947.548-1.719.1-1.719-1A3.806,3.806,0,0,1,249.539,119.466Z" transform="translate(-170.631 -66.184)" fill="#37474f"/><path d="M238.446,96.988c-1.869-1.078-3.669-1.246-5.058-.436s-2.149,2.435-2.149,4.6a10.482,10.482,0,0,0,.305,2.442l1.146-.666a9.181,9.181,0,0,1-.181-1.775c0-1.694.542-2.934,1.514-3.494s2.317-.411,3.787.436a13.1,13.1,0,0,1,5.93,10.277,5.257,5.257,0,0,1-.486,2.373,2.647,2.647,0,0,1-1.028,1.121l-.1.056a3.569,3.569,0,0,0-.542,1.495,3.856,3.856,0,0,0,1.277-.448,4.049,4.049,0,0,0,1.781-2.261,6.937,6.937,0,0,0,.367-2.336A14.546,14.546,0,0,0,238.446,96.988Z" transform="translate(-164.377 -57.441)" fill="#fb8c00"/><path d="M262.959,111.718c.953-.548,1.719-.106,1.719.99a3.8,3.8,0,0,1-1.719,2.983c-.947.548-1.719.1-1.719-1A3.806,3.806,0,0,1,262.959,111.718Z" transform="translate(-175.692 -63.263)" fill="#37474f"/><path d="M251.866,89.247C250,88.164,248.2,88,246.809,88.811s-2.149,2.429-2.149,4.6a10.47,10.47,0,0,0,.305,2.435l1.152-.66a9.279,9.279,0,0,1-.181-1.775c0-1.694.542-2.94,1.514-3.5s2.317-.411,3.787.436a13.1,13.1,0,0,1,5.93,10.277,5.238,5.238,0,0,1-.486,2.373,2.722,2.722,0,0,1-1.028,1.121l-.1.056a3.569,3.569,0,0,0-.542,1.495,3.855,3.855,0,0,0,1.277-.448,4.055,4.055,0,0,0,1.781-2.261,6.938,6.938,0,0,0,.367-2.336A14.625,14.625,0,0,0,251.866,89.247Z" transform="translate(-169.439 -54.52)" fill="#fb8c00"/><path d="M276.379,103.968c.953-.548,1.719-.106,1.719.99a3.793,3.793,0,0,1-1.719,2.983c-.947.548-1.719.106-1.719-.99A3.805,3.805,0,0,1,276.379,103.968Z" transform="translate(-180.753 -60.34)" fill="#37474f"/><path d="M265.286,81.5c-1.869-1.084-3.669-1.246-5.058-.436s-2.149,2.429-2.149,4.6a10.589,10.589,0,0,0,.305,2.442l1.146-.666a9.279,9.279,0,0,1-.181-1.775c0-1.694.542-2.94,1.514-3.5s2.317-.4,3.781.442a13.077,13.077,0,0,1,5.936,10.271,5.238,5.238,0,0,1-.486,2.373,2.722,2.722,0,0,1-1.028,1.121l-.1.056a3.569,3.569,0,0,0-.542,1.495,3.737,3.737,0,0,0,1.277-.448,4.061,4.061,0,0,0,1.781-2.255,6.975,6.975,0,0,0,.367-2.342A14.534,14.534,0,0,0,265.286,81.5Z" transform="translate(-174.5 -51.597)" fill="#fb8c00"/><path d="M289.8,96.218c.953-.548,1.719-.106,1.719,1a3.787,3.787,0,0,1-1.719,2.977c-.947.548-1.719.106-1.719-.99a3.818,3.818,0,0,1,1.719-2.983Z" transform="translate(-185.815 -57.417)" fill="#37474f"/><path d="M278.7,73.748c-1.869-1.078-3.669-1.246-5.051-.436s-2.149,2.429-2.149,4.6a10.9,10.9,0,0,0,.3,2.442l1.152-.666a9.282,9.282,0,0,1-.181-1.775c0-1.694.542-2.934,1.513-3.5s2.317-.4,3.781.442A13.086,13.086,0,0,1,284,85.122a5.325,5.325,0,0,1-.486,2.373,2.685,2.685,0,0,1-1.028,1.121l-.1.056a3.669,3.669,0,0,0-.548,1.495,3.737,3.737,0,0,0,1.283-.448,4.036,4.036,0,0,0,1.769-2.255,6.977,6.977,0,0,0,.367-2.342A14.478,14.478,0,0,0,278.7,73.748Z" transform="translate(-179.562 -48.676)" fill="#fb8c00"/><path d="M303.205,88.476c.947-.554,1.719-.106,1.719.99a3.818,3.818,0,0,1-1.719,2.983c-.953.548-1.725.1-1.725-1a3.8,3.8,0,0,1,1.725-2.977Z" transform="translate(-190.869 -54.496)" fill="#37474f"/><path d="M292.11,66.007c-1.869-1.084-3.669-1.246-5.057-.436s-2.143,2.429-2.143,4.6a10.8,10.8,0,0,0,.3,2.435l1.146-.666a9.153,9.153,0,0,1-.174-1.769c0-1.7.536-2.94,1.514-3.5s2.317-.411,3.781.436A13.1,13.1,0,0,1,297.4,77.381a5.325,5.325,0,0,1-.48,2.373,2.778,2.778,0,0,1-1.034,1.121l-.1.056a3.737,3.737,0,0,0-.542,1.495,3.806,3.806,0,0,0,1.277-.448,4.086,4.086,0,0,0,1.788-2.261,7.1,7.1,0,0,0,.361-2.336A14.551,14.551,0,0,0,292.11,66.007Z" transform="translate(-184.619 -45.755)" fill="#fb8c00"/><path d="M316.619,80.728c.953-.548,1.725-.106,1.725.99a3.8,3.8,0,0,1-1.725,2.983c-.947.548-1.719.106-1.719-1a3.806,3.806,0,0,1,1.719-2.977Z" transform="translate(-195.93 -51.575)" fill="#37474f"/><path d="M305.53,58.257c-1.869-1.084-3.669-1.246-5.057-.436s-2.143,2.429-2.143,4.6a10.8,10.8,0,0,0,.3,2.435l1.146-.66a9.266,9.266,0,0,1-.174-1.775c0-1.694.536-2.94,1.507-3.5s2.317-.4,3.787.442a13.087,13.087,0,0,1,5.93,10.271,5.325,5.325,0,0,1-.48,2.373,2.7,2.7,0,0,1-1.009,1.121.8.8,0,0,1-.1.056,3.737,3.737,0,0,0-.542,1.495,3.675,3.675,0,0,0,1.277-.448,4.092,4.092,0,0,0,1.788-2.255,7.137,7.137,0,0,0,.361-2.342A14.628,14.628,0,0,0,305.53,58.257Z" transform="translate(-189.681 -42.832)" fill="#fb8c00"/><path d="M330.039,72.978c.953-.548,1.725-.106,1.725.99a3.8,3.8,0,0,1-1.725,2.983c-.947.548-1.719.106-1.719-.99a3.818,3.818,0,0,1,1.719-2.983Z" transform="translate(-200.991 -48.652)" fill="#37474f"/><path d="M318.95,50.508c-1.869-1.078-3.669-1.246-5.057-.436s-2.143,2.429-2.143,4.6a10.894,10.894,0,0,0,.3,2.442l1.146-.666a9.263,9.263,0,0,1-.174-1.775c0-1.694.536-2.934,1.507-3.5s2.317-.4,3.787.442a13.087,13.087,0,0,1,5.93,10.271,5.239,5.239,0,0,1-.486,2.373,2.722,2.722,0,0,1-1.028,1.121.406.406,0,0,1-.1.056,3.737,3.737,0,0,0-.542,1.495,3.675,3.675,0,0,0,1.246-.448,4.074,4.074,0,0,0,1.788-2.255,7.137,7.137,0,0,0,.361-2.342A14.419,14.419,0,0,0,318.95,50.508Z" transform="translate(-194.742 -39.911)" fill="#fb8c00"/><path d="M343.459,65.228c.953-.548,1.725-.106,1.725,1a3.8,3.8,0,0,1-1.725,2.977c-.947.548-1.719.106-1.719-.99A3.818,3.818,0,0,1,343.459,65.228Z" transform="translate(-206.053 -45.729)" fill="#37474f"/><path d="M332.366,42.758c-1.869-1.078-3.669-1.246-5.058-.436s-2.149,2.429-2.149,4.6a10.482,10.482,0,0,0,.305,2.442l1.146-.666a9.21,9.21,0,0,1-.174-1.775c0-1.694.536-2.934,1.507-3.5s2.317-.4,3.787.442a13.1,13.1,0,0,1,5.929,10.271,5.219,5.219,0,0,1-.486,2.373,2.784,2.784,0,0,1-1.028,1.127l-.1.05a3.737,3.737,0,0,0-.542,1.495,3.55,3.55,0,0,0,1.277-.448,4.049,4.049,0,0,0,1.788-2.255,7.113,7.113,0,0,0,.361-2.342A14.534,14.534,0,0,0,332.366,42.758Z" transform="translate(-199.8 -36.988)" fill="#fb8c00"/><path d="M356.879,57.478c.953-.548,1.719-.1,1.719,1a3.787,3.787,0,0,1-1.719,2.977c-.947.554-1.719.106-1.719-.99a3.83,3.83,0,0,1,1.719-2.983Z" transform="translate(-211.114 -42.807)" fill="#37474f"/><path d="M345.786,35.008c-1.869-1.078-3.669-1.246-5.058-.436s-2.149,2.435-2.149,4.6a10.482,10.482,0,0,0,.305,2.442l1.146-.666a9.179,9.179,0,0,1-.181-1.775c0-1.694.542-2.934,1.514-3.5s2.317-.4,3.787.442a13.1,13.1,0,0,1,5.93,10.277,5.214,5.214,0,0,1-.486,2.367,2.666,2.666,0,0,1-1.028,1.127l-.1.056a3.681,3.681,0,0,0-.542,1.495,3.805,3.805,0,0,0,1.277-.448,4.048,4.048,0,0,0,1.781-2.261,6.939,6.939,0,0,0,.367-2.336A14.479,14.479,0,0,0,345.786,35.008Z" transform="translate(-204.861 -34.065)" fill="#fb8c00"/><path d="M264.823,35.008c-1.869-1.078-3.669-1.246-5.058-.436s-2.149,2.435-2.149,4.6a10.59,10.59,0,0,0,.143,1.57,9.7,9.7,0,0,0-1.3-.9c-1.869-1.078-3.669-1.246-5.058-.436s-2.149,2.429-2.149,4.6a10.421,10.421,0,0,0,.143,1.563,10.264,10.264,0,0,0-1.3-.9c-1.869-1.084-3.669-1.246-5.058-.436s-2.143,2.429-2.143,4.6a10.4,10.4,0,0,0,.137,1.563,10.263,10.263,0,0,0-1.3-.9c-1.869-1.084-3.669-1.246-5.058-.436s-2.143,2.429-2.143,4.6a10.47,10.47,0,0,0,.137,1.563,9.654,9.654,0,0,0-1.3-.9c-1.869-1.084-3.669-1.246-5.058-.436s-2.143,2.429-2.143,4.6a10.3,10.3,0,0,0,.137,1.551,10.146,10.146,0,0,0-1.289-.891c-1.869-1.078-3.669-1.246-5.051-.436s-2.149,2.429-2.149,4.6a10.419,10.419,0,0,0,.143,1.563,10.264,10.264,0,0,0-1.3-.9c-1.869-1.084-3.675-1.246-5.058-.436s-2.149,2.429-2.149,4.6a10.421,10.421,0,0,0,.143,1.563,9.656,9.656,0,0,0-1.3-.9c-1.869-1.084-3.669-1.246-5.057-.436s-2.149,2.429-2.149,4.6a10.494,10.494,0,0,0,.143,1.563,10.321,10.321,0,0,0-1.3-.9c-1.869-1.078-3.669-1.246-5.058-.436s-2.149,2.435-2.149,4.6a10.5,10.5,0,0,0,.143,1.57,9.7,9.7,0,0,0-1.3-.9c-1.869-1.078-3.669-1.246-5.058-.436s-2.149,2.435-2.149,4.6a10.419,10.419,0,0,0,.143,1.563,10.266,10.266,0,0,0-1.3-.9c-1.869-1.078-3.669-1.246-5.058-.436s-2.149,2.429-2.149,4.6a10.423,10.423,0,0,0,.143,1.563,10.265,10.265,0,0,0-1.3-.9c-1.869-1.084-3.669-1.246-5.058-.436s-2.136,2.423-2.136,4.6a10.42,10.42,0,0,0,.143,1.563,10.263,10.263,0,0,0-1.3-.9c-1.869-1.084-3.669-1.246-5.058-.436s-2.143,2.429-2.143,4.6a10.472,10.472,0,0,0,.137,1.563,9.653,9.653,0,0,0-1.3-.9c-1.869-1.084-3.669-1.246-5.057-.442s-2.143,2.435-2.143,4.6a10.486,10.486,0,0,0,.137,1.57,9.7,9.7,0,0,0-1.3-.9c-1.869-1.078-3.669-1.246-5.051-.436s-2.149,2.435-2.149,4.6a9.8,9.8,0,0,0,.143,1.57,10.173,10.173,0,0,0-1.3-.9c-1.869-1.078-3.669-1.246-5.051-.436s-2.149,2.435-2.149,4.6a9.536,9.536,0,0,0,.131,1.551,10.145,10.145,0,0,0-1.289-.891c-1.869-1.078-3.669-1.246-5.051-.436s-2.149,2.429-2.149,4.6a10.894,10.894,0,0,0,.3,2.442l1.152-.666a9.28,9.28,0,0,1-.181-1.775c0-1.694.542-2.934,1.514-3.5s2.317-.4,3.781.442a13.087,13.087,0,0,1,5.936,10.271,5.326,5.326,0,0,1-.486,2.373,2.684,2.684,0,0,1-1.028,1.121l-.1.056a3.669,3.669,0,0,0-.548,1.495,3.737,3.737,0,0,0,1.283-.448,4.036,4.036,0,0,0,1.781-2.255,6.976,6.976,0,0,0,.367-2.342,14.736,14.736,0,0,0-4.6-9.891l.623-.367a9.213,9.213,0,0,1-.174-1.775c0-1.694.536-2.934,1.514-3.5s2.317-.4,3.781.442a13.1,13.1,0,0,1,5.93,10.271,5.325,5.325,0,0,1-.48,2.373,2.753,2.753,0,0,1-1.034,1.127.5.5,0,0,1-.1.05,3.737,3.737,0,0,0-.542,1.5,3.818,3.818,0,0,0,1.277-.455,4.048,4.048,0,0,0,1.788-2.255,6.951,6.951,0,0,0,.361-2.342,14.735,14.735,0,0,0-4.6-9.891l.623-.374a9.167,9.167,0,0,1-.174-1.775c0-1.694.536-2.934,1.514-3.5s2.317-.4,3.781.442a13.1,13.1,0,0,1,5.93,10.277,5.263,5.263,0,0,1-.48,2.373,2.778,2.778,0,0,1-1.034,1.121l-.1.056a3.681,3.681,0,0,0-.542,1.495,3.806,3.806,0,0,0,1.246-.448,4.086,4.086,0,0,0,1.788-2.261,7.1,7.1,0,0,0,.361-2.336,14.737,14.737,0,0,0-4.6-9.9l.623-.374a9.168,9.168,0,0,1-.174-1.775c0-1.694.536-2.934,1.514-3.494s2.317-.411,3.781.436a13.1,13.1,0,0,1,5.93,10.277,5.344,5.344,0,0,1-.48,2.373,2.778,2.778,0,0,1-1.034,1.121l-.1.056a3.737,3.737,0,0,0-.542,1.495,3.806,3.806,0,0,0,1.277-.448,4.086,4.086,0,0,0,1.788-2.261,7.1,7.1,0,0,0,.361-2.336,14.737,14.737,0,0,0-4.6-9.9l.623-.367a9.262,9.262,0,0,1-.174-1.775c0-1.694.536-2.94,1.507-3.5s2.317-.4,3.787.442a13.087,13.087,0,0,1,5.93,10.271,5.325,5.325,0,0,1-.48,2.373,2.778,2.778,0,0,1-1.034,1.121l-.1.056a3.737,3.737,0,0,0-.542,1.495,3.675,3.675,0,0,0,1.277-.448,4.061,4.061,0,0,0,1.788-2.261,7.1,7.1,0,0,0,.361-2.336,14.737,14.737,0,0,0-4.6-9.9l.623-.367a9.261,9.261,0,0,1-.174-1.775c0-1.694.536-2.94,1.507-3.5s2.317-.4,3.787.442a13.087,13.087,0,0,1,5.93,10.271,5.238,5.238,0,0,1-.486,2.373,2.722,2.722,0,0,1-1.028,1.121.805.805,0,0,1-.1.056,3.737,3.737,0,0,0-.542,1.495,3.675,3.675,0,0,0,1.246-.448,4.073,4.073,0,0,0,1.788-2.255,7.137,7.137,0,0,0,.361-2.342,14.735,14.735,0,0,0-4.6-9.891l.623-.374a9.23,9.23,0,0,1-.181-1.775c0-1.694.542-2.934,1.514-3.5s2.317-.4,3.787.442a13.1,13.1,0,0,1,5.93,10.271,5.22,5.22,0,0,1-.486,2.373,2.784,2.784,0,0,1-1.028,1.127l-.1.05a3.737,3.737,0,0,0-.542,1.495,3.55,3.55,0,0,0,1.277-.448,4.048,4.048,0,0,0,1.788-2.255,7.138,7.138,0,0,0,.361-2.342,14.735,14.735,0,0,0-4.6-9.891l.623-.374A9.18,9.18,0,0,1,183.5,82.6c0-1.694.542-2.934,1.514-3.5s2.317-.4,3.787.442a13.1,13.1,0,0,1,5.93,10.277,5.213,5.213,0,0,1-.486,2.367,2.7,2.7,0,0,1-1.028,1.127l-.1.056a3.681,3.681,0,0,0-.542,1.495,3.855,3.855,0,0,0,1.246-.448,4.073,4.073,0,0,0,1.781-2.261,6.938,6.938,0,0,0,.367-2.336,14.737,14.737,0,0,0-4.6-9.9l.623-.374a9.18,9.18,0,0,1-.181-1.775c0-1.694.542-2.934,1.514-3.494s2.317-.411,3.787.436a13.1,13.1,0,0,1,5.93,10.277,5.257,5.257,0,0,1-.486,2.373,2.647,2.647,0,0,1-1.028,1.121l-.1.056a3.569,3.569,0,0,0-.542,1.495,3.855,3.855,0,0,0,1.277-.448,4.048,4.048,0,0,0,1.781-2.261,6.938,6.938,0,0,0,.367-2.336,14.737,14.737,0,0,0-4.6-9.9l.623-.367a9.279,9.279,0,0,1-.181-1.775c0-1.694.542-2.94,1.514-3.5s2.317-.411,3.787.436a13.1,13.1,0,0,1,5.93,10.277,5.238,5.238,0,0,1-.486,2.373,2.722,2.722,0,0,1-1.028,1.121l-.1.056a3.569,3.569,0,0,0-.542,1.495,3.855,3.855,0,0,0,1.277-.448A4.055,4.055,0,0,0,212.28,82.5a6.939,6.939,0,0,0,.367-2.336,14.737,14.737,0,0,0-4.6-9.9l.623-.367a9.28,9.28,0,0,1-.181-1.775c0-1.694.542-2.94,1.514-3.5s2.317-.4,3.787.442a13.087,13.087,0,0,1,5.929,10.271,5.238,5.238,0,0,1-.486,2.373,2.722,2.722,0,0,1-1.028,1.121l-.1.056a3.569,3.569,0,0,0-.542,1.495,3.737,3.737,0,0,0,1.277-.448,4.061,4.061,0,0,0,1.781-2.255,6.975,6.975,0,0,0,.367-2.342,14.735,14.735,0,0,0-4.6-9.891l.623-.374a9.28,9.28,0,0,1-.181-1.775c0-1.694.542-2.934,1.514-3.5s2.317-.4,3.781.442a13.086,13.086,0,0,1,5.936,10.271,5.325,5.325,0,0,1-.486,2.373A2.685,2.685,0,0,1,226.543,74l-.1.056a3.569,3.569,0,0,0-.542,1.495,3.737,3.737,0,0,0,1.277-.448,4.036,4.036,0,0,0,2.049-2.255,6.976,6.976,0,0,0,.367-2.342,14.75,14.75,0,0,0-4.6-9.9l.623-.367a9.15,9.15,0,0,1-.174-1.769c0-1.7.536-2.94,1.507-3.5s2.323-.411,3.787.436a13.1,13.1,0,0,1,5.93,10.277,5.325,5.325,0,0,1-.48,2.373,2.778,2.778,0,0,1-1.034,1.121l-.1.056a3.737,3.737,0,0,0-.542,1.495,3.806,3.806,0,0,0,1.277-.448,4.086,4.086,0,0,0,1.788-2.261,7.1,7.1,0,0,0,.361-2.336,14.563,14.563,0,0,0-4.584-9.866l.623-.367a9.262,9.262,0,0,1-.174-1.775c0-1.694.536-2.94,1.507-3.5s2.317-.4,3.787.442a13.087,13.087,0,0,1,5.93,10.271,5.325,5.325,0,0,1-.48,2.373,2.7,2.7,0,0,1-.99,1.09.8.8,0,0,1-.1.056,3.737,3.737,0,0,0-.542,1.495,3.675,3.675,0,0,0,1.277-.448,4.092,4.092,0,0,0,1.788-2.255,7.138,7.138,0,0,0,.361-2.342,14.762,14.762,0,0,0-4.6-9.9l.623-.367a9.262,9.262,0,0,1-.174-1.775c0-1.694.536-2.934,1.507-3.5s2.317-.4,3.787.442a13.087,13.087,0,0,1,5.929,10.271,5.238,5.238,0,0,1-.486,2.373,2.722,2.722,0,0,1-1.028,1.121.8.8,0,0,1-.1.056,3.737,3.737,0,0,0-.542,1.495,3.675,3.675,0,0,0,1.246-.448,4.073,4.073,0,0,0,1.788-2.255,7.138,7.138,0,0,0,.361-2.342,14.735,14.735,0,0,0-4.6-9.891l.623-.374a9.232,9.232,0,0,1-.137-1.781c0-1.694.542-2.934,1.514-3.5s2.317-.4,3.787.442A13.1,13.1,0,0,1,261.759,51.2a5.22,5.22,0,0,1-.486,2.373,2.784,2.784,0,0,1-1.028,1.127l-.1.05a3.738,3.738,0,0,0-.542,1.495,3.55,3.55,0,0,0,1.277-.448,4.048,4.048,0,0,0,1.788-2.255,7.113,7.113,0,0,0,.361-2.342,14.735,14.735,0,0,0-4.6-9.891l.623-.374a9.179,9.179,0,0,1-.181-1.775c0-1.694.542-2.934,1.514-3.5s2.317-.4,3.787.442a13.1,13.1,0,0,1,5.93,10.277,5.214,5.214,0,0,1-.486,2.367,2.666,2.666,0,0,1-1.028,1.127l-.1.056a3.681,3.681,0,0,0-.542,1.495,3.855,3.855,0,0,0,1.277-.448A4.048,4.048,0,0,0,271,48.717a6.939,6.939,0,0,0,.367-2.336A14.408,14.408,0,0,0,264.823,35.008Z" transform="translate(-123.898 -34.065)" opacity="0.4"/></g><path d="M161.5,194.377l10.439-6.06c.772-.448,1.4-.131,1.408.7a2.952,2.952,0,0,1-1.4,2.323L161.5,197.385c-.772.442-1.4.125-1.4-.71A3,3,0,0,1,161.5,194.377Z" transform="translate(-134.744 -92.164)" fill="#fb8c00"/><path d="M190.151,177.835l10.439-6.067c.772-.442,1.4-.131,1.408.71a3,3,0,0,1-1.4,2.323l-10.451,6.054c-.772.448-1.4.131-1.4-.7a2.99,2.99,0,0,1,1.4-2.317Z" transform="translate(-145.549 -85.924)" fill="#fb8c00"/><path d="M218.815,161.287l10.445-6.06c.772-.448,1.4-.131,1.408.7a2.983,2.983,0,0,1-1.4,2.323l-10.451,6.06c-.779.442-1.4.125-1.4-.71A3,3,0,0,1,218.815,161.287Z" transform="translate(-156.362 -79.684)" fill="#fb8c00"/><path d="M247.475,144.743l10.439-6.067c.772-.448,1.408-.131,1.408.71a2.959,2.959,0,0,1-1.389,2.317l-10.458,6.06c-.772.442-1.4.131-1.4-.7a2.983,2.983,0,0,1,1.4-2.317Z" transform="translate(-167.171 -73.443)" fill="#fb8c00"/><path d="M276.151,128.207l10.439-6.06c.772-.448,1.4-.131,1.408.7a2.971,2.971,0,0,1-1.389,2.323l-10.458,6.048c-.772.448-1.4.131-1.4-.7a3,3,0,0,1,1.4-2.311Z" transform="translate(-177.984 -67.208)" fill="#fb8c00"/><path d="M304.791,111.647l10.439-6.06c.772-.448,1.4-.131,1.408.71a2.952,2.952,0,0,1-1.4,2.317l-10.451,6.06c-.772.442-1.4.131-1.4-.7a3.008,3.008,0,0,1,1.4-2.323Z" transform="translate(-188.786 -60.963)" fill="#fb8c00"/><path d="M333.451,95.106l10.439-6.067c.772-.442,1.4-.125,1.408.71a2.99,2.99,0,0,1-1.4,2.3l-10.451,6.054c-.772.448-1.4.131-1.4-.7A3,3,0,0,1,333.451,95.106Z" transform="translate(-199.595 -54.723)" fill="#fb8c00"/><path d="M281.046,110.591,280.9,197.51,159.566,267.648V180.73l121.455-70.139m1.246-2.161L158.32,180.008v89.8l123.828-71.578.15-89.8Z" transform="translate(-134.073 -62.112)" fill="#e0e0e0"/><path d="M186.343,296.746h0a.623.623,0,0,1-.623-.623v-88.6a.623.623,0,0,1,.623-.623h0a.623.623,0,0,1,.623.623v88.6A.623.623,0,0,1,186.343,296.746Z" transform="translate(-144.407 -99.25)" fill="#e0e0e0"/><path d="M214.753,280.326h0a.623.623,0,0,1-.623-.623l.037-88.6a.623.623,0,0,1,.623-.623h0a.623.623,0,0,1,.623.623l-.037,88.6A.623.623,0,0,1,214.753,280.326Z" transform="translate(-155.121 -93.057)" fill="#e0e0e0"/><path d="M243.153,263.912h0a.623.623,0,0,1-.623-.623l.062-88.606a.623.623,0,0,1,.623-.623h0a.623.623,0,0,1,.623.623l-.062,88.606A.623.623,0,0,1,243.153,263.912Z" transform="translate(-165.833 -86.864)" fill="#e0e0e0"/><path d="M271.553,247.492h0a.623.623,0,0,1-.623-.623l.081-88.606a.623.623,0,0,1,.623-.623h0a.623.623,0,0,1,.623.623l-.081,88.6a.623.623,0,0,1-.623.629Z" transform="translate(-176.544 -80.671)" fill="#e0e0e0"/><path d="M299.953,231.076h0a.623.623,0,0,1-.623-.623l.106-88.6a.623.623,0,0,1,.623-.623h0a.623.623,0,0,1,.623.623l-.106,88.6A.623.623,0,0,1,299.953,231.076Z" transform="translate(-187.255 -74.482)" fill="#e0e0e0"/><path d="M328.353,214.656h0a.623.623,0,0,1-.623-.623l.125-88.6a.623.623,0,0,1,.623-.623h0a.623.623,0,0,1,.623.623l-.125,88.606A.623.623,0,0,1,328.353,214.656Z" transform="translate(-197.966 -68.29)" fill="#e0e0e0"/><path d="M159.113,216.071a.62.62,0,0,1-.311-1.158l122.62-70.793a.622.622,0,0,1,.623,1.078L159.43,215.99A.623.623,0,0,1,159.113,216.071Z" transform="translate(-134.136 -75.541)" fill="#e0e0e0"/><path d="M159.11,252.125a.623.623,0,0,1-.311-1.165l122.62-70.793a.623.623,0,0,1,.623,1.078L159.428,252.037a.579.579,0,0,1-.318.087Z" transform="translate(-134.134 -89.141)" fill="#e0e0e0"/><path d="M159.113,288.157A.62.62,0,0,1,158.8,287l122.62-70.8a.625.625,0,1,1,.623,1.084L159.43,288.076A.623.623,0,0,1,159.113,288.157Z" transform="translate(-134.136 -102.726)" fill="#e0e0e0"/><g transform="translate(112.34 58.096)"><g transform="translate(1.996)"><path d="M302.96,137.947V160.12l18.374-10.607V127.34Z" transform="translate(-302.96 -127.34)" opacity="0.1"/><path d="M326.362,150.617s-.9,1.52-4.1,3.37l-16.194,9.343-1.943-19.271,18.368-10.588,1.028,11.155C323.7,146.394,323.976,149.041,326.362,150.617Z" transform="translate(-303.397 -129.652)" fill="#b2ebf2"/><path d="M322.518,131.331,304.15,141.938v-3.4l18.368-10.607Z" transform="translate(-303.409 -127.563)" fill="#fb8c00"/><path d="M322.518,131.331,304.15,141.938v-3.4l18.368-10.607Z" transform="translate(-303.409 -120.559)" fill="#26aab7" opacity="0.1"/></g><path d="M322.664,146.5a12.864,12.864,0,0,0-.423-1.526.463.463,0,0,0-.062-.168,1.482,1.482,0,0,0-.262-1.644c-.075-.069-.262-.143-.318,0a2.224,2.224,0,0,0,.112,1.451,5.728,5.728,0,0,1-.536.959,7.519,7.519,0,0,1-.623.822c-.286.305-.723.747-1.171.76a.554.554,0,0,1-.554-.424,6.212,6.212,0,0,0,.392-.623,4.359,4.359,0,0,0,.623-1.47.567.567,0,0,0-.71-.666c-.5.118-.679.791-.779,1.246a2.89,2.89,0,0,0,0,1.345,3.736,3.736,0,0,1-.386.5,1.863,1.863,0,0,1-.187.143.82.82,0,0,0,0-.162c0-.149-.224-.38-.38-.262-.4.318-.48.828-.729,1.246a1,1,0,0,1-.218.268c-.106.093-.118.106-.168,0a2.979,2.979,0,0,0-.249-.623c-.075-.125-.33-.243-.43-.081a2.941,2.941,0,0,0-.336.791.623.623,0,0,0-.922,0,5.289,5.289,0,0,0-.816,1.165,3.8,3.8,0,0,1-.212.336l-.069.093a.2.2,0,0,1,0-.081,7.233,7.233,0,0,1,0-1.04h0V148.8c0-.249-.542-.386-.542-.1a.793.793,0,0,0,0,.125,3.114,3.114,0,0,1-1.426,2.261c-.23.168-.8.585-1.109.43s-.224-.623-.212-.847a5.319,5.319,0,0,1,.623-2.174,2.192,2.192,0,0,1,.723-.822.86.86,0,0,1,.66-.125c.293.106.262.442.187.685-.031.1.125.324.206.174.448-.822-.3-1.563-1.158-1.246a2.688,2.688,0,0,0-1.476,1.912,3.576,3.576,0,0,0-.206,2.4c.392.872,1.408.517,2.018.106a4.36,4.36,0,0,0,1.32-1.377.771.771,0,0,0,.112.137c.4.4.766.031.984-.336a6.1,6.1,0,0,1,.816-1.246c.044-.044.1-.075.137-.118h0a1.41,1.41,0,0,1,.05.318,5.279,5.279,0,0,0,.031.7c.031.23.436.4.511.137a15.2,15.2,0,0,1,.367-1.507c.162.343.374.66.8.48s.567-.847.828-1.289a.411.411,0,0,0,.623.149,1.576,1.576,0,0,0,.473-.436l.05-.075a1.084,1.084,0,0,0,1.134.492,2.934,2.934,0,0,0,1.514-1.134,6.621,6.621,0,0,0,.766-1.121v.069a9.565,9.565,0,0,1,.33,1.713v.467a1.582,1.582,0,0,0-1.794.592c-.38.467-.5,1.389.174,1.669.567.237,1.215-.249,1.582-.623A3.331,3.331,0,0,0,322.664,146.5Zm-3.837-1.283a2.416,2.416,0,0,1,.206-.548.536.536,0,0,1,.131-.181c.044-.037.206-.1.193-.106s-.062.28-.087.355-.1.262-.149.392a6.536,6.536,0,0,1-.4.779A3.877,3.877,0,0,1,318.828,145.216Zm2.491,4.067c-.274.149-.554.268-.585-.131-.05-.66.891-1.464,1.532-1.14a1.508,1.508,0,0,1-.243.66,2.211,2.211,0,0,1-.685.585Z" transform="translate(-303.384 -133.276)" fill="#455a64"/><path d="M311.745,161.243a10.032,10.032,0,0,1-.747,1.669c-.268.392-.735.7-.8,1.2,0,.069.081.243.168.162a6.042,6.042,0,0,0,1.152-1.246v-.056c-.093.561-.206,1.115-.262,1.675s-.137,1.152-.206,1.725-.075,1.146-.181,1.694c-.062.28.448.473.536.168a6.108,6.108,0,0,0,.081-.835c.031-.305.069-.623.106-.928.075-.573.143-1.146.206-1.725a30.728,30.728,0,0,0,.417-3.37C312.243,161.137,311.851,161,311.745,161.243Z" transform="translate(-303.694 -140.078)" fill="#455a64"/><path d="M317.214,160.952a1.376,1.376,0,0,0-.461-.467c-.181-.1-.5-.218-.691-.093a.218.218,0,0,0-.062-.05c-.623-.162-1.015.367-1.289.828a8.869,8.869,0,0,0-.623,1.451c-.324.86-.623,2.329.293,2.952a1.691,1.691,0,0,0,2.273-.623,4.821,4.821,0,0,0,.853-2.628A2.579,2.579,0,0,0,317.214,160.952Zm-.922,3.395c-.28.5-.841,1.14-1.489.922-.374-.125-.455-.585-.467-.928a3.656,3.656,0,0,1,.212-1.314,11.145,11.145,0,0,1,.536-1.327c.174-.367.48-1,.953-1.046a.169.169,0,0,0,.05.044,2.66,2.66,0,0,1,.43.187.76.76,0,0,1,.193.243,2.105,2.105,0,0,1,.187.953A4.659,4.659,0,0,1,316.292,164.347Z" transform="translate(-305.04 -139.776)" fill="#455a64"/><path d="M329.754,159.355c-.23-.5-.355-1.046-.536-1.563a2.659,2.659,0,0,0-.729-1.3c-.106-.081-.318-.149-.4,0a5.182,5.182,0,0,0-.623,1.794,2.49,2.49,0,0,0-.293-.336.293.293,0,0,0-.367,0,.984.984,0,0,0-.237.324,1.869,1.869,0,0,0-.517-.71.287.287,0,0,0-.368,0c-.623.623-.461,1.769-.623,2.554a.946.946,0,0,1-.174.473c-.131.112-.174,0-.249-.131a2.491,2.491,0,0,1-.311-.916v-.3h0v-.062c0-.249-.561-.343-.554-.05a2.946,2.946,0,0,1-.417,1.869c-.168.255-.847,1.246-1.14.623-.212-.417.112-1,.336-1.352a2.6,2.6,0,0,1,1.059-1.015h0c.118-.069,0-.293-.125-.287-.66.031-1.246.741-1.532,1.246s-.548,1.314,0,1.812c.623.623,1.352,0,1.756-.523a3.906,3.906,0,0,0,.523-.928v.044c.224.355.7.666,1.084.311s.355-.978.4-1.414a4.074,4.074,0,0,1,.255-1.421,3.388,3.388,0,0,1,.423,1.352c.031.224.473.38.517.093a3.294,3.294,0,0,1,.181-1.046,5.161,5.161,0,0,1,.417.7c.1.174.536.3.5,0a3.787,3.787,0,0,1,.424-2.124,4.025,4.025,0,0,1,.417,1.009,10.886,10.886,0,0,0,.467,1.333C329.405,159.611,329.891,159.642,329.754,159.355Z" transform="translate(-308.007 -138.303)" fill="#455a64"/><path d="M299.771,144.059a4.8,4.8,0,0,1,2.186-3.737,1.514,1.514,0,0,1,1.582-.131h0l.99.585-.4.71v.075a4.815,4.815,0,0,1-2.186,3.768h0l-.455.8-1.078-.623h-.037A1.526,1.526,0,0,1,299.771,144.059Z" transform="translate(-299.755 -132.125)" fill="#37474f"/><path d="M305.872,142.542a4.808,4.808,0,0,1-2.186,3.768c-1.208.7-2.186.143-2.186-1.246a4.8,4.8,0,0,1,2.186-3.737C304.888,140.605,305.872,141.16,305.872,142.542Z" transform="translate(-300.413 -132.496)" fill="#455a64"/></g><g transform="translate(60.386 133.99)"><g transform="translate(1.993)"><path d="M219.54,259.8V281.97l18.368-10.607V249.19Z" transform="translate(-219.54 -249.19)" opacity="0.1"/><path d="M242.936,272.4s-.9,1.52-4.1,3.37l-16.194,9.343L220.7,265.808l18.374-10.588,1.028,11.155C240.276,268.206,240.538,270.86,242.936,272.4Z" transform="translate(-219.977 -251.464)" fill="#26aab7"/><path d="M239.094,253.181,220.72,263.788v-3.4l18.374-10.607Z" transform="translate(-219.985 -249.413)" fill="#61ccd6"/><path d="M239.094,253.181,220.72,263.788v-3.4l18.374-10.607Z" transform="translate(-216.135 -263.788)" fill="#b2ebf2" opacity="0.1"/></g><path d="M238.5,272.315l.174-.037c.262-.037.069-.411-.137-.4h-.181c-.056-.131-.106-.268-.162-.4a9.965,9.965,0,0,0-1.794-3.114c-.118-.125-.4-.162-.411.069a10.788,10.788,0,0,1-.455,2.491h0a3.289,3.289,0,0,0-.193-.785c-.069-.187-.448-.349-.473-.044a1.526,1.526,0,0,0,.156.847,12.052,12.052,0,0,1-.336,3.606c-.149.486-.424,1.183-1.053.947h0c.037-.156.062-.305.087-.436.262-1.283.729-3.457-.891-4.048a.174.174,0,0,0-.218.062,4.87,4.87,0,0,0-.324,2.311,3.158,3.158,0,0,0,.8,2.267,1.053,1.053,0,0,1-.361.561c-.486.336-1.121-.467-1.364-.791-.075-.1-.274-.23-.4-.112a2.492,2.492,0,0,0-.523,2.03.286.286,0,0,0-.3-.062,1.071,1.071,0,0,0-.623,1.028c-.287-.5-.666-.847-1.215-.486a1.482,1.482,0,0,0-.623.8,2.79,2.79,0,0,0-.685-1.594,1,1,0,0,0-1.377,0,2.61,2.61,0,0,0-.548,1.663,2.94,2.94,0,0,0,.087.934c.031.1.069.255.193.274s.168-.093.131-.206c-.181-.567.106-2.871,1.084-2.491.523.212.592,1.277.666,1.744.143.891.343,1.775.492,2.66.05.274.536.392.542.05,0-1-.48-2.286.137-3.189.075-.112.268-.367.424-.311s.237.318.3.442c.181.38.28.8.473,1.171.106.206.517.324.517,0,0-.511-.311-1.482.087-1.925.093.162.181.324.262.492s.523.33.511,0c0-.716-.243-1.812.174-2.491.4.442.94.934,1.532.853.436-.062.654-.417.791-.816a1.084,1.084,0,0,0,1.408-.461,5.792,5.792,0,0,0,.623-2.591,12.58,12.58,0,0,0,.044-1.47,1.008,1.008,0,0,0,.249,0,.174.174,0,0,0,.168-.125,11.086,11.086,0,0,0,.473-2.236,10.315,10.315,0,0,1,1.246,2.348c.075.187.149.374.218.567a1.869,1.869,0,0,0-1.339,1.588,1.987,1.987,0,0,0,1.2,1.756c.81.293,1.14-.585,1.115-1.246A6.566,6.566,0,0,0,238.5,272.315Zm-5.811,1.389a4.485,4.485,0,0,1,.212-2.18c.909.561.511,2.286.355,3.114-.031.156-.056.349-.087.548a3.114,3.114,0,0,1-.48-1.482Zm5.363,1.246c-.33.087-.623-.367-.791-.623-.461-.791.1-1.532.828-1.869a6.341,6.341,0,0,1,.318,1.464C238.424,274.233,238.43,274.85,238.05,274.95Z" transform="translate(-219.633 -256.383)" fill="#455a64"/><path d="M246.539,265.248a11.789,11.789,0,0,0-.8-1.812c-.162-.311-.33-.623-.48-.934s-.262-.585-.411-.86c-.087-.156-.467-.268-.455,0a3.445,3.445,0,0,0,.243.959c.125.318.262.623.4.947a16.9,16.9,0,0,1,.735,1.775c.093.305.125.754.548.722S246.638,265.541,246.539,265.248Z" transform="translate(-226.919 -253.825)" fill="#455a64"/><path d="M249.05,271Z" transform="translate(-228.677 -257.416)" fill="#455a64"/><path d="M249.2,271.527a.622.622,0,0,0-.05-.174.206.206,0,0,0-.037-.062h0a.318.318,0,0,0-.168-.2l-.131-.093-.087-.05a.262.262,0,0,0-.206,0,.143.143,0,0,0-.062.044.187.187,0,0,0-.031.1.3.3,0,0,0,0,.106,1.1,1.1,0,0,0-.056.125q0,.075,0,.149a.312.312,0,0,0,0,.131.411.411,0,0,0,.187.255.878.878,0,0,0,.355.112.287.287,0,0,0,.212-.037l.05-.044a.2.2,0,0,0,.05-.125A.573.573,0,0,0,249.2,271.527Z" transform="translate(-228.42 -257.388)" fill="#455a64"/><path d="M216.353,265.9a4.808,4.808,0,0,1,2.186-3.768,1.5,1.5,0,0,1,1.582-.125h0l1,.592-.4.7v.075a4.783,4.783,0,0,1-2.18,3.768h0l-.448.8L217,267.321h-.037A1.526,1.526,0,0,1,216.353,265.9Z" transform="translate(-216.341 -253.961)" fill="#37474f"/><path d="M222.442,264.387a4.8,4.8,0,0,1-2.186,3.737c-1.2.7-2.186.143-2.186-1.246a4.821,4.821,0,0,1,2.186-3.768C221.465,262.443,222.442,263,222.442,264.387Z" transform="translate(-216.993 -254.334)" fill="#455a64"/></g><path d="M283.327,221.4l33.291-19.227c2.217-1.277,4.017-.43,4.017,1.869a8.528,8.528,0,0,1-4.017,6.527l-33.291,19.221c-2.217,1.283-4.017.436-4.017-1.869A8.507,8.507,0,0,1,283.327,221.4Z" transform="translate(-179.704 -97.241)" fill="#26aab7"/><path d="M202.567,326.328a1.165,1.165,0,0,1-.623-.168l-10.588-6.123a1.246,1.246,0,1,1,1.246-2.155L203.189,324a1.246,1.246,0,0,1-.623,2.323Z" transform="translate(-146.28 -141.034)" fill="#1565c0"/><path d="M192.719,328.3a1.246,1.246,0,0,1-1.09-1.869l9.386-16.979a1.246,1.246,0,0,1,2.18,1.208l-9.386,16.973A1.246,1.246,0,0,1,192.719,328.3Z" transform="translate(-146.572 -137.685)" fill="#1565c0"/><path d="M289.751,265.917a3.419,3.419,0,0,0-1-2.3,4.429,4.429,0,0,0-2.423-1.071,7.624,7.624,0,0,0-3.949.623,10.5,10.5,0,0,0-2.884,1.974c-.386.349-.772.7-1.183,1.015-.218.168.1.511.311.386.934-.548,1.756-1.246,2.666-1.825a8.3,8.3,0,0,1,3.289-1.246c1.588-.23,3.687.212,4.129,1.993a6.677,6.677,0,0,1-.106,2.7,11.478,11.478,0,0,1-.835,2.635,12.581,12.581,0,0,1-3.332,4.36,10.084,10.084,0,0,1-4.279,2.385,6.5,6.5,0,0,1-4.08-.38,3.345,3.345,0,0,1-1.389-1.208,4.179,4.179,0,0,1-.517-2.2,11.143,11.143,0,0,1,1.345-5.363,15.254,15.254,0,0,1,8.477-7.231c.492-.162,1-.305,1.507-.436a.33.33,0,0,0-.125-.623,12.458,12.458,0,0,0-5.873,2.41,16.319,16.319,0,0,0-4.447,4.79,12.488,12.488,0,0,0-1.869,5.855c-.081,1.738.237,3.482,1.756,4.528a6.777,6.777,0,0,0,4.541.953,9.841,9.841,0,0,0,4.759-2.111,14.233,14.233,0,0,0,4.036-4.64A11.629,11.629,0,0,0,289.751,265.917Z" transform="translate(-177.389 -119.315)" fill="#f28f8f"/><path d="M170.23,222.931l1.283,2.722a.2.2,0,0,0,.274.106l2.865-1.1c.3-.112.417.305.2.71l-2.068,3.893a.853.853,0,0,0-.106.492l.486,3.519c.056.367-.262.853-.529.816l-2.56-.318a.411.411,0,0,0-.336.2l-2.566,3.282c-.268.343-.579.218-.529-.212l.492-4.086a.392.392,0,0,0-.106-.367l-2.074-1.495c-.212-.156-.093-.716.206-.947l2.865-2.211a.866.866,0,0,0,.274-.424l1.277-4.2C169.713,222.888,170.1,222.67,170.23,222.931Z" transform="translate(-136.534 -105.254)" fill="#b2ebf2"/><path d="M219.107,193.541l9.729-5.606c.411-.237.747-.069.747.38a1.6,1.6,0,0,1-.747,1.246l-9.729,5.606c-.411.237-.747.069-.747-.38a1.6,1.6,0,0,1,.747-1.246Z" transform="translate(-156.717 -92.057)" fill="#455a64"/><path d="M219.107,200.977l6.708-3.874c.417-.243.747-.075.747.374a1.6,1.6,0,0,1-.747,1.246l-6.708,3.88c-.411.237-.747.069-.747-.38A1.6,1.6,0,0,1,219.107,200.977Z" transform="translate(-156.717 -95.513)" fill="#455a64"/><path d="M274.957,192.811l9.723-5.606c.411-.237.747-.069.747.38a1.607,1.607,0,0,1-.747,1.246l-9.723,5.606c-.417.237-.747.069-.747-.38a1.6,1.6,0,0,1,.747-1.246Z" transform="translate(-177.781 -91.782)" fill="#455a64"/><path d="M274.957,200.279l6.708-3.874c.411-.237.747-.069.747.38a1.6,1.6,0,0,1-.747,1.246l-6.708,3.874c-.417.243-.747.069-.747-.374A1.594,1.594,0,0,1,274.957,200.279Z" transform="translate(-177.781 -95.251)" fill="#455a64"/><path d="M164.417,292.679l9.723-5.606c.417-.243.747-.068.747.374a1.6,1.6,0,0,1-.747,1.246l-9.723,5.606c-.417.243-.747.069-.747-.374A1.6,1.6,0,0,1,164.417,292.679Z" transform="translate(-136.09 -129.446)" fill="#455a64"/><path d="M164.417,300.149l6.708-3.874c.411-.237.747-.069.747.38a1.607,1.607,0,0,1-.747,1.246l-6.708,3.874c-.417.237-.747.069-.747-.38a1.582,1.582,0,0,1,.747-1.246Z" transform="translate(-136.09 -132.918)" fill="#455a64"/><path d="M304.227,248.059l9.723-5.606c.417-.243.747-.069.747.374a1.6,1.6,0,0,1-.747,1.246l-9.723,5.606c-.417.243-.747.069-.747-.374A1.6,1.6,0,0,1,304.227,248.059Z" transform="translate(-188.82 -112.618)" fill="#455a64"/><path d="M304.227,255.529l6.708-3.874c.411-.237.747-.069.747.38a1.607,1.607,0,0,1-.747,1.246l-6.708,3.874c-.417.237-.747.069-.747-.38a1.582,1.582,0,0,1,.747-1.246Z" transform="translate(-188.82 -116.089)" fill="#455a64"/><path d="M215.141,222.023l13.2-7.723L215.06,236.031Z" transform="translate(-155.472 -102.041)" fill="#fb8c00"/><path d="M215.141,222.023l13.2-7.723L215.06,236.031Z" transform="translate(-155.472 -102.041)" opacity="0.3"/><path d="M138.675,236.121l8.184-4.74c.43-.249.785-.075.785.4a1.651,1.651,0,0,1-.779,1.3l-8.19,4.74c-.436.249-.785.069-.785-.4A1.676,1.676,0,0,1,138.675,236.121Z" transform="translate(-126.367 -108.44)" fill="#fb8c00"/><path d="M138.675,242.666l6.035-3.494c.43-.249.785-.075.791.4a1.675,1.675,0,0,1-.785,1.3l-6.042,3.488c-.436.255-.785.075-.785-.392A1.676,1.676,0,0,1,138.675,242.666Z" transform="translate(-126.367 -111.379)" fill="#fb8c00"/><path d="M138.675,272.111l8.184-4.74c.43-.249.785-.075.785.4a1.651,1.651,0,0,1-.779,1.3l-8.19,4.74c-.436.249-.785.075-.785-.4A1.688,1.688,0,0,1,138.675,272.111Z" transform="translate(-126.367 -122.014)" fill="#fb8c00"/><path d="M138.675,278.656l6.035-3.494c.43-.249.785-.075.791.4a1.676,1.676,0,0,1-.785,1.3l-6.042,3.494c-.436.249-.785.068-.785-.4A1.675,1.675,0,0,1,138.675,278.656Z" transform="translate(-126.367 -124.952)" fill="#fb8c00"/><path d="M138.675,308.171l8.184-4.74c.43-.249.785-.075.785.4a1.65,1.65,0,0,1-.779,1.3l-8.19,4.74c-.436.249-.785.068-.785-.4A1.675,1.675,0,0,1,138.675,308.171Z" transform="translate(-126.367 -135.614)" fill="#fb8c00"/><path d="M138.675,314.716l6.035-3.494c.43-.249.785-.075.791.4a1.676,1.676,0,0,1-.785,1.3l-6.042,3.488c-.436.249-.785.075-.785-.392a1.675,1.675,0,0,1,.785-1.3Z" transform="translate(-126.367 -138.552)" fill="#fb8c00"/><path d="M138.675,344.139l8.184-4.74c.43-.255.785-.075.785.392a1.651,1.651,0,0,1-.779,1.308l-8.19,4.74c-.436.249-.785.069-.785-.4A1.676,1.676,0,0,1,138.675,344.139Z" transform="translate(-126.367 -149.179)" fill="#fb8c00"/><path d="M138.675,350.684l6.035-3.494c.43-.255.785-.075.791.4a1.676,1.676,0,0,1-.785,1.3l-6.042,3.488c-.436.249-.785.075-.785-.392a1.675,1.675,0,0,1,.785-1.3Z" transform="translate(-126.367 -152.117)" fill="#fb8c00"/><g transform="translate(11.523 127.68)" opacity="0.4"><path d="M138.675,242.666l6.035-3.494c.43-.249.785-.075.791.4a1.675,1.675,0,0,1-.785,1.3l-6.042,3.488c-.436.255-.785.075-.785-.392A1.676,1.676,0,0,1,138.675,242.666Z" transform="translate(-137.89 -239.058)"/><path d="M138.675,278.656l6.035-3.494c.43-.249.785-.075.791.4a1.676,1.676,0,0,1-.785,1.3l-6.042,3.494c-.436.249-.785.068-.785-.4A1.675,1.675,0,0,1,138.675,278.656Z" transform="translate(-137.89 -252.632)"/><path d="M138.675,314.716l6.035-3.494c.43-.249.785-.075.791.4a1.676,1.676,0,0,1-.785,1.3l-6.042,3.488c-.436.249-.785.075-.785-.392a1.675,1.675,0,0,1,.785-1.3Z" transform="translate(-137.89 -266.232)"/><path d="M138.675,350.684l6.035-3.494c.43-.255.785-.075.791.4a1.676,1.676,0,0,1-.785,1.3l-6.042,3.488c-.436.249-.785.075-.785-.392a1.675,1.675,0,0,1,.785-1.3Z" transform="translate(-137.89 -279.797)"/></g><path d="M352.58,219.08a55.228,55.228,0,0,0-5.244,2.821c-10.862,6.995-19.159,23.126-18.536,36.032.037.747.106,1.457.2,2.149l23.581-13.615Z" transform="translate(-198.357 -103.844)" opacity="0.1"/></g><g transform="translate(213.322 151.978)"><path d="M368.294,227.5h0l-5.388-3.114h-.044c-3.432-1.775-7.972-1.246-12.856,1.869-9.81,6.322-17.3,20.89-16.736,32.544.28,5.811,2.491,9.8,5.9,11.554h0l5.388,3.114h.037c3.395,1.725,7.935,1.246,12.824-1.925,9.81-6.316,17.3-20.89,16.736-32.544C373.913,233.245,371.708,229.259,368.294,227.5Z" transform="translate(-333.242 -223.378)" fill="#37474f"/><path d="M344.349,284.951l-5.145-3h-.031c-3.382-1.763-5.606-5.749-5.892-11.548a36.262,36.262,0,0,1,3.544-16.337l5.388,3.114a36.244,36.244,0,0,0-3.538,16.331C338.943,279.2,341.086,283.132,344.349,284.951Z" transform="translate(-333.245 -234.954)" fill="#263238"/><path d="M360.738,273.478c9.81-6.316,17.3-20.89,16.736-32.544s-8.981-15.982-18.791-9.685-17.328,20.909-16.7,32.562S350.922,279.794,360.738,273.478Z" transform="translate(-336.523 -225.257)" fill="#455a64"/><path d="M354.756,274.894c-5.786.286-6.727-6.228-6.851-9.031-.5-10.277,6.39-23.668,15.042-29.274a13.161,13.161,0,0,1,6.228-2.3c5.786-.28,6.727,6.228,6.851,9.031.5,10.277-6.39,23.668-15.042,29.274A13.08,13.08,0,0,1,354.756,274.894Z" transform="translate(-338.762 -227.488)" fill="#fafafa"/><path d="M371.924,260.239a.784.784,0,0,1-.181,0,.623.623,0,0,1-.424-.623V244.743a.623.623,0,1,1,1.246,0v13.042l6.939-8.913a.618.618,0,1,1,.959.779l-8.06,10.358A.623.623,0,0,1,371.924,260.239Z" transform="translate(-347.602 -231.201)" fill="#37474f"/><path d="M366.422,280.214h-.087a.268.268,0,0,1-.181-.33l3.488-11.766a.268.268,0,0,1,.33-.174.262.262,0,0,1,.181.33l-3.475,11.747A.28.28,0,0,1,366.422,280.214Z" transform="translate(-345.651 -240.182)" fill="#fb8c00"/><path d="M370.808,264.014c1.152-.741,2.143-.23,2.211,1.14a4.771,4.771,0,0,1-1.968,3.83c-1.152.741-2.143.23-2.211-1.14A4.771,4.771,0,0,1,370.808,264.014Z" transform="translate(-346.668 -238.576)" fill="#fb8c00"/></g><g transform="translate(104.372 220.611)"><path d="M159.167,394.071c-3.693,1.869,5.606,8.452,10.246,5.917l80.839-47.336,9.7-10.24a.624.624,0,0,0-.66-1.059l-18.717,5.712Z" transform="translate(-158.32 -336.47)" fill="#e0e0e0"/><path d="M291.58,336.952l17.222-3.376a.536.536,0,0,1,.48.884L297.6,347.69Z" transform="translate(-208.579 -333.571)" fill="#ffa8a7"/><path d="M317.658,334.462a.536.536,0,0,0-.5-.878l-3.363.66h0a2.946,2.946,0,0,1,1.389,2.747v.305Z" transform="translate(-216.956 -333.572)" fill="#263238"/><path d="M194.474,386.584l1.414-.81,1.7-.965L258.7,349.762a7.835,7.835,0,0,0-.48-5.712c-1.246-2.734-3.594-4.9-5.556-5.02l-61.039,35.029-3.251,1.869C190.513,374.831,196.641,385.463,194.474,386.584Z" transform="translate(-169.653 -335.63)" fill="#fb8c00"/><path d="M203.04,402.87l3.114-1.812c.928-.492.4-2.772-.691-5.132-1.433-3.114-4.26-6.166-5.494-5.518l-2.317,1.333-.822.492c1.246-.654,4.061,2.379,5.494,5.518,1.04,2.261,1.57,4.46.779,5.057h0a.212.212,0,0,1-.062.062Z" transform="translate(-172.844 -354.974)" fill="#ebebeb"/><path d="M202.406,403.236c2.155-1.14-4.024-11.784-6.185-10.638l-3.152,1.8c2.161-1.146,8.34,9.5,6.179,10.644Z" transform="translate(-171.426 -355.8)" fill="#fb8c00"/><path d="M194.459,407.776,197.573,406c2.13-1.109-3.737-11.429-6-10.75a.562.562,0,0,0-.131.05l-3.114,1.812C190.5,396.023,196.626,406.655,194.459,407.776Z" transform="translate(-169.638 -356.821)" fill="#ebebeb"/><path d="M272.933,333.9l-.579-.3-12.494,6.851-64.62,37.059c-.118-.193-.218-.206-.3-.069,1.837,2.859,3.226,6.465,2.012,7.094l1.414-.81,1.7-.965,61.108-35.048h0l11.66-13.242A.517.517,0,0,0,272.933,333.9Z" transform="translate(-172.131 -333.582)" opacity="0.15"/><path d="M172.547,416.414l13.2-7.555c.928-.48.417-2.734-.623-5.082-1.426-3.145-4.242-6.228-5.481-5.606h0l-13.323,7.617c-2.628,1.514-.212,7.231,2.722,9.779A3.2,3.2,0,0,0,172.547,416.414Z" transform="translate(-160.912 -357.905)" fill="#f28f8f"/><path d="M173.335,416.914c-.754-2.977-3.164-5.892-5.381-6.521a2.161,2.161,0,0,0-1.974.268c-1.987,1.869.324,7.088,3.114,9.5a3.154,3.154,0,0,0,3.4.872C173.472,420.452,173.851,418.932,173.335,416.914Z" transform="translate(-160.927 -362.497)" opacity="0.1"/></g><g transform="translate(228.207 77.581)"><path d="M448.853,326.072c.411.162.5.959.523,2.529,0,1.19.23,3.27-1.171,3.656s-3.438.125-4.3-1.015c-1.084-1.426-1.806-2.672-3.357-4.416-1.345-1.514-2.809-2.927-3.32-5.014-.461-1.869,0-2.691,1.246-3.208,1.775-.71,4.485,1.8,5.855,2.217C445.514,321.182,448.423,325.9,448.853,326.072Z" transform="translate(-387.278 -184.848)" fill="#263238"/><path d="M452.753,327.821l-.044,1.931a4.721,4.721,0,0,1-4.877,0c-.081-.187-.442-2.772-.442-2.772Z" transform="translate(-391.178 -188.055)" fill="#ffa8a7"/><path d="M417.372,347.977s.511,1.688.779,3.164c.212,1.171.5,3.114.081,3.992s-2.037,1.4-4.5,1.327c-1.6-.05-4.117.978-5.849,1.869a15.981,15.981,0,0,1-7.318.99c-2.192-.305-4.435-1.632-4.771-2.547s.156-1.869,5.388-3.943c.044,0,7.25-2.18,9.816-4.889Z" transform="translate(-371.686 -195.96)" fill="#263238"/><path d="M426.668,344.592s-.037,1.433-.05,2.248-1,2.018-3.5,1.869c-1.756-.1-2.971-.623-2.871-2.043l.05-2.087Z" transform="translate(-380.939 -194.692)" fill="#ffa8a7"/><path d="M441.127,254.91a52.56,52.56,0,0,0-2.049-10.1s.884-8.651,1.4-16.86c.561-8.869,1.078-13.435-.666-26.247,0,0-27.194-2.442-27.935,7.811s.311,36.405.548,40.921.928,8.514,1.694,15.845c.754,7.231,2.952,24.291,2.952,24.291a6.758,6.758,0,0,0,6.372,0s2.491-20.473,2.385-25.68a44.508,44.508,0,0,0-1.719-11.392s.735-8.452,1.383-15.8,1.246-10.869,1.414-14.07l.623-.287s.343,12.706.579,17.222.86,8.857,1.974,17.259c.965,7.287,3.986,22.728,3.986,22.728,3.233,1.869,5.232-.112,5.232-.112S441.844,261.232,441.127,254.91Z" transform="translate(-377.684 -140.711)" fill="#455a64"/><path d="M436.12,233.322s7.026-3.264,10.588-6.272c0,0-3.326,4.472-7.611,6.4,0,0-1.869,15.739-1.869,15.422l-.523-15.571Z" transform="translate(-386.928 -150.366)" fill="#37474f"/><path d="M428.3,141.988l1.059,9.386,8.869-.448-.99-10.956Z" transform="translate(-383.978 -117.523)" fill="#ffa8a7"/><path d="M449.023,148.985c3.3-.156,4.983.343,6.459,3.189s2.068,11.355,2.579,15.739.623,7.474-1.158,7.929-8.832.623-8.832.623Z" transform="translate(-391.435 -120.914)" fill="#455a64"/><path d="M440.831,153.805c-.48-2.628-3.936-5.388-7.169-4.864l-2.192.374c-.392,1.576-4.715,2.566-8.851,1.594-1.246.324-5.35,1.1-6.384,1.439-2.977.984-4.2,3.911-4.665,13.6,0,0,.237,21.943.125,26.315A35.619,35.619,0,0,0,431,194.614c8.9-1.738,10.053-5.388,10.053-5.388l-1.327-10.04S441.909,159.747,440.831,153.805Z" transform="translate(-377.668 -120.882)" fill="#1565c0"/><path d="M427.412,147.232l.069.592a13.254,13.254,0,0,0,5.444,0c2.878-.623,3.463-1.457,3.463-1.457l-.062-.673s.716-.262,1.1.841a13.466,13.466,0,0,1,.417,1.345s.33,2.018-3.058,3.046a10.482,10.482,0,0,1-8.433-.922l-1.327.28s1.146-2.647,1.495-3.183a.891.891,0,0,1,.835-.461Z" transform="translate(-382.741 -119.672)" fill="#455a64"/><g transform="translate(0.699 23.88)"><path d="M364.614,163.055l-.268-.143a1.19,1.19,0,0,1-.5-.5l-5.556-15.627a.3.3,0,0,1,.174-.4l7.362-4.092a.99.99,0,0,1,.679.112l.268.137a1.165,1.165,0,0,1,.5.511l5.556,15.627a.305.305,0,0,1-.174.4l-7.362,4.092A1.065,1.065,0,0,1,364.614,163.055Z" transform="translate(-358.262 -142.271)" fill="#fb8c00"/><path d="M364.614,163.055l-.268-.143a1.19,1.19,0,0,1-.5-.5l-5.556-15.627a.3.3,0,0,1,.174-.4l7.362-4.092a.99.99,0,0,1,.679.112l.268.137a1.165,1.165,0,0,1,.5.511l5.556,15.627a.305.305,0,0,1-.174.4l-7.362,4.092A1.065,1.065,0,0,1,364.614,163.055Z" transform="translate(-358.262 -142.271)" opacity="0.2"/><path d="M365.238,165.762a1.177,1.177,0,0,1-.623-.125l-.268-.143a1.134,1.134,0,0,1-.5-.511l-5.556-15.621a.361.361,0,0,1,0-.243l1.059.554a.324.324,0,0,0,0,.243l5.556,15.621A.33.33,0,0,0,365.238,165.762Z" transform="translate(-358.263 -144.854)" fill="#fb8c00"/><path d="M365.238,165.762a1.177,1.177,0,0,1-.623-.125l-.268-.143a1.134,1.134,0,0,1-.5-.511l-5.556-15.621a.361.361,0,0,1,0-.243l1.059.554a.324.324,0,0,0,0,.243l5.556,15.621A.33.33,0,0,0,365.238,165.762Z" transform="translate(-358.263 -144.854)" opacity="0.4"/><path d="M359.987,147.673l5.562,15.621a.318.318,0,0,0,.392.212l7.362-4.092a.305.305,0,0,0,.174-.4l-5.556-15.627a.318.318,0,0,0-.392-.206l-7.368,4.086a.311.311,0,0,0-.174.4Z" transform="translate(-358.904 -142.61)" fill="#fb8c00"/><path d="M359.987,147.673l5.562,15.621a.318.318,0,0,0,.392.212l7.362-4.092a.305.305,0,0,0,.174-.4l-5.556-15.627a.318.318,0,0,0-.392-.206l-7.368,4.086a.311.311,0,0,0-.174.4Z" transform="translate(-358.904 -142.61)" opacity="0.3"/><path d="M361.54,149.625l6.552-3.631a.274.274,0,0,1,.336.181l4.472,12.594a.268.268,0,0,1-.149.343l-6.527,3.737a.268.268,0,0,1-.336-.174l-4.5-12.681a.268.268,0,0,1,.156-.367Z" transform="translate(-359.43 -143.671)" fill="#fff"/><path d="M365.862,147.237a.212.212,0,0,1,.28.093.193.193,0,0,1-.068.28.218.218,0,0,1-.212-.374Z" transform="translate(-361.098 -144.136)" fill="#263238"/><path d="M365.388,148.171c.367-.193,1-.561,1.352-.76a.131.131,0,0,1,.174.05.125.125,0,0,1-.05.168l-1.358.766a.131.131,0,0,1-.168-.05.118.118,0,0,1,.05-.174Z" transform="translate(-360.923 -144.204)" fill="#263238"/><path d="M364.853,148.932a.125.125,0,0,1,.162.05.118.118,0,0,1-.037.162.125.125,0,0,1-.125-.212Z" transform="translate(-360.731 -144.779)" fill="#263238"/><path d="M375,170.54a.43.43,0,0,1,.523.274.4.4,0,0,1-.237.536.424.424,0,0,1-.529-.274.411.411,0,0,1,.243-.536Z" transform="translate(-364.471 -152.927)" fill="#263238"/><path d="M367.811,151.81l1.065,1.408a.143.143,0,0,0,.162.056l1.314-.567c.137-.062.262.156.212.367l-.492,2.006a.361.361,0,0,0,0,.255l.772,1.819c.081.193,0,.442-.156.424l-1.37-.162a.149.149,0,0,0-.143.1l-.841,1.694c-.087.174-.268.112-.305-.106l-.349-2.111a.286.286,0,0,0-.112-.193l-1.289-.772a.361.361,0,0,1-.037-.492l1.152-1.14a.343.343,0,0,0,.081-.218l.037-2.174C367.537,151.779,367.7,151.66,367.811,151.81Z" transform="translate(-361.241 -145.843)" fill="#fb8c00"/></g><path d="M406.775,154.45c-4.061.349-5.792,1.09-8.838,6.583-3.307,5.967-9.66,16.755-10.47,18.119a7.213,7.213,0,0,0-.361,6.521c.9,1.626,3.737,2.367,7.02-1.308,3.868-4.36,11.062-15.036,11.062-15.036S411.3,161.27,406.775,154.45Z" transform="translate(-368.208 -122.984)" fill="#ffa8a7"/><path d="M377.719,187.556c-3.114-.374-10.377-10.233-12.457-13.453a22.927,22.927,0,0,0-6.3-6.64,4.577,4.577,0,0,1-1.246-1.246,3.263,3.263,0,0,1-.355-1.57,13.5,13.5,0,0,0-.037-2.13,5.217,5.217,0,0,1-.187-1.246c.037-.4.243-.779.311-1.183a7.029,7.029,0,0,0-.05-1.489,1.869,1.869,0,0,1,.193-.965,3.949,3.949,0,0,1,.66-.747,8.482,8.482,0,0,1,1.034-.747l1.071,2.94,1.034,2.815c.392.367,1.053,1.084,1.489.349a1.508,1.508,0,0,0,.168-.623c.075-.716,0-1.451.143-2.155a2.766,2.766,0,0,1,.536-1.246c.187-.224.741-.741,1.046-.473a.573.573,0,0,1,.162.324,8.648,8.648,0,0,1,0,.984c.056.417.206.835.286,1.246a17.794,17.794,0,0,1,.3,2.566,13.159,13.159,0,0,0,.093,1.9,4.31,4.31,0,0,0,.754,2.055c.81,1.159,11.653,11.548,11.653,11.548Z" transform="translate(-357.14 -123.622)" fill="#ffa8a7"/><path d="M403.21,154.106c-2.46-.062-5.413.33-7.7,3.3s-11.448,19.146-11.448,19.146l-5.138-4.609a8.95,8.95,0,0,0-3.949,5.606,55.506,55.506,0,0,0,4.653,6.316c2.174,2.385,4.6,4.036,6.583,3.307s4.011-2.311,8.29-8.265,8.95-12.986,8.95-12.986S406.393,159.021,403.21,154.106Z" transform="translate(-363.865 -122.853)" fill="#455a64"/><path d="M417.07,124.75s-2.211,3.363-1.962,3.693,1.869.623,1.869.623Z" transform="translate(-378.995 -111.783)" fill="#f28f8f"/><path d="M418.337,125.022a2.641,2.641,0,1,1,2.635-2.641A2.641,2.641,0,0,1,418.337,125.022Zm0-4.69a2.055,2.055,0,1,0,2.049,2.049A2.055,2.055,0,0,0,418.337,120.332Z" transform="translate(-379.222 -109.893)" fill="#263238"/><path d="M424.313,109.573c-4.478.94-5.774,2.915-6.191,10.028-.442,7.437.318,9.772,1.289,10.775.66.673,4.36.8,6.172.286,2.317-.623,7.543-2.491,9.966-6.228,2.884-4.4,3.637-10.364.554-12.812C431.793,108.178,426.138,109.187,424.313,109.573Z" transform="translate(-380.091 -105.893)" fill="#ffa8a7"/><path d="M425.486,143.174l-.206-1.364a8.869,8.869,0,0,1-4.59,1.04A10.535,10.535,0,0,0,425.486,143.174Z" transform="translate(-381.108 -118.217)" fill="#f28f8f"/><path d="M416.1,123.1l7.96,1.028-.318.561-7.642-.99Z" transform="translate(-379.377 -111.161)" fill="#263238"/><path d="M416.489,110.558a3.114,3.114,0,0,0,.349,1.981,3.189,3.189,0,0,0,3,1.582c-.206,0,.567,1,.623,1.059a1.607,1.607,0,0,0,1.171.455c.162,1,.087,2.037,1.2,2.491,0,0,.7-2.747,3.021-2.4s2.647,3.32,1.177,5.12-2.822,1.127-2.834,1.115c.131.069.181.947.224,1.109a8.262,8.262,0,0,0,.623,1.507,7.182,7.182,0,0,0,2.1,2.454,6.067,6.067,0,0,0,2.529,1.233,9.884,9.884,0,0,0,2.672-.355,46.887,46.887,0,0,0,5.363-9.393,12.911,12.911,0,0,0,1.289-4.7,6.375,6.375,0,0,0-.853-3.868,4.316,4.316,0,0,0-2.9-1.732,4.621,4.621,0,0,0-2.491-3.426,8.439,8.439,0,0,0-4.273-.847c-1.47.037-2.927.293-4.36.442a47.574,47.574,0,0,1-9.081-.193.5.5,0,0,0-.318.037.511.511,0,0,0-.181.324,3.668,3.668,0,0,0,2.572,4.615A3.033,3.033,0,0,0,416.489,110.558Z" transform="translate(-378.739 -103.931)" fill="#263238"/><path d="M426.951,127.384l.081-3.114a1.558,1.558,0,1,0-.081,3.114Z" transform="translate(-382.897 -111.602)" fill="#263238"/></g></g></svg>