<svg xmlns="http://www.w3.org/2000/svg" width="197" height="55" viewBox="0 0 197 55"><g transform="translate(-702 -15697)"><rect width="197" height="55" rx="18" transform="translate(702 15697)" fill="#26aab7"/><path d="M35.105,16.176V21H31.678V6.781h5.674a6.608,6.608,0,0,1,2.886.6,4.526,4.526,0,0,1,1.943,1.709,4.667,4.667,0,0,1,.688,2.515,4.114,4.114,0,0,1-1.489,3.325,6.179,6.179,0,0,1-4.087,1.245Zm0-2.646h2.246a2.118,2.118,0,0,0,1.519-.5,1.85,1.85,0,0,0,.522-1.406,2.287,2.287,0,0,0-.537-1.592,1.9,1.9,0,0,0-1.465-.605H35.105Zm15.83-.117-1.084-.078a1.947,1.947,0,0,0-1.992.977V21H44.568V10.434h3.086l.107,1.357a2.548,2.548,0,0,1,2.314-1.553,3.209,3.209,0,0,1,.918.117Zm.42,2.207a6.236,6.236,0,0,1,.615-2.817,4.4,4.4,0,0,1,1.768-1.9,5.323,5.323,0,0,1,2.705-.664,4.858,4.858,0,0,1,3.74,1.47,5.64,5.64,0,0,1,1.367,4v.117a5.472,5.472,0,0,1-1.372,3.921,4.871,4.871,0,0,1-3.716,1.45,4.927,4.927,0,0,1-3.623-1.353,5.29,5.29,0,0,1-1.475-3.667Zm3.291.205a3.932,3.932,0,0,0,.459,2.148,1.529,1.529,0,0,0,1.357.684q1.758,0,1.8-2.705v-.332q0-2.842-1.816-2.842-1.65,0-1.787,2.451Zm7.939-.186a6.455,6.455,0,0,1,1.084-3.955A3.568,3.568,0,0,1,66.7,10.238a3.035,3.035,0,0,1,2.383,1.113V6h3.3V21H69.422l-.166-1.133A3.116,3.116,0,0,1,66.678,21.2a3.562,3.562,0,0,1-2.988-1.445A6.659,6.659,0,0,1,62.586,15.639Zm3.291.205q0,2.813,1.641,2.813a1.62,1.62,0,0,0,1.563-.918V13.715a1.576,1.576,0,0,0-1.543-.937q-1.523,0-1.65,2.461Zm14.668,4.014A3.393,3.393,0,0,1,77.723,21.2a3.328,3.328,0,0,1-2.632-1.011,4.251,4.251,0,0,1-.894-2.905V10.434h3.291V17.3a1.183,1.183,0,0,0,1.318,1.357,1.72,1.72,0,0,0,1.611-.811V10.434h3.311V21H80.643ZM90,18.656a1.464,1.464,0,0,0,1.074-.376,1.379,1.379,0,0,0,.371-1.05h3.086a3.653,3.653,0,0,1-1.245,2.852A4.631,4.631,0,0,1,90.076,21.2a4.689,4.689,0,0,1-3.633-1.445,5.7,5.7,0,0,1-1.328-4v-.137a6.436,6.436,0,0,1,.591-2.827,4.3,4.3,0,0,1,1.7-1.885,5.081,5.081,0,0,1,2.637-.659,4.573,4.573,0,0,1,3.271,1.143,4.053,4.053,0,0,1,1.211,3.1H91.443a1.806,1.806,0,0,0-.4-1.26,1.382,1.382,0,0,0-1.074-.439q-1.279,0-1.494,1.631a11.508,11.508,0,0,0-.068,1.426,4.52,4.52,0,0,0,.381,2.207A1.319,1.319,0,0,0,90,18.656Zm10.391,0a1.464,1.464,0,0,0,1.074-.376,1.379,1.379,0,0,0,.371-1.05h3.086a3.653,3.653,0,0,1-1.245,2.852,4.631,4.631,0,0,1-3.208,1.113,4.689,4.689,0,0,1-3.633-1.445,5.7,5.7,0,0,1-1.328-4v-.137a6.436,6.436,0,0,1,.591-2.827A4.3,4.3,0,0,1,97.8,10.9a5.081,5.081,0,0,1,2.637-.659,4.573,4.573,0,0,1,3.271,1.143,4.053,4.053,0,0,1,1.211,3.1h-3.086a1.806,1.806,0,0,0-.4-1.26,1.382,1.382,0,0,0-1.074-.439q-1.279,0-1.494,1.631a11.508,11.508,0,0,0-.068,1.426,4.52,4.52,0,0,0,.381,2.207A1.319,1.319,0,0,0,100.389,18.656ZM109.783,21h-3.3V10.434h3.3Zm-3.5-13.291a1.469,1.469,0,0,1,.508-1.152,2.159,2.159,0,0,1,2.637,0,1.469,1.469,0,0,1,.508,1.152,1.469,1.469,0,0,1-.508,1.152,2.159,2.159,0,0,1-2.637,0A1.469,1.469,0,0,1,106.287,7.709Zm5.107,7.91a6.236,6.236,0,0,1,.615-2.817,4.4,4.4,0,0,1,1.768-1.9,5.323,5.323,0,0,1,2.705-.664,4.858,4.858,0,0,1,3.74,1.47,5.64,5.64,0,0,1,1.367,4v.117a5.472,5.472,0,0,1-1.372,3.921A4.871,4.871,0,0,1,116.5,21.2a4.927,4.927,0,0,1-3.623-1.353,5.29,5.29,0,0,1-1.475-3.667Zm3.291.205a3.932,3.932,0,0,0,.459,2.148,1.529,1.529,0,0,0,1.357.684q1.758,0,1.8-2.705v-.332q0-2.842-1.816-2.842-1.65,0-1.787,2.451ZM116.932,6h3.477l-2.715,3.066-2.686,0Zm9.131,4.434.107,1.24a3.583,3.583,0,0,1,3.018-1.436,3.015,3.015,0,0,1,2.466.986,4.7,4.7,0,0,1,.845,2.969V21h-3.3V14.33a1.783,1.783,0,0,0-.322-1.177,1.491,1.491,0,0,0-1.172-.376,1.569,1.569,0,0,0-1.436.762V21h-3.291V10.434Z" transform="translate(718 15712)" fill="#fff"/></g></svg>