<svg xmlns="http://www.w3.org/2000/svg" xmlns:xlink="http://www.w3.org/1999/xlink" width="414.861" height="315.514" viewBox="0 0 414.861 315.514"><defs><linearGradient id="a" y1="0.5" x2="1" y2="0.5" gradientUnits="objectBoundingBox"><stop offset="0" stop-color="#bbe4ef"/><stop offset="1" stop-color="#33abd4"/></linearGradient><linearGradient id="b" x1="-0.078" x2="1.533" xlink:href="#a"/><linearGradient id="c" x1="0" x2="1" xlink:href="#a"/></defs><g transform="translate(-9.51 -3.436)"><g transform="translate(9.51 3.436)"><path d="M191.441,273.578,49.874,192.271a10.162,10.162,0,0,1,0-17.623L161.512,110.42l169.281,97.224L216.218,273.566a24.872,24.872,0,0,1-24.777.012Z" transform="translate(-3.009 16.288)" fill="#5cb3c4"/><path d="M44.78,173.29v-6.68l3.056.782v7.343Z" transform="translate(-3.007 26.648)" fill="#5cb3c4"/><path d="M288.674,193.447V187.43l-15.444,8.883v6.017Z" transform="translate(39.11 30.486)" fill="#5cb3c4"/><path d="M191.441,268.5,49.874,187.18a10.15,10.15,0,0,1,0-17.611L161.512,105.34l169.281,97.224L216.218,268.486a24.872,24.872,0,0,1-24.777.012Z" transform="translate(-3.009 15.352)" fill="#e7f9ff"/><path d="M224.681,240.087,83.86,159.207l74.864-42.057,140.821,80.88Z" transform="translate(4.197 17.529)" fill="#c0e5f0"/><path d="M86.063,160.474l-2.2-1.267,74.864-42.057,140.821,80.88-2.215,1.244L158.724,119.661Z" transform="translate(4.197 17.529)" fill="#9bc8d3"/><path d="M256.845,185.5l-6.206,3.648-6.289-3.541,6.206-3.636Z" transform="translate(33.786 29.48)" fill="#71a5dc"/><path d="M250.085,181.609l-6.206,3.648-6.289-3.541,6.206-3.636Z" transform="translate(32.54 28.762)" fill="#71a5dc"/><path d="M243.325,177.719l-6.206,3.636-6.289-3.529,6.206-3.636Z" transform="translate(31.293 28.045)" fill="#71a5dc"/><path d="M236.565,173.831l-6.206,3.636-6.289-3.529,6.206-3.648Z" transform="translate(30.047 27.326)" fill="#71a5dc"/><path d="M229.805,169.941l-6.206,3.636-6.289-3.541,6.206-3.636Z" transform="translate(28.801 26.609)" fill="#71a5dc"/><path d="M223.045,166.051l-6.206,3.636-6.289-3.541,6.206-3.636Z" transform="translate(27.555 25.892)" fill="#71a5dc"/><path d="M216.285,162.149l-6.206,3.648-6.289-3.541L210,158.62Z" transform="translate(26.308 25.175)" fill="#71a5dc"/><path d="M209.525,158.259l-6.206,3.636-6.289-3.529,6.206-3.636Z" transform="translate(25.062 24.457)" fill="#71a5dc"/><path d="M201.535,154.029l-6.218,3.648-6.277-3.541,6.206-3.636Z" transform="translate(23.589 23.678)" fill="#71a5dc"/><path d="M194.763,150.141l-6.206,3.636-6.277-3.529,6.194-3.648Z" transform="translate(22.343 22.959)" fill="#71a5dc"/><path d="M188.005,146.251l-6.206,3.636-6.289-3.529,6.206-3.648Z" transform="translate(21.094 22.241)" fill="#71a5dc"/><path d="M181.245,142.361,175.039,146l-6.289-3.529,6.206-3.648Z" transform="translate(19.848 21.524)" fill="#71a5dc"/><path d="M174.485,138.459l-6.206,3.648-6.289-3.541,6.206-3.636Z" transform="translate(18.602 20.807)" fill="#71a5dc"/><path d="M167.725,134.569l-6.206,3.648-6.289-3.541,6.206-3.636Z" transform="translate(17.356 20.09)" fill="#71a5dc"/><path d="M160.965,130.679l-6.206,3.648-6.289-3.541,6.206-3.636Z" transform="translate(16.109 19.373)" fill="#71a5dc"/><path d="M154.205,126.791,148,130.427,141.71,126.9l6.206-3.648Z" transform="translate(14.863 18.654)" fill="#71a5dc"/><path d="M247.045,191.129l-6.206,3.648-6.289-3.541,6.206-3.636Z" transform="translate(31.979 30.517)" fill="#71a5dc"/><path d="M240.285,187.239l-6.206,3.648-6.289-3.541L234,183.71Z" transform="translate(30.733 29.8)" fill="#71a5dc"/><path d="M233.513,183.351l-6.194,3.636-6.289-3.529,6.206-3.648Z" transform="translate(29.487 29.081)" fill="#71a5dc"/><path d="M226.755,179.461l-6.206,3.636-6.289-3.529,6.206-3.648Z" transform="translate(28.239 28.364)" fill="#71a5dc"/><path d="M220,175.571l-6.206,3.636-6.289-3.529,6.218-3.648Z" transform="translate(26.992 27.647)" fill="#71a5dc"/><path d="M213.235,171.681l-6.206,3.636-6.289-3.541,6.206-3.636Z" transform="translate(25.746 26.93)" fill="#71a5dc"/><path d="M206.475,167.779l-6.206,3.648-6.289-3.541,6.206-3.636Z" transform="translate(24.5 26.213)" fill="#71a5dc"/><path d="M199.715,163.889l-6.206,3.648L187.22,164l6.206-3.636Z" transform="translate(23.253 25.495)" fill="#71a5dc"/><path d="M191.725,159.659l-6.206,3.648-6.289-3.541,6.206-3.636Z" transform="translate(21.78 24.716)" fill="#71a5dc"/><path d="M184.965,155.769l-6.206,3.636-6.289-3.529,6.206-3.636Z" transform="translate(20.534 23.998)" fill="#71a5dc"/><path d="M178.205,151.881,172,155.517l-6.289-3.529,6.206-3.648Z" transform="translate(19.288 23.279)" fill="#71a5dc"/><path d="M171.445,147.991l-6.218,3.636L158.95,148.1l6.206-3.648Z" transform="translate(18.041 22.562)" fill="#71a5dc"/><path d="M164.685,144.089l-6.218,3.648L152.19,144.2l6.206-3.636Z" transform="translate(16.795 21.845)" fill="#71a5dc"/><path d="M157.915,140.2l-6.206,3.648-6.289-3.541,6.206-3.636Z" transform="translate(15.547 21.128)" fill="#71a5dc"/><path d="M151.155,136.309l-6.206,3.648-6.289-3.541,6.206-3.636Z" transform="translate(14.301 20.411)" fill="#71a5dc"/><path d="M144.4,132.421l-6.206,3.636-6.289-3.529,6.206-3.648Z" transform="translate(13.054 19.692)" fill="#71a5dc"/><path d="M237.235,196.759l-6.206,3.648-6.289-3.541,6.206-3.636Z" transform="translate(30.171 31.555)" fill="#71a5dc"/><path d="M230.475,192.869l-6.206,3.648-6.289-3.541,6.206-3.636Z" transform="translate(28.924 30.838)" fill="#71a5dc"/><path d="M223.715,188.979l-6.206,3.636-6.289-3.529,6.206-3.636Z" transform="translate(27.678 30.121)" fill="#71a5dc"/><path d="M216.955,185.091l-6.206,3.636L204.46,185.2l6.206-3.648Z" transform="translate(26.432 29.402)" fill="#71a5dc"/><path d="M210.2,181.2l-6.206,3.636-6.289-3.529,6.206-3.648Z" transform="translate(25.185 28.685)" fill="#71a5dc"/><path d="M203.435,177.311l-6.206,3.636-6.289-3.541,6.206-3.636Z" transform="translate(23.939 27.968)" fill="#71a5dc"/><path d="M196.663,173.409l-6.206,3.648-6.277-3.541,6.194-3.636Z" transform="translate(22.693 27.251)" fill="#71a5dc"/><path d="M189.905,169.519l-6.206,3.648-6.289-3.541,6.218-3.636Z" transform="translate(21.445 26.533)" fill="#71a5dc"/><path d="M181.915,165.289l-6.206,3.648L169.42,165.4l6.206-3.636Z" transform="translate(19.972 25.754)" fill="#71a5dc"/><path d="M175.155,161.4l-6.206,3.648-6.289-3.541,6.206-3.636Z" transform="translate(18.725 25.036)" fill="#71a5dc"/><path d="M168.4,157.511l-6.206,3.636-6.289-3.529,6.206-3.648Z" transform="translate(17.479 24.317)" fill="#71a5dc"/><path d="M161.635,153.621l-6.206,3.636-6.289-3.529,6.206-3.648Z" transform="translate(16.233 23.6)" fill="#71a5dc"/><path d="M154.875,149.731l-6.206,3.636-6.289-3.541,6.206-3.636Z" transform="translate(14.986 22.883)" fill="#71a5dc"/><path d="M148.115,145.829l-6.206,3.648-6.289-3.541,6.206-3.636Z" transform="translate(13.74 22.166)" fill="#71a5dc"/><path d="M141.355,141.939l-6.218,3.648-6.277-3.541,6.206-3.636Z" transform="translate(12.494 21.449)" fill="#71a5dc"/><path d="M134.6,138.051l-6.218,3.636-6.289-3.529,6.206-3.648Z" transform="translate(11.246 20.73)" fill="#71a5dc"/><path d="M227.808,203.564,221.6,207.2l-14.852-8.622,6.206-3.648Z" transform="translate(26.854 31.869)" fill="#71a5dc"/><path d="M212.955,194.991l-6.206,3.636L200.46,195.1l6.206-3.648Z" transform="translate(25.694 31.227)" fill="#71a5dc"/><path d="M206.2,191.1l-6.206,3.636L193.7,191.2l6.206-3.636Z" transform="translate(24.448 30.51)" fill="#71a5dc"/><path d="M199.435,187.2l-6.206,3.648-6.289-3.541,6.206-3.636Z" transform="translate(23.202 29.793)" fill="#71a5dc"/><path d="M192.675,183.309l-6.206,3.648-6.289-3.541,6.206-3.636Z" transform="translate(21.955 29.076)" fill="#71a5dc"/><path d="M185.915,179.421l-6.206,3.636-6.289-3.529,6.206-3.648Z" transform="translate(20.709 28.357)" fill="#71a5dc"/><path d="M179.155,175.531l-6.206,3.636-6.289-3.529,6.206-3.648Z" transform="translate(19.463 27.64)" fill="#71a5dc"/><path d="M171.155,171.3l-6.206,3.636-6.289-3.529,6.206-3.648Z" transform="translate(17.988 26.86)" fill="#71a5dc"/><path d="M164.4,167.411l-6.206,3.636-6.289-3.529,6.206-3.648Z" transform="translate(16.742 26.143)" fill="#71a5dc"/><path d="M157.635,163.521l-6.206,3.636-6.289-3.529,6.206-3.648Z" transform="translate(15.495 25.425)" fill="#71a5dc"/><path d="M150.875,159.619l-6.206,3.648-6.289-3.541,6.206-3.636Z" transform="translate(14.249 24.708)" fill="#71a5dc"/><path d="M144.115,155.729l-6.206,3.648-6.289-3.541,6.206-3.636Z" transform="translate(13.003 23.991)" fill="#71a5dc"/><path d="M139.2,153.027l-6.206,3.636-21.65-12.5,6.206-3.648Z" transform="translate(9.264 21.838)" fill="#71a5dc"/><path d="M215.715,208.781l-6.206,3.636-6.289-3.529,6.206-3.648Z" transform="translate(26.203 33.77)" fill="#71a5dc"/><path d="M208.955,204.891l-6.206,3.636L196.46,205l6.206-3.648Z" transform="translate(24.957 33.052)" fill="#71a5dc"/><path d="M202.2,200.989l-6.206,3.648L189.7,201.1l6.206-3.636Z" transform="translate(23.711 32.335)" fill="#71a5dc"/><path d="M195.435,197.1l-6.206,3.648-6.289-3.541,6.206-3.636Z" transform="translate(22.464 31.618)" fill="#71a5dc"/><path d="M188.675,193.209l-6.206,3.648-6.289-3.541,6.206-3.636Z" transform="translate(21.218 30.901)" fill="#71a5dc"/><path d="M187.642,192.683l-6.206,3.636L134.18,169.446l6.206-3.636Z" transform="translate(13.475 26.5)" fill="#71a5dc"/><path d="M140.115,165.631l-6.206,3.648-6.289-3.541,6.206-3.648Z" transform="translate(12.265 25.814)" fill="#71a5dc"/><path d="M133.355,161.741l-6.206,3.636-6.289-3.529,6.206-3.648Z" transform="translate(11.019 25.097)" fill="#71a5dc"/><path d="M126.6,157.851l-6.206,3.636-6.289-3.529,6.206-3.648Z" transform="translate(9.773 24.38)" fill="#71a5dc"/><path d="M119.835,153.961l-6.206,3.636-6.289-3.541,6.206-3.636Z" transform="translate(8.526 23.663)" fill="#71a5dc"/><path d="M113.075,150.059l-6.206,3.648-6.289-3.541,6.206-3.636Z" transform="translate(7.28 22.946)" fill="#71a5dc"/><path d="M161.263,204.54l-22.148,12.791-44.3-25.452,22.148-12.649Z" transform="translate(6.218 28.974)" fill="#c0e5f0"/><path d="M96.028,192.578l-1.208-.7,22.148-12.649,44.3,25.31-1.4.805-43.087-24.623Z" transform="translate(6.218 28.974)" fill="#9bc8d3"/><path d="M318.32,209.354l56.648-108.132a13.028,13.028,0,0,0-5.732-17.765L211.265,4.8a13.028,13.028,0,0,0-17.694,6.325L147.606,113.362a13.028,13.028,0,0,0,5.389,16.581l145.7,83.794,1.611.924a13.028,13.028,0,0,0,18.014-5.306Z" transform="translate(15.742 -3.436)" fill="#020d31"/><path d="M148.753,95.16l-.569,1.291-4.844,10.766,11.974,6.881" transform="translate(15.163 13.475)" fill="#020d31"/><path d="M153.45,120.9,203.383,11.32l161.18,79.305L303.379,205.887Z" transform="translate(17.027 -1.982)" fill="url(#a)"/><rect width="50.324" height="21.97" transform="matrix(0.494, -0.869, 0.869, 0.494, 216.884, 122.676)" fill="#1f76b7"/><rect width="35.945" height="21.97" transform="matrix(0.494, -0.869, 0.869, 0.494, 239.288, 135.408)" fill="#1f76b7"/><rect width="23.96" height="21.97" transform="matrix(0.494, -0.869, 0.869, 0.494, 261.68, 148.144)" fill="#1f76b7"/><path d="M248.967,61.073l-7.829-.5c-4.536,38.788,31.054,55.476,31.054,55.476-37.177-11.595-40.363-36.194-40.647-54.836l-8.066.189L236.769,45.06Z" transform="translate(29.938 4.238)" fill="#1f76b7"/><rect width="3.991" height="82.669" transform="matrix(0.494, -0.869, 0.869, 0.494, 209.077, 126.75)" fill="#1f76b7"/><path d="M197.291,11.32l-10.8,23.687c30.557,23.166,103.8,82.278,118.057,157.177L358.471,90.625Z" transform="translate(23.119 -1.982)" fill="url(#b)"/><path d="M90.53,64.978l10.565,6.1,10.553-6.1L101.095,58.89Z" transform="translate(5.427 6.788)" fill="#4299ce"/><path d="M101.095,70.129V160.6l-10.565-6.04V64.03Z" transform="translate(5.427 7.736)" fill="#12567f"/><path d="M110,64.03v90.533L99.45,160.6V70.129Z" transform="translate(7.072 7.736)" fill="#1f76b7"/><path d="M106.17,78.858l10.553,6.1,10.553-6.1L116.723,72.77Z" transform="translate(8.311 9.347)" fill="#4299ce"/><path d="M116.723,84.009v84.67l-10.553-6.028V77.91Z" transform="translate(8.311 10.295)" fill="#196084"/><path d="M125.633,77.91v84.741L115.08,168.68V84.009Z" transform="translate(9.953 10.295)" fill="#1f76b7"/><path d="M121.81,93.308l10.553,6.1,10.553-6.1L132.363,87.22Z" transform="translate(11.194 12.011)" fill="#9693d1"/><path d="M132.363,98.459V176.4l-10.553-6.028V92.36Z" transform="translate(11.194 12.959)" fill="#8780c2"/><path d="M141.273,92.36v78.014L130.72,176.4V98.459Z" transform="translate(12.837 12.959)" fill="#5a5a84"/><path d="M137.44,107.788,148,113.875l10.553-6.088L148,101.7Z" transform="translate(14.076 14.681)" fill="#fce9a1"/><path d="M148,112.928v71.393l-10.565-6.028V106.84Z" transform="translate(14.076 15.628)" fill="#da9429"/><path d="M156.913,106.84v71.453l-10.553,6.028V112.928Z" transform="translate(15.72 15.628)" fill="#fcd14a"/><path d="M153.08,124.568l10.553,6.1,10.553-6.1-10.553-6.088Z" transform="translate(16.959 17.774)" fill="#4299ce"/><path d="M163.633,129.719v62.167l-10.553-6.028V123.62Z" transform="translate(16.959 18.722)" fill="#12567f"/><path d="M172.543,123.62v62.238l-10.553,6.028V129.719Z" transform="translate(18.602 18.722)" fill="#1f76b7"/><path d="M168.72,139.218l10.553,6.088,10.553-6.088-10.553-6.088Z" transform="translate(19.843 20.475)" fill="#4299ce"/><path d="M179.273,144.358v55.428l-10.553-6.04V138.27Z" transform="translate(19.843 21.423)" fill="#196084"/><path d="M188.183,138.27v55.476l-10.553,6.04V144.358Z" transform="translate(21.485 21.423)" fill="#1f76b7"/><path d="M184.35,155.239l10.565,6.088,10.553-6.088-10.553-6.1Z" transform="translate(22.724 23.427)" fill="#9693d1"/><path d="M194.915,160.378V207.35l-10.565-6.028V154.29Z" transform="translate(22.724 24.376)" fill="#8780c2"/><path d="M203.823,154.29v47.031L193.27,207.35V160.378Z" transform="translate(24.369 24.376)" fill="#5a5a84"/><path d="M199.99,171.528l10.553,6.1,10.553-6.1-10.553-6.088Z" transform="translate(25.608 26.432)" fill="#fce9a1"/><path d="M210.543,176.679v38.03l-10.553-6.028v-38.1Z" transform="translate(25.608 27.38)" fill="#da9429"/><path d="M219.453,170.58v38.1L208.9,214.709v-38.03Z" transform="translate(27.25 27.38)" fill="#fcd14a"/><path d="M215.63,188.009l10.553,6.088,10.553-6.088-10.553-6.1Z" transform="translate(28.491 29.468)" fill="#4299ce"/><path d="M226.183,193.148v29.408l-10.553-6.028V187.06Z" transform="translate(28.491 30.418)" fill="#12567f"/><path d="M235.093,187.06v29.467l-10.553,6.028V193.148Z" transform="translate(30.134 30.418)" fill="#1f76b7"/><path d="M253.475,237.328l-68.03-39.214a5.413,5.413,0,0,0-8.125,4.737v32.807a5.436,5.436,0,0,0,2.712,4.737l43.975,25.393-5.792,11.429,18.831-3.908,11.015,6.36a5.413,5.413,0,0,0,8.125-4.737V242.018A5.4,5.4,0,0,0,253.475,237.328Z" transform="translate(21.428 32.321)" fill="#12567f"/><path d="M174.52,201.213l7.106-3.553s3.885,3.02,3.766,3.1S174.52,201.213,174.52,201.213Z" transform="translate(20.912 32.372)" fill="#12567f"/><path d="M236.6,270.042l5.507-2.783-4.583-1.6Z" transform="translate(32.357 44.909)" fill="#12567f"/><path d="M248.735,239.721l-68.042-39.179a5.413,5.413,0,0,0-8.113,4.737v32.8a5.4,5.4,0,0,0,2.7,4.737l43.987,25.31-5.792,11.441,18.82-3.908,11.026,6.36a5.413,5.413,0,0,0,8.125-4.737V244.411A5.436,5.436,0,0,0,248.735,239.721Z" transform="translate(20.554 32.771)" fill="#1f76b7"/><path d="M211.472,48.229,152.964,14.545A4.655,4.655,0,0,0,146,18.584v28.2a4.737,4.737,0,0,0,2.369,4.039L186.2,72.65l-4.986,9.842,16.131-3.34,9.475,5.46a4.655,4.655,0,0,0,6.988-4.027V52.267a4.655,4.655,0,0,0-2.333-4.039Z" transform="translate(15.654 -1.501)" fill="#12567f"/><path d="M143.58,17.188l6.064-3.068S153,16.7,152.889,16.773,143.58,17.188,143.58,17.188Z" transform="translate(15.208 -1.466)" fill="#12567f"/><path d="M196.96,76.376l4.737-2.4-3.944-1.362Z" transform="translate(25.049 9.317)" fill="#12567f"/><path d="M207.393,50.349,148.886,16.607a4.655,4.655,0,0,0-6.976,4.039V48.857a4.655,4.655,0,0,0,2.369,4.027l37.769,21.84-4.974,9.83,16.19-3.411,9.475,5.472a4.666,4.666,0,0,0,6.988-4.039V54.34A4.655,4.655,0,0,0,207.393,50.349Z" transform="translate(14.9 -1.122)" fill="#1f76b7"/><path d="M172.164,33.5c-5.756-2.369-10.434.462-10.434,6.206a16.439,16.439,0,0,0,5.057,10.932l.308,7.84a3.139,3.139,0,0,0,1.575,2.369,6.1,6.1,0,0,0,3.553,3.127c1.729.7,3.186.568,3.553-.261a1.184,1.184,0,0,0,1.67-1.042l.272-7.687c2.925-.663,4.868-3.139,4.868-6.846C182.587,42.383,177.908,35.822,172.164,33.5Zm3.553,28.863h0L168.8,59.592h0l7.023,1.48Zm.071-2.049-7.106-1.492v-.995l7.106,1.516Zm0-1.646-7.2-1.516v-.995l7.272,1.54ZM177.482,47.2l-3.139,4.358-.178,4.666,1.682.675v.13l-7.319-1.552V53.931l1.516.616-.178-4.82-3.079-6.893a.391.391,0,0,1,.059-.415h.071a.355.355,0,0,1,.189,0l10.055,4.062h.107a.77.77,0,0,1,.178.118c.154.213.225.462.118.6Z" transform="translate(18.554 1.952)" fill="#fff"/><path d="M172.768,49.47a.213.213,0,0,1,0-.154l2.049-2.842h0l.237-.32.616-.841-8.93-3.553.6,1.338h0l.237.5h0l2.049,4.512a.331.331,0,0,1,0,.178l.19,4.939,2.689,1.09Z" transform="translate(19.478 3.63)" fill="#fff"/><path d="M200.444,222.925a7.4,7.4,0,0,0-1.184,1.326,25.619,25.619,0,0,0,3.66,3.068,2.859,2.859,0,0,1,.13-.616,11.714,11.714,0,0,1,1.895-4.572,3.553,3.553,0,0,1,.9-.841,6.917,6.917,0,0,0-1.978,0A6.538,6.538,0,0,0,200.444,222.925Z" transform="translate(25.473 36.716)" fill="#fff"/><path d="M202.986,227.36a32.7,32.7,0,0,0-.426,5.188l9.771,3.956a41.45,41.45,0,0,0-.426-5.543,20.7,20.7,0,0,1-4.465-1.279A25.678,25.678,0,0,1,202.986,227.36Z" transform="translate(26.081 37.848)" fill="#fff"/><path d="M207.3,239.143a27.1,27.1,0,0,1,4.607,2.369,32.429,32.429,0,0,0,.426-5.176l-9.771-3.956a40.352,40.352,0,0,0,.415,5.46,21.389,21.389,0,0,1,4.323,1.3Z" transform="translate(26.081 38.773)" fill="#fff"/><path d="M197.57,230.75l5.1,2.061a33.614,33.614,0,0,1,.462-5.389,28.775,28.775,0,0,1-3.091-2.463l-.782-.758a13.194,13.194,0,0,0-1.694,6.55Z" transform="translate(25.161 37.265)" fill="#fff"/><path d="M199.256,238.213a13.253,13.253,0,0,1,3.9-.071,43.363,43.363,0,0,1-.438-5.661l-5.1-2.061a22.5,22.5,0,0,0,1.646,7.793Z" transform="translate(25.169 38.412)" fill="#fff"/><path d="M208.231,222.392a2.724,2.724,0,0,0-.876-.592,1.552,1.552,0,0,0-.865-.107,1.99,1.99,0,0,0-.888.4,5.816,5.816,0,0,0-1.611,2.369,17.542,17.542,0,0,0-.971,3.328,27.42,27.42,0,0,0,4.335,2.262A20.263,20.263,0,0,0,211.7,231.3l-.142-.782a24.318,24.318,0,0,0-1.8-5.815,8.29,8.29,0,0,0-1.528-2.309Z" transform="translate(26.166 36.799)" fill="#fff"/><path d="M203.164,238.513a24.315,24.315,0,0,0,1.8,5.815,8.291,8.291,0,0,0,1.528,2.286,2.819,2.819,0,0,0,.865.592,1.61,1.61,0,0,0,.876.107,1.989,1.989,0,0,0,.888-.4,5.815,5.815,0,0,0,1.611-2.369,17.765,17.765,0,0,0,.971-3.328,26.173,26.173,0,0,0-4.489-2.369,19.457,19.457,0,0,0-4.2-1.184C203.057,237.944,203.1,238.228,203.164,238.513Z" transform="translate(26.164 39.747)" fill="#fff"/><path d="M200.147,240.235a23.175,23.175,0,0,1-1.267-2.475,7.345,7.345,0,0,0-1.409.509,26.055,26.055,0,0,0,6.7,7l-.343-.308A21.862,21.862,0,0,1,200.147,240.235Z" transform="translate(25.143 39.765)" fill="#fff"/><path d="M209.428,246.318a3.671,3.671,0,0,1-.888.841,6.833,6.833,0,0,0,1.966,0,6.467,6.467,0,0,0,3.435-1.634,7.236,7.236,0,0,0,1.184-1.3,26.447,26.447,0,0,0-3.648-3.091,2.859,2.859,0,0,1-.13.616A11.844,11.844,0,0,1,209.428,246.318Z" transform="translate(27.184 40.386)" fill="#fff"/><path d="M198.274,222.966l.64.722a7.224,7.224,0,0,1,4.9-3.115,1.61,1.61,0,0,1,.344,0,9.617,9.617,0,0,0-6.621,1.516C197.777,222.362,198.014,222.67,198.274,222.966Z" transform="translate(25.156 36.58)" fill="#fff"/><path d="M197.59,239.14l.7-.3a8.7,8.7,0,0,1,.841-.249,23.439,23.439,0,0,1-1.777-8.291l-2.973-1.184a20.833,20.833,0,0,0,3.21,10.02Z" transform="translate(24.573 38.172)" fill="#fff"/><path d="M210.587,223.7a21.864,21.864,0,0,1,3.683,4.737,23.215,23.215,0,0,1,1.184,2.369,8,8,0,0,0,1.386-.521,26.293,26.293,0,0,0-6.621-6.869Z" transform="translate(27.494 37.121)" fill="#fff"/><path d="M202.925,237.573a13.4,13.4,0,0,0-3,0,6.608,6.608,0,0,0-.7.107,21.449,21.449,0,0,0,4.666,6.81,14.614,14.614,0,0,0,1.978,1.6l-.178-.261a17.091,17.091,0,0,1-1.753-3.956A31.468,31.468,0,0,1,202.925,237.573Z" transform="translate(25.468 39.715)" fill="#fff"/><path d="M214.94,230.368a23.237,23.237,0,0,1,1.812,8.4l2.985,1.184a20.928,20.928,0,0,0-3.293-10.15,7.267,7.267,0,0,1-.758.32A6.876,6.876,0,0,1,214.94,230.368Z" transform="translate(28.364 38.298)" fill="#fff"/><path d="M216.41,246.777a9.688,9.688,0,0,0,3.328-7.533l-2.973-1.184a13.609,13.609,0,0,1-1.836,6.952A22.908,22.908,0,0,1,216.41,246.777Z" transform="translate(28.362 39.82)" fill="#fff"/><path d="M197.353,230.815a13.668,13.668,0,0,1,1.824-6.929c-.545-.58-1.042-1.184-1.516-1.777a9.688,9.688,0,0,0-3.281,7.5Z" transform="translate(24.573 36.88)" fill="#fff"/><path d="M214.037,243.793c.32.284.628.58.912.876a13.028,13.028,0,0,0,1.717-6.573l-5.1-2.1a33.611,33.611,0,0,1-.462,5.389,25.935,25.935,0,0,1,2.937,2.4Z" transform="translate(27.656 39.441)" fill="#fff"/><path d="M210.583,247.427h-.343a9.617,9.617,0,0,0,6.573-1.5c-.261-.343-.533-.687-.829-1.03s-.343-.4-.521-.592A7.213,7.213,0,0,1,210.583,247.427Z" transform="translate(27.497 40.971)" fill="#fff"/><path d="M208.53,222.77l.178.261a17.091,17.091,0,0,1,1.753,3.956,32.816,32.816,0,0,1,.995,4.181,12.331,12.331,0,0,0,2.878,0,4.422,4.422,0,0,0,.794-.118,21.651,21.651,0,0,0-4.619-6.692,14.617,14.617,0,0,0-1.978-1.587Z" transform="translate(27.182 37.002)" fill="#fff"/><path d="M211.562,236.261l5.1,2.061a22.609,22.609,0,0,0-1.694-7.912,12.674,12.674,0,0,1-3.873.095A40.9,40.9,0,0,1,211.562,236.261Z" transform="translate(27.656 38.41)" fill="#fff"/><path d="M367.11,91.909l-60.4-31.421a4.737,4.737,0,0,0-6.857,4.37l1.184,28.425a4.737,4.737,0,0,0,2.546,3.944l39.084,20.359-4.6,10.114,16.167-4.074,9.747,5.069a4.737,4.737,0,0,0,6.857-4.37L369.657,95.9A4.737,4.737,0,0,0,367.11,91.909Z" transform="translate(44.018 6.99)" fill="#5a5a84"/><path d="M297.41,63.52l5.922-3.34s3.47,2.463,3.375,2.535S297.41,63.52,297.41,63.52Z" transform="translate(43.568 7.026)" fill="#5a5a84"/><path d="M353.7,120.845l4.666-2.617-4.027-1.208Z" transform="translate(53.946 17.505)" fill="#5a5a84"/><path d="M363.09,94.157l-60.4-31.409a4.737,4.737,0,0,0-6.857,4.358l1.184,28.425a4.737,4.737,0,0,0,2.57,3.944l39.084,20.371-4.6,10.114,16.107-4.051,9.783,5.1a4.737,4.737,0,0,0,6.857-4.358l-1.184-28.5a4.737,4.737,0,0,0-2.546-4Z" transform="translate(43.277 7.407)" fill="#8780c2"/><path d="M334.1,88.289a5.922,5.922,0,0,1-3.707-.545,3.364,3.364,0,0,0,3.553-1.611c.059-.13-.45-.6-.628-.758s-.355-.166-.415,0a2.748,2.748,0,0,1-2.369,1.705,8.86,8.86,0,0,0,1.267-5.1l-7.272-3.636-7.592-3.79a18.95,18.95,0,0,0,2.76,8.373l9.972,4.986h0a8.692,8.692,0,0,0,1.5.948,6.716,6.716,0,0,0,3.47.758c.154,0,0-.734-.095-.936a.557.557,0,0,0-.45-.391Z" transform="translate(47.169 9.675)" fill="#fff"/><path d="M330.675,87.232H330.6L320.537,82.21h-.059c-5.034-.568-8.445,2.487-8.2,8.2.308,7.461,6.538,11.2,14.212,15.018s13.8,6.265,13.478-1.184C339.7,98.46,335.875,91.78,330.675,87.232Zm-.794,11.595c-.095,1.563-1.469,1.848-2.736,1.315l.083,1.729-1.705-.853V99.431a14.329,14.329,0,0,1-3.079-2.286L323,95.511a14.4,14.4,0,0,0,1.694,1.421c.9.628,2.44,1.35,2.594.628s-.391-1.279-1.5-2.144-3.079-2.7-3.316-4.24.426-2.535,2.594-1.895l-.083-1.67,1.705.853.059,1.469a13.358,13.358,0,0,1,2.428,1.741l-.332,1.587a15.932,15.932,0,0,0-2.854-1.812c-1.184-.5-1.184.592-.32,1.492s2.369,2.191,2.842,2.653a4.584,4.584,0,0,1,1.374,3.233Z" transform="translate(46.308 11.075)" fill="#fff"/><path d="M9.51,233.126v4.655l34.737,19.613L113.7,217.943V213.75Z" transform="translate(-9.51 35.339)" fill="#5cb3c4"/><path d="M9.51,236.214l34.737,20.075L113.7,216.838,78.973,197Z" transform="translate(-9.51 32.251)" fill="#e7f9ff"/><path d="M19.2,232.366l28.887,16.7,57.773-32.807-28.887-16.5Z" transform="translate(-7.724 32.759)" fill="url(#c)"/><path d="M29.329,235.269c0,.782-.9,1.421-2.025,1.421s-2.013-.64-2.013-1.421.9-1.409,2.013-1.409S29.329,234.488,29.329,235.269Z" transform="translate(-6.601 39.046)" fill="#5cb3c4"/><path d="M93.654,193.2,36.7,160.394a4.536,4.536,0,0,0-6.8,3.932v27.465a4.56,4.56,0,0,0,2.262,3.932l36.822,21.319-4.844,9.57L79.9,223.343l9.226,5.318a4.524,4.524,0,0,0,6.8-3.92V197.18a4.524,4.524,0,0,0-2.274-3.979Z" transform="translate(-5.751 25.39)" fill="#fcd14a"/><path d="M27.55,163l5.922-2.985s3.257,2.523,3.15,2.594S27.55,163,27.55,163Z" transform="translate(-6.184 25.433)" fill="#fcd14a"/><path d="M79.53,220.642l4.607-2.333L80.3,216.97Z" transform="translate(3.399 35.932)" fill="#fcd14a"/><path d="M89.686,195.249l-56.968-32.8a4.536,4.536,0,0,0-6.8,3.92V193.84a4.524,4.524,0,0,0,2.274,3.932l36.822,21.259L60.16,228.6l15.764-3.269,9.226,5.33a4.548,4.548,0,0,0,6.81-3.932V199.181A4.572,4.572,0,0,0,89.686,195.249Z" transform="translate(-6.485 25.77)" fill="#da9429"/><path d="M67.273,194.224c-.876-.687-1.753-.628-1.954.142l-1.895,7.106-14.212-8.018L45.777,177.9a3.553,3.553,0,0,0-.805-1.48l-3.1-3.435c-.794-.865-1.788-1.184-2.227-.58s-.142,1.705.651,2.57l2.487,2.748,3.553,15.906-1.883.438a.486.486,0,0,0-.355.533v2.369a1.883,1.883,0,0,0,.924,1.445l2.629,1.5a1,1,0,0,0-.6,1.03,3.778,3.778,0,0,0,1.871,2.9c1.03.568,1.871.19,1.871-.841a3.174,3.174,0,0,0-.557-1.634l12.317,7.011a1.078,1.078,0,0,0-.4.924,3.754,3.754,0,0,0,1.859,2.9c1.03.568,1.871.2,1.871-.829a2.866,2.866,0,0,0-.379-1.326l1.611.912h0c.509.284.924.107.936-.4a1.859,1.859,0,0,0-.924-1.457L45.907,197.055V196.1l1.552-.367a2.844,2.844,0,0,0,.45.32l16.806,9.475h0c.758.415,1.421.261,1.587-.391l2.227-8.279a2.949,2.949,0,0,0-1.255-2.629Z" transform="translate(-3.992 27.659)" fill="#fff"/><path d="M58.346,189.312l-1.516-.841v-4.394a1.942,1.942,0,0,0-.983-1.516l-2.961-1.54c-.533-.3-.971-.107-.971.438v4.3l-1.516-.841c-.675-.379-.9-.059-.5.7l1.184,2.144,1.469,2.771,1.125,2.144c.4.758,1.054,1.184,1.457.805l1.184-.888,1.457-1.184,1.184-.888C59.2,190.283,58.985,189.727,58.346,189.312Z" transform="translate(-2.1 29.279)" fill="#fff"/></g></g></svg>