<?xml version="1.0" encoding="utf-8"?>
<!-- Generator: Adobe Illustrator 25.3.1, SVG Export Plug-In . SVG Version: 6.00 Build 0)  -->
<svg version="1.1" id="Layer_1" xmlns="http://www.w3.org/2000/svg" xmlns:xlink="http://www.w3.org/1999/xlink" x="0px" y="0px"
	 viewBox="0 0 63 63" style="enable-background:new 0 0 63 63;" xml:space="preserve">
<style type="text/css">
	.st0{fill:#FB8C00;}
</style>
<g id="Grupo_56762" transform="translate(435.15 -120.21)">
	<path id="goal" class="st0" d="M-377.9,130.2l-2.5-2.2l2.5-2.2c0.5-0.5,0.6-1.2,0.1-1.8c-0.2-0.3-0.6-0.4-0.9-0.4h-10.4v-0.4
		c0-0.5-0.4-0.9-0.9-0.9s-0.9,0.4-0.9,0.9v11.6l-7.1,3.8c0-0.3-0.1-0.6-0.3-0.9l-1-1.9c-0.7-1.3-2.3-1.9-3.7-1.2l-0.8,0.4
		c-1.3,0.7-1.9,2.3-1.2,3.7l1,1.9c0.2,0.4,0.6,0.8,1,1.1c-0.5,0.8-0.8,1.6-1,2.5l-0.2,0.7c-0.1,0.5,0.1,0.9,0.6,1.1
		c0.1,0,0.2,0,0.2,0c0.4,0,0.7-0.3,0.8-0.6l0.2-0.7c0.4-1.3,0.6-2,1.3-2.4l1.3-0.7l0.2-0.1c0.1,0,0.1-0.1,0.2-0.1l9.4-5.1
		c-0.1,1.2-0.7,2.3-1.7,2.9l-6.1,3.7l0,0l-1.9,1.2c-0.4,0.2-0.5,0.8-0.3,1.2c0.2,0.4,0.7,0.5,1.1,0.3l-1.4,4.4l-1.1,0.4l-2.9,1.2
		l0.8-2.9c0.1-0.5-0.1-0.9-0.6-1.1s-0.9,0.1-1.1,0.6l-1.3,4.6c0,0.1,0,0.1,0,0.2l-0.3,6.3c0,0.3,0,0.6-0.1,0.9l-3.8,8h-2.8
		c-1.6,0-2.9,1.3-2.9,2.9v2.5c-0.4-0.2-0.8-0.3-1.2-0.3h-7c-1.6,0-2.9,1.3-2.9,2.9v3.1h-2.1c-0.5,0-0.9,0.3-0.9,0.8s0.3,0.9,0.8,0.9
		c0,0,0.1,0,0.1,0h50.8c0.5,0,0.9-0.4,0.9-0.9s-0.4-0.9-0.9-0.9c0,0,0,0,0,0h-2.2v-22.2c0-1.6-1.3-2.9-2.9-2.9h-5.2v-15
		c1-1.3,1.3-3,0.9-4.6c-0.1-0.4-0.5-0.6-0.9-0.6v-1.6h10.4c0.7,0,1.2-0.6,1.2-1.2C-377.5,130.8-377.7,130.4-377.9,130.2
		L-377.9,130.2z M-403.4,137.1c0.1-0.3,0.3-0.5,0.5-0.6l0.8-0.4c0.5-0.3,1.1-0.1,1.3,0.4l1,1.9c0.2,0.5,0.1,1-0.3,1.3l-0.3,0.2
		l-0.6,0.3c-0.5,0.3-1.1,0.1-1.3-0.4c0,0,0,0,0,0l-1-1.9C-403.5,137.6-403.5,137.4-403.4,137.1L-403.4,137.1z M-405.1,168.5
		c-0.3-0.1-0.6-0.2-0.9-0.3l0.9-1.3V168.5z M-401,161.5c0.3-0.5,0.6-1,0.6-1.5c0-0.1,0.4-2.4,0.4-2.4s0.4,0.3,0.4,0.3
		c0,0,0,0,0.1,0.1l0.5,4.8h-2.9L-401,161.5z M-395.9,156.8l-0.7,5.9h-0.6l-0.5-4.9c-0.1-0.6-0.4-1.2-1-1.5l-0.9-0.5l0.6-3.2
		c0,0,2.4,2.9,2.5,3C-396.1,156.1-395.9,156.4-395.9,156.8L-395.9,156.8z M-405.3,160.9c0.2-0.5,0.3-1.1,0.2-1.6l0.3-5.8l4-1.6
		l-0.7,4c0,0,0,0,0,0l-0.6,3.3c0,0.4-0.2,0.8-0.4,1.1l-5.8,7.7h-0.5L-405.3,160.9z M-425.8,176.3c0-0.7,0.5-1.2,1.2-1.2h7
		c0.7,0,1.2,0.5,1.2,1.2v3.1h-9.5V176.3z M-414.6,176.3v-5.2c0-0.7,0.5-1.2,1.2-1.2h7c0.7,0,1.2,0.5,1.2,1.2v8.3h-9.5V176.3z
		 M-382.7,157.2v22.2h-9.5v-5.2c0-0.5-0.4-0.9-0.9-0.9s-0.9,0.4-0.9,0.9v5.2h-9.5v-13.8c0-0.7,0.5-1.2,1.2-1.2h7
		c0.7,0,1.2,0.5,1.2,1.2v4.3c0,0.5,0.4,0.9,0.9,0.9s0.9-0.4,0.9-0.9v-12.7c0-0.7,0.5-1.2,1.2-1.2h7
		C-383.3,156-382.7,156.5-382.7,157.2z M-391,154.2c-1.6,0-2.9,1.3-2.9,2.9v5.7c-0.3-0.1-0.7-0.2-1-0.3l0.7-5.7c0.1-1-0.3-1.9-1-2.6
		c-0.1-0.1-3.4-4.1-3.4-4.1l2.1-6.2l5.7-3.4L-391,154.2L-391,154.2z M-389.2,130.7v-5.3h9.1l-2,1.7c-0.5,0.5-0.6,1.2-0.1,1.8
		c0,0,0.1,0.1,0.1,0.1l2,1.7H-389.2z"/>
</g>
</svg>
