<?xml version="1.0" encoding="utf-8"?>
<!-- Generator: Adobe Illustrator 25.2.3, SVG Export Plug-In . SVG Version: 6.00 Build 0)  -->
<svg version="1.1" id="Capa_1" xmlns="http://www.w3.org/2000/svg" xmlns:xlink="http://www.w3.org/1999/xlink" x="0px" y="0px"
	 viewBox="0 0 79.3 79.3" style="enable-background:new 0 0 79.3 79.3;" xml:space="preserve">
<style type="text/css">
	.st0{fill:#FCCD35;}
	.st1{enable-background:new    ;}
	.st2{fill:#FFFFFF;}
</style>
<g transform="translate(0 0)">
	<path class="st0" d="M39.7,0c21.9,0,39.7,17.8,39.7,39.7S61.6,79.3,39.7,79.3S0,61.6,0,39.7C0,17.8,17.8,0,39.7,0
		C39.7,0,39.7,0,39.7,0z"/>
	<g class="st1">
		<path class="st2" d="M46.1,49.2H31.5v-2.9l6.9-7.4c0.9-1,1.6-1.9,2.1-2.7s0.7-1.5,0.7-2.2c0-0.9-0.2-1.7-0.7-2.2
			c-0.5-0.5-1.2-0.8-2.1-0.8c-1,0-1.7,0.3-2.3,1c-0.6,0.7-0.8,1.5-0.8,2.6H31c0-1.3,0.3-2.5,0.9-3.6s1.5-1.9,2.6-2.5
			s2.4-0.9,3.9-0.9c2.2,0,3.9,0.5,5.1,1.6c1.2,1.1,1.8,2.5,1.8,4.5c0,1.1-0.3,2.1-0.8,3.2s-1.5,2.4-2.8,3.8l-4.8,5.1h9.2V49.2z"/>
	</g>
</g>
</svg>
