<svg xmlns="http://www.w3.org/2000/svg" width="296.908" height="301.744" viewBox="0 0 296.908 301.744"><g transform="translate(-34.72 -26.404)"><g transform="translate(101.003 231.2)"><path d="M248.652,339.436c-9.159-6.19-22.871-7.421-33.846-3.7-24.2-8.236-54.455-5.541-74.673,8.11-17.265,11.672-22.7,28.308-16.3,43.1a34.815,34.815,0,0,0-14.035,5.3c-11.439,7.733-11.439,20.265,0,27.991s29.982,7.726,41.427,0a21.311,21.311,0,0,0,6.3-6.329c24.065,7.944,53.895,5.137,73.887-8.368,15.517-10.487,21.5-24.985,17.882-38.55C260.056,359.2,259.864,347.009,248.652,339.436Z" transform="translate(-101.215 -331.082)" fill="#e0e0e0"/></g><g transform="translate(34.72 30.618)"><path d="M38.389,150.132v-14.6h0V99.544a5.78,5.78,0,0,1,.854-2.849l-3.649-2.1a5.931,5.931,0,0,0-.875,2.87v9.326h0v41.275a2,2,0,0,0,1.1,1.749l3.512,2.05a1.981,1.981,0,0,1-.943-1.729Z" transform="translate(-34.72 -52.215)" fill="#1565c0" opacity="0.9"/><path d="M114.93,37.233a1.087,1.087,0,0,0-.041-.26.055.055,0,0,0,0-.055.963.963,0,0,0-.061-.26,1.367,1.367,0,0,0-.171-.362.472.472,0,0,0-.1-.15.458.458,0,0,0-.082-.109.977.977,0,0,0-.191-.184h0a1.449,1.449,0,0,0-.246-.143,2.1,2.1,0,0,0-1.927.246L42.949,75.878a6.375,6.375,0,0,0-2.87,4.974v50.561a1.913,1.913,0,0,0,2.863,1.722h0l4.694-2.733h0l64.438-37.019a6.354,6.354,0,0,0,2.87-4.974V37.623a3.131,3.131,0,0,0-.014-.389Z" transform="translate(-36.417 -33.524)" fill="#1565c0" opacity="0.8"/><g transform="translate(0.875)" opacity="0.5"><path d="M110.782,35.016,41.664,74.932a5.828,5.828,0,0,0-2.05,2.125L36,74.946a5.719,5.719,0,0,1,2-2.091L107.12,32.939a2.05,2.05,0,0,1,2.05-.171c.519.314,2.9,1.667,3.505,2A2.05,2.05,0,0,0,110.782,35.016Z" transform="translate(-36 -32.571)" fill="#1565c0"/></g><g transform="translate(10.017 36.97)"><path d="M52.967,130.866h0c-2.111,0-3.58-1.653-3.587-4.024v-2.59a8.117,8.117,0,0,1,3.785-6.546l52.529-30.343a4.475,4.475,0,0,1,2.262-.683c2.111,0,3.587,1.66,3.587,4.031v2.61a8.117,8.117,0,0,1-3.785,6.546L55.229,130.21A4.475,4.475,0,0,1,52.967,130.866Zm54.988-43.2a3.621,3.621,0,0,0-1.783.519L53.644,118.526a7.113,7.113,0,0,0-3.307,5.726v2.59c0,1.838,1.059,3.068,2.631,3.068a3.553,3.553,0,0,0,1.783-.519l52.535-30.343a7.113,7.113,0,0,0,3.327-5.726V90.739c0-1.838-1.086-3.075-2.658-3.075Z" transform="translate(-49.38 -86.68)" fill="#fff"/><path d="M134.382,91.709c0-1.756-1.237-2.467-2.733-1.592l-1.326.772L128,101.137l3.649-2.1a6.081,6.081,0,0,0,2.733-4.783Z" transform="translate(-74.283 -87.65)" fill="#fafafa"/><path d="M107.643,102.729l-2.323,10.276,6.614-3.826,2.323-10.269Z" transform="translate(-67.099 -90.554)" fill="#fafafa"/><path d="M118.966,96.186l-2.316,10.276,6.614-3.826,2.323-10.276Z" transform="translate(-70.687 -88.479)" fill="#fafafa"/><path d="M55.163,125.448a6.1,6.1,0,0,0-2.733,4.783v2.59c0,1.749,1.237,2.46,2.733,1.585l1.367-.772,2.323-10.249Zm4.783-2.733-2.323,10.249,6.614-3.819L66.56,118.9Zm23.231-13.405L80.86,119.558l6.614-3.819L89.8,105.49Zm-15.5,8.91-2.316,10.249,6.593-3.792,2.323-10.249Zm7.741-4.468L73.092,124l6.614-3.813,2.323-10.249Z" transform="translate(-50.346 -92.638)" fill="#fb8c00"/><g transform="translate(-5.916 8.852)" opacity="0.1"><path d="M55.163,125.448a6.1,6.1,0,0,0-2.733,4.783v2.59c0,1.749,1.237,2.46,2.733,1.585l1.367-.772,2.323-10.249Zm4.783-2.733-2.323,10.249,6.614-3.819L66.56,118.9Zm23.231-13.405L80.86,119.558l6.614-3.819L89.8,105.49Zm-15.5,8.91-2.316,10.249,6.593-3.792,2.323-10.249Zm7.741-4.468L73.092,124l6.614-3.813,2.323-10.249Z" transform="translate(-44.43 -101.49)" fill="#fff"/></g></g></g><g transform="translate(215.159 27.831)"><g transform="translate(-10.856)"><path d="M345.152,28.615a.984.984,0,0,0-1.288.3l-5.388,8.1a1.562,1.562,0,0,1-.734.554l-.406-4.084a.6.6,0,0,0-.273-.492h0l-5.466-3.17h0a.586.586,0,0,0-.6.047l-7.277,4.2a2,2,0,0,0-.875,1.366l-.726,8.1a2.725,2.725,0,0,1-.781,1.515,44.077,44.077,0,0,0-4.045,4.287,1.405,1.405,0,0,1-1.429.406l-4.685-1.632a1.124,1.124,0,0,0-1.312.484l-5.357,9.276a1.132,1.132,0,0,0,.234,1.374l3.748,3.233a1.406,1.406,0,0,1,.367,1.445,43.87,43.87,0,0,0-1.687,5.645,2.717,2.717,0,0,1-.929,1.413l-6.653,4.685a1.944,1.944,0,0,0-.781,1.429v8.4a.609.609,0,0,0,.242.539h0l5.466,3.178h0a.594.594,0,0,0,.562,0l3.764-1.694a1.562,1.562,0,0,1-.117.882l-4.318,8.714a.984.984,0,0,0,.383,1.273l5.466,3.123h0l4.685,2.71a.992.992,0,0,0,1.3-.3l5.38-8.1a1.616,1.616,0,0,1,.734-.554l.406,4.084a.6.6,0,0,0,.273.492h0l5.466,3.178h0a.6.6,0,0,0,.6-.047l7.277-4.209a1.968,1.968,0,0,0,.875-1.359l.726-8.105a2.7,2.7,0,0,1,.781-1.507,43.138,43.138,0,0,0,4.1-4.248,1.413,1.413,0,0,1,1.437-.406l4.685,1.632a1.124,1.124,0,0,0,1.312-.484l5.357-9.276a1.14,1.14,0,0,0-.234-1.382L351.665,70.4a1.39,1.39,0,0,1-.367-1.437,43.866,43.866,0,0,0,1.687-5.645,2.717,2.717,0,0,1,.929-1.413l6.653-4.685a1.944,1.944,0,0,0,.742-1.429v-8.41a.585.585,0,0,0-.258-.547h0l-5.466-3.17h0a.609.609,0,0,0-.57,0l-3.74,1.7a1.686,1.686,0,0,1,.117-.89l4.326-8.706a.992.992,0,0,0-.39-1.273l-3.568-2.061h0ZM323.164,81.869c-1.413-1.468-2.241-3.779-2.241-6.793,0-7.691,5.4-17.054,12.064-20.9a10.1,10.1,0,0,1,6.661-1.562c1.218,1.3,1.9,3.467,1.9,6.465,0,7.7-5.4,17.054-12.064,20.9C327.013,81.424,324.874,82.033,323.164,81.869Z" transform="translate(-298.807 -28.492)" fill="#26aab7"/><path d="M345.152,28.615a.984.984,0,0,0-1.288.3l-5.388,8.1a1.562,1.562,0,0,1-.734.554l-.406-4.084a.6.6,0,0,0-.273-.492h0l-5.466-3.17h0a.586.586,0,0,0-.6.047l-7.277,4.2a2,2,0,0,0-.875,1.366l-.726,8.1a2.725,2.725,0,0,1-.781,1.515,44.077,44.077,0,0,0-4.045,4.287,1.405,1.405,0,0,1-1.429.406l-4.685-1.632a1.124,1.124,0,0,0-1.312.484l-5.357,9.276a1.132,1.132,0,0,0,.234,1.374l3.748,3.233a1.406,1.406,0,0,1,.367,1.445,43.87,43.87,0,0,0-1.687,5.645,2.717,2.717,0,0,1-.929,1.413l-6.653,4.685a1.944,1.944,0,0,0-.781,1.429v8.4a.609.609,0,0,0,.242.539h0l5.466,3.178h0a.594.594,0,0,0,.562,0l3.764-1.694a1.562,1.562,0,0,1-.117.882l-4.318,8.714a.984.984,0,0,0,.383,1.273l5.466,3.123h0l4.685,2.71a.992.992,0,0,0,1.3-.3l5.38-8.1a1.616,1.616,0,0,1,.734-.554l.406,4.084a.6.6,0,0,0,.273.492h0l5.466,3.178h0a.6.6,0,0,0,.6-.047l7.277-4.209a1.968,1.968,0,0,0,.875-1.359l.726-8.105a2.7,2.7,0,0,1,.781-1.507,43.138,43.138,0,0,0,4.1-4.248,1.413,1.413,0,0,1,1.437-.406l4.685,1.632a1.124,1.124,0,0,0,1.312-.484l5.357-9.276a1.14,1.14,0,0,0-.234-1.382L351.665,70.4a1.39,1.39,0,0,1-.367-1.437,43.866,43.866,0,0,0,1.687-5.645,2.717,2.717,0,0,1,.929-1.413l6.653-4.685a1.944,1.944,0,0,0,.742-1.429v-8.41a.585.585,0,0,0-.258-.547h0l-5.466-3.17h0a.609.609,0,0,0-.57,0l-3.74,1.7a1.686,1.686,0,0,1,.117-.89l4.326-8.706a.992.992,0,0,0-.39-1.273l-3.568-2.061h0ZM323.164,81.869c-1.413-1.468-2.241-3.779-2.241-6.793,0-7.691,5.4-17.054,12.064-20.9a10.1,10.1,0,0,1,6.661-1.562c1.218,1.3,1.9,3.467,1.9,6.465,0,7.7-5.4,17.054-12.064,20.9C327.013,81.424,324.874,82.033,323.164,81.869Z" transform="translate(-298.807 -28.492)" fill="#fff" opacity="0.3"/><path d="M346.444,59.43c1.218,1.288,1.905,3.451,1.905,6.465,0,7.691-5.4,17.054-12.064,20.9a11.056,11.056,0,0,1-6.325,1.843c2.186,2.288,5.778,2.53,9.831.187,6.661-3.85,12.064-13.212,12.064-20.9C351.855,63.069,349.707,60.031,346.444,59.43Z" transform="translate(-305.635 -35.272)" opacity="0.1"/><path d="M323.129,101.653l5.466,3.178h0a.352.352,0,0,1-.109-.078.664.664,0,0,1-.18-.422l-.711-7.074a.781.781,0,0,0-.32-.57.859.859,0,0,0-.648-.117,14.267,14.267,0,0,1-3.506.359,1.64,1.64,0,0,0-.679.148l.406,4.084a.632.632,0,0,0,.273.492Zm-14.3-11.486-4.318,8.714a.984.984,0,0,0,.383,1.273l5.466,3.123A.984.984,0,0,1,310,102.02l4.318-8.706a1.469,1.469,0,0,0,.117-.492l-5.466-3.162a1.336,1.336,0,0,1-.141.508Zm14.25-53.6a1.8,1.8,0,0,0-.219.632l-.726,8.1a2.219,2.219,0,0,1-.219.718l5.466,3.17a2.209,2.209,0,0,0,.211-.711l.734-8.105a1.679,1.679,0,0,1,.211-.632Zm-7.176,16.515-5.466-3.17a1.085,1.085,0,0,0-.523.445l-5.357,9.276a1.125,1.125,0,0,0,0,1.078l5.466,3.123a1.116,1.116,0,0,1,0-1.031l5.349-9.276a1.1,1.1,0,0,1,.531-.445Zm-11.15,27.876-5.466-3.17a2,2,0,0,0-.39,1.07v8.41a.609.609,0,0,0,.242.539h0l5.466,3.178h0a.593.593,0,0,1-.265-.547v-8.41a1.928,1.928,0,0,1,.414-1.07Z" transform="translate(-298.827 -30.262)" fill="#26aab7"/><path d="M323.129,101.653l5.466,3.178h0a.352.352,0,0,1-.109-.078.664.664,0,0,1-.18-.422l-.711-7.074a.781.781,0,0,0-.32-.57.859.859,0,0,0-.648-.117,14.267,14.267,0,0,1-3.506.359,1.64,1.64,0,0,0-.679.148l.406,4.084a.632.632,0,0,0,.273.492Zm-14.3-11.486-4.318,8.714a.984.984,0,0,0,.383,1.273l5.466,3.123A.984.984,0,0,1,310,102.02l4.318-8.706a1.469,1.469,0,0,0,.117-.492l-5.466-3.162a1.336,1.336,0,0,1-.141.508Zm14.25-53.6a1.8,1.8,0,0,0-.219.632l-.726,8.1a2.219,2.219,0,0,1-.219.718l5.466,3.17a2.209,2.209,0,0,0,.211-.711l.734-8.105a1.679,1.679,0,0,1,.211-.632Zm-7.176,16.515-5.466-3.17a1.085,1.085,0,0,0-.523.445l-5.357,9.276a1.125,1.125,0,0,0,0,1.078l5.466,3.123a1.116,1.116,0,0,1,0-1.031l5.349-9.276a1.1,1.1,0,0,1,.531-.445Zm-11.15,27.876-5.466-3.17a2,2,0,0,0-.39,1.07v8.41a.609.609,0,0,0,.242.539h0l5.466,3.178h0a.593.593,0,0,1-.265-.547v-8.41a1.928,1.928,0,0,1,.414-1.07Z" transform="translate(-298.827 -30.262)" fill="#fff" opacity="0.7"/><path d="M338.879,98.346l.726-8.105a2.7,2.7,0,0,1,.781-1.507,43.152,43.152,0,0,0,4.021-4.287,1.413,1.413,0,0,1,1.437-.406l4.685,1.632a1.124,1.124,0,0,0,1.312-.484l5.357-9.276a1.14,1.14,0,0,0-.234-1.382L353.215,71.3a1.39,1.39,0,0,1-.367-1.437,43.866,43.866,0,0,0,1.687-5.645,2.717,2.717,0,0,1,.929-1.413l6.653-4.685a1.944,1.944,0,0,0,.742-1.429v-8.41a.547.547,0,0,0-.828-.539l-6.481,2.92a.781.781,0,0,1-1.078-.5,14.551,14.551,0,0,0-1.46-3.194,1.812,1.812,0,0,1-.1-1.562l4.326-8.706a.992.992,0,0,0-.39-1.273l-4.685-2.7a.976.976,0,0,0-1.288.3l-5.388,8.1a1.765,1.765,0,0,1-1.406.7,14.2,14.2,0,0,0-3.506.359.781.781,0,0,1-.976-.687l-.711-7.074a.547.547,0,0,0-.882-.453l-7.277,4.178a1.929,1.929,0,0,0-.867,1.359l-.734,8.105a2.7,2.7,0,0,1-.781,1.507A44.994,44.994,0,0,0,324.3,53.4a1.406,1.406,0,0,1-1.429.406l-4.685-1.632a1.124,1.124,0,0,0-1.312.484l-5.357,9.276a1.14,1.14,0,0,0,.234,1.382l3.756,3.233a1.382,1.382,0,0,1,.359,1.437,43.866,43.866,0,0,0-1.687,5.645,2.671,2.671,0,0,1-.9,1.445l-6.653,4.685a1.944,1.944,0,0,0-.742,1.429V89.6a.547.547,0,0,0,.828.539l6.481-2.92a.781.781,0,0,1,1.078.5,14.923,14.923,0,0,0,1.445,3.209,1.78,1.78,0,0,1,.1,1.562L311.5,101.2a.976.976,0,0,0,.383,1.273l4.685,2.71a.992.992,0,0,0,1.3-.3l5.38-8.1a1.78,1.78,0,0,1,1.413-.7,14.266,14.266,0,0,0,3.506-.359.781.781,0,0,1,.968.687l.711,7.074a.547.547,0,0,0,.882.453L338,99.72a1.968,1.968,0,0,0,.875-1.374Zm-4.365-15.4c-6.676,3.842-12.064.718-12.064-6.973s5.388-17.054,12.064-20.9,12.064-.734,12.064,6.965S341.183,79.1,334.514,82.948Z" transform="translate(-300.358 -29.391)" fill="#26aab7"/><path d="M338.879,98.346l.726-8.105a2.7,2.7,0,0,1,.781-1.507,43.152,43.152,0,0,0,4.021-4.287,1.413,1.413,0,0,1,1.437-.406l4.685,1.632a1.124,1.124,0,0,0,1.312-.484l5.357-9.276a1.14,1.14,0,0,0-.234-1.382L353.215,71.3a1.39,1.39,0,0,1-.367-1.437,43.866,43.866,0,0,0,1.687-5.645,2.717,2.717,0,0,1,.929-1.413l6.653-4.685a1.944,1.944,0,0,0,.742-1.429v-8.41a.547.547,0,0,0-.828-.539l-6.481,2.92a.781.781,0,0,1-1.078-.5,14.551,14.551,0,0,0-1.46-3.194,1.812,1.812,0,0,1-.1-1.562l4.326-8.706a.992.992,0,0,0-.39-1.273l-4.685-2.7a.976.976,0,0,0-1.288.3l-5.388,8.1a1.765,1.765,0,0,1-1.406.7,14.2,14.2,0,0,0-3.506.359.781.781,0,0,1-.976-.687l-.711-7.074a.547.547,0,0,0-.882-.453l-7.277,4.178a1.929,1.929,0,0,0-.867,1.359l-.734,8.105a2.7,2.7,0,0,1-.781,1.507A44.994,44.994,0,0,0,324.3,53.4a1.406,1.406,0,0,1-1.429.406l-4.685-1.632a1.124,1.124,0,0,0-1.312.484l-5.357,9.276a1.14,1.14,0,0,0,.234,1.382l3.756,3.233a1.382,1.382,0,0,1,.359,1.437,43.866,43.866,0,0,0-1.687,5.645,2.671,2.671,0,0,1-.9,1.445l-6.653,4.685a1.944,1.944,0,0,0-.742,1.429V89.6a.547.547,0,0,0,.828.539l6.481-2.92a.781.781,0,0,1,1.078.5,14.923,14.923,0,0,0,1.445,3.209,1.78,1.78,0,0,1,.1,1.562L311.5,101.2a.976.976,0,0,0,.383,1.273l4.685,2.71a.992.992,0,0,0,1.3-.3l5.38-8.1a1.78,1.78,0,0,1,1.413-.7,14.266,14.266,0,0,0,3.506-.359.781.781,0,0,1,.968.687l.711,7.074a.547.547,0,0,0,.882.453L338,99.72a1.968,1.968,0,0,0,.875-1.374Zm-4.365-15.4c-6.676,3.842-12.064.718-12.064-6.973s5.388-17.054,12.064-20.9,12.064-.734,12.064,6.965S341.183,79.1,334.514,82.948Z" transform="translate(-300.358 -29.391)" fill="#fff" opacity="0.55"/><path d="M363.834,49.261a.781.781,0,0,0,1.078.5l6.481-2.92a.609.609,0,0,1,.57,0h0L366.5,43.67h0a.609.609,0,0,0-.57,0L362.2,45.364a1.78,1.78,0,0,0,.219.687A14.558,14.558,0,0,1,363.834,49.261ZM356.08,28.615a.984.984,0,0,0-1.288.3l-5.388,8.1a1.562,1.562,0,0,1-.734.554l.3,2.991a.781.781,0,0,0,.976.687,14.2,14.2,0,0,1,3.506-.359,1.765,1.765,0,0,0,1.406-.7l5.388-8.1a.976.976,0,0,1,1.288-.3l1.117.64h0Z" transform="translate(-309.735 -28.492)" opacity="0.1"/><g transform="translate(5.526 3.196)" opacity="0.2"><path d="M350.177,62.123a6.653,6.653,0,0,0-2.4-2.452c-2.389-1.374-5.544-1.078-8.878.851-6.754,3.9-12.244,13.407-12.244,21.2,0,3.857,1.32,6.739,3.709,8.121s5.544,1.078,8.886-.843c6.746-3.9,12.244-13.415,12.244-21.208A11.3,11.3,0,0,0,350.177,62.123Zm.953,5.669c0,7.691-5.4,17.054-12.072,20.9S327,89.414,327,81.722s5.388-17.054,12.064-20.9S351.129,60.093,351.129,67.792Z" transform="translate(-310.435 -38.334)" fill="#fff"/><path d="M350.873,32.987l-5.388,8.1a1.765,1.765,0,0,1-1.406.7,14.2,14.2,0,0,0-3.506.359.781.781,0,0,1-.976-.687l-.711-7.074a.547.547,0,0,0-.882-.453l-7.277,4.209a1.929,1.929,0,0,0-.867,1.359l-.734,8.105a2.7,2.7,0,0,1-.781,1.507A44.994,44.994,0,0,0,324.3,53.4a1.406,1.406,0,0,1-1.429.406l-4.685-1.632a1.124,1.124,0,0,0-1.312.484l-5.357,9.276a1.14,1.14,0,0,0,.234,1.382l3.756,3.233a1.382,1.382,0,0,1,.359,1.437,43.865,43.865,0,0,0-1.687,5.645,2.671,2.671,0,0,1-.9,1.445L306.63,79.76a1.944,1.944,0,0,0-.742,1.429V89.6a.547.547,0,0,0,.828.539l6.481-2.92a.781.781,0,0,1,1.078.5,14.923,14.923,0,0,0,1.445,3.209,1.78,1.78,0,0,1,.1,1.562l-4.318,8.706a.976.976,0,0,0,.383,1.273l4.685,2.71a.992.992,0,0,0,1.3-.3l5.38-8.1a1.78,1.78,0,0,1,1.413-.7,14.267,14.267,0,0,0,3.506-.359.781.781,0,0,1,.968.687l.711,7.074a.547.547,0,0,0,.882.453L338,99.718a1.967,1.967,0,0,0,.875-1.359l.726-8.105a2.7,2.7,0,0,1,.781-1.507,43.147,43.147,0,0,0,4.021-4.3,1.413,1.413,0,0,1,1.437-.406l4.685,1.632a1.124,1.124,0,0,0,1.312-.484L357.2,75.91a1.14,1.14,0,0,0-.234-1.382L353.215,71.3a1.39,1.39,0,0,1-.367-1.437,43.866,43.866,0,0,0,1.687-5.645,2.717,2.717,0,0,1,.929-1.413l6.653-4.685a1.944,1.944,0,0,0,.742-1.429v-8.41a.547.547,0,0,0-.828-.539l-6.481,2.92a.781.781,0,0,1-1.078-.5,14.551,14.551,0,0,0-1.46-3.194,1.812,1.812,0,0,1-.1-1.562l4.318-8.706a.976.976,0,0,0-.383-1.273l-4.685-2.7a.976.976,0,0,0-1.288.265Zm1.109,0,4.685,2.71a.625.625,0,0,1,.234.781l-4.31,8.738a2.171,2.171,0,0,0,.117,1.921,13.977,13.977,0,0,1,1.406,3.123,1.2,1.2,0,0,0,.633.734,1.124,1.124,0,0,0,.937,0l6.481-2.92a.3.3,0,0,1,.25,0,.289.289,0,0,1,.078.234v8.378a1.64,1.64,0,0,1-.593,1.14l-6.653,4.685a3.061,3.061,0,0,0-1.078,1.632,42.045,42.045,0,0,1-1.671,5.6,1.749,1.749,0,0,0,.469,1.835l3.748,3.233a.781.781,0,0,1,.156.929l-5.349,9.276a.781.781,0,0,1-.89.328l-4.685-1.632a1.765,1.765,0,0,0-1.827.515,43.563,43.563,0,0,1-4.013,4.248,2.968,2.968,0,0,0-.867,1.741L338.5,98.32a1.632,1.632,0,0,1-.687,1.085l-7.285,4.2c-.1.062-.187.078-.242.047a.258.258,0,0,1-.1-.219l-.711-7.074a1.124,1.124,0,0,0-.461-.781,1.14,1.14,0,0,0-.945-.18,14.125,14.125,0,0,1-3.42.344,2.147,2.147,0,0,0-1.718.859l-5.388,8.1a.617.617,0,0,1-.781.2l-4.685-2.71a.617.617,0,0,1-.242-.781l4.287-8.777a2.1,2.1,0,0,0-.117-1.921,14.134,14.134,0,0,1-1.405-3.123,1.187,1.187,0,0,0-.633-.734,1.156,1.156,0,0,0-.937,0l-6.481,2.92a.273.273,0,0,1-.242,0,.242.242,0,0,1-.078-.234V81.157a1.632,1.632,0,0,1,.586-1.14l6.653-4.685a3.037,3.037,0,0,0,1.093-1.624,44.52,44.52,0,0,1,1.671-5.6,1.749,1.749,0,0,0-.469-1.835l-3.748-3.233a.781.781,0,0,1-.156-.929l5.357-9.276a.781.781,0,0,1,.882-.328l4.685,1.632a1.757,1.757,0,0,0,1.819-.515,43.563,43.563,0,0,1,4.013-4.248,3.03,3.03,0,0,0,.875-1.741l.687-8.105a1.64,1.64,0,0,1,.695-1.085l7.277-4.2c.1-.062.2-.078.242-.047a.258.258,0,0,1,.1.219l.742,7.082a1.265,1.265,0,0,0,.156.484,1.124,1.124,0,0,0,1.249.515,14.164,14.164,0,0,1,3.42-.344,2.14,2.14,0,0,0,1.718-.859l5.388-8.1a.617.617,0,0,1,.812-.2Z" transform="translate(-305.884 -32.584)" fill="#fff"/></g></g><g transform="translate(28.655 47.56)"><path d="M384.513,89.486a.781.781,0,0,0-.984.234l-4.084,6.137a1.226,1.226,0,0,1-.554.422l-.3-3.123a.484.484,0,0,0-.211-.375h0l-4.146-2.413h0a.453.453,0,0,0-.453,0l-5.521,3.194a1.476,1.476,0,0,0-.664,1.031l-.539,6.208a2.038,2.038,0,0,1-.57,1.148,32.861,32.861,0,0,0-3.069,3.248,1.062,1.062,0,0,1-1.085.3l-3.545-1.234a.875.875,0,0,0-1,.367l-4.06,7.028a.867.867,0,0,0,.18,1.046l2.842,2.452a1.054,1.054,0,0,1,.281,1.093,32.963,32.963,0,0,0-1.281,4.279,2.1,2.1,0,0,1-.711,1.078l-5.044,3.545a1.507,1.507,0,0,0-.562,1.093v6.379a.461.461,0,0,0,.187.406h0l4.154,2.413h0a.461.461,0,0,0,.429,0l2.85-1.288a1.2,1.2,0,0,1-.086.672l-3.28,6.606a.781.781,0,0,0,.289.968l4.131,2.389h0l3.553,2.054a.781.781,0,0,0,.984-.234l4.084-6.137a1.241,1.241,0,0,1,.547-.422l.312,3.123a.5.5,0,0,0,.211.375h0l4.146,2.4h0a.453.453,0,0,0,.453,0l5.521-3.194a1.476,1.476,0,0,0,.664-1.031l.554-6.145a2.014,2.014,0,0,1,.57-1.148,33.748,33.748,0,0,0,3.069-3.248,1.039,1.039,0,0,1,1.085-.3l3.545,1.234a.874.874,0,0,0,1-.367l4.06-7.028a.867.867,0,0,0-.18-1.046l-2.842-2.452a1.062,1.062,0,0,1-.281-1.093,32.71,32.71,0,0,0,1.281-4.287,2.085,2.085,0,0,1,.711-1.07l5.044-3.553a1.476,1.476,0,0,0,.562-1.085V103.76a.453.453,0,0,0-.2-.406h0l-4.138-2.413h0a.453.453,0,0,0-.437,0l-2.85,1.288a1.187,1.187,0,0,1,.086-.672l3.28-6.614a.781.781,0,0,0-.289-.96l-2.71-1.562h0Zm-16.679,40.385a7.285,7.285,0,0,1-1.694-5.146c0-5.833,4.1-12.931,9.151-15.851a7.488,7.488,0,0,1,5.052-1.163c.929.992,1.437,2.631,1.437,4.9,0,5.841-4.092,12.939-9.151,15.859A8.324,8.324,0,0,1,367.834,129.871Z" transform="translate(-349.413 -89.401)" fill="#26aab7"/><path d="M384.513,89.486a.781.781,0,0,0-.984.234l-4.084,6.137a1.226,1.226,0,0,1-.554.422l-.3-3.123a.484.484,0,0,0-.211-.375h0l-4.146-2.413h0a.453.453,0,0,0-.453,0l-5.521,3.194a1.476,1.476,0,0,0-.664,1.031l-.539,6.208a2.038,2.038,0,0,1-.57,1.148,32.861,32.861,0,0,0-3.069,3.248,1.062,1.062,0,0,1-1.085.3l-3.545-1.234a.875.875,0,0,0-1,.367l-4.06,7.028a.867.867,0,0,0,.18,1.046l2.842,2.452a1.054,1.054,0,0,1,.281,1.093,32.963,32.963,0,0,0-1.281,4.279,2.1,2.1,0,0,1-.711,1.078l-5.044,3.545a1.507,1.507,0,0,0-.562,1.093v6.379a.461.461,0,0,0,.187.406h0l4.154,2.413h0a.461.461,0,0,0,.429,0l2.85-1.288a1.2,1.2,0,0,1-.086.672l-3.28,6.606a.781.781,0,0,0,.289.968l4.131,2.389h0l3.553,2.054a.781.781,0,0,0,.984-.234l4.084-6.137a1.241,1.241,0,0,1,.547-.422l.312,3.123a.5.5,0,0,0,.211.375h0l4.146,2.4h0a.453.453,0,0,0,.453,0l5.521-3.194a1.476,1.476,0,0,0,.664-1.031l.554-6.145a2.014,2.014,0,0,1,.57-1.148,33.748,33.748,0,0,0,3.069-3.248,1.039,1.039,0,0,1,1.085-.3l3.545,1.234a.874.874,0,0,0,1-.367l4.06-7.028a.867.867,0,0,0-.18-1.046l-2.842-2.452a1.062,1.062,0,0,1-.281-1.093,32.71,32.71,0,0,0,1.281-4.287,2.085,2.085,0,0,1,.711-1.07l5.044-3.553a1.476,1.476,0,0,0,.562-1.085V103.76a.453.453,0,0,0-.2-.406h0l-4.138-2.413h0a.453.453,0,0,0-.437,0l-2.85,1.288a1.187,1.187,0,0,1,.086-.672l3.28-6.614a.781.781,0,0,0-.289-.96l-2.71-1.562h0Zm-16.679,40.385a7.285,7.285,0,0,1-1.694-5.146c0-5.833,4.1-12.931,9.151-15.851a7.488,7.488,0,0,1,5.052-1.163c.929.992,1.437,2.631,1.437,4.9,0,5.841-4.092,12.939-9.151,15.859A8.324,8.324,0,0,1,367.834,129.871Z" transform="translate(-349.413 -89.401)" fill="#fff" opacity="0.3"/><path d="M385.491,112.85c.929.984,1.445,2.624,1.452,4.9,0,5.841-4.1,12.939-9.159,15.859a8.324,8.324,0,0,1-4.794,1.4c1.655,1.733,4.38,1.921,7.457.141,5.052-2.92,9.151-10.018,9.151-15.851C389.583,115.614,387.951,113.311,385.491,112.85Z" transform="translate(-354.576 -94.54)" opacity="0.1"/><path d="M367.783,144.883l4.154,2.4h0l-.078-.055a.531.531,0,0,1-.141-.32l-.539-5.364a.578.578,0,0,0-.242-.437.617.617,0,0,0-.492-.086,11.385,11.385,0,0,1-2.663.273,1.25,1.25,0,0,0-.515.109l.312,3.123a.468.468,0,0,0,.211.367Zm-10.838-8.714-3.28,6.606a.781.781,0,0,0,.289.968l4.131,2.389a.781.781,0,0,1-.281-.953l3.28-6.606a1.1,1.1,0,0,0,.094-.375l-4.138-2.4A1.1,1.1,0,0,1,356.945,136.168ZM367.752,95.51a1.366,1.366,0,0,0-.164.484l-.539,6.145a1.8,1.8,0,0,1-.164.547l4.146,2.4a1.7,1.7,0,0,0,.164-.539l.554-6.145a1.226,1.226,0,0,1,.164-.484ZM362.286,108l-4.146-2.4a.836.836,0,0,0-.4.336l-4.06,7.028a.874.874,0,0,0,0,.781l4.131,2.343a.859.859,0,0,1,0-.781l4.068-7.028a.78.78,0,0,1,.429-.234Zm-8.433,21.176-4.146-2.4a1.5,1.5,0,0,0-.3.781v6.379a.461.461,0,0,0,.187.406h0l4.154,2.413h0a.437.437,0,0,1-.2-.406v-6.379A1.476,1.476,0,0,1,353.853,129.18Z" transform="translate(-349.408 -90.74)" fill="#26aab7"/><path d="M367.783,144.883l4.154,2.4h0l-.078-.055a.531.531,0,0,1-.141-.32l-.539-5.364a.578.578,0,0,0-.242-.437.617.617,0,0,0-.492-.086,11.385,11.385,0,0,1-2.663.273,1.25,1.25,0,0,0-.515.109l.312,3.123a.468.468,0,0,0,.211.367Zm-10.838-8.714-3.28,6.606a.781.781,0,0,0,.289.968l4.131,2.389a.781.781,0,0,1-.281-.953l3.28-6.606a1.1,1.1,0,0,0,.094-.375l-4.138-2.4A1.1,1.1,0,0,1,356.945,136.168ZM367.752,95.51a1.366,1.366,0,0,0-.164.484l-.539,6.145a1.8,1.8,0,0,1-.164.547l4.146,2.4a1.7,1.7,0,0,0,.164-.539l.554-6.145a1.226,1.226,0,0,1,.164-.484ZM362.286,108l-4.146-2.4a.836.836,0,0,0-.4.336l-4.06,7.028a.874.874,0,0,0,0,.781l4.131,2.343a.859.859,0,0,1,0-.781l4.068-7.028a.78.78,0,0,1,.429-.234Zm-8.433,21.176-4.146-2.4a1.5,1.5,0,0,0-.3.781v6.379a.461.461,0,0,0,.187.406h0l4.154,2.413h0a.437.437,0,0,1-.2-.406v-6.379A1.476,1.476,0,0,1,353.853,129.18Z" transform="translate(-349.408 -90.74)" fill="#fff" opacity="0.7"/><path d="M379.735,142.371l.554-6.145a2.014,2.014,0,0,1,.57-1.148,33.749,33.749,0,0,0,3.069-3.248,1.039,1.039,0,0,1,1.085-.3l3.545,1.234a.874.874,0,0,0,1-.367l4.06-7.028a.867.867,0,0,0-.18-1.046l-2.842-2.452a1.062,1.062,0,0,1-.281-1.093,32.7,32.7,0,0,0,1.281-4.287,2.085,2.085,0,0,1,.711-1.07l5.044-3.553a1.476,1.476,0,0,0,.562-1.085V104.4a.406.406,0,0,0-.625-.406l-4.919,2.218a.586.586,0,0,1-.82-.375,11.477,11.477,0,0,0-1.093-2.444,1.327,1.327,0,0,1-.078-1.187l3.28-6.614a.781.781,0,0,0-.289-.96l-3.561-2.054a.781.781,0,0,0-.976.234l-4.084,6.137a1.366,1.366,0,0,1-1.07.531,11.064,11.064,0,0,0-2.663.273.586.586,0,0,1-.734-.523l-.539-5.364a.414.414,0,0,0-.672-.344l-5.521,3.194a1.468,1.468,0,0,0-.656,1.031l-.554,6.145a2.069,2.069,0,0,1-.578,1.148,32.853,32.853,0,0,0-3.069,3.248,1.062,1.062,0,0,1-1.085.3l-3.545-1.234a.859.859,0,0,0-.992.367L359,114.753a.867.867,0,0,0,.18,1.046l2.85,2.452a1.07,1.07,0,0,1,.273,1.093,32.97,32.97,0,0,0-1.281,4.279,2.061,2.061,0,0,1-.7,1.078l-5.052,3.553a1.476,1.476,0,0,0-.562,1.085v6.379a.414.414,0,0,0,.632.406l4.912-2.218a.586.586,0,0,1,.82.375,11.11,11.11,0,0,0,1.1,2.444,1.351,1.351,0,0,1,.07,1.187l-3.28,6.606a.781.781,0,0,0,.3.968l3.553,2.054a.781.781,0,0,0,.984-.234l4.084-6.137a1.327,1.327,0,0,1,1.062-.531,11.383,11.383,0,0,0,2.663-.273.586.586,0,0,1,.742.523l.539,5.364a.414.414,0,0,0,.664.344l5.521-3.194a1.476,1.476,0,0,0,.664-1.031Zm-3.311-11.713c-5.052,2.92-9.151.554-9.151-5.286s4.1-12.931,9.151-15.851,9.151-.554,9.151,5.286-4.092,12.962-9.151,15.882Z" transform="translate(-350.569 -90.079)" fill="#26aab7"/><path d="M379.735,142.371l.554-6.145a2.014,2.014,0,0,1,.57-1.148,33.749,33.749,0,0,0,3.069-3.248,1.039,1.039,0,0,1,1.085-.3l3.545,1.234a.874.874,0,0,0,1-.367l4.06-7.028a.867.867,0,0,0-.18-1.046l-2.842-2.452a1.062,1.062,0,0,1-.281-1.093,32.7,32.7,0,0,0,1.281-4.287,2.085,2.085,0,0,1,.711-1.07l5.044-3.553a1.476,1.476,0,0,0,.562-1.085V104.4a.406.406,0,0,0-.625-.406l-4.919,2.218a.586.586,0,0,1-.82-.375,11.477,11.477,0,0,0-1.093-2.444,1.327,1.327,0,0,1-.078-1.187l3.28-6.614a.781.781,0,0,0-.289-.96l-3.561-2.054a.781.781,0,0,0-.976.234l-4.084,6.137a1.366,1.366,0,0,1-1.07.531,11.064,11.064,0,0,0-2.663.273.586.586,0,0,1-.734-.523l-.539-5.364a.414.414,0,0,0-.672-.344l-5.521,3.194a1.468,1.468,0,0,0-.656,1.031l-.554,6.145a2.069,2.069,0,0,1-.578,1.148,32.853,32.853,0,0,0-3.069,3.248,1.062,1.062,0,0,1-1.085.3l-3.545-1.234a.859.859,0,0,0-.992.367L359,114.753a.867.867,0,0,0,.18,1.046l2.85,2.452a1.07,1.07,0,0,1,.273,1.093,32.97,32.97,0,0,0-1.281,4.279,2.061,2.061,0,0,1-.7,1.078l-5.052,3.553a1.476,1.476,0,0,0-.562,1.085v6.379a.414.414,0,0,0,.632.406l4.912-2.218a.586.586,0,0,1,.82.375,11.11,11.11,0,0,0,1.1,2.444,1.351,1.351,0,0,1,.07,1.187l-3.28,6.606a.781.781,0,0,0,.3.968l3.553,2.054a.781.781,0,0,0,.984-.234l4.084-6.137a1.327,1.327,0,0,1,1.062-.531,11.383,11.383,0,0,0,2.663-.273.586.586,0,0,1,.742.523l.539,5.364a.414.414,0,0,0,.664.344l5.521-3.194a1.476,1.476,0,0,0,.664-1.031Zm-3.311-11.713c-5.052,2.92-9.151.554-9.151-5.286s4.1-12.931,9.151-15.851,9.151-.554,9.151,5.286-4.092,12.962-9.151,15.882Z" transform="translate(-350.569 -90.079)" fill="#fff" opacity="0.55"/><path d="M398.662,105.15a.586.586,0,0,0,.82.375l4.919-2.218a.461.461,0,0,1,.429,0h0l-4.138-2.413h0a.453.453,0,0,0-.437,0l-2.85,1.288a1.218,1.218,0,0,0,.164.515,11.478,11.478,0,0,1,1.093,2.452Zm-5.88-15.664a.781.781,0,0,0-.984.234l-4.084,6.137a1.226,1.226,0,0,1-.554.422l.234,2.264a.586.586,0,0,0,.734.523,11.065,11.065,0,0,1,2.663-.273,1.366,1.366,0,0,0,1.07-.531l4.084-6.137a.781.781,0,0,1,.976-.234l.843.492h0Z" transform="translate(-357.682 -89.401)" opacity="0.1"/><g transform="translate(4.136 2.408)" opacity="0.2"><path d="M388.3,114.9a5.013,5.013,0,0,0-1.819-1.858c-1.812-1.046-4.209-.781-6.739.64-5.122,2.959-9.284,10.151-9.284,16.085,0,2.92,1,5.107,2.811,6.153s4.209.781,6.739-.64c5.122-2.952,9.284-10.151,9.284-16.078A8.589,8.589,0,0,0,388.3,114.9Zm.726,4.3c0,5.833-4.092,12.931-9.151,15.851s-9.151.554-9.151-5.286,4.1-12.931,9.151-15.851S389.028,113.362,389.028,119.2Z" transform="translate(-358.158 -96.851)" fill="#fff"/><path d="M388.832,92.8l-4.084,6.137a1.366,1.366,0,0,1-1.07.531,11.064,11.064,0,0,0-2.663.273.586.586,0,0,1-.734-.523l-.539-5.364a.414.414,0,0,0-.672-.344l-5.521,3.194a1.468,1.468,0,0,0-.656,1.031l-.554,6.145a2.069,2.069,0,0,1-.578,1.148,32.862,32.862,0,0,0-3.069,3.248,1.062,1.062,0,0,1-1.085.3l-3.545-1.234a.859.859,0,0,0-.992.367L359,114.743a.867.867,0,0,0,.18,1.046l2.85,2.452a1.07,1.07,0,0,1,.273,1.093,32.963,32.963,0,0,0-1.281,4.279,2.061,2.061,0,0,1-.7,1.078l-5.052,3.553a1.475,1.475,0,0,0-.562,1.085v6.379a.414.414,0,0,0,.632.406l4.911-2.218a.586.586,0,0,1,.82.375,11.114,11.114,0,0,0,1.1,2.444,1.351,1.351,0,0,1,.07,1.187l-3.28,6.606a.781.781,0,0,0,.3.968l3.553,2.054a.781.781,0,0,0,.984-.234l4.084-6.137a1.327,1.327,0,0,1,1.062-.531,11.385,11.385,0,0,0,2.663-.273.586.586,0,0,1,.742.523l.539,5.364a.414.414,0,0,0,.664.344l5.521-3.194a1.476,1.476,0,0,0,.664-1.031l.554-6.145a2.014,2.014,0,0,1,.57-1.148,33.754,33.754,0,0,0,3.069-3.248,1.038,1.038,0,0,1,1.085-.3l3.545,1.234a.875.875,0,0,0,1-.367l4.06-7.028a.867.867,0,0,0-.18-1.046l-2.842-2.452a1.062,1.062,0,0,1-.281-1.093,32.711,32.711,0,0,0,1.281-4.287,2.085,2.085,0,0,1,.711-1.07l5.044-3.553a1.476,1.476,0,0,0,.562-1.085v-6.379a.406.406,0,0,0-.625-.406l-4.919,2.218a.586.586,0,0,1-.82-.375,11.479,11.479,0,0,0-1.093-2.444,1.328,1.328,0,0,1-.078-1.187l3.28-6.614a.781.781,0,0,0-.289-.96l-3.561-2.054a.781.781,0,0,0-.976.234Zm.843,0,3.522,2.054a.484.484,0,0,1,.187.609l-3.28,6.606a1.647,1.647,0,0,0,.086,1.452,11.039,11.039,0,0,1,1.07,2.343.851.851,0,0,0,1.187.547l4.919-2.218c.078,0,.148-.047.187,0a.228.228,0,0,1,.055.172v6.379a1.21,1.21,0,0,1-.445.867l-5.044,3.553a2.343,2.343,0,0,0-.82,1.234,33.025,33.025,0,0,1-1.265,4.248,1.335,1.335,0,0,0,.351,1.39l2.842,2.452a.593.593,0,0,1,.125.711l-4.06,7.028a.593.593,0,0,1-.672.25l-3.545-1.234a1.335,1.335,0,0,0-1.39.39,32.409,32.409,0,0,1-3.037,3.217,2.272,2.272,0,0,0-.664,1.327l-.554,6.145a1.234,1.234,0,0,1-.523.781l-5.521,3.194a.219.219,0,0,1-.187,0c-.039,0-.07-.086-.078-.172l-.539-5.364a.843.843,0,0,0-.344-.617.89.89,0,0,0-.718-.141,10.775,10.775,0,0,1-2.6.266,1.609,1.609,0,0,0-1.3.648l-4.084,6.145a.476.476,0,0,1-.617.148l-3.561-2.054a.476.476,0,0,1-.18-.609l3.272-6.606a1.562,1.562,0,0,0-.086-1.46,11.359,11.359,0,0,1-1.07-2.343.851.851,0,0,0-1.187-.547l-4.919,2.218a.187.187,0,0,1-.18,0,.2.2,0,0,1-.062-.172v-6.379a1.242,1.242,0,0,1,.445-.867l5.083-3.49a2.342,2.342,0,0,0,.781-1.234,34.366,34.366,0,0,1,1.265-4.248,1.335,1.335,0,0,0-.351-1.39l-2.842-2.452a.593.593,0,0,1-.125-.711l4.068-7.028a.593.593,0,0,1,.672-.25l3.545,1.242a1.32,1.32,0,0,0,1.382-.39,32.52,32.52,0,0,1,3.045-3.225,2.265,2.265,0,0,0,.656-1.32l.554-6.145a1.234,1.234,0,0,1,.523-.781l5.528-3.194a.2.2,0,0,1,.18,0c.039,0,.07.078.078.164l.539,5.372a.928.928,0,0,0,.117.359.781.781,0,0,0,.226.258.906.906,0,0,0,.726.141,10.713,10.713,0,0,1,2.592-.265,1.616,1.616,0,0,0,1.3-.656l4.084-6.137a.476.476,0,0,1,.648-.211Z" transform="translate(-354.705 -92.485)" fill="#fff"/></g></g><g transform="translate(64.591 248.408)"><path d="M396.059,406.506h0a.683.683,0,0,0,.4.581l1.544.8.9-.15a1.6,1.6,0,0,0,1.168-1.134,7.21,7.21,0,0,1,.348-.97A1,1,0,0,0,400,404.3l-3.594-1.858a.683.683,0,0,1-.41-.567Zm13.166-1.544c-2.084,1.756-2.371,3.949-1.066,5.835a6.409,6.409,0,0,1,1.121-1.189c3.314-2.788,9.935-3.416,14.786-1.367a8.486,8.486,0,0,1,3.826,2.829c1.79-2.61.294-5.739-3.888-7.482-4.844-2.036-11.465-1.408-14.779,1.373ZM393.421,414h0a.834.834,0,0,0,.048.28l.793,2.508a1.367,1.367,0,0,0,1.3.929l5.09-.143a2.051,2.051,0,0,1,.786.164h0a2.05,2.05,0,0,1,.437.225l1.742-1.879a.875.875,0,0,0-.143-1.319,12.212,12.212,0,0,1-1.223-1.121,2.843,2.843,0,0,0-.861-.56,2.049,2.049,0,0,0-.8-.171l-5.083.157a1.421,1.421,0,0,1-1.3-.936l-.8-2.508a1.291,1.291,0,0,1-.048-.266Zm41.173-15.421a.738.738,0,0,1-.2.4l-2,2.152a.875.875,0,0,0,.137,1.319,11.473,11.473,0,0,1,1.23,1.121,1.887,1.887,0,0,0,.424.328l.26-.28a.717.717,0,0,0,.2-.5h0ZM401.463,423.4a.684.684,0,0,0,.082.28.745.745,0,0,0,.389.321l4.475,1.865a.881.881,0,0,0,.191.055.539.539,0,0,0,.15.034,2.493,2.493,0,0,0,.683,0l.15-.034h0a1.674,1.674,0,0,0,.574-.212l2.972-1.981a2.774,2.774,0,0,1,1.79-.342c.957.178,1.92.307,2.89.4a1.879,1.879,0,0,1,.97.417,1.687,1.687,0,0,1,.253.239.453.453,0,0,1,.1.13.547.547,0,0,1,.123.184l1.134,2.2V427a.944.944,0,0,0,.116.171.764.764,0,0,0,.123.137h0a1.084,1.084,0,0,0,.164.137,1.606,1.606,0,0,0,.369.2,1.545,1.545,0,0,0,.622.1l5.555-.526a.943.943,0,0,0,.861-.95l-.041-3.15a1.2,1.2,0,0,1,.574-.4,23.011,23.011,0,0,0,2.309-.84,3.02,3.02,0,0,1,1.838-.1h.048l4.3,1.414a1.4,1.4,0,0,0,.232.048h.041a1.046,1.046,0,0,0,.253,0,1.92,1.92,0,0,0,1.182-.389l2.808-2.364a.738.738,0,0,0,.28-.506l-.061-4.626a.683.683,0,0,1-.273.485l-2.815,2.364a1.572,1.572,0,0,1-.622.314,1.872,1.872,0,0,1-1.08,0l-4.3-1.408h-.048a3.02,3.02,0,0,0-1.838.1,20.158,20.158,0,0,1-2.316.834,1.216,1.216,0,0,0-.765,1.319l.287,2.145a.957.957,0,0,1-.854,1.086l-5.555.526a1.428,1.428,0,0,1-.622-.1,1.626,1.626,0,0,1-.827-.683l-1.134-2.2a1.66,1.66,0,0,0-.478-.553,1.933,1.933,0,0,0-.97-.417c-.97-.089-1.94-.219-2.89-.4a2.733,2.733,0,0,0-1.79.342l-2.965,1.981a1.517,1.517,0,0,1-.581.225,2.05,2.05,0,0,1-1.168-.068l-4.482-1.893a.683.683,0,0,1-.471-.6ZM437.1,409.485a1.64,1.64,0,0,0-1.168,1.141,5.928,5.928,0,0,1-.355.97,1,1,0,0,0,.424,1.332l2.05,1.066,3.929-.642a.813.813,0,0,0,.683-.806h0l-.055-4.66a.82.82,0,0,1-.683.813Z" transform="translate(-393.348 -394.124)" fill="#e6e6e6"/><path d="M396.059,406.506h0a.683.683,0,0,0,.4.581l1.544.8.9-.15a1.6,1.6,0,0,0,1.168-1.134,7.21,7.21,0,0,1,.348-.97A1,1,0,0,0,400,404.3l-3.594-1.858a.683.683,0,0,1-.41-.567Zm13.166-1.544c-2.084,1.756-2.371,3.949-1.066,5.835a6.409,6.409,0,0,1,1.121-1.189c3.314-2.788,9.935-3.416,14.786-1.367a8.486,8.486,0,0,1,3.826,2.829c1.79-2.61.294-5.739-3.888-7.482-4.844-2.036-11.465-1.408-14.779,1.373ZM393.421,414h0a.834.834,0,0,0,.048.28l.793,2.508a1.367,1.367,0,0,0,1.3.929l5.09-.143a2.051,2.051,0,0,1,.786.164h0a2.05,2.05,0,0,1,.437.225l1.742-1.879a.875.875,0,0,0-.143-1.319,12.212,12.212,0,0,1-1.223-1.121,2.843,2.843,0,0,0-.861-.56,2.049,2.049,0,0,0-.8-.171l-5.083.157a1.421,1.421,0,0,1-1.3-.936l-.8-2.508a1.291,1.291,0,0,1-.048-.266Zm41.173-15.421a.738.738,0,0,1-.2.4l-2,2.152a.875.875,0,0,0,.137,1.319,11.473,11.473,0,0,1,1.23,1.121,1.887,1.887,0,0,0,.424.328l.26-.28a.717.717,0,0,0,.2-.5h0ZM401.463,423.4a.684.684,0,0,0,.082.28.745.745,0,0,0,.389.321l4.475,1.865a.881.881,0,0,0,.191.055.539.539,0,0,0,.15.034,2.493,2.493,0,0,0,.683,0l.15-.034h0a1.674,1.674,0,0,0,.574-.212l2.972-1.981a2.774,2.774,0,0,1,1.79-.342c.957.178,1.92.307,2.89.4a1.879,1.879,0,0,1,.97.417,1.687,1.687,0,0,1,.253.239.453.453,0,0,1,.1.13.547.547,0,0,1,.123.184l1.134,2.2V427a.944.944,0,0,0,.116.171.764.764,0,0,0,.123.137h0a1.084,1.084,0,0,0,.164.137,1.606,1.606,0,0,0,.369.2,1.545,1.545,0,0,0,.622.1l5.555-.526a.943.943,0,0,0,.861-.95l-.041-3.15a1.2,1.2,0,0,1,.574-.4,23.011,23.011,0,0,0,2.309-.84,3.02,3.02,0,0,1,1.838-.1h.048l4.3,1.414a1.4,1.4,0,0,0,.232.048h.041a1.046,1.046,0,0,0,.253,0,1.92,1.92,0,0,0,1.182-.389l2.808-2.364a.738.738,0,0,0,.28-.506l-.061-4.626a.683.683,0,0,1-.273.485l-2.815,2.364a1.572,1.572,0,0,1-.622.314,1.872,1.872,0,0,1-1.08,0l-4.3-1.408h-.048a3.02,3.02,0,0,0-1.838.1,20.158,20.158,0,0,1-2.316.834,1.216,1.216,0,0,0-.765,1.319l.287,2.145a.957.957,0,0,1-.854,1.086l-5.555.526a1.428,1.428,0,0,1-.622-.1,1.626,1.626,0,0,1-.827-.683l-1.134-2.2a1.66,1.66,0,0,0-.478-.553,1.933,1.933,0,0,0-.97-.417c-.97-.089-1.94-.219-2.89-.4a2.733,2.733,0,0,0-1.79.342l-2.965,1.981a1.517,1.517,0,0,1-.581.225,2.05,2.05,0,0,1-1.168-.068l-4.482-1.893a.683.683,0,0,1-.471-.6ZM437.1,409.485a1.64,1.64,0,0,0-1.168,1.141,5.928,5.928,0,0,1-.355.97,1,1,0,0,0,.424,1.332l2.05,1.066,3.929-.642a.813.813,0,0,0,.683-.806h0l-.055-4.66a.82.82,0,0,1-.683.813Z" transform="translate(-393.348 -394.124)" opacity="0.1"/><path d="M448.33,425.77l4.3,1.407a1.872,1.872,0,0,0,1.079,0l.062,4.632a2.587,2.587,0,0,1-.56.089,1.048,1.048,0,0,1-.253,0h-.068a1.4,1.4,0,0,1-.232-.048l-4.3-1.414Z" transform="translate(-410.759 -402.736)" fill="#e0e0e0"/><path d="M427.54,429.26a1.661,1.661,0,0,1,.478.553l1.134,2.2a1.626,1.626,0,0,0,.827.683l.055,4.639a1.607,1.607,0,0,1-.369-.2A1.086,1.086,0,0,1,429.5,437h0a.768.768,0,0,1-.123-.137.94.94,0,0,1-.116-.171v-.048l-1.134-2.2a.546.546,0,0,0-.123-.184.615.615,0,0,0-.1-.13,2.736,2.736,0,0,0-.253-.225h0Z" transform="translate(-404.174 -403.842)" fill="#e0e0e0"/><path d="M397.22,403.41a.683.683,0,0,0,.417.56l3.594,1.858a1,1,0,0,1,.424,1.332,6.72,6.72,0,0,0-.355.977,1.606,1.606,0,0,1-1.168,1.134l-.9.143-1.537-.82a.683.683,0,0,1-.41-.581h0Z" transform="translate(-394.571 -395.654)" fill="#e0e0e0"/><path d="M393.37,414.37a1.291,1.291,0,0,0,.048.266l.8,2.508a1.421,1.421,0,0,0,1.3.936l5.083-.157a2.051,2.051,0,0,1,.8.171l.048,4.646a2.05,2.05,0,0,0-.786-.164l-5.09.143a1.366,1.366,0,0,1-1.3-.929l-.793-2.508a.833.833,0,0,1-.048-.28h0Z" transform="translate(-393.351 -399.125)" fill="#e0e0e0"/><path d="M405.14,428.1a.683.683,0,0,0,.471.6l4.469,1.858a2.05,2.05,0,0,0,1.168.068l.061,4.639-.15.034a2.493,2.493,0,0,1-.683,0,.541.541,0,0,1-.15-.034.882.882,0,0,1-.191-.055l-4.475-1.865a.744.744,0,0,1-.389-.321.684.684,0,0,1-.082-.28Z" transform="translate(-397.079 -403.474)" fill="#e0e0e0"/><path d="M399.087,396.917l-2.815,2.364a.615.615,0,0,0,.137,1.093L400,402.233a1,1,0,0,1,.424,1.332,7.932,7.932,0,0,0-.355.97,1.585,1.585,0,0,1-1.168,1.134l-4.824.786a.834.834,0,0,0-.683,1.121l.8,2.5a1.366,1.366,0,0,0,1.3.929l5.083-.143a2.528,2.528,0,0,1,1.653.724,12.242,12.242,0,0,0,1.23,1.121.875.875,0,0,1,.143,1.319l-2,2.152a.642.642,0,0,0,.253,1.107l4.468,1.865a2.05,2.05,0,0,0,1.742-.164l2.972-1.981a2.733,2.733,0,0,1,1.79-.342c.957.178,1.92.307,2.89.4a1.981,1.981,0,0,1,1.448.97l1.134,2.2a1.6,1.6,0,0,0,1.448.806l5.555-.526a.95.95,0,0,0,.854-1.086l-.26-2.125a1.189,1.189,0,0,1,.813-1.264,23.135,23.135,0,0,0,2.316-.84,3.02,3.02,0,0,1,1.838-.1l4.345,1.428a1.981,1.981,0,0,0,1.7-.321l2.815-2.364a.615.615,0,0,0-.137-1.093L436,410.883a1,1,0,0,1-.424-1.332,7.932,7.932,0,0,0,.355-.97,1.585,1.585,0,0,1,1.168-1.134l4.824-.786a.834.834,0,0,0,.683-1.121l-.8-2.5a1.408,1.408,0,0,0-1.3-.929l-5.083.143a2.528,2.528,0,0,1-1.654-.724,12.239,12.239,0,0,0-1.23-1.121.875.875,0,0,1-.137-1.319l1.988-2.152a.642.642,0,0,0-.253-1.107l-4.469-1.865a2.05,2.05,0,0,0-1.742.164l-2.972,1.981a2.733,2.733,0,0,1-1.79.342c-.95-.178-1.92-.307-2.89-.4a1.981,1.981,0,0,1-1.449-.97l-1.127-2.221a1.6,1.6,0,0,0-1.448-.806l-5.555.526a.957.957,0,0,0-.854,1.086l.28,2.145a1.189,1.189,0,0,1-.813,1.264,22.411,22.411,0,0,0-2.309.84,3.041,3.041,0,0,1-1.845.1l-4.345-1.428a1.982,1.982,0,0,0-1.729.321ZM424,401.509c4.851,2.016,6.095,5.9,2.781,8.691s-9.935,3.416-14.779,1.367-6.095-5.9-2.781-8.691S419.154,399.493,424,401.509Z" transform="translate(-393.342 -392.058)" fill="#ebebeb"/></g><g transform="translate(36.337 273.511)"><path d="M354.17,440.313h0a.54.54,0,0,0,.321.465l1.23.635.717-.116a1.312,1.312,0,0,0,.936-.909,5.009,5.009,0,0,1,.28-.772.813.813,0,0,0-.342-1.066l-2.863-1.483a.526.526,0,0,1-.328-.451Zm10.5-1.23c-1.667,1.4-1.893,3.15-.854,4.653a5.233,5.233,0,0,1,.9-.957c2.644-2.214,7.919-2.733,11.786-1.107a6.833,6.833,0,0,1,3.054,2.262c1.428-2.084.232-4.578-3.1-5.965C372.583,436.364,367.309,436.863,364.671,439.083Zm-12.6,7.215h0a.682.682,0,0,0,.034.225l.629,2a1.121,1.121,0,0,0,1.032.745l4.059-.116a1.557,1.557,0,0,1,.629.137h0a1.672,1.672,0,0,1,.348.178l1.367-1.5a.683.683,0,0,0-.116-1.052,10.374,10.374,0,0,1-.977-.888,2.187,2.187,0,0,0-.683-.444,1.618,1.618,0,0,0-.635-.137l-4.059.123a1.134,1.134,0,0,1-1.032-.745l-.635-2a.828.828,0,0,1-.041-.212Zm32.8-12.3a.581.581,0,0,1-.164.321l-1.565,1.729a.683.683,0,0,0,.109,1.052,8.913,8.913,0,0,1,.984.9,1.668,1.668,0,0,0,.335.26l.2-.219a.574.574,0,0,0,.164-.4h0Zm-26.415,19.78a.505.505,0,0,0,.061.225.567.567,0,0,0,.314.253l3.567,1.489.15.048h.123a2.05,2.05,0,0,0,.54,0h.116a1.305,1.305,0,0,0,.458-.171l2.364-1.578a2.228,2.228,0,0,1,1.435-.273c.758.143,1.524.246,2.3.314a1.51,1.51,0,0,1,.779.335,1.326,1.326,0,0,1,.2.191.636.636,0,0,1,.089.1,1.049,1.049,0,0,1,.1.143l.9,1.756v.041a.861.861,0,0,0,.089.13.834.834,0,0,0,.1.116h0a.738.738,0,0,0,.137.109.983.983,0,0,0,.287.157,1.162,1.162,0,0,0,.5.082l4.428-.417a.758.758,0,0,0,.683-.758l-.034-2.508a.909.909,0,0,1,.458-.321,18.821,18.821,0,0,0,1.838-.683,2.35,2.35,0,0,1,1.469-.089h.034l3.416,1.127a.615.615,0,0,0,.184.048h.034a.943.943,0,0,0,.2,0,1.558,1.558,0,0,0,.943-.307l2.241-1.893a.574.574,0,0,0,.219-.4l-.048-3.69a.56.56,0,0,1-.219.389l-2.241,1.879a1.291,1.291,0,0,1-.492.253,1.564,1.564,0,0,1-.868,0l-3.416-1.121h-.041a2.4,2.4,0,0,0-1.469.075,16.679,16.679,0,0,1-1.838.683.957.957,0,0,0-.683,1.011l.225,1.708a.758.758,0,0,1-.683.868l-4.428.417a1.058,1.058,0,0,1-.5-.075,1.251,1.251,0,0,1-.683-.567l-.909-1.756a1.366,1.366,0,0,0-.376-.437,1.571,1.571,0,0,0-.779-.335c-.772-.068-1.544-.171-2.3-.314a2.206,2.206,0,0,0-1.428.273l-2.364,1.578a1.222,1.222,0,0,1-.465.178,1.579,1.579,0,0,1-.929-.048l-3.4-1.469a.553.553,0,0,1-.376-.485Zm28.41-11.089a1.3,1.3,0,0,0-.929.909,4.783,4.783,0,0,1-.287.772.806.806,0,0,0,.342,1.066l1.633.847,3.136-.506a.642.642,0,0,0,.56-.642h0l-.041-3.71a.683.683,0,0,1-.567.642Z" transform="translate(-351.99 -430.446)" fill="#e6e6e6"/><path d="M354.17,440.313h0a.54.54,0,0,0,.321.465l1.23.635.717-.116a1.312,1.312,0,0,0,.936-.909,5.009,5.009,0,0,1,.28-.772.813.813,0,0,0-.342-1.066l-2.863-1.483a.526.526,0,0,1-.328-.451Zm10.5-1.23c-1.667,1.4-1.893,3.15-.854,4.653a5.233,5.233,0,0,1,.9-.957c2.644-2.214,7.919-2.733,11.786-1.107a6.833,6.833,0,0,1,3.054,2.262c1.428-2.084.232-4.578-3.1-5.965C372.583,436.364,367.309,436.863,364.671,439.083Zm-12.6,7.215h0a.682.682,0,0,0,.034.225l.629,2a1.121,1.121,0,0,0,1.032.745l4.059-.116a1.557,1.557,0,0,1,.629.137h0a1.672,1.672,0,0,1,.348.178l1.367-1.5a.683.683,0,0,0-.116-1.052,10.374,10.374,0,0,1-.977-.888,2.187,2.187,0,0,0-.683-.444,1.618,1.618,0,0,0-.635-.137l-4.059.123a1.134,1.134,0,0,1-1.032-.745l-.635-2a.828.828,0,0,1-.041-.212Zm32.8-12.3a.581.581,0,0,1-.164.321l-1.565,1.729a.683.683,0,0,0,.109,1.052,8.913,8.913,0,0,1,.984.9,1.668,1.668,0,0,0,.335.26l.2-.219a.574.574,0,0,0,.164-.4h0Zm-26.415,19.78a.505.505,0,0,0,.061.225.567.567,0,0,0,.314.253l3.567,1.489.15.048h.123a2.05,2.05,0,0,0,.54,0h.116a1.305,1.305,0,0,0,.458-.171l2.364-1.578a2.228,2.228,0,0,1,1.435-.273c.758.143,1.524.246,2.3.314a1.51,1.51,0,0,1,.779.335,1.326,1.326,0,0,1,.2.191.636.636,0,0,1,.089.1,1.049,1.049,0,0,1,.1.143l.9,1.756v.041a.861.861,0,0,0,.089.13.834.834,0,0,0,.1.116h0a.738.738,0,0,0,.137.109.983.983,0,0,0,.287.157,1.162,1.162,0,0,0,.5.082l4.428-.417a.758.758,0,0,0,.683-.758l-.034-2.508a.909.909,0,0,1,.458-.321,18.821,18.821,0,0,0,1.838-.683,2.35,2.35,0,0,1,1.469-.089h.034l3.416,1.127a.615.615,0,0,0,.184.048h.034a.943.943,0,0,0,.2,0,1.558,1.558,0,0,0,.943-.307l2.241-1.893a.574.574,0,0,0,.219-.4l-.048-3.69a.56.56,0,0,1-.219.389l-2.241,1.879a1.291,1.291,0,0,1-.492.253,1.564,1.564,0,0,1-.868,0l-3.416-1.121h-.041a2.4,2.4,0,0,0-1.469.075,16.679,16.679,0,0,1-1.838.683.957.957,0,0,0-.683,1.011l.225,1.708a.758.758,0,0,1-.683.868l-4.428.417a1.058,1.058,0,0,1-.5-.075,1.251,1.251,0,0,1-.683-.567l-.909-1.756a1.366,1.366,0,0,0-.376-.437,1.571,1.571,0,0,0-.779-.335c-.772-.068-1.544-.171-2.3-.314a2.206,2.206,0,0,0-1.428.273l-2.364,1.578a1.222,1.222,0,0,1-.465.178,1.579,1.579,0,0,1-.929-.048l-3.4-1.469a.553.553,0,0,1-.376-.485Zm28.41-11.089a1.3,1.3,0,0,0-.929.909,4.783,4.783,0,0,1-.287.772.806.806,0,0,0,.342,1.066l1.633.847,3.136-.506a.642.642,0,0,0,.56-.642h0l-.041-3.71a.683.683,0,0,1-.567.642Z" transform="translate(-351.99 -430.446)" opacity="0.1"/><path d="M395.86,455.67l3.416,1.121a1.565,1.565,0,0,0,.868,0l.041,3.69a1.947,1.947,0,0,1-.444.075.939.939,0,0,1-.2,0h-.034a.617.617,0,0,1-.184-.048l-3.416-1.127Z" transform="translate(-365.886 -437.31)" fill="#e0e0e0"/><path d="M379.29,458.45a1.366,1.366,0,0,1,.376.437l.909,1.756a1.25,1.25,0,0,0,.683.567l.041,3.7a.982.982,0,0,1-.287-.157.739.739,0,0,1-.137-.109h0a.828.828,0,0,1-.1-.116.867.867,0,0,1-.089-.13v-.041l-.9-1.756a1.044,1.044,0,0,0-.1-.143l-.089-.1a2.62,2.62,0,0,0-.2-.184h0Z" transform="translate(-360.637 -438.191)" fill="#e0e0e0"/><path d="M355.11,437.84a.533.533,0,0,0,.335.444l2.863,1.483a.8.8,0,0,1,.335,1.066,7,7,0,0,0-.28.772,1.278,1.278,0,0,1-.929.909l-.683.109-1.23-.635a.526.526,0,0,1-.328-.458h0Z" transform="translate(-352.978 -431.662)" fill="#e0e0e0"/><path d="M352,446.58a.827.827,0,0,0,.041.212l.635,2a1.134,1.134,0,0,0,1.032.745l4.059-.123a1.619,1.619,0,0,1,.635.137v3.7a1.558,1.558,0,0,0-.629-.137l-4.059.116a1.12,1.12,0,0,1-1.032-.745l-.629-2a.683.683,0,0,1-.034-.225h0Z" transform="translate(-351.993 -434.431)" fill="#e0e0e0"/><path d="M361.42,457.52a.553.553,0,0,0,.376.485l3.567,1.483a1.578,1.578,0,0,0,.929.048l.048,3.7h-.116a2.049,2.049,0,0,1-.54,0h-.123l-.15-.048-3.594-1.489a.567.567,0,0,1-.314-.253.505.505,0,0,1-.061-.225Z" transform="translate(-354.977 -437.896)" fill="#e0e0e0"/><path d="M356.607,432.667l-2.241,1.886a.485.485,0,0,0,.109.868l2.863,1.483a.813.813,0,0,1,.342,1.066,5.546,5.546,0,0,0-.287.772,1.291,1.291,0,0,1-.929.909l-3.847.622a.683.683,0,0,0-.533.888l.635,2a1.121,1.121,0,0,0,1.032.745l4.059-.116a2.05,2.05,0,0,1,1.319.581,10.286,10.286,0,0,0,.977.888.683.683,0,0,1,.109,1.052l-1.585,1.722a.512.512,0,0,0,.2.881l3.567,1.483a1.64,1.64,0,0,0,1.367-.13l2.371-1.578a2.207,2.207,0,0,1,1.428-.273c.758.143,1.531.246,2.3.314a1.586,1.586,0,0,1,1.155.772l.909,1.756a1.257,1.257,0,0,0,1.148.642l4.434-.417a.758.758,0,0,0,.683-.868l-.225-1.708a.963.963,0,0,1,.683-1.011,16.685,16.685,0,0,0,1.838-.683,2.35,2.35,0,0,1,1.469-.075l3.464,1.134a1.606,1.606,0,0,0,1.367-.253l2.241-1.886a.492.492,0,0,0-.109-.875l-2.863-1.483a.793.793,0,0,1-.335-1.059,7.117,7.117,0,0,0,.28-.779,1.271,1.271,0,0,1,.929-.9l3.847-.622a.683.683,0,0,0,.533-.9l-.635-2a1.121,1.121,0,0,0-1.032-.745l-4.052.116a2,2,0,0,1-1.319-.581,11.412,11.412,0,0,0-.984-.888.683.683,0,0,1-.109-1.052l1.585-1.715a.512.512,0,0,0-.2-.881l-3.587-1.469a1.667,1.667,0,0,0-1.367.13l-2.371,1.578a2.207,2.207,0,0,1-1.428.273c-.758-.143-1.53-.246-2.3-.314a1.565,1.565,0,0,1-1.155-.772l-.909-1.756a1.257,1.257,0,0,0-1.148-.642l-4.434.417a.758.758,0,0,0-.683.868l.225,1.715a.95.95,0,0,1-.683,1,16.68,16.68,0,0,0-1.838.683,2.4,2.4,0,0,1-1.469.082l-3.464-1.141A1.585,1.585,0,0,0,356.607,432.667Zm19.862,3.655c3.867,1.612,4.858,4.714,2.214,6.935s-7.912,2.733-11.779,1.107-4.858-4.708-2.214-6.928S372.609,434.717,376.469,436.322Z" transform="translate(-352.009 -428.798)" fill="#ebebeb"/></g></g><g transform="translate(136.646 26.405)"><g transform="translate(0 7.275)"><path d="M185.334,76.584a1.244,1.244,0,0,1-.683-.2,1.879,1.879,0,0,1-.745-1.681V57.33a5.008,5.008,0,0,1,2.05-3.895l25.533-16.05a1.558,1.558,0,0,1,1.708-.143,1.879,1.879,0,0,1,.745,1.681V56.3a5.022,5.022,0,0,1-2.05,3.9l-3.785,2.378-2.549,9.449a.875.875,0,0,1-1.681.1L201.684,66.6l-15.319,9.634A2,2,0,0,1,185.334,76.584ZM211.9,38.11l-25.533,16.05a4.2,4.2,0,0,0-1.681,3.17V74.7a1.107,1.107,0,0,0,.355.957.9.9,0,0,0,.936-.143l16.07-10.1,2.542,6.382c0,.075.068.089.123.082a.116.116,0,0,0,.109-.1l2.637-9.771,4.052-2.549a4.2,4.2,0,0,0,1.681-3.17V38.923a1.107,1.107,0,0,0-.355-.957.916.916,0,0,0-.936.143Z" transform="translate(-183.898 -37.052)" fill="#e0e0e0"/><path d="M192.879,63.742a.376.376,0,0,1-.335-.212.437.437,0,0,1,.137-.574l17.566-11.041a.369.369,0,0,1,.526.157.437.437,0,0,1-.137.574L193.071,63.687A.342.342,0,0,1,192.879,63.742Z" transform="translate(-186.619 -41.743)" fill="#e0e0e0"/><path d="M192.879,69.162a.376.376,0,0,1-.335-.212.437.437,0,0,1,.137-.574l17.566-11.041a.369.369,0,0,1,.526.157.437.437,0,0,1-.137.574L193.071,69.107A.342.342,0,0,1,192.879,69.162Z" transform="translate(-186.619 -43.459)" fill="#e0e0e0"/><path d="M192.879,74.581a.376.376,0,0,1-.335-.212.437.437,0,0,1,.137-.574l17.566-11.041a.362.362,0,0,1,.526.157.437.437,0,0,1-.137.574L193.071,74.519A.41.41,0,0,1,192.879,74.581Z" transform="translate(-186.619 -45.175)" fill="#e0e0e0"/></g><g transform="translate(26.694)"><path d="M252.294,26.593a1.578,1.578,0,0,0-1.715.143L227.157,41.46v.97L251,27.495a.9.9,0,0,1,.936-.143,1.093,1.093,0,0,1,.355.957V45.656a4.168,4.168,0,0,1-1.681,3.163l-4.045,2.549-2.644,9.771a.13.13,0,0,1-.109.1.116.116,0,0,1-.123-.082l-2.535-6.388-16.118,10.1a.9.9,0,0,1-.936.143,1.093,1.093,0,0,1-.355-.957V58.412l-.417.232-.355.219v5.193a1.893,1.893,0,0,0,.752,1.7,1.257,1.257,0,0,0,.683.191,2,2,0,0,0,1.025-.335l15.319-9.648,2.2,5.521a.881.881,0,0,0,.875.588.916.916,0,0,0,.806-.683l2.549-9.449L251,49.55a5.015,5.015,0,0,0,2.05-3.895V28.28a1.893,1.893,0,0,0-.758-1.688Z" transform="translate(-222.967 -26.405)" fill="#e0e0e0"/><path d="M231.95,53.094a.376.376,0,0,1-.335-.205.437.437,0,0,1,.144-.574l17.566-11.041a.369.369,0,0,1,.526.15.444.444,0,0,1-.143.574L232.141,53.04A.328.328,0,0,1,231.95,53.094Z" transform="translate(-225.689 -31.097)" fill="#e0e0e0"/><path d="M231.95,58.494a.376.376,0,0,1-.335-.205.437.437,0,0,1,.144-.574l17.566-11.041a.369.369,0,0,1,.526.15.444.444,0,0,1-.143.574L232.141,58.453a.328.328,0,0,1-.191.041Z" transform="translate(-225.689 -32.807)" fill="#e0e0e0"/><path d="M231.95,63.934a.376.376,0,0,1-.335-.205.437.437,0,0,1,.144-.574l17.566-11.041a.369.369,0,0,1,.526.15.444.444,0,0,1-.143.574L232.141,63.88A.328.328,0,0,1,231.95,63.934Z" transform="translate(-225.689 -34.53)" fill="#e0e0e0"/></g></g><g transform="translate(107.758 120.664)"><g transform="translate(0 0)"><g transform="translate(0 91.897)"><path d="M329.978,318.154h0c-1.828-14.456-7.384-34.835-16.13-42.159h0c-9.646-10.206-22.51-8.565-31.843-5.232L281.11,319c0,7.4,10.953,13.407,24.459,13.407C319.437,332.285,330.675,326.372,329.978,318.154Z" transform="translate(-186.652 -268.209)" fill="#455a64"/><path d="M261.443,337.76h0c0-17.755-7.489-37.663-10.53-43.96-6.511-13.467-17.256-26.3-45.382-18.463-17.514,4.881-33.8,12.424-45.837,18.359a30.934,30.934,0,0,0-5.3,3.365c-2.91,2.24-4.815,6.66-5.342,9.816-1.691,10.1-2.6,18.941-3.146,26.441a21.021,21.021,0,0,0-.165,2.487h0c-1.136,9.882,1.279,16.053,13.44,23.059,24.332,14.044,60.535,14.132,83.9,1.872C255.667,354.132,261.372,343.349,261.443,337.76Z" transform="translate(-125.49 -270.346)" fill="#fb8c00"/><path d="M143.264,310.71c-18.118,8.894-23.141,12.38-26.479,31.052-2.2,12.386-7.274,36.954-7.686,39.864s2.536,7.467,6.835,9.948c8.587,4.941,26.808,4.628,35.752-.933a12.922,12.922,0,0,0,6.44-9.558h0l2.141-24.519S161.14,315.184,143.264,310.71Z" transform="translate(-109.06 -287.376)" fill="#455a64"/></g><g transform="translate(35.762)"><path d="M260.675,143.234c4.277-10.612-.587-24.387-6.231-30.745-8.164-9.223-20.566-12.946-39.057-11.277-14.06,1.268-27.753,7.511-29.982,22.038-13.692,4.776-12.2,21.412-9.152,29.532,6.182,16.471,17.459,29.312,21.154,39.721Z" transform="translate(-174.199 -100.825)" fill="#263238"/><path d="M261.262,197.59c-2,8.1-5.545,13.665-12.935,15.032a85.545,85.545,0,0,1-11.491.917l-.73,12.743c4.826,3.634,10.98,14.274-.291,17.02s-33.644-5.282-41.863-16.789l.549-33.951s-3.9,5.951-11.529,1.279c-5.232-3.228-10.014-12.479-6.495-20.566,3.492-7.944,12.578-7.291,16.015-2.893,2.026,2.6,2.965,6.791,7.033,6.039,3.009-.549,3.788-2.893,4.48-4.837,1.235-3.4,2.07-7.763,2-15.263,2.042-1.1,4.392-2.4,5.688-4.65,1.647-2.882,1.521-6.7,6.039-11.529,6.83-7.307,33.4-8.735,39.974,1.1,3.151,5.968,4.628,22.411,5,31.492C263.113,183.765,262.964,190.815,261.262,197.59Z" transform="translate(-174.682 -115.904)" fill="#c8856a"/><path d="M257.614,260.535c-8.235-.231-25.074-3.8-29.6-8.268s-6.671-13.8-6.671-13.8.994,11.837,4.546,16.976,12.227,7.11,17.47,8.323a79.839,79.839,0,0,0,13.972,1.7Z" transform="translate(-195.459 -162.901)" fill="#af6152"/><path d="M268.2,193.589a3.442,3.442,0,1,1-3.5-3.519,3.492,3.492,0,0,1,3.5,3.519Z" transform="translate(-213.486 -141.073)" fill="#263238"/><path d="M269.293,231.78l13.94,3.964a7.137,7.137,0,0,1-8.828,5.227,7.593,7.593,0,0,1-5.111-9.191Z" transform="translate(-216.972 -159.883)" fill="#af6152"/><path d="M270.814,237.62a6.544,6.544,0,0,1,6.039,6.226,6.978,6.978,0,0,1-2.267-.225,7.439,7.439,0,0,1-5.216-5.792,6.48,6.48,0,0,1,1.444-.209Z" transform="translate(-217.12 -162.517)" fill="#ffa8a7"/><path d="M316.309,190.387a3.464,3.464,0,1,1-3.53-3.547,3.519,3.519,0,0,1,3.53,3.547Z" transform="translate(-235.164 -139.616)" fill="#263238"/><path d="M317.333,176.124,308,173.648a4.733,4.733,0,0,1,5.8-3.58A5.04,5.04,0,0,1,317.333,176.124Z" transform="translate(-234.541 -131.986)" fill="#263238"/><path d="M254.209,179.255l8.433-4.661a4.733,4.733,0,0,0-6.5-2.064A5.045,5.045,0,0,0,254.209,179.255Z" transform="translate(-210.018 -132.904)" fill="#263238"/><path d="M288.67,183.54l3.02,22.691,12.518-3.365A47.515,47.515,0,0,0,288.67,183.54Z" transform="translate(-225.824 -138.128)" fill="#af6152"/></g></g></g><g transform="translate(41.375 108.016)"><g transform="translate(0 0)"><path d="M338.1,193.868h-1.708a.444.444,0,0,1,0-.888H338.1a.444.444,0,1,1,0,.888Z" transform="translate(-136.788 -160.778)" fill="#26aab7"/><path d="M383.738,193.868h-3.614a.444.444,0,0,1,0-.888h3.594a.444.444,0,0,1,0,.888Zm-7.195,0h-3.6a.444.444,0,0,1,0-.888h3.6a.444.444,0,0,1,0,.888Zm-7.195,0h-3.573a.444.444,0,1,1,0-.888h3.6a.444.444,0,0,1,0,.888Zm-7.195,0h-3.6a.444.444,0,1,1,0-.888h3.6a.444.444,0,0,1,0,.888Zm-7.195,0h-3.6a.444.444,0,0,1,0-.888h3.6a.444.444,0,0,1,0,.888Zm-7.195,0h-3.6a.444.444,0,0,1,0-.888h3.6a.444.444,0,1,1,0,.888Z" transform="translate(-139.249 -160.778)" fill="#26aab7"/><path d="M409.062,193.868h-1.708a.444.444,0,0,1,0-.888h1.708a.444.444,0,0,1,0,.888Z" transform="translate(-159.265 -160.778)" fill="#26aab7"/><path d="M339.762,243.118h-1.708a.444.444,0,1,1,0-.888h1.708a.444.444,0,0,1,0,.888Z" transform="translate(-137.314 -176.378)" fill="#26aab7"/><path d="M366.879,243.118h-3.109a.444.444,0,0,1,0-.888h3.109a.444.444,0,0,1,0,.888Zm-6.224,0h-3.109a.444.444,0,0,1,0-.888h3.109a.444.444,0,0,1,0,.888Zm-6.218,0h-3.109a.444.444,0,0,1,0-.888h3.129a.444.444,0,0,1,0,.888Zm-6.224,0H345.1a.444.444,0,0,1,0-.888h3.109a.444.444,0,0,1,0,.888Z" transform="translate(-139.547 -176.378)" fill="#26aab7"/><path d="M383.232,244.8a.444.444,0,0,1-.444-.444v-1.264h-1.264a.444.444,0,0,1,0-.888h1.708a.444.444,0,0,1,.444.444v1.708A.444.444,0,0,1,383.232,244.8Z" transform="translate(-151.083 -176.368)" fill="#26aab7"/><path d="M384.024,271.222a.444.444,0,0,1-.444-.444v-3.027a.444.444,0,1,1,.888,0v3.027A.444.444,0,0,1,384.024,271.222Zm0-6.054a.444.444,0,0,1-.444-.444V261.7a.444.444,0,1,1,.888,0v3.02a.444.444,0,0,1-.444.444Zm0-6.047a.444.444,0,0,1-.444-.444v-3.027a.444.444,0,1,1,.888,0v3.027a.444.444,0,0,1-.444.444Zm0-6.047a.444.444,0,0,1-.444-.444V249.6a.444.444,0,1,1,.888,0v3.027A.444.444,0,0,1,384.024,253.075Z" transform="translate(-151.875 -178.573)" fill="#26aab7"/><path d="M385.732,287.176h-1.708a.451.451,0,0,1-.444-.444v-1.708a.444.444,0,1,1,.888,0v1.257h1.264a.451.451,0,0,1,0,.9Z" transform="translate(-151.875 -189.792)" fill="#26aab7"/><path d="M400.057,287.965h-3.04a.451.451,0,0,1,0-.9h3.027a.451.451,0,0,1,0,.9Zm-6.054,0h-3.027a.451.451,0,0,1,0-.9H394a.451.451,0,0,1,0,.9Z" transform="translate(-154.092 -190.581)" fill="#26aab7"/><path d="M410.4,287.965H408.7a.451.451,0,0,1,0-.9H410.4a.451.451,0,0,1,0,.9Z" transform="translate(-159.705 -190.581)" fill="#26aab7"/><path d="M166.652,222.8h-1.708a.444.444,0,0,1,0-.888h1.708a.444.444,0,0,1,0,.888Z" transform="translate(-82.482 -169.942)" fill="#26aab7"/><path d="M157.37,222.8h-3.936a.444.444,0,1,1,0-.888h3.936a.444.444,0,1,1,0,.888Z" transform="translate(-78.836 -169.942)" fill="#26aab7"/><path d="M146.882,222.8h-1.708a.444.444,0,1,1,0-.888h1.708a.444.444,0,0,1,0,.888Z" transform="translate(-76.22 -169.942)" fill="#26aab7"/><path d="M116.444,179.9a.444.444,0,0,1-.444-.444v-3.635a.444.444,0,1,1,.888,0v3.635a.444.444,0,0,1-.444.444Zm0-7.263a.444.444,0,0,1-.444-.444v-3.628a.444.444,0,0,1,.888,0v3.628a.444.444,0,0,1-.444.444Zm0-7.256a.444.444,0,0,1-.444-.444V161.31a.444.444,0,1,1,.888,0v3.628A.444.444,0,0,1,116.444,165.382Zm0-7.256a.444.444,0,0,1-.444-.444v-3.628a.444.444,0,1,1,.888,0v3.628a.444.444,0,0,1-.444.444Z" transform="translate(-67.12 -148.308)" fill="#26aab7"/><path d="M116.444,148.412A.451.451,0,0,1,116,148v-1.708a.444.444,0,0,1,.888,0V148a.451.451,0,0,1-.444.41Z" transform="translate(-67.12 -145.85)" fill="#26aab7"/><path d="M100.442,297.058H98.734a.444.444,0,1,1,0-.888h1.708a.444.444,0,1,1,0,.888Z" transform="translate(-61.51 -193.463)" fill="#26aab7"/><path d="M162.821,297.058h-3.334a.444.444,0,1,1,0-.888h3.334a.444.444,0,1,1,0,.888Zm-6.669,0h-3.334a.444.444,0,1,1,0-.888h3.334a.444.444,0,1,1,0,.888Zm-6.675,0h-3.334a.444.444,0,1,1,0-.888h3.334a.444.444,0,0,1,0,.888Zm-6.669,0h-3.334a.444.444,0,1,1,0-.888h3.321a.444.444,0,1,1,0,.888Zm-6.669,0h-3.334a.444.444,0,1,1,0-.888h3.334a.444.444,0,1,1,0,.888Zm-6.669,0H126.13a.444.444,0,1,1,0-.888h3.341a.444.444,0,1,1,0,.888Zm-6.675,0h-3.334a.444.444,0,1,1,0-.888H122.8a.444.444,0,1,1,0,.888Zm-6.669,0h-3.334a.444.444,0,1,1,0-.888h3.355a.444.444,0,1,1,0,.888Zm-6.669,0h-3.334a.444.444,0,1,1,0-.888h3.334a.444.444,0,1,1,0,.888Z" transform="translate(-63.851 -193.463)" fill="#26aab7"/><path d="M70.434,241.4a.444.444,0,0,1-.437-.417v-3.416a.444.444,0,1,1,.888,0v3.416A.444.444,0,0,1,70.434,241.4Zm0-6.792a.444.444,0,0,1-.437-.458v-3.416a.444.444,0,1,1,.888,0v3.416a.444.444,0,0,1-.451.458Zm0-6.833a.444.444,0,0,1-.444-.444v-3.416a.444.444,0,1,1,.888,0v3.416a.444.444,0,0,1-.444.478Zm0-6.792a.444.444,0,0,1-.444-.444v-3.416a.444.444,0,1,1,.888,0v3.416a.444.444,0,0,1-.444.478Zm0-6.8a.444.444,0,0,1-.444-.444v-3.416a.444.444,0,1,1,.888,0v3.416a.444.444,0,0,1-.444.478Zm0-6.792a.444.444,0,0,1-.444-.444v-3.416a.444.444,0,0,1,.888,0v3.416a.444.444,0,0,1-.444.478Zm0-6.8a.444.444,0,0,1-.444-.444v-3.416a.444.444,0,1,1,.888,0v3.416a.444.444,0,0,1-.444.478Zm0-6.792a.444.444,0,0,1-.444-.444v-3.416a.444.444,0,1,1,.888,0v3.416a.444.444,0,0,1-.444.478Zm0-6.8a.444.444,0,0,1-.444-.444v-3.416a.444.444,0,0,1,.888,0v3.416a.444.444,0,0,1-.444.478Z" transform="translate(-52.547 -157.522)" fill="#26aab7"/><path d="M70.434,177.919a.444.444,0,0,1-.444-.444v-1.681a.444.444,0,0,1,.888,0V177.5A.444.444,0,0,1,70.434,177.919Z" transform="translate(-52.547 -155.194)" fill="#26aab7"/><path d="M44.9,388.146a.451.451,0,0,1-.444-.444v-1.708a.444.444,0,1,1,.888,0V387.7A.444.444,0,0,1,44.9,388.146Z" transform="translate(-44.46 -221.774)" fill="#26aab7"/><path d="M44.9,372.706a.451.451,0,0,1-.444-.444v-3.635a.444.444,0,1,1,.888,0v3.635A.444.444,0,0,1,44.9,372.706Zm0-7.27a.451.451,0,0,1-.444-.444v-3.628a.444.444,0,1,1,.888,0v3.628a.444.444,0,0,1-.444.444Zm0-7.263a.451.451,0,0,1-.444-.444v-3.635a.444.444,0,1,1,.888,0v3.635A.444.444,0,0,1,44.9,358.173Z" transform="translate(-44.46 -211.67)" fill="#26aab7"/><path d="M44.9,348.436a.451.451,0,0,1-.444-.444v-1.708a.451.451,0,0,1,.444-.444h1.708a.444.444,0,1,1,0,.888H45.348V348A.444.444,0,0,1,44.9,348.436Z" transform="translate(-44.46 -209.196)" fill="#26aab7"/><path d="M81.121,346.728H77.9a.444.444,0,1,1,0-.888h3.225a.444.444,0,1,1,0,.888Zm-6.443,0H71.453a.444.444,0,1,1,0-.888h3.225a.444.444,0,1,1,0,.888Zm-6.443,0H65.01a.444.444,0,1,1,0-.888h3.225a.444.444,0,1,1,0,.888Zm-6.443,0H58.567a.444.444,0,1,1,0-.888h3.225a.444.444,0,1,1,0,.888Zm-6.443,0H52.124a.444.444,0,1,1,0-.888h3.225a.444.444,0,1,1,0,.888Z" transform="translate(-46.747 -209.196)" fill="#26aab7"/><path d="M101,346.728H99.294a.444.444,0,1,1,0-.888H101a.444.444,0,1,1,0,.888Z" transform="translate(-61.688 -209.196)" fill="#26aab7"/><path d="M101.98,341.17v7.27l6.764-3.635Z" transform="translate(-62.679 -207.717)" fill="#26aab7"/><path d="M428.634,347.067a.444.444,0,0,1-.444-.444v-3.69a.444.444,0,0,1,.888,0v3.717A.444.444,0,0,1,428.634,347.067Zm0-7.379a.444.444,0,0,1-.444-.444v-3.69a.444.444,0,1,1,.888,0v3.69A.444.444,0,0,1,428.634,339.688Z" transform="translate(-166.005 -205.797)" fill="#26aab7"/><path d="M428.634,368.657a.444.444,0,0,1-.444-.444v-3.69a.444.444,0,0,1,.888,0v3.69a.444.444,0,0,1-.444.444Zm0-7.379a.444.444,0,0,1-.444-.444v-3.69a.444.444,0,1,1,.888,0v3.69a.444.444,0,0,1-.444.444Z" transform="translate(-166.005 -212.636)" fill="#26aab7"/><path d="M428.634,380.828a.444.444,0,0,1-.444-.444v-1.64a.444.444,0,1,1,.888,0v1.64A.444.444,0,0,1,428.634,380.828Z" transform="translate(-166.005 -219.478)" fill="#26aab7"/><path d="M427.842,329.8a.444.444,0,0,1-.444-.444v-1.264h-1.264a.444.444,0,0,1,0-.888h1.708a.444.444,0,0,1,.444.444v1.708A.444.444,0,0,1,427.842,329.8Z" transform="translate(-165.213 -203.292)" fill="#26aab7"/><path d="M408.286,328.108h-3.163a.444.444,0,1,1,0-.888h3.163a.444.444,0,1,1,0,.888Zm-6.334,0h-3.17a.444.444,0,0,1,0-.888h3.17a.444.444,0,0,1,0,.888Zm-6.341,0h-3.17a.444.444,0,0,1,0-.888h3.17a.444.444,0,1,1,0,.888Zm-6.341,0H386.1a.444.444,0,1,1,0-.888h3.17a.444.444,0,1,1,0,.888Zm-6.334,0h-3.143a.444.444,0,0,1,0-.888h3.17a.444.444,0,1,1,0,.888Z" transform="translate(-150.535 -203.298)" fill="#26aab7"/><path d="M374.322,328.108h-1.708a.444.444,0,1,1,0-.888h1.708a.444.444,0,0,1,0,.888Z" transform="translate(-148.261 -203.298)" fill="#26aab7"/><path d="M377.644,322.26v7.277l-6.764-3.642Z" transform="translate(-147.852 -201.727)" fill="#26aab7"/><path d="M446.942,238.428h-1.708a.444.444,0,0,1,0-.888h1.708a.444.444,0,0,1,0,.888Z" transform="translate(-171.263 -174.892)" fill="#26aab7"/><path d="M430.584,238.428H426.71a.444.444,0,1,1,0-.888h3.874a.444.444,0,0,1,0,.888Zm-7.748,0h-3.874a.444.444,0,1,1,0-.888h3.874a.444.444,0,1,1,0,.888Zm-7.748,0h-3.874a.444.444,0,0,1,0-.888h3.874a.444.444,0,1,1,0,.888Z" transform="translate(-160.487 -174.892)" fill="#26aab7"/><path d="M404.752,237.636h-1.708a.444.444,0,0,1-.444-.444v-1.708a.444.444,0,1,1,.888,0v1.264h1.264a.444.444,0,0,1,0,.888Z" transform="translate(-157.899 -174.101)" fill="#26aab7"/><path d="M403.044,229.335a.444.444,0,0,1-.444-.444v-3.416a.444.444,0,1,1,.888,0v3.416A.444.444,0,0,1,403.044,229.335Z" transform="translate(-157.899 -170.93)" fill="#26aab7"/><path d="M402.252,220.1a.444.444,0,0,1-.444-.444v-1.264h-1.264a.444.444,0,1,1,0-.888h1.708a.444.444,0,0,1,.444.444v1.708a.444.444,0,0,1-.444.444Z" transform="translate(-157.108 -168.545)" fill="#26aab7"/><path d="M381.566,218.388H378.2a.444.444,0,1,1,0-.888h3.362a.444.444,0,0,1,0,.888Zm-6.73,0h-3.4a.444.444,0,0,1,0-.888h3.416a.444.444,0,0,1,0,.888Zm-6.737,0h-3.368a.444.444,0,1,1,0-.888H368.1a.444.444,0,0,1,0,.888Zm-6.737,0h-3.368a.444.444,0,0,1,0-.888h3.368a.444.444,0,1,1,0,.888Zm-6.73,0h-3.368a.444.444,0,1,1,0-.888h3.368a.444.444,0,0,1,0,.888Z" transform="translate(-141.498 -168.545)" fill="#26aab7"/><path d="M345.53,218.388h-1.735a.444.444,0,1,1,0-.888H345.5a.444.444,0,0,1,0,.888Z" transform="translate(-139.132 -168.545)" fill="#26aab7"/><path d="M348.2,212.93v7.277l-6.757-3.635Z" transform="translate(-138.527 -167.097)" fill="#26aab7"/><path d="M113.292,273.518h-1.708a.444.444,0,1,1,0-.888h1.708a.444.444,0,1,1,0,.888Z" transform="translate(-65.581 -186.007)" fill="#26aab7"/><path d="M153.386,273.518h-3.15a.444.444,0,1,1,0-.888h3.15a.444.444,0,0,1,0,.888Zm-6.306,0h-3.15a.444.444,0,0,1,0-.888h3.15a.444.444,0,0,1,0,.888Zm-6.306,0h-3.15a.444.444,0,0,1,0-.888h3.15a.444.444,0,1,1,0,.888Zm-6.306,0h-3.15a.444.444,0,1,1,0-.888h3.163a.444.444,0,0,1,0,.888Zm-6.306,0h-3.15a.444.444,0,0,1,0-.888h3.15a.444.444,0,0,1,0,.888Zm-6.306,0H118.7a.444.444,0,1,1,0-.888h3.15a.444.444,0,1,1,0,.888Z" transform="translate(-67.836 -186.007)" fill="#26aab7"/><path d="M175.792,272.726h-1.708a.444.444,0,0,1,0-.888h1.264v-1.264a.444.444,0,1,1,.888,0v1.708A.444.444,0,0,1,175.792,272.726Z" transform="translate(-85.377 -185.215)" fill="#26aab7"/><path d="M176.584,263.457a.444.444,0,0,1-.444-.444v-3.929a.444.444,0,0,1,.888,0v3.9a.444.444,0,0,1-.444.471Z" transform="translate(-86.169 -181.576)" fill="#26aab7"/><path d="M176.584,253a.444.444,0,0,1-.444-.444v-1.708a.444.444,0,1,1,.888,0v1.708A.444.444,0,0,1,176.584,253Z" transform="translate(-86.169 -178.966)" fill="#26aab7"/><path d="M178.737,252.214H171.46l3.642-6.764Z" transform="translate(-84.687 -177.398)" fill="#26aab7"/></g></g><g transform="translate(39.059 120.663)"><path d="M429.389,204.358a20,20,0,1,1,20-20A20,20,0,0,1,429.389,204.358Zm0-39.089a19.1,19.1,0,1,0,19.09,19.092,19.1,19.1,0,0,0-19.09-19.092Z" transform="translate(-157.734 -164.36)" fill="#26aab7"/><path d="M443.231,199.544H421.483a2.733,2.733,0,0,1-2.733-2.733V180.263a2.733,2.733,0,0,1,2.733-2.733h21.748a2.733,2.733,0,0,1,2.733,2.733V196.8a2.733,2.733,0,0,1-2.733,2.74Zm-21.748-21.338a2.05,2.05,0,0,0-2.05,2.05V196.8a2.05,2.05,0,0,0,2.05,2.05h21.748a2.05,2.05,0,0,0,2.05-2.05V180.263a2.05,2.05,0,0,0-2.05-2.05Z" transform="translate(-160.699 -168.532)" fill="#26aab7"/><path d="M444.506,199.774H422.212a.342.342,0,0,1-.342-.342v-6.491a.355.355,0,0,1,.1-.246l6.675-6.771a.342.342,0,0,1,.478,0l8.971,8.336L437,192.211a.355.355,0,0,1,.068-.424l3.027-2.678a.342.342,0,0,1,.458,0l4.154,3.84a.321.321,0,0,1,.109.253v6.211a.342.342,0,0,1-.307.362Zm-21.919-.683h21.577v-5.726l-3.819-3.519-2.59,2.3,1.954,3.608a.342.342,0,0,1-.54.41l-10.249-9.518-6.341,6.436Z" transform="translate(-161.687 -171.16)" fill="#26aab7"/><path d="M444.012,186.414a2,2,0,1,1,2-2A2,2,0,0,1,444.012,186.414Zm0-3.321a1.312,1.312,0,1,0,.935.384,1.319,1.319,0,0,0-.935-.384Z" transform="translate(-168.066 -170.077)" fill="#26aab7"/><path d="M107.486,233.288a20,20,0,1,1,19.972-20A20,20,0,0,1,107.486,233.288Zm0-39.089a19.09,19.09,0,1,0,19.131,19.09A19.09,19.09,0,0,0,107.486,194.2Z" transform="translate(-55.764 -173.523)" fill="#26aab7"/><path d="M112.955,228.585c-2.945,0-3.573-1.025-3.635-1.141a.314.314,0,0,1-.041-.157V225.8c0-.4-.328-1.141-1.9-2.4v-.034h0a8.773,8.773,0,1,1,11.246,0h0c-1.6,1.291-1.927,2.05-1.927,2.432v1.483a.314.314,0,0,1-.041.157C116.528,227.56,115.9,228.585,112.955,228.585Zm-2.993-1.414c.157.171.854.731,2.993.731s2.829-.553,3-.731V225.8c0-.82.683-1.756,2.145-2.931h0a8.09,8.09,0,1,0-10.344,0h0c1.489,1.2,2.166,2.118,2.166,2.938Z" transform="translate(-61.075 -178.14)" fill="#26aab7"/><path d="M115.226,242.93c-3.068,0-3.724-1.066-3.785-1.189a.314.314,0,0,1-.041-.157v-2.972a.335.335,0,0,1,.26-.328.321.321,0,0,1,.383.171h0s.553.82,3.184.82,3.184-.827,3.191-.834a.342.342,0,0,1,.383-.15.335.335,0,0,1,.253.321v2.972a.314.314,0,0,1-.041.157C118.943,241.864,118.287,242.93,115.226,242.93Zm-3.143-1.462c.164.178.9.779,3.143.779s2.965-.594,3.143-.779v-2.125a8.343,8.343,0,0,1-6.286,0Z" transform="translate(-63.347 -187.771)" fill="#26aab7"/><path d="M116.842,204.466a.348.348,0,0,1-.342-.342v-2.863a.348.348,0,0,1,.342-.342.342.342,0,0,1,.342.342v2.863A.342.342,0,0,1,116.842,204.466Z" transform="translate(-64.962 -175.94)" fill="#26aab7"/><path d="M124.461,206.793a.369.369,0,0,1-.171-.041.355.355,0,0,1-.13-.471l1.435-2.473a.342.342,0,1,1,.588.342l-1.428,2.46A.342.342,0,0,1,124.461,206.793Z" transform="translate(-67.375 -176.791)" fill="#26aab7"/><path d="M129.981,213.029a.355.355,0,0,1-.3-.171.349.349,0,0,1,.13-.465l2.473-1.428a.342.342,0,0,1,.342.588l-2.473,1.435a.39.39,0,0,1-.171.041Z" transform="translate(-69.124 -179.113)" fill="#26aab7"/><path d="M134.774,221.333h-2.863a.342.342,0,1,1,0-.683h2.863a.342.342,0,0,1,0,.683Z" transform="translate(-69.736 -182.19)" fill="#26aab7"/><path d="M132.224,230.389a.376.376,0,0,1-.171-.048l-2.473-1.428a.343.343,0,1,1,.342-.594l2.473,1.428a.348.348,0,0,1,.123.471A.342.342,0,0,1,132.224,230.389Z" transform="translate(-69.051 -184.604)" fill="#26aab7"/><path d="M108.547,206.806a.348.348,0,0,1-.3-.171l-1.428-2.473a.343.343,0,0,1,.594-.342l1.428,2.473a.349.349,0,0,1-.123.471A.39.39,0,0,1,108.547,206.806Z" transform="translate(-61.881 -176.804)" fill="#26aab7"/><path d="M102.537,213a.348.348,0,0,1-.171-.041l-2.46-1.462a.342.342,0,1,1,.342-.588l2.46,1.408a.379.379,0,0,1-.171.683Z" transform="translate(-59.643 -179.084)" fill="#26aab7"/><path d="M100.428,221.333H97.572a.342.342,0,1,1,0-.683h2.856a.342.342,0,1,1,0,.683Z" transform="translate(-58.858 -182.19)" fill="#26aab7"/><path d="M100.293,230.389a.342.342,0,0,1-.294-.171.348.348,0,0,1,.123-.471l2.48-1.428a.343.343,0,1,1,.342.594l-2.48,1.428A.376.376,0,0,1,100.293,230.389Z" transform="translate(-59.721 -184.604)" fill="#26aab7"/><path d="M113.492,229.409H113.4a.342.342,0,0,1-.239-.424,14.886,14.886,0,0,0-.123-4.3,7.584,7.584,0,0,0-.683-2.4,2.419,2.419,0,0,1-2.583-.6.97.97,0,0,1,.171-1.407,1.291,1.291,0,0,1,1.366-.143,3.177,3.177,0,0,1,1.367,1.3,3.455,3.455,0,0,0,.492-.294,4.782,4.782,0,0,0,1.018-.963,2.8,2.8,0,0,1-.547-2.159,1.032,1.032,0,0,1,1.934,0,2.808,2.808,0,0,1-.553,2.159,4.92,4.92,0,0,0,1.018.963,3.878,3.878,0,0,0,.492.294,3.15,3.15,0,0,1,1.367-1.3,1.285,1.285,0,0,1,1.367.143.97.97,0,0,1,.171,1.408,2.419,2.419,0,0,1-2.583.6,7.6,7.6,0,0,0-.642,2.4,14.3,14.3,0,0,0-.123,4.3.353.353,0,0,1-.683.178,15.1,15.1,0,0,1,.1-4.564,8.343,8.343,0,0,1,.683-2.569,4.034,4.034,0,0,1-.56-.335,5.39,5.39,0,0,1-.991-.97,5.554,5.554,0,0,1-1.039.963,4.484,4.484,0,0,1-.56.335,8.555,8.555,0,0,1,.683,2.569,14.221,14.221,0,0,1,.1,4.564A.335.335,0,0,1,113.492,229.409Zm-2.733-8.718a.56.56,0,0,0-.342.116.294.294,0,0,0-.048.465,1.722,1.722,0,0,0,1.694.4,2.4,2.4,0,0,0-.984-.909.847.847,0,0,0-.335-.068Zm6.477.977a1.708,1.708,0,0,0,1.688-.4.294.294,0,0,0-.048-.465.635.635,0,0,0-.683-.048,2.316,2.316,0,0,0-.97.909Zm-2.6-3.642c-.232,0-.287.1-.314.191a1.961,1.961,0,0,0,.314,1.319,1.961,1.961,0,0,0,.314-1.319C114.92,218.128,114.865,218.026,114.639,218.026Z" transform="translate(-62.76 -181.143)" fill="#26aab7"/><path d="M61.069,307.6a20,20,0,1,1,20-20A20,20,0,0,1,61.069,307.6Zm0-39.089A19.1,19.1,0,1,0,80.159,287.6a19.1,19.1,0,0,0-19.09-19.095Z" transform="translate(-41.07 -197.061)" fill="#26aab7"/><path d="M72.674,317.819H62.057a1.367,1.367,0,0,1-1.367-1.367v-2.5a.342.342,0,0,1,.342-.342H73.7a.342.342,0,0,1,.342.342v2.5A1.367,1.367,0,0,1,72.674,317.819Zm-11.3-3.526v2.159a.683.683,0,0,0,.683.683H72.674a.683.683,0,0,0,.683-.683v-2.159Z" transform="translate(-47.285 -211.634)" fill="#26aab7"/><path d="M73.7,308.817H61.029a.348.348,0,0,1-.273-.137.335.335,0,0,1-.061-.3l3.273-11.807a.335.335,0,0,1,.328-.253h6.149a.342.342,0,0,1,.328.253L74.024,308.4a.342.342,0,0,1-.328.437Zm-12.223-.683H73.246L70.171,297H64.555Z" transform="translate(-47.282 -206.158)" fill="#26aab7"/><path d="M72.214,294.653H63.571a1.039,1.039,0,1,1,0-2.05h8.643a1.039,1.039,0,1,1,0,2.05Zm-8.643-1.367a.355.355,0,1,0,0,.683h8.643a.355.355,0,1,0,0-.683Z" transform="translate(-47.815 -204.976)" fill="#26aab7"/><path d="M71.358,289.223H65.209a.335.335,0,0,1-.328-.253l-1.367-4.94a.342.342,0,0,1,.062-.3.335.335,0,0,1,.266-.13H72.67a.335.335,0,0,1,.328.43l-1.367,4.94A.342.342,0,0,1,71.358,289.223Zm-5.876-.683H71.1l1.162-4.257H64.287Z" transform="translate(-48.175 -202.129)" fill="#26aab7"/><path d="M72.669,282.563H63.842a.348.348,0,0,1-.342-.342c0-2.221,4.168-3.854,4.639-4.031a.362.362,0,0,1,.239,0c.478.178,4.639,1.811,4.639,4.031a.342.342,0,0,1-.348.342Zm-8.438-.683H72.28c-.389-1.319-2.883-2.555-4.024-3.006C67.114,279.325,64.621,280.561,64.231,281.88Z" transform="translate(-48.175 -200.409)" fill="#26aab7"/><path d="M69.56,277.377a1.934,1.934,0,1,1,1.927-1.934,1.934,1.934,0,0,1-1.927,1.934Zm0-3.184a1.25,1.25,0,1,0,1.244,1.25,1.25,1.25,0,0,0-1.244-1.25Z" transform="translate(-49.48 -198.933)" fill="#26aab7"/><path d="M430.729,298.458a20,20,0,1,1,20-20A20,20,0,0,1,430.729,298.458Zm0-39.089a19.05,19.05,0,1,0,0-.007Z" transform="translate(-158.158 -194.166)" fill="#26aab7"/><path d="M432.5,295.8a.369.369,0,0,1-.232-.082s-2.371-2.111-3.6-3.273c-1.059-1-1.886-1.927-1.209-3.047a2.152,2.152,0,0,1,1.366-.8,3.765,3.765,0,0,0,1.838-1.045c1.073-1.189.191-2.883-.683-3.737s-2.549-1.735-3.744-.683a3.8,3.8,0,0,0-1.039,1.838,2.152,2.152,0,0,1-.806,1.366c-1.121.683-2.05-.15-3.04-1.209-1.168-1.23-3.252-3.58-3.273-3.608a.335.335,0,0,1,.1-.526s1.257-.683,3.724-2.357c3.006-2.05,2.385-3.088,1.927-3.854-.171-.28-.465-.376-.984-.519a3.867,3.867,0,0,1-1.852-.97c-.861-.861-1.08-2.5.485-4.059a3.567,3.567,0,0,1,2.255-1.148,2.31,2.31,0,0,1,1.811.683,3.949,3.949,0,0,1,.97,1.858c.143.512.239.813.512.977.765.458,1.811,1.08,3.86-1.92,1.681-2.473,2.344-3.717,2.35-3.731a.355.355,0,0,1,.246-.171.342.342,0,0,1,.287.075s2.371,2.111,3.608,3.273c1.059,1,1.879,1.927,1.209,3.04a2.166,2.166,0,0,1-1.367.806,3.819,3.819,0,0,0-1.838,1.045c-1.073,1.2-.362,2.733.683,3.737s2.549,1.742,3.744.683a3.7,3.7,0,0,0,1.039-1.831,2.152,2.152,0,0,1,.806-1.367c1.121-.683,2.05.15,3.04,1.209,1.168,1.23,3.252,3.58,3.273,3.608a.335.335,0,0,1-.1.526s-1.257.683-3.724,2.357c-3,2.05-2.378,3.088-1.927,3.854.171.273.471.376.984.519a3.888,3.888,0,0,1,1.858.97c.861.861,1.073,2.5-.492,4.059s-3.2,1.367-4.059.492a3.826,3.826,0,0,1-.97-1.858c-.15-.512-.246-.813-.519-.977-.765-.458-1.811-1.08-3.854,1.92a43.729,43.729,0,0,0-2.357,3.731.328.328,0,0,1-.239.171Zm-4.94-13.822a4.373,4.373,0,0,1,2.931,1.366c1.278,1.285,1.927,3.3.683,4.68a4.38,4.38,0,0,1-2.139,1.237c-.451.143-.813.26-.963.506-.3.512-.219.95,1.093,2.193.957.9,2.59,2.364,3.28,2.979.307-.547.991-1.674,2.18-3.416,2.221-3.259,3.628-2.808,4.783-2.125a2.111,2.111,0,0,1,.827,1.367,3.232,3.232,0,0,0,.793,1.558c.629.629,1.865.745,3.1-.485s1.121-2.467.492-3.1a3.218,3.218,0,0,0-1.558-.8,2.05,2.05,0,0,1-1.366-.82c-.683-1.148-1.141-2.549,2.125-4.783,1.742-1.182,2.87-1.865,3.416-2.18-.608-.683-2.05-2.323-2.972-3.273-1.244-1.312-1.681-1.4-2.193-1.093-.253.15-.362.506-.512.963a4.332,4.332,0,0,1-1.23,2.139c-1.278,1.148-3.116.875-4.68-.683s-1.838-3.416-.683-4.68A4.379,4.379,0,0,1,437.1,272.3c.451-.143.813-.26.963-.506.307-.512.219-.95-1.093-2.193-.957-.9-2.59-2.364-3.273-2.979-.314.547-1,1.674-2.186,3.416-2.221,3.259-3.621,2.808-4.783,2.125a2.05,2.05,0,0,1-.827-1.367,3.252,3.252,0,0,0-.8-1.558,1.654,1.654,0,0,0-1.278-.465,2.931,2.931,0,0,0-1.817.95c-1.23,1.237-1.121,2.473-.492,3.1a3.3,3.3,0,0,0,1.565.8,2.084,2.084,0,0,1,1.367.82c.683,1.148,1.141,2.549-2.118,4.783-1.749,1.182-2.876,1.865-3.416,2.18.608.683,2.05,2.323,2.979,3.273,1.244,1.319,1.681,1.4,2.193,1.093.246-.15.362-.506.506-.963a4.441,4.441,0,0,1,1.23-2.139A2.569,2.569,0,0,1,427.562,281.98Z" transform="translate(-160.458 -196.485)" fill="#26aab7"/></g></g></svg>