<svg xmlns="http://www.w3.org/2000/svg" xmlns:xlink="http://www.w3.org/1999/xlink" width="412.866" height="268.483" viewBox="0 0 412.866 268.483"><defs><filter id="a" x="0" y="0" width="412.866" height="268.483" filterUnits="userSpaceOnUse"><feOffset dy="5" input="SourceAlpha"/><feGaussianBlur stdDeviation="2.5" result="b"/><feFlood flood-opacity="0.251"/><feComposite operator="in" in2="b"/><feComposite in="SourceGraphic"/></filter></defs><g transform="translate(-39.521 -38.543)"><g transform="matrix(1, 0, 0, 1, 39.52, 38.54)" filter="url(#a)"><path d="M14.7,0H383.164a14.7,14.7,0,0,1,14.7,14.7V238.781a14.7,14.7,0,0,1-14.7,14.7H14.7A14.7,14.7,0,0,1,0,238.781V14.7A14.7,14.7,0,0,1,14.7,0Z" transform="translate(7.5 2.5)" fill="#fffaf3"/></g><g transform="translate(416.987 284.37)"><path d="M660.7,444.074a1.861,1.861,0,1,1-1.861-1.861A1.861,1.861,0,0,1,660.7,444.074Z" transform="translate(-656.979 -442.213)"/><path d="M669.553,444.074a1.861,1.861,0,1,1-1.862-1.861A1.861,1.861,0,0,1,669.553,444.074Z" transform="translate(-660.462 -442.213)"/><g transform="translate(-663.945 -442.213)" fill="none" stroke-miterlimit="10"><path d="M678.405,444.074a1.861,1.861,0,1,1-1.861-1.861A1.861,1.861,0,0,1,678.405,444.074Z" stroke="none"/><path d="M 676.5439453125 443.2130737304688 C 676.0692138671875 443.2130737304688 675.6830444335938 443.5992431640625 675.6830444335938 444.0739135742188 C 675.6830444335938 444.5488891601562 676.0692138671875 444.9353332519531 676.5439453125 444.9353332519531 C 677.0189208984375 444.9353332519531 677.4053344726562 444.5488891601562 677.4053344726562 444.0739135742188 C 677.4053344726562 443.5992431640625 677.0189208984375 443.2130737304688 676.5439453125 443.2130737304688 M 676.5439453125 442.2130737304688 C 677.572021484375 442.2130737304688 678.4053344726562 443.0464172363281 678.4053344726562 444.0739135742188 C 678.4053344726562 445.1019897460938 677.572021484375 445.9353332519531 676.5439453125 445.9353332519531 C 675.515869140625 445.9353332519531 674.6830444335938 445.1019897460938 674.6830444335938 444.0739135742188 C 674.6830444335938 443.0464172363281 675.515869140625 442.2130737304688 676.5439453125 442.2130737304688 Z" stroke="none" fill="#000"/></g></g><path d="M14.17,0h90.517a0,0,0,0,1,0,0V253.483a0,0,0,0,1,0,0H14.17A14.17,14.17,0,0,1,0,239.313V14.17A14.17,14.17,0,0,1,14.17,0Z" transform="translate(47.021 41.043)" fill="#1565c0"/><rect width="397.661" height="18.493" transform="translate(47.227 146.11)" fill="#e8e8e8" style="mix-blend-mode:multiply;isolation:isolate"/><rect width="397.661" height="18.493" transform="translate(47.227 184.206)" fill="#e8e8e8" style="mix-blend-mode:multiply;isolation:isolate"/><rect width="397.661" height="18.493" transform="translate(47.227 222.302)" fill="#e8e8e8" style="mix-blend-mode:multiply;isolation:isolate"/><rect width="397.661" height="18.493" transform="translate(47.227 260.398)" fill="#e8e8e8" style="mix-blend-mode:multiply;isolation:isolate"/><line y2="132.781" transform="translate(444.888 146.11)" fill="none" stroke="#e8e8e8" stroke-miterlimit="10" stroke-width="1" style="mix-blend-mode:multiply;isolation:isolate"/><path d="M312.724,230.816H254.6a.652.652,0,0,1-.652-.651v-6.13a.652.652,0,0,1,.652-.652h58.128a.65.65,0,0,1,.4.135l3.986,3.065a.652.652,0,0,1,0,1.034l-3.986,3.065A.653.653,0,0,1,312.724,230.816Z" transform="translate(-81.415 -71.743)" fill="#fb8c00"/><path d="M359.451,293.625H290a.652.652,0,0,1-.652-.652v-6.13a.652.652,0,0,1,.652-.651h69.453a.654.654,0,0,1,.4.135l3.985,3.065a.651.651,0,0,1,0,1.034l-3.985,3.065A.651.651,0,0,1,359.451,293.625Z" transform="translate(-95.344 -96.456)" fill="#fb8c00"/><path d="M570.194,387.838H533.475a.652.652,0,0,1-.652-.652v-6.13a.652.652,0,0,1,.652-.652h36.719a.653.653,0,0,1,.4.135l3.986,3.065a.652.652,0,0,1,0,1.034l-3.986,3.065A.653.653,0,0,1,570.194,387.838Z" transform="translate(-191.142 -133.524)" fill="#fb8c00"/><path d="M640.856,419.242h-39.5a.652.652,0,0,1-.652-.652v-6.13a.652.652,0,0,1,.652-.652h39.5a.653.653,0,0,1,.4.135l3.986,3.065a.652.652,0,0,1,0,1.034l-3.986,3.065A.65.65,0,0,1,640.856,419.242Z" transform="translate(-217.85 -145.88)" fill="#fb8c00"/><path d="M487.58,356.433h-58.7a.652.652,0,0,1-.652-.651v-6.13a.652.652,0,0,1,.652-.652h58.7a.65.65,0,0,1,.4.135l3.986,3.065a.652.652,0,0,1,0,1.034l-3.986,3.064A.65.65,0,0,1,487.58,356.433Z" transform="translate(-149.989 -121.168)" fill="#fb8c00"/><path d="M424.425,261.306H324.037a.652.652,0,0,1-.651-.652v-6.13a.652.652,0,0,1,.651-.652H424.425a.654.654,0,0,1,.4.135l3.986,3.065a.652.652,0,0,1,0,1.034l-3.986,3.065A.654.654,0,0,1,424.425,261.306Z" transform="translate(-108.738 -83.739)" fill="#fb8c00"/><path d="M529.268,325.029H428.881a.652.652,0,0,1-.652-.652v-6.129a.652.652,0,0,1,.652-.652H529.268a.653.653,0,0,1,.4.135l3.986,3.065a.652.652,0,0,1,0,1.034l-3.986,3.065A.65.65,0,0,1,529.268,325.029Z" transform="translate(-149.989 -108.812)" fill="#fb8c00"/><rect width="21.739" height="21.739" transform="translate(156.328 119.68)" fill="#e8e8e8" style="mix-blend-mode:multiply;isolation:isolate"/><rect width="21.739" height="21.739" transform="translate(182.499 119.68)" fill="#e8e8e8" style="mix-blend-mode:multiply;isolation:isolate"/><rect width="21.739" height="21.739" transform="translate(208.67 119.68)" fill="#e8e8e8" style="mix-blend-mode:multiply;isolation:isolate"/><rect width="21.739" height="21.739" transform="translate(234.841 119.68)" fill="#e8e8e8" style="mix-blend-mode:multiply;isolation:isolate"/><rect width="21.739" height="21.739" transform="translate(261.012 119.68)" fill="#e8e8e8" style="mix-blend-mode:multiply;isolation:isolate"/><rect width="21.739" height="21.739" transform="translate(287.183 119.68)" fill="#e8e8e8" style="mix-blend-mode:multiply;isolation:isolate"/><rect width="21.739" height="21.739" transform="translate(313.354 119.68)" fill="#e8e8e8" style="mix-blend-mode:multiply;isolation:isolate"/><rect width="21.739" height="21.739" transform="translate(339.525 119.68)" fill="#e8e8e8" style="mix-blend-mode:multiply;isolation:isolate"/><rect width="21.739" height="21.739" transform="translate(365.696 119.68)" fill="#e8e8e8" style="mix-blend-mode:multiply;isolation:isolate"/><rect width="21.739" height="21.739" transform="translate(391.867 119.68)" fill="#e8e8e8" style="mix-blend-mode:multiply;isolation:isolate"/><rect width="21.739" height="21.739" transform="translate(418.038 119.68)" fill="#e8e8e8" style="mix-blend-mode:multiply;isolation:isolate"/><line y2="132.781" transform="translate(180.493 146.11)" fill="none" stroke="#e8e8e8" stroke-miterlimit="10" stroke-width="1" stroke-dasharray="6 6" style="mix-blend-mode:multiply;isolation:isolate"/><line y2="132.781" transform="translate(206.664 146.11)" fill="none" stroke="#e8e8e8" stroke-miterlimit="10" stroke-width="1" stroke-dasharray="6 6" style="mix-blend-mode:multiply;isolation:isolate"/><line y2="132.781" transform="translate(232.835 146.11)" fill="none" stroke="#e8e8e8" stroke-miterlimit="10" stroke-width="1" stroke-dasharray="6 6" style="mix-blend-mode:multiply;isolation:isolate"/><line y2="132.781" transform="translate(259.006 146.11)" fill="none" stroke="#e8e8e8" stroke-miterlimit="10" stroke-width="1" stroke-dasharray="6 6" style="mix-blend-mode:multiply;isolation:isolate"/><line y2="132.781" transform="translate(285.177 146.11)" fill="none" stroke="#e8e8e8" stroke-miterlimit="10" stroke-width="1" stroke-dasharray="6 6" style="mix-blend-mode:multiply;isolation:isolate"/><line y2="132.781" transform="translate(311.348 146.11)" fill="none" stroke="#e8e8e8" stroke-miterlimit="10" stroke-width="1" stroke-dasharray="6 6" style="mix-blend-mode:multiply;isolation:isolate"/><line y2="132.781" transform="translate(337.519 146.11)" fill="none" stroke="#e8e8e8" stroke-miterlimit="10" stroke-width="1" stroke-dasharray="6 6" style="mix-blend-mode:multiply;isolation:isolate"/><line y2="132.781" transform="translate(363.69 146.11)" fill="none" stroke="#e8e8e8" stroke-miterlimit="10" stroke-width="1" stroke-dasharray="6 6" style="mix-blend-mode:multiply;isolation:isolate"/><line y2="132.781" transform="translate(389.861 146.11)" fill="none" stroke="#e8e8e8" stroke-miterlimit="10" stroke-width="1" stroke-dasharray="6 6" style="mix-blend-mode:multiply;isolation:isolate"/><line y2="132.781" transform="translate(416.032 146.11)" fill="none" stroke="#e8e8e8" stroke-miterlimit="10" stroke-width="1" stroke-dasharray="6 6" style="mix-blend-mode:multiply;isolation:isolate"/><rect width="47.91" height="15.486" rx="1.887" transform="translate(156.328 99.167)" fill="#26aab7"/><rect width="47.91" height="15.486" rx="1.887" transform="translate(208.88 99.167)" fill="#26aab7"/><rect width="47.91" height="15.486" rx="1.887" transform="translate(261.433 99.167)" fill="#26aab7"/><rect width="47.91" height="15.486" rx="1.887" transform="translate(313.985 99.167)" fill="#26aab7"/><rect width="47.91" height="15.486" rx="1.887" transform="translate(366.537 99.167)" fill="#26aab7"/><path d="M670.408,136.872h-8.818a1.144,1.144,0,0,0-1.145,1.145v13.2a1.144,1.144,0,0,0,1.145,1.145h8.818a1.145,1.145,0,0,0,.686-.228l8.815-6.6a1.145,1.145,0,0,0,0-1.832l-8.815-6.6A1.142,1.142,0,0,0,670.408,136.872Z" transform="translate(-241.356 -37.705)" fill="#26aab7"/><g transform="translate(426.312 130.116)"><path d="M673.222,188.33a.434.434,0,1,1-.434-.434A.434.434,0,0,1,673.222,188.33Z" transform="translate(-672.354 -187.896)"/><path d="M677.051,188.33a.434.434,0,1,1-.434-.434A.434.434,0,0,1,677.051,188.33Z" transform="translate(-673.861 -187.896)"/><path d="M680.881,188.33a.434.434,0,1,1-.434-.434A.434.434,0,0,1,680.881,188.33Z" transform="translate(-675.367 -187.896)"/></g><g transform="translate(71.689 71.628)"><rect width="53.363" height="45.443" rx="8.511" transform="translate(0 4.471)" fill="none" stroke="#fff" stroke-miterlimit="10" stroke-width="3"/><g transform="translate(7.694 15.519)"><rect width="4.468" height="4.468" rx="2.234" fill="#fff"/><rect width="4.468" height="4.468" rx="2.234" transform="translate(6.701)" fill="#fff"/><rect width="4.468" height="4.468" rx="2.234" transform="translate(13.403)" fill="#fff"/><rect width="4.468" height="4.468" rx="2.234" transform="translate(20.104)" fill="#fff"/><rect width="4.468" height="4.468" rx="2.234" transform="translate(26.806)" fill="#fff"/><rect width="4.468" height="4.468" rx="2.234" transform="translate(33.507)" fill="#fff"/><rect width="4.468" height="4.468" rx="2.234" transform="translate(0 7.818)" fill="#fff"/><rect width="4.468" height="4.468" rx="2.234" transform="translate(6.701 7.818)" fill="#fff"/><rect width="4.468" height="4.468" rx="2.234" transform="translate(13.403 7.818)" fill="#fff"/><rect width="4.468" height="4.468" rx="2.234" transform="translate(20.104 7.818)" fill="#fff"/><rect width="4.468" height="4.468" rx="2.234" transform="translate(26.806 7.818)" fill="#fff"/><rect width="4.468" height="4.468" rx="2.234" transform="translate(33.507 7.818)" fill="#fff"/><rect width="4.468" height="4.468" rx="2.234" transform="translate(0 15.637)" fill="#fff"/><rect width="4.468" height="4.468" rx="2.234" transform="translate(6.701 15.637)" fill="#fff"/><rect width="4.468" height="4.468" rx="2.234" transform="translate(13.403 15.637)" fill="#fff"/><rect width="4.468" height="4.468" rx="2.234" transform="translate(20.104 15.637)" fill="#fff"/><rect width="4.468" height="4.468" rx="2.234" transform="translate(26.806 15.637)" fill="#fff"/><rect width="4.468" height="4.468" rx="2.234" transform="translate(33.507 15.637)" fill="#fff"/><rect width="4.468" height="4.468" rx="2.234" transform="translate(0 23.455)" fill="#fff"/><rect width="4.468" height="4.468" rx="2.234" transform="translate(6.701 23.455)" fill="#fff"/><rect width="4.468" height="4.468" rx="2.234" transform="translate(13.403 23.455)" fill="#fff"/><rect width="4.468" height="4.468" rx="2.234" transform="translate(20.104 23.455)" fill="#fff"/><rect width="4.468" height="4.468" rx="2.234" transform="translate(26.806 23.455)" fill="#fff"/><rect width="4.468" height="4.468" rx="2.234" transform="translate(33.507 23.455)" fill="#fff"/></g><line y2="8.942" transform="translate(9.928 0)" fill="none" stroke="#fff" stroke-linecap="round" stroke-linejoin="round" stroke-width="5"/><line y2="8.942" transform="translate(43.435 0)" fill="none" stroke="#fff" stroke-linecap="round" stroke-linejoin="round" stroke-width="5"/></g></g></svg>