<svg xmlns="http://www.w3.org/2000/svg" xmlns:xlink="http://www.w3.org/1999/xlink" width="352" height="243.744" viewBox="0 0 352 243.744"><defs><clipPath id="a"><path d="M543.894,265.571,539.1,357.038l10.268.022,17.276.041,20.9.052,42.606.1,12.053.026,14.188.034,5.75-109.744L554.244,264Z" transform="translate(-539.1 -247.57)" fill="none"/></clipPath><clipPath id="b"><path d="M627.483,373.92l-3.428,64.852H510.94l28.291-28.354h26.282l27.772-23.766,18.378,14.45Z" transform="translate(-510.94 -373.92)" fill="none"/></clipPath><clipPath id="c"><path d="M631.109,463.151,624,454.817l-27.234,13.7h-27.3l-38.23,16.347H644.349l1.971-37.387Z" transform="translate(-531.23 -447.48)" fill="#fe561c"/></clipPath><clipPath id="d"><path d="M274.631,372.713l24.292-1.363,7.751,8.483-3.443,12.531-11.306-.373-4.686,20.047-10.5,2.737-3.947,42.987H245.769l-12.609-62.5C233.1,394.91,274.631,372.713,274.631,372.713Z" transform="translate(-233.16 -371.35)" fill="none"/></clipPath></defs><path d="M870,94.2a8.438,8.438,0,0,0-2.292.325,9.032,9.032,0,0,0-14.961-7.987,13.218,13.218,0,0,0-25.259,6.635,9.4,9.4,0,1,0-4.275,17.773h47.613V110.9A8.371,8.371,0,0,0,870,94.2Z" transform="translate(-543.514 -70.379)" fill="#edf6fc"/><path d="M945.2,231.827a4.521,4.521,0,0,1,1.217.172,4.745,4.745,0,0,1-.049-.657,4.8,4.8,0,0,1,7.994-3.584,7.023,7.023,0,0,1,13.442,2.812,4.555,4.555,0,0,1-.037.713,5,5,0,1,1,2.27,9.443H944.768V240.7a4.447,4.447,0,0,1,.437-8.875Z" transform="translate(-623.044 -161.219)" fill="#edf6fc"/><path d="M232.057,159.839a8.064,8.064,0,0,0-2.222.314,9.058,9.058,0,0,0,.09-1.2,8.767,8.767,0,0,0-14.607-6.549,12.822,12.822,0,0,0-24.572,5.134c0,.441.022.877.063,1.307a9.122,9.122,0,1,0-4.141,17.243h46.187v-.041a8.121,8.121,0,0,0-.8-16.2Z" transform="translate(-151.898 -111.795)" fill="#edf6fc"/><path d="M114.462,67.176a5.814,5.814,0,0,1,1.561.22,5.7,5.7,0,0,1-.063-.84A6.15,6.15,0,0,1,126.2,61.949a9,9,0,0,1,17.243,3.6c0,.31-.019.612-.049.915a6.4,6.4,0,1,1,2.909,12.1H113.9v-.026a5.7,5.7,0,0,1,.56-11.362Z" transform="translate(-108.874 -56.556)" fill="#edf6fc"/><path d="M817.5,348.152l-6.654,41.96-3.958,24.957L798.6,467.342c-.747,4.708-5.776,8.55-11.175,8.539l-43.226-.1-9.271-.022a10.531,10.531,0,0,1-2.319-.258,8.9,8.9,0,0,1-3.267-1.46,7.5,7.5,0,0,1-.956-.818l-1.845-1.867-1.232-1.247-.848-.859h0l.9-1.072.747-.874h0l.306.168a.852.852,0,0,1,.034-.291L734,419.393l5.929-37.465.784-4.8.041-.265.329-2.065h0l4.234-26.771a8.661,8.661,0,0,1,1.438-3.528h0a11.051,11.051,0,0,1,2.121-2.289,8.782,8.782,0,0,1,.709-.534h0a1.069,1.069,0,0,0,.131-.1h0l.134-.086a12.645,12.645,0,0,1,1.494-.836c.176-.086.351-.164.53-.239a12.211,12.211,0,0,1,2.987-.821h0a11.558,11.558,0,0,1,1.613-.112h51.728l.833-.407h0l2.438-1.2.063.067h0l.022.022,3.891,3.939h0A6.9,6.9,0,0,1,817.5,348.152Z" transform="translate(-487.527 -232.839)" fill="#1966e6"/><path d="M876.605,698.62c-.332,0-.373.217-.116.489a1.8,1.8,0,0,0,1.083.493c.332,0,.373-.22.116-.489A1.77,1.77,0,0,0,876.605,698.62Z" transform="translate(-582.687 -458.886)" fill="#0030a6"/><path d="M871.525,698.6c-.332,0-.373.22-.116.489a1.758,1.758,0,0,0,1.083.493c.332,0,.373-.217.116-.489a1.812,1.812,0,0,0-1.083-.493Z" transform="translate(-579.504 -458.874)" fill="#0030a6"/><path d="M866.525,698.59c-.332,0-.373.217-.116.489a1.773,1.773,0,0,0,1.083.489c.329,0,.373-.217.116-.485A1.777,1.777,0,0,0,866.525,698.59Z" transform="translate(-576.371 -458.868)" fill="#0030a6"/><path d="M861.524,698.57c-.332,0-.373.217-.12.489a1.778,1.778,0,0,0,1.087.493c.329,0,.373-.217.116-.489A1.822,1.822,0,0,0,861.524,698.57Z" transform="translate(-573.237 -458.855)" fill="#0030a6"/><path d="M856.444,698.56c-.332,0-.373.217-.12.489a1.8,1.8,0,0,0,1.087.489c.329,0,.373-.216.116-.485a1.778,1.778,0,0,0-1.083-.493Z" transform="translate(-570.053 -458.849)" fill="#0030a6"/><path d="M851.4,698.54c-.332,0-.373.217-.12.489a1.8,1.8,0,0,0,1.083.493c.332,0,.373-.22.12-.489A1.778,1.778,0,0,0,851.4,698.54Z" transform="translate(-566.895 -458.836)" fill="#0030a6"/><path d="M846.355,698.53c-.332,0-.373.217-.116.485a1.776,1.776,0,0,0,1.083.493c.332,0,.373-.217.116-.489A1.773,1.773,0,0,0,846.355,698.53Z" transform="translate(-565.138 -458.83)" fill="#0030a6"/><path d="M880.527,702.62c-.329,0-.373.217-.116.485a1.758,1.758,0,0,0,1.083.493c.332,0,.373-.217.116-.489a1.773,1.773,0,0,0-1.083-.489Z" transform="translate(-585.146 -461.393)" fill="#0030a6"/><path d="M875.525,702.6c-.332,0-.373.217-.116.489a1.8,1.8,0,0,0,1.083.493c.332,0,.373-.22.116-.489A1.759,1.759,0,0,0,875.525,702.6Z" transform="translate(-582.01 -461.38)" fill="#0030a6"/><path d="M870.465,702.58c-.332,0-.373.22-.116.489a1.759,1.759,0,0,0,1.083.493c.332,0,.373-.217.116-.489A1.8,1.8,0,0,0,870.465,702.58Z" transform="translate(-578.84 -461.368)" fill="#0030a6"/><path d="M865.425,702.57c-.332,0-.373.217-.116.489a1.8,1.8,0,0,0,1.083.493c.332,0,.373-.22.116-.489A1.77,1.77,0,0,0,865.425,702.57Z" transform="translate(-575.682 -461.361)" fill="#0030a6"/><path d="M860.385,702.55c-.332,0-.373.22-.116.489a1.758,1.758,0,0,0,1.083.493c.332,0,.373-.217.116-.489A1.822,1.822,0,0,0,860.385,702.55Z" transform="translate(-572.523 -461.349)" fill="#0030a6"/><path d="M855.345,702.54c-.332,0-.373.217-.116.485a1.758,1.758,0,0,0,1.083.493c.328,0,.373-.217.116-.485A1.777,1.777,0,0,0,855.345,702.54Z" transform="translate(-569.365 -461.343)" fill="#0030a6"/><path d="M850.3,702.52c-.332,0-.373.217-.116.489a1.759,1.759,0,0,0,1.079.493c.332,0,.373-.22.12-.489A1.8,1.8,0,0,0,850.3,702.52Z" transform="translate(-568.575 -461.33)" fill="#0030a6"/><path d="M841.524,698.51c-.332,0-.373.216-.12.489a1.822,1.822,0,0,0,1.086.493c.332,0,.373-.22.116-.489a1.777,1.777,0,0,0-1.083-.493Z" transform="translate(-562.147 -458.817)" fill="#0030a6"/><path d="M845.465,702.51c-.332,0-.373.217-.116.489a1.785,1.785,0,0,0,1.083.489c.332,0,.373-.217.116-.489A1.773,1.773,0,0,0,845.465,702.51Z" transform="translate(-564.587 -461.324)" fill="#0030a6"/><path d="M836.687,698.5c-.329,0-.373.217-.116.485a1.759,1.759,0,0,0,1.083.493c.332,0,.373-.217.116-.489A1.774,1.774,0,0,0,836.687,698.5Z" transform="translate(-559.155 -458.811)" fill="#0030a6"/><path d="M840.627,702.49c-.329,0-.373.217-.116.489a1.823,1.823,0,0,0,1.087.493c.328,0,.373-.22.116-.489A1.777,1.777,0,0,0,840.627,702.49Z" transform="translate(-561.593 -461.311)" fill="#0030a6"/><path d="M783.594,698.22c-.332,0-.373.217-.12.489a1.822,1.822,0,0,0,1.087.493c.329,0,.373-.22.116-.489A1.777,1.777,0,0,0,783.594,698.22Z" transform="translate(-526.293 -458.636)" fill="#0030a6"/><path d="M778.524,698.2c-.332,0-.373.22-.12.489a1.777,1.777,0,0,0,1.086.493c.329,0,.373-.217.116-.489A1.822,1.822,0,0,0,778.524,698.2Z" transform="translate(-523.155 -458.623)" fill="#0030a6"/><path d="M773.525,698.19c-.332,0-.373.217-.116.489a1.792,1.792,0,0,0,1.083.489c.332,0,.373-.217.119-.485A1.777,1.777,0,0,0,773.525,698.19Z" transform="translate(-520.062 -458.617)" fill="#0030a6"/><path d="M768.465,698.17c-.332,0-.373.22-.116.489a1.777,1.777,0,0,0,1.083.493c.332,0,.373-.217.116-.489a1.8,1.8,0,0,0-1.083-.493Z" transform="translate(-516.93 -458.604)" fill="#0030a6"/><path d="M763.425,698.16c-.332,0-.373.217-.116.485a1.77,1.77,0,0,0,1.083.493c.332,0,.373-.217.116-.489A1.774,1.774,0,0,0,763.425,698.16Z" transform="translate(-513.811 -458.598)" fill="#0030a6"/><path d="M758.385,698.14c-.332,0-.373.217-.116.489a1.8,1.8,0,0,0,1.083.493c.332,0,.373-.22.116-.489A1.759,1.759,0,0,0,758.385,698.14Z" transform="translate(-510.691 -458.585)" fill="#0030a6"/><path d="M753.345,698.13c-.332,0-.373.217-.116.485a1.759,1.759,0,0,0,1.083.493c.332,0,.373-.217.116-.489A1.785,1.785,0,0,0,753.345,698.13Z" transform="translate(-507.572 -458.579)" fill="#0030a6"/><path d="M787.525,702.22c-.332,0-.373.217-.116.485a1.759,1.759,0,0,0,1.083.493c.332,0,.373-.217.116-.489A1.774,1.774,0,0,0,787.525,702.22Z" transform="translate(-528.727 -461.142)" fill="#0030a6"/><path d="M782.525,702.2c-.332,0-.373.217-.116.489a1.8,1.8,0,0,0,1.083.493c.332,0,.373-.22.116-.489A1.77,1.77,0,0,0,782.525,702.2Z" transform="translate(-525.632 -461.13)" fill="#0030a6"/><path d="M777.454,702.18c-.332,0-.373.22-.12.489a1.778,1.778,0,0,0,1.087.493c.328,0,.373-.217.116-.489a1.821,1.821,0,0,0-1.083-.493Z" transform="translate(-522.493 -461.117)" fill="#0030a6"/><path d="M772.407,702.17c-.329,0-.373.217-.116.489a1.8,1.8,0,0,0,1.087.489c.329,0,.373-.217.116-.485A1.777,1.777,0,0,0,772.407,702.17Z" transform="translate(-519.371 -461.111)" fill="#0030a6"/><path d="M767.367,702.15c-.329,0-.373.22-.116.489a1.777,1.777,0,0,0,1.086.493c.329,0,.373-.217.116-.489A1.822,1.822,0,0,0,767.367,702.15Z" transform="translate(-516.251 -461.098)" fill="#0030a6"/><path d="M762.327,702.14c-.329,0-.373.217-.116.489a1.785,1.785,0,0,0,1.086.489c.329,0,.373-.217.116-.485A1.777,1.777,0,0,0,762.327,702.14Z" transform="translate(-513.132 -461.092)" fill="#0030a6"/><path d="M757.285,702.12c-.332,0-.373.22-.116.489a1.811,1.811,0,0,0,1.083.493c.332,0,.373-.217.116-.489a1.758,1.758,0,0,0-1.083-.493Z" transform="translate(-510.011 -461.079)" fill="#0030a6"/><path d="M748.527,698.11c-.329,0-.373.217-.116.489a1.822,1.822,0,0,0,1.083.493c.332,0,.373-.22.12-.489A1.778,1.778,0,0,0,748.527,698.11Z" transform="translate(-504.591 -458.567)" fill="#0030a6"/><path d="M752.455,702.11c-.332,0-.373.217-.116.485a1.759,1.759,0,0,0,1.083.493c.332,0,.373-.216.116-.489A1.792,1.792,0,0,0,752.455,702.11Z" transform="translate(-507.021 -461.073)" fill="#0030a6"/><path d="M743.675,698.09c-.332,0-.373.22-.116.489a1.759,1.759,0,0,0,1.083.493c.332,0,.373-.216.116-.489A1.812,1.812,0,0,0,743.675,698.09Z" transform="translate(-501.587 -458.554)" fill="#0030a6"/><path d="M747.617,702.09c-.329,0-.373.22-.116.489a1.822,1.822,0,0,0,1.083.493c.332,0,.373-.22.116-.489A1.759,1.759,0,0,0,747.617,702.09Z" transform="translate(-504.028 -461.061)" fill="#0030a6"/><path d="M809.337,339.309l-8.3,52.452-2.009,12.669-8.588,54.077c-.747,4.708-5.78,8.55-11.179,8.535l-25.509-.052-12.971-.034h0l-12.46-.026h-1.55a6.465,6.465,0,0,1-.713-.026,10.057,10.057,0,0,1-2.789-.582,8.513,8.513,0,0,1-1.867-.948,7.65,7.65,0,0,1-.84-.653h0a7.025,7.025,0,0,1-.769-.8c-.075-.093-.153-.19-.224-.291a6.1,6.1,0,0,1-.373-.556.138.138,0,0,0-.026-.045c-.06-.1-.12-.209-.175-.317s-.112-.217-.161-.321-.09-.2-.127-.306a.257.257,0,0,1,0-.034c-.041-.1-.078-.209-.116-.314a.234.234,0,0,0,0-.026c-.037-.116-.071-.232-.108-.351a7.069,7.069,0,0,1-.157-3.017l2.259-14.271,1.632-10.316,1.9-12.109,3.771-23.829,3.644-23.038.512-3.233,1.034-6.527.792-5,3.293-20.827c.747-4.708,5.772-8.558,11.175-8.547h5.873l18.564.03H801.6l.224.019a3.588,3.588,0,0,1,.444.045l.276.041.157.026h.071a1.682,1.682,0,0,1,.232.041l.119.022.288.067.127.034.269.071h0c.123.034.246.075.373.116s.224.078.332.123l.06.022.317.131h0l.347.161a7.915,7.915,0,0,1,2.345,1.732l.064.067h0l.022.022A6.882,6.882,0,0,1,809.337,339.309Z" transform="translate(-483.622 -228.309)" fill="#347edf"/><path d="M811.326,343.193l-.265,1.647-8.815,55.634-5.477,34.553-2.916,18.382-1.419,8.98a7.414,7.414,0,0,1-2.774,4.436,9.85,9.85,0,0,1-6.112,2.263l-25.177-.06H731.045a7.335,7.335,0,0,1-.747-.037,5.294,5.294,0,0,1-3.435-1.512,3.861,3.861,0,0,1-.836-3.237l3.36-21.335,9.405-59.446h0l4.977-31.439h0l1.094-6.908a1.232,1.232,0,0,1,.037-.2,7.922,7.922,0,0,1,3.633-4.891,9.749,9.749,0,0,1,5.227-1.613h8.483l32.454.049h11.616a7.781,7.781,0,0,1,1.236.1,5.638,5.638,0,0,1,2.24.855,3.939,3.939,0,0,1,.691.59A3.823,3.823,0,0,1,811.326,343.193Z" transform="translate(-488.463 -233.171)" fill="#edf6fc"/><path d="M793.752,344.1a1.867,1.867,0,0,1-.411-1.587l.676-4.268H785.53a9.745,9.745,0,0,0-5.227,1.613,7.938,7.938,0,0,0-3.633,4.891h18.195A2.292,2.292,0,0,1,793.752,344.1Z" transform="translate(-521.921 -233.071)" fill="#c6d8f6"/><path d="M791.515,344.7l-.078.418-.164.84h0l-.175.9-.1.418h6.09l.373-1.893.131-.683Zm.026,1.075.164-.836h5.619L797,346.571l-.09.47h-5.619Z" transform="translate(-530.974 -237.113)" fill="#fff"/><path d="M796.3,347.361h4.033l.456-2.341h-4.032Z" transform="translate(-534.287 -237.313)" fill="#fff"/><path d="M789.64,347.566h.721l.34-1.736h-.724Z" transform="translate(-530.218 -237.821)" fill="#fff"/><path d="M946.57,348.845h.81l.243-1.255h-.81Z" transform="translate(-626.706 -238.924)" fill="#fff"/><path d="M942,347.817h.81l.362-1.867h-.81Z" transform="translate(-623.842 -237.896)" fill="#fff"/><path d="M937.53,346.539h.814l.508-2.629h-.81Z" transform="translate(-621.041 -236.618)" fill="#fff"/><path d="M919.614,348.857a.183.183,0,0,0,.12-.045,1.329,1.329,0,0,1,.859-.373.923.923,0,0,1,.68.373.157.157,0,0,0,.22,0,.179.179,0,0,0,.06-.224,1.176,1.176,0,0,0-.889-.478,1.666,1.666,0,0,0-1.12.474.157.157,0,0,0-.041.22A.123.123,0,0,0,919.614,348.857Z" transform="translate(-609.727 -239.25)" fill="#fff"/><path d="M918.729,346.726a.186.186,0,0,0,.123-.049,2.132,2.132,0,0,1,1.348-.59h0a1.688,1.688,0,0,1,1.21.59.153.153,0,0,0,.224,0,.16.16,0,0,0,.045-.22,1.867,1.867,0,0,0-1.415-.687h0a2.494,2.494,0,0,0-1.591.683.161.161,0,0,0-.041.224A.127.127,0,0,0,918.729,346.726Z" transform="translate(-609.181 -237.783)" fill="#fff"/><path d="M921.139,344.439a.175.175,0,0,0,.116-.045.161.161,0,0,0,.052-.22,2.7,2.7,0,0,0-2.016-1.034h-.037a3.7,3.7,0,0,0-2.364,1.031.164.164,0,0,0-.037.224.153.153,0,0,0,.22,0,3.264,3.264,0,0,1,2.147-.933,2.457,2.457,0,0,1,1.811.93.131.131,0,0,0,.108.049Z" transform="translate(-608.066 -236.135)" fill="#fff"/><path d="M920.9,350.6a.3.3,0,0,0,.3.373.482.482,0,0,0,.452-.373.3.3,0,0,0-.306-.373A.485.485,0,0,0,920.9,350.6Z" transform="translate(-610.617 -240.578)" fill="#fff"/><path d="M831.468,339.808c-1.12.848-1.426,2.113-.717,2.83s2.181.616,3.286-.228,1.426-2.113.717-2.834S832.573,338.96,831.468,339.808Z" transform="translate(-555.367 -233.602)" fill="#002880"/><path d="M832.795,341.042c-.84.642-1.12,1.576-.616,2.083a1.972,1.972,0,0,0,2.431-.243c.84-.642,1.12-1.579.616-2.087A1.948,1.948,0,0,0,832.795,341.042Z" transform="translate(-556.35 -234.463)" fill="#0030a6"/><path d="M865.036,340.742a.7.7,0,0,0-.1,0h-.063l-15.01-.022H849.8a2.132,2.132,0,0,0-1.221.459c-.695.53-.922,1.307-.5,1.736a.971.971,0,0,0,.474.239.854.854,0,0,0,.153.03h.4l14.633.064h.06a2.109,2.109,0,0,0,1.307-.467,1.632,1.632,0,0,0,.732-1.21.784.784,0,0,0-.235-.586A1.027,1.027,0,0,0,865.036,340.742Z" transform="translate(-570.282 -234.619)" fill="#002880"/><path d="M853.12,342.993a2.1,2.1,0,0,0-1.225.456,1.665,1.665,0,0,0-.706,1.146l14.633.064h.06a2.11,2.11,0,0,0,1.307-.467,1.632,1.632,0,0,0,.732-1.2H853.21A.233.233,0,0,0,853.12,342.993Z" transform="translate(-566.939 -236.04)" fill="#0030a6"/><path d="M833.412,343.361c-.34.261-.452.642-.25.851a.81.81,0,0,0,.993-.1c.343-.261.455-.642.25-.851A.81.81,0,0,0,833.412,343.361Z" transform="translate(-557.086 -236.133)" fill="#002880"/><path d="M837.388,342.418c-.194.149-.254.373-.142.478a.448.448,0,0,0,.553-.056c.194-.146.258-.373.142-.478A.448.448,0,0,0,837.388,342.418Z" transform="translate(-559.652 -235.604)" fill="#002880"/><path d="M809.842,698.958a.455.455,0,0,0-.34-.168H800.94c-.284,0-.373.31-.19.549L801.9,700.7a.452.452,0,0,0,.336.168H810.8c.284,0,.373-.31.19-.549Z" transform="translate(-536.886 -458.993)" fill="#0030a6"/><path d="M662.147,247.57l-.019.344-.351,6.695-5.369,102.433-.015.273h0L539.1,357.038l4.574-87.222.22-4.242,118.249-18Z" transform="translate(-373.332 -176.249)" fill="#edf6fc"/><path d="M669.813,247.57l-.37,7.034L561.679,268.487l-6.747.87-3.592.459.224-4.245L561.914,264Z" transform="translate(-380.963 -176.249)" fill="#0030a6"/><path d="M853.01,256.113l1.908,1.975a.232.232,0,0,1-.045.314.224.224,0,0,1-.314.037l-1.908-1.971a.239.239,0,0,1,.045-.317A.228.228,0,0,1,853.01,256.113Z" transform="translate(-567.829 -181.573)" fill="#fff"/><path d="M854.39,255.437a.224.224,0,0,1,.314-.037.235.235,0,0,1-.045.317l-2.539,2.505a.228.228,0,0,1-.314.037.235.235,0,0,1,.041-.317Z" transform="translate(-567.298 -181.126)" fill="#fff"/><path d="M841.7,256.641a2.084,2.084,0,0,0-1.714,1.688,1.12,1.12,0,0,0,1.288,1.329,2.084,2.084,0,0,0,1.718-1.688,1.12,1.12,0,0,0-1.292-1.329Zm.952,1.37a1.609,1.609,0,0,1-1.329,1.307.855.855,0,0,1-.993-1.031,1.617,1.617,0,0,1,1.326-1.307.863.863,0,0,1,1,1.031Z" transform="translate(-561.329 -181.923)" fill="#fff"/><path d="M827.978,264.5l2.711-.329a.127.127,0,0,1,.146.153.235.235,0,0,1-.194.19l-2.711.325a.123.123,0,0,1-.146-.149A.235.235,0,0,1,827.978,264.5Z" transform="translate(-553.792 -186.648)" fill="#fff"/><path d="M853.24,357.019l3.4-.261L862.384,247.1l-3.394.179Z" transform="translate(-568.223 -175.955)" fill="#c6d8f6"/><path d="M867.65,254.314l3.394-.187.37-7.027-3.394.179Z" transform="translate(-577.253 -175.955)" fill="#002880"/><g transform="translate(165.767 71.321)" clip-path="url(#a)"><path d="M648.673,373.92h-7.912l-.792,14.954L632.853,401.1l-5.429-4.268h0l-12.949-10.182H606.56l4.126,3.241-23.978,20.525H560.421L532.13,438.772H645.249l1.975-37.387h.008Z" transform="translate(-534.732 -326.743)" fill="#002880"/><path d="M659.6,447.48l-.456,8.621-6.84,7.049-7.113-8.334-27.238,13.7h-27.3L552.42,484.866H665.554l1.96-37.387Z" transform="translate(-547.447 -372.838)" fill="#c5431a"/><path d="M627.483,373.92l-1.908,36.087-1.52,28.765H510.94l28.291-28.354h26.282l27.772-23.766,18.378,14.45Z" transform="translate(-521.454 -326.743)" fill="#0030a6"/><g transform="translate(-10.514 47.177)" clip-path="url(#b)"><rect width="32.014" height="0.314" transform="translate(80.493 44.682) rotate(-86.99)" fill="#fff"/><rect width="32.014" height="0.314" transform="translate(73.745 50.132) rotate(-87.05)" fill="#fff"/><rect width="32.014" height="0.314" transform="translate(67.217 50.11) rotate(-87.06)" fill="#fff"/><rect width="32.014" height="0.314" transform="translate(60.724 50.122) rotate(-87.05)" fill="#fff"/><rect width="32.014" height="0.314" transform="translate(54.21 50.112) rotate(-87.06)" fill="#fff"/><rect width="32.014" height="0.314" transform="translate(47.729 50.135) rotate(-87.05)" fill="#fff"/><rect width="32.014" height="0.314" transform="translate(41.112 51.719) rotate(-86.98)" fill="#fff"/><rect width="32.014" height="0.314" transform="translate(34.374 56.05) rotate(-86.99)" fill="#fff"/><rect width="32.014" height="0.314" transform="translate(27.794 57.503) rotate(-86.99)" fill="#fff"/><rect width="32.014" height="0.314" transform="translate(20.959 64.218) rotate(-87.05)" fill="#fff"/><rect width="32.014" height="0.314" transform="translate(14.196 69.288) rotate(-86.99)" fill="#fff"/><rect width="32.014" height="0.314" transform="translate(7.55 71.538) rotate(-86.99)" fill="#fff"/><rect width="32.014" height="0.314" transform="translate(1.106 70.63) rotate(-86.98)" fill="#fff"/><rect width="32.014" height="0.314" transform="translate(86.975 44.683) rotate(-86.99)" fill="#fff"/><rect width="32.014" height="0.314" transform="translate(92.658 44.684) rotate(-86.99)" fill="#fff"/><rect width="32.014" height="0.314" transform="translate(98.337 44.68) rotate(-86.99)" fill="#fff"/><rect width="32.014" height="0.314" transform="translate(104.057 44.707) rotate(-86.99)" fill="#fff"/><rect width="32.014" height="0.314" transform="translate(110.05 38.695) rotate(-86.98)" fill="#fff"/></g><path d="M652.3,475.46l-7.113-8.33h-7.916l.295,3.835-19.617,9.868h-27.3L552.42,497.18H657.627l1.516-28.765Z" transform="translate(-547.447 -385.151)" fill="#c5431a"/><path d="M631.109,463.151,624,454.817l-27.234,13.7h-27.3l-38.23,16.347H644.349l1.971-37.387Z" transform="translate(-534.168 -372.838)" fill="#fe561c"/><g transform="translate(-2.938 74.642)" clip-path="url(#c)"><rect width="32.014" height="0.314" transform="translate(93.356 37.556) rotate(-86.99)" fill="#fff"/><rect width="35.116" height="0.314" transform="translate(86.565 42.983) rotate(-86.99)" fill="#fff"/><rect width="32.014" height="0.314" transform="translate(80.097 43.013) rotate(-86.99)" fill="#fff"/><rect width="32.014" height="0.314" transform="translate(73.561 42.985) rotate(-86.99)" fill="#fff"/><rect width="32.014" height="0.314" transform="translate(67.055 42.988) rotate(-86.99)" fill="#fff"/><rect width="32.014" height="0.314" transform="translate(60.583 43.012) rotate(-86.99)" fill="#fff"/><rect width="32.014" height="0.314" transform="translate(53.991 44.591) rotate(-87.05)" fill="#fff"/><rect width="32.014" height="0.314" transform="translate(47.236 48.921) rotate(-86.99)" fill="#fff"/><rect width="32.014" height="0.314" transform="translate(40.668 50.368) rotate(-87.06)" fill="#fff"/><rect width="32.014" height="0.314" transform="translate(34.001 53.217) rotate(-86.99)" fill="#fff"/><rect width="32.014" height="0.314" transform="translate(27.351 56.579) rotate(-86.99)" fill="#fff"/><rect width="32.054" height="0.314" transform="translate(20.236 57.665) rotate(-87.138)" fill="#fff"/><rect width="34.105" height="0.314" transform="translate(13.969 63.481) rotate(-87.06)" fill="#fff"/><rect width="32.014" height="0.314" transform="translate(99.872 37.58) rotate(-86.99)" fill="#fff"/><rect width="32.014" height="0.314" transform="translate(105.521 37.554) rotate(-86.99)" fill="#fff"/><rect width="40.459" height="0.314" transform="translate(111.2 37.555) rotate(-86.99)" fill="#fff"/></g><path d="M619.744,313.65l-.25.638-19.759,3.883,5.365,6.515,1.2,1.456.022.026-1.456,1.221h-.034l-.885-.452-12.695,11.13-1.912,1.68a3.145,3.145,0,0,0-1.9-.258,3.427,3.427,0,0,0-.96.325,3.15,3.15,0,0,0-.306.183l-.747-.526L577.735,334a2.987,2.987,0,0,0-3.024-3.136h-2.58l-.037.687h-.8l-9.951,19.789-.1.19a3.394,3.394,0,0,0-1.617,2.692v.157l-2.823,1.038-7.6,2.8a2.953,2.953,0,0,0-1.049-.717,3.069,3.069,0,0,0-1.165-.224h-2.987l-.112,2.091a3.386,3.386,0,0,0-.25,1.1,3.105,3.105,0,0,0,.138,1.09l-.052.948h-1.52l-.426.508-10.294,12.322a2.92,2.92,0,0,0-.747-.134h-3.129l-7.718-7.322a3.251,3.251,0,0,0,.332-1.27,2.987,2.987,0,0,0-2.83-3.181h-3.189l-.108,2.095a3.251,3.251,0,0,0-.25,1.094,2.988,2.988,0,0,0,.134,1.09v.4l-.687.747-.355-.09-.978-.239-.291.332-11.2,12.743h-3.293l-.108,2.091a3.291,3.291,0,0,0-.25,1.1,3.107,3.107,0,0,0,0,.53l-2.546,1.281L482,392.717q.235.243.414.414c.261.254.414.373.414.373h1.807l11.332-5.687.87-.437-.03.549H500a3.409,3.409,0,0,0,3.166-3.185,3.08,3.08,0,0,0-.373-1.665l12.183-13.292h2.095a3.246,3.246,0,0,0,.889-.183c1.9,1.8,5.754,5.373,7.15,6.665l.515.478.437-.239.063-.03,1.206,1.139-.022.071a3.209,3.209,0,0,0-.1.661,3.019,3.019,0,0,0,.134,1.094l-.108,2.095h3.189a3.4,3.4,0,0,0,3.162-3.181,3.143,3.143,0,0,0-.183-1.24l12-13.472h1.262a3.4,3.4,0,0,0,3.36-3.189,3.235,3.235,0,0,0,0-.508l8.091-2.987,1.176-.429.508-.187-.131,1.057h2.987a3.4,3.4,0,0,0,3.36-3.189,3.02,3.02,0,0,0-.84-2.281h0l8.14-14.7h1.068a3.383,3.383,0,0,0,2.644-1.311l5.933,4.219,1.934,1.378a3.226,3.226,0,0,0-.254,1.12,2.929,2.929,0,0,0,.086.911,2.733,2.733,0,0,0,.123.4,2.987,2.987,0,0,0,.534.87l-.586,1.012h2.871a3.4,3.4,0,0,0,3.36-3.192,3.111,3.111,0,0,0-.123-1.06l2.412-2.024,12.434-10.417,1.774-1.494,4.563,5.537-.963,2.464h2.987l8.618-21.981Z" transform="translate(-503.32 -288.977)" fill="#1966e6"/><path d="M695.765,418.461a3.4,3.4,0,0,1-3.36,3.189h-2.987l.131-1.057-.508.187v-1.057l2.909-3.543h2.987a3.02,3.02,0,0,1,.829,2.281Z" transform="translate(-633.055 -353.224)" fill="#1966e6"/><path d="M757.721,382.69h3l-.19,3.592H757.62Z" transform="translate(-676.029 -332.239)" fill="#1966e6"/><path d="M763.548,389.45a3.4,3.4,0,0,1-3.36,3.192H757.32l.59-1.016a2.99,2.99,0,0,1-.534-.87l3.047-2.367h2.987a3.11,3.11,0,0,1,.138,1.06Z" transform="translate(-675.841 -335.811)" fill="#1966e6"/><path d="M605.641,342.634l-.9.747-1.467,1.232-.3.254-12.788,10.716-3.831,3.211h0l-2.726,2.285-.116-.082-.329-.235-2.83-2.012-7.841-5.6-2.151-1.527-9.708,17.549h0l-1.691,3.054-1.169.433-2.095.769-10.223,3.764-1.942.713-1.322,1.494-.31.351-.877.937h0L528.848,394.35l-3.017,3.387-.1-.09-2.953-2.774-8.311-7.841-.478-.452-1.572-1.494-.123-.116-.93,1.012-.583.638-12.549,13.707-2.24,2.438-.172.086-2.778,1.393-12.187,6.12q-.179-.172-.414-.414c-.269-.28-.586-.627-.933-1.038l12.736-6.392,2.614-1.307.646-.7,1.329-1.452.235-.258L509.526,385.2l2.737-2.987.295.273,2.785,2.632h0l8.55,8.065.6.575,1.247,1.18.026.022,1.867-2.091.407-.456,11.5-12.911,2.8-3.133.09-.1,2.225-.806,1.949-.717,8.483-3.125,2.535-.93,1.318-2.378,10.828-19.528,11.851,8.45,1.979,1.408,1.65-1.385.635-.53,2.517-2.11,13.363-11.2,1.77-1.493.9-.747Z" transform="translate(-501.76 -306.222)" fill="#347edf"/><path d="M803.68,335.631,812.3,313.65l-23.008,4.522Z" transform="translate(-695.874 -288.977)" fill="#347edf"/><path d="M519.96,498.738a3.4,3.4,0,0,1-3.36,3.189,2.987,2.987,0,0,1-3.021-3.189,3.4,3.4,0,0,1,3.36-3.189,2.987,2.987,0,0,1,3.021,3.189Z" transform="translate(-523.103 -402.959)" fill="#347edf"/><path d="M565.643,450.118a3.4,3.4,0,0,1-3.36,3.189,2.987,2.987,0,0,1-3.024-3.189,3.4,3.4,0,0,1,3.36-3.189,2.987,2.987,0,0,1,3.024,3.189Z" transform="translate(-551.727 -372.492)" fill="#347edf"/><path d="M601.423,481.642a3.4,3.4,0,0,1-3.36,3.189,2.987,2.987,0,0,1-3.024-3.189,3.4,3.4,0,0,1,3.36-3.192,2.987,2.987,0,0,1,3.024,3.192Z" transform="translate(-574.148 -392.243)" fill="#347edf"/><path d="M645.44,433.648a3.4,3.4,0,0,1-3.36,3.189,2.987,2.987,0,0,1-3.021-3.189,3.4,3.4,0,0,1,3.36-3.189,2.987,2.987,0,0,1,3.021,3.189Z" transform="translate(-601.732 -362.172)" fill="#347edf"/><path d="M688.273,416.938a3.4,3.4,0,0,1-3.36,3.189,2.987,2.987,0,0,1-3.024-3.189,3.4,3.4,0,0,1,3.36-3.189,2.987,2.987,0,0,1,3.024,3.189Z" transform="translate(-628.57 -351.701)" fill="#347edf"/><path d="M755.273,385.878a3.4,3.4,0,0,1-3.36,3.189,2.987,2.987,0,0,1-3.024-3.189,3.4,3.4,0,0,1,3.36-3.189,2.987,2.987,0,0,1,3.024,3.189Z" transform="translate(-670.553 -332.238)" fill="#347edf"/><path d="M720.81,362.9a3.4,3.4,0,0,1-3.36,3.189,2.987,2.987,0,0,1-3.021-3.189,3.4,3.4,0,0,1,3.36-3.192,2.987,2.987,0,0,1,3.021,3.192Z" transform="translate(-648.96 -317.839)" fill="#347edf"/></g><path d="M615.338,337.195a15.454,15.454,0,0,0-4.54-8.771c-5.134-4.91-12.99-5.463-19.83-2.05a22.774,22.774,0,0,0-6.011,4.361c-.161.157-.321.314-.47.474-7.636,8.114-8.267,20.032-1.393,26.622s18.669,5.351,26.308-2.763a23.125,23.125,0,0,0,3.8-5.358,20.185,20.185,0,0,0,2.139-12.516Zm-18.893,15.387a7.787,7.787,0,0,1-8.834-8.461,11.142,11.142,0,0,1,3.316-7.21,11.325,11.325,0,0,1,3.013-2.188,10.216,10.216,0,0,1,3.495-1.034,7.709,7.709,0,0,1,8.737,6.471,9.416,9.416,0,0,1,.112,1.994,10.5,10.5,0,0,1-1.2,4.268,11.31,11.31,0,0,1-8.64,6.15Z" transform="translate(-399.003 -224.268)" fill="#c6d8f6"/><path d="M603.54,326.35l2.987,8.349a10.216,10.216,0,0,1,3.495-1.034,7.709,7.709,0,0,1,8.737,6.471l9.152-2.957a15.454,15.454,0,0,0-4.54-8.771C618.236,323.486,610.38,322.934,603.54,326.35Z" transform="translate(-414.759 -224.252)" fill="#0030a6"/><path d="M587.783,363.516a7.787,7.787,0,0,1-8.834-8.461,11.142,11.142,0,0,1,3.316-7.21l-5.974-6.176c-.161.157-.321.314-.47.474-7.639,8.114-8.27,20.032-1.4,26.622s18.669,5.351,26.312-2.763a23.219,23.219,0,0,0,3.794-5.358l-8.1-3.278A11.322,11.322,0,0,1,587.783,363.516Z" transform="translate(-393.676 -235.214)" fill="#fe561c"/><path d="M587.45,334.351l5.974,6.176a11.324,11.324,0,0,1,3.013-2.188l-2.987-8.349A22.709,22.709,0,0,0,587.45,334.351Z" transform="translate(-404.99 -227.895)" fill="#fff"/><path d="M642.455,361.953a9.171,9.171,0,0,1,.112,1.994,10.5,10.5,0,0,1-1.187,4.279l8.1,3.278a20.184,20.184,0,0,0,2.14-12.5Z" transform="translate(-438.341 -246.073)" fill="#347edf"/><path d="M564.845,627.3l-18.225.153,14.984,3.024Z" transform="translate(-379.63 -414.196)" fill="#0030a6"/><path d="M553.49,597.355a9.871,9.871,0,0,0-1.471-.146c-3.409-.082-4.8,3.107-3.241,6.1a8.835,8.835,0,0,1,.373,6.269l-1.785-.041s1.7-2.427.821-4.746-2.8-6.5.172-7.807a5.227,5.227,0,0,1,5.13.37Z" transform="translate(-379.838 -394.884)" fill="#0030a6"/><path d="M548.7,596a9.9,9.9,0,0,0-1.475-.146c-3.405-.082-4.8,3.107-3.241,6.1a8.793,8.793,0,0,1,.373,6.269l-1.785-.045s1.7-2.423.818-4.742-2.8-6.5.175-7.807A5.228,5.228,0,0,1,548.7,596Z" transform="translate(-376.87 -394.037)" fill="#002880"/><path d="M554.88,601.249c-.03,2.953-2.449,5.3-1.172,8.864l-7.068-.96.049-.142,5.421.123a6.831,6.831,0,0,1,.859-5.974c2.016-3.26-1.93-6.381-1.93-6.381C553.525,597.235,554.91,598.755,554.88,601.249Z" transform="translate(-379.747 -395.071)" fill="#002880"/><path d="M559.64,602.6c-.03,2.95-2.449,5.3-1.172,8.864L551.4,610.5s.019-.049.049-.142l5.422.123a6.831,6.831,0,0,1,.859-5.974c2.016-3.26-1.93-6.381-1.93-6.381C558.285,598.6,559.67,600.109,559.64,602.6Z" transform="translate(-382.692 -395.917)" fill="#0030a6"/><path d="M543.9,627.4l-.205,28.769-23.224.194.291-4.4,1.613-24.378Z" transform="translate(-363.401 -414.258)" fill="#1966e6"/><path d="M590.01,628.028l2.024-.728,2.244,28.743-2.625.026Z" transform="translate(-406.627 -414.196)" fill="#1966e6"/><path d="M582.855,627.4l2.543.691,1.643,28.041-4.391.037Z" transform="translate(-402.071 -414.258)" fill="#347edf"/><path d="M462.74,615.64l21.988.187-18.075,3.648Z" transform="translate(-327.715 -406.889)" fill="#1966e6"/><path d="M499.72,579.517a11.325,11.325,0,0,1,1.777-.175c4.107-.1,5.787,3.734,3.909,7.359a10.517,10.517,0,0,0-.437,7.561l2.154-.049s-2.054-2.927-.99-5.728,3.36-7.841-.213-9.417A6.318,6.318,0,0,0,499.72,579.517Z" transform="translate(-350.716 -383.592)" fill="#1966e6"/><path d="M505.47,577.887a11.229,11.229,0,0,1,1.777-.175c4.107-.1,5.787,3.734,3.909,7.359a10.545,10.545,0,0,0-.441,7.561l2.154-.049s-2.05-2.927-.989-5.728,3.36-7.841-.209-9.417A6.317,6.317,0,0,0,505.47,577.887Z" transform="translate(-354.274 -382.571)" fill="#347edf"/><path d="M495,584.234c.037,3.562,2.957,6.392,1.415,10.694l8.528-1.161s-.022-.06-.06-.172l-6.542.153a8.226,8.226,0,0,0-1.034-7.2c-2.431-3.924,2.33-7.7,2.33-7.7C496.627,579.4,494.958,581.225,495,584.234Z" transform="translate(-347.778 -383.836)" fill="#347edf"/><path d="M489.229,585.864c.041,3.562,2.957,6.392,1.415,10.694l8.528-1.157s-.022-.063-.056-.175l-6.545.153a8.211,8.211,0,0,0-1.034-7.2c-2.434-3.924,2.33-7.7,2.33-7.7C490.868,581.047,489.2,582.855,489.229,585.864Z" transform="translate(-344.208 -384.857)" fill="#1966e6"/><path d="M477.48,615.77l.246,34.706,28.018.239-.351-5.313-1.949-29.411Z" transform="translate(-336.77 -406.971)" fill="#0030a6"/><path d="M460.639,616.517l-2.442-.877-2.707,34.683,3.17.026Z" transform="translate(-323.372 -406.889)" fill="#0030a6"/><path d="M469.028,615.77l-3.069.829-1.979,33.832,5.295.045Z" transform="translate(-328.624 -406.971)" fill="#002880"/><path d="M704.49,470.9c-.067-.03.448-.53.213-.694a.328.328,0,0,0-.037-.373,1.12,1.12,0,0,0-.631-.213A7.393,7.393,0,0,0,703,470.1c-.075.037-1.031.523-1.579.855.056-.288.063-.624-.049-.668-.273-.138-.295.119-.373.336a4.257,4.257,0,0,1-.642,1.079c-.067.052-.127.1-.187.157l-.273-.456a8.165,8.165,0,0,1-1.225.668c1.972-3.039,4.481-9.895,5.31-13.128l-.493-.161c.258-1.008.668-2.987.691-3.024.4-.945.19-1.3-.09-1.2-.067.022,0-.694-.3-.661a.336.336,0,0,0-.276-.254,1.1,1.1,0,0,0-.612.261,7.266,7.266,0,0,0-.452,1.045c-.03.075-.426,1.075-.616,1.684-.153-.254-.373-.512-.478-.47-.3.078-.146.284-.056.5a4.231,4.231,0,0,1,.232,1.232,1.134,1.134,0,0,1-.034.2v.041l-.5-.161c-.351,1.494-5.47,10.589-5.974,11.541-.254.108-4.854,2.24-7.277,3.207l-1.441.575c-.9-.594-2.52-1.52-2.52-1.52a6.828,6.828,0,0,1,.631-3.114,1.613,1.613,0,0,0,1.12-.3c1.777-1.639.127-5.526-.295-6.172,1.311-1.045,1.12-1.848.889-2.2-1.7-2.666-7.468-2.154-8.681,1.635a5.393,5.393,0,0,0,3.166,6.325,7.068,7.068,0,0,1-.952,2.057h0l-1.729-.041a7.471,7.471,0,0,0-1.7.164h0c-5.926.963-10.526,6.605-13.247,19.2-.022.09-.041.183-.06.273l11.172.03,9.794.022c.026-.093.049-.183.071-.276.747-2.9,1.493-5.354,2.035-7.057.161-.5.3-.93.422-1.292a6.972,6.972,0,0,0,1.008-.34h.116c2.912-.228,10.791-4.451,13.942-6.583l-.265-.444c.863-.582,2.472-1.785,2.52-1.811C704.688,471.412,704.758,471.008,704.49,470.9Zm-23.978-5.5Zm1.979,6.885h-.041a.7.7,0,0,1-.127,0h-.071a1.054,1.054,0,0,1,.243,0Z" transform="translate(-451.227 -305.383)" fill="#fff" opacity="0.2"/><path d="M745.939,448.379c-.09-.213-.243-.418.056-.5.187-.067.642.676.646.87-.134.478-.411.4-.47.863a4.256,4.256,0,0,0-.232-1.236Z" transform="translate(-503.1 -301.767)" fill="#fff"/><path d="M746.61,445.75a10.742,10.742,0,0,1,.3-1.43c.153-.564.638-1.785.672-1.867a7.192,7.192,0,0,1,.456-1.045,1.1,1.1,0,0,1,.612-.258.336.336,0,0,1,.273.254c.284-.034.228.683.295.661.276-.1.493.254.09,1.2-.022.056-.549,2.58-.784,3.36a10.455,10.455,0,0,1-1.915-.874Z" transform="translate(-503.559 -297.55)" fill="#fff"/><path d="M728.873,466.3a1.439,1.439,0,0,1,.1-.459c.945-2.3,5.937-10.219,6.542-12.777a7.938,7.938,0,0,0,1.99.724c-1.079,4.186-4.947,14.3-6.672,14.36A1.7,1.7,0,0,1,728.873,466.3Z" transform="translate(-492.498 -305.013)" fill="#fd5b88"/><path d="M695.294,490.062c1.927-1.258,8.991-3.573,12.161-5.328,3.887-2.151,4,1.329,3.032,2.36-2.546,2.718-10.828,8.961-12.366,7.789C697.448,494.375,694.943,490.29,695.294,490.062Z" transform="translate(-471.603 -324.429)" fill="#fd5b88"/><path d="M693.868,470.487a.59.59,0,0,1,.265-.474,42.6,42.6,0,0,1,5.7-2.524c2.412-.96,7.027-3.1,7.281-3.207.493-.956,5.6-10.059,5.974-11.541l2.987.963c-.952,3.685-4.066,12.068-6.094,14.159-2.083,2.21-10.936,9.417-13.038,7.819C696.228,475.146,693.808,471.36,693.868,470.487Z" transform="translate(-470.647 -304.813)" fill="#1966e6"/><path d="M661.71,695.377l1.7-.747s.3.553.549.915c.482.7,3.051,1.423,2.961,2.341-.045.463-1.06.784-1.867.747a5.534,5.534,0,0,1-1.889-.452,4.842,4.842,0,0,1-1.624-1.042,1.329,1.329,0,0,1,.041-1.075A1.025,1.025,0,0,1,661.71,695.377Z" transform="translate(-450.821 -456.386)" fill="#fe561c"/><path d="M664.149,694.63a.792.792,0,0,0,.075.922s-.03.344-.676.62a5.209,5.209,0,0,1-1.691-.108,7.093,7.093,0,0,1,.082-1.255Z" transform="translate(-451.112 -456.386)" fill="#fff"/><path d="M672.745,554a220.125,220.125,0,0,1-3.069,30.244,141.734,141.734,0,0,1-6.232,22.5c-.03.082-1.684.784-2.39-.164a107.514,107.514,0,0,0,1.893-22.918c-.433-9.708-1.419-19.005-2.117-19.673l.989-10.167C665.691,554.466,671.4,554.44,672.745,554Z" transform="translate(-450.356 -368.152)" fill="#002880"/><path d="M570.054,661.16l1.83.332s-.063.623-.056,1.064c0,.851,1.744,2.879,1.161,3.592-.295.373-1.318.063-1.957-.418a3.783,3.783,0,0,1-1.318-1.426c-.213-.579-.821-1.438-.769-1.766a1.326,1.326,0,0,1,.631-.874C569.837,661.212,570.054,661.16,570.054,661.16Z" transform="translate(-393.59 -435.413)" fill="#fe561c"/><path d="M573.275,660.682a1.12,1.12,0,0,0-.373.922s-.164.433-.855.3c-.373-.071-1.4-1.195-1.4-1.195a11.814,11.814,0,0,1,.747-1.072Z" transform="translate(-394.663 -434.461)" fill="#fff"/><path d="M602.511,543.44c2.864,2.681,10.26,10.324,11.623,10.709-.59.967-12.725,8.875-22.489,18.956a139.974,139.974,0,0,1-17.609,15.144c-.071.052-1.837-.284-1.9-1.464,0,0,9.028-8.039,14.323-18C590.324,561.526,592.661,556.6,602.511,543.44Z" transform="translate(-395.12 -361.647)" fill="#0030a6"/><path d="M693.232,475.508c-.06.217-1.12,2.4-.885,3.756-.482,1.12-3.678.373-4.107-1.774a12.633,12.633,0,0,0,1.557-4.451C690.017,473.294,692.418,475.448,693.232,475.508Z" transform="translate(-467.407 -317.533)" fill="#fff"/><path d="M691.185,462.684c1.277-.747,2.714-1.12,3.64,0,.332.4,2.188,4.533.34,6.239-.78.721-3.319.049-3.932-.978l-.84-1.411A2.71,2.71,0,0,1,691.185,462.684Z" transform="translate(-468.436 -310.601)" fill="#fff"/><path d="M664.29,494.839a.116.116,0,0,1,0,.03c-.082.325-.373,1.169-.773,2.412-1.348,4.182-3.958,12.889-4.275,21.678-2.207,2.039-10.559,3.08-17.116-1.314l1.314-7.893-2.987,7.307c-.448-.161-1.415-.344-1.774-.448,2.061-21.376,7.475-30.292,15.055-31.524.851-.142,3.435-.127,3.435-.127a7.649,7.649,0,0,0,2.49,2.24,2.065,2.065,0,0,0,1.617-.452s2.614,1.493,3.051,1.9C666.056,490.228,664.813,492.662,664.29,494.839Z" transform="translate(-436.459 -325.002)" fill="#347edf"/><path d="M682.427,484.973a7.649,7.649,0,0,0,2.49,2.24,2.1,2.1,0,0,0,1.62-.452s2.434,1.393,2.987,1.867c-.687,2.24-3.835,4.066-3.835,4.066s-3.879-5.313-6.721-7.572a7.469,7.469,0,0,1,1.7-.164Z" transform="translate(-461.597 -325.001)" fill="#1966e6"/><path d="M681.945,456.961c1.2-3.79,6.986-4.3,8.681-1.639.373.59.661,2.382-5.694,4.481a10.543,10.543,0,0,0,.885,3.693A5.357,5.357,0,0,1,681.945,456.961Z" transform="translate(-463.327 -305.386)" fill="#c6d8f6"/><path d="M689.375,472.561a1.367,1.367,0,0,1,.65-.261c.239.5.53,1.389.676,1.826a1.423,1.423,0,0,1-1.348-.31A1.008,1.008,0,0,1,689.375,472.561Z" transform="translate(-468.013 -317.07)" fill="#fff"/><path d="M684.071,504.167c-.082.325-.373,1.169-.773,2.412-.224.052-.463.1-.709.142-4.481.709-8.942-.205-11.616-2.64-2.05-1.867.851-5.227,2.054-4.033C675.469,502.487,680.73,503.652,684.071,504.167Z" transform="translate(-456.165 -334.3)" fill="#1966e6"/><path d="M744.616,485.643c.183.075.034.933-.093,1.083-.414.269-.571.022-.922.332a4.15,4.15,0,0,0,.642-1.079C744.317,485.751,744.339,485.5,744.616,485.643Z" transform="translate(-501.722 -325.405)" fill="#fff"/><path d="M744.039,485.361c.489-.325,1.661-.919,1.744-.96a6.778,6.778,0,0,1,1.031-.482,1.12,1.12,0,0,1,.631.209.336.336,0,0,1,.037.373c.235.161-.28.661-.213.691.269.108.2.512-.728.956-.056.03-2.121,1.572-2.819,2.009a10.374,10.374,0,0,1-.851-1.927,9.993,9.993,0,0,1,1.169-.87Z" transform="translate(-501.219 -324.351)" fill="#fff"/><path d="M670.385,489.279a.6.6,0,0,1,.515-.179,43.907,43.907,0,0,1,5.944,1.867,70.424,70.424,0,0,0,6.721,2.181,7.269,7.269,0,0,1,.844.231c1-.373,2.364-.866,3.8-1.367,3.144-1.1,7.057-2.461,8.3-3.342l1.6,2.7c-3.148,2.132-11.03,6.347-13.942,6.583-3.017.28-14.424-.175-14.935-2.763C669.074,494.334,669.761,489.913,670.385,489.279Z" transform="translate(-455.303 -327.327)" fill="#347edf"/><path d="M694.114,243.217c-3.073-1.087-22.082-.549-30.02,1.064-3.36.687-3.1,4.936-.056,6.1,8.114,3.121,18.486,3.263,25.629,2.655C695.944,252.488,697.433,244.39,694.114,243.217Z" transform="translate(-450.558 -173.166)" fill="#c5431a"/><path d="M725.776,314.86,724.54,316.5a7.413,7.413,0,0,1,.833.833c.478.638-.687,3.823.179,4.163.407.161,1.094-.78,1.393-1.546s.81-2.046.971-2.483c.209-.56.747-1.445.616-1.732-.329-.747-1.284-.336-1.815-.545C726.261,315.006,725.776,314.86,725.776,314.86Z" transform="translate(-489.885 -218.414)" fill="#347edf"/><path d="M724.27,316.164a3.861,3.861,0,0,1,.933.807s.12.273.489,0a8.663,8.663,0,0,0,.855-2.147c-.455-.187-1.363-.534-1.363-.534Z" transform="translate(-489.742 -218.057)" fill="#d1e3fb"/><path d="M704.118,235.7c-3.234-.422-23.344,4.641-30.767,7.875-3.159,1.378-2,5.47,1.214,5.974,8.588,1.359,20.163,1.251,27.01-.836C707.6,246.881,707.609,236.169,704.118,235.7Z" transform="translate(-456.616 -168.795)" fill="#fe561c"/><path d="M672.929,263.713l18.247,16.754a4.326,4.326,0,0,0,2.173-1.811s-6.385-9-13.946-18.942C674.419,253.157,668.661,259.8,672.929,263.713Z" transform="translate(-456.781 -182.124)" fill="#fe561c"/><path d="M645.773,322.035l-2.031-.295a7.627,7.627,0,0,1-.325,1.12c-.332.747-3.682,1.243-3.562,2.162.056.437,1.206.586,2.024.478.747-.1,2.18-.276,2.643-.344.59-.09,1.624-.045,1.815-.295.493-.65-.321-1.292-.4-1.867C645.881,322.532,645.773,322.035,645.773,322.035Z" transform="translate(-437.443 -222.726)" fill="#347edf"/><path d="M649.586,321.377a3.829,3.829,0,0,1-.254,1.206s-.183.239.228.433a8.8,8.8,0,0,0,2.3-.288c-.056-.485-.19-1.449-.19-1.449Z" transform="translate(-443.334 -222.437)" fill="#d1e3fb"/><path d="M653.014,250.216c-2.076,14.047-3.614,24.5-3.614,24.5a3.017,3.017,0,0,0,2.86.392s3.79-10.178,7.774-22.029C662.662,245.287,653.858,244.484,653.014,250.216Z" transform="translate(-443.295 -175.568)" fill="#c5431a"/><path d="M750.808,147.93c.452,3.207,1.24,3.443,2.24,4.387,4.917,4.675-3.233,12.493-4.085,9.208-.332-1.284,3.222-2.614-1.37-5.115-5.078-2.774-2.987-5.141-2.584-6.9,1.538-6.654-1.807-5.324-2.673-4.029-.515.769-.918.373-1.019-.3C740.917,142.392,749.3,137.288,750.808,147.93Z" transform="translate(-500.121 -109.772)" fill="#0030a6"/><path d="M680.153,234.316a3.863,3.863,0,0,0,1.12.291.526.526,0,0,1-.553.549,2.326,2.326,0,0,1-1.034-.818C679.657,234.018,679.967,234.223,680.153,234.316Z" transform="translate(-462.157 -167.85)" fill="#d1e3fb"/><path d="M675.5,236.306c.071-.045,1.1-.7,1.583-.937.411-.205.87-.329,1.326-.579a12.01,12.01,0,0,1,1.053,1.643c-.68.351-4.186,2.326-4.032,1.43,0-.063-.62.258-.65-.157a.373.373,0,0,1-.28-.2.467.467,0,0,1,.127-.6C674.773,236.773,675.3,236.452,675.5,236.306Z" transform="translate(-458.867 -168.241)" fill="#d1e3fb"/><path d="M694.115,193.133c.056-.254,1.057-7.774,3.039-11.519,1.053-1.983,4.7-2.58,4.7,1.221,0,2.442-2.815,9.148-4.458,11.422-1.553,2.214-8.614,6.534-11.8,8.039l-.952-1.729c1.288-.579,4.215-3.054,6.571-5.044C692.3,194.611,693.32,193.745,694.115,193.133Z" transform="translate(-465.019 -133.939)" fill="#d1e3fb"/><path d="M711.54,188.048a16.889,16.889,0,0,1,1.62-5.414c1.788-3.36,4.727-1.1,4.72,1.139a23.859,23.859,0,0,1-.459,5.545Z" transform="translate(-481.808 -134.489)" fill="#1966e6"/><path d="M731.3,162a11.688,11.688,0,0,0,.646,4.32c-.747,1.867-3.794,1.983-4.044.9.441-1.195-.142-3.36-.157-3.566C728.5,163.736,731.058,162.19,731.3,162Z" transform="translate(-491.869 -122.629)" fill="#fff"/><path d="M714.22,200.484c1.654,2.24,9,3.3,15.723.433l.306-4.219,1.329,9.745a1.828,1.828,0,0,0,1.691-.1c1.8-19.789.168-29.643-6.523-32.077-.747-.269-3.1-.7-3.1-.7s-1.568,1.591-2.651,1.591c-1.493,0-1.393-.691-1.393-.691a17.712,17.712,0,0,0-2.464.863c-1.367.863-1.62,2.614-1.661,4.316v1.673c0,.526-.034,1.273-.093,2.072C715.094,187.4,714.22,193.965,714.22,200.484Z" transform="translate(-483.271 -129.873)" fill="#347edf"/><path d="M725.853,175.031c1.079,0,2.785-1.471,2.785-1.471l1.587.261a6.688,6.688,0,0,1,1.516.444c-2.957,1.564-7.4,5.724-7.4,5.724a11.939,11.939,0,0,1-2.147-4.7,17.881,17.881,0,0,1,2.408-.833S724.789,175.031,725.853,175.031Z" transform="translate(-488.352 -129.873)" fill="#1966e6"/><path d="M717.7,189.35a35.2,35.2,0,0,0,6.2.373l.041.373a16.832,16.832,0,0,0,5.548-1.06c3.517-1.438,1.583-4.589-.65-4.809a24.276,24.276,0,0,0-5.56-.112l.045.4h0c-2.281.332-4.424.814-5.526,1.072v1.669C717.79,187.857,717.756,188.555,717.7,189.35Z" transform="translate(-485.513 -136.411)" fill="#1966e6"/><path d="M688.85,166.242a4,4,0,0,0,.157,1.154.53.53,0,0,1-.717-.306,2.349,2.349,0,0,1,.373-1.266C688.928,165.678,688.865,166.04,688.85,166.242Z" transform="translate(-467.494 -125.004)" fill="#fff"/><path d="M681.2,166.056l.019.019c.747.747,1.766,1.538,2.068,1.8a12.04,12.04,0,0,0,1.12-1.6c-.407-.329-.694-.706-1.042-1.008-.4-.373-1.4-1.06-1.467-1.12-.205-.131-.7-.5-.877-.579a.463.463,0,0,0-.59.09c-.052.078-.131.3.373.635a10.547,10.547,0,0,1,.937.7s-.422.071-.295.373c0,0-.373.03-.273.373C681.178,165.735,681,165.851,681.2,166.056Z" transform="translate(-462.567 -123.568)" fill="#fff"/><path d="M687.46,172.137c2.614,2.371,9.271,7.273,11.907,7.871a31.739,31.739,0,0,0,6.758.489,18.39,18.39,0,0,0,5.5-.683c3.517-1.438,1.583-4.589-.65-4.809a24.381,24.381,0,0,0-5.522.288c-3.2.467-6.131,1.228-6.291,1.255-.863-.489-2.05-1.12-3.3-1.759a52.623,52.623,0,0,1-7.027-4.062l-.022-.022a.845.845,0,0,1-.1-.093h0l-1.24,1.494Z" transform="translate(-466.626 -128.024)" fill="#fff"/><path d="M726.535,150.376a2.875,2.875,0,0,1,1.867,3.734l-.474,1.688c-.347,1.221-2.778,2.614-3.779,2.087-2.371-1.243-1.6-6.015-1.37-6.512C723.436,149.988,725.008,149.947,726.535,150.376Z" transform="translate(-488.578 -115.195)" fill="#fff"/><path d="M723.376,147.069s3.958-1.434,5.784,1.09c2.756,3.8-2.027,6.534-2.027,6.534-.258-1.292.123-5.634-3.5-6.347,0,0-2.14.519-2.166,3.51C720.363,151.038,720.606,147.017,723.376,147.069Z" transform="translate(-487.531 -113.019)" fill="#0030a6"/><path d="M737.5,160.338a1.527,1.527,0,0,1-1.094.989,19.731,19.731,0,0,1-.321-2.05,1.4,1.4,0,0,1,.747-.093A1.083,1.083,0,0,1,737.5,160.338Z" transform="translate(-497.063 -120.856)" fill="#fff"/><path d="M740.7,147.311a1.045,1.045,0,0,1,.582.288,1.169,1.169,0,0,1,.265,1.732,5.545,5.545,0,0,0-1.717-1.8A1.355,1.355,0,0,1,740.7,147.311Z" transform="translate(-499.376 -113.421)" fill="#347edf"/><path d="M736.221,187.855a16.952,16.952,0,0,0,5.548-1.06c3.517-1.438,1.583-4.589-.65-4.809a24.072,24.072,0,0,0-5.56-.112Z" transform="translate(-496.645 -135.006)" fill="#347edf"/><path d="M722.657,237.23h0a.691.691,0,0,1-.687.687h-16.19a.691.691,0,0,1-.691-.687h17.549Z" transform="translate(-477.656 -169.77)" fill="#002880"/><path d="M681.63,197.445l3.36,14.091c.056.224,0,.874-.833.874l-13.718-.172V196.519h9.936A1.255,1.255,0,0,1,681.63,197.445Z" transform="translate(-456.265 -144.259)" fill="#002880"/><path d="M649.823,196.51h17.549a.4.4,0,0,1,.373.295l3.611,15.088a.4.4,0,0,1-.373.512H654.644a1.99,1.99,0,0,1-1.919-1.46l-3.289-13.923a.4.4,0,0,1,.388-.512Z" transform="translate(-443.163 -144.254)" fill="#0030a6"/><path d="M693.4,229.888h4.466l-.9-4.089Z" transform="translate(-470.608 -162.608)" fill="#fff" opacity="0.2"/><path d="M674.5,202.147,673.6,198.1h-1.27q-6.284,7.221-12.575,14.431h5.69Z" transform="translate(-449.656 -145.25)" fill="#fff" opacity="0.2"/><path d="M621.522,73.543,579.491,78.05a7.094,7.094,0,0,0-6.288,7.8l1.284,11.978a7.094,7.094,0,0,0,7.8,6.288l31.271-3.36,9.82,6.318-2.24-7.128,3.2-.344a7.094,7.094,0,0,0,6.269-7.792l-1.284-11.974A7.094,7.094,0,0,0,621.522,73.543Z" transform="translate(-395.534 -67.176)" fill="#fe561c"/><path d="M694.257,108.1l.709-2.49,1.3,2.229,2.3.093-1.4,2.046.713,2.546-2.173-.971-1.859,1.482.056-2.644-1.859-1.628Z" transform="translate(-469.745 -87.294)" fill="#fff"/><path d="M594.367,120.6l.709-2.49,1.3,2.233,2.3.09-1.4,2.046.713,2.546-2.169-.967-1.863,1.482.06-2.644-1.863-1.628Z" transform="translate(-407.932 -95.127)" fill="#fff"/><path d="M667.647,98.05l.709-2.49,1.3,2.233,2.3.09-1.4,2.046.713,2.546-2.173-.967-1.859,1.482.06-2.644-1.863-1.628Z" transform="translate(-453.278 -80.997)" fill="#fff"/><path d="M641.9,94.617l.709-2.487,1.3,2.229,2.3.09-1.4,2.046.709,2.546-2.169-.967-1.859,1.482.056-2.644-1.859-1.628Z" transform="translate(-437.344 -78.847)" fill="#fff"/><path d="M617.843,104.5l.709-2.487,1.307,2.229,2.3.09-1.4,2.046.713,2.546-2.169-.967-1.863,1.482.06-2.644-1.859-1.628Z" transform="translate(-422.462 -85.038)" fill="#fff"/><path d="M459.775,173.614a6.271,6.271,0,0,0,.108-.907,6.017,6.017,0,0,0,0-.635h0a6.956,6.956,0,0,0-.982-3.289,7.4,7.4,0,0,0-.541-.777,6.84,6.84,0,0,0-1.912-1.635,5.907,5.907,0,0,0-.784-.373,6.621,6.621,0,0,0-.642-.235l-2.434-.747-4.354,1.557a6.311,6.311,0,0,0-.295-.724,2.682,2.682,0,0,0-.172-.344,6.855,6.855,0,0,0-1.867-2.136,4.729,4.729,0,0,0-.683-.456,6.545,6.545,0,0,0-1.445-.642l-2.322-.721-.56.463a6.458,6.458,0,0,0-1.34.3,7.023,7.023,0,0,0-3.614,2.8h0a6.72,6.72,0,0,0-.8,1.714,6.535,6.535,0,0,0-.232,1.008,6.109,6.109,0,0,0-.075,1.042,6.426,6.426,0,0,0,.224,1.729c.1.4,2.886,5.563,5.1,9.633l.31,4.208,2.386.747s13.7-6.919,14.043-7.154c.116-.075.321-.239.321-.239a6.721,6.721,0,0,0,1.986-2.434h0a6.787,6.787,0,0,0,.373-.975c.067-.213.179-.721.187-.747Z" transform="translate(-310.428 -122.347)" fill="#c5431a"/><path d="M453.527,170.767h0a6.971,6.971,0,0,0-.982-3.289,7.474,7.474,0,0,0-.545-.78,6.773,6.773,0,0,0-1.908-1.635,5.907,5.907,0,0,0-.784-.392,6.6,6.6,0,0,0-.642-.235,6.9,6.9,0,0,0-1.755-.306,6.624,6.624,0,0,0-.818.019,6.847,6.847,0,0,0-1.579.314,6.721,6.721,0,0,0-1.083.456c-.034,0-1.367.907-1.37.892a12.289,12.289,0,0,0-.482-1.281,2.714,2.714,0,0,0-.175-.344,6.8,6.8,0,0,0-1.848-2.136,5.306,5.306,0,0,0-.683-.456,6.546,6.546,0,0,0-1.445-.642,6.753,6.753,0,0,0-.844-.2,5.951,5.951,0,0,0-.848-.1,6.8,6.8,0,0,0-2.535.34,6.95,6.95,0,0,0-.926.392,6.84,6.84,0,0,0-2.685,2.4h0a6.847,6.847,0,0,0-1.027,2.722,5.753,5.753,0,0,0-.075,1.042,6.387,6.387,0,0,0,.224,1.729c.175.668,7.792,14.584,7.789,14.58s13.684-6.9,14.032-7.135c.116-.075.321-.239.321-.239a6.7,6.7,0,0,0,1.986-2.431h0a7.161,7.161,0,0,0,.373-.975c.063-.217.179-.724.187-.747h0a6.848,6.848,0,0,0,.108-.9,5.146,5.146,0,0,0,.019-.665Z" transform="translate(-306.507 -121.778)" fill="#fe561c"/><path d="M430.439,430.279l1.785-11.959,7.389,9.544,10.712-.978-5.242,10.328,4.839,11.358-10.638-3.17-7.721,7.994-1.329-12.28-9.6-6.415Z" transform="translate(-301.61 -283.245)" fill="#c5431a"/><path d="M488,491.307l-3.667.952-8.786-2.629,1.785-1.591Z" transform="translate(-335.723 -326.933)" fill="#c5431a"/><path d="M448.685,416.722l3.667-.952,3.226,10.862-5.011,1.094-3.667.956Z" transform="translate(-318.028 -281.647)" fill="#c5431a"/><path d="M424.3,459.64l-3.67.952,9.6,6.415,3.67-.952Z" transform="translate(-301.74 -309.137)" fill="#c5431a"/><path d="M451.35,489.1l-3.67.956-1.329-12.28,3.67-.952Z" transform="translate(-317.717 -319.902)" fill="#c5431a"/><path d="M440.265,427.726l1.785-11.956,7.389,9.54,10.716-.975-5.246,10.324,4.839,11.362-10.634-3.17-7.722,7.99-1.329-12.277-9.6-6.415Z" transform="translate(-307.687 -281.647)" fill="#fe561c"/><path d="M400.9,245.095l63.575-4.245a10.679,10.679,0,0,1,11.366,9.943l1.21,18.1a10.679,10.679,0,0,1-9.943,11.366l-42.069,2.823-18.4,14.987-.433-13.729-2.67.175a10.675,10.675,0,0,1-11.366-9.943l-1.213-18.113A10.679,10.679,0,0,1,400.9,245.095Z" transform="translate(-282.736 -172.023)" fill="#347edf"/><path d="M423.571,272.348a6.4,6.4,0,0,1-1.624,4.761,6.687,6.687,0,1,1,1.624-4.761Zm-2.636.157a3.973,3.973,0,0,0-6.908-2.419,3.775,3.775,0,0,0-1,2.894,3.971,3.971,0,0,0,7.927-.474Zm10.589-6.754-10.828,28.6-2.711.161,10.828-28.6Zm7.628,21.376a6.4,6.4,0,0,1-1.624,4.761,6.667,6.667,0,1,1,1.624-4.761Zm-2.632.157a3.973,3.973,0,0,0-6.908-2.42,3.764,3.764,0,0,0-1,2.894,3.961,3.961,0,1,0,7.909-.474Z" transform="translate(-295.172 -187.641)" fill="#fff"/><path d="M569.854,261.869l-12.964.829c-.232,0-.373.306-.332.65s.269.609.5.594l12.964-.833c.231,0,.373-.306.332-.646S570.086,261.854,569.854,261.869Z" transform="translate(-385.821 -185.209)" fill="#fff"/><path d="M544.124,264.449l-4.354.276c-.231,0-.373.306-.332.65s.269.609.5.594l4.354-.28c.232,0,.373-.3.332-.646S544.344,264.434,544.124,264.449Z" transform="translate(-375.317 -186.826)" fill="#fff"/><path d="M511.419,265.719l-11.993.769c-.231,0-.373.306-.336.65s.273.609.5.594l12-.788c.232,0,.373-.3.332-.646S511.647,265.7,511.419,265.719Z" transform="translate(-350.279 -187.621)" fill="#fff"/><path d="M574.642,272.909l-6.571.407c-.232,0-.373.3-.332.646s.269.609.5.594l6.568-.422c.235,0,.373-.3.336-.646S574.87,272.894,574.642,272.909Z" transform="translate(-392.806 -192.127)" fill="#fff"/><path d="M537.6,274.569l-13.173.844c-.231,0-.373.306-.336.65s.273.609.5.594l13.158-.844c.232,0,.373-.306.332-.65S537.83,274.554,537.6,274.569Z" transform="translate(-365.733 -193.167)" fill="#fff"/><path d="M506.685,277.249l-6.7.433c-.231,0-.373.3-.336.646s.273.609.5.594l6.717-.429c.231,0,.373-.306.332-.65S506.916,277.234,506.685,277.249Z" transform="translate(-350.674 -194.846)" fill="#fff"/><path d="M557.367,284.139l-16.451,1.068c-.232,0-.373.306-.336.65s.273.609.5.594l16.451-1.068c.232,0,.373-.306.332-.65S557.6,284.124,557.367,284.139Z" transform="translate(-375.9 -199.164)" fill="#fff"/><path d="M511.5,287.739l-10.35.665c-.232,0-.373.306-.336.65s.273.609.5.594l10.35-.665c.228,0,.373-.306.332-.646S511.724,287.728,511.5,287.739Z" transform="translate(-351.358 -201.42)" fill="#fff"/><path d="M528.885,301.839l-17.6,1.12c-.232,0-.373.306-.332.65s.269.609.5.594l17.609-1.12c.228,0,.373-.3.332-.646S529.124,301.824,528.885,301.839Z" transform="translate(-357.559 -210.255)" fill="#fff"/><path d="M532.889,311l-28.978,1.867c-.232,0-.373.3-.332.646s.269.609.5.594l28.978-1.867c.232,0,.373-.306.332-.646S533.12,310.966,532.889,311Z" transform="translate(-352.885 -215.992)" fill="#fff"/><path d="M530.416,325.389l-18.3,1.176c-.232,0-.373.3-.332.646s.269.609.5.594l18.3-1.172c.232,0,.373-.306.332-.65S530.648,325.374,530.416,325.389Z" transform="translate(-358.072 -225.012)" fill="#fff"/><path d="M575.185,299.589l-10.869.7c-.232,0-.373.306-.336.65s.273.609.5.594l10.869-.7c.232,0,.373-.306.336-.65S575.4,299.574,575.185,299.589Z" transform="translate(-390.435 -208.845)" fill="#fff"/><path d="M158.114,348.152l6.65,41.96,3.958,24.957,8.289,52.273c.747,4.708,5.776,8.55,11.179,8.539l43.226-.1,9.267-.022a10.592,10.592,0,0,0,2.323-.258,8.9,8.9,0,0,0,3.266-1.46,7.466,7.466,0,0,0,.952-.818l1.844-1.867,1.236-1.247.848-.859h0l-.919-1.083-.747-.874h0l-.31.168a2.479,2.479,0,0,0-.03-.291l-7.557-47.793-5.918-37.443-.747-4.809-.041-.265-.325-2.065h0l-4.234-26.771a8.722,8.722,0,0,0-1.441-3.528h0a11.16,11.16,0,0,0-2.121-2.289c-.232-.187-.467-.373-.709-.534h0a1.521,1.521,0,0,1-.134-.1h0l-.134-.086a12.318,12.318,0,0,0-1.494-.836c-.175-.086-.373-.164-.53-.239a12.255,12.255,0,0,0-2.987-.821h0a11.557,11.557,0,0,0-1.613-.112H167.4l-.833-.407h0l-2.434-1.2a.53.53,0,0,0-.063.067h0l-.019.022-3.906,4.025h0A6.911,6.911,0,0,0,158.114,348.152Z" transform="translate(-139.667 -232.839)" fill="#1966e6"/><path d="M252.741,698.62c.329,0,.373.217.116.489a1.822,1.822,0,0,1-1.083.493c-.332,0-.373-.22-.119-.489A1.777,1.777,0,0,1,252.741,698.62Z" transform="translate(-198.24 -458.886)" fill="#0030a6"/><path d="M257.782,698.6c.332,0,.373.22.116.489a1.777,1.777,0,0,1-1.083.493c-.332,0-.373-.217-.116-.489A1.8,1.8,0,0,1,257.782,698.6Z" transform="translate(-201.399 -458.874)" fill="#0030a6"/><path d="M262.822,698.59c.332,0,.373.217.116.489a1.792,1.792,0,0,1-1.083.489c-.332,0-.373-.217-.116-.485A1.758,1.758,0,0,1,262.822,698.59Z" transform="translate(-204.558 -458.868)" fill="#0030a6"/><path d="M267.9,698.57c.332,0,.373.217.116.489a1.759,1.759,0,0,1-1.083.493c-.332,0-.373-.216-.116-.489A1.8,1.8,0,0,1,267.9,698.57Z" transform="translate(-207.741 -458.855)" fill="#0030a6"/><path d="M272.9,698.56c.332,0,.373.217.116.489a1.774,1.774,0,0,1-1.083.489c-.332,0-.373-.217-.116-.485A1.759,1.759,0,0,1,272.9,698.56Z" transform="translate(-210.874 -458.849)" fill="#0030a6"/><path d="M277.9,698.54c.332,0,.373.217.116.489a1.781,1.781,0,0,1-1.083.493c-.332,0-.373-.22-.116-.489A1.77,1.77,0,0,1,277.9,698.54Z" transform="translate(-214.007 -458.836)" fill="#0030a6"/><path d="M282.982,698.53c.332,0,.373.217.116.485a1.758,1.758,0,0,1-1.083.493c-.332,0-.373-.217-.116-.489A1.784,1.784,0,0,1,282.982,698.53Z" transform="translate(-217.19 -458.83)" fill="#0030a6"/><path d="M248.792,702.62c.332,0,.373.217.116.485a1.759,1.759,0,0,1-1.083.493c-.332,0-.373-.217-.116-.489A1.792,1.792,0,0,1,248.792,702.62Z" transform="translate(-195.766 -461.393)" fill="#0030a6"/><path d="M253.841,702.6c.329,0,.373.217.116.489a1.822,1.822,0,0,1-1.083.493c-.332,0-.373-.22-.119-.489a1.777,1.777,0,0,1,1.087-.493Z" transform="translate(-198.929 -461.38)" fill="#0030a6"/><path d="M258.9,702.58c.329,0,.373.22.116.489a1.777,1.777,0,0,1-1.083.493c-.332,0-.373-.216-.12-.489a1.822,1.822,0,0,1,1.087-.493Z" transform="translate(-202.1 -461.368)" fill="#0030a6"/><path d="M263.9,702.57c.329,0,.373.217.116.489a1.821,1.821,0,0,1-1.083.493c-.332,0-.373-.22-.12-.489A1.777,1.777,0,0,1,263.9,702.57Z" transform="translate(-205.233 -461.361)" fill="#0030a6"/><path d="M268.961,702.55c.329,0,.373.22.116.489a1.777,1.777,0,0,1-1.083.493c-.332,0-.373-.216-.119-.489A1.822,1.822,0,0,1,268.961,702.55Z" transform="translate(-208.404 -461.349)" fill="#0030a6"/><path d="M274,702.54c.332,0,.373.217.116.485a1.758,1.758,0,0,1-1.083.493c-.332,0-.373-.217-.116-.485A1.759,1.759,0,0,1,274,702.54Z" transform="translate(-211.563 -461.343)" fill="#0030a6"/><path d="M279.042,702.52c.332,0,.373.217.116.489a1.759,1.759,0,0,1-1.083.493c-.332,0-.373-.22-.116-.489A1.781,1.781,0,0,1,279.042,702.52Z" transform="translate(-214.721 -461.33)" fill="#0030a6"/><path d="M287.822,698.51c.332,0,.373.216.116.489a1.822,1.822,0,0,1-1.083.493c-.332,0-.373-.22-.116-.489a1.759,1.759,0,0,1,1.083-.493Z" transform="translate(-220.223 -458.817)" fill="#0030a6"/><path d="M283.9,702.51c.329,0,.373.217.116.489a1.8,1.8,0,0,1-1.087.489c-.329,0-.373-.217-.116-.489A1.8,1.8,0,0,1,283.9,702.51Z" transform="translate(-217.762 -461.324)" fill="#0030a6"/><path d="M292.654,698.5c.332,0,.373.217.12.485a1.777,1.777,0,0,1-1.087.493c-.329,0-.373-.217-.116-.489A1.792,1.792,0,0,1,292.654,698.5Z" transform="translate(-221.845 -458.811)" fill="#0030a6"/><path d="M288.712,702.49c.332,0,.373.217.116.489a1.8,1.8,0,0,1-1.083.493c-.332,0-.373-.22-.116-.489A1.758,1.758,0,0,1,288.712,702.49Z" transform="translate(-218.412 -461.311)" fill="#0030a6"/><path d="M345.752,698.22c.332,0,.373.217.116.489a1.8,1.8,0,0,1-1.083.493c-.332,0-.373-.22-.116-.489A1.759,1.759,0,0,1,345.752,698.22Z" transform="translate(-254.708 -458.636)" fill="#0030a6"/><path d="M350.792,698.2c.332,0,.373.22.116.489a1.759,1.759,0,0,1-1.083.493c-.332,0-.373-.217-.116-.489A1.8,1.8,0,0,1,350.792,698.2Z" transform="translate(-257.827 -458.623)" fill="#0030a6"/><path d="M355.832,698.19c.332,0,.373.217.116.489a1.774,1.774,0,0,1-1.083.489c-.332,0-.373-.217-.116-.485A1.758,1.758,0,0,1,355.832,698.19Z" transform="translate(-260.947 -458.617)" fill="#0030a6"/><path d="M360.9,698.17c.332,0,.373.22.119.489a1.777,1.777,0,0,1-1.087.493c-.329,0-.373-.217-.116-.489A1.811,1.811,0,0,1,360.9,698.17Z" transform="translate(-264.086 -458.604)" fill="#0030a6"/><path d="M365.9,698.16c.332,0,.373.217.119.485a1.777,1.777,0,0,1-1.087.493c-.329,0-.373-.217-.116-.489a1.792,1.792,0,0,1,1.083-.489Z" transform="translate(-267.181 -458.598)" fill="#0030a6"/><path d="M370.954,698.14c.332,0,.373.217.119.489a1.822,1.822,0,0,1-1.087.493c-.329,0-.373-.22-.116-.489A1.777,1.777,0,0,1,370.954,698.14Z" transform="translate(-270.307 -458.585)" fill="#0030a6"/><path d="M375.994,698.13c.332,0,.373.217.119.485a1.777,1.777,0,0,1-1.087.493c-.329,0-.373-.217-.116-.489a1.792,1.792,0,0,1,1.083-.489Z" transform="translate(-273.426 -458.579)" fill="#0030a6"/><path d="M341.808,702.22c.329,0,.373.217.116.485a1.778,1.778,0,0,1-1.087.493c-.329,0-.373-.217-.116-.489A1.8,1.8,0,0,1,341.808,702.22Z" transform="translate(-252.265 -461.142)" fill="#0030a6"/><path d="M346.9,702.2c.329,0,.373.217.116.489a1.822,1.822,0,0,1-1.083.493c-.332,0-.373-.22-.116-.489A1.759,1.759,0,0,1,346.9,702.2Z" transform="translate(-255.42 -461.13)" fill="#0030a6"/><path d="M351.9,702.18c.332,0,.373.22.116.489a1.77,1.77,0,0,1-1.083.493c-.332,0-.373-.217-.116-.489A1.8,1.8,0,0,1,351.9,702.18Z" transform="translate(-258.514 -461.117)" fill="#0030a6"/><path d="M356.9,702.17c.332,0,.373.217.116.489a1.773,1.773,0,0,1-1.083.489c-.332,0-.373-.217-.116-.485A1.759,1.759,0,0,1,356.9,702.17Z" transform="translate(-261.609 -461.111)" fill="#0030a6"/><path d="M361.972,702.15c.332,0,.373.22.116.489a1.759,1.759,0,0,1-1.083.493c-.332,0-.373-.217-.116-.489A1.8,1.8,0,0,1,361.972,702.15Z" transform="translate(-264.747 -461.098)" fill="#0030a6"/><path d="M367.012,702.14c.332,0,.373.217.116.489a1.774,1.774,0,0,1-1.083.489c-.332,0-.373-.217-.116-.485A1.777,1.777,0,0,1,367.012,702.14Z" transform="translate(-267.866 -461.092)" fill="#0030a6"/><path d="M372.052,702.12c.332,0,.373.22.116.489a1.8,1.8,0,0,1-1.083.493c-.332,0-.373-.217-.116-.489A1.777,1.777,0,0,1,372.052,702.12Z" transform="translate(-270.985 -461.079)" fill="#0030a6"/><path d="M380.832,698.11c.332,0,.373.217.116.489a1.8,1.8,0,0,1-1.083.493c-.332,0-.373-.22-.116-.489A1.758,1.758,0,0,1,380.832,698.11Z" transform="translate(-276.419 -458.567)" fill="#0030a6"/><path d="M376.9,702.11c.332,0,.373.217.116.485a1.777,1.777,0,0,1-1.083.493c-.332,0-.373-.217-.116-.489A1.773,1.773,0,0,1,376.9,702.11Z" transform="translate(-273.987 -461.073)" fill="#0030a6"/><path d="M385.671,698.09c.329,0,.373.22.116.489a1.777,1.777,0,0,1-1.083.493c-.332,0-.373-.216-.119-.489A1.822,1.822,0,0,1,385.671,698.09Z" transform="translate(-279.414 -458.554)" fill="#0030a6"/><path d="M381.724,702.09c.332,0,.373.22.119.489a1.822,1.822,0,0,1-1.087.493c-.329,0-.373-.22-.116-.489A1.777,1.777,0,0,1,381.724,702.09Z" transform="translate(-276.972 -461.061)" fill="#0030a6"/><path d="M169.487,339.309l8.311,52.452,2.012,12.669,8.569,54.077c.747,4.708,5.78,8.55,11.183,8.535l25.509-.052,12.967-.034h0l12.46-.026h1.538a6.433,6.433,0,0,0,.713-.026,10.115,10.115,0,0,0,2.808-.586,8.4,8.4,0,0,0,1.867-.948,7.349,7.349,0,0,0,.844-.653h0a7,7,0,0,0,.765-.8c.075-.093.153-.19.228-.291.134-.179.261-.373.373-.556a.28.28,0,0,1,.026-.045c.06-.1.12-.209.179-.317s.108-.217.161-.321.086-.2.127-.306v-.034c.041-.1.082-.209.116-.314v-.026c.037-.116.071-.232.1-.351a7.068,7.068,0,0,0,.157-3.017l-2.24-14.271-1.632-10.317-1.9-12.1-3.771-23.829-3.648-23.038-.512-3.233-1.031-6.527-.792-5L241.669,339.2c-.747-4.708-5.776-8.558-11.179-8.547h-5.87l-18.568.03H177.473a2.212,2.212,0,0,0-.224,0l-.228.019-.444.045-.273.041-.157.026h-.075a1.615,1.615,0,0,0-.228.041l-.123.022-.284.067-.127.034-.273.071h0c-.123.034-.246.075-.373.116s-.224.078-.332.123l-.06.022-.317.131h-.019l-.344.161a7.819,7.819,0,0,0-2.345,1.732.528.528,0,0,0-.063.067h0l-.019.022A6.881,6.881,0,0,0,169.487,339.309Z" transform="translate(-146.783 -228.309)" fill="#347edf"/><path d="M177.2,343.2l.261,1.647,8.819,55.634,5.477,34.553,2.916,18.385,1.426,8.98a7.425,7.425,0,0,0,2.77,4.436,9.857,9.857,0,0,0,6.112,2.263l25.177-.06H257.51a7.24,7.24,0,0,0,.747-.037,5.285,5.285,0,0,0,3.435-1.512,3.849,3.849,0,0,0,.836-3.237l-3.36-21.335-9.409-59.446h0l-4.973-31.439h0l-1.1-6.908a1.833,1.833,0,0,0-.034-.2,7.922,7.922,0,0,0-3.633-4.891,9.76,9.76,0,0,0-5.227-1.613h-8.506l-32.454.049H182.222a7.741,7.741,0,0,0-1.236.1,5.634,5.634,0,0,0-2.263.855,4.049,4.049,0,0,0-.687.59,3.812,3.812,0,0,0-.833,3.185Z" transform="translate(-151.648 -233.178)" fill="#edf6fc"/><path d="M323.22,344.7l.131.683.373,1.893h6.086l-.078-.418-.175-.9h0l-.168-.84-.075-.418Zm6.314,2.352h-5.619l-.093-.47-.317-1.632h5.6l.164.836Z" transform="translate(-241.511 -237.113)" fill="#fff"/><path d="M328.084,347.361h-4.029l-.456-2.341h4.029Z" transform="translate(-241.757 -237.313)" fill="#fff"/><path d="M340.5,347.566h-.724l-.336-1.736h.721Z" transform="translate(-251.577 -237.821)" fill="#fff"/><path d="M183.577,348.845h-.81l-.246-1.255h.81Z" transform="translate(-155.022 -238.924)" fill="#fff"/><path d="M187.946,347.817h-.81l-.366-1.867h.814Z" transform="translate(-157.685 -237.896)" fill="#fff"/><path d="M192.162,346.539h-.81l-.512-2.629h.81Z" transform="translate(-160.236 -236.618)" fill="#fff"/><path d="M208.785,348.857a.2.2,0,0,1-.123-.045,1.329,1.329,0,0,0-.855-.373.937.937,0,0,0-.683.373.153.153,0,0,1-.217,0,.172.172,0,0,1-.06-.224,1.158,1.158,0,0,1,.885-.478,1.68,1.68,0,0,1,1.12.474.164.164,0,0,1,.041.22A.134.134,0,0,1,208.785,348.857Z" transform="translate(-170.254 -239.25)" fill="#fff"/><path d="M208,346.726a.183.183,0,0,1-.119-.049,2.139,2.139,0,0,0-1.352-.59h0a1.691,1.691,0,0,0-1.214.59.149.149,0,0,1-.22,0,.164.164,0,0,1-.049-.22,1.893,1.893,0,0,1,1.419-.687h0a2.5,2.5,0,0,1,1.594.683.168.168,0,0,1,.041.224.134.134,0,0,1-.1.049Z" transform="translate(-169.126 -237.783)" fill="#fff"/><path d="M203.213,344.439a.19.19,0,0,1-.116-.045.168.168,0,0,1-.052-.22,2.7,2.7,0,0,1,2.02-1.034h.037a3.685,3.685,0,0,1,2.356,1.031.161.161,0,0,1,.041.224.157.157,0,0,1-.224,0,3.264,3.264,0,0,0-2.147-.933,2.446,2.446,0,0,0-1.807.93A.138.138,0,0,1,203.213,344.439Z" transform="translate(-167.87 -236.135)" fill="#fff"/><path d="M209.72,350.6a.3.3,0,0,1-.306.373.482.482,0,0,1-.448-.373.3.3,0,0,1,.3-.373A.485.485,0,0,1,209.72,350.6Z" transform="translate(-171.588 -240.578)" fill="#fff"/><path d="M292.463,339.808c1.1.848,1.423,2.113.717,2.83s-2.181.616-3.286-.228-1.426-2.113-.717-2.834S291.354,338.96,292.463,339.808Z" transform="translate(-220.22 -233.602)" fill="#002880"/><path d="M293.165,341.042c.84.642,1.12,1.576.612,2.083a1.972,1.972,0,0,1-2.431-.243c-.84-.642-1.12-1.579-.612-2.087A1.948,1.948,0,0,1,293.165,341.042Z" transform="translate(-221.265 -234.463)" fill="#0030a6"/><path d="M236.768,340.742a.648.648,0,0,1,.093,0h.067l15.01-.022h.067a2.14,2.14,0,0,1,1.225.459c.694.53.922,1.307.5,1.736a1,1,0,0,1-.474.239.9.9,0,0,1-.157.03h-.4l-14.629.064H238a2.117,2.117,0,0,1-1.307-.467,1.654,1.654,0,0,1-.7-1.21.784.784,0,0,1,.235-.586A1.027,1.027,0,0,1,236.768,340.742Z" transform="translate(-188.533 -234.619)" fill="#002880"/><path d="M250.767,343a2.084,2.084,0,0,1,1.225.456,1.654,1.654,0,0,1,.706,1.146l-14.629.063h-.063a2.117,2.117,0,0,1-1.307-.467,1.654,1.654,0,0,1-.7-1.2h14.715A.208.208,0,0,1,250.767,343Z" transform="translate(-188.534 -236.045)" fill="#0030a6"/><path d="M296.167,343.344c.344.261.456.642.25.851a.806.806,0,0,1-.989-.1c-.344-.261-.456-.642-.25-.851S295.794,343.068,296.167,343.344Z" transform="translate(-224.117 -236.115)" fill="#002880"/><path d="M293.175,342.418c.19.149.254.373.138.478a.448.448,0,0,1-.553-.056c-.19-.146-.254-.373-.138-.478A.448.448,0,0,1,293.175,342.418Z" transform="translate(-222.566 -235.604)" fill="#002880"/><path d="M304.573,698.958a.448.448,0,0,1,.336-.168h8.565c.284,0,.373.31.187.549l-1.146,1.363a.448.448,0,0,1-.336.168h-8.565c-.28,0-.373-.31-.187-.549Z" transform="translate(-229.186 -458.993)" fill="#0030a6"/><path d="M258.033,637.425l-7.665.052a9.752,9.752,0,0,1-9.335-8.08l-.765-5.164a6.85,6.85,0,0,1,6.889-8.147l7.669-.056a9.72,9.72,0,0,1,9.316,8.08l.777,5.175A6.841,6.841,0,0,1,258.033,637.425Z" transform="translate(-191.151 -407.134)" fill="#c5431a"/><path d="M263.237,637.432l-7.669.056a9.755,9.755,0,0,1-9.334-8.08l-.758-5.175a6.85,6.85,0,0,1,6.889-8.151l7.665-.052a9.755,9.755,0,0,1,9.334,8.08l.777,5.175A6.868,6.868,0,0,1,263.237,637.432Z" transform="translate(-194.414 -407.134)" fill="#fe561c"/><path d="M263.76,628.55h1.867l1.811,12.109h-1.867Z" transform="translate(-205.929 -414.979)" fill="#d1e3fb"/><path d="M268.76,628.55l11.2,6.011-9.387,6.1Z" transform="translate(-207.794 -414.979)" fill="#fff"/><path d="M202.309,383.02l11.474,73.5c.351,2.9,2.711,5.272,5.227,5.261l41.046-.071a3.227,3.227,0,0,0,.332,0,3.86,3.86,0,0,0,2.576-1.348h0a3.959,3.959,0,0,0,.373-.493,2.067,2.067,0,0,0,.108-.179,3.714,3.714,0,0,0,.175-.344.094.094,0,0,1,0-.026l.082-.194c.026-.067.052-.134.075-.2s.041-.123.06-.187v-.022l.056-.19a1.192,1.192,0,0,1,.049-.217,5.68,5.68,0,0,0,.075-1.867l-11.425-73.507c-.351-2.9-2.707-5.276-5.227-5.268l-41.072.049h-.213a.51.51,0,0,0-.108,0h-.1l-.209.03-.146.045H205.4l-.108.026h-.056l-.134.041h-.06l-.127.045h0l-.175.071c-.052.026-.1.049-.153.078a.075.075,0,0,0-.03,0l-.149.078h0l-.161.1a4,4,0,0,0-1.12,1.068.38.38,0,0,1-.03.041h0a5.179,5.179,0,0,0-.792,3.678Z" transform="translate(-167.381 -257.772)" fill="#1966e6"/><path d="M208.309,383.02l11.474,73.5c.351,2.9,2.711,5.272,5.227,5.261l41.046-.071a3.227,3.227,0,0,0,.332,0,3.86,3.86,0,0,0,2.576-1.348h0a3.959,3.959,0,0,0,.373-.493,2.074,2.074,0,0,0,.108-.179,3.725,3.725,0,0,0,.175-.344.094.094,0,0,1,0-.026l.082-.194c.026-.067.052-.134.075-.2s.041-.123.06-.187v-.022l.056-.19a1.192,1.192,0,0,1,.049-.217,5.679,5.679,0,0,0,.075-1.867l-11.425-73.507c-.351-2.9-2.707-5.276-5.227-5.268l-41.072.049h-.213a.51.51,0,0,0-.108,0h-.1l-.209.03-.146.045H211.4l-.108.026h-.056l-.134.041h-.06l-.127.045h0l-.175.071c-.052.026-.1.049-.153.078a.075.075,0,0,0-.03,0l-.149.078h0l-.161.1a4,4,0,0,0-1.12,1.068.376.376,0,0,1-.03.041h0a5.179,5.179,0,0,0-.792,3.678Z" transform="translate(-171.141 -257.772)" fill="#347edf"/><g transform="translate(46.406 117.538)" clip-path="url(#d)"><path d="M357.436,444.748a1.493,1.493,0,0,1,.026-.478c.568-2.446,4.41-11.691,4.79-14.356.747-.172,1.2.142,1.751.146-.108,3.682-2.614,15.865-4.331,16.2A1.7,1.7,0,0,1,357.436,444.748Z" transform="translate(-311.028 -408.015)" fill="#fff"/><path d="M326.574,440.55c.194-.848,2.614-4.544,3.42-4.854a.6.6,0,0,1,.534.045,41.342,41.342,0,0,1,4.563,4.107c1.24,1.2,2.509,2.431,3.633,3.428l.571-1.493c1.169-3.058,2.614-6.863,2.756-8.353l3.043.508c-.4,3.734-2.218,12.322-3.894,14.648a3.877,3.877,0,0,1-.373.373,1.557,1.557,0,0,1-1.755.254C335.9,447.626,326.119,442.529,326.574,440.55Z" transform="translate(-291.685 -410.251)" fill="#002880"/><path d="M310.465,648.04l1.669-.93s.373.538.653.885c.564.668,3.267,1.154,3.267,2.1,0,.482-1.008.911-1.83.941a5.655,5.655,0,0,1-1.979-.269,5.048,5.048,0,0,1-1.766-.907,1.356,1.356,0,0,1-.063-1.12C310.326,648.223,310.465,648.04,310.465,648.04Z" transform="translate(-281.513 -544.147)" fill="#002847"/><path d="M312.682,647a.814.814,0,0,0,.168.937s0,.355-.631.7a5.328,5.328,0,0,1-1.74.056,6.939,6.939,0,0,1-.041-1.292Z" transform="translate(-281.576 -544.078)" fill="#ffbe8e"/><path d="M309.005,500.79a226.669,226.669,0,0,1-.119,31.293,145.787,145.787,0,0,1-4.137,23.672c-.022.09-1.647.974-2.464.075a110.546,110.546,0,0,0-.351-23.661c-1.415-9.917-3.36-19.319-4.133-19.938V501.708C301.829,501.989,307.672,501.376,309.005,500.79Z" transform="translate(-273.665 -452.46)" fill="#002880"/><path d="M276.413,647.505l1.74-.8s.314.564.579.933c.512.709,3.166,1.4,3.092,2.349-.037.478-1.072.829-1.893.8a3.945,3.945,0,0,1-1.953-.426c-.523-.373-1.538-.747-1.691-1.038a1.359,1.359,0,0,1,.022-1.12A1,1,0,0,1,276.413,647.505Z" transform="translate(-260.114 -543.896)" fill="#002847"/><path d="M278.725,646.52a1.176,1.176,0,0,0,.22,1s.116.459-.541.747a5.665,5.665,0,0,1-1.867-.187,12.027,12.027,0,0,1,0-1.333Z" transform="translate(-260.328 -543.777)" fill="#ffbe8e"/><path d="M276.174,499.71c3.991.575,14.685,3.36,16.055,2.868.071,1.165-5.522,14.98-7.841,29.232a144.326,144.326,0,0,1-5.974,23.149c-.03.086-1.721.84-2.464-.123,0,0,2.894-12.094,1.494-23.613C276.476,522.811,275.6,516.62,276.174,499.71Z" transform="translate(-259.973 -451.783)" fill="#0030a6"/><path d="M321.187,419.788c-.037.228-.9,2.569-.534,3.932-.373,1.176-3.734.747-4.383-1.4a13.089,13.089,0,0,0,1.15-4.72C317.663,417.843,320.347,419.81,321.187,419.788Z" transform="translate(-285.238 -400.331)" fill="#fff"/><path d="M320.455,405.846c1.389-.646,2.894-.848,3.734.373.3.441,1.774,4.854-.291,6.422-.874.657-3.405-.3-3.924-1.4l-.713-1.55A2.782,2.782,0,0,1,320.455,405.846Z" transform="translate(-286.911 -392.643)" fill="#fff"/><path d="M277.13,502.323l2.21-6.624-.683,7.034a20.234,20.234,0,0,0,11.851,2.039h0a8.647,8.647,0,0,0,1.031-2.039c.4.724.747,1.378.911,1.68A12.387,12.387,0,0,0,295,503.5a7.1,7.1,0,0,0,.814-.47l-.019-.78-1.12-6.407-16.537-6.975-2.069,12.471v.8A9.784,9.784,0,0,1,277.13,502.323Z" transform="translate(-260.048 -444.99)" fill="#002880"/><path d="M275.739,464.806l2.345-7.785-.556,8.214a19.39,19.39,0,0,0,11.575,2.035h0a8.589,8.589,0,0,0,1.034-2.046c.4.724.747,1.382.911,1.68A12.619,12.619,0,0,0,293.6,466a5.253,5.253,0,0,0,1.576-1.12l-.022-.4c-.627-11.687,2.614-23.5,2.793-24.807.317-2.281,1.344-4.9-.571-6.347-.493-.373-3.312-1.647-3.312-1.647a2.138,2.138,0,0,1-1.613.627c-1.176-.239-2.771-2.027-2.771-2.027s-2.651.243-3.506.467c-7.651,2.02-12.322,11.7-12.322,33.791C274.253,464.6,275.265,464.687,275.739,464.806Z" transform="translate(-258.657 -408.277)" fill="#0030a6"/><path d="M310.386,430.24s1.6,1.788,2.774,2.027a2.143,2.143,0,0,0,1.609-.627s2.636,1.184,3.252,1.6c-.482,2.378-4.566,10.081-4.566,10.081S310,432.734,306.88,430.7a7.8,7.8,0,0,1,1.721-.34Z" transform="translate(-279.354 -408.252)" fill="#edf6fc"/><path d="M311.269,399.334c1.62-3.756,7.595-3.682,9.058-.78.321.638.429,2.505-6.3,4a10.8,10.8,0,0,0,.53,3.876A5.515,5.515,0,0,1,311.269,399.334Z" transform="translate(-281.865 -387.072)" fill="#0030a6"/><path d="M317.957,415.362a1.366,1.366,0,0,1,.694-.2,19.928,19.928,0,0,1,.5,1.938,1.456,1.456,0,0,1-1.348-.456A1.04,1.04,0,0,1,317.957,415.362Z" transform="translate(-286.108 -398.802)" fill="#fff"/><path d="M373.155,425.889v.022A15.314,15.314,0,0,1,372,427.375a3.6,3.6,0,0,1-1.6-.978,2.732,2.732,0,0,1,.183-.441c.3-.414.564-.859.8-1.165a1.681,1.681,0,0,1,.967-.541s.5.676.437,1c0,0,.373-.049.344.314C373.111,425.564,373.331,425.65,373.155,425.889Z" transform="translate(-319.157 -404.498)" fill="#fff"/><path d="M323.775,441.31l.792,2.685a.836.836,0,0,1,.03.317l-.355,2.987-.933,2.434h-.6l-.474-3.2-.067-2.427a.777.777,0,0,1,.052-.306l.922-2.4Z" transform="translate(-288.935 -415.188)" fill="#fe561c"/><path d="M324.6,437.336l-.086.243a.571.571,0,0,1-.538.373H323.6a.579.579,0,0,1-.493-.28l-.351-.6a.564.564,0,0,1,.041-.635l.646-.87.2-.06.9,1.3A.575.575,0,0,1,324.6,437.336Z" transform="translate(-289.254 -411.554)" fill="#fe561c"/><path d="M317.16,431.767l-.866,1.912s-3.073-1.494-3.674-4.152l1.538-.1S314.692,430.688,317.16,431.767Z" transform="translate(-282.951 -407.744)" fill="#d1e3fb"/><path d="M327.4,433.272a4.161,4.161,0,0,1-1.12,2.039l-1.538-1.867s1.266-.314,1.12-1.314a5.358,5.358,0,0,1,1.538,1.143Z" transform="translate(-290.546 -409.436)" fill="#d1e3fb"/><path d="M307.244,430a42.39,42.39,0,0,1,4.35,12.146,16.875,16.875,0,0,1-.086,2.042s-2.151-5.918-5.537-8.506l.728-1.542-1.669-.717a7.5,7.5,0,0,0-1.12-2.8A13.412,13.412,0,0,1,307.244,430Z" transform="translate(-277.493 -408.101)" fill="#002880"/><path d="M324.346,445.719s3.118-5.705,3.08-10a4.8,4.8,0,0,1,1.927,1.344,7.521,7.521,0,0,1-.8,2.957l-1.034.4.508,1.292s-1.77,4.193-3.771,6.06C324.26,447.773,324.391,445.984,324.346,445.719Z" transform="translate(-290.245 -411.686)" fill="#002880"/><path d="M317.357,488.67l-.217-.034c1.3-7.841,2.565-21.1,2.576-21.227l.209.049C319.914,467.589,318.652,480.818,317.357,488.67Z" transform="translate(-285.783 -431.543)" fill="#002880"/><path d="M284.473,492.917c.063.205-.676.624-.87.609-.463-.183-.373-.47-.833-.575a3.736,3.736,0,0,0,1.206-.127C284.2,492.741,284.405,492.6,284.473,492.917Z" transform="translate(-264.247 -447.402)" fill="#fff"/><path d="M278.525,493.1a9.9,9.9,0,0,1,1.4.444c.553.213,1.74.836,1.822.881a7.031,7.031,0,0,1,1.019.575,1.322,1.322,0,0,1,.239.668.314.314,0,0,1-.258.269c.026.306-.676.183-.653.258.086.3-.261.5-1.18,0-.056-.03-3.588-1.3-4.361-1.613C276.662,494.052,278.5,493.1,278.525,493.1Z" transform="translate(-260.349 -447.641)" fill="#fff"/><path d="M258.47,441.515A16.972,16.972,0,0,1,260.5,439.7a4.871,4.871,0,0,1,.418-.373c2.453-1.93,12.553-7.919,14.45-5.974.635.653,2.524,4.854,2.33,5.754a.6.6,0,0,1-.344.441,43.816,43.816,0,0,1-6.183,1.706,69.115,69.115,0,0,0-7.038,1.886c-.213.082-.422.149-.627.209.336.967.724,2.158,1.12,3.409,1.057,3.26,2.375,7.315,3.248,8.614l-2.812,1.587c-1.867-2.882-5.3-9.544-6.228-13.162h0A9.87,9.87,0,0,1,258.47,441.515Z" transform="translate(-249.02 -409.964)" fill="#0030a6"/><path d="M370.944,424.762c.183.034.19.855.1,1.016-.34.321-.373.612-.691.93a11.74,11.74,0,0,0,.306-1.576C370.69,424.919,370.664,424.68,370.944,424.762Z" transform="translate(-319.126 -404.809)" fill="#fff"/><path d="M372.818,423.362a7.96,7.96,0,0,1,.971-.833l.228-.183a.228.228,0,0,1,.25-.022c.325.164,1.06.709.594,2.072-.638.422-.96.3-.948.019,0-.078-.747.217-.807-.1a.373.373,0,0,1-.373-.209A1.247,1.247,0,0,1,372.818,423.362Z" transform="translate(-320.605 -403.274)" fill="#fff"/></g><path d="M360.55,630.747a.747.747,0,0,0,.747.747h7.5a.747.747,0,1,0,0-1.494h-7.5A.747.747,0,0,0,360.55,630.747Z" transform="translate(-264.597 -415.888)" fill="#0030a6"/><path d="M332.033,631.494a.747.747,0,1,0,0-1.494H321.747a.747.747,0,1,0,0,1.494Z" transform="translate(-240.112 -415.888)" fill="#0030a6"/><path d="M341.7,619.494a.747.747,0,0,0,0-1.494H319.747a.747.747,0,1,0,0,1.494Z" transform="translate(-238.814 -408.368)" fill="#0030a6"/><path d="M342.281,643.494a.747.747,0,1,0,0-1.494H323.747a.747.747,0,0,0,0,1.494Z" transform="translate(-241.306 -423.407)" fill="#0030a6"/><path d="M368.127,654h-10.88a.747.747,0,1,0,0,1.494h10.88a.747.747,0,1,0,0-1.494Z" transform="translate(-262.071 -430.927)" fill="#0030a6"/><path d="M333.028,655.494a.747.747,0,0,0,0-1.494h-7.281a.747.747,0,1,0,0,1.494Z" transform="translate(-242.602 -430.927)" fill="#0030a6"/><path d="M341.8,666H327.747a.747.747,0,1,0,0,1.494H341.8a.747.747,0,0,0,0-1.494Z" transform="translate(-243.804 -438.446)" fill="#0030a6"/><path d="M481.106,79.771A7.068,7.068,0,0,0,485.96,77.9a7.247,7.247,0,0,0,2.461-4.708,6.116,6.116,0,0,0-1.445-4.876,6.045,6.045,0,0,0-4.626-2.083,7.486,7.486,0,0,0-7.482,6.6,6.1,6.1,0,0,0,1.467,4.854,6.024,6.024,0,0,0,1.7,1.363,6.347,6.347,0,0,0,2.909.724ZM482.327,67a5.783,5.783,0,0,1,2.614.642,5.086,5.086,0,0,1,1.452,1.165,5.358,5.358,0,0,1,1.258,4.283,6.471,6.471,0,0,1-2.21,4.219A6.314,6.314,0,0,1,480.961,79a5.35,5.35,0,0,1-5.332-6.09,6.429,6.429,0,0,1,2.24-4.234A6.347,6.347,0,0,1,482.327,67Z" transform="translate(-335.255 -62.62)" fill="#fff"/><path d="M482.642,80.17a3.7,3.7,0,0,0,1.057.851,4.047,4.047,0,0,0,1.841.452h.1a4.619,4.619,0,0,0,4.54-4.107,3.82,3.82,0,0,0-3.8-4.339,4.481,4.481,0,0,0-3.08,1.12,4.4,4.4,0,0,0-1.579,2.976A3.793,3.793,0,0,0,482.642,80.17Zm3.633-6.347h.082a3.211,3.211,0,0,1,1.475.373,2.958,2.958,0,0,1,.844.68,3.028,3.028,0,0,1,.724,2.446,3.708,3.708,0,0,1-1.281,2.416,3.663,3.663,0,0,1-2.58.963,2.987,2.987,0,0,1-2.319-1.038h0a3.013,3.013,0,0,1-.724-2.442,3.674,3.674,0,0,1,1.3-2.461,3.734,3.734,0,0,1,2.494-.945Z" transform="translate(-339.555 -66.876)" fill="#fff"/><path d="M520.608,109.738a6.056,6.056,0,0,0-4.63-2.069,7.468,7.468,0,0,0-7.468,6.59,6.176,6.176,0,0,0,3.159,6.228,6.407,6.407,0,0,0,2.909.721h.172a7.072,7.072,0,0,0,4.854-1.886,7.24,7.24,0,0,0,2.461-4.708,6.12,6.12,0,0,0-1.456-4.876ZM514.6,120.431a5.334,5.334,0,0,1-5.324-6.075,6.721,6.721,0,0,1,6.549-5.907h.146a5.738,5.738,0,0,1,2.614.638,5.227,5.227,0,0,1,1.452,1.165,5.362,5.362,0,0,1,1.258,4.286,6.5,6.5,0,0,1-2.207,4.219A6.347,6.347,0,0,1,514.6,120.431Z" transform="translate(-356.069 -88.584)" fill="#fff"/><path d="M520.019,114.479a4.481,4.481,0,0,0-3.084,1.12,4.421,4.421,0,0,0-1.565,2.965,3.8,3.8,0,0,0,.915,3.036,3.732,3.732,0,0,0,1.057.848,4.013,4.013,0,0,0,1.826.456h.1a4.626,4.626,0,0,0,4.54-4.107,3.816,3.816,0,0,0-3.794-4.335Zm-.836,7.651a3.047,3.047,0,0,1-3.043-3.484,3.674,3.674,0,0,1,1.311-2.453,3.734,3.734,0,0,1,2.479-.945h.086a3.211,3.211,0,0,1,1.475.373,3.073,3.073,0,0,1,1.568,3.125,3.7,3.7,0,0,1-1.281,2.446A3.652,3.652,0,0,1,519.182,122.129Z" transform="translate(-360.374 -92.84)" fill="#fff"/><path d="M503.483,68.33a.183.183,0,0,0-.157-.1l-3.084-.063a.179.179,0,0,0-.164.093l-15.29,27.126a.179.179,0,0,0,0,.183.187.187,0,0,0,.157.093l3.084.067h0a.19.19,0,0,0,.164-.1l15.29-27.122a.179.179,0,0,0,0-.183ZM485.934,94.915,500.571,68.95l1.755.037L487.689,94.952Z" transform="translate(-341.365 -63.833)" fill="#fff"/><path d="M329.143,263.7l-4.283-8.214,3.734-7.751a.325.325,0,0,0-.03-.332.332.332,0,0,0-.306-.134l-8.427,1.072-6.254-6.8a.336.336,0,0,0-.344-.09.332.332,0,0,0-.224.276l-.941,8.879-7.572,3.566a.321.321,0,0,0-.187.284.336.336,0,0,0,.164.3l7.867,4.395,1.535,9.006a.317.317,0,0,0,.228.258.274.274,0,0,0,.093,0,.325.325,0,0,0,.239-.1l5.814-6.131,8.543,1.971a.332.332,0,0,0,.332-.12A.325.325,0,0,0,329.143,263.7Zm-9.335-2.334-5.227,5.533-1.389-8.158a.317.317,0,0,0-.161-.228l-7.169-4.01,6.893-3.245a.321.321,0,0,0,.187-.261l.851-7.931,5.6,6.086a.325.325,0,0,0,.284.1l7.665-.978-3.4,7.034-.022.049a.321.321,0,0,0,0,.291l3.857,7.389-7.677-1.77a.329.329,0,0,0-.295.1Z" transform="translate(-229.722 -172.408)" fill="#fff"/><path d="M548.236,212.675h-.03a.515.515,0,0,1-.373,0h-.022a.508.508,0,0,1-.03-.937s.336-.153.941-.411a.512.512,0,0,1,.661.269.493.493,0,0,1,0,.373.515.515,0,0,1-.273.28Z" transform="translate(-380.332 -153.515)" fill="#fff"/><path d="M598.658,196.392a.512.512,0,0,1-.452.556c-.609.063-1.262.153-1.942.269a.482.482,0,0,1-.243-.019.511.511,0,0,1-.343-.4.5.5,0,0,1,.086-.373.511.511,0,0,1,.328-.209c.7-.116,1.374-.213,2.009-.276h0a.463.463,0,0,1,.187,0A.5.5,0,0,1,598.658,196.392Z" transform="translate(-410.145 -143.893)" fill="#fff"/><path d="M612.082,167.53a.508.508,0,0,1-.373.06h-.034a.489.489,0,0,1-.276-.22.508.508,0,0,1,.172-.694,16,16,0,0,1,1.83-.945h0a.5.5,0,0,1,.336-.022.478.478,0,0,1,.329.287.508.508,0,0,1-.261.665A14.464,14.464,0,0,0,612.082,167.53Z" transform="translate(-419.836 -124.941)" fill="#fff"/><path d="M623.6,163.743a14.6,14.6,0,0,0-1.867.4.508.508,0,1,1-.273-.978,16.431,16.431,0,0,1,2.009-.429.441.441,0,0,1,.209,0,.508.508,0,0,1-.06.989Z" transform="translate(-425.873 -123.084)" fill="#fff"/><path d="M594.046,187.954h.022a.508.508,0,0,1,.31.646c-.063.187-.123.373-.172.56a8.537,8.537,0,0,0-.254,1.273.512.512,0,0,1-.564.441.411.411,0,0,1-.1-.022.5.5,0,0,1-.243-.168.519.519,0,0,1-.1-.373,9.84,9.84,0,0,1,.284-1.419c.056-.205.123-.414.194-.624h0a.5.5,0,0,1,.586-.329Z" transform="translate(-408.472 -138.875)" fill="#fff"/><path d="M604.221,172.92c-.149.138-.295.276-.433.414a.511.511,0,0,1-.515.123.493.493,0,0,1-.2-.123.508.508,0,0,1,0-.717c.146-.146.3-.295.459-.441.347-.321.706-.631,1.068-.919h0a.506.506,0,0,1,.627.8C604.886,172.326,604.546,172.618,604.221,172.92Z" transform="translate(-414.638 -128.363)" fill="#fff"/><path d="M555.678,208.988a.508.508,0,0,1-.373-.941c.556-.228,1.184-.474,1.867-.747a.509.509,0,0,1,.657.661.5.5,0,0,1-.28.269Z" transform="translate(-384.989 -150.993)" fill="#fff"/><path d="M598.5,179.1a.511.511,0,0,1-.1.373,12.753,12.753,0,0,0-1.075,1.583.5.5,0,0,1-.594.235.491.491,0,0,1-.1-.045.508.508,0,0,1-.187-.691,14.083,14.083,0,0,1,1.157-1.71h0a.508.508,0,0,1,.53-.175.519.519,0,0,1,.373.429Z" transform="translate(-410.587 -133.065)" fill="#fff"/><path d="M614.248,217.175a2.524,2.524,0,0,0,1.449-.747h0a.508.508,0,0,1,.5-.138.5.5,0,0,1,.213.123.512.512,0,0,1,0,.717,3.536,3.536,0,0,1-2.016,1.053.486.486,0,0,1-.243,0,.463.463,0,0,1-.134-.071.5.5,0,0,1-.209-.329.5.5,0,0,1,.418-.582Z" transform="translate(-421.367 -156.637)" fill="#fff"/><path d="M596.653,208.476a.508.508,0,0,1,.694.164,8.937,8.937,0,0,0,1.157,1.494.5.5,0,0,1-.519.833.485.485,0,0,1-.209-.127,10.06,10.06,0,0,1-1.292-1.654.512.512,0,0,1,.164-.7Z" transform="translate(-410.61 -151.705)" fill="#fff"/><path d="M565.23,205.326a.508.508,0,0,1-.321-.31.5.5,0,0,1,0-.373.508.508,0,0,1,.287-.261c.6-.22,1.236-.444,1.886-.668a.512.512,0,0,1,.3,0,.5.5,0,0,1,.347.325.519.519,0,0,1-.023.373.5.5,0,0,1-.291.254c-.646.224-1.273.444-1.867.665a.5.5,0,0,1-.317,0Z" transform="translate(-391.085 -148.753)" fill="#fff"/><path d="M577.246,200.409h0a.534.534,0,0,1,.276,0,.508.508,0,0,1,0,.975c-.638.187-1.269.373-1.893.582a.489.489,0,0,1-.31,0l-.075-.03a.506.506,0,0,1,.075-.933C575.958,200.794,576.6,200.619,577.246,200.409Z" transform="translate(-397.332 -146.686)" fill="#fff"/><path d="M585.6,198.185c.668-.172,1.329-.332,1.96-.47a.486.486,0,0,1,.243,0,.5.5,0,0,1,.373.373.732.732,0,0,1,0,.09l.022-.03a.5.5,0,0,1,.336-.19.578.578,0,0,1,.194,0,.523.523,0,0,1,.373.433,8.14,8.14,0,0,0,.418,1.826.508.508,0,0,1-.956.336,9.365,9.365,0,0,1-.47-2.05.147.147,0,0,0,0-.037.508.508,0,0,1-.31.213c-.6.131-1.243.287-1.919.463a.508.508,0,1,1-.258-.982Z" transform="translate(-403.662 -144.999)" fill="#fff"/><path d="M603.87,216.221a.5.5,0,0,1,.56-.213.475.475,0,0,1,.142.063,6.381,6.381,0,0,0,1.665.78.515.515,0,1,1-.284.989l-.175-.056a7.427,7.427,0,0,1-1.755-.848.493.493,0,0,1-.22-.317.516.516,0,0,1,.067-.373Z" transform="translate(-415.173 -156.46)" fill="#fff"/><path d="M606.29,196.116a.515.515,0,0,1,.146-.373.523.523,0,0,1,.373-.153,12.967,12.967,0,0,1,2.069.149h.056a.493.493,0,0,1,.373.568.5.5,0,0,1-.582.418,11.449,11.449,0,0,0-1.9-.134.425.425,0,0,1-.153-.026A.5.5,0,0,1,606.29,196.116Z" transform="translate(-416.716 -143.677)" fill="#fff"/><path d="M642.78,163.168c.65.116,1.318.269,1.983.452h0a.508.508,0,0,1-.273.975c-.635-.175-1.273-.321-1.908-.437h-.049a.5.5,0,0,1-.347-.571.5.5,0,0,1,.209-.329.508.508,0,0,1,.385-.09Z" transform="translate(-438.928 -123.356)" fill="#fff"/><path d="M634.053,163.345a16.923,16.923,0,0,0-1.919-.06.489.489,0,0,1-.164-.026.507.507,0,0,1,.142-.989,18.791,18.791,0,0,1,2.042.06l.1.019a.5.5,0,0,1,.373.53.511.511,0,0,1-.571.467Z" transform="translate(-432.391 -122.795)" fill="#fff"/><path d="M653.018,165.9h.041c.631.228,1.266.485,1.867.747a.508.508,0,1,1-.373.945l-.052-.019c-.59-.269-1.2-.515-1.807-.747a.5.5,0,0,1-.288-.261.5.5,0,0,1,.571-.709Z" transform="translate(-445.227 -125.037)" fill="#fff"/><path d="M621.411,209.246h0a.508.508,0,0,1-.332-.62v-.056a6.708,6.708,0,0,0,.19-1.034,5.5,5.5,0,0,0,.037-.747.508.508,0,0,1,.146-.373.515.515,0,0,1,.351-.153.575.575,0,0,1,.146,0,.5.5,0,0,1,.373.482,6.866,6.866,0,0,1-.045.859,7.812,7.812,0,0,1-.224,1.195v.063a.508.508,0,0,1-.534.373Z" transform="translate(-425.877 -150.362)" fill="#fff"/><path d="M619.1,199.615a.511.511,0,0,1-.646.347.5.5,0,0,1-.284-.235,2.957,2.957,0,0,0-1.225-1.143.508.508,0,0,1-.25-.3.493.493,0,0,1,.037-.373.508.508,0,0,1,.586-.254.284.284,0,0,1,.1.041,3.894,3.894,0,0,1,1.62,1.531A.511.511,0,0,1,619.1,199.615Z" transform="translate(-423.149 -144.962)" fill="#fff"/><path d="M662.923,170.4a.372.372,0,0,1,.112.049c.53.291.844.493.9.53a.5.5,0,0,1,.22.321.523.523,0,0,1-.071.373.512.512,0,0,1-.586.2.622.622,0,0,1-.123-.06c-.131-.082-.411-.254-.833-.489a.5.5,0,0,1-.2-.687A.511.511,0,0,1,662.923,170.4Z" transform="translate(-451.383 -127.881)" fill="#fff"/><path d="M515.47,207.892l16.406.687L527.5,202.8l-.291.071-2.535.747,2.5-1.564-.1-.329-1.815-6.818Zm14.543-.287-12.8-.538,7.647-10.141,1.262,4.738-7.509,4.7,8.535-2.535Z" transform="translate(-360.381 -143.251)" fill="#fff"/><path d="M385.961,125.591a8.3,8.3,0,0,0-3.383-2.868l.179-1a.982.982,0,0,0-.161-.747,1,1,0,0,0-.642-.414l-2.3-.414a.982.982,0,0,0-.747.161,1,1,0,0,0-.414.642l-.168.922c-2.8.131-4.809,1.684-5.227,4.066-.747,3.924,2.427,5.548,4.525,6.624,2.457,1.258,2.509,1.6,2.39,2.266-.019.1-.078.418-.825.553a4.854,4.854,0,0,1-1.613-.041,5.19,5.19,0,0,1-2.39-1.12,1,1,0,0,0-1.415.045l-1.594,1.706a1,1,0,0,0,.045,1.415,8.875,8.875,0,0,0,2.987,1.781l-.153.844a1,1,0,0,0,.807,1.165l2.3.414a.975.975,0,0,0,.179,0,1,1,0,0,0,.982-.821l.194-1.079a5.086,5.086,0,0,0,4.761-4.107c.747-4.107-2.52-5.795-4.682-6.9-2.278-1.169-2.33-1.449-2.24-1.975.056-.317.489-.441.844-.489a4.948,4.948,0,0,1,1.452.052,4.328,4.328,0,0,1,2.681,1.673.978.978,0,0,0,.627.429,1,1,0,0,0,.747-.138l1.96-1.281a1.008,1.008,0,0,0,.3-1.367Zm-9.424.989c-.239,1.243.541,1.77,2.67,2.86,1.942.993,4.88,2.494,4.242,6.019-.373,1.983-1.979,3.278-4.331,3.465l-.246.022a.09.09,0,0,0-.082.075l-.3,1.624a.172.172,0,0,1-.071.112.176.176,0,0,1-.127.03l-2.308-.418a.175.175,0,0,1-.138-.2l.265-1.467a.093.093,0,0,0-.063-.1l-.265-.086a8.274,8.274,0,0,1-3.021-1.721.164.164,0,0,1-.056-.119.179.179,0,0,1,.049-.123l1.594-1.706a.183.183,0,0,1,.131-.056.161.161,0,0,1,.116.045,6.09,6.09,0,0,0,2.812,1.329,5.9,5.9,0,0,0,1.9.041c1.087-.194,1.411-.769,1.494-1.221.246-1.344-.456-1.934-2.823-3.148-1.867-.963-4.72-2.416-4.089-5.739.373-2.08,2.207-3.383,4.776-3.4h.269a.1.1,0,0,0,.09-.078l.276-1.516a.176.176,0,0,1,.071-.108.172.172,0,0,1,.127-.03l2.307.418a.164.164,0,0,1,.108.071.175.175,0,0,1,.03.131l-.306,1.564a.1.1,0,0,0,.056.1l.235.1a7.467,7.467,0,0,1,3.331,2.711.175.175,0,0,1-.049.239l-1.964,1.255a.183.183,0,0,1-.127.022.187.187,0,0,1-.108-.075,5.227,5.227,0,0,0-3.226-2.035C378.426,125.233,376.753,125.375,376.537,126.581Z" transform="translate(-271.587 -96.395)" fill="#fff"/></svg>