<svg xmlns="http://www.w3.org/2000/svg" xmlns:xlink="http://www.w3.org/1999/xlink" width="308.087" height="316.18" viewBox="0 0 308.087 316.18"><defs><linearGradient id="a" y1="0.5" x2="1" y2="0.5" gradientUnits="objectBoundingBox"><stop offset="0" stop-color="#8fc4f9"/><stop offset="0.17" stop-color="#7dbaf8"/><stop offset="0.72" stop-color="#469df4"/><stop offset="0.99" stop-color="#3091f2"/></linearGradient><linearGradient id="b" x1="-20.615" y1="0.5" x2="-19.615" y2="0.5" gradientUnits="objectBoundingBox"><stop offset="0" stop-color="#4cc194"/><stop offset="0.28" stop-color="#4cd08b"/><stop offset="0.68" stop-color="#4ce083"/><stop offset="1" stop-color="#4ce580"/></linearGradient><linearGradient id="c" x1="-24.278" y1="23.415" x2="-23.468" y2="23.415" gradientUnits="objectBoundingBox"><stop offset="0" stop-color="#ffe2c4"/><stop offset="1" stop-color="#ffb870"/></linearGradient><linearGradient id="d" x1="-6.195" y1="7.747" x2="-5.277" y2="7.747" xlink:href="#c"/><linearGradient id="e" y1="0.5" x2="1" y2="0.5" gradientUnits="objectBoundingBox"><stop offset="0" stop-color="#ffb870"/><stop offset="1" stop-color="#ffe2c4"/></linearGradient><linearGradient id="f" x1="-153.569" y1="0.501" x2="-152.57" y2="0.501" xlink:href="#c"/><linearGradient id="g" x1="0.001" y1="0.5" x2="1.001" y2="0.5" xlink:href="#e"/></defs><g transform="translate(-8.13 -6.8)"><path d="M179.511,150.6c-.878-1.446-1.8-2.9-2.769-4.339l1.446-.964c.964,1.459,1.9,2.942,2.793,4.413Zm-5.7-8.578c-.989-1.372-2.027-2.756-3.09-4.128l1.36-1.063c1.075,1.384,2.126,2.793,3.127,4.178Zm-6.329-8.146c-1.088-1.236-2.225-2.608-3.374-3.906l1.236-1.15c1.162,1.31,2.311,2.633,3.412,3.943Zm-6.872-7.7c-1.236-1.236-2.386-2.472-3.609-3.708l1.236-1.236c1.236,1.236,2.472,2.472,3.634,3.708Zm-7.317-7.268c-1.236-1.162-2.472-2.336-3.807-3.486l1.15-1.236c1.31,1.162,2.608,2.348,3.844,3.51Zm-7.7-6.885c-1.31-1.1-2.645-2.213-3.98-3.3l1.088-1.347c1.347,1.1,2.695,2.213,4,3.337Zm-8.034-6.514c-1.372-1.063-2.744-2.1-4.128-3.115l1.026-1.4c1.4,1.026,2.781,2.077,4.166,3.152Zm-8.319-6.18c-1.421-1-2.831-1.99-4.252-2.954l.976-1.421c1.421.964,2.855,1.953,4.277,2.967ZM120.687,93.5c-1.459-.964-2.917-1.891-4.351-2.793l.915-1.471c1.446.915,2.917,1.854,4.388,2.818Zm-8.739-5.488c-1.508-.915-2.991-1.792-4.45-2.645l.865-1.5c1.471.865,2.967,1.743,4.475,2.658ZM103,82.811c-1.557-.865-3.065-1.706-4.549-2.472l.828-1.52c1.483.8,3,1.632,4.561,2.472Zm-9.134-4.944c-1.595-.828-3.14-1.607-4.61-2.336l.766-1.557,4.623,2.386Zm-9.283-4.6c-1.718-.791-3.288-1.52-4.771-2.188l.717-1.582c1.446.655,3.028,1.4,4.734,2.2ZM75.114,69c-3.016-1.236-4.771-1.965-4.784-1.965l.618-1.619s1.792.717,4.858,1.953Z" transform="translate(14.683 13.838)" fill="#cbcaff"/><path d="M56.848,230.4c.692-.334,1.372-.68,2.027-1.051a15.31,15.31,0,0,0,1.829-1.236,19.847,19.847,0,0,0,0-2.1c-1.669-1.656-3.708-1.5-3.177-2.175s4.462-.865,7.874-1.075a9.2,9.2,0,0,0,.816-3.053s.062-2.089,0-2.114c-3.078-.791-6.687.482-6.9-.3s2.756-2.188,5.29-3.523v-2.1c-3.337.408-9.481.321-10.494-.272s-.074-2.732.643-4.672v-2.1c-2.3,1.471-9.481,3.894-10.853,3.708s-2.781-2.188-4.178-3.98a41.854,41.854,0,0,0-5.29.47c-.358,1.965-.606,4.178-1.866,4.549s-4.437-.853-7.416-1.842c-.7.334-3.2-.26-3.856.124v2.114c1.706,1.718,3.782,3.572,3.177,4.277s-5.068,1.063-8.467,1.236c-.47,1-.136,1.829-.222,2.855,3.115.8,6.675,1.619,6.9,2.472s-2.892.173-5.3,1.409v2.114a14.016,14.016,0,0,0,2.386,2.831c3.35-.408,7.07-.952,8.1-.371s0,.766-.643,2.559c-.062.173,0,1.953,0,2.114a35.988,35.988,0,0,0,4.759,1.4c2.3-1.471,4.722-3.189,6.094-3.065s2.707,2.188,4.153,3.98a41.869,41.869,0,0,0,5.29-.482c.358-1.965.593-4.166,1.866-4.536S53.82,229.415,56.848,230.4Zm-24.721-6.292c-4.87-2.806-4.87-7.416,0-10.173a19.505,19.505,0,0,1,17.626,0c4.858,2.818,4.858,7.416,0,10.173a19.455,19.455,0,0,1-17.626,0Z" transform="translate(1.799 46.635)" fill="#1565c0"/><path d="M56.854,228.7c.692-.321,1.372-.667,2.027-1.051a15.31,15.31,0,0,0,1.829-1.236c-1.706-1.718-3.795-3.585-3.177-4.289s4.462-.865,7.874-1.063a9.258,9.258,0,0,0,.816-3.065c-3.127-.8-6.675-1.607-6.9-2.472s2.756-2.188,5.29-3.51a13.67,13.67,0,0,0-2.472-2.756c-3.35.42-7.07.964-8.084.371s-.074-2.732.643-4.66a33.892,33.892,0,0,0-4.771-1.4c-2.287,1.471-4.709,3.177-6.081,3.053s-2.781-2.175-4.178-3.98a44.275,44.275,0,0,0-5.29.47c-.358,1.965-.606,4.178-1.866,4.549s-4.437-.841-7.416-1.829a22.629,22.629,0,0,0-2.039,1.051,14.234,14.234,0,0,0-1.817,1.236c1.706,1.718,3.782,3.585,3.177,4.277s-4.462.878-7.874,1.088a8.838,8.838,0,0,0-.816,3.053c3.115.8,6.675,1.607,6.9,2.41s-2.756,2.188-5.3,3.51a14.067,14.067,0,0,0,2.447,2.88c3.35-.42,7.07-.964,8.1-.371s0,2.732-.643,4.66a32.613,32.613,0,0,0,4.759,1.4c2.3-1.471,4.722-3.177,6.094-3.053s2.781,2.175,4.178,3.98a41.863,41.863,0,0,0,5.29-.482c.358-1.953.593-4.166,1.866-4.536S53.825,227.707,56.854,228.7ZM32.132,222.4c-4.87-2.806-4.87-7.355,0-10.16a19.431,19.431,0,0,1,17.626,0c4.858,2.806,4.858,7.416,0,10.16A19.381,19.381,0,0,1,32.132,222.4Z" transform="translate(1.794 46.229)" fill="#3091f2"/><path d="M75.037,211.773a11.544,11.544,0,0,0,1.236-.667c.371-.235.791-.482,1.15-.729v-1.953c-1.038-1.038-2.361-.321-1.99-.729s2.806-.556,4.944-.68A5.476,5.476,0,0,0,80.9,205.1v-1.941c-1.928-.507-4.19.915-4.326.433s1.73-1.384,3.325-2.213v-1.941c-2.1.26-5.958.816-6.588.457s0-1.718.408-2.942V195c-1.446.927-5.958,3.065-6.811,2.991s-1.743-1.372-2.62-2.472a27.19,27.19,0,0,0-3.325.3c-.222,1.236-.371,2.62-1.162,2.843s-2.793-.519-4.66-1.15c-.433.21-2-.779-2.41-.544v1.941c1.15,1.038,2.386,2.274,2.015,2.682s-3.325.507-5.451.643v1.941c1.953.507,4.178,1.014,4.326,1.52s-1.817-.519-3.325.26v1.941a8.8,8.8,0,0,0,1.508,1.73c2.1-.26,4.4-.531,5.08-.235.185.074,0-.148-.408.976v1.953a22.681,22.681,0,0,0,2.991.878c1.434-.927,2.954-2,3.819-1.928s1.743,1.372,2.62,2.472a26.819,26.819,0,0,0,3.313-.309c.235-1.236.383-2.608,1.236-2.843S73.171,211.155,75.037,211.773ZM59.586,207.83c-3.053-1.768-3.065-4.623,0-6.378a12.175,12.175,0,0,1,11.05,0c3.053,1.755,3.053,4.611,0,6.378a12.225,12.225,0,0,1-11.05,0Z" transform="translate(9.716 44.426)" fill="#1565c0"/><path d="M75.035,210.1a13.7,13.7,0,0,0,1.236-.655,11.5,11.5,0,0,0,1.15-.742c-1.075-1.075-2.373-2.237-1.99-2.682s2.806-.544,4.944-.68a5.414,5.414,0,0,0,.519-1.9c-1.953-.507-4.19-1.014-4.326-1.52s1.73-1.372,3.325-2.2a8.171,8.171,0,0,0-1.52-1.73c-2.1.26-4.437.606-5.068.235s0-1.718.408-2.929a22.683,22.683,0,0,0-2.991-.878c-1.446.927-2.967,2-3.819,1.916s-1.743-1.36-2.62-2.472a27.2,27.2,0,0,0-3.325.309c-.222,1.236-.371,2.608-1.162,2.843s-2.793-.531-4.66-1.15a12.849,12.849,0,0,0-1.236.655c-.371.235-.791.482-1.137.742,1.063,1.075,2.373,2.25,1.99,2.682s-2.806.544-4.944.68a5.723,5.723,0,0,0-.507,1.916c1.953.507,4.178,1.014,4.326,1.508s-1.73,1.384-3.325,2.213a8.739,8.739,0,0,0,1.508,1.718c2.1-.26,4.437-.593,5.08-.235s0,1.718-.408,2.929a19.469,19.469,0,0,0,2.991.878c1.434-.915,2.954-1.99,3.819-1.916s1.743,1.372,2.62,2.472a24.627,24.627,0,0,0,3.313-.3c.235-1.236.383-2.62,1.236-2.843S73.168,209.471,75.035,210.1Zm-15.451-3.943c-3.053-1.755-3.065-4.61,0-6.378a12.249,12.249,0,0,1,11.05,0c3.053,1.768,3.053,4.623,0,6.378a12.15,12.15,0,0,1-11.05-.012Z" transform="translate(9.718 44.157)" fill="#3091f2"/><path d="M157.617,234.111l4.153-34.795V194.99l-60.27,2.4V201.7l9.481,5.476L55.37,234.964v4.326l37.156,21.458,55.61-32.113Z" transform="translate(11.151 44.423)" fill="#26aab7"/><path d="M157.617,229.785l4.153-34.795-60.27,2.4,9.481,5.476-55.61,32.1,37.156,21.458,55.61-32.113Z" transform="translate(11.151 44.423)" fill="#36d8e0"/><path d="M83.222,178.471v-6.242H80.441a16.564,16.564,0,0,0-3.782-2.9c-8.751-5.055-22.941-5.055-31.692,0a16.564,16.564,0,0,0-3.782,2.9H38.39v6.242c0,3.313,2.188,6.625,6.576,9.159,8.751,5.055,22.941,5.055,31.692,0C81.034,185.047,83.222,181.734,83.222,178.471Z" transform="translate(7.143 37.47)" fill="#86e5ff"/><path d="M76.657,182.528c-8.751,5.055-22.941,5.055-31.692,0s-8.764-13.238,0-18.294,22.941-5.055,31.692,0S85.42,177.485,76.657,182.528Z" transform="translate(7.145 36.268)" fill="#f3fdff"/><path d="M81.379,98.246C78.721,83.821,60.786,43.34,60.786,43.34S42.876,83.821,40.28,98.246c-4.475,24.721,0,100.751,0,100.751h0c0,3.028,2.015,6.069,6.02,8.38,8.022,4.635,21.013,4.635,29.072,0,4.03-2.324,6.032-5.364,6.007-8.418C81.465,197.637,85.841,122.806,81.379,98.246Z" transform="translate(7.12 8.625)" fill="url(#a)"/><path d="M81.807,100.644c-.124-.841-.247-1.644-.383-2.4C78.8,83.821,60.818,43.34,60.818,43.34S42.92,83.821,40.312,98.246c-.136.742-.26,1.545-.383,2.386s-.21,1.57-.309,2.472c.136,3.041,2.188,6.057,6.18,8.38,8.294,4.8,21.767,4.8,30.073,0,4.03-2.324,6.081-5.352,6.18-8.393A24.454,24.454,0,0,0,81.807,100.644Z" transform="translate(7.433 8.625)" fill="#fb8c00"/><path d="M92.778,210.63,68.44,136.788l2.163-1.3L91.48,156.9l3.461,52.433Z" transform="translate(14.237 30.378)" fill="#f8af63"/><path d="M68.44,185.055V136.54l20.877,21.408,3.461,52.434Z" transform="translate(14.237 30.626)" fill="#fb8c00"/><path d="M24.613,210.63l24.338-73.842-2.151-1.3L25.911,156.9,22.45,209.332Z" transform="translate(3.38 30.378)" fill="#f8af63"/><path d="M48.538,185.055V136.54L27.661,157.948,24.2,210.382Z" transform="translate(3.793 30.626)" fill="#fb8c00"/><rect width="10.803" height="33.621" transform="translate(61.973 180.342)" fill="#f3fdff"/><rect width="10.803" height="36.847" transform="translate(61.973 135.721)" fill="#f3fdff"/><path d="M104.55,26.96l4.771-2.719a1.446,1.446,0,0,1,.334-.185h0a2.039,2.039,0,0,1,1.706.272l137.4,79.33a5.871,5.871,0,0,1,2.658,4.623V278.337a1.891,1.891,0,0,1-.779,1.73l-.222.1-4.746,2.732-.989-5.142,1.421.593-134.73-77.8a5.908,5.908,0,0,1-2.67-4.623V29.84Z" transform="translate(22.761 4.055)" fill="#1565c0"/><path d="M109.321,24.24a1.446,1.446,0,0,1,.334-.185h0a2.039,2.039,0,0,1,1.706.272l137.4,79.33a5.241,5.241,0,0,1,1.669,1.669l-94.262,62.668-44.807,32.558a5.908,5.908,0,0,1-2.67-4.623V29.84l-4.141-2.88Z" transform="translate(22.761 4.055)" fill="#3091f2"/><path d="M103.91,198.211a5.871,5.871,0,0,0,2.67,4.623l137.388,79.318c1.471.865,2.67.173,2.67-1.533V110.55a5.884,5.884,0,0,0-2.67-4.611L106.58,26.61c-1.483-.853-2.67-.161-2.67,1.545Z" transform="translate(22.609 4.59)" fill="#8fc4f9"/><path d="M106,189.588,243.548,269V109.467L106,30.05Z" transform="translate(23.103 5.488)" fill="#f6f5fb"/><path d="M176.09,101.28c0-10.655,7.515-14.993,16.736-9.654s16.736,18.331,16.736,28.986-7.5,14.993-16.736,9.666S176.09,111.91,176.09,101.28Zm4.944,2.855c0,7.515,5.29,16.674,11.792,20.432s11.8.7,11.8-6.811-5.29-16.674-11.8-20.432-11.792-.729-11.792,6.786Z" transform="translate(39.648 19.484)" fill="#36d8e0"/><path d="M192.826,124.106c6.514,3.708,11.8.7,11.8-6.811s-5.266-16.637-11.755-20.407v-5.7c9.209,5.34,16.687,18.318,16.687,28.961s-7.5,14.993-16.736,9.666-16.736-18.343-16.736-28.973l4.944,2.855C181.034,111.189,186.325,120.349,192.826,124.106Z" transform="translate(39.648 19.921)" fill="#26aab7"/><path d="M145.31,83.491c0-10.655,7.5-14.993,16.736-9.666s16.736,18.331,16.736,29-7.5,14.993-16.736,9.654S145.31,94.146,145.31,83.491Zm4.944,2.855c0,7.515,5.3,16.674,11.8,20.432s11.8.7,11.8-6.811-5.315-16.674-11.817-20.444-11.792-.692-11.8,6.823Z" transform="translate(32.382 15.284)" fill="#36d8e0"/><path d="M159.026,106.437c6.415,3.585,11.619.532,11.619-6.91s-5.278-16.637-11.755-20.444V73.41c9.209,5.352,16.687,18.331,16.687,28.973s-7.416,14.919-16.551,9.752Z" transform="translate(35.588 15.724)" fill="#26aab7"/><path d="M112.6,64.611c0-10.655,7.515-14.993,16.749-9.666s16.736,18.331,16.736,29.035-7.515,14.993-16.749,9.666S112.6,75.328,112.6,64.611Zm4.944,2.843c0,7.515,5.29,16.687,11.792,20.444s11.8.692,11.8-6.811-5.29-16.687-11.8-20.444-11.792-.692-11.792,6.811Z" transform="translate(24.661 10.827)" fill="#36d8e0"/><path d="M137.923,80.215c-.2-7.416-5.377-16.279-11.743-19.975V54.53c9.085,5.278,16.489,17.985,16.687,28.541Z" transform="translate(27.866 11.267)" fill="#26aab7"/><g transform="translate(146.123 109.121)" opacity="0.4"><path d="M217.1,211.985,119.77,155.793v-.8L217.1,211.181Z" transform="translate(-119.77 -74.14)" fill="#c6c6c6"/><path d="M217.1,204.765,119.77,148.573v-.8L217.1,203.961Z" transform="translate(-119.77 -75.844)" fill="#c6c6c6"/><path d="M217.1,197.545,119.77,141.353v-.8L217.1,196.741Z" transform="translate(-119.77 -77.548)" fill="#c6c6c6"/><path d="M217.1,190.325,119.77,134.133v-.8L217.1,189.521Z" transform="translate(-119.77 -79.253)" fill="#c6c6c6"/><path d="M217.1,183.1,119.77,126.913v-.8L217.1,182.3Z" transform="translate(-119.77 -80.957)" fill="#c6c6c6"/><path d="M217.1,175.885,119.77,119.706v-.816L217.1,175.081Z" transform="translate(-119.77 -82.661)" fill="#c6c6c6"/><path d="M217.1,168.677,119.77,112.486v-.816L217.1,167.861Z" transform="translate(-119.77 -84.366)" fill="#c6c6c6"/><path d="M217.1,161.017,119.77,104.826v-.816l97.327,56.2Z" transform="translate(-119.77 -86.174)" fill="#c6c6c6"/><path d="M217.1,153.795,119.77,97.6v-.8L217.1,152.991Z" transform="translate(-119.77 -87.876)" fill="#c6c6c6"/><path d="M217.1,146.575,119.77,90.383v-.8L217.1,145.771Z" transform="translate(-119.77 -89.58)" fill="#c6c6c6"/></g><path d="M216.151,221.6l-13.708-68.5-12,15.636-11.149-25.03-10.766-7.12-10.939-18.615L147.4,157.256l-12.88-24.239-12.188,33.818-1.174-.42,13.152-36.464,12.694,23.893,10.136-39.084,12.3,20.951,10.84,7.157,10.445,23.46,12.4-16.155,14.252,71.184Z" transform="translate(26.681 25.485)" fill="url(#b)"/><path d="M216.161,217.864l-13.658-63.4-11.99,19.8-11.112-24.2-10.741,1.3-11.248-18.17-10.136,19.839-12.731-19.357-12.225,29.43-1.15-.47L134.3,131.031l12.843,19.53,10.173-19.9,11.99,19.381,10.853-1.323,10.506,22.9,12.4-20.469,14.314,66.45Z" transform="translate(26.684 29.238)" fill="#f2e941"/><path d="M216.174,215.535l-13.831-37.3-12.175.692-10.593-24.672-10.642,11.5-11.767-14.61-10.111,4.437L134.5,142.793l-12.249,18.022-1.026-.692,13.1-19.283,13.016,13.251,10.2-4.475,11.471,14.227L179.97,152l11,25.623,12.225-.692,14.14,38.182Z" transform="translate(26.696 31.641)" fill="#6b79fc"/><path d="M216.18,213.717l-13.831-24.709L190.112,187.6,179.4,163.138l-10.63,3.053-11.483-11.2-10.16,8.22L134.3,150.567l-12.249,8.492-.7-1.014,13.09-9.085L147.2,161.543l10.16-8.22,11.755,11.471,10.976-3.152,10.877,24.808,12.163,1.4,14.128,25.265Z" transform="translate(26.726 33.558)" fill="#f438b1"/><path d="M122.993,156.817c0,1-.593,1.817-1.323,1.817s-1.31-.816-1.31-1.817.593-1.817,1.31-1.817S122.993,155.816,122.993,156.817Z" transform="translate(26.493 34.983)" fill="#ff4f57"/><path d="M133.413,150.477c0,1-.593,1.817-1.323,1.817s-1.31-.816-1.31-1.817.593-1.817,1.31-1.817S133.413,149.463,133.413,150.477Z" transform="translate(28.952 33.487)" fill="#f431a1"/><path d="M133.413,141.787c0,1-.593,1.817-1.323,1.817s-1.31-.816-1.31-1.817.593-1.817,1.31-1.817S133.413,140.773,133.413,141.787Z" transform="translate(28.952 31.436)" fill="#f431a1"/><ellipse cx="1.31" cy="1.817" rx="1.31" ry="1.817" transform="translate(159.732 159.898)" fill="#f431a1"/><path d="M133.413,128.587c0,1-.593,1.817-1.323,1.817s-1.31-.816-1.31-1.817.593-1.817,1.31-1.817S133.413,127.586,133.413,128.587Z" transform="translate(28.952 28.32)" fill="#f431a1"/><path d="M151.913,116.577c0,1-.593,1.817-1.323,1.817s-1.31-.816-1.31-1.817.593-1.817,1.31-1.817S151.913,115.576,151.913,116.577Z" transform="translate(33.319 25.485)" fill="#f431a1"/><path d="M152.3,131.967c0,1-.581,1.817-1.31,1.817s-1.323-.816-1.323-1.817.593-1.817,1.323-1.817S152.3,130.966,152.3,131.967Z" transform="translate(33.411 29.117)" fill="#f431a1"/><ellipse cx="1.31" cy="1.817" rx="1.31" ry="1.817" transform="translate(182.587 180.33)" fill="#f431a1"/><path d="M151.893,153.877c0,1-.581,1.817-1.31,1.817s-1.323-.816-1.323-1.817.593-1.817,1.323-1.817S151.893,152.876,151.893,153.877Z" transform="translate(33.315 34.289)" fill="#f431a1"/><path d="M161.37,162.737c0,1-.581,1.817-1.31,1.817s-1.31-.816-1.31-1.817.581-1.817,1.31-1.817S161.37,161.736,161.37,162.737Z" transform="translate(35.555 36.381)" fill="#f431a1"/><path d="M161.37,160.177c0,1-.581,1.817-1.31,1.817s-1.31-.816-1.31-1.817.581-1.817,1.31-1.817S161.37,159.151,161.37,160.177Z" transform="translate(35.555 35.777)" fill="#f431a1"/><path d="M161.37,147.117c0,1-.581,1.817-1.31,1.817s-1.31-.816-1.31-1.817.581-1.817,1.31-1.817S161.37,146.165,161.37,147.117Z" transform="translate(35.555 32.694)" fill="#f431a1"/><ellipse cx="1.31" cy="1.817" rx="1.31" ry="1.817" transform="translate(194.305 159.898)" fill="#f431a1"/><path d="M170.163,138.347c0,1-.593,1.817-1.31,1.817s-1.323-.816-1.323-1.817.593-1.817,1.323-1.817S170.163,137.346,170.163,138.347Z" transform="translate(37.627 30.624)" fill="#f431a1"/><path d="M170.163,146.057c0,1-.593,1.829-1.31,1.829s-1.323-.828-1.323-1.829.593-1.817,1.323-1.817S170.163,145.056,170.163,146.057Z" transform="translate(37.627 32.444)" fill="#f431a1"/><path d="M170.163,151.257c0,1-.593,1.817-1.31,1.817s-1.323-.816-1.323-1.817.593-1.817,1.323-1.817S170.163,150.256,170.163,151.257Z" transform="translate(37.627 33.671)" fill="#f431a1"/><path d="M170.163,160.607c0,1-.593,1.817-1.31,1.817s-1.323-.816-1.323-1.817.593-1.817,1.323-1.817S170.163,159.606,170.163,160.607Z" transform="translate(37.627 35.878)" fill="#f431a1"/><path d="M179.01,180.347c0,1-.581,1.817-1.31,1.817s-1.31-.816-1.31-1.817.581-1.817,1.31-1.817S179.01,179.321,179.01,180.347Z" transform="translate(39.719 40.538)" fill="#f431a1"/><path d="M179.01,171.407c0,1-.581,1.817-1.31,1.817s-1.31-.816-1.31-1.817.581-1.817,1.31-1.817S179.01,170.406,179.01,171.407Z" transform="translate(39.719 38.428)" fill="#f431a1"/><path d="M179.01,164.807c0,1-.581,1.817-1.31,1.817s-1.31-.816-1.31-1.817.581-1.817,1.31-1.817S179.01,163.806,179.01,164.807Z" transform="translate(39.719 36.87)" fill="#f431a1"/><path d="M179.01,157.667c0,1-.581,1.817-1.31,1.817s-1.31-.816-1.31-1.817.581-1.817,1.31-1.817S179.01,156.666,179.01,157.667Z" transform="translate(39.719 35.184)" fill="#f431a1"/><path d="M188.74,144.727c0,1-.581,1.817-1.31,1.817s-1.31-.816-1.31-1.817.581-1.817,1.31-1.817S188.74,143.726,188.74,144.727Z" transform="translate(42.016 32.13)" fill="#f431a1"/><path d="M188.74,148.587c0,1-.581,1.817-1.31,1.817s-1.31-.816-1.31-1.817.581-1.817,1.31-1.817S188.74,147.586,188.74,148.587Z" transform="translate(42.016 33.041)" fill="#f431a1"/><path d="M188.74,171.167c0,1.014-.581,1.829-1.31,1.829s-1.31-.816-1.31-1.829.581-1.817,1.31-1.817S188.74,170.153,188.74,171.167Z" transform="translate(42.016 38.371)" fill="#f431a1"/><path d="M188.74,181.257c0,1.014-.581,1.817-1.31,1.817s-1.31-.8-1.31-1.817.581-1.817,1.31-1.817S188.74,180.256,188.74,181.257Z" transform="translate(42.016 40.753)" fill="#f431a1"/><path d="M200.073,201.1c0,1.014-.593,1.817-1.31,1.817s-1.323-.8-1.323-1.817.593-1.817,1.323-1.817S200.073,200.1,200.073,201.1Z" transform="translate(44.688 45.436)" fill="#ff4f57"/><path d="M143.963,152.207c0,1-.593,1.817-1.323,1.817s-1.31-.816-1.31-1.817.581-1.817,1.31-1.817S143.963,151.206,143.963,152.207Z" transform="translate(31.443 33.895)" fill="#f431a1"/><path d="M143.553,148.347c0,1-.593,1.817-1.31,1.817s-1.323-.816-1.323-1.817.593-1.817,1.323-1.817S143.553,147.3,143.553,148.347Z" transform="translate(31.346 32.984)" fill="#f431a1"/><ellipse cx="1.31" cy="1.817" rx="1.31" ry="1.817" transform="translate(172.278 193.667)" fill="#f431a1"/><path d="M207.859,251.19c-8.331,4.808-21.853,4.808-30.185,0s-8.343-12.62,0-17.441,21.853-4.808,30.185,0S216.2,246.37,207.859,251.19Z" transform="translate(38.546 52.72)" fill="#e8a50f"/><path d="M207.859,248.76c-8.331,4.808-21.853,4.808-30.185,0s-8.343-12.62,0-17.441,21.853-4.808,30.185,0S216.2,243.94,207.859,248.76Z" transform="translate(38.546 52.147)" fill="#f4cf31"/><path d="M192.266,250.787a26.612,26.612,0,0,1-13.152-3.189c-3.6-2.077-5.587-4.858-5.575-7.837s1.978-5.772,5.575-7.849a29.01,29.01,0,0,1,26.3,0c3.6,2.077,5.587,4.858,5.587,7.849s-1.99,5.76-5.587,7.837a26.612,26.612,0,0,1-13.152,3.189Zm0-21.124a25.87,25.87,0,0,0-12.719,3.028c-3.325,1.916-5.154,4.437-5.154,7.107s1.829,5.179,5.154,7.095a28.219,28.219,0,0,0,25.438,0c3.325-1.916,5.154-4.437,5.154-7.095s-1.829-5.191-5.154-7.107a25.957,25.957,0,0,0-12.719-3.028Z" transform="translate(39.046 52.395)" fill="#e8a50f"/><path d="M178.42,243.449l2.633-1.52a6.378,6.378,0,0,1-2.843-2.954l2.4-.667a5.389,5.389,0,0,0,2.583,2.806,5.933,5.933,0,0,0,5.636.358c1.459-.841,1.335-1.941.185-3.51-1.619-2.126-2.077-3.782.185-5.093a9.7,9.7,0,0,1,8.146-.161l2.6-1.508,1.644.952-2.472,1.459a5.377,5.377,0,0,1,2.41,2.472l-2.311.655a5.155,5.155,0,0,0-2.4-2.472,5.093,5.093,0,0,0-4.944-.3c-1.347.779-1.063,1.718.235,3.585,1.594,2.175,1.619,3.708-.7,5.068a10.086,10.086,0,0,1-8.553.161l-2.707,1.557Z" transform="translate(40.148 52.971)" fill="#e8a50f"/><path d="M207.859,248.017c-8.331,4.808-21.853,4.808-30.185,0s-8.343-12.62,0-17.428,21.853-4.808,30.185,0S216.2,243.159,207.859,248.017Z" transform="translate(38.546 51.975)" fill="#e8a50f"/><path d="M207.859,245.547c-8.331,4.821-21.853,4.821-30.185,0s-8.343-12.62,0-17.428,21.853-4.808,30.185,0S216.2,240.739,207.859,245.547Z" transform="translate(38.546 51.392)" fill="#f4cf31"/><path d="M192.266,247.582a26.736,26.736,0,0,1-13.152-3.152c-3.6-2.077-5.587-4.87-5.575-7.849s1.978-5.772,5.575-7.849a29.01,29.01,0,0,1,26.3,0c3.6,2.077,5.587,4.858,5.587,7.849s-1.99,5.772-5.587,7.849a26.736,26.736,0,0,1-13.152,3.152Zm0-21.137a25.747,25.747,0,0,0-12.719,3.041c-3.325,1.916-5.154,4.437-5.154,7.095s1.829,5.179,5.154,7.095a28.12,28.12,0,0,0,25.438,0c3.325-1.916,5.154-4.437,5.154-7.1s-1.829-5.179-5.154-7.095a25.772,25.772,0,0,0-12.719-3.041Z" transform="translate(39.046 51.644)" fill="#e8a50f"/><path d="M178.42,240.237l2.633-1.508a6.4,6.4,0,0,1-2.843-2.967l2.4-.655a5.426,5.426,0,0,0,2.583,2.806,5.958,5.958,0,0,0,5.636.346c1.459-.84,1.335-1.941.185-3.5-1.619-2.138-2.077-3.782.185-5.093a9.654,9.654,0,0,1,8.146-.161l2.6-1.508,1.644.952-2.472,1.446a5.389,5.389,0,0,1,2.41,2.472l-2.311.643a5.265,5.265,0,0,0-2.4-2.472,5.13,5.13,0,0,0-4.944-.3c-1.347.779-1.063,1.73.235,3.585,1.594,2.188,1.619,3.708-.7,5.068a10.086,10.086,0,0,1-8.553.161l-2.707,1.57Z" transform="translate(40.148 52.216)" fill="#e8a50f"/><path d="M207.859,244.78c-8.331,4.808-21.853,4.808-30.185,0s-8.343-12.62,0-17.441,21.853-4.808,30.185,0S216.2,239.96,207.859,244.78Z" transform="translate(38.546 51.207)" fill="#e8a50f"/><path d="M207.859,242.35c-8.331,4.808-21.853,4.808-30.185,0s-8.343-12.62,0-17.441,21.853-4.808,30.185,0S216.2,237.53,207.859,242.35Z" transform="translate(38.546 50.634)" fill="#f4cf31"/><path d="M192.266,244.37a26.613,26.613,0,0,1-13.152-3.152c-3.6-2.077-5.587-4.858-5.575-7.849s1.978-5.772,5.575-7.837a29.01,29.01,0,0,1,26.3,0c3.6,2.064,5.587,4.858,5.587,7.837s-1.99,5.772-5.587,7.849a26.613,26.613,0,0,1-13.152,3.152Zm0-21.124a25.87,25.87,0,0,0-12.719,3.028c-3.325,1.916-5.154,4.437-5.154,7.1s1.829,5.191,5.154,7.107a28.219,28.219,0,0,0,25.463-.025c3.325-1.916,5.154-4.437,5.154-7.107s-1.829-5.179-5.154-7.095a25.957,25.957,0,0,0-12.744-3Z" transform="translate(39.046 50.889)" fill="#e8a50f"/><path d="M178.42,237.039l2.633-1.52a6.378,6.378,0,0,1-2.843-2.954l2.4-.667a5.389,5.389,0,0,0,2.583,2.806,5.97,5.97,0,0,0,5.636.358c1.459-.853,1.335-1.941.185-3.51-1.619-2.126-2.077-3.782.185-5.093a9.7,9.7,0,0,1,8.146-.161l2.6-1.508,1.644.952-2.472,1.459a5.377,5.377,0,0,1,2.41,2.472l-2.311.655a5.908,5.908,0,0,0-7.416-2.744c-1.347.791-1.063,1.73.235,3.6,1.595,2.175,1.619,3.708-.7,5.055a10.136,10.136,0,0,1-8.553.173l-2.707,1.557Z" transform="translate(40.148 51.458)" fill="#e8a50f"/><path d="M207.859,241.567c-8.331,4.808-21.853,4.808-30.185,0s-8.343-12.62,0-17.428,21.853-4.808,30.185,0S216.2,236.759,207.859,241.567Z" transform="translate(38.546 50.453)" fill="#e8a50f"/><path d="M207.859,239.138c-8.331,4.808-21.853,4.808-30.185,0s-8.343-12.62,0-17.428,21.853-4.821,30.185,0S216.2,234.33,207.859,239.138Z" transform="translate(38.546 49.878)" fill="#f4cf31"/><path d="M192.266,241.2a26.736,26.736,0,0,1-13.152-3.152c-3.6-2.077-5.587-4.87-5.575-7.849s1.978-5.772,5.575-7.849a29.01,29.01,0,0,1,26.3,0c3.6,2.077,5.587,4.858,5.587,7.849s-1.99,5.772-5.587,7.849A26.736,26.736,0,0,1,192.266,241.2Zm0-21.137a25.747,25.747,0,0,0-12.719,3.041c-3.325,1.916-5.154,4.425-5.154,7.095s1.829,5.179,5.154,7.095a28.12,28.12,0,0,0,25.438,0c3.325-1.916,5.154-4.437,5.154-7.095s-1.829-5.179-5.154-7.095a25.772,25.772,0,0,0-12.719-3.078Z" transform="translate(39.046 50.138)" fill="#e8a50f"/><path d="M178.42,233.827l2.633-1.52a6.329,6.329,0,0,1-2.843-2.954l2.4-.655a5.426,5.426,0,0,0,2.583,2.806,5.958,5.958,0,0,0,5.636.346c1.459-.841,1.335-1.941.185-3.5-1.619-2.138-2.077-3.782.185-5.093a9.691,9.691,0,0,1,8.146-.173l2.6-1.5,1.644.939-2.472,1.459a5.389,5.389,0,0,1,2.41,2.472l-2.311.643a5.265,5.265,0,0,0-2.4-2.472,5.13,5.13,0,0,0-4.944-.3c-1.347.779-1.063,1.73.235,3.585,1.594,2.175,1.619,3.708-.7,5.068a10.086,10.086,0,0,1-8.553.161l-2.707,1.57Z" transform="translate(40.148 50.702)" fill="#e8a50f"/><path d="M207.859,238.37c-8.331,4.808-21.853,4.808-30.185,0s-8.343-12.62,0-17.441,21.853-4.808,30.185,0S216.2,233.55,207.859,238.37Z" transform="translate(38.546 49.694)" fill="#e8a50f"/><path d="M207.859,235.928c-8.331,4.821-21.853,4.821-30.185,0s-8.343-12.608,0-17.428,21.853-4.808,30.185,0S216.2,231.1,207.859,235.928Z" transform="translate(38.546 49.121)" fill="#f4cf31"/><path d="M192.266,237.96a26.612,26.612,0,0,1-13.152-3.152c-3.6-2.077-5.587-4.858-5.575-7.849s1.978-5.772,5.575-7.837a29.01,29.01,0,0,1,26.3,0c3.6,2.064,5.587,4.858,5.587,7.837s-1.99,5.772-5.587,7.849A26.612,26.612,0,0,1,192.266,237.96Zm0-21.137a25.883,25.883,0,0,0-12.719,3.041c-3.325,1.916-5.154,4.437-5.154,7.095s1.829,5.191,5.154,7.107a28.219,28.219,0,0,0,25.438,0c3.325-1.916,5.154-4.437,5.154-7.107s-1.829-5.179-5.154-7.095a25.957,25.957,0,0,0-12.719-3.041Z" transform="translate(39.046 49.376)" fill="#e8a50f"/><path d="M178.42,230.629l2.633-1.52a6.341,6.341,0,0,1-2.843-2.967l2.4-.655a5.426,5.426,0,0,0,2.583,2.806,5.933,5.933,0,0,0,5.636.346c1.459-.841,1.335-1.928.185-3.5-1.619-2.126-2.077-3.782.185-5.093a9.7,9.7,0,0,1,8.146-.161l2.6-1.508,1.644.952-2.472,1.459a5.315,5.315,0,0,1,2.41,2.472l-2.311.643a5.2,5.2,0,0,0-2.4-2.472,5.142,5.142,0,0,0-4.944-.309c-1.347.791-1.063,1.73.235,3.6,1.594,2.175,1.619,3.708-.7,5.055a10.136,10.136,0,0,1-8.553.173l-2.806,1.557Z" transform="translate(40.148 49.945)" fill="#e8a50f"/><path d="M207.859,235.158c-8.331,4.808-21.853,4.808-30.185,0s-8.343-12.62,0-17.428,21.853-4.821,30.185,0S216.2,230.35,207.859,235.158Z" transform="translate(38.546 48.939)" fill="#e8a50f"/><path d="M207.859,232.728c-8.331,4.808-21.853,4.808-30.185,0s-8.343-12.62,0-17.428,21.853-4.821,30.185,0S216.2,227.92,207.859,232.728Z" transform="translate(38.546 48.365)" fill="#f4cf31"/><path d="M192.266,234.764a26.736,26.736,0,0,1-13.152-3.164c-3.6-2.077-5.587-4.87-5.575-7.849s1.978-5.772,5.575-7.849a29.01,29.01,0,0,1,26.3,0c3.6,2.077,5.587,4.858,5.587,7.849s-1.99,5.772-5.587,7.849A26.736,26.736,0,0,1,192.266,234.764Zm0-21.137a25.747,25.747,0,0,0-12.719,3.041c-3.325,1.916-5.154,4.425-5.154,7.095s1.829,5.179,5.154,7.095a28.12,28.12,0,0,0,25.438,0c3.325-1.916,5.154-4.437,5.154-7.1s-1.829-5.179-5.154-7.095a25.772,25.772,0,0,0-12.719-3.041Z" transform="translate(39.046 48.616)" fill="#e8a50f"/><path d="M178.42,227.417l2.633-1.52a6.329,6.329,0,0,1-2.843-2.954l2.4-.655a5.426,5.426,0,0,0,2.583,2.806,5.958,5.958,0,0,0,5.636.346c1.459-.841,1.335-1.941.185-3.5-1.619-2.138-2.077-3.782.185-5.093a9.691,9.691,0,0,1,8.146-.173l2.6-1.5,1.644.939-2.472,1.459a5.389,5.389,0,0,1,2.41,2.472l-2.311.643a5.2,5.2,0,0,0-2.4-2.472,5.13,5.13,0,0,0-4.944-.3c-1.347.779-1.063,1.73.235,3.585,1.595,2.175,1.619,3.708-.7,5.068a10.086,10.086,0,0,1-8.553.161l-2.707,1.57Z" transform="translate(40.148 49.189)" fill="#e8a50f"/><path d="M207.859,231.948c-8.331,4.821-21.853,4.821-30.185,0s-8.343-12.608,0-17.428,21.853-4.808,30.185,0S216.2,227.09,207.859,231.948Z" transform="translate(38.546 48.181)" fill="#e8a50f"/><path d="M207.859,229.517c-8.331,4.821-21.853,4.821-30.185,0s-8.343-12.62,0-17.428,21.853-4.808,30.185,0S216.2,224.709,207.859,229.517Z" transform="translate(38.546 47.608)" fill="#f4cf31"/><path d="M192.266,231.552a26.736,26.736,0,0,1-13.152-3.152c-3.6-2.077-5.587-4.858-5.575-7.849s1.978-5.772,5.575-7.849a29.01,29.01,0,0,1,26.3,0c3.6,2.077,5.587,4.87,5.587,7.849s-1.99,5.772-5.587,7.849a26.736,26.736,0,0,1-13.152,3.152Zm0-21.137a25.883,25.883,0,0,0-12.719,3.041c-3.325,1.916-5.154,4.437-5.154,7.1s1.829,5.179,5.154,7.107a28.219,28.219,0,0,0,25.438,0c3.325-1.928,5.154-4.45,5.154-7.107s-1.829-5.179-5.154-7.095a25.957,25.957,0,0,0-12.719-3.041Z" transform="translate(39.046 47.86)" fill="#e8a50f"/><path d="M178.42,224.219l2.633-1.52a6.4,6.4,0,0,1-2.843-2.967l2.4-.655a5.426,5.426,0,0,0,2.583,2.806,5.933,5.933,0,0,0,5.636.346c1.459-.841,1.335-1.928.185-3.5-1.619-2.126-2.077-3.782.185-5.093a9.7,9.7,0,0,1,8.146-.161l2.6-1.508,1.644.952-2.472,1.459a5.315,5.315,0,0,1,2.41,2.472l-2.311.643a5.2,5.2,0,0,0-2.4-2.472,5.142,5.142,0,0,0-4.944-.309c-1.347.791-1.063,1.73.235,3.6,1.594,2.175,1.619,3.708-.7,5.055a10.136,10.136,0,0,1-8.553.173l-2.707,1.557Z" transform="translate(40.148 48.432)" fill="#e8a50f"/><path d="M207.859,228.748c-8.331,4.808-21.853,4.808-30.185,0s-8.343-12.62,0-17.428,21.853-4.821,30.185,0S216.2,223.927,207.859,228.748Z" transform="translate(38.546 47.426)" fill="#e8a50f"/><path d="M207.859,226.318c-8.331,4.808-21.853,4.808-30.185,0s-8.343-12.62,0-17.428,21.853-4.821,30.185,0S216.2,221.5,207.859,226.318Z" transform="translate(38.546 46.852)" fill="#f4cf31"/><path d="M192.266,228.352a26.736,26.736,0,0,1-13.152-3.152c-3.6-2.077-5.587-4.87-5.575-7.849s1.978-5.772,5.575-7.849a29.01,29.01,0,0,1,26.3,0c3.6,2.077,5.587,4.858,5.587,7.849s-1.99,5.772-5.587,7.849A26.737,26.737,0,0,1,192.266,228.352Zm0-21.137a25.747,25.747,0,0,0-12.719,3.041c-3.325,1.9-5.154,4.425-5.154,7.095s1.829,5.179,5.154,7.095a28.12,28.12,0,0,0,25.463.012c3.325-1.916,5.154-4.437,5.154-7.095s-1.829-5.191-5.154-7.095a25.772,25.772,0,0,0-12.744-3.053Z" transform="translate(39.046 47.105)" fill="#e8a50f"/><path d="M178.42,221.007l2.633-1.52a6.329,6.329,0,0,1-2.843-2.954l2.4-.655a5.426,5.426,0,0,0,2.583,2.806,5.958,5.958,0,0,0,5.636.346c1.459-.84,1.335-1.941.185-3.5-1.619-2.138-2.077-3.795.185-5.093a9.691,9.691,0,0,1,8.146-.173l2.6-1.5,1.644.939-2.472,1.459a5.389,5.389,0,0,1,2.41,2.472l-2.311.643a5.2,5.2,0,0,0-2.4-2.472,5.093,5.093,0,0,0-4.944-.3c-1.347.779-1.063,1.73.235,3.585,1.595,2.175,1.619,3.708-.7,5.068a10.086,10.086,0,0,1-8.553.161l-2.707,1.57Z" transform="translate(40.148 47.676)" fill="#e8a50f"/><path d="M207.859,225.537c-8.331,4.821-21.853,4.821-30.185,0s-8.343-12.62,0-17.428,21.853-4.808,30.185,0S216.2,220.729,207.859,225.537Z" transform="translate(38.546 46.669)" fill="#e8a50f"/><path d="M207.859,223.107c-8.331,4.821-21.853,4.821-30.185,0s-8.343-12.62,0-17.428,21.853-4.808,30.185,0S216.2,218.3,207.859,223.107Z" transform="translate(38.546 46.095)" fill="#f4cf31"/><path d="M192.266,225.142a26.736,26.736,0,0,1-13.152-3.152c-3.6-2.077-5.587-4.858-5.575-7.849s1.978-5.772,5.575-7.849a29.01,29.01,0,0,1,26.3,0c3.6,2.077,5.587,4.87,5.587,7.849s-1.99,5.772-5.587,7.849A26.736,26.736,0,0,1,192.266,225.142Zm0-21.137a25.883,25.883,0,0,0-12.719,3.041c-3.325,1.916-5.154,4.437-5.154,7.095s1.829,5.179,5.154,7.095a28.12,28.12,0,0,0,25.438,0c3.325-1.916,5.154-4.437,5.154-7.095s-1.829-5.179-5.154-7.095A25.957,25.957,0,0,0,192.266,204.005Z" transform="translate(39.046 46.347)" fill="#e8a50f"/><path d="M178.42,217.8l2.633-1.508a6.4,6.4,0,0,1-2.843-2.967l2.4-.655a5.426,5.426,0,0,0,2.583,2.806,5.933,5.933,0,0,0,5.636.346c1.459-.841,1.335-1.941.185-3.5-1.619-2.126-2.077-3.782.185-5.093a9.7,9.7,0,0,1,8.146-.161l2.6-1.508,1.644.952-2.472,1.446a5.389,5.389,0,0,1,2.41,2.472l-2.311.643a5.266,5.266,0,0,0-2.4-2.472,5.167,5.167,0,0,0-4.944-.3c-1.347.779-1.063,1.73.235,3.6,1.594,2.175,1.619,3.708-.7,5.055a10.136,10.136,0,0,1-8.553.173l-2.707,1.557Z" transform="translate(40.148 46.918)" fill="#e8a50f"/><path d="M207.859,222.338c-8.331,4.808-21.853,4.808-30.185,0s-8.343-12.62,0-17.428,21.853-4.821,30.185,0S216.2,217.517,207.859,222.338Z" transform="translate(38.546 45.913)" fill="#e8a50f"/><path d="M207.859,219.91c-8.331,4.808-21.853,4.808-30.185,0s-8.343-12.62,0-17.441,21.853-4.808,30.185,0S216.2,215.1,207.859,219.91Z" transform="translate(38.546 45.337)" fill="#f4cf31"/><path d="M192.266,221.93a26.613,26.613,0,0,1-13.152-3.152c-3.6-2.077-5.587-4.858-5.575-7.837s1.978-5.772,5.575-7.849a29.01,29.01,0,0,1,26.3,0c3.6,2.077,5.587,4.858,5.587,7.849s-1.99,5.76-5.587,7.837a26.612,26.612,0,0,1-13.152,3.152Zm0-21.124a25.87,25.87,0,0,0-12.719,3.028c-3.325,1.916-5.154,4.437-5.154,7.107s1.829,5.179,5.154,7.095a28.12,28.12,0,0,0,25.438,0c3.325-1.916,5.154-4.437,5.154-7.095s-1.829-5.191-5.154-7.107a25.957,25.957,0,0,0-12.719-3.028Z" transform="translate(39.046 45.592)" fill="#e8a50f"/><path d="M178.42,214.6l2.633-1.52a6.329,6.329,0,0,1-2.843-2.954l2.4-.667a5.451,5.451,0,0,0,2.583,2.818,5.958,5.958,0,0,0,5.636.346c1.459-.84,1.335-1.941.185-3.51-1.619-2.126-2.077-3.782.185-5.093a9.74,9.74,0,0,1,8.146-.161l2.6-1.5,1.644.939-2.472,1.459a5.327,5.327,0,0,1,2.41,2.472l-2.311.643a5.2,5.2,0,0,0-2.4-2.472,5.093,5.093,0,0,0-4.944-.3c-1.347.779-1.063,1.73.235,3.585,1.595,2.175,1.619,3.708-.7,5.068a10.086,10.086,0,0,1-8.553.161l-2.806,1.595Z" transform="translate(40.148 46.163)" fill="#e8a50f"/><path d="M207.859,219.127c-8.331,4.821-21.853,4.821-30.185,0s-8.343-12.62,0-17.428,21.853-4.808,30.185,0S216.2,214.319,207.859,219.127Z" transform="translate(38.546 45.156)" fill="#e8a50f"/><path d="M207.859,216.7c-8.331,4.808-21.853,4.808-30.185,0s-8.343-12.62,0-17.428,21.853-4.808,30.185,0S216.2,211.889,207.859,216.7Z" transform="translate(38.546 44.582)" fill="#f4cf31"/><path d="M192.266,218.727a26.736,26.736,0,0,1-13.152-3.127c-3.6-2.077-5.587-4.87-5.575-7.849s1.978-5.772,5.575-7.849a29.01,29.01,0,0,1,26.3,0c3.6,2.077,5.587,4.87,5.587,7.849s-1.99,5.772-5.587,7.849A26.736,26.736,0,0,1,192.266,218.727Zm0-21.137a25.747,25.747,0,0,0-12.719,3.041c-3.325,1.916-5.154,4.437-5.154,7.095s1.829,5.179,5.154,7.095a28.12,28.12,0,0,0,25.438,0c3.325-1.916,5.154-4.437,5.154-7.095s-1.829-5.179-5.154-7.095A25.772,25.772,0,0,0,192.266,197.591Z" transform="translate(39.046 44.839)" fill="#e8a50f"/><path d="M178.42,211.387l2.633-1.508a6.4,6.4,0,0,1-2.843-2.967l2.4-.655a5.426,5.426,0,0,0,2.583,2.806,5.933,5.933,0,0,0,5.636.346c1.459-.84,1.335-1.941.185-3.5-1.619-2.138-2.077-3.782.185-5.093a9.7,9.7,0,0,1,8.146-.161l2.6-1.508,1.644.952-2.472,1.446a5.389,5.389,0,0,1,2.41,2.472l-2.311.643a5.266,5.266,0,0,0-2.4-2.472,5.167,5.167,0,0,0-4.944-.3c-1.347.779-1.063,1.73.235,3.6,1.594,2.175,1.619,3.708-.7,5.055a10.086,10.086,0,0,1-8.553.161l-2.707,1.57Z" transform="translate(40.148 45.405)" fill="#e8a50f"/><path d="M207.859,215.928c-8.331,4.808-21.853,4.808-30.185,0s-8.343-12.62,0-17.428,21.853-4.821,30.185,0S216.2,211.1,207.859,215.928Z" transform="translate(38.546 44.399)" fill="#e8a50f"/><path d="M207.859,213.5c-8.331,4.808-21.853,4.808-30.185,0s-8.343-12.62,0-17.441,21.853-4.808,30.185,0S216.2,208.68,207.859,213.5Z" transform="translate(38.546 43.823)" fill="#f4cf31"/><path d="M192.266,215.52a26.612,26.612,0,0,1-13.152-3.152c-3.6-2.077-5.587-4.858-5.575-7.849s1.978-5.76,5.575-7.837a29.01,29.01,0,0,1,26.3,0c3.6,2.077,5.587,4.858,5.587,7.837s-1.99,5.772-5.587,7.849a26.612,26.612,0,0,1-13.152,3.152Zm0-21.124a25.871,25.871,0,0,0-12.719,3.028c-3.325,1.916-5.154,4.437-5.154,7.095s1.829,5.191,5.154,7.107a28.12,28.12,0,0,0,25.438,0c3.325-1.916,5.154-4.437,5.154-7.107s-1.829-5.179-5.154-7.095a25.957,25.957,0,0,0-12.719-3.028Z" transform="translate(39.046 44.079)" fill="#e8a50f"/><path d="M178.42,208.187l2.633-1.52a6.329,6.329,0,0,1-2.843-2.954l2.4-.667a5.451,5.451,0,0,0,2.583,2.818,5.958,5.958,0,0,0,5.636.346c1.459-.84,1.335-1.941.185-3.51-1.619-2.126-2.077-3.782.185-5.093a9.74,9.74,0,0,1,8.146-.161l2.6-1.5,1.644.939-2.472,1.459a5.377,5.377,0,0,1,2.41,2.472l-2.311.655a5.155,5.155,0,0,0-2.4-2.472,5.093,5.093,0,0,0-4.944-.3c-1.347.779-1.063,1.718.235,3.585,1.595,2.175,1.619,3.708-.7,5.068a10.136,10.136,0,0,1-8.553.161l-2.707,1.557Z" transform="translate(40.148 44.65)" fill="#e8a50f"/><path d="M225.57,140.41c0,12.534,8.8,27.774,19.653,34.041s19.666,1.236,19.666-11.347-8.8-27.774-19.666-34.041S225.57,127.876,225.57,140.41Z" transform="translate(51.328 28.227)" fill="#ff5ac0"/><path d="M224.42,141.563c0,12.534,8.8,27.774,19.666,34.041s19.653,1.236,19.653-11.347-8.8-27.774-19.653-34.053S224.42,129.017,224.42,141.563Z" transform="translate(51.057 28.495)" fill="#f431a1"/><path d="M227.08,142.642c0-10.432,7.342-14.672,16.378-9.456s16.378,17.935,16.378,28.429-7.416,14.672-16.378,9.456S227.08,153.062,227.08,142.642Zm2.039,1.236c0,9.134,6.427,20.271,14.338,24.832s14.326.841,14.326-8.282-6.427-20.259-14.326-24.82-14.338-.89-14.338,8.207Z" transform="translate(51.684 29.307)" fill="#e8e6ff"/><path d="M231.22,144.334c0-7.169,5.043-10.086,11.26-6.5s11.26,12.361,11.26,19.5-5.055,10.086-11.26,6.5S231.22,151.5,231.22,144.334Zm2.039,1.174a20.382,20.382,0,0,0,9.221,15.958c5.08,2.942,9.209.556,9.209-5.315a20.37,20.37,0,0,0-9.209-15.957C237.4,137.264,233.26,139.637,233.26,145.509Z" transform="translate(52.662 30.569)" fill="#e8e6ff"/><path d="M235.47,146.068a13.263,13.263,0,0,0,6.007,10.408c3.313,1.916,6.007.358,6.007-3.473a13.275,13.275,0,0,0-6.007-10.4C238.152,140.691,235.47,142.236,235.47,146.068Z" transform="translate(53.665 31.864)" fill="#e8e6ff"/><path d="M198.037,176.251l-6.057-7.911L218.395,153.1l7.837,7.107Z" transform="translate(43.399 34.535)" fill="#fb8c00"/><path d="M198.037,177.7l-6.057,14.907,26.415-15.253,7.837-16.155Z" transform="translate(43.399 36.447)" fill="#fb8c00"/><path d="M250.745,146.218,196.21,177.713v4.746l54.535-31.495a3.449,3.449,0,0,0,1.706-2.892C252.574,145.736,250.745,146.218,250.745,146.218Z" transform="translate(44.397 32.901)" fill="#574ad8"/><path d="M197.829,174.063c0,1.31-.618,2.373-1.36,2.373s-1.36-1.063-1.36-2.373.606-2.373,1.36-2.373S197.829,172.753,197.829,174.063Z" transform="translate(44.138 38.923)" fill="#b7abff"/><path d="M159.269,245.7a15.265,15.265,0,0,1,.433,3.127c-.111.742-.507,2.027-3.572,1.533s-7.639-1.8-8.306-3.115,1.5-1.978,4.5-1.051a3.931,3.931,0,0,0,3.238-.63Z" transform="translate(32.947 56.361)" fill="#2b2b2b"/><path d="M170.59,229.518c-5.945-3.51-15.747-8.652-17.033-5.043-1.854,5.167,0,26.575,0,26.575a5.686,5.686,0,0,0,5.191.284c.408-8.541.68-18.541.68-18.541s5.216,6.18,11.186,8.393Z" transform="translate(34.134 51.093)" fill="#e95a0c"/><path d="M155.34,236.82v23.065l2.818,6.081,10.531,1.619,7.713-4.437V240.083Z" transform="translate(34.75 54.298)" fill="#8fc4f9"/><path d="M163.844,238.13l-8.5-1.31v23.065l2.818,6.081,5.686.878Z" transform="translate(34.75 54.298)" fill="#1565c0"/><path d="M157.62,241.74V264.8l10.531,1.619V243.372Z" transform="translate(35.288 55.459)" fill="#3091f2"/><path d="M163.053,233.22l10.519,1.632,2.831,6.081-7.713,4.45-10.531-1.632-2.818-6.081Z" transform="translate(34.75 53.448)" fill="#8fc4f9"/><path d="M142.92,215.53l14.029,17.021,7.478-2.163,7.293-8.788L160.559,205.32l-7.528,6.7Z" transform="translate(31.818 46.862)" fill="#e6f7ff"/><path d="M142.92,214.25l14.029,17.021,7.478-2.163-11.4-18.368Z" transform="translate(31.818 48.141)" fill="#dfecf2"/><path d="M157.064,235.887a16.069,16.069,0,0,1-.544,2.917c-.284.618-.952,1.644-3.214.222s-5.439-4.054-5.575-5.439,1.706-1.236,3.795.507a2.892,2.892,0,0,0,2.695.482Z" transform="translate(32.952 53.315)" fill="#2b2b2b"/><path d="M151.786,251.14a15.66,15.66,0,0,1,.667,3.078c0,.742-.334,2.064-3.436,1.817s-7.75-1.236-8.516-2.472,1.323-2.089,4.4-1.409a3.906,3.906,0,0,0,3.177-.89Z" transform="translate(31.209 57.678)" fill="#2b2b2b"/><path d="M166.466,236.444s-20.7-11.434-22.15-6.18,2.089,26.5,2.089,26.5a5.674,5.674,0,0,0,5.191-.136c-.272-8.541-.8-18.541-.8-18.541s8.245,8.319,15.574,7.985,16.464-7.033,11.236-15.513C171.423,230.165,166.466,236.444,166.466,236.444Z" transform="translate(32.066 52.424)" fill="#e95a0c"/><path d="M167.989,212.777a11.125,11.125,0,0,0-6.18,5.809,119.4,119.4,0,0,0-3.535,13.077l-.569,2.991s-2.472,10.531,14.14,6.984c6.7-1.434,4.363-2.67,4.512-3.708s0-3.782.618-8.492,2.175-20.519-6.4-19.184C166.506,211.528,167.989,212.777,167.989,212.777Z" transform="translate(35.277 48.008)" fill="#1fb276"/><path d="M160.592,203.962v.111a4.944,4.944,0,0,0-.433,2.793,1.792,1.792,0,0,1-1.1,1.941s-.371.358.3.581a6.393,6.393,0,0,1,.976.383,22.744,22.744,0,0,0,.791,3.028c.247.433,1.446.358,2.472.371s1.829,1.656,1.928,2.472a11.694,11.694,0,0,0,5.179-3.177l-.939-2.274S166.118,200.044,160.592,203.962Z" transform="translate(35.604 46.329)" fill="url(#c)"/><path d="M170.4,202.6c-.853-2.472-3.708-2.2-4.944-2.225a18.616,18.616,0,0,1-5.735-.939c-3.782,5.216.878,5.871.878,5.871s2.472-.939,2,.643,1.323,4.462,1.323,4.462l.729.519a4.363,4.363,0,0,0-.148-1.533c-.433-1.965,1.916-1.446,2.077-.408a26.346,26.346,0,0,0,1.236,3.708s.9.433,2.41-.655C172.775,210.354,171.935,204.594,170.4,202.6Z" transform="translate(35.435 45.474)" fill="#9e4a12"/><path d="M163.437,224.806s-1.236,7.775-1.866,8.652c-1.533-1.743-8.751-8.2-10.494-9.6h0a10.778,10.778,0,0,0-.482-2.472,2.176,2.176,0,0,1,.074-1.879c.161-.371-.408-1.236-.989-.247a3.449,3.449,0,0,0-.482,1.9l-2.472-2.929a8.751,8.751,0,0,0,2.373,7.256h0s4.091,5.649,7.293,9.085,5.3,5.859,8.071,4.252,4.7-11.409,4.7-11.409Z" transform="translate(32.697 49.909)" fill="url(#d)"/><path d="M159.27,226.667s1.829-8.282,2.855-9.963,5.315-2.163,6.786,1.409-2.4,10.741-2.4,10.741Z" transform="translate(35.677 49.247)" fill="#58e0a9"/><path d="M118.347,212.636a12.237,12.237,0,0,0-.1,2.917c.21.544,1.483.433,1.953.3,1.57-.445,5.327-2.311,5.229-3.857,0-.63-.989-.569-2.472.148s-2.386.593-2.6.148S118.347,212.636,118.347,212.636Z" transform="translate(25.984 48.335)" fill="#2d2d2d"/><path d="M107.027,210.586a12.236,12.236,0,0,0-.1,2.917c.21.544,1.483.42,1.965.284,1.557-.433,5.315-2.3,5.216-3.844,0-.63-.989-.569-2.472.148s-2.386.593-2.583.148S107.027,210.586,107.027,210.586Z" transform="translate(23.311 47.851)" fill="#2d2d2d"/><path d="M102.858,153.8s-3.325,3.5-3.708,15.562c.655,2.311,6.378.989,7.107,0s0-3.09,0-3.09h-2.9l.878-5.8Z" transform="translate(21.486 34.7)" fill="url(#e)"/><path d="M104.318,160.583l-1.372-7.293s-3.189,2.373-4.166,10.68a11.038,11.038,0,0,0,4.8,1.545Z" transform="translate(21.398 34.58)" fill="#26aab7"/><path d="M107.537,219.091c-.148-2.1-1.236-21.507-1.335-22.15a83.42,83.42,0,0,0-2.472-12.608,46.327,46.327,0,0,1-1.038-10.593l10.853.457s-.766,9.332-.643,20.951c0,2.175-1.9,21.73-1.928,23.844Z" transform="translate(22.32 39.407)" fill="#0b0059"/><path d="M116.478,198.523c-.927-2.175-4.944-10.247-5.933-12.286-4.351-8.244-3.708-11.965-3.708-11.965l13.6-.531s1.3,19.777,2.361,24.1c.173.692.717,23.287.853,23.844l-2.769.272Z" transform="translate(23.292 39.407)" fill="#160470"/><rect width="18.427" height="14.033" transform="translate(135.444 194.889) rotate(-60.611)" fill="#e8e8e8"/><rect width="17.948" height="13.609" transform="matrix(0.492, -0.871, 0.871, 0.492, 136.142, 194.939)" fill="#574ad8"/><rect width="15.401" height="11.668" transform="matrix(0.492, -0.871, 0.871, 0.492, 137.608, 194.317)" fill="#f6f5fb"/><path d="M113.557,142.012a3.3,3.3,0,0,1,3.065,2.386,1.817,1.817,0,0,1,.074,1.088,4.623,4.623,0,0,0,.358,2.472c.531,1.446-.482,3.918-1.434,5.117a2.027,2.027,0,0,1-2.052-.457l-.729,2.6-5.772-1.434a10.729,10.729,0,0,0,0-5.253c-.7-3.177-.445-4.771,1.632-5.834a9.407,9.407,0,0,1,4.858-.667" transform="translate(23.272 31.903)" fill="url(#f)"/><path d="M116.053,138.87s-1.52,1.026-6.18,1.36-4.833,3.56-4.2,5.216c-1.384.507,1.607,5.575,1.595,7.552a5.834,5.834,0,0,0,4.7-.3,4.24,4.24,0,0,0,.358-3.3c-.593-1.743.507-3.449,1.236-2.967.148.1.371,2.868.482,2.892h.346c.21,0,0-.754.161-1.941.111-.581.853-1.78.816-2.1a12.049,12.049,0,0,0-.531-1.681l1-.173s1.112.111,1.1-.939a9.975,9.975,0,0,0-.828-3.622" transform="translate(22.938 31.176)" fill="#1c0687"/><path d="M122.359,157.691a20.062,20.062,0,0,0-7.911-5.018,25.352,25.352,0,0,0-5.352-1.236,8.245,8.245,0,0,0-7.416,3.35c-.89,1.162-2.114,4.264-.371,8.652s1.236,9.728,1.57,11.9a73.248,73.248,0,0,1-.3,10.284s.161.581,4.054,1.335l2.039.4a20.852,20.852,0,0,0,13.72-2.077c-.581-3.214-1.508-10.111-2.114-13.115s2.1-14.412,2.1-14.412" transform="translate(21.787 34.134)" fill="#26aab7"/><path d="M128.21,157.79l-2.027,3.6a3.708,3.708,0,0,0-.915-1.9c-.791-.878-1.236.111-.976.47a2.472,2.472,0,0,1,.47,1.965,10.975,10.975,0,0,0,0,2.658,1.341,1.341,0,0,0,.074.383s-4.116,8.9-5.253,7.9c-1.471-1.236-1.693-5.13-.754-7.886l.321-1.941c.692-2.027,1.4-4.944-.148-6.465a4.734,4.734,0,0,0-1.112-.779c-2.472-1.236-3.708.828-3.869,5.389s-.1,11.285,2.472,15.525c1.607,2.472,7.416.779,10.741-10.914h0C129.78,161.214,128.21,157.79,128.21,157.79Z" transform="translate(24.984 35.086)" fill="url(#g)"/><path d="M119.044,156.565a3.276,3.276,0,0,0-1.112-.779c-2.472-1.236-4.24.89-4.339,5.451a46.474,46.474,0,0,0,.2,5.575c1.8.087,4.363.124,6.279.124.173-1.557-.087-3.708,0-5.1C120.416,158.728,120.045,157.764,119.044,156.565Z" transform="translate(24.892 35.087)" fill="#26aab7"/><path d="M203.026,20.422l48.206,27.861A12.781,12.781,0,0,1,257,58.3V87.664c0,3.708-4.648,6.761-7.837,4.944L231.32,79.469l-20.37,6.4V67.714l-7.923-4.573a12.781,12.781,0,0,1-5.772-10L193.83,24.279C193.83,20.6,199.837,18.581,203.026,20.422Z" transform="translate(43.836 3.052)" fill="#3091f2"/><path d="M199.542,21.652,247.81,49.463a12.781,12.781,0,0,1,5.772,10.012V88.893c0,3.708-2.583,5.179-5.772,3.337L227.823,80.7l-20.358,6.4V68.943l-7.923-4.573a12.781,12.781,0,0,1-5.772-10.012V24.989C193.77,21.305,196.353,19.8,199.542,21.652Z" transform="translate(43.821 3.318)" fill="#8fc4f9"/><path d="M199.66,29.97,243.7,55.8V57.5L199.66,31.663Z" transform="translate(45.212 5.469)" fill="#f5f3ff"/><path d="M199.66,34.42,243.7,60.254v1.693L199.66,36.113Z" transform="translate(45.212 6.52)" fill="#f5f3ff"/><path d="M199.66,38.87,243.7,64.7v1.681L199.66,40.551Z" transform="translate(45.212 7.57)" fill="#f5f3ff"/><path d="M199.66,43.31,243.7,69.144v1.693L199.66,45Z" transform="translate(45.212 8.618)" fill="#f5f3ff"/><path d="M199.66,47.76,243.7,73.594v1.693L199.66,49.453Z" transform="translate(45.212 9.669)" fill="#f5f3ff"/><path d="M224.819,263.7c-8.331,4.808-21.853,4.808-30.184,0s-8.343-12.62,0-17.441,21.853-4.808,30.184,0S233.162,258.88,224.819,263.7Z" transform="translate(42.549 55.673)" fill="#e8a50f"/><path d="M224.819,261.27c-8.331,4.808-21.853,4.808-30.184,0s-8.343-12.62,0-17.441,21.853-4.808,30.184,0S233.162,256.45,224.819,261.27Z" transform="translate(42.549 55.1)" fill="#f4cf31"/><path d="M209.231,263.29a26.613,26.613,0,0,1-13.164-3.152c-3.6-2.077-5.587-4.858-5.587-7.849s1.99-5.76,5.587-7.837a29.01,29.01,0,0,1,26.3,0c3.6,2.077,5.587,4.858,5.587,7.837s-1.99,5.772-5.587,7.849A26.612,26.612,0,0,1,209.231,263.29Zm0-21.124a25.871,25.871,0,0,0-12.719,3.028c-3.325,1.916-5.154,4.437-5.154,7.095s1.829,5.191,5.154,7.107a28.256,28.256,0,0,0,25.45,0c3.313-1.916,5.142-4.437,5.142-7.107s-1.829-5.179-5.154-7.095a25.957,25.957,0,0,0-12.719-3.028Z" transform="translate(43.045 55.355)" fill="#e8a50f"/><path d="M195.378,255.959l2.633-1.52a6.18,6.18,0,0,1-2.831-2.954l2.386-.667a5.389,5.389,0,0,0,2.583,2.806,5.9,5.9,0,0,0,5.636.346c1.459-.841,1.335-1.928.185-3.5-1.619-2.126-2.077-3.782.185-5.093a9.7,9.7,0,0,1,8.146-.161l2.6-1.508,1.644.952-2.472,1.459a5.389,5.389,0,0,1,2.472,2.472l-2.311.655a5.908,5.908,0,0,0-7.416-2.744c-1.347.791-1.063,1.73.235,3.6,1.582,2.175,1.619,3.708-.7,5.068a10.136,10.136,0,0,1-8.553.161l-2.707,1.557Z" transform="translate(44.154 55.924)" fill="#e8a50f"/><path d="M224.819,260.488c-8.331,4.808-21.853,4.808-30.184,0s-8.343-12.62,0-17.428,21.853-4.821,30.184,0S233.162,255.68,224.819,260.488Z" transform="translate(42.549 54.918)" fill="#e8a50f"/><path d="M224.819,258.018c-8.331,4.808-21.853,4.808-30.184,0s-8.343-12.62,0-17.428,21.853-4.821,30.184,0S233.162,253.259,224.819,258.018Z" transform="translate(42.549 54.335)" fill="#f4cf31"/><path d="M209.231,260.092a26.737,26.737,0,0,1-13.164-3.152c-3.6-2.077-5.587-4.87-5.587-7.849s1.99-5.772,5.587-7.849a29.01,29.01,0,0,1,26.3,0c3.6,2.077,5.587,4.87,5.587,7.849s-1.99,5.772-5.587,7.849a26.736,26.736,0,0,1-13.139,3.152Zm0-21.137A25.747,25.747,0,0,0,196.512,242c-3.325,1.916-5.154,4.425-5.154,7.095s1.829,5.179,5.154,7.095a28.145,28.145,0,0,0,25.45,0c3.313-1.916,5.142-4.437,5.142-7.095s-1.829-5.179-5.154-7.095A25.772,25.772,0,0,0,209.231,238.955Z" transform="translate(43.045 54.597)" fill="#e8a50f"/><path d="M195.378,252.747l2.633-1.508a6.3,6.3,0,0,1-2.831-2.967l2.386-.655a5.426,5.426,0,0,0,2.583,2.806,5.958,5.958,0,0,0,5.636.346c1.459-.84,1.335-1.941.185-3.5-1.619-2.138-2.077-3.782.185-5.093a9.691,9.691,0,0,1,8.146-.173l2.6-1.5,1.644.952-2.472,1.446a5.451,5.451,0,0,1,2.472,2.472l-2.311.643a5.265,5.265,0,0,0-2.4-2.472,5.13,5.13,0,0,0-4.944-.3c-1.347.779-1.063,1.73.235,3.585,1.582,2.188,1.619,3.708-.7,5.068a10.086,10.086,0,0,1-8.554.161l-2.707,1.57Z" transform="translate(44.154 55.169)" fill="#e8a50f"/><path d="M224.819,257.29c-8.331,4.808-21.853,4.808-30.184,0s-8.343-12.62,0-17.441,21.853-4.808,30.184,0S233.162,252.47,224.819,257.29Z" transform="translate(42.549 54.16)" fill="#e8a50f"/><path d="M224.819,254.86c-8.331,4.808-21.853,4.808-30.184,0s-8.343-12.62,0-17.441,21.853-4.808,30.184,0S233.162,250.04,224.819,254.86Z" transform="translate(42.549 53.587)" fill="#f4cf31"/><path d="M209.231,256.88a26.612,26.612,0,0,1-13.164-3.152c-3.6-2.077-5.587-4.858-5.587-7.849s1.99-5.76,5.587-7.837a29.01,29.01,0,0,1,26.3,0c3.6,2.077,5.587,4.858,5.587,7.837s-1.99,5.772-5.587,7.849A26.612,26.612,0,0,1,209.231,256.88Zm0-21.124a25.87,25.87,0,0,0-12.719,2.979c-3.325,1.916-5.154,4.437-5.154,7.095s1.829,5.191,5.154,7.107a28.256,28.256,0,0,0,25.45,0c3.313-1.916,5.142-4.437,5.142-7.107s-1.829-5.179-5.154-7.095a25.957,25.957,0,0,0-12.719-2.979Z" transform="translate(43.045 53.842)" fill="#e8a50f"/><path d="M195.378,249.549l2.633-1.52a6.341,6.341,0,0,1-2.831-2.954l2.386-.667a5.389,5.389,0,0,0,2.583,2.806,5.933,5.933,0,0,0,5.636.346c1.459-.841,1.335-1.928.185-3.5-1.619-2.126-2.077-3.782.185-5.093a9.7,9.7,0,0,1,8.146-.161l2.6-1.508,1.644.952-2.472,1.459a5.389,5.389,0,0,1,2.472,2.472l-2.311.643a5.2,5.2,0,0,0-2.4-2.472,5.142,5.142,0,0,0-4.944-.309c-1.347.791-1.063,1.73.235,3.6,1.582,2.175,1.619,3.708-.7,5.055a10.136,10.136,0,0,1-8.554.173L197,250.526Z" transform="translate(44.154 54.411)" fill="#e8a50f"/><path d="M224.819,254.078c-8.331,4.808-21.853,4.808-30.184,0s-8.343-12.62,0-17.428,21.853-4.821,30.184,0S233.162,249.27,224.819,254.078Z" transform="translate(42.549 53.405)" fill="#e8a50f"/><path d="M224.819,251.648c-8.331,4.808-21.853,4.808-30.184,0s-8.343-12.62,0-17.428,21.853-4.821,30.184,0S233.162,246.827,224.819,251.648Z" transform="translate(42.549 52.831)" fill="#f4cf31"/><path d="M209.231,253.682a26.736,26.736,0,0,1-13.164-3.152c-3.6-2.077-5.587-4.87-5.587-7.849s1.99-5.772,5.587-7.849a29.01,29.01,0,0,1,26.3,0c3.6,2.077,5.587,4.858,5.587,7.849s-1.99,5.772-5.587,7.849A26.736,26.736,0,0,1,209.231,253.682Zm0-21.137a25.747,25.747,0,0,0-12.719,3.041c-3.325,1.916-5.154,4.425-5.154,7.095s1.829,5.179,5.154,7.095a28.145,28.145,0,0,0,25.45,0c3.313-1.916,5.142-4.437,5.142-7.095s-1.829-5.179-5.154-7.095A25.772,25.772,0,0,0,209.231,232.545Z" transform="translate(43.045 53.084)" fill="#e8a50f"/><path d="M195.378,246.337l2.633-1.52a6.18,6.18,0,0,1-2.831-2.954l2.386-.655a5.426,5.426,0,0,0,2.583,2.806,5.958,5.958,0,0,0,5.636.346c1.459-.84,1.335-1.941.185-3.5-1.619-2.138-2.077-3.795.185-5.093a9.691,9.691,0,0,1,8.146-.173l2.6-1.5,1.644.939-2.571,1.409a5.451,5.451,0,0,1,2.472,2.472l-2.311.643a5.2,5.2,0,0,0-2.4-2.472,5.13,5.13,0,0,0-4.944-.3c-1.347.779-1.063,1.73.235,3.585,1.582,2.175,1.619,3.708-.7,5.068a10.086,10.086,0,0,1-8.554.161l-2.707,1.57Z" transform="translate(44.154 53.656)" fill="#e8a50f"/><path d="M224.819,250.88c-8.331,4.808-21.853,4.808-30.184,0s-8.343-12.62,0-17.441,21.853-4.808,30.184,0S233.162,246.109,224.819,250.88Z" transform="translate(42.549 52.647)" fill="#e8a50f"/><path d="M224.819,248.45c-8.331,4.808-21.853,4.808-30.184,0s-8.343-12.62,0-17.441,21.853-4.808,30.184,0S233.162,243.63,224.819,248.45Z" transform="translate(42.549 52.074)" fill="#f4cf31"/><path d="M209.231,250.477a26.613,26.613,0,0,1-13.164-3.152c-3.6-2.077-5.587-4.858-5.587-7.849s2-5.772,5.587-7.874a29.01,29.01,0,0,1,26.3,0c3.6,2.064,5.587,4.858,5.587,7.837s-1.99,5.772-5.587,7.849A26.613,26.613,0,0,1,209.231,250.477Zm0-21.137a25.883,25.883,0,0,0-12.719,3.041c-3.325,1.916-5.154,4.437-5.154,7.1s1.829,5.191,5.154,7.107a28.256,28.256,0,0,0,25.45,0c3.313-1.916,5.142-4.437,5.142-7.107s-1.829-5.179-5.154-7.095a25.958,25.958,0,0,0-12.719-3.041Z" transform="translate(43.045 52.322)" fill="#e8a50f"/><path d="M195.378,243.139l2.633-1.52a6.341,6.341,0,0,1-2.831-2.954l2.386-.668a5.427,5.427,0,0,0,2.583,2.806,5.933,5.933,0,0,0,5.636.346c1.459-.841,1.335-1.941.185-3.5-1.619-2.126-2.077-3.782.185-5.093a9.7,9.7,0,0,1,8.146-.161l2.6-1.508,1.644.952-2.472,1.459a5.389,5.389,0,0,1,2.472,2.472l-2.311.643a5.2,5.2,0,0,0-2.4-2.472,5.142,5.142,0,0,0-4.944-.309c-1.347.779-1.063,1.73.235,3.6,1.582,2.175,1.619,3.708-.7,5.055a10.136,10.136,0,0,1-8.554.173l-2.707,1.557Z" transform="translate(44.154 52.898)" fill="#e8a50f"/><path d="M224.819,247.668c-8.331,4.808-21.853,4.808-30.184,0s-8.343-12.62,0-17.428,21.853-4.821,30.184,0S233.162,242.86,224.819,247.668Z" transform="translate(42.549 51.892)" fill="#e8a50f"/><path d="M224.819,245.238c-8.331,4.808-21.853,4.808-30.184,0s-8.343-12.62,0-17.428,21.853-4.821,30.184,0S233.162,240.417,224.819,245.238Z" transform="translate(42.549 51.318)" fill="#f4cf31"/><path d="M209.231,247.26a26.737,26.737,0,0,1-13.164-3.14c-3.6-2.077-5.587-4.87-5.587-7.849s1.99-5.772,5.587-7.849a29.01,29.01,0,0,1,26.3,0c3.6,2.077,5.587,4.858,5.587,7.849s-1.99,5.772-5.587,7.849a26.736,26.736,0,0,1-13.139,3.14Zm0-21.124a25.87,25.87,0,0,0-12.719,3.028c-3.325,1.916-5.154,4.437-5.154,7.107s1.829,5.179,5.154,7.095a28.145,28.145,0,0,0,25.45,0c3.313-1.916,5.142-4.437,5.142-7.095s-1.829-5.191-5.154-7.107a25.957,25.957,0,0,0-12.719-2.991Z" transform="translate(43.045 51.571)" fill="#e8a50f"/><path d="M195.378,239.927l2.633-1.52a6.18,6.18,0,0,1-2.831-2.954l2.386-.655a5.427,5.427,0,0,0,2.583,2.806,5.958,5.958,0,0,0,5.636.346c1.459-.84,1.335-1.941.185-3.5-1.619-2.138-2.077-3.795.185-5.093a9.691,9.691,0,0,1,8.146-.173l2.6-1.5,1.644.939-2.472,1.459a5.451,5.451,0,0,1,2.472,2.472l-2.311.643a5.2,5.2,0,0,0-2.4-2.472,5.13,5.13,0,0,0-4.944-.3c-1.347.779-1.063,1.73.235,3.585,1.582,2.175,1.619,3.708-.7,5.068a10.086,10.086,0,0,1-8.554.161l-2.707,1.557Z" transform="translate(44.154 52.142)" fill="#e8a50f"/><path d="M224.819,244.458c-8.331,4.821-21.853,4.821-30.184,0s-8.343-12.608,0-17.428,21.853-4.808,30.184,0S233.162,239.65,224.819,244.458Z" transform="translate(42.549 51.134)" fill="#e8a50f"/><path d="M224.819,242.017c-8.331,4.821-21.853,4.821-30.184,0s-8.343-12.62,0-17.428,21.853-4.808,30.184,0S233.162,237.221,224.819,242.017Z" transform="translate(42.549 50.559)" fill="#f4cf31"/><path d="M209.231,244.062a26.736,26.736,0,0,1-13.164-3.152c-3.6-2.077-5.587-4.87-5.587-7.849s1.99-5.772,5.587-7.849a29.01,29.01,0,0,1,26.3,0c3.6,2.077,5.587,4.87,5.587,7.849s-1.99,5.772-5.587,7.849a26.736,26.736,0,0,1-13.139,3.152Zm0-21.137a25.883,25.883,0,0,0-12.719,3.041c-3.325,1.916-5.154,4.437-5.154,7.095s1.829,5.179,5.154,7.107a28.256,28.256,0,0,0,25.45,0c3.313-1.928,5.142-4.437,5.142-7.107s-1.829-5.179-5.154-7.095a25.957,25.957,0,0,0-12.719-3.041Z" transform="translate(43.045 50.813)" fill="#e8a50f"/><path d="M195.378,236.729l2.633-1.52a6.341,6.341,0,0,1-2.831-2.954l2.386-.667a5.426,5.426,0,0,0,2.583,2.806,5.933,5.933,0,0,0,5.636.346c1.459-.841,1.335-1.941.185-3.5-1.619-2.126-2.077-3.782.185-5.093a9.7,9.7,0,0,1,8.146-.161l2.6-1.508,1.644.952-2.472,1.459a5.389,5.389,0,0,1,2.472,2.472l-2.311.643a5.266,5.266,0,0,0-2.4-2.472,5.167,5.167,0,0,0-4.944-.3c-1.347.779-1.063,1.73.235,3.6,1.582,2.175,1.619,3.708-.7,5.055a10.136,10.136,0,0,1-8.554.173l-2.707,1.557Z" transform="translate(44.154 51.385)" fill="#e8a50f"/><path d="M201.627,6.8,128.7,35.341l31.445,3.745Z" transform="translate(28.461)" fill="#fff"/><path d="M153.72,39.024l4.87,13.609L195.721,6.8Z" transform="translate(34.367)" fill="#e8e6ff"/><path d="M163.222,42.151,157.66,52.633,194.791,6.8Z" transform="translate(35.297)" fill="#cbcaff"/><path d="M193.729,6.8l-9.814,48.07L162.16,42.151Z" transform="translate(36.36)" fill="#fff"/><path d="M152.14,46.513l-1.31-1.137,1.693-1.965,1.31,1.137Z" transform="translate(33.685 8.642)" fill="#cbcaff"/><path d="M44.309,133.112a45.251,45.251,0,0,1-5.266-.4l.21-1.718c1.632.2,3.35.321,5.117.383Zm5.266,0v-1.73c1.656,0,3.387-.161,5.142-.321l.161,1.718c-1.842.148-3.646.272-5.3.321Zm10.457-.952-.247-1.718c1.656-.235,3.374-.519,5.093-.853l.321,1.706c-1.743.321-3.486.606-5.167.853Zm-26.2-.3a42.9,42.9,0,0,1-5.1-1.434l.569-1.632a43.732,43.732,0,0,0,4.944,1.384Zm36.5-1.656-.4-1.681c1.656-.383,3.337-.8,5.031-1.236l.445,1.669c-1.706.42-3.412.853-5.08,1.236Zm-46.5-1.9a32.682,32.682,0,0,1-3.5-2.052c-.371-.247-.717-.507-1.063-.766L20.33,124.1l1.014.729a30.546,30.546,0,0,0,3.276,1.953Zm56.624-.853-.507-1.619c1.632-.507,3.288-1.038,4.944-1.595l.556,1.632c-1.681.569-3.313,1.112-4.994,1.607Zm9.888-3.362-.606-1.619c1.607-.593,3.226-1.236,4.833-1.879l.655,1.607c-1.607.68-3.2,1.323-4.87,1.916ZM15.274,121.95a28.775,28.775,0,0,1-3.337-4.2l1.459-.927a26.6,26.6,0,0,0,3.127,3.931Zm84.769-1.78-.7-1.595c1.582-.692,3.164-1.409,4.722-2.138l.742,1.557c-1.557.766-3.164,1.5-4.746,2.2ZM109.5,115.7l-.779-1.545c1.545-.791,3.078-1.595,4.573-2.472l.828,1.52c-1.5.9-3.053,1.718-4.61,2.522ZM9.551,112.964a23.609,23.609,0,0,1-1.236-5.229l1.706-.222a22.521,22.521,0,0,0,1.236,4.858ZM118.7,110.677l-.89-1.483c1.52-.9,3-1.8,4.413-2.719l.927,1.459C121.686,108.848,120.228,109.763,118.7,110.677ZM127.5,105l-.989-1.421c1.459-1.038,2.843-2.077,4.128-3.09l1.075,1.347c-1.31,1.051-2.732,2.114-4.215,3.164ZM9.848,102.532l-1.718-.185a29.332,29.332,0,0,1,.915-5.278l1.669.445a28.17,28.17,0,0,0-.865,4.981Zm125.868-4.054-1.174-1.236c1.236-1.15,2.472-2.336,3.782-3.56l1.236,1.236c-1.323,1.174-2.6,2.361-3.844,3.523Zm-123.3-5.7-1.57-.7a36.773,36.773,0,0,1,2.472-4.7l1.459.927a37.442,37.442,0,0,0-2.361,4.475Zm130.849-1.557-1.236-1.236,3.708-3.708,1.236,1.236Q145.1,89.368,143.268,91.222ZM17.858,84.176l-1.335-1.1c1.112-1.335,2.324-2.645,3.6-3.894l1.236,1.236a46.859,46.859,0,0,0-3.5,3.758Zm132.765-.371-1.236-1.236L153,78.861l1.236,1.236C153.045,81.333,151.834,82.569,150.623,83.805ZM25.138,77.094l-1.1-1.372a48.619,48.619,0,0,1,4.388-3.041l.915,1.471a47.925,47.925,0,0,0-4.2,2.942Zm132.7-.8-1.236-1.236c1.236-1.236,2.386-2.472,3.56-3.782l1.236,1.174ZM33.815,71.7l-.754-1.5c1.57-.766,3.214-1.459,4.87-2.077l.593,1.632A48.067,48.067,0,0,0,33.815,71.7Zm131.133-3.028-1.236-1.236c1.236-1.3,2.373-2.571,3.51-3.832l1.236,1.174C167.334,66.093,166.184,67.378,164.948,68.676ZM43.407,68.182,42.974,66.5c1.706-.445,3.449-.791,5.179-1.063l.26,1.718a49.165,49.165,0,0,0-5.006,1.026Zm128.55-7.206-1.236-1.15,3.486-3.869,1.236,1.15c-1.075,1.236-2.25,2.534-3.461,3.869Zm6.959-7.762-1.236-1.15c1.236-1.421,2.472-2.732,3.449-3.894l1.3,1.137c-1.063,1.125-2.213,2.484-3.486,3.906Z" transform="translate(0 9.766)" fill="#cbcaff"/><path d="M44.817,63.46l-.087-1.73h2.633v1.73A21.876,21.876,0,0,0,44.817,63.46Z" transform="translate(8.64 12.967)" fill="#cbcaff"/></g></svg>