<?xml version="1.0" encoding="utf-8"?>
<!-- Generator: Adobe Illustrator 25.3.1, SVG Export Plug-In . SVG Version: 6.00 Build 0)  -->
<svg version="1.1" id="Layer_1" xmlns="http://www.w3.org/2000/svg" xmlns:xlink="http://www.w3.org/1999/xlink" x="0px" y="0px"
	 viewBox="0 0 63 63" style="enable-background:new 0 0 63 63;" xml:space="preserve">
<style type="text/css">
	.st0{fill:#FB8C00;}
</style>
<g id="Grupo_56761" transform="translate(-95.104 -119.738)">
	<g id="Grupo_56756" transform="translate(-5672.813 -3272.304)">
		<g id="Grupo_56753">
			<g id="Grupo_56752">
				<path id="Trazado_113180" class="st0" d="M5785.7,3413.2c-0.6,0-1.1-0.5-1.1-1.1s0.5-1.1,1.1-1.1c0.6,0,1.1,0.5,1.1,1.1
					c0,0.1,0,0.1,0,0.2C5786.7,3412.8,5786.3,3413.2,5785.7,3413.2z"/>
			</g>
		</g>
		<g id="Grupo_56755" transform="translate(16.777 18.852)">
			<g id="Grupo_56754">
				<path id="Trazado_113181" class="st0" d="M5789,3416.8c-0.6,0-1.1-0.5-1.1-1.1c0-0.6,0.5-1.1,1.1-1.1c0.6,0,1.1,0.5,1.1,1.1
					c0,0.1,0,0.1,0,0.2C5789.9,3416.4,5789.5,3416.8,5789,3416.8z"/>
			</g>
		</g>
	</g>
	<g id="Grupo_56758" transform="translate(-5683.896 -3285.262)">
		<g id="Grupo_56757">
			<path id="Trazado_113182" class="st0" d="M5838.3,3416.6c-0.1-0.4-0.5-0.7-0.9-0.7l-6-0.4l-0.4-6c0-0.6-0.6-1.1-1.2-1
				c-0.3,0-0.5,0.1-0.7,0.3l-4.8,4.8c-0.8,0.8-1.2,1.8-1.3,3c0,0,0,0,0,0.1l0.1,3.7c-10.7-8.7-26.4-7-35.1,3.7
				c-8.7,10.7-7,26.4,3.7,35.1c10.7,8.7,26.4,7,35.1-3.7c7.4-9.2,7.4-22.4-0.2-31.5l3.6,0.1h0.1c1.1,0,2.2-0.5,3-1.3l4.8-4.8
				C5838.3,3417.5,5838.4,3417,5838.3,3416.6L5838.3,3416.6z M5825.8,3415.1l3.1-3.1l0.3,4l-4,4l-0.1-3.5
				C5825.2,3416,5825.4,3415.5,5825.8,3415.1L5825.8,3415.1z M5807.4,3462.3c-12.5,0-22.7-10.2-22.7-22.7
				c0-12.5,10.2-22.7,22.7-22.7c5.6,0,11,2.1,15.2,5.8l-2.5,2.5c-5.2-4.6-12.6-6-19.1-3.6c-0.6,0.2-0.9,0.8-0.7,1.4
				c0.2,0.6,0.8,0.9,1.4,0.7c5.8-2.1,12.2-0.9,16.8,3.1l-2.5,2.5c-5.7-4.7-14.1-3.9-18.8,1.8c-4.7,5.7-3.9,14.1,1.8,18.8
				c4.1,3.4,9.9,4,14.6,1.6c0.5-0.3,0.8-0.9,0.5-1.5c-0.3-0.5-0.9-0.8-1.5-0.5c0,0,0,0,0,0c-1.6,0.8-3.3,1.2-5.1,1.2
				c-6.2,0-11.2-5-11.2-11.2s5-11.2,11.2-11.2c2.5,0,5,0.9,7,2.4l-2.6,2.6c-3.4-2.4-8.2-1.7-10.6,1.7c-2.4,3.4-1.7,8.2,1.7,10.6
				c3.4,2.4,8.2,1.7,10.6-1.7c2-2.7,1.9-6.4-0.2-9.1l2.5-2.5c2.5,3,3.3,7,2.1,10.7c-0.2,0.6,0.1,1.2,0.7,1.4
				c0.6,0.2,1.2-0.1,1.4-0.7c1.5-4.5,0.5-9.4-2.6-13l2.5-2.5c6.2,7,5.6,17.7-1.3,23.9s-17.7,5.6-23.9-1.3c-5.3-6-5.8-14.8-1.1-21.3
				c0.4-0.5,0.2-1.2-0.2-1.5c-0.5-0.4-1.2-0.2-1.5,0.2c-6.2,8.5-4.4,20.5,4.2,26.7c8.5,6.2,20.5,4.4,26.7-4.2
				c5.3-7.3,4.8-17.4-1.3-24.1l2.5-2.5c8.5,9.2,7.9,23.6-1.3,32.1C5818.6,3460.2,5813.1,3462.3,5807.4,3462.3L5807.4,3462.3z
				 M5812.8,3439.6c0,3-2.4,5.4-5.4,5.4c-3,0-5.4-2.4-5.4-5.4c0-3,2.4-5.4,5.4-5.4c1,0,2,0.3,2.9,0.8l-3.5,3.5
				c-0.4,0.4-0.4,1.1,0,1.5c0.4,0.4,1.1,0.4,1.5,0l0,0l3.5-3.5C5812.5,3437.4,5812.8,3438.5,5812.8,3439.6L5812.8,3439.6z
				 M5831.7,3421c-0.4,0.4-0.9,0.6-1.5,0.6l-3.4-0.1l2.1-2.1c0,0,0,0,0.1-0.1l1.8-1.8l4,0.3L5831.7,3421z"/>
		</g>
	</g>
</g>
</svg>
